%TF.GenerationSoftware,KiCad,Pcbnew,(5.1.12)-1*%
%TF.CreationDate,2021-12-07T00:58:41-05:00*%
%TF.ProjectId,GanJing 65 rev 2 hotswap,47616e4a-696e-4672-9036-352072657620,2*%
%TF.SameCoordinates,Original*%
%TF.FileFunction,Paste,Bot*%
%TF.FilePolarity,Positive*%
%FSLAX46Y46*%
G04 Gerber Fmt 4.6, Leading zero omitted, Abs format (unit mm)*
G04 Created by KiCad (PCBNEW (5.1.12)-1) date 2021-12-07 00:58:41*
%MOMM*%
%LPD*%
G01*
G04 APERTURE LIST*
%ADD10R,2.550000X2.500000*%
%ADD11R,1.600000X1.600000*%
G04 APERTURE END LIST*
D10*
%TO.C,MX29*%
X338196250Y-140335000D03*
X351123250Y-137795000D03*
%TD*%
%TO.C,MX70*%
X357246250Y-178435000D03*
X370173250Y-175895000D03*
%TD*%
%TO.C,MX69*%
X338196250Y-178435000D03*
X351123250Y-175895000D03*
%TD*%
%TO.C,MX68*%
X319146250Y-178435000D03*
X332073250Y-175895000D03*
%TD*%
%TO.C,MX67*%
X300096250Y-178435000D03*
X313023250Y-175895000D03*
%TD*%
%TO.C,MX66*%
X281046250Y-178435000D03*
X293973250Y-175895000D03*
%TD*%
%TO.C,MX65*%
X261996250Y-178435000D03*
X274923250Y-175895000D03*
%TD*%
%TO.C,MX64*%
X242946250Y-178435000D03*
X255873250Y-175895000D03*
%TD*%
%TO.C,MX63*%
X186817000Y-175895000D03*
X173890000Y-178435000D03*
%TD*%
%TO.C,MX62*%
X115379500Y-175895000D03*
X102452500Y-178435000D03*
%TD*%
%TO.C,MX61*%
X91567000Y-175895000D03*
X78640000Y-178435000D03*
%TD*%
%TO.C,MX60*%
X67754500Y-175895000D03*
X54827500Y-178435000D03*
%TD*%
%TO.C,MX59*%
X357246250Y-159385000D03*
X370173250Y-156845000D03*
%TD*%
%TO.C,MX57*%
X315404500Y-156845000D03*
X302477500Y-159385000D03*
%TD*%
%TO.C,MX56*%
X266758750Y-159385000D03*
X279685750Y-156845000D03*
%TD*%
%TO.C,MX55*%
X247708750Y-159385000D03*
X260635750Y-156845000D03*
%TD*%
%TO.C,MX54*%
X228658750Y-159385000D03*
X241585750Y-156845000D03*
%TD*%
%TO.C,MX53*%
X209608750Y-159385000D03*
X222535750Y-156845000D03*
%TD*%
%TO.C,MX52*%
X190558750Y-159385000D03*
X203485750Y-156845000D03*
%TD*%
%TO.C,MX51*%
X171508750Y-159385000D03*
X184435750Y-156845000D03*
%TD*%
%TO.C,MX50*%
X152458750Y-159385000D03*
X165385750Y-156845000D03*
%TD*%
%TO.C,MX49*%
X133408750Y-159385000D03*
X146335750Y-156845000D03*
%TD*%
%TO.C,MX48*%
X114358750Y-159385000D03*
X127285750Y-156845000D03*
%TD*%
%TO.C,MX47*%
X95308750Y-159385000D03*
X108235750Y-156845000D03*
%TD*%
%TO.C,MX45*%
X64352500Y-159385000D03*
X77279500Y-156845000D03*
%TD*%
%TO.C,MX44*%
X338196250Y-159385000D03*
X351123250Y-156845000D03*
%TD*%
%TO.C,MX43*%
X307240000Y-140335000D03*
X320167000Y-137795000D03*
%TD*%
%TO.C,MX41*%
X276283750Y-140335000D03*
X289210750Y-137795000D03*
%TD*%
%TO.C,MX40*%
X257233750Y-140335000D03*
X270160750Y-137795000D03*
%TD*%
%TO.C,MX39*%
X238183750Y-140335000D03*
X251110750Y-137795000D03*
%TD*%
%TO.C,MX38*%
X219133750Y-140335000D03*
X232060750Y-137795000D03*
%TD*%
%TO.C,MX37*%
X200083750Y-140335000D03*
X213010750Y-137795000D03*
%TD*%
%TO.C,MX36*%
X181033750Y-140335000D03*
X193960750Y-137795000D03*
%TD*%
%TO.C,MX35*%
X161983750Y-140335000D03*
X174910750Y-137795000D03*
%TD*%
%TO.C,MX34*%
X142933750Y-140335000D03*
X155860750Y-137795000D03*
%TD*%
%TO.C,MX33*%
X123883750Y-140335000D03*
X136810750Y-137795000D03*
%TD*%
%TO.C,MX32*%
X104833750Y-140335000D03*
X117760750Y-137795000D03*
%TD*%
%TO.C,MX31*%
X85783750Y-140335000D03*
X98710750Y-137795000D03*
%TD*%
%TO.C,MX30*%
X59590000Y-140335000D03*
X72517000Y-137795000D03*
%TD*%
%TO.C,MX28*%
X314383750Y-121285000D03*
X327310750Y-118745000D03*
%TD*%
%TO.C,MX27*%
X290571250Y-121285000D03*
X303498250Y-118745000D03*
%TD*%
%TO.C,MX26*%
X271521250Y-121285000D03*
X284448250Y-118745000D03*
%TD*%
%TO.C,MX25*%
X252471250Y-121285000D03*
X265398250Y-118745000D03*
%TD*%
%TO.C,MX24*%
X233421250Y-121285000D03*
X246348250Y-118745000D03*
%TD*%
%TO.C,MX23*%
X214371250Y-121285000D03*
X227298250Y-118745000D03*
%TD*%
%TO.C,MX22*%
X195321250Y-121285000D03*
X208248250Y-118745000D03*
%TD*%
%TO.C,MX21*%
X176271250Y-121285000D03*
X189198250Y-118745000D03*
%TD*%
%TO.C,MX20*%
X157221250Y-121285000D03*
X170148250Y-118745000D03*
%TD*%
%TO.C,MX19*%
X138171250Y-121285000D03*
X151098250Y-118745000D03*
%TD*%
%TO.C,MX18*%
X119121250Y-121285000D03*
X132048250Y-118745000D03*
%TD*%
%TO.C,MX17*%
X100071250Y-121285000D03*
X112998250Y-118745000D03*
%TD*%
%TO.C,MX16*%
X81021250Y-121285000D03*
X93948250Y-118745000D03*
%TD*%
%TO.C,MX15*%
X57208750Y-121285000D03*
X70135750Y-118745000D03*
%TD*%
%TO.C,MX14*%
X322548250Y-99695000D03*
X309621250Y-102235000D03*
%TD*%
%TO.C,MX13*%
X281046250Y-102235000D03*
X293973250Y-99695000D03*
%TD*%
%TO.C,MX12*%
X261996250Y-102235000D03*
X274923250Y-99695000D03*
%TD*%
%TO.C,MX11*%
X242946250Y-102235000D03*
X255873250Y-99695000D03*
%TD*%
%TO.C,MX10*%
X223896250Y-102235000D03*
X236823250Y-99695000D03*
%TD*%
%TO.C,MX9*%
X204846250Y-102235000D03*
X217773250Y-99695000D03*
%TD*%
%TO.C,MX8*%
X185796250Y-102235000D03*
X198723250Y-99695000D03*
%TD*%
%TO.C,MX7*%
X166746250Y-102235000D03*
X179673250Y-99695000D03*
%TD*%
%TO.C,MX6*%
X147696250Y-102235000D03*
X160623250Y-99695000D03*
%TD*%
%TO.C,MX5*%
X128646250Y-102235000D03*
X141573250Y-99695000D03*
%TD*%
%TO.C,MX4*%
X109596250Y-102235000D03*
X122523250Y-99695000D03*
%TD*%
%TO.C,MX3*%
X90546250Y-102235000D03*
X103473250Y-99695000D03*
%TD*%
%TO.C,MX2*%
X71496250Y-102235000D03*
X84423250Y-99695000D03*
%TD*%
%TO.C,MX1*%
X52446250Y-102235000D03*
X65373250Y-99695000D03*
%TD*%
D11*
%TO.C,D1*%
X69056250Y-99853750D03*
%TD*%
M02*
