%TF.GenerationSoftware,KiCad,Pcbnew,(6.0.1)*%
%TF.CreationDate,2022-02-08T18:35:09-05:00*%
%TF.ProjectId,GanJing 65 rev 2 hotswap,47616e4a-696e-4672-9036-352072657620,2*%
%TF.SameCoordinates,Original*%
%TF.FileFunction,Soldermask,Bot*%
%TF.FilePolarity,Negative*%
%FSLAX46Y46*%
G04 Gerber Fmt 4.6, Leading zero omitted, Abs format (unit mm)*
G04 Created by KiCad (PCBNEW (6.0.1)) date 2022-02-08 18:35:09*
%MOMM*%
%LPD*%
G01*
G04 APERTURE LIST*
%ADD10C,3.050000*%
%ADD11C,3.000000*%
%ADD12C,4.000000*%
%ADD13C,1.750000*%
%ADD14C,3.987800*%
%ADD15R,2.500000X2.550000*%
%ADD16C,3.048000*%
%ADD17R,1.600000X1.600000*%
%ADD18O,1.600000X1.600000*%
%ADD19O,1.600000X2.000000*%
%ADD20R,2.550000X2.500000*%
%ADD21R,1.752600X1.752600*%
%ADD22C,1.752600*%
%ADD23R,2.000000X3.200000*%
%ADD24R,2.000000X2.000000*%
%ADD25C,2.000000*%
G04 APERTURE END LIST*
D10*
%TO.C,MX43*%
X302225000Y-150875002D03*
D11*
X309245000Y-140335000D03*
D12*
X302225000Y-135635002D03*
D13*
X314325000Y-137795000D03*
D11*
X311785000Y-146685000D03*
D13*
X314325000Y-147955000D03*
D14*
X314325000Y-142875000D03*
D10*
X326025000Y-150875002D03*
D12*
X326025000Y-135635002D03*
D15*
X309245000Y-137033000D03*
X311785000Y-149960000D03*
%TD*%
D14*
%TO.C,MX75*%
X323850000Y-133350000D03*
D16*
X330835000Y-145288000D03*
D11*
X318770000Y-130810000D03*
D13*
X323850000Y-138430000D03*
X323850000Y-128270000D03*
D14*
X315595000Y-121412000D03*
D16*
X330835000Y-121412000D03*
D11*
X321310000Y-137160000D03*
D14*
X315595000Y-145288000D03*
D15*
X318770000Y-127508000D03*
X321310000Y-140435000D03*
%TD*%
D13*
%TO.C,MX28*%
X321468750Y-128905000D03*
X321468750Y-118745000D03*
D11*
X326548750Y-126365000D03*
X324008750Y-120015000D03*
D14*
X321468750Y-123825000D03*
D15*
X326548750Y-129667000D03*
X324008750Y-116740000D03*
%TD*%
D13*
%TO.C,MX42*%
X302418750Y-147955000D03*
D14*
X302418750Y-142875000D03*
D13*
X302418750Y-137795000D03*
D11*
X299878750Y-146685000D03*
X297338750Y-140335000D03*
D15*
X297338750Y-137033000D03*
X299878750Y-149960000D03*
%TD*%
D17*
%TO.C,D1*%
X69056250Y-99853750D03*
D18*
X69056250Y-104933750D03*
%TD*%
D17*
%TO.C,D2*%
X88106250Y-99853750D03*
D18*
X88106250Y-104933750D03*
%TD*%
D17*
%TO.C,D3*%
X107156250Y-99853750D03*
D18*
X107156250Y-104933750D03*
%TD*%
D17*
%TO.C,D4*%
X126206250Y-99853750D03*
D18*
X126206250Y-104933750D03*
%TD*%
D17*
%TO.C,D5*%
X145256250Y-99853750D03*
D18*
X145256250Y-104933750D03*
%TD*%
D17*
%TO.C,D6*%
X164306250Y-99853750D03*
D18*
X164306250Y-104933750D03*
%TD*%
D17*
%TO.C,D7*%
X183356250Y-99853750D03*
D18*
X183356250Y-104933750D03*
%TD*%
D17*
%TO.C,D8*%
X202406250Y-99853750D03*
D18*
X202406250Y-104933750D03*
%TD*%
D17*
%TO.C,D9*%
X221456250Y-99853750D03*
D18*
X221456250Y-104933750D03*
%TD*%
D17*
%TO.C,D10*%
X240506250Y-99853750D03*
D18*
X240506250Y-104933750D03*
%TD*%
D17*
%TO.C,D11*%
X259556250Y-99853750D03*
D18*
X259556250Y-104933750D03*
%TD*%
D17*
%TO.C,D12*%
X278606250Y-99853750D03*
D18*
X278606250Y-104933750D03*
%TD*%
D17*
%TO.C,D13*%
X297656250Y-99853750D03*
D18*
X297656250Y-104933750D03*
%TD*%
D17*
%TO.C,D14*%
X333375000Y-99853750D03*
D18*
X333375000Y-104933750D03*
%TD*%
D17*
%TO.C,D15*%
X52387500Y-116522500D03*
D18*
X52387500Y-121602500D03*
%TD*%
D17*
%TO.C,D16*%
X78581250Y-116522500D03*
D18*
X78581250Y-121602500D03*
%TD*%
D17*
%TO.C,D17*%
X97631250Y-116522500D03*
D18*
X97631250Y-121602500D03*
%TD*%
D17*
%TO.C,D18*%
X116681250Y-116522500D03*
D18*
X116681250Y-121602500D03*
%TD*%
D17*
%TO.C,D19*%
X135731250Y-116522500D03*
D18*
X135731250Y-121602500D03*
%TD*%
D17*
%TO.C,D20*%
X154781250Y-116522500D03*
D18*
X154781250Y-121602500D03*
%TD*%
D17*
%TO.C,D21*%
X173831250Y-116522500D03*
D18*
X173831250Y-121602500D03*
%TD*%
D17*
%TO.C,D22*%
X192881250Y-116522500D03*
D18*
X192881250Y-121602500D03*
%TD*%
D17*
%TO.C,D23*%
X211931250Y-116522500D03*
D18*
X211931250Y-121602500D03*
%TD*%
D17*
%TO.C,D24*%
X230981250Y-116522500D03*
D18*
X230981250Y-121602500D03*
%TD*%
D17*
%TO.C,D25*%
X250031250Y-116522500D03*
D18*
X250031250Y-121602500D03*
%TD*%
D17*
%TO.C,D26*%
X269081250Y-116522500D03*
D18*
X269081250Y-121602500D03*
%TD*%
D17*
%TO.C,D27*%
X288131250Y-116522500D03*
D18*
X288131250Y-121602500D03*
%TD*%
D17*
%TO.C,D28*%
X309562500Y-116522500D03*
D18*
X309562500Y-121602500D03*
%TD*%
D17*
%TO.C,D29*%
X335756250Y-137953750D03*
D18*
X335756250Y-143033750D03*
%TD*%
D17*
%TO.C,D30*%
X52387500Y-135572500D03*
D18*
X52387500Y-140652500D03*
%TD*%
D17*
%TO.C,D31*%
X83343750Y-135572500D03*
D18*
X83343750Y-140652500D03*
%TD*%
D17*
%TO.C,D32*%
X102393750Y-135572500D03*
D18*
X102393750Y-140652500D03*
%TD*%
D17*
%TO.C,D33*%
X121443750Y-135572500D03*
D18*
X121443750Y-140652500D03*
%TD*%
D17*
%TO.C,D34*%
X140493750Y-135572500D03*
D18*
X140493750Y-140652500D03*
%TD*%
D17*
%TO.C,D35*%
X159543750Y-135572500D03*
D18*
X159543750Y-140652500D03*
%TD*%
D17*
%TO.C,D36*%
X178593750Y-135572500D03*
D18*
X178593750Y-140652500D03*
%TD*%
D17*
%TO.C,D37*%
X197643750Y-135572500D03*
D18*
X197643750Y-140652500D03*
%TD*%
D17*
%TO.C,D38*%
X216693750Y-135572500D03*
D18*
X216693750Y-140652500D03*
%TD*%
D17*
%TO.C,D39*%
X235743750Y-135572500D03*
D18*
X235743750Y-140652500D03*
%TD*%
D17*
%TO.C,D40*%
X254793750Y-135572500D03*
D18*
X254793750Y-140652500D03*
%TD*%
D17*
%TO.C,D41*%
X273843750Y-135572500D03*
D18*
X273843750Y-140652500D03*
%TD*%
D17*
%TO.C,D43*%
X292893750Y-135572500D03*
D18*
X292893750Y-140652500D03*
%TD*%
D17*
%TO.C,D44*%
X335756250Y-154622500D03*
D18*
X335756250Y-159702500D03*
%TD*%
D17*
%TO.C,D45*%
X52387500Y-154622500D03*
D18*
X52387500Y-159702500D03*
%TD*%
D17*
%TO.C,D47*%
X92868750Y-154622500D03*
D18*
X92868750Y-159702500D03*
%TD*%
D17*
%TO.C,D48*%
X111918750Y-154622500D03*
D18*
X111918750Y-159702500D03*
%TD*%
D17*
%TO.C,D49*%
X130968750Y-154622500D03*
D18*
X130968750Y-159702500D03*
%TD*%
D17*
%TO.C,D50*%
X150018750Y-154622500D03*
D18*
X150018750Y-159702500D03*
%TD*%
D17*
%TO.C,D51*%
X169068750Y-154622500D03*
D18*
X169068750Y-159702500D03*
%TD*%
D17*
%TO.C,D52*%
X188118750Y-154622500D03*
D18*
X188118750Y-159702500D03*
%TD*%
D17*
%TO.C,D53*%
X207168750Y-154622500D03*
D18*
X207168750Y-159702500D03*
%TD*%
D17*
%TO.C,D54*%
X226218750Y-154622500D03*
D18*
X226218750Y-159702500D03*
%TD*%
D17*
%TO.C,D56*%
X264318750Y-154622500D03*
D18*
X264318750Y-159702500D03*
%TD*%
D17*
%TO.C,D57*%
X283368750Y-154622500D03*
D18*
X283368750Y-159702500D03*
%TD*%
D17*
%TO.C,D59*%
X354806250Y-154622500D03*
D18*
X354806250Y-159702500D03*
%TD*%
D17*
%TO.C,D60*%
X52387500Y-173672500D03*
D18*
X52387500Y-178752500D03*
%TD*%
D17*
%TO.C,D61*%
X76200000Y-173672500D03*
D18*
X76200000Y-178752500D03*
%TD*%
D17*
%TO.C,D62*%
X97631250Y-173672500D03*
D18*
X97631250Y-178752500D03*
%TD*%
D17*
%TO.C,D63*%
X164306250Y-173672500D03*
D18*
X164306250Y-178752500D03*
%TD*%
D17*
%TO.C,D64*%
X240506250Y-173672500D03*
D18*
X240506250Y-178752500D03*
%TD*%
D17*
%TO.C,D65*%
X259556250Y-173672500D03*
D18*
X259556250Y-178752500D03*
%TD*%
D17*
%TO.C,D66*%
X278606250Y-173672500D03*
D18*
X278606250Y-178752500D03*
%TD*%
D17*
%TO.C,D67*%
X297656250Y-176053750D03*
D18*
X297656250Y-181133750D03*
%TD*%
D17*
%TO.C,D68*%
X316706250Y-173672500D03*
D18*
X316706250Y-178752500D03*
%TD*%
D17*
%TO.C,D70*%
X354806250Y-173672500D03*
D18*
X354806250Y-178752500D03*
%TD*%
D17*
%TO.C,D74*%
X354806250Y-137953750D03*
D18*
X354806250Y-143033750D03*
%TD*%
D19*
%TO.C,DS1*%
X358616250Y-131250000D03*
X356076250Y-131250000D03*
X353536250Y-131250000D03*
X350996250Y-131250000D03*
%TD*%
D11*
%TO.C,MX1*%
X62071250Y-99695000D03*
X55721250Y-102235000D03*
D13*
X64611250Y-104775000D03*
D14*
X59531250Y-104775000D03*
D13*
X54451250Y-104775000D03*
D20*
X65373250Y-99695000D03*
X52446250Y-102235000D03*
%TD*%
D13*
%TO.C,MX2*%
X73501250Y-104775000D03*
X83661250Y-104775000D03*
D11*
X81121250Y-99695000D03*
D14*
X78581250Y-104775000D03*
D11*
X74771250Y-102235000D03*
D20*
X84423250Y-99695000D03*
X71496250Y-102235000D03*
%TD*%
D13*
%TO.C,MX3*%
X102711250Y-104775000D03*
X92551250Y-104775000D03*
D11*
X93821250Y-102235000D03*
X100171250Y-99695000D03*
D14*
X97631250Y-104775000D03*
D20*
X103473250Y-99695000D03*
X90546250Y-102235000D03*
%TD*%
D13*
%TO.C,MX4*%
X121761250Y-104775000D03*
D14*
X116681250Y-104775000D03*
D11*
X112871250Y-102235000D03*
X119221250Y-99695000D03*
D13*
X111601250Y-104775000D03*
D20*
X122523250Y-99695000D03*
X109596250Y-102235000D03*
%TD*%
D13*
%TO.C,MX5*%
X140811250Y-104775000D03*
D14*
X135731250Y-104775000D03*
D13*
X130651250Y-104775000D03*
D11*
X138271250Y-99695000D03*
X131921250Y-102235000D03*
D20*
X141573250Y-99695000D03*
X128646250Y-102235000D03*
%TD*%
D11*
%TO.C,MX6*%
X157321250Y-99695000D03*
D13*
X159861250Y-104775000D03*
D14*
X154781250Y-104775000D03*
D13*
X149701250Y-104775000D03*
D11*
X150971250Y-102235000D03*
D20*
X160623250Y-99695000D03*
X147696250Y-102235000D03*
%TD*%
D11*
%TO.C,MX7*%
X176371250Y-99695000D03*
X170021250Y-102235000D03*
D13*
X168751250Y-104775000D03*
X178911250Y-104775000D03*
D14*
X173831250Y-104775000D03*
D20*
X179673250Y-99695000D03*
X166746250Y-102235000D03*
%TD*%
D14*
%TO.C,MX8*%
X192881250Y-104775000D03*
D13*
X187801250Y-104775000D03*
X197961250Y-104775000D03*
D11*
X195421250Y-99695000D03*
X189071250Y-102235000D03*
D20*
X198723250Y-99695000D03*
X185796250Y-102235000D03*
%TD*%
D13*
%TO.C,MX9*%
X217011250Y-104775000D03*
D11*
X214471250Y-99695000D03*
X208121250Y-102235000D03*
D14*
X211931250Y-104775000D03*
D13*
X206851250Y-104775000D03*
D20*
X217773250Y-99695000D03*
X204846250Y-102235000D03*
%TD*%
D13*
%TO.C,MX10*%
X225901250Y-104775000D03*
X236061250Y-104775000D03*
D11*
X233521250Y-99695000D03*
D14*
X230981250Y-104775000D03*
D11*
X227171250Y-102235000D03*
D20*
X236823250Y-99695000D03*
X223896250Y-102235000D03*
%TD*%
D13*
%TO.C,MX11*%
X244951250Y-104775000D03*
D14*
X250031250Y-104775000D03*
D11*
X246221250Y-102235000D03*
D13*
X255111250Y-104775000D03*
D11*
X252571250Y-99695000D03*
D20*
X255873250Y-99695000D03*
X242946250Y-102235000D03*
%TD*%
D14*
%TO.C,MX12*%
X269081250Y-104775000D03*
D13*
X274161250Y-104775000D03*
X264001250Y-104775000D03*
D11*
X265271250Y-102235000D03*
X271621250Y-99695000D03*
D20*
X274923250Y-99695000D03*
X261996250Y-102235000D03*
%TD*%
D13*
%TO.C,MX13*%
X283051250Y-104775000D03*
X293211250Y-104775000D03*
D11*
X284321250Y-102235000D03*
D14*
X288131250Y-104775000D03*
D11*
X290671250Y-99695000D03*
D20*
X293973250Y-99695000D03*
X281046250Y-102235000D03*
%TD*%
D10*
%TO.C,MX14*%
X328606250Y-97775000D03*
D13*
X311626250Y-104775000D03*
X321786250Y-104775000D03*
D11*
X312896250Y-102235000D03*
D10*
X304806250Y-97775000D03*
D14*
X316706250Y-104775000D03*
D12*
X328606250Y-113015000D03*
D11*
X319246250Y-99695000D03*
D12*
X304806250Y-113015000D03*
D20*
X322548250Y-99695000D03*
X309621250Y-102235000D03*
%TD*%
D13*
%TO.C,MX15*%
X69373750Y-123825000D03*
D14*
X64293750Y-123825000D03*
D11*
X66833750Y-118745000D03*
D13*
X59213750Y-123825000D03*
D11*
X60483750Y-121285000D03*
D20*
X70135750Y-118745000D03*
X57208750Y-121285000D03*
%TD*%
D13*
%TO.C,MX16*%
X93186250Y-123825000D03*
D11*
X84296250Y-121285000D03*
D14*
X88106250Y-123825000D03*
D11*
X90646250Y-118745000D03*
D13*
X83026250Y-123825000D03*
D20*
X93948250Y-118745000D03*
X81021250Y-121285000D03*
%TD*%
D11*
%TO.C,MX17*%
X109696250Y-118745000D03*
X103346250Y-121285000D03*
D13*
X102076250Y-123825000D03*
D14*
X107156250Y-123825000D03*
D13*
X112236250Y-123825000D03*
D20*
X112998250Y-118745000D03*
X100071250Y-121285000D03*
%TD*%
D13*
%TO.C,MX18*%
X131286250Y-123825000D03*
D11*
X122396250Y-121285000D03*
X128746250Y-118745000D03*
D13*
X121126250Y-123825000D03*
D14*
X126206250Y-123825000D03*
D20*
X132048250Y-118745000D03*
X119121250Y-121285000D03*
%TD*%
D13*
%TO.C,MX19*%
X140176250Y-123825000D03*
D14*
X145256250Y-123825000D03*
D11*
X147796250Y-118745000D03*
X141446250Y-121285000D03*
D13*
X150336250Y-123825000D03*
D20*
X151098250Y-118745000D03*
X138171250Y-121285000D03*
%TD*%
D11*
%TO.C,MX20*%
X160496250Y-121285000D03*
D14*
X164306250Y-123825000D03*
D11*
X166846250Y-118745000D03*
D13*
X159226250Y-123825000D03*
X169386250Y-123825000D03*
D20*
X170148250Y-118745000D03*
X157221250Y-121285000D03*
%TD*%
D13*
%TO.C,MX21*%
X178276250Y-123825000D03*
X188436250Y-123825000D03*
D14*
X183356250Y-123825000D03*
D11*
X185896250Y-118745000D03*
X179546250Y-121285000D03*
D20*
X189198250Y-118745000D03*
X176271250Y-121285000D03*
%TD*%
D14*
%TO.C,MX22*%
X202406250Y-123825000D03*
D11*
X198596250Y-121285000D03*
D13*
X197326250Y-123825000D03*
D11*
X204946250Y-118745000D03*
D13*
X207486250Y-123825000D03*
D20*
X208248250Y-118745000D03*
X195321250Y-121285000D03*
%TD*%
D11*
%TO.C,MX23*%
X223996250Y-118745000D03*
D13*
X216376250Y-123825000D03*
D11*
X217646250Y-121285000D03*
D14*
X221456250Y-123825000D03*
D13*
X226536250Y-123825000D03*
D20*
X227298250Y-118745000D03*
X214371250Y-121285000D03*
%TD*%
D13*
%TO.C,MX24*%
X245586250Y-123825000D03*
D11*
X236696250Y-121285000D03*
D13*
X235426250Y-123825000D03*
D14*
X240506250Y-123825000D03*
D11*
X243046250Y-118745000D03*
D20*
X246348250Y-118745000D03*
X233421250Y-121285000D03*
%TD*%
D13*
%TO.C,MX25*%
X254476250Y-123825000D03*
D11*
X255746250Y-121285000D03*
D13*
X264636250Y-123825000D03*
D11*
X262096250Y-118745000D03*
D14*
X259556250Y-123825000D03*
D20*
X265398250Y-118745000D03*
X252471250Y-121285000D03*
%TD*%
D11*
%TO.C,MX26*%
X281146250Y-118745000D03*
X274796250Y-121285000D03*
D13*
X273526250Y-123825000D03*
X283686250Y-123825000D03*
D14*
X278606250Y-123825000D03*
D20*
X284448250Y-118745000D03*
X271521250Y-121285000D03*
%TD*%
D11*
%TO.C,MX27*%
X293846250Y-121285000D03*
X300196250Y-118745000D03*
D14*
X297656250Y-123825000D03*
D13*
X302736250Y-123825000D03*
X292576250Y-123825000D03*
D20*
X303498250Y-118745000D03*
X290571250Y-121285000D03*
%TD*%
D13*
%TO.C,MX29*%
X350361250Y-142875000D03*
X340201250Y-142875000D03*
D11*
X341471250Y-140335000D03*
D14*
X345281250Y-142875000D03*
D11*
X347821250Y-137795000D03*
D20*
X351123250Y-137795000D03*
X338196250Y-140335000D03*
%TD*%
D13*
%TO.C,MX30*%
X71755000Y-142875000D03*
D14*
X66675000Y-142875000D03*
D11*
X64135000Y-147955000D03*
X70485000Y-145415000D03*
D13*
X61595000Y-142875000D03*
D20*
X73760000Y-145415000D03*
X60833000Y-147955000D03*
%TD*%
D11*
%TO.C,MX31*%
X95408750Y-137795000D03*
D13*
X97948750Y-142875000D03*
X87788750Y-142875000D03*
D14*
X92868750Y-142875000D03*
D11*
X89058750Y-140335000D03*
D20*
X98710750Y-137795000D03*
X85783750Y-140335000D03*
%TD*%
D11*
%TO.C,MX32*%
X108108750Y-140335000D03*
D13*
X106838750Y-142875000D03*
D11*
X114458750Y-137795000D03*
D13*
X116998750Y-142875000D03*
D14*
X111918750Y-142875000D03*
D20*
X117760750Y-137795000D03*
X104833750Y-140335000D03*
%TD*%
D11*
%TO.C,MX33*%
X133508750Y-137795000D03*
D13*
X125888750Y-142875000D03*
D14*
X130968750Y-142875000D03*
D11*
X127158750Y-140335000D03*
D13*
X136048750Y-142875000D03*
D20*
X136810750Y-137795000D03*
X123883750Y-140335000D03*
%TD*%
D11*
%TO.C,MX34*%
X146208750Y-140335000D03*
D13*
X144938750Y-142875000D03*
X155098750Y-142875000D03*
D11*
X152558750Y-137795000D03*
D14*
X150018750Y-142875000D03*
D20*
X155860750Y-137795000D03*
X142933750Y-140335000D03*
%TD*%
D13*
%TO.C,MX35*%
X174148750Y-142875000D03*
D14*
X169068750Y-142875000D03*
D11*
X171608750Y-137795000D03*
D13*
X163988750Y-142875000D03*
D11*
X165258750Y-140335000D03*
D20*
X174910750Y-137795000D03*
X161983750Y-140335000D03*
%TD*%
D11*
%TO.C,MX36*%
X190658750Y-137795000D03*
D14*
X188118750Y-142875000D03*
D11*
X184308750Y-140335000D03*
D13*
X193198750Y-142875000D03*
X183038750Y-142875000D03*
D20*
X193960750Y-137795000D03*
X181033750Y-140335000D03*
%TD*%
D13*
%TO.C,MX37*%
X212248750Y-142875000D03*
X202088750Y-142875000D03*
D14*
X207168750Y-142875000D03*
D11*
X209708750Y-137795000D03*
X203358750Y-140335000D03*
D20*
X213010750Y-137795000D03*
X200083750Y-140335000D03*
%TD*%
D14*
%TO.C,MX38*%
X226218750Y-142875000D03*
D13*
X221138750Y-142875000D03*
D11*
X228758750Y-137795000D03*
X222408750Y-140335000D03*
D13*
X231298750Y-142875000D03*
D20*
X232060750Y-137795000D03*
X219133750Y-140335000D03*
%TD*%
D13*
%TO.C,MX39*%
X250348750Y-142875000D03*
X240188750Y-142875000D03*
D11*
X247808750Y-137795000D03*
D14*
X245268750Y-142875000D03*
D11*
X241458750Y-140335000D03*
D20*
X251110750Y-137795000D03*
X238183750Y-140335000D03*
%TD*%
D13*
%TO.C,MX40*%
X259238750Y-142875000D03*
D11*
X260508750Y-140335000D03*
D14*
X264318750Y-142875000D03*
D13*
X269398750Y-142875000D03*
D11*
X266858750Y-137795000D03*
D20*
X270160750Y-137795000D03*
X257233750Y-140335000D03*
%TD*%
D11*
%TO.C,MX41*%
X285908750Y-137795000D03*
D14*
X283368750Y-142875000D03*
D13*
X278288750Y-142875000D03*
X288448750Y-142875000D03*
D11*
X279558750Y-140335000D03*
D20*
X289210750Y-137795000D03*
X276283750Y-140335000D03*
%TD*%
D14*
%TO.C,MX44*%
X345281250Y-161925000D03*
D13*
X340201250Y-161925000D03*
X350361250Y-161925000D03*
D11*
X347821250Y-156845000D03*
X341471250Y-159385000D03*
D20*
X351123250Y-156845000D03*
X338196250Y-159385000D03*
%TD*%
D12*
%TO.C,MX45*%
X59537500Y-170165000D03*
D13*
X66357500Y-161925000D03*
D10*
X59537500Y-154925000D03*
D13*
X76517500Y-161925000D03*
D10*
X83337500Y-154925000D03*
D11*
X67627500Y-159385000D03*
X73977500Y-156845000D03*
D14*
X71437500Y-161925000D03*
D12*
X83337500Y-170165000D03*
D20*
X77279500Y-156845000D03*
X64352500Y-159385000D03*
%TD*%
D13*
%TO.C,MX47*%
X107473750Y-161925000D03*
D11*
X98583750Y-159385000D03*
X104933750Y-156845000D03*
D14*
X102393750Y-161925000D03*
D13*
X97313750Y-161925000D03*
D20*
X108235750Y-156845000D03*
X95308750Y-159385000D03*
%TD*%
D13*
%TO.C,MX48*%
X126523750Y-161925000D03*
X116363750Y-161925000D03*
D11*
X123983750Y-156845000D03*
D14*
X121443750Y-161925000D03*
D11*
X117633750Y-159385000D03*
D20*
X127285750Y-156845000D03*
X114358750Y-159385000D03*
%TD*%
D11*
%TO.C,MX49*%
X136683750Y-159385000D03*
D13*
X135413750Y-161925000D03*
D11*
X143033750Y-156845000D03*
D14*
X140493750Y-161925000D03*
D13*
X145573750Y-161925000D03*
D20*
X146335750Y-156845000D03*
X133408750Y-159385000D03*
%TD*%
D11*
%TO.C,MX50*%
X162083750Y-156845000D03*
D13*
X164623750Y-161925000D03*
D11*
X155733750Y-159385000D03*
D13*
X154463750Y-161925000D03*
D14*
X159543750Y-161925000D03*
D20*
X165385750Y-156845000D03*
X152458750Y-159385000D03*
%TD*%
D13*
%TO.C,MX51*%
X183673750Y-161925000D03*
D11*
X181133750Y-156845000D03*
X174783750Y-159385000D03*
D13*
X173513750Y-161925000D03*
D14*
X178593750Y-161925000D03*
D20*
X184435750Y-156845000D03*
X171508750Y-159385000D03*
%TD*%
D11*
%TO.C,MX52*%
X193833750Y-159385000D03*
D13*
X202723750Y-161925000D03*
X192563750Y-161925000D03*
D14*
X197643750Y-161925000D03*
D11*
X200183750Y-156845000D03*
D20*
X203485750Y-156845000D03*
X190558750Y-159385000D03*
%TD*%
D13*
%TO.C,MX53*%
X211613750Y-161925000D03*
D11*
X212883750Y-159385000D03*
D13*
X221773750Y-161925000D03*
D11*
X219233750Y-156845000D03*
D14*
X216693750Y-161925000D03*
D20*
X222535750Y-156845000D03*
X209608750Y-159385000D03*
%TD*%
D13*
%TO.C,MX54*%
X230663750Y-161925000D03*
D11*
X231933750Y-159385000D03*
D13*
X240823750Y-161925000D03*
D11*
X238283750Y-156845000D03*
D14*
X235743750Y-161925000D03*
D20*
X241585750Y-156845000D03*
X228658750Y-159385000D03*
%TD*%
D13*
%TO.C,MX55*%
X249713750Y-161925000D03*
D11*
X250983750Y-159385000D03*
X257333750Y-156845000D03*
D14*
X254793750Y-161925000D03*
D13*
X259873750Y-161925000D03*
D20*
X260635750Y-156845000D03*
X247708750Y-159385000D03*
%TD*%
D13*
%TO.C,MX56*%
X278923750Y-161925000D03*
D11*
X270033750Y-159385000D03*
X276383750Y-156845000D03*
D13*
X268763750Y-161925000D03*
D14*
X273843750Y-161925000D03*
D20*
X279685750Y-156845000D03*
X266758750Y-159385000D03*
%TD*%
D13*
%TO.C,MX57*%
X304482500Y-161925000D03*
D11*
X305752500Y-159385000D03*
D14*
X309562500Y-161925000D03*
D11*
X312102500Y-156845000D03*
D10*
X297662500Y-154925000D03*
D13*
X314642500Y-161925000D03*
D12*
X321462500Y-170165000D03*
X297662500Y-170165000D03*
D10*
X321462500Y-154925000D03*
D20*
X315404500Y-156845000D03*
X302477500Y-159385000D03*
%TD*%
D13*
%TO.C,MX59*%
X359251250Y-161925000D03*
D11*
X366871250Y-156845000D03*
D14*
X364331250Y-161925000D03*
D13*
X369411250Y-161925000D03*
D11*
X360521250Y-159385000D03*
D20*
X370173250Y-156845000D03*
X357246250Y-159385000D03*
%TD*%
D14*
%TO.C,MX60*%
X61912500Y-180975000D03*
D11*
X64452500Y-175895000D03*
D13*
X56832500Y-180975000D03*
D11*
X58102500Y-178435000D03*
D13*
X66992500Y-180975000D03*
D20*
X67754500Y-175895000D03*
X54827500Y-178435000D03*
%TD*%
D14*
%TO.C,MX61*%
X85725000Y-180975000D03*
D13*
X80645000Y-180975000D03*
D11*
X88265000Y-175895000D03*
D13*
X90805000Y-180975000D03*
D11*
X81915000Y-178435000D03*
D20*
X91567000Y-175895000D03*
X78640000Y-178435000D03*
%TD*%
D11*
%TO.C,MX62*%
X105727500Y-178435000D03*
X112077500Y-175895000D03*
D13*
X104457500Y-180975000D03*
D14*
X109537500Y-180975000D03*
D13*
X114617500Y-180975000D03*
D20*
X115379500Y-175895000D03*
X102452500Y-178435000D03*
%TD*%
D13*
%TO.C,MX64*%
X255111250Y-180975000D03*
D11*
X252571250Y-175895000D03*
X246221250Y-178435000D03*
D14*
X250031250Y-180975000D03*
D13*
X244951250Y-180975000D03*
D20*
X255873250Y-175895000D03*
X242946250Y-178435000D03*
%TD*%
D11*
%TO.C,MX65*%
X265271250Y-178435000D03*
X271621250Y-175895000D03*
D13*
X264001250Y-180975000D03*
D14*
X269081250Y-180975000D03*
D13*
X274161250Y-180975000D03*
D20*
X274923250Y-175895000D03*
X261996250Y-178435000D03*
%TD*%
D11*
%TO.C,MX66*%
X284321250Y-178435000D03*
X290671250Y-175895000D03*
D14*
X288131250Y-180975000D03*
D13*
X283051250Y-180975000D03*
X293211250Y-180975000D03*
D20*
X293973250Y-175895000D03*
X281046250Y-178435000D03*
%TD*%
D11*
%TO.C,MX67*%
X303371250Y-178435000D03*
D13*
X302101250Y-180975000D03*
X312261250Y-180975000D03*
D11*
X309721250Y-175895000D03*
D14*
X307181250Y-180975000D03*
D20*
X313023250Y-175895000D03*
X300096250Y-178435000D03*
%TD*%
D13*
%TO.C,MX68*%
X321151250Y-180975000D03*
D14*
X326231250Y-180975000D03*
D11*
X322421250Y-178435000D03*
X328771250Y-175895000D03*
D13*
X331311250Y-180975000D03*
D20*
X332073250Y-175895000D03*
X319146250Y-178435000D03*
%TD*%
D11*
%TO.C,MX69*%
X347821250Y-175895000D03*
X341471250Y-178435000D03*
D13*
X340201250Y-180975000D03*
X350361250Y-180975000D03*
D14*
X345281250Y-180975000D03*
D20*
X351123250Y-175895000D03*
X338196250Y-178435000D03*
%TD*%
D13*
%TO.C,MX70*%
X369411250Y-180975000D03*
D11*
X366871250Y-175895000D03*
X360521250Y-178435000D03*
D14*
X364331250Y-180975000D03*
D13*
X359251250Y-180975000D03*
D20*
X370173250Y-175895000D03*
X357246250Y-178435000D03*
%TD*%
D21*
%TO.C,U1*%
X347186250Y-99130000D03*
D22*
X347186250Y-101670000D03*
X347186250Y-104210000D03*
X347186250Y-106750000D03*
X347186250Y-109290000D03*
X347186250Y-111830000D03*
X347186250Y-114370000D03*
X347186250Y-116910000D03*
X347186250Y-119450000D03*
X347186250Y-121990000D03*
X347186250Y-124530000D03*
X347186250Y-127070000D03*
X362426250Y-127070000D03*
X362426250Y-124530000D03*
X362426250Y-121990000D03*
X362426250Y-119450000D03*
X362426250Y-116910000D03*
X362426250Y-114370000D03*
X362426250Y-111830000D03*
X362426250Y-109290000D03*
X362426250Y-106750000D03*
X362426250Y-104210000D03*
X362426250Y-101670000D03*
X362426250Y-99130000D03*
X349726250Y-127070000D03*
X352266250Y-127070000D03*
X354806250Y-127070000D03*
X357346250Y-127070000D03*
X359886250Y-127070000D03*
%TD*%
D17*
%TO.C,D55*%
X245268750Y-154622500D03*
D18*
X245268750Y-159702500D03*
%TD*%
D23*
%TO.C,SW1*%
X369931250Y-143875000D03*
X358731250Y-143875000D03*
D24*
X361831250Y-151375000D03*
D25*
X366831250Y-151375000D03*
X364331250Y-151375000D03*
X366831250Y-136875000D03*
X361831250Y-136875000D03*
%TD*%
D13*
%TO.C,MX63*%
X186055000Y-180975000D03*
X175895000Y-180975000D03*
D11*
X184785000Y-183515000D03*
D14*
X130975100Y-172720000D03*
X230974900Y-172720000D03*
D11*
X178435000Y-186055000D03*
D14*
X180975000Y-180975000D03*
D16*
X130975100Y-187960000D03*
X230974900Y-187960000D03*
D20*
X175133000Y-186055000D03*
X188060000Y-183515000D03*
%TD*%
D13*
%TO.C,MX79*%
X171132500Y-180975000D03*
D11*
X172402500Y-178435000D03*
D13*
X181292500Y-180975000D03*
D14*
X176212500Y-180975000D03*
D11*
X178752500Y-175895000D03*
D20*
X182054500Y-175895000D03*
X169127500Y-178435000D03*
%TD*%
D17*
%TO.C,D69*%
X335756250Y-173672500D03*
D18*
X335756250Y-178752500D03*
%TD*%
D17*
%TO.C,D42*%
X292893750Y-145097500D03*
D18*
X292893750Y-150177500D03*
%TD*%
D17*
%TO.C,D58*%
X335756250Y-164147500D03*
D18*
X335756250Y-169227500D03*
%TD*%
D11*
%TO.C,MX76*%
X65722500Y-164465000D03*
D13*
X56832500Y-161925000D03*
D11*
X59372500Y-167005000D03*
D13*
X66992500Y-161925000D03*
D14*
X61912500Y-161925000D03*
D20*
X68997500Y-164465000D03*
X56070500Y-167005000D03*
%TD*%
D14*
%TO.C,MX74*%
X61912500Y-142875000D03*
D11*
X64452500Y-137795000D03*
D13*
X56832500Y-142875000D03*
X66992500Y-142875000D03*
D11*
X58102500Y-140335000D03*
D20*
X67754500Y-137795000D03*
X54827500Y-140335000D03*
%TD*%
D10*
%TO.C,MX78*%
X154775000Y-187975000D03*
D11*
X145415000Y-175895000D03*
D13*
X147955000Y-180975000D03*
D12*
X154775000Y-172735000D03*
D10*
X130975000Y-187975000D03*
D14*
X142875000Y-180975000D03*
D13*
X137795000Y-180975000D03*
D11*
X139065000Y-178435000D03*
D12*
X130975000Y-172735000D03*
D20*
X148717000Y-175895000D03*
X135790000Y-178435000D03*
%TD*%
D11*
%TO.C,MX46*%
X80803750Y-167005000D03*
D14*
X83343750Y-161925000D03*
D11*
X87153750Y-164465000D03*
D13*
X88423750Y-161925000D03*
X78263750Y-161925000D03*
D20*
X90428750Y-164465000D03*
X77501750Y-167005000D03*
%TD*%
D14*
%TO.C,MX77*%
X300037500Y-161925000D03*
D11*
X303847500Y-164465000D03*
X297497500Y-167005000D03*
D13*
X294957500Y-161925000D03*
X305117500Y-161925000D03*
D20*
X307122500Y-164465000D03*
X294195500Y-167005000D03*
%TD*%
D17*
%TO.C,D46*%
X92868750Y-164147500D03*
D18*
X92868750Y-169227500D03*
%TD*%
D11*
%TO.C,MX80*%
X210502500Y-178435000D03*
D12*
X202412500Y-172735000D03*
D10*
X226212500Y-187975000D03*
D11*
X216852500Y-175895000D03*
D14*
X214312500Y-180975000D03*
D13*
X209232500Y-180975000D03*
D10*
X202412500Y-187975000D03*
D13*
X219392500Y-180975000D03*
D12*
X226212500Y-172735000D03*
D20*
X220154500Y-175895000D03*
X207227500Y-178435000D03*
%TD*%
D14*
%TO.C,MX58*%
X326231250Y-161925000D03*
D13*
X321151250Y-161925000D03*
D11*
X330041250Y-164465000D03*
X323691250Y-167005000D03*
D13*
X331311250Y-161925000D03*
D20*
X320389250Y-167005000D03*
X333316250Y-164465000D03*
%TD*%
M02*
