%TF.GenerationSoftware,KiCad,Pcbnew,(6.0.1)*%
%TF.CreationDate,2022-05-15T15:51:36-04:00*%
%TF.ProjectId,GanJing 65 rev 2 hotswap,47616e4a-696e-4672-9036-352072657620,2*%
%TF.SameCoordinates,Original*%
%TF.FileFunction,Soldermask,Bot*%
%TF.FilePolarity,Negative*%
%FSLAX46Y46*%
G04 Gerber Fmt 4.6, Leading zero omitted, Abs format (unit mm)*
G04 Created by KiCad (PCBNEW (6.0.1)) date 2022-05-15 15:51:36*
%MOMM*%
%LPD*%
G01*
G04 APERTURE LIST*
%ADD10C,0.150000*%
%ADD11R,1.600000X1.600000*%
%ADD12O,1.600000X1.600000*%
%ADD13R,1.800000X1.800000*%
%ADD14C,1.800000*%
%ADD15C,1.750000*%
%ADD16C,3.000000*%
%ADD17C,3.987800*%
%ADD18R,2.550000X2.500000*%
%ADD19C,4.000000*%
%ADD20C,3.050000*%
%ADD21R,2.500000X2.550000*%
%ADD22R,2.000000X3.200000*%
%ADD23R,2.000000X2.000000*%
%ADD24C,2.000000*%
%ADD25C,3.048000*%
G04 APERTURE END LIST*
D10*
X370664285Y-188571130D02*
X370664285Y-187571130D01*
X370426190Y-187571130D01*
X370283333Y-187618750D01*
X370188095Y-187713988D01*
X370140476Y-187809226D01*
X370092857Y-187999702D01*
X370092857Y-188142559D01*
X370140476Y-188333035D01*
X370188095Y-188428273D01*
X370283333Y-188523511D01*
X370426190Y-188571130D01*
X370664285Y-188571130D01*
X369283333Y-188523511D02*
X369378571Y-188571130D01*
X369569047Y-188571130D01*
X369664285Y-188523511D01*
X369711904Y-188428273D01*
X369711904Y-188047321D01*
X369664285Y-187952083D01*
X369569047Y-187904464D01*
X369378571Y-187904464D01*
X369283333Y-187952083D01*
X369235714Y-188047321D01*
X369235714Y-188142559D01*
X369711904Y-188237797D01*
X368854761Y-188523511D02*
X368759523Y-188571130D01*
X368569047Y-188571130D01*
X368473809Y-188523511D01*
X368426190Y-188428273D01*
X368426190Y-188380654D01*
X368473809Y-188285416D01*
X368569047Y-188237797D01*
X368711904Y-188237797D01*
X368807142Y-188190178D01*
X368854761Y-188094940D01*
X368854761Y-188047321D01*
X368807142Y-187952083D01*
X368711904Y-187904464D01*
X368569047Y-187904464D01*
X368473809Y-187952083D01*
X367997619Y-188571130D02*
X367997619Y-187904464D01*
X367997619Y-187571130D02*
X368045238Y-187618750D01*
X367997619Y-187666369D01*
X367950000Y-187618750D01*
X367997619Y-187571130D01*
X367997619Y-187666369D01*
X367092857Y-187904464D02*
X367092857Y-188713988D01*
X367140476Y-188809226D01*
X367188095Y-188856845D01*
X367283333Y-188904464D01*
X367426190Y-188904464D01*
X367521428Y-188856845D01*
X367092857Y-188523511D02*
X367188095Y-188571130D01*
X367378571Y-188571130D01*
X367473809Y-188523511D01*
X367521428Y-188475892D01*
X367569047Y-188380654D01*
X367569047Y-188094940D01*
X367521428Y-187999702D01*
X367473809Y-187952083D01*
X367378571Y-187904464D01*
X367188095Y-187904464D01*
X367092857Y-187952083D01*
X366616666Y-187904464D02*
X366616666Y-188571130D01*
X366616666Y-187999702D02*
X366569047Y-187952083D01*
X366473809Y-187904464D01*
X366330952Y-187904464D01*
X366235714Y-187952083D01*
X366188095Y-188047321D01*
X366188095Y-188571130D01*
X365330952Y-188523511D02*
X365426190Y-188571130D01*
X365616666Y-188571130D01*
X365711904Y-188523511D01*
X365759523Y-188428273D01*
X365759523Y-188047321D01*
X365711904Y-187952083D01*
X365616666Y-187904464D01*
X365426190Y-187904464D01*
X365330952Y-187952083D01*
X365283333Y-188047321D01*
X365283333Y-188142559D01*
X365759523Y-188237797D01*
X364426190Y-188571130D02*
X364426190Y-187571130D01*
X364426190Y-188523511D02*
X364521428Y-188571130D01*
X364711904Y-188571130D01*
X364807142Y-188523511D01*
X364854761Y-188475892D01*
X364902380Y-188380654D01*
X364902380Y-188094940D01*
X364854761Y-187999702D01*
X364807142Y-187952083D01*
X364711904Y-187904464D01*
X364521428Y-187904464D01*
X364426190Y-187952083D01*
X363188095Y-188571130D02*
X363188095Y-187571130D01*
X363188095Y-187952083D02*
X363092857Y-187904464D01*
X362902380Y-187904464D01*
X362807142Y-187952083D01*
X362759523Y-187999702D01*
X362711904Y-188094940D01*
X362711904Y-188380654D01*
X362759523Y-188475892D01*
X362807142Y-188523511D01*
X362902380Y-188571130D01*
X363092857Y-188571130D01*
X363188095Y-188523511D01*
X362378571Y-187904464D02*
X362140476Y-188571130D01*
X361902380Y-187904464D02*
X362140476Y-188571130D01*
X362235714Y-188809226D01*
X362283333Y-188856845D01*
X362378571Y-188904464D01*
X360759523Y-188571130D02*
X360759523Y-187571130D01*
X360426190Y-188285416D01*
X360092857Y-187571130D01*
X360092857Y-188571130D01*
X359616666Y-188571130D02*
X359616666Y-187904464D01*
X359616666Y-187571130D02*
X359664285Y-187618750D01*
X359616666Y-187666369D01*
X359569047Y-187618750D01*
X359616666Y-187571130D01*
X359616666Y-187666369D01*
X359140476Y-187904464D02*
X359140476Y-188571130D01*
X359140476Y-187999702D02*
X359092857Y-187952083D01*
X358997619Y-187904464D01*
X358854761Y-187904464D01*
X358759523Y-187952083D01*
X358711904Y-188047321D01*
X358711904Y-188571130D01*
X357807142Y-187904464D02*
X357807142Y-188713988D01*
X357854761Y-188809226D01*
X357902380Y-188856845D01*
X357997619Y-188904464D01*
X358140476Y-188904464D01*
X358235714Y-188856845D01*
X357807142Y-188523511D02*
X357902380Y-188571130D01*
X358092857Y-188571130D01*
X358188095Y-188523511D01*
X358235714Y-188475892D01*
X358283333Y-188380654D01*
X358283333Y-188094940D01*
X358235714Y-187999702D01*
X358188095Y-187952083D01*
X358092857Y-187904464D01*
X357902380Y-187904464D01*
X357807142Y-187952083D01*
X357426190Y-187904464D02*
X356902380Y-187904464D01*
X357426190Y-188571130D01*
X356902380Y-188571130D01*
X356140476Y-188523511D02*
X356235714Y-188571130D01*
X356426190Y-188571130D01*
X356521428Y-188523511D01*
X356569047Y-188428273D01*
X356569047Y-188047321D01*
X356521428Y-187952083D01*
X356426190Y-187904464D01*
X356235714Y-187904464D01*
X356140476Y-187952083D01*
X356092857Y-188047321D01*
X356092857Y-188142559D01*
X356569047Y-188237797D01*
X354616666Y-187571130D02*
X354616666Y-188285416D01*
X354664285Y-188428273D01*
X354759523Y-188523511D01*
X354902380Y-188571130D01*
X354997619Y-188571130D01*
X354140476Y-188571130D02*
X354140476Y-187904464D01*
X354140476Y-187571130D02*
X354188095Y-187618750D01*
X354140476Y-187666369D01*
X354092857Y-187618750D01*
X354140476Y-187571130D01*
X354140476Y-187666369D01*
X353664285Y-187904464D02*
X353664285Y-188571130D01*
X353664285Y-187999702D02*
X353616666Y-187952083D01*
X353521428Y-187904464D01*
X353378571Y-187904464D01*
X353283333Y-187952083D01*
X353235714Y-188047321D01*
X353235714Y-188571130D01*
D11*
%TO.C,D1*%
X69056250Y-99853750D03*
D12*
X69056250Y-104933750D03*
%TD*%
D11*
%TO.C,D2*%
X88106250Y-99853750D03*
D12*
X88106250Y-104933750D03*
%TD*%
D11*
%TO.C,D3*%
X107156250Y-99853750D03*
D12*
X107156250Y-104933750D03*
%TD*%
D11*
%TO.C,D4*%
X126206250Y-99853750D03*
D12*
X126206250Y-104933750D03*
%TD*%
D11*
%TO.C,D5*%
X145256250Y-99853750D03*
D12*
X145256250Y-104933750D03*
%TD*%
D11*
%TO.C,D6*%
X164306250Y-99853750D03*
D12*
X164306250Y-104933750D03*
%TD*%
D11*
%TO.C,D7*%
X183356250Y-99853750D03*
D12*
X183356250Y-104933750D03*
%TD*%
D11*
%TO.C,D8*%
X202406250Y-99853750D03*
D12*
X202406250Y-104933750D03*
%TD*%
D11*
%TO.C,D9*%
X221456250Y-99853750D03*
D12*
X221456250Y-104933750D03*
%TD*%
D11*
%TO.C,D10*%
X240506250Y-99853750D03*
D12*
X240506250Y-104933750D03*
%TD*%
D11*
%TO.C,D11*%
X259556250Y-99853750D03*
D12*
X259556250Y-104933750D03*
%TD*%
D11*
%TO.C,D12*%
X278606250Y-99853750D03*
D12*
X278606250Y-104933750D03*
%TD*%
D11*
%TO.C,D13*%
X297656250Y-99853750D03*
D12*
X297656250Y-104933750D03*
%TD*%
D11*
%TO.C,D14*%
X333375000Y-99853750D03*
D12*
X333375000Y-104933750D03*
%TD*%
D11*
%TO.C,D16*%
X52387500Y-116522500D03*
D12*
X52387500Y-121602500D03*
%TD*%
D11*
%TO.C,D17*%
X78581250Y-116522500D03*
D12*
X78581250Y-121602500D03*
%TD*%
D11*
%TO.C,D18*%
X97631250Y-116522500D03*
D12*
X97631250Y-121602500D03*
%TD*%
D11*
%TO.C,D19*%
X116681250Y-116522500D03*
D12*
X116681250Y-121602500D03*
%TD*%
D11*
%TO.C,D20*%
X135731250Y-116522500D03*
D12*
X135731250Y-121602500D03*
%TD*%
D11*
%TO.C,D21*%
X154781250Y-116522500D03*
D12*
X154781250Y-121602500D03*
%TD*%
D11*
%TO.C,D22*%
X173831250Y-116522500D03*
D12*
X173831250Y-121602500D03*
%TD*%
D11*
%TO.C,D23*%
X192881250Y-116522500D03*
D12*
X192881250Y-121602500D03*
%TD*%
D11*
%TO.C,D24*%
X211931250Y-116522500D03*
D12*
X211931250Y-121602500D03*
%TD*%
D11*
%TO.C,D25*%
X230981250Y-116522500D03*
D12*
X230981250Y-121602500D03*
%TD*%
D11*
%TO.C,D26*%
X250031250Y-116522500D03*
D12*
X250031250Y-121602500D03*
%TD*%
D11*
%TO.C,D27*%
X269081250Y-116522500D03*
D12*
X269081250Y-121602500D03*
%TD*%
D11*
%TO.C,D28*%
X288131250Y-116522500D03*
D12*
X288131250Y-121602500D03*
%TD*%
D11*
%TO.C,D29*%
X309562500Y-116522500D03*
D12*
X309562500Y-121602500D03*
%TD*%
D11*
%TO.C,D30*%
X335756250Y-137953750D03*
D12*
X335756250Y-143033750D03*
%TD*%
D11*
%TO.C,D31*%
X52387500Y-135572500D03*
D12*
X52387500Y-140652500D03*
%TD*%
D11*
%TO.C,D32*%
X83343750Y-135572500D03*
D12*
X83343750Y-140652500D03*
%TD*%
D11*
%TO.C,D33*%
X102393750Y-135572500D03*
D12*
X102393750Y-140652500D03*
%TD*%
D11*
%TO.C,D34*%
X121443750Y-135572500D03*
D12*
X121443750Y-140652500D03*
%TD*%
D11*
%TO.C,D35*%
X140493750Y-135572500D03*
D12*
X140493750Y-140652500D03*
%TD*%
D11*
%TO.C,D36*%
X159543750Y-135572500D03*
D12*
X159543750Y-140652500D03*
%TD*%
D11*
%TO.C,D37*%
X178593750Y-135572500D03*
D12*
X178593750Y-140652500D03*
%TD*%
D11*
%TO.C,D38*%
X197643750Y-135572500D03*
D12*
X197643750Y-140652500D03*
%TD*%
D11*
%TO.C,D39*%
X216693750Y-135572500D03*
D12*
X216693750Y-140652500D03*
%TD*%
D11*
%TO.C,D40*%
X235743750Y-135572500D03*
D12*
X235743750Y-140652500D03*
%TD*%
D11*
%TO.C,D41*%
X254793750Y-135572500D03*
D12*
X254793750Y-140652500D03*
%TD*%
D11*
%TO.C,D42*%
X273843750Y-135572500D03*
D12*
X273843750Y-140652500D03*
%TD*%
D11*
%TO.C,D44*%
X292893750Y-135572500D03*
D12*
X292893750Y-140652500D03*
%TD*%
D11*
%TO.C,D45*%
X335756250Y-154622500D03*
D12*
X335756250Y-159702500D03*
%TD*%
D11*
%TO.C,D46*%
X52387500Y-154622500D03*
D12*
X52387500Y-159702500D03*
%TD*%
D11*
%TO.C,D48*%
X92868750Y-154622500D03*
D12*
X92868750Y-159702500D03*
%TD*%
D11*
%TO.C,D49*%
X111918750Y-154622500D03*
D12*
X111918750Y-159702500D03*
%TD*%
D11*
%TO.C,D50*%
X130968750Y-154622500D03*
D12*
X130968750Y-159702500D03*
%TD*%
D11*
%TO.C,D51*%
X150018750Y-154622500D03*
D12*
X150018750Y-159702500D03*
%TD*%
D11*
%TO.C,D52*%
X169068750Y-154622500D03*
D12*
X169068750Y-159702500D03*
%TD*%
D11*
%TO.C,D53*%
X188118750Y-154622500D03*
D12*
X188118750Y-159702500D03*
%TD*%
D11*
%TO.C,D54*%
X207168750Y-154622500D03*
D12*
X207168750Y-159702500D03*
%TD*%
D11*
%TO.C,D55*%
X226218750Y-154622500D03*
D12*
X226218750Y-159702500D03*
%TD*%
D11*
%TO.C,D57*%
X264318750Y-154622500D03*
D12*
X264318750Y-159702500D03*
%TD*%
D11*
%TO.C,D58*%
X283368750Y-154622500D03*
D12*
X283368750Y-159702500D03*
%TD*%
D11*
%TO.C,D60*%
X354806250Y-154622500D03*
D12*
X354806250Y-159702500D03*
%TD*%
D11*
%TO.C,D61*%
X52387500Y-173672500D03*
D12*
X52387500Y-178752500D03*
%TD*%
D11*
%TO.C,D62*%
X76200000Y-173672500D03*
D12*
X76200000Y-178752500D03*
%TD*%
D11*
%TO.C,D63*%
X97631250Y-173672500D03*
D12*
X97631250Y-178752500D03*
%TD*%
D11*
%TO.C,D66*%
X164306250Y-176053750D03*
D12*
X164306250Y-181133750D03*
%TD*%
D11*
%TO.C,D68*%
X240506250Y-173672500D03*
D12*
X240506250Y-178752500D03*
%TD*%
D11*
%TO.C,D69*%
X259556250Y-173672500D03*
D12*
X259556250Y-178752500D03*
%TD*%
D11*
%TO.C,D70*%
X278606250Y-173672500D03*
D12*
X278606250Y-178752500D03*
%TD*%
D11*
%TO.C,D71*%
X297656250Y-176053750D03*
D12*
X297656250Y-181133750D03*
%TD*%
D11*
%TO.C,D72*%
X316706250Y-173672500D03*
D12*
X316706250Y-178752500D03*
%TD*%
D11*
%TO.C,D74*%
X354806250Y-173672500D03*
D12*
X354806250Y-178752500D03*
%TD*%
D11*
%TO.C,D15*%
X354806250Y-137953750D03*
D12*
X354806250Y-143033750D03*
%TD*%
D13*
%TO.C,DS1*%
X358616250Y-131250000D03*
D14*
X356076250Y-131250000D03*
X353536250Y-131250000D03*
X350996250Y-131250000D03*
%TD*%
D15*
%TO.C,MX1*%
X54451250Y-104775000D03*
X64611250Y-104775000D03*
D16*
X62071250Y-99695000D03*
D17*
X59531250Y-104775000D03*
D16*
X55721250Y-102235000D03*
D18*
X52446250Y-102235000D03*
X65373250Y-99695000D03*
%TD*%
D17*
%TO.C,MX2*%
X78581250Y-104775000D03*
D15*
X83661250Y-104775000D03*
D16*
X74771250Y-102235000D03*
X81121250Y-99695000D03*
D15*
X73501250Y-104775000D03*
D18*
X71496250Y-102235000D03*
X84423250Y-99695000D03*
%TD*%
D15*
%TO.C,MX3*%
X92551250Y-104775000D03*
D16*
X100171250Y-99695000D03*
D17*
X97631250Y-104775000D03*
D16*
X93821250Y-102235000D03*
D15*
X102711250Y-104775000D03*
D18*
X90546250Y-102235000D03*
X103473250Y-99695000D03*
%TD*%
D16*
%TO.C,MX4*%
X112871250Y-102235000D03*
D17*
X116681250Y-104775000D03*
D16*
X119221250Y-99695000D03*
D15*
X121761250Y-104775000D03*
X111601250Y-104775000D03*
D18*
X109596250Y-102235000D03*
X122523250Y-99695000D03*
%TD*%
D16*
%TO.C,MX5*%
X131921250Y-102235000D03*
D15*
X130651250Y-104775000D03*
D16*
X138271250Y-99695000D03*
D17*
X135731250Y-104775000D03*
D15*
X140811250Y-104775000D03*
D18*
X128646250Y-102235000D03*
X141573250Y-99695000D03*
%TD*%
D16*
%TO.C,MX6*%
X157321250Y-99695000D03*
D15*
X159861250Y-104775000D03*
X149701250Y-104775000D03*
D17*
X154781250Y-104775000D03*
D16*
X150971250Y-102235000D03*
D18*
X147696250Y-102235000D03*
X160623250Y-99695000D03*
%TD*%
D17*
%TO.C,MX7*%
X173831250Y-104775000D03*
D15*
X178911250Y-104775000D03*
D16*
X170021250Y-102235000D03*
D15*
X168751250Y-104775000D03*
D16*
X176371250Y-99695000D03*
D18*
X166746250Y-102235000D03*
X179673250Y-99695000D03*
%TD*%
D16*
%TO.C,MX8*%
X189071250Y-102235000D03*
D15*
X187801250Y-104775000D03*
D17*
X192881250Y-104775000D03*
D15*
X197961250Y-104775000D03*
D16*
X195421250Y-99695000D03*
D18*
X185796250Y-102235000D03*
X198723250Y-99695000D03*
%TD*%
D16*
%TO.C,MX9*%
X208121250Y-102235000D03*
D15*
X217011250Y-104775000D03*
D16*
X214471250Y-99695000D03*
D17*
X211931250Y-104775000D03*
D15*
X206851250Y-104775000D03*
D18*
X204846250Y-102235000D03*
X217773250Y-99695000D03*
%TD*%
D16*
%TO.C,MX10*%
X233521250Y-99695000D03*
D17*
X230981250Y-104775000D03*
D16*
X227171250Y-102235000D03*
D15*
X225901250Y-104775000D03*
X236061250Y-104775000D03*
D18*
X223896250Y-102235000D03*
X236823250Y-99695000D03*
%TD*%
D16*
%TO.C,MX11*%
X252571250Y-99695000D03*
D15*
X244951250Y-104775000D03*
D17*
X250031250Y-104775000D03*
D15*
X255111250Y-104775000D03*
D16*
X246221250Y-102235000D03*
D18*
X242946250Y-102235000D03*
X255873250Y-99695000D03*
%TD*%
D15*
%TO.C,MX12*%
X264001250Y-104775000D03*
D17*
X269081250Y-104775000D03*
D15*
X274161250Y-104775000D03*
D16*
X265271250Y-102235000D03*
X271621250Y-99695000D03*
D18*
X261996250Y-102235000D03*
X274923250Y-99695000D03*
%TD*%
D16*
%TO.C,MX13*%
X284321250Y-102235000D03*
X290671250Y-99695000D03*
D15*
X293211250Y-104775000D03*
D17*
X288131250Y-104775000D03*
D15*
X283051250Y-104775000D03*
D18*
X281046250Y-102235000D03*
X293973250Y-99695000D03*
%TD*%
D17*
%TO.C,MX14*%
X316706250Y-104775000D03*
D16*
X312896250Y-102235000D03*
D15*
X311626250Y-104775000D03*
D19*
X328606250Y-113015000D03*
D20*
X328606250Y-97775000D03*
D16*
X319246250Y-99695000D03*
D15*
X321786250Y-104775000D03*
D19*
X304806250Y-113015000D03*
D20*
X304806250Y-97775000D03*
D18*
X309621250Y-102235000D03*
X322548250Y-99695000D03*
%TD*%
D15*
%TO.C,MX16*%
X69373750Y-123825000D03*
D17*
X64293750Y-123825000D03*
D16*
X66833750Y-118745000D03*
X60483750Y-121285000D03*
D15*
X59213750Y-123825000D03*
D18*
X70135750Y-118745000D03*
X57208750Y-121285000D03*
%TD*%
D17*
%TO.C,MX17*%
X88106250Y-123825000D03*
D15*
X83026250Y-123825000D03*
D16*
X90646250Y-118745000D03*
X84296250Y-121285000D03*
D15*
X93186250Y-123825000D03*
D18*
X93948250Y-118745000D03*
X81021250Y-121285000D03*
%TD*%
D15*
%TO.C,MX18*%
X102076250Y-123825000D03*
D16*
X103346250Y-121285000D03*
D15*
X112236250Y-123825000D03*
D16*
X109696250Y-118745000D03*
D17*
X107156250Y-123825000D03*
D18*
X112998250Y-118745000D03*
X100071250Y-121285000D03*
%TD*%
D15*
%TO.C,MX19*%
X131286250Y-123825000D03*
D16*
X128746250Y-118745000D03*
D15*
X121126250Y-123825000D03*
D16*
X122396250Y-121285000D03*
D17*
X126206250Y-123825000D03*
D18*
X132048250Y-118745000D03*
X119121250Y-121285000D03*
%TD*%
D15*
%TO.C,MX20*%
X140176250Y-123825000D03*
D16*
X141446250Y-121285000D03*
D15*
X150336250Y-123825000D03*
D16*
X147796250Y-118745000D03*
D17*
X145256250Y-123825000D03*
D18*
X151098250Y-118745000D03*
X138171250Y-121285000D03*
%TD*%
D17*
%TO.C,MX21*%
X164306250Y-123825000D03*
D16*
X166846250Y-118745000D03*
X160496250Y-121285000D03*
D15*
X169386250Y-123825000D03*
X159226250Y-123825000D03*
D18*
X170148250Y-118745000D03*
X157221250Y-121285000D03*
%TD*%
D16*
%TO.C,MX22*%
X185896250Y-118745000D03*
D17*
X183356250Y-123825000D03*
D15*
X178276250Y-123825000D03*
X188436250Y-123825000D03*
D16*
X179546250Y-121285000D03*
D18*
X189198250Y-118745000D03*
X176271250Y-121285000D03*
%TD*%
D16*
%TO.C,MX23*%
X198596250Y-121285000D03*
D15*
X197326250Y-123825000D03*
X207486250Y-123825000D03*
D17*
X202406250Y-123825000D03*
D16*
X204946250Y-118745000D03*
D18*
X208248250Y-118745000D03*
X195321250Y-121285000D03*
%TD*%
D16*
%TO.C,MX24*%
X223996250Y-118745000D03*
D17*
X221456250Y-123825000D03*
D16*
X217646250Y-121285000D03*
D15*
X216376250Y-123825000D03*
X226536250Y-123825000D03*
D18*
X227298250Y-118745000D03*
X214371250Y-121285000D03*
%TD*%
D16*
%TO.C,MX25*%
X243046250Y-118745000D03*
X236696250Y-121285000D03*
D15*
X235426250Y-123825000D03*
X245586250Y-123825000D03*
D17*
X240506250Y-123825000D03*
D18*
X246348250Y-118745000D03*
X233421250Y-121285000D03*
%TD*%
D15*
%TO.C,MX26*%
X264636250Y-123825000D03*
D17*
X259556250Y-123825000D03*
D16*
X262096250Y-118745000D03*
X255746250Y-121285000D03*
D15*
X254476250Y-123825000D03*
D18*
X265398250Y-118745000D03*
X252471250Y-121285000D03*
%TD*%
D15*
%TO.C,MX27*%
X283686250Y-123825000D03*
D16*
X281146250Y-118745000D03*
X274796250Y-121285000D03*
D17*
X278606250Y-123825000D03*
D15*
X273526250Y-123825000D03*
D18*
X284448250Y-118745000D03*
X271521250Y-121285000D03*
%TD*%
D17*
%TO.C,MX28*%
X297656250Y-123825000D03*
D16*
X300196250Y-118745000D03*
D15*
X292576250Y-123825000D03*
X302736250Y-123825000D03*
D16*
X293846250Y-121285000D03*
D18*
X303498250Y-118745000D03*
X290571250Y-121285000D03*
%TD*%
D17*
%TO.C,MX29*%
X321468750Y-123825000D03*
D15*
X321468750Y-118745000D03*
D16*
X324008750Y-120015000D03*
X326548750Y-126365000D03*
D15*
X321468750Y-128905000D03*
D21*
X326548750Y-129667000D03*
X324008750Y-116740000D03*
%TD*%
D15*
%TO.C,MX30*%
X340201250Y-142875000D03*
D16*
X341471250Y-140335000D03*
X347821250Y-137795000D03*
D15*
X350361250Y-142875000D03*
D17*
X345281250Y-142875000D03*
D18*
X351123250Y-137795000D03*
X338196250Y-140335000D03*
%TD*%
D17*
%TO.C,MX31*%
X66675000Y-142875000D03*
D15*
X61595000Y-142875000D03*
D16*
X70485000Y-145415000D03*
X64135000Y-147955000D03*
D15*
X71755000Y-142875000D03*
D18*
X73760000Y-145415000D03*
X60833000Y-147955000D03*
%TD*%
D15*
%TO.C,MX32*%
X97948750Y-142875000D03*
D17*
X92868750Y-142875000D03*
D16*
X89058750Y-140335000D03*
X95408750Y-137795000D03*
D15*
X87788750Y-142875000D03*
D18*
X98710750Y-137795000D03*
X85783750Y-140335000D03*
%TD*%
D15*
%TO.C,MX33*%
X116998750Y-142875000D03*
D16*
X114458750Y-137795000D03*
D15*
X106838750Y-142875000D03*
D17*
X111918750Y-142875000D03*
D16*
X108108750Y-140335000D03*
D18*
X117760750Y-137795000D03*
X104833750Y-140335000D03*
%TD*%
D15*
%TO.C,MX34*%
X125888750Y-142875000D03*
D16*
X127158750Y-140335000D03*
D15*
X136048750Y-142875000D03*
D17*
X130968750Y-142875000D03*
D16*
X133508750Y-137795000D03*
D18*
X136810750Y-137795000D03*
X123883750Y-140335000D03*
%TD*%
D17*
%TO.C,MX35*%
X150018750Y-142875000D03*
D16*
X152558750Y-137795000D03*
D15*
X144938750Y-142875000D03*
X155098750Y-142875000D03*
D16*
X146208750Y-140335000D03*
D18*
X155860750Y-137795000D03*
X142933750Y-140335000D03*
%TD*%
D16*
%TO.C,MX36*%
X171608750Y-137795000D03*
D17*
X169068750Y-142875000D03*
D16*
X165258750Y-140335000D03*
D15*
X163988750Y-142875000D03*
X174148750Y-142875000D03*
D18*
X174910750Y-137795000D03*
X161983750Y-140335000D03*
%TD*%
D16*
%TO.C,MX37*%
X190658750Y-137795000D03*
D15*
X183038750Y-142875000D03*
D16*
X184308750Y-140335000D03*
D15*
X193198750Y-142875000D03*
D17*
X188118750Y-142875000D03*
D18*
X193960750Y-137795000D03*
X181033750Y-140335000D03*
%TD*%
D15*
%TO.C,MX38*%
X212248750Y-142875000D03*
D16*
X209708750Y-137795000D03*
D17*
X207168750Y-142875000D03*
D16*
X203358750Y-140335000D03*
D15*
X202088750Y-142875000D03*
D18*
X213010750Y-137795000D03*
X200083750Y-140335000D03*
%TD*%
D15*
%TO.C,MX39*%
X221138750Y-142875000D03*
D16*
X222408750Y-140335000D03*
D15*
X231298750Y-142875000D03*
D17*
X226218750Y-142875000D03*
D16*
X228758750Y-137795000D03*
D18*
X232060750Y-137795000D03*
X219133750Y-140335000D03*
%TD*%
D15*
%TO.C,MX40*%
X250348750Y-142875000D03*
D16*
X247808750Y-137795000D03*
X241458750Y-140335000D03*
D17*
X245268750Y-142875000D03*
D15*
X240188750Y-142875000D03*
D18*
X251110750Y-137795000D03*
X238183750Y-140335000D03*
%TD*%
D16*
%TO.C,MX41*%
X260508750Y-140335000D03*
D15*
X259238750Y-142875000D03*
D17*
X264318750Y-142875000D03*
D16*
X266858750Y-137795000D03*
D15*
X269398750Y-142875000D03*
D18*
X270160750Y-137795000D03*
X257233750Y-140335000D03*
%TD*%
D15*
%TO.C,MX42*%
X278288750Y-142875000D03*
D17*
X283368750Y-142875000D03*
D16*
X285908750Y-137795000D03*
X279558750Y-140335000D03*
D15*
X288448750Y-142875000D03*
D18*
X289210750Y-137795000D03*
X276283750Y-140335000D03*
%TD*%
D20*
%TO.C,MX44*%
X326225000Y-149875000D03*
D15*
X314325000Y-147955000D03*
D19*
X326225000Y-134635000D03*
D17*
X314325000Y-142875000D03*
D15*
X314325000Y-137795000D03*
D16*
X309245000Y-140335000D03*
D19*
X302425000Y-134635000D03*
D16*
X311785000Y-146685000D03*
D20*
X302425000Y-149875000D03*
D21*
X311785000Y-149960000D03*
X309245000Y-137033000D03*
%TD*%
D16*
%TO.C,MX45*%
X347821250Y-156845000D03*
D15*
X340201250Y-161925000D03*
X350361250Y-161925000D03*
D17*
X345281250Y-161925000D03*
D16*
X341471250Y-159385000D03*
D18*
X351123250Y-156845000D03*
X338196250Y-159385000D03*
%TD*%
D16*
%TO.C,MX46*%
X67627500Y-159385000D03*
D17*
X71437500Y-161925000D03*
D19*
X59537500Y-170165000D03*
D15*
X66357500Y-161925000D03*
D16*
X73977500Y-156845000D03*
D20*
X83337500Y-154925000D03*
X59537500Y-154925000D03*
D19*
X83337500Y-170165000D03*
D15*
X76517500Y-161925000D03*
D18*
X77279500Y-156845000D03*
X64352500Y-159385000D03*
%TD*%
D15*
%TO.C,MX48*%
X97313750Y-161925000D03*
D16*
X104933750Y-156845000D03*
D17*
X102393750Y-161925000D03*
D16*
X98583750Y-159385000D03*
D15*
X107473750Y-161925000D03*
D18*
X108235750Y-156845000D03*
X95308750Y-159385000D03*
%TD*%
D15*
%TO.C,MX49*%
X116363750Y-161925000D03*
D17*
X121443750Y-161925000D03*
D16*
X117633750Y-159385000D03*
X123983750Y-156845000D03*
D15*
X126523750Y-161925000D03*
D18*
X127285750Y-156845000D03*
X114358750Y-159385000D03*
%TD*%
D17*
%TO.C,MX50*%
X140493750Y-161925000D03*
D15*
X145573750Y-161925000D03*
D16*
X143033750Y-156845000D03*
D15*
X135413750Y-161925000D03*
D16*
X136683750Y-159385000D03*
D18*
X146335750Y-156845000D03*
X133408750Y-159385000D03*
%TD*%
D15*
%TO.C,MX51*%
X154463750Y-161925000D03*
X164623750Y-161925000D03*
D16*
X162083750Y-156845000D03*
D17*
X159543750Y-161925000D03*
D16*
X155733750Y-159385000D03*
D18*
X165385750Y-156845000D03*
X152458750Y-159385000D03*
%TD*%
D16*
%TO.C,MX52*%
X174783750Y-159385000D03*
D17*
X178593750Y-161925000D03*
D16*
X181133750Y-156845000D03*
D15*
X183673750Y-161925000D03*
X173513750Y-161925000D03*
D18*
X184435750Y-156845000D03*
X171508750Y-159385000D03*
%TD*%
D16*
%TO.C,MX53*%
X200183750Y-156845000D03*
D15*
X192563750Y-161925000D03*
D16*
X193833750Y-159385000D03*
D17*
X197643750Y-161925000D03*
D15*
X202723750Y-161925000D03*
D18*
X203485750Y-156845000D03*
X190558750Y-159385000D03*
%TD*%
D17*
%TO.C,MX54*%
X216693750Y-161925000D03*
D15*
X211613750Y-161925000D03*
D16*
X212883750Y-159385000D03*
X219233750Y-156845000D03*
D15*
X221773750Y-161925000D03*
D18*
X222535750Y-156845000D03*
X209608750Y-159385000D03*
%TD*%
D17*
%TO.C,MX55*%
X235743750Y-161925000D03*
D16*
X231933750Y-159385000D03*
D15*
X230663750Y-161925000D03*
X240823750Y-161925000D03*
D16*
X238283750Y-156845000D03*
D18*
X241585750Y-156845000D03*
X228658750Y-159385000D03*
%TD*%
D16*
%TO.C,MX56*%
X250983750Y-159385000D03*
D15*
X249713750Y-161925000D03*
D16*
X257333750Y-156845000D03*
D17*
X254793750Y-161925000D03*
D15*
X259873750Y-161925000D03*
D18*
X260635750Y-156845000D03*
X247708750Y-159385000D03*
%TD*%
D15*
%TO.C,MX57*%
X278923750Y-161925000D03*
X268763750Y-161925000D03*
D17*
X273843750Y-161925000D03*
D16*
X276383750Y-156845000D03*
X270033750Y-159385000D03*
D18*
X279685750Y-156845000D03*
X266758750Y-159385000D03*
%TD*%
D19*
%TO.C,MX58*%
X321462500Y-170165000D03*
D15*
X304482500Y-161925000D03*
D19*
X297662500Y-170165000D03*
D15*
X314642500Y-161925000D03*
D16*
X305752500Y-159385000D03*
D20*
X297662500Y-154925000D03*
X321462500Y-154925000D03*
D16*
X312102500Y-156845000D03*
D17*
X309562500Y-161925000D03*
D18*
X315404500Y-156845000D03*
X302477500Y-159385000D03*
%TD*%
D15*
%TO.C,MX60*%
X359251250Y-161925000D03*
D16*
X360521250Y-159385000D03*
D15*
X369411250Y-161925000D03*
D17*
X364331250Y-161925000D03*
D16*
X366871250Y-156845000D03*
D18*
X370173250Y-156845000D03*
X357246250Y-159385000D03*
%TD*%
D15*
%TO.C,MX61*%
X56832500Y-180975000D03*
D16*
X58102500Y-178435000D03*
D17*
X61912500Y-180975000D03*
D16*
X64452500Y-175895000D03*
D15*
X66992500Y-180975000D03*
D18*
X67754500Y-175895000D03*
X54827500Y-178435000D03*
%TD*%
D16*
%TO.C,MX62*%
X88265000Y-175895000D03*
D15*
X90805000Y-180975000D03*
D16*
X81915000Y-178435000D03*
D15*
X80645000Y-180975000D03*
D17*
X85725000Y-180975000D03*
D18*
X91567000Y-175895000D03*
X78640000Y-178435000D03*
%TD*%
D15*
%TO.C,MX63*%
X104457500Y-180975000D03*
D16*
X105727500Y-178435000D03*
D15*
X114617500Y-180975000D03*
D16*
X112077500Y-175895000D03*
D17*
X109537500Y-180975000D03*
D18*
X115379500Y-175895000D03*
X102452500Y-178435000D03*
%TD*%
D16*
%TO.C,MX68*%
X246221250Y-178435000D03*
D15*
X244951250Y-180975000D03*
D17*
X250031250Y-180975000D03*
D15*
X255111250Y-180975000D03*
D16*
X252571250Y-175895000D03*
D18*
X255873250Y-175895000D03*
X242946250Y-178435000D03*
%TD*%
D15*
%TO.C,MX69*%
X274161250Y-180975000D03*
D17*
X269081250Y-180975000D03*
D16*
X265271250Y-178435000D03*
D15*
X264001250Y-180975000D03*
D16*
X271621250Y-175895000D03*
D18*
X274923250Y-175895000D03*
X261996250Y-178435000D03*
%TD*%
D16*
%TO.C,MX70*%
X290671250Y-175895000D03*
D15*
X283051250Y-180975000D03*
D17*
X288131250Y-180975000D03*
D16*
X284321250Y-178435000D03*
D15*
X293211250Y-180975000D03*
D18*
X293973250Y-175895000D03*
X281046250Y-178435000D03*
%TD*%
D16*
%TO.C,MX71*%
X309721250Y-175895000D03*
D15*
X312261250Y-180975000D03*
X302101250Y-180975000D03*
D17*
X307181250Y-180975000D03*
D16*
X303371250Y-178435000D03*
D18*
X313023250Y-175895000D03*
X300096250Y-178435000D03*
%TD*%
D16*
%TO.C,MX72*%
X322421250Y-178435000D03*
D17*
X326231250Y-180975000D03*
D15*
X321151250Y-180975000D03*
X331311250Y-180975000D03*
D16*
X328771250Y-175895000D03*
D18*
X332073250Y-175895000D03*
X319146250Y-178435000D03*
%TD*%
D16*
%TO.C,MX73*%
X347821250Y-175895000D03*
D15*
X350361250Y-180975000D03*
D16*
X341471250Y-178435000D03*
D17*
X345281250Y-180975000D03*
D15*
X340201250Y-180975000D03*
D18*
X351123250Y-175895000D03*
X338196250Y-178435000D03*
%TD*%
D15*
%TO.C,MX74*%
X359251250Y-180975000D03*
D17*
X364331250Y-180975000D03*
D15*
X369411250Y-180975000D03*
D16*
X366871250Y-175895000D03*
X360521250Y-178435000D03*
D18*
X370173250Y-175895000D03*
X357246250Y-178435000D03*
%TD*%
D13*
%TO.C,U1*%
X347186250Y-99130000D03*
D14*
X347186250Y-101670000D03*
X347186250Y-104210000D03*
X347186250Y-106750000D03*
X347186250Y-109290000D03*
X347186250Y-111830000D03*
X347186250Y-114370000D03*
X347186250Y-116910000D03*
X347186250Y-119450000D03*
X347186250Y-121990000D03*
X347186250Y-124530000D03*
X347186250Y-127070000D03*
X362426250Y-127070000D03*
X362426250Y-124530000D03*
X362426250Y-121990000D03*
X362426250Y-119450000D03*
X362426250Y-116910000D03*
X362426250Y-114370000D03*
X362426250Y-111830000D03*
X362426250Y-109290000D03*
X362426250Y-106750000D03*
X362426250Y-104210000D03*
X362426250Y-101670000D03*
X362426250Y-99130000D03*
X349726250Y-127070000D03*
X352266250Y-127070000D03*
X354806250Y-127070000D03*
X357346250Y-127070000D03*
X359886250Y-127070000D03*
%TD*%
D11*
%TO.C,D56*%
X245268750Y-154622500D03*
D12*
X245268750Y-159702500D03*
%TD*%
D22*
%TO.C,SW1*%
X369931250Y-143475000D03*
X358731250Y-143475000D03*
D23*
X366831250Y-135975000D03*
D24*
X361831250Y-135975000D03*
X364331250Y-135975000D03*
X361831250Y-150475000D03*
X366831250Y-150475000D03*
%TD*%
D16*
%TO.C,MX66*%
X184785000Y-183515000D03*
D17*
X130975100Y-172720000D03*
D16*
X178435000Y-186055000D03*
D17*
X180975000Y-180975000D03*
X230974900Y-172720000D03*
D25*
X230974900Y-187960000D03*
X130975100Y-187960000D03*
D15*
X186055000Y-180975000D03*
X175895000Y-180975000D03*
D18*
X188060000Y-183515000D03*
X175133000Y-186055000D03*
%TD*%
D15*
%TO.C,MX65*%
X181292500Y-180975000D03*
D16*
X178752500Y-175895000D03*
D17*
X176212500Y-180975000D03*
D16*
X172402500Y-178435000D03*
D15*
X171132500Y-180975000D03*
D18*
X182054500Y-175895000D03*
X169127500Y-178435000D03*
%TD*%
D11*
%TO.C,D73*%
X335756250Y-173672500D03*
D12*
X335756250Y-178752500D03*
%TD*%
D11*
%TO.C,D43*%
X292893750Y-145097500D03*
D12*
X292893750Y-150177500D03*
%TD*%
D16*
%TO.C,MX15*%
X366871250Y-137795000D03*
D15*
X359251250Y-142875000D03*
D16*
X360521250Y-140335000D03*
D17*
X364331250Y-142875000D03*
D15*
X369411250Y-142875000D03*
D18*
X370173250Y-137795000D03*
X357246250Y-140335000D03*
%TD*%
D11*
%TO.C,D59*%
X335756250Y-164147500D03*
D12*
X335756250Y-169227500D03*
%TD*%
D11*
%TO.C,D67*%
X195262500Y-176053750D03*
D12*
X195262500Y-181133750D03*
%TD*%
D17*
%TO.C,MX77*%
X61912500Y-161925000D03*
D15*
X66992500Y-161925000D03*
D16*
X59372500Y-167005000D03*
X65722500Y-164465000D03*
D15*
X56832500Y-161925000D03*
D18*
X68997500Y-164465000D03*
X56070500Y-167005000D03*
%TD*%
D16*
%TO.C,MX76*%
X318770000Y-130810000D03*
X321310000Y-137160000D03*
D17*
X315595000Y-145288000D03*
D15*
X323850000Y-128270000D03*
X323850000Y-138430000D03*
D17*
X323850000Y-133350000D03*
D25*
X330835000Y-145288000D03*
D17*
X315595000Y-121412000D03*
D25*
X330835000Y-121412000D03*
D21*
X321310000Y-140435000D03*
X318770000Y-127508000D03*
%TD*%
D15*
%TO.C,MX75*%
X66992500Y-142875000D03*
D17*
X61912500Y-142875000D03*
D15*
X56832500Y-142875000D03*
D16*
X64452500Y-137795000D03*
X58102500Y-140335000D03*
D18*
X67754500Y-137795000D03*
X54827500Y-140335000D03*
%TD*%
D16*
%TO.C,MX43*%
X297338750Y-140335000D03*
X299878750Y-146685000D03*
D15*
X302418750Y-137795000D03*
D17*
X302418750Y-142875000D03*
D15*
X302418750Y-147955000D03*
D21*
X297338750Y-137033000D03*
X299878750Y-149960000D03*
%TD*%
D19*
%TO.C,MX64*%
X154775000Y-172735000D03*
D17*
X142875000Y-180975000D03*
D16*
X139065000Y-178435000D03*
D15*
X147955000Y-180975000D03*
D20*
X130975000Y-187975000D03*
D16*
X145415000Y-175895000D03*
D19*
X130975000Y-172735000D03*
D15*
X137795000Y-180975000D03*
D20*
X154775000Y-187975000D03*
D18*
X148717000Y-175895000D03*
X135790000Y-178435000D03*
%TD*%
D16*
%TO.C,MX47*%
X80803750Y-167005000D03*
X87153750Y-164465000D03*
D17*
X83343750Y-161925000D03*
D15*
X88423750Y-161925000D03*
X78263750Y-161925000D03*
D18*
X90428750Y-164465000D03*
X77501750Y-167005000D03*
%TD*%
D15*
%TO.C,MX78*%
X294957500Y-161925000D03*
X305117500Y-161925000D03*
D16*
X297497500Y-167005000D03*
X303847500Y-164465000D03*
D17*
X300037500Y-161925000D03*
D18*
X307122500Y-164465000D03*
X294195500Y-167005000D03*
%TD*%
D11*
%TO.C,D47*%
X92868750Y-164147500D03*
D12*
X92868750Y-169227500D03*
%TD*%
D11*
%TO.C,D64*%
X121443750Y-173672500D03*
D12*
X121443750Y-178752500D03*
%TD*%
D19*
%TO.C,MX67*%
X226212500Y-172735000D03*
X202412500Y-172735000D03*
D15*
X209232500Y-180975000D03*
X219392500Y-180975000D03*
D20*
X202412500Y-187975000D03*
D16*
X210502500Y-178435000D03*
D17*
X214312500Y-180975000D03*
D16*
X216852500Y-175895000D03*
D20*
X226212500Y-187975000D03*
D18*
X220154500Y-175895000D03*
X207227500Y-178435000D03*
%TD*%
D11*
%TO.C,D65*%
X160200000Y-176053750D03*
D12*
X160200000Y-181133750D03*
%TD*%
D16*
%TO.C,MX59*%
X323691250Y-167005000D03*
D15*
X331311250Y-161925000D03*
D17*
X326231250Y-161925000D03*
D16*
X330041250Y-164465000D03*
D15*
X321151250Y-161925000D03*
D18*
X320389250Y-167005000D03*
X333316250Y-164465000D03*
%TD*%
M02*
