M48
; DRILL file {KiCad (6.0.1)} date Tue Apr 19 11:47:42 2022
; FORMAT={-:-/ absolute / metric / decimal}
; #@! TF.CreationDate,2022-04-19T11:47:42-04:00
; #@! TF.GenerationSoftware,Kicad,Pcbnew,(6.0.1)
; #@! TF.FileFunction,NonPlated,1,2,NPTH
FMAT,2
METRIC
; #@! TA.AperFunction,NonPlated,NPTH,ComponentDrill
T1C1.500
; #@! TA.AperFunction,NonPlated,NPTH,ComponentDrill
T2C1.750
; #@! TA.AperFunction,NonPlated,NPTH,ComponentDrill
T3C3.000
; #@! TA.AperFunction,NonPlated,NPTH,ComponentDrill
T4C3.048
; #@! TA.AperFunction,NonPlated,NPTH,ComponentDrill
T5C3.050
; #@! TA.AperFunction,NonPlated,NPTH,ComponentDrill
T6C3.988
; #@! TA.AperFunction,NonPlated,NPTH,ComponentDrill
T7C4.000
%
G90
G05
T2
X54.451Y-104.775
X56.832Y-142.875
X56.832Y-161.925
X56.832Y-180.975
X59.214Y-123.825
X61.595Y-142.875
X64.611Y-104.775
X66.358Y-161.925
X66.992Y-142.875
X66.992Y-161.925
X66.992Y-180.975
X69.374Y-123.825
X71.755Y-142.875
X73.501Y-104.775
X76.517Y-161.925
X78.264Y-161.925
X80.645Y-180.975
X83.026Y-123.825
X83.661Y-104.775
X87.789Y-142.875
X88.424Y-161.925
X90.805Y-180.975
X92.551Y-104.775
X93.186Y-123.825
X97.314Y-161.925
X97.949Y-142.875
X102.076Y-123.825
X102.711Y-104.775
X104.457Y-180.975
X106.839Y-142.875
X107.474Y-161.925
X111.601Y-104.775
X112.236Y-123.825
X114.617Y-180.975
X116.364Y-161.925
X116.999Y-142.875
X121.126Y-123.825
X121.761Y-104.775
X125.889Y-142.875
X126.524Y-161.925
X130.651Y-104.775
X131.286Y-123.825
X135.414Y-161.925
X136.049Y-142.875
X137.795Y-180.975
X140.176Y-123.825
X140.811Y-104.775
X144.939Y-142.875
X145.574Y-161.925
X147.955Y-180.975
X149.701Y-104.775
X150.336Y-123.825
X154.464Y-161.925
X155.099Y-142.875
X159.226Y-123.825
X159.861Y-104.775
X163.989Y-142.875
X164.624Y-161.925
X168.751Y-104.775
X169.386Y-123.825
X171.132Y-180.975
X173.514Y-161.925
X174.149Y-142.875
X175.895Y-180.975
X178.276Y-123.825
X178.911Y-104.775
X181.292Y-180.975
X183.039Y-142.875
X183.674Y-161.925
X186.055Y-180.975
X187.801Y-104.775
X188.436Y-123.825
X192.564Y-161.925
X193.199Y-142.875
X197.326Y-123.825
X197.961Y-104.775
X202.089Y-142.875
X202.724Y-161.925
X206.851Y-104.775
X207.486Y-123.825
X209.232Y-180.975
X211.614Y-161.925
X212.249Y-142.875
X216.376Y-123.825
X217.011Y-104.775
X219.392Y-180.975
X221.139Y-142.875
X221.774Y-161.925
X225.901Y-104.775
X226.536Y-123.825
X230.664Y-161.925
X231.299Y-142.875
X235.426Y-123.825
X236.061Y-104.775
X240.189Y-142.875
X240.824Y-161.925
X244.951Y-104.775
X244.951Y-180.975
X245.586Y-123.825
X249.714Y-161.925
X250.349Y-142.875
X254.476Y-123.825
X255.111Y-104.775
X255.111Y-180.975
X259.239Y-142.875
X259.874Y-161.925
X264.001Y-104.775
X264.001Y-180.975
X264.636Y-123.825
X268.764Y-161.925
X269.399Y-142.875
X273.526Y-123.825
X274.161Y-104.775
X274.161Y-180.975
X278.289Y-142.875
X278.924Y-161.925
X283.051Y-104.775
X283.051Y-180.975
X283.686Y-123.825
X288.449Y-142.875
X292.576Y-123.825
X293.211Y-104.775
X293.211Y-180.975
X294.957Y-161.925
X302.101Y-180.975
X302.419Y-137.795
X302.419Y-147.955
X302.736Y-123.825
X304.482Y-161.925
X305.118Y-161.925
X311.626Y-104.775
X312.261Y-180.975
X314.325Y-137.795
X314.325Y-147.955
X314.642Y-161.925
X321.151Y-161.925
X321.151Y-180.975
X321.469Y-118.745
X321.469Y-128.905
X321.786Y-104.775
X323.85Y-128.27
X323.85Y-138.43
X331.311Y-161.925
X331.311Y-180.975
X340.201Y-142.875
X340.201Y-161.925
X340.201Y-180.975
X350.361Y-142.875
X350.361Y-161.925
X350.361Y-180.975
X359.251Y-142.875
X359.251Y-161.925
X359.251Y-180.975
X369.411Y-142.875
X369.411Y-161.925
X369.411Y-180.975
T3
X55.721Y-102.235
X58.102Y-140.335
X58.102Y-178.435
X59.372Y-167.005
X60.484Y-121.285
X62.071Y-99.695
X64.135Y-147.955
X64.453Y-137.795
X64.453Y-175.895
X65.722Y-164.465
X66.834Y-118.745
X67.627Y-159.385
X70.485Y-145.415
X73.977Y-156.845
X74.771Y-102.235
X80.804Y-167.005
X81.121Y-99.695
X81.915Y-178.435
X84.296Y-121.285
X87.154Y-164.465
X88.265Y-175.895
X89.059Y-140.335
X90.646Y-118.745
X93.821Y-102.235
X95.409Y-137.795
X98.584Y-159.385
X100.171Y-99.695
X103.346Y-121.285
X104.934Y-156.845
X105.727Y-178.435
X108.109Y-140.335
X109.696Y-118.745
X112.078Y-175.895
X112.871Y-102.235
X114.459Y-137.795
X117.634Y-159.385
X119.221Y-99.695
X122.396Y-121.285
X123.984Y-156.845
X127.159Y-140.335
X128.746Y-118.745
X131.921Y-102.235
X133.509Y-137.795
X136.684Y-159.385
X138.271Y-99.695
X139.065Y-178.435
X141.446Y-121.285
X143.034Y-156.845
X145.415Y-175.895
X146.209Y-140.335
X147.796Y-118.745
X150.971Y-102.235
X152.559Y-137.795
X155.734Y-159.385
X157.321Y-99.695
X160.496Y-121.285
X162.084Y-156.845
X165.259Y-140.335
X166.846Y-118.745
X170.021Y-102.235
X171.609Y-137.795
X172.403Y-178.435
X174.784Y-159.385
X176.371Y-99.695
X178.435Y-186.055
X178.752Y-175.895
X179.546Y-121.285
X181.134Y-156.845
X184.309Y-140.335
X184.785Y-183.515
X185.896Y-118.745
X189.071Y-102.235
X190.659Y-137.795
X193.834Y-159.385
X195.421Y-99.695
X198.596Y-121.285
X200.184Y-156.845
X203.359Y-140.335
X204.946Y-118.745
X208.121Y-102.235
X209.709Y-137.795
X210.502Y-178.435
X212.884Y-159.385
X214.471Y-99.695
X216.852Y-175.895
X217.646Y-121.285
X219.234Y-156.845
X222.409Y-140.335
X223.996Y-118.745
X227.171Y-102.235
X228.759Y-137.795
X231.934Y-159.385
X233.521Y-99.695
X236.696Y-121.285
X238.284Y-156.845
X241.459Y-140.335
X243.046Y-118.745
X246.221Y-102.235
X246.221Y-178.435
X247.809Y-137.795
X250.984Y-159.385
X252.571Y-99.695
X252.571Y-175.895
X255.746Y-121.285
X257.334Y-156.845
X260.509Y-140.335
X262.096Y-118.745
X265.271Y-102.235
X265.271Y-178.435
X266.859Y-137.795
X270.034Y-159.385
X271.621Y-99.695
X271.621Y-175.895
X274.796Y-121.285
X276.384Y-156.845
X279.559Y-140.335
X281.146Y-118.745
X284.321Y-102.235
X284.321Y-178.435
X285.909Y-137.795
X290.671Y-99.695
X290.671Y-175.895
X293.846Y-121.285
X297.339Y-140.335
X297.498Y-167.005
X299.879Y-146.685
X300.196Y-118.745
X303.371Y-178.435
X303.847Y-164.465
X305.752Y-159.385
X309.245Y-140.335
X309.721Y-175.895
X311.785Y-146.685
X312.102Y-156.845
X312.896Y-102.235
X318.77Y-130.81
X319.246Y-99.695
X321.31Y-137.16
X322.421Y-178.435
X323.691Y-167.005
X324.009Y-120.015
X326.549Y-126.365
X328.771Y-175.895
X330.041Y-164.465
X341.471Y-140.335
X341.471Y-159.385
X341.471Y-178.435
X347.821Y-137.795
X347.821Y-156.845
X347.821Y-175.895
X360.521Y-140.335
X360.521Y-159.385
X360.521Y-178.435
X366.871Y-137.795
X366.871Y-156.845
X366.871Y-175.895
T4
X130.975Y-187.96
X230.975Y-187.96
X330.835Y-121.412
X330.835Y-145.288
T5
X59.537Y-154.925
X83.337Y-154.925
X130.975Y-187.975
X154.775Y-187.975
X202.412Y-187.975
X226.212Y-187.975
X297.662Y-154.925
X302.425Y-149.875
X304.806Y-97.775
X321.462Y-154.925
X326.225Y-149.875
X328.606Y-97.775
T6
X59.531Y-104.775
X61.912Y-142.875
X61.912Y-161.925
X61.912Y-180.975
X64.294Y-123.825
X66.675Y-142.875
X71.438Y-161.925
X78.581Y-104.775
X83.344Y-161.925
X85.725Y-180.975
X88.106Y-123.825
X92.869Y-142.875
X97.631Y-104.775
X102.394Y-161.925
X107.156Y-123.825
X109.537Y-180.975
X111.919Y-142.875
X116.681Y-104.775
X121.444Y-161.925
X126.206Y-123.825
X130.969Y-142.875
X130.975Y-172.72
X135.731Y-104.775
X140.494Y-161.925
X142.875Y-180.975
X145.256Y-123.825
X150.019Y-142.875
X154.781Y-104.775
X159.544Y-161.925
X164.306Y-123.825
X169.069Y-142.875
X173.831Y-104.775
X176.213Y-180.975
X178.594Y-161.925
X180.975Y-180.975
X183.356Y-123.825
X188.119Y-142.875
X192.881Y-104.775
X197.644Y-161.925
X202.406Y-123.825
X207.169Y-142.875
X211.931Y-104.775
X214.312Y-180.975
X216.694Y-161.925
X221.456Y-123.825
X226.219Y-142.875
X230.975Y-172.72
X230.981Y-104.775
X235.744Y-161.925
X240.506Y-123.825
X245.269Y-142.875
X250.031Y-104.775
X250.031Y-180.975
X254.794Y-161.925
X259.556Y-123.825
X264.319Y-142.875
X269.081Y-104.775
X269.081Y-180.975
X273.844Y-161.925
X278.606Y-123.825
X283.369Y-142.875
X288.131Y-104.775
X288.131Y-180.975
X297.656Y-123.825
X300.037Y-161.925
X302.419Y-142.875
X307.181Y-180.975
X309.562Y-161.925
X314.325Y-142.875
X315.595Y-121.412
X315.595Y-145.288
X316.706Y-104.775
X321.469Y-123.825
X323.85Y-133.35
X326.231Y-161.925
X326.231Y-180.975
X345.281Y-142.875
X345.281Y-161.925
X345.281Y-180.975
X364.331Y-142.875
X364.331Y-161.925
X364.331Y-180.975
T7
X59.537Y-170.165
X83.337Y-170.165
X130.975Y-172.735
X154.775Y-172.735
X202.412Y-172.735
X226.212Y-172.735
X297.662Y-170.165
X302.425Y-134.635
X304.806Y-113.015
X321.462Y-170.165
X326.225Y-134.635
X328.606Y-113.015
T1
G00X358.731Y-142.825
M15
G01X358.731Y-144.125
M16
G05
G00X369.931Y-142.825
M15
G01X369.931Y-144.125
M16
G05
T0
M30
