M48
; DRILL file {KiCad (6.0.1)} date Tue Apr 19 11:47:42 2022
; FORMAT={-:-/ absolute / metric / decimal}
; #@! TF.CreationDate,2022-04-19T11:47:42-04:00
; #@! TF.GenerationSoftware,Kicad,Pcbnew,(6.0.1)
; #@! TF.FileFunction,Plated,1,2,PTH
FMAT,2
METRIC
; #@! TA.AperFunction,Plated,PTH,ViaDrill
T1C0.400
; #@! TA.AperFunction,Plated,PTH,ComponentDrill
T2C0.800
; #@! TA.AperFunction,Plated,PTH,ComponentDrill
T3C1.000
%
G90
G05
T1
X59.531Y-100.012
X59.531Y-114.3
X61.912Y-185.737
X62.606Y-107.511
X64.294Y-130.969
X71.438Y-166.688
X78.581Y-100.012
X80.962Y-114.3
X81.606Y-108.3
X85.725Y-104.775
X88.106Y-130.969
X92.869Y-147.637
X97.631Y-100.012
X100.012Y-114.3
X100.706Y-108.7
X104.775Y-104.775
X107.156Y-130.969
X109.537Y-185.737
X111.919Y-147.637
X116.681Y-100.012
X119.062Y-114.3
X119.706Y-109.2
X121.444Y-166.688
X123.825Y-104.775
X126.206Y-130.969
X130.969Y-147.637
X135.731Y-100.012
X138.112Y-114.3
X138.112Y-185.737
X138.706Y-109.6
X140.494Y-166.688
X142.875Y-104.775
X145.256Y-130.969
X150.019Y-147.637
X154.781Y-100.012
X157.162Y-114.3
X158.154Y-110.052
X159.544Y-166.688
X161.925Y-104.775
X164.306Y-130.969
X164.306Y-185.737
X169.069Y-147.637
X173.831Y-100.012
X176.213Y-114.3
X177.629Y-110.477
X178.594Y-166.688
X180.975Y-104.775
X183.356Y-130.969
X188.119Y-147.637
X190.5Y-185.737
X192.881Y-100.012
X195.262Y-114.3
X197.154Y-110.953
X197.644Y-166.688
X200.025Y-104.775
X202.406Y-130.969
X207.169Y-147.637
X211.931Y-100.012
X214.312Y-114.3
X216.629Y-111.377
X216.694Y-166.688
X219.075Y-104.775
X219.075Y-185.737
X221.456Y-130.969
X226.219Y-147.637
X230.981Y-100.012
X233.362Y-114.3
X235.744Y-166.688
X236.154Y-111.852
X238.125Y-104.775
X240.506Y-130.969
X245.269Y-147.637
X250.031Y-100.012
X250.031Y-185.737
X252.412Y-114.3
X254.794Y-166.688
X255.629Y-112.277
X257.175Y-104.775
X259.556Y-130.969
X264.319Y-147.637
X269.081Y-100.012
X269.081Y-185.737
X271.462Y-114.3
X273.844Y-166.688
X275.154Y-112.752
X276.225Y-104.775
X278.606Y-130.969
X283.369Y-147.637
X288.131Y-166.688
X288.131Y-185.737
X290.512Y-114.3
X295.106Y-104.775
X296.7Y-145.1
X297.656Y-130.969
X302.419Y-101.0
X307.181Y-185.737
X309.562Y-166.688
X314.325Y-130.81
X316.706Y-114.3
X323.806Y-103.5
X326.231Y-185.737
X328.613Y-166.688
X340.519Y-130.969
X342.9Y-147.637
X345.281Y-169.069
X345.281Y-185.737
X348.706Y-130.969
X352.306Y-122.6
X353.606Y-105.1
X354.806Y-122.6
X356.906Y-110.8
X358.106Y-110.8
X358.8Y-137.9
X360.106Y-118.5
X364.331Y-166.688
X364.331Y-185.737
X364.606Y-123.8
T2
X52.387Y-116.522
X52.387Y-121.602
X52.387Y-135.572
X52.387Y-140.653
X52.387Y-154.623
X52.387Y-159.702
X52.387Y-173.672
X52.387Y-178.752
X69.056Y-99.854
X69.056Y-104.934
X76.2Y-173.672
X76.2Y-178.752
X78.581Y-116.522
X78.581Y-121.602
X83.344Y-135.572
X83.344Y-140.653
X88.106Y-99.854
X88.106Y-104.934
X92.869Y-154.623
X92.869Y-159.702
X92.869Y-164.147
X92.869Y-169.227
X97.631Y-116.522
X97.631Y-121.602
X97.631Y-173.672
X97.631Y-178.752
X102.394Y-135.572
X102.394Y-140.653
X107.156Y-99.854
X107.156Y-104.934
X111.919Y-154.623
X111.919Y-159.702
X116.681Y-116.522
X116.681Y-121.602
X121.444Y-135.572
X121.444Y-140.653
X121.444Y-173.672
X121.444Y-178.752
X126.206Y-99.854
X126.206Y-104.934
X130.969Y-154.623
X130.969Y-159.702
X135.731Y-116.522
X135.731Y-121.602
X140.494Y-135.572
X140.494Y-140.653
X145.256Y-99.854
X145.256Y-104.934
X150.019Y-154.623
X150.019Y-159.702
X154.781Y-116.522
X154.781Y-121.602
X159.544Y-135.572
X159.544Y-140.653
X160.2Y-176.054
X160.2Y-181.134
X164.306Y-99.854
X164.306Y-104.934
X164.306Y-176.054
X164.306Y-181.134
X169.069Y-154.623
X169.069Y-159.702
X173.831Y-116.522
X173.831Y-121.602
X178.594Y-135.572
X178.594Y-140.653
X183.356Y-99.854
X183.356Y-104.934
X188.119Y-154.623
X188.119Y-159.702
X192.881Y-116.522
X192.881Y-121.602
X195.262Y-176.054
X195.262Y-181.134
X197.644Y-135.572
X197.644Y-140.653
X202.406Y-99.854
X202.406Y-104.934
X207.169Y-154.623
X207.169Y-159.702
X211.931Y-116.522
X211.931Y-121.602
X216.694Y-135.572
X216.694Y-140.653
X221.456Y-99.854
X221.456Y-104.934
X226.219Y-154.623
X226.219Y-159.702
X230.981Y-116.522
X230.981Y-121.602
X235.744Y-135.572
X235.744Y-140.653
X240.506Y-99.854
X240.506Y-104.934
X240.506Y-173.672
X240.506Y-178.752
X245.269Y-154.623
X245.269Y-159.702
X250.031Y-116.522
X250.031Y-121.602
X254.794Y-135.572
X254.794Y-140.653
X259.556Y-99.854
X259.556Y-104.934
X259.556Y-173.672
X259.556Y-178.752
X264.319Y-154.623
X264.319Y-159.702
X269.081Y-116.522
X269.081Y-121.602
X273.844Y-135.572
X273.844Y-140.653
X278.606Y-99.854
X278.606Y-104.934
X278.606Y-173.672
X278.606Y-178.752
X283.369Y-154.623
X283.369Y-159.702
X288.131Y-116.522
X288.131Y-121.602
X292.894Y-135.572
X292.894Y-140.653
X292.894Y-145.097
X292.894Y-150.177
X297.656Y-99.854
X297.656Y-104.934
X297.656Y-176.054
X297.656Y-181.134
X309.562Y-116.522
X309.562Y-121.602
X316.706Y-173.672
X316.706Y-178.752
X333.375Y-99.854
X333.375Y-104.934
X335.756Y-137.954
X335.756Y-143.034
X335.756Y-154.623
X335.756Y-159.702
X335.756Y-164.147
X335.756Y-169.227
X335.756Y-173.672
X335.756Y-178.752
X354.806Y-137.954
X354.806Y-143.034
X354.806Y-154.623
X354.806Y-159.702
X354.806Y-173.672
X354.806Y-178.752
T3
X347.186Y-99.13
X347.186Y-101.67
X347.186Y-104.21
X347.186Y-106.75
X347.186Y-109.29
X347.186Y-111.83
X347.186Y-114.37
X347.186Y-116.91
X347.186Y-119.45
X347.186Y-121.99
X347.186Y-124.53
X347.186Y-127.07
X349.726Y-127.07
X350.996Y-131.25
X352.266Y-127.07
X353.536Y-131.25
X354.806Y-127.07
X356.076Y-131.25
X357.346Y-127.07
X358.616Y-131.25
X359.886Y-127.07
X361.831Y-135.975
X361.831Y-150.475
X362.426Y-99.13
X362.426Y-101.67
X362.426Y-104.21
X362.426Y-106.75
X362.426Y-109.29
X362.426Y-111.83
X362.426Y-114.37
X362.426Y-116.91
X362.426Y-119.45
X362.426Y-121.99
X362.426Y-124.53
X362.426Y-127.07
X364.331Y-135.975
X366.831Y-135.975
X366.831Y-150.475
T0
M30
