%TF.GenerationSoftware,KiCad,Pcbnew,(5.1.12)-1*%
%TF.CreationDate,2021-12-07T00:58:41-05:00*%
%TF.ProjectId,GanJing 65 rev 2 hotswap,47616e4a-696e-4672-9036-352072657620,2*%
%TF.SameCoordinates,Original*%
%TF.FileFunction,Soldermask,Top*%
%TF.FilePolarity,Negative*%
%FSLAX46Y46*%
G04 Gerber Fmt 4.6, Leading zero omitted, Abs format (unit mm)*
G04 Created by KiCad (PCBNEW (5.1.12)-1) date 2021-12-07 00:58:41*
%MOMM*%
%LPD*%
G01*
G04 APERTURE LIST*
%ADD10C,0.150000*%
%ADD11C,1.750000*%
%ADD12C,3.987800*%
%ADD13C,3.000000*%
%ADD14C,3.048000*%
%ADD15C,3.050000*%
%ADD16C,4.000000*%
%ADD17O,1.600000X2.000000*%
%ADD18C,1.752600*%
%ADD19R,1.752600X1.752600*%
%ADD20C,2.000000*%
%ADD21R,2.000000X2.000000*%
%ADD22R,2.000000X3.200000*%
%ADD23O,1.600000X1.600000*%
%ADD24R,1.600000X1.600000*%
G04 APERTURE END LIST*
D10*
X353235714Y-188571130D02*
X353235714Y-187571130D01*
X353473809Y-187571130D01*
X353616666Y-187618750D01*
X353711904Y-187713988D01*
X353759523Y-187809226D01*
X353807142Y-187999702D01*
X353807142Y-188142559D01*
X353759523Y-188333035D01*
X353711904Y-188428273D01*
X353616666Y-188523511D01*
X353473809Y-188571130D01*
X353235714Y-188571130D01*
X354616666Y-188523511D02*
X354521428Y-188571130D01*
X354330952Y-188571130D01*
X354235714Y-188523511D01*
X354188095Y-188428273D01*
X354188095Y-188047321D01*
X354235714Y-187952083D01*
X354330952Y-187904464D01*
X354521428Y-187904464D01*
X354616666Y-187952083D01*
X354664285Y-188047321D01*
X354664285Y-188142559D01*
X354188095Y-188237797D01*
X355045238Y-188523511D02*
X355140476Y-188571130D01*
X355330952Y-188571130D01*
X355426190Y-188523511D01*
X355473809Y-188428273D01*
X355473809Y-188380654D01*
X355426190Y-188285416D01*
X355330952Y-188237797D01*
X355188095Y-188237797D01*
X355092857Y-188190178D01*
X355045238Y-188094940D01*
X355045238Y-188047321D01*
X355092857Y-187952083D01*
X355188095Y-187904464D01*
X355330952Y-187904464D01*
X355426190Y-187952083D01*
X355902380Y-188571130D02*
X355902380Y-187904464D01*
X355902380Y-187571130D02*
X355854761Y-187618750D01*
X355902380Y-187666369D01*
X355950000Y-187618750D01*
X355902380Y-187571130D01*
X355902380Y-187666369D01*
X356807142Y-187904464D02*
X356807142Y-188713988D01*
X356759523Y-188809226D01*
X356711904Y-188856845D01*
X356616666Y-188904464D01*
X356473809Y-188904464D01*
X356378571Y-188856845D01*
X356807142Y-188523511D02*
X356711904Y-188571130D01*
X356521428Y-188571130D01*
X356426190Y-188523511D01*
X356378571Y-188475892D01*
X356330952Y-188380654D01*
X356330952Y-188094940D01*
X356378571Y-187999702D01*
X356426190Y-187952083D01*
X356521428Y-187904464D01*
X356711904Y-187904464D01*
X356807142Y-187952083D01*
X357283333Y-187904464D02*
X357283333Y-188571130D01*
X357283333Y-187999702D02*
X357330952Y-187952083D01*
X357426190Y-187904464D01*
X357569047Y-187904464D01*
X357664285Y-187952083D01*
X357711904Y-188047321D01*
X357711904Y-188571130D01*
X358569047Y-188523511D02*
X358473809Y-188571130D01*
X358283333Y-188571130D01*
X358188095Y-188523511D01*
X358140476Y-188428273D01*
X358140476Y-188047321D01*
X358188095Y-187952083D01*
X358283333Y-187904464D01*
X358473809Y-187904464D01*
X358569047Y-187952083D01*
X358616666Y-188047321D01*
X358616666Y-188142559D01*
X358140476Y-188237797D01*
X359473809Y-188571130D02*
X359473809Y-187571130D01*
X359473809Y-188523511D02*
X359378571Y-188571130D01*
X359188095Y-188571130D01*
X359092857Y-188523511D01*
X359045238Y-188475892D01*
X358997619Y-188380654D01*
X358997619Y-188094940D01*
X359045238Y-187999702D01*
X359092857Y-187952083D01*
X359188095Y-187904464D01*
X359378571Y-187904464D01*
X359473809Y-187952083D01*
X360711904Y-188571130D02*
X360711904Y-187571130D01*
X360711904Y-187952083D02*
X360807142Y-187904464D01*
X360997619Y-187904464D01*
X361092857Y-187952083D01*
X361140476Y-187999702D01*
X361188095Y-188094940D01*
X361188095Y-188380654D01*
X361140476Y-188475892D01*
X361092857Y-188523511D01*
X360997619Y-188571130D01*
X360807142Y-188571130D01*
X360711904Y-188523511D01*
X361521428Y-187904464D02*
X361759523Y-188571130D01*
X361997619Y-187904464D02*
X361759523Y-188571130D01*
X361664285Y-188809226D01*
X361616666Y-188856845D01*
X361521428Y-188904464D01*
X363140476Y-188571130D02*
X363140476Y-187571130D01*
X363473809Y-188285416D01*
X363807142Y-187571130D01*
X363807142Y-188571130D01*
X364283333Y-188571130D02*
X364283333Y-187904464D01*
X364283333Y-187571130D02*
X364235714Y-187618750D01*
X364283333Y-187666369D01*
X364330952Y-187618750D01*
X364283333Y-187571130D01*
X364283333Y-187666369D01*
X364759523Y-187904464D02*
X364759523Y-188571130D01*
X364759523Y-187999702D02*
X364807142Y-187952083D01*
X364902380Y-187904464D01*
X365045238Y-187904464D01*
X365140476Y-187952083D01*
X365188095Y-188047321D01*
X365188095Y-188571130D01*
X366092857Y-187904464D02*
X366092857Y-188713988D01*
X366045238Y-188809226D01*
X365997619Y-188856845D01*
X365902380Y-188904464D01*
X365759523Y-188904464D01*
X365664285Y-188856845D01*
X366092857Y-188523511D02*
X365997619Y-188571130D01*
X365807142Y-188571130D01*
X365711904Y-188523511D01*
X365664285Y-188475892D01*
X365616666Y-188380654D01*
X365616666Y-188094940D01*
X365664285Y-187999702D01*
X365711904Y-187952083D01*
X365807142Y-187904464D01*
X365997619Y-187904464D01*
X366092857Y-187952083D01*
X366473809Y-187904464D02*
X366997619Y-187904464D01*
X366473809Y-188571130D01*
X366997619Y-188571130D01*
X367759523Y-188523511D02*
X367664285Y-188571130D01*
X367473809Y-188571130D01*
X367378571Y-188523511D01*
X367330952Y-188428273D01*
X367330952Y-188047321D01*
X367378571Y-187952083D01*
X367473809Y-187904464D01*
X367664285Y-187904464D01*
X367759523Y-187952083D01*
X367807142Y-188047321D01*
X367807142Y-188142559D01*
X367330952Y-188237797D01*
X369283333Y-187571130D02*
X369283333Y-188285416D01*
X369235714Y-188428273D01*
X369140476Y-188523511D01*
X368997619Y-188571130D01*
X368902380Y-188571130D01*
X369759523Y-188571130D02*
X369759523Y-187904464D01*
X369759523Y-187571130D02*
X369711904Y-187618750D01*
X369759523Y-187666369D01*
X369807142Y-187618750D01*
X369759523Y-187571130D01*
X369759523Y-187666369D01*
X370235714Y-187904464D02*
X370235714Y-188571130D01*
X370235714Y-187999702D02*
X370283333Y-187952083D01*
X370378571Y-187904464D01*
X370521428Y-187904464D01*
X370616666Y-187952083D01*
X370664285Y-188047321D01*
X370664285Y-188571130D01*
%TO.C,MX63*%
X179522619Y-185189880D02*
X179332142Y-185189880D01*
X179236904Y-185237500D01*
X179189285Y-185285119D01*
X179094047Y-185427976D01*
X179046428Y-185618452D01*
X179046428Y-185999404D01*
X179094047Y-186094642D01*
X179141666Y-186142261D01*
X179236904Y-186189880D01*
X179427380Y-186189880D01*
X179522619Y-186142261D01*
X179570238Y-186094642D01*
X179617857Y-185999404D01*
X179617857Y-185761309D01*
X179570238Y-185666071D01*
X179522619Y-185618452D01*
X179427380Y-185570833D01*
X179236904Y-185570833D01*
X179141666Y-185618452D01*
X179094047Y-185666071D01*
X179046428Y-185761309D01*
X180046428Y-186094642D02*
X180094047Y-186142261D01*
X180046428Y-186189880D01*
X179998809Y-186142261D01*
X180046428Y-186094642D01*
X180046428Y-186189880D01*
X180475000Y-185285119D02*
X180522619Y-185237500D01*
X180617857Y-185189880D01*
X180855952Y-185189880D01*
X180951190Y-185237500D01*
X180998809Y-185285119D01*
X181046428Y-185380357D01*
X181046428Y-185475595D01*
X180998809Y-185618452D01*
X180427380Y-186189880D01*
X181046428Y-186189880D01*
X181951190Y-185189880D02*
X181475000Y-185189880D01*
X181427380Y-185666071D01*
X181475000Y-185618452D01*
X181570238Y-185570833D01*
X181808333Y-185570833D01*
X181903571Y-185618452D01*
X181951190Y-185666071D01*
X181998809Y-185761309D01*
X181998809Y-185999404D01*
X181951190Y-186094642D01*
X181903571Y-186142261D01*
X181808333Y-186189880D01*
X181570238Y-186189880D01*
X181475000Y-186142261D01*
X181427380Y-186094642D01*
X182855952Y-185523214D02*
X182855952Y-186189880D01*
X182427380Y-185523214D02*
X182427380Y-186047023D01*
X182475000Y-186142261D01*
X182570238Y-186189880D01*
X182713095Y-186189880D01*
X182808333Y-186142261D01*
X182855952Y-186094642D01*
%TD*%
D11*
%TO.C,MX29*%
X340201250Y-142875000D03*
D12*
X345281250Y-142875000D03*
D13*
X347821250Y-137795000D03*
D11*
X350361250Y-142875000D03*
D13*
X341471250Y-140335000D03*
%TD*%
D11*
%TO.C,MX70*%
X359251250Y-180975000D03*
D12*
X364331250Y-180975000D03*
D13*
X366871250Y-175895000D03*
D11*
X369411250Y-180975000D03*
D13*
X360521250Y-178435000D03*
%TD*%
D11*
%TO.C,MX69*%
X340201250Y-180975000D03*
D12*
X345281250Y-180975000D03*
D13*
X347821250Y-175895000D03*
D11*
X350361250Y-180975000D03*
D13*
X341471250Y-178435000D03*
%TD*%
D11*
%TO.C,MX68*%
X321151250Y-180975000D03*
D12*
X326231250Y-180975000D03*
D13*
X328771250Y-175895000D03*
D11*
X331311250Y-180975000D03*
D13*
X322421250Y-178435000D03*
%TD*%
D11*
%TO.C,MX67*%
X302101250Y-180975000D03*
D12*
X307181250Y-180975000D03*
D13*
X309721250Y-175895000D03*
D11*
X312261250Y-180975000D03*
D13*
X303371250Y-178435000D03*
%TD*%
D11*
%TO.C,MX66*%
X283051250Y-180975000D03*
D12*
X288131250Y-180975000D03*
D13*
X290671250Y-175895000D03*
D11*
X293211250Y-180975000D03*
D13*
X284321250Y-178435000D03*
%TD*%
D11*
%TO.C,MX65*%
X264001250Y-180975000D03*
D12*
X269081250Y-180975000D03*
D13*
X271621250Y-175895000D03*
D11*
X274161250Y-180975000D03*
D13*
X265271250Y-178435000D03*
%TD*%
D11*
%TO.C,MX64*%
X244951250Y-180975000D03*
D12*
X250031250Y-180975000D03*
D13*
X252571250Y-175895000D03*
D11*
X255111250Y-180975000D03*
D13*
X246221250Y-178435000D03*
%TD*%
D14*
%TO.C,MX63*%
X230974900Y-187960000D03*
D12*
X130975100Y-172720000D03*
X230974900Y-172720000D03*
D14*
X130975100Y-187960000D03*
D12*
X180975000Y-180975000D03*
D13*
X183515000Y-175895000D03*
X177165000Y-178435000D03*
D11*
X175895000Y-180975000D03*
X186055000Y-180975000D03*
%TD*%
D13*
%TO.C,MX62*%
X112077500Y-175895000D03*
D12*
X109537500Y-180975000D03*
D11*
X114617500Y-180975000D03*
D13*
X105727500Y-178435000D03*
D11*
X104457500Y-180975000D03*
%TD*%
D13*
%TO.C,MX61*%
X88265000Y-175895000D03*
D12*
X85725000Y-180975000D03*
D11*
X90805000Y-180975000D03*
D13*
X81915000Y-178435000D03*
D11*
X80645000Y-180975000D03*
%TD*%
D13*
%TO.C,MX60*%
X64452500Y-175895000D03*
D12*
X61912500Y-180975000D03*
D11*
X66992500Y-180975000D03*
D13*
X58102500Y-178435000D03*
D11*
X56832500Y-180975000D03*
%TD*%
%TO.C,MX59*%
X359251250Y-161925000D03*
D12*
X364331250Y-161925000D03*
D13*
X366871250Y-156845000D03*
D11*
X369411250Y-161925000D03*
D13*
X360521250Y-159385000D03*
%TD*%
%TO.C,MX57*%
X312102500Y-156845000D03*
D15*
X297662500Y-154925000D03*
D12*
X309562500Y-161925000D03*
D11*
X314642500Y-161925000D03*
D16*
X321462500Y-170165000D03*
D13*
X305752500Y-159385000D03*
D16*
X297662500Y-170165000D03*
D11*
X304482500Y-161925000D03*
D15*
X321462500Y-154925000D03*
%TD*%
D11*
%TO.C,MX56*%
X268763750Y-161925000D03*
D12*
X273843750Y-161925000D03*
D13*
X276383750Y-156845000D03*
D11*
X278923750Y-161925000D03*
D13*
X270033750Y-159385000D03*
%TD*%
D11*
%TO.C,MX55*%
X249713750Y-161925000D03*
D12*
X254793750Y-161925000D03*
D13*
X257333750Y-156845000D03*
D11*
X259873750Y-161925000D03*
D13*
X250983750Y-159385000D03*
%TD*%
D11*
%TO.C,MX54*%
X230663750Y-161925000D03*
D12*
X235743750Y-161925000D03*
D13*
X238283750Y-156845000D03*
D11*
X240823750Y-161925000D03*
D13*
X231933750Y-159385000D03*
%TD*%
D11*
%TO.C,MX53*%
X211613750Y-161925000D03*
D12*
X216693750Y-161925000D03*
D13*
X219233750Y-156845000D03*
D11*
X221773750Y-161925000D03*
D13*
X212883750Y-159385000D03*
%TD*%
D11*
%TO.C,MX52*%
X192563750Y-161925000D03*
D12*
X197643750Y-161925000D03*
D13*
X200183750Y-156845000D03*
D11*
X202723750Y-161925000D03*
D13*
X193833750Y-159385000D03*
%TD*%
D11*
%TO.C,MX51*%
X173513750Y-161925000D03*
D12*
X178593750Y-161925000D03*
D13*
X181133750Y-156845000D03*
D11*
X183673750Y-161925000D03*
D13*
X174783750Y-159385000D03*
%TD*%
D11*
%TO.C,MX50*%
X154463750Y-161925000D03*
D12*
X159543750Y-161925000D03*
D13*
X162083750Y-156845000D03*
D11*
X164623750Y-161925000D03*
D13*
X155733750Y-159385000D03*
%TD*%
D11*
%TO.C,MX49*%
X135413750Y-161925000D03*
D12*
X140493750Y-161925000D03*
D13*
X143033750Y-156845000D03*
D11*
X145573750Y-161925000D03*
D13*
X136683750Y-159385000D03*
%TD*%
D11*
%TO.C,MX48*%
X116363750Y-161925000D03*
D12*
X121443750Y-161925000D03*
D13*
X123983750Y-156845000D03*
D11*
X126523750Y-161925000D03*
D13*
X117633750Y-159385000D03*
%TD*%
D11*
%TO.C,MX47*%
X97313750Y-161925000D03*
D12*
X102393750Y-161925000D03*
D13*
X104933750Y-156845000D03*
D11*
X107473750Y-161925000D03*
D13*
X98583750Y-159385000D03*
%TD*%
D16*
%TO.C,MX45*%
X59537500Y-170165000D03*
X83337500Y-170165000D03*
D15*
X83337500Y-154925000D03*
X59537500Y-154925000D03*
D13*
X67627500Y-159385000D03*
D12*
X71437500Y-161925000D03*
D13*
X73977500Y-156845000D03*
D11*
X76517500Y-161925000D03*
X66357500Y-161925000D03*
%TD*%
%TO.C,MX44*%
X340201250Y-161925000D03*
D12*
X345281250Y-161925000D03*
D13*
X347821250Y-156845000D03*
D11*
X350361250Y-161925000D03*
D13*
X341471250Y-159385000D03*
%TD*%
D16*
%TO.C,MX43*%
X302425000Y-151115000D03*
X326225000Y-151115000D03*
D15*
X326225000Y-135875000D03*
X302425000Y-135875000D03*
D13*
X310515000Y-140335000D03*
D12*
X314325000Y-142875000D03*
D13*
X316865000Y-137795000D03*
D11*
X319405000Y-142875000D03*
X309245000Y-142875000D03*
%TD*%
%TO.C,MX41*%
X278288750Y-142875000D03*
D12*
X283368750Y-142875000D03*
D13*
X285908750Y-137795000D03*
D11*
X288448750Y-142875000D03*
D13*
X279558750Y-140335000D03*
%TD*%
D11*
%TO.C,MX40*%
X259238750Y-142875000D03*
D12*
X264318750Y-142875000D03*
D13*
X266858750Y-137795000D03*
D11*
X269398750Y-142875000D03*
D13*
X260508750Y-140335000D03*
%TD*%
D11*
%TO.C,MX39*%
X240188750Y-142875000D03*
D12*
X245268750Y-142875000D03*
D13*
X247808750Y-137795000D03*
D11*
X250348750Y-142875000D03*
D13*
X241458750Y-140335000D03*
%TD*%
D11*
%TO.C,MX38*%
X221138750Y-142875000D03*
D12*
X226218750Y-142875000D03*
D13*
X228758750Y-137795000D03*
D11*
X231298750Y-142875000D03*
D13*
X222408750Y-140335000D03*
%TD*%
D11*
%TO.C,MX37*%
X202088750Y-142875000D03*
D12*
X207168750Y-142875000D03*
D13*
X209708750Y-137795000D03*
D11*
X212248750Y-142875000D03*
D13*
X203358750Y-140335000D03*
%TD*%
D11*
%TO.C,MX36*%
X183038750Y-142875000D03*
D12*
X188118750Y-142875000D03*
D13*
X190658750Y-137795000D03*
D11*
X193198750Y-142875000D03*
D13*
X184308750Y-140335000D03*
%TD*%
D11*
%TO.C,MX35*%
X163988750Y-142875000D03*
D12*
X169068750Y-142875000D03*
D13*
X171608750Y-137795000D03*
D11*
X174148750Y-142875000D03*
D13*
X165258750Y-140335000D03*
%TD*%
D11*
%TO.C,MX34*%
X144938750Y-142875000D03*
D12*
X150018750Y-142875000D03*
D13*
X152558750Y-137795000D03*
D11*
X155098750Y-142875000D03*
D13*
X146208750Y-140335000D03*
%TD*%
D11*
%TO.C,MX33*%
X125888750Y-142875000D03*
D12*
X130968750Y-142875000D03*
D13*
X133508750Y-137795000D03*
D11*
X136048750Y-142875000D03*
D13*
X127158750Y-140335000D03*
%TD*%
D11*
%TO.C,MX32*%
X106838750Y-142875000D03*
D12*
X111918750Y-142875000D03*
D13*
X114458750Y-137795000D03*
D11*
X116998750Y-142875000D03*
D13*
X108108750Y-140335000D03*
%TD*%
D11*
%TO.C,MX31*%
X87788750Y-142875000D03*
D12*
X92868750Y-142875000D03*
D13*
X95408750Y-137795000D03*
D11*
X97948750Y-142875000D03*
D13*
X89058750Y-140335000D03*
%TD*%
D12*
%TO.C,MX30*%
X66675000Y-142875000D03*
D11*
X71755000Y-142875000D03*
X61595000Y-142875000D03*
D13*
X69215000Y-137795000D03*
X62865000Y-140335000D03*
%TD*%
D12*
%TO.C,MX28*%
X321468750Y-123825000D03*
D11*
X326548750Y-123825000D03*
X316388750Y-123825000D03*
D13*
X324008750Y-118745000D03*
X317658750Y-121285000D03*
%TD*%
D11*
%TO.C,MX27*%
X292576250Y-123825000D03*
D12*
X297656250Y-123825000D03*
D13*
X300196250Y-118745000D03*
D11*
X302736250Y-123825000D03*
D13*
X293846250Y-121285000D03*
%TD*%
D11*
%TO.C,MX26*%
X273526250Y-123825000D03*
D12*
X278606250Y-123825000D03*
D13*
X281146250Y-118745000D03*
D11*
X283686250Y-123825000D03*
D13*
X274796250Y-121285000D03*
%TD*%
D11*
%TO.C,MX25*%
X254476250Y-123825000D03*
D12*
X259556250Y-123825000D03*
D13*
X262096250Y-118745000D03*
D11*
X264636250Y-123825000D03*
D13*
X255746250Y-121285000D03*
%TD*%
D11*
%TO.C,MX24*%
X235426250Y-123825000D03*
D12*
X240506250Y-123825000D03*
D13*
X243046250Y-118745000D03*
D11*
X245586250Y-123825000D03*
D13*
X236696250Y-121285000D03*
%TD*%
D11*
%TO.C,MX23*%
X216376250Y-123825000D03*
D12*
X221456250Y-123825000D03*
D13*
X223996250Y-118745000D03*
D11*
X226536250Y-123825000D03*
D13*
X217646250Y-121285000D03*
%TD*%
D11*
%TO.C,MX22*%
X197326250Y-123825000D03*
D12*
X202406250Y-123825000D03*
D13*
X204946250Y-118745000D03*
D11*
X207486250Y-123825000D03*
D13*
X198596250Y-121285000D03*
%TD*%
D11*
%TO.C,MX21*%
X178276250Y-123825000D03*
D12*
X183356250Y-123825000D03*
D13*
X185896250Y-118745000D03*
D11*
X188436250Y-123825000D03*
D13*
X179546250Y-121285000D03*
%TD*%
D11*
%TO.C,MX20*%
X159226250Y-123825000D03*
D12*
X164306250Y-123825000D03*
D13*
X166846250Y-118745000D03*
D11*
X169386250Y-123825000D03*
D13*
X160496250Y-121285000D03*
%TD*%
D11*
%TO.C,MX19*%
X140176250Y-123825000D03*
D12*
X145256250Y-123825000D03*
D13*
X147796250Y-118745000D03*
D11*
X150336250Y-123825000D03*
D13*
X141446250Y-121285000D03*
%TD*%
D11*
%TO.C,MX18*%
X121126250Y-123825000D03*
D12*
X126206250Y-123825000D03*
D13*
X128746250Y-118745000D03*
D11*
X131286250Y-123825000D03*
D13*
X122396250Y-121285000D03*
%TD*%
D11*
%TO.C,MX17*%
X102076250Y-123825000D03*
D12*
X107156250Y-123825000D03*
D13*
X109696250Y-118745000D03*
D11*
X112236250Y-123825000D03*
D13*
X103346250Y-121285000D03*
%TD*%
D11*
%TO.C,MX16*%
X83026250Y-123825000D03*
D12*
X88106250Y-123825000D03*
D13*
X90646250Y-118745000D03*
D11*
X93186250Y-123825000D03*
D13*
X84296250Y-121285000D03*
%TD*%
D12*
%TO.C,MX15*%
X64293750Y-123825000D03*
D11*
X69373750Y-123825000D03*
X59213750Y-123825000D03*
D13*
X66833750Y-118745000D03*
X60483750Y-121285000D03*
%TD*%
%TO.C,MX14*%
X319246250Y-99695000D03*
D15*
X304806250Y-97775000D03*
D12*
X316706250Y-104775000D03*
D11*
X321786250Y-104775000D03*
D16*
X328606250Y-113015000D03*
D13*
X312896250Y-102235000D03*
D16*
X304806250Y-113015000D03*
D11*
X311626250Y-104775000D03*
D15*
X328606250Y-97775000D03*
%TD*%
D11*
%TO.C,MX13*%
X283051250Y-104775000D03*
D12*
X288131250Y-104775000D03*
D13*
X290671250Y-99695000D03*
D11*
X293211250Y-104775000D03*
D13*
X284321250Y-102235000D03*
%TD*%
D11*
%TO.C,MX12*%
X264001250Y-104775000D03*
D12*
X269081250Y-104775000D03*
D13*
X271621250Y-99695000D03*
D11*
X274161250Y-104775000D03*
D13*
X265271250Y-102235000D03*
%TD*%
D11*
%TO.C,MX11*%
X244951250Y-104775000D03*
D12*
X250031250Y-104775000D03*
D13*
X252571250Y-99695000D03*
D11*
X255111250Y-104775000D03*
D13*
X246221250Y-102235000D03*
%TD*%
D11*
%TO.C,MX10*%
X225901250Y-104775000D03*
D12*
X230981250Y-104775000D03*
D13*
X233521250Y-99695000D03*
D11*
X236061250Y-104775000D03*
D13*
X227171250Y-102235000D03*
%TD*%
D11*
%TO.C,MX9*%
X206851250Y-104775000D03*
D12*
X211931250Y-104775000D03*
D13*
X214471250Y-99695000D03*
D11*
X217011250Y-104775000D03*
D13*
X208121250Y-102235000D03*
%TD*%
D11*
%TO.C,MX8*%
X187801250Y-104775000D03*
D12*
X192881250Y-104775000D03*
D13*
X195421250Y-99695000D03*
D11*
X197961250Y-104775000D03*
D13*
X189071250Y-102235000D03*
%TD*%
D11*
%TO.C,MX7*%
X168751250Y-104775000D03*
D12*
X173831250Y-104775000D03*
D13*
X176371250Y-99695000D03*
D11*
X178911250Y-104775000D03*
D13*
X170021250Y-102235000D03*
%TD*%
D11*
%TO.C,MX6*%
X149701250Y-104775000D03*
D12*
X154781250Y-104775000D03*
D13*
X157321250Y-99695000D03*
D11*
X159861250Y-104775000D03*
D13*
X150971250Y-102235000D03*
%TD*%
D11*
%TO.C,MX5*%
X130651250Y-104775000D03*
D12*
X135731250Y-104775000D03*
D13*
X138271250Y-99695000D03*
D11*
X140811250Y-104775000D03*
D13*
X131921250Y-102235000D03*
%TD*%
D11*
%TO.C,MX4*%
X111601250Y-104775000D03*
D12*
X116681250Y-104775000D03*
D13*
X119221250Y-99695000D03*
D11*
X121761250Y-104775000D03*
D13*
X112871250Y-102235000D03*
%TD*%
D11*
%TO.C,MX3*%
X92551250Y-104775000D03*
D12*
X97631250Y-104775000D03*
D13*
X100171250Y-99695000D03*
D11*
X102711250Y-104775000D03*
D13*
X93821250Y-102235000D03*
%TD*%
D11*
%TO.C,MX2*%
X73501250Y-104775000D03*
D12*
X78581250Y-104775000D03*
D13*
X81121250Y-99695000D03*
D11*
X83661250Y-104775000D03*
D13*
X74771250Y-102235000D03*
%TD*%
D11*
%TO.C,MX1*%
X54451250Y-104775000D03*
D12*
X59531250Y-104775000D03*
D13*
X62071250Y-99695000D03*
D11*
X64611250Y-104775000D03*
D13*
X55721250Y-102235000D03*
%TD*%
D17*
%TO.C,DS1*%
X358616250Y-131250000D03*
X353536250Y-131250000D03*
X350996250Y-131250000D03*
X356076250Y-131250000D03*
%TD*%
D18*
%TO.C,U1*%
X347186250Y-104210000D03*
X357346250Y-127070000D03*
D19*
X347186250Y-99130000D03*
D18*
X362426250Y-121990000D03*
X362426250Y-99130000D03*
X347186250Y-106750000D03*
X362426250Y-127070000D03*
X347186250Y-116910000D03*
X352266250Y-127070000D03*
X347186250Y-101670000D03*
X349726250Y-127070000D03*
X362426250Y-119450000D03*
X347186250Y-109290000D03*
X362426250Y-111830000D03*
X362426250Y-109290000D03*
X347186250Y-124530000D03*
X362426250Y-106750000D03*
X362426250Y-104210000D03*
X347186250Y-127070000D03*
X359886250Y-127070000D03*
X347186250Y-119450000D03*
X347186250Y-111830000D03*
X347186250Y-114370000D03*
X362426250Y-114370000D03*
X354806250Y-127070000D03*
X347186250Y-121990000D03*
X362426250Y-124530000D03*
X362426250Y-116910000D03*
X362426250Y-101670000D03*
%TD*%
D20*
%TO.C,SW1*%
X366831250Y-135875000D03*
X366831250Y-150375000D03*
D21*
X361831250Y-150375000D03*
D20*
X364331250Y-150375000D03*
X361831250Y-135875000D03*
D22*
X369931250Y-142875000D03*
X358731250Y-142875000D03*
%TD*%
D23*
%TO.C,D71*%
X354806250Y-140652500D03*
D24*
X354806250Y-135572500D03*
%TD*%
D23*
%TO.C,D70*%
X354806250Y-178752500D03*
D24*
X354806250Y-173672500D03*
%TD*%
D23*
%TO.C,D69*%
X335756250Y-178752500D03*
D24*
X335756250Y-173672500D03*
%TD*%
D23*
%TO.C,D68*%
X316706250Y-178752500D03*
D24*
X316706250Y-173672500D03*
%TD*%
D23*
%TO.C,D67*%
X297656250Y-181133750D03*
D24*
X297656250Y-176053750D03*
%TD*%
D23*
%TO.C,D66*%
X278606250Y-178752500D03*
D24*
X278606250Y-173672500D03*
%TD*%
D23*
%TO.C,D65*%
X259556250Y-178752500D03*
D24*
X259556250Y-173672500D03*
%TD*%
D23*
%TO.C,D64*%
X240506250Y-178752500D03*
D24*
X240506250Y-173672500D03*
%TD*%
D23*
%TO.C,D63*%
X171450000Y-178752500D03*
D24*
X171450000Y-173672500D03*
%TD*%
D23*
%TO.C,D62*%
X97631250Y-178752500D03*
D24*
X97631250Y-173672500D03*
%TD*%
D23*
%TO.C,D61*%
X76200000Y-178752500D03*
D24*
X76200000Y-173672500D03*
%TD*%
D23*
%TO.C,D60*%
X52387500Y-178752500D03*
D24*
X52387500Y-173672500D03*
%TD*%
D23*
%TO.C,D59*%
X354806250Y-159861250D03*
D24*
X354806250Y-154781250D03*
%TD*%
D23*
%TO.C,D57*%
X292893750Y-159702500D03*
D24*
X292893750Y-154622500D03*
%TD*%
D23*
%TO.C,D56*%
X264318750Y-159702500D03*
D24*
X264318750Y-154622500D03*
%TD*%
D23*
%TO.C,D55*%
X245268750Y-159702500D03*
D24*
X245268750Y-154622500D03*
%TD*%
D23*
%TO.C,D54*%
X226218750Y-159702500D03*
D24*
X226218750Y-154622500D03*
%TD*%
D23*
%TO.C,D53*%
X207168750Y-159702500D03*
D24*
X207168750Y-154622500D03*
%TD*%
D23*
%TO.C,D52*%
X188118750Y-159702500D03*
D24*
X188118750Y-154622500D03*
%TD*%
D23*
%TO.C,D51*%
X169068750Y-159702500D03*
D24*
X169068750Y-154622500D03*
%TD*%
D23*
%TO.C,D50*%
X150018750Y-159702500D03*
D24*
X150018750Y-154622500D03*
%TD*%
D23*
%TO.C,D49*%
X130968750Y-159702500D03*
D24*
X130968750Y-154622500D03*
%TD*%
D23*
%TO.C,D48*%
X111918750Y-159702500D03*
D24*
X111918750Y-154622500D03*
%TD*%
D23*
%TO.C,D47*%
X92868750Y-159702500D03*
D24*
X92868750Y-154622500D03*
%TD*%
D23*
%TO.C,D45*%
X52387500Y-159702500D03*
D24*
X52387500Y-154622500D03*
%TD*%
D23*
%TO.C,D44*%
X335756250Y-159702500D03*
D24*
X335756250Y-154622500D03*
%TD*%
D23*
%TO.C,D43*%
X297656250Y-140652500D03*
D24*
X297656250Y-135572500D03*
%TD*%
D23*
%TO.C,D41*%
X273843750Y-140652500D03*
D24*
X273843750Y-135572500D03*
%TD*%
D23*
%TO.C,D40*%
X254793750Y-140652500D03*
D24*
X254793750Y-135572500D03*
%TD*%
D23*
%TO.C,D39*%
X235743750Y-140652500D03*
D24*
X235743750Y-135572500D03*
%TD*%
D23*
%TO.C,D38*%
X216693750Y-140652500D03*
D24*
X216693750Y-135572500D03*
%TD*%
D23*
%TO.C,D37*%
X197643750Y-140652500D03*
D24*
X197643750Y-135572500D03*
%TD*%
D23*
%TO.C,D36*%
X178593750Y-140652500D03*
D24*
X178593750Y-135572500D03*
%TD*%
D23*
%TO.C,D35*%
X159543750Y-140652500D03*
D24*
X159543750Y-135572500D03*
%TD*%
D23*
%TO.C,D34*%
X140493750Y-140652500D03*
D24*
X140493750Y-135572500D03*
%TD*%
D23*
%TO.C,D33*%
X121443750Y-140652500D03*
D24*
X121443750Y-135572500D03*
%TD*%
D23*
%TO.C,D32*%
X102393750Y-140652500D03*
D24*
X102393750Y-135572500D03*
%TD*%
D23*
%TO.C,D31*%
X83343750Y-140652500D03*
D24*
X83343750Y-135572500D03*
%TD*%
D23*
%TO.C,D30*%
X52387500Y-140652500D03*
D24*
X52387500Y-135572500D03*
%TD*%
D23*
%TO.C,D29*%
X335756250Y-140652500D03*
D24*
X335756250Y-135572500D03*
%TD*%
D23*
%TO.C,D28*%
X309562500Y-121602500D03*
D24*
X309562500Y-116522500D03*
%TD*%
D23*
%TO.C,D27*%
X288131250Y-121602500D03*
D24*
X288131250Y-116522500D03*
%TD*%
D23*
%TO.C,D26*%
X269081250Y-121602500D03*
D24*
X269081250Y-116522500D03*
%TD*%
D23*
%TO.C,D25*%
X250031250Y-121602500D03*
D24*
X250031250Y-116522500D03*
%TD*%
D23*
%TO.C,D24*%
X230981250Y-121602500D03*
D24*
X230981250Y-116522500D03*
%TD*%
D23*
%TO.C,D23*%
X211931250Y-121602500D03*
D24*
X211931250Y-116522500D03*
%TD*%
D23*
%TO.C,D22*%
X192881250Y-121602500D03*
D24*
X192881250Y-116522500D03*
%TD*%
D23*
%TO.C,D21*%
X173831250Y-121602500D03*
D24*
X173831250Y-116522500D03*
%TD*%
D23*
%TO.C,D20*%
X154781250Y-121602500D03*
D24*
X154781250Y-116522500D03*
%TD*%
D23*
%TO.C,D19*%
X135731250Y-121602500D03*
D24*
X135731250Y-116522500D03*
%TD*%
D23*
%TO.C,D18*%
X116681250Y-121602500D03*
D24*
X116681250Y-116522500D03*
%TD*%
D23*
%TO.C,D17*%
X97631250Y-121602500D03*
D24*
X97631250Y-116522500D03*
%TD*%
D23*
%TO.C,D16*%
X78581250Y-121602500D03*
D24*
X78581250Y-116522500D03*
%TD*%
D23*
%TO.C,D15*%
X52387500Y-121602500D03*
D24*
X52387500Y-116522500D03*
%TD*%
D23*
%TO.C,D14*%
X333375000Y-104933750D03*
D24*
X333375000Y-99853750D03*
%TD*%
D23*
%TO.C,D13*%
X297656250Y-104933750D03*
D24*
X297656250Y-99853750D03*
%TD*%
D23*
%TO.C,D12*%
X278606250Y-104933750D03*
D24*
X278606250Y-99853750D03*
%TD*%
D23*
%TO.C,D11*%
X259556250Y-104933750D03*
D24*
X259556250Y-99853750D03*
%TD*%
D23*
%TO.C,D10*%
X240506250Y-104933750D03*
D24*
X240506250Y-99853750D03*
%TD*%
D23*
%TO.C,D9*%
X221456250Y-104933750D03*
D24*
X221456250Y-99853750D03*
%TD*%
D23*
%TO.C,D8*%
X202406250Y-104933750D03*
D24*
X202406250Y-99853750D03*
%TD*%
D23*
%TO.C,D7*%
X183356250Y-104933750D03*
D24*
X183356250Y-99853750D03*
%TD*%
D23*
%TO.C,D6*%
X164306250Y-104933750D03*
D24*
X164306250Y-99853750D03*
%TD*%
D23*
%TO.C,D5*%
X145256250Y-104933750D03*
D24*
X145256250Y-99853750D03*
%TD*%
D23*
%TO.C,D4*%
X126206250Y-104933750D03*
D24*
X126206250Y-99853750D03*
%TD*%
D23*
%TO.C,D3*%
X107156250Y-104933750D03*
D24*
X107156250Y-99853750D03*
%TD*%
D23*
%TO.C,D2*%
X88106250Y-104933750D03*
D24*
X88106250Y-99853750D03*
%TD*%
D23*
%TO.C,D1*%
X69056250Y-104933750D03*
D24*
X69056250Y-99853750D03*
%TD*%
M02*
