%TF.GenerationSoftware,KiCad,Pcbnew,(6.0.1)*%
%TF.CreationDate,2022-02-08T19:18:55-05:00*%
%TF.ProjectId,GanJing 65 rev 2 hotswap,47616e4a-696e-4672-9036-352072657620,2*%
%TF.SameCoordinates,Original*%
%TF.FileFunction,Soldermask,Top*%
%TF.FilePolarity,Negative*%
%FSLAX46Y46*%
G04 Gerber Fmt 4.6, Leading zero omitted, Abs format (unit mm)*
G04 Created by KiCad (PCBNEW (6.0.1)) date 2022-02-08 19:18:55*
%MOMM*%
%LPD*%
G01*
G04 APERTURE LIST*
%ADD10C,0.150000*%
%ADD11R,1.600000X1.600000*%
%ADD12O,1.600000X1.600000*%
%ADD13O,1.600000X2.000000*%
%ADD14C,3.000000*%
%ADD15C,1.750000*%
%ADD16C,3.987800*%
%ADD17C,3.050000*%
%ADD18C,4.000000*%
%ADD19R,1.752600X1.752600*%
%ADD20C,1.752600*%
%ADD21R,2.000000X3.200000*%
%ADD22R,2.000000X2.000000*%
%ADD23C,2.000000*%
%ADD24C,3.048000*%
G04 APERTURE END LIST*
D10*
X353235714Y-188571130D02*
X353235714Y-187571130D01*
X353473809Y-187571130D01*
X353616666Y-187618750D01*
X353711904Y-187713988D01*
X353759523Y-187809226D01*
X353807142Y-187999702D01*
X353807142Y-188142559D01*
X353759523Y-188333035D01*
X353711904Y-188428273D01*
X353616666Y-188523511D01*
X353473809Y-188571130D01*
X353235714Y-188571130D01*
X354616666Y-188523511D02*
X354521428Y-188571130D01*
X354330952Y-188571130D01*
X354235714Y-188523511D01*
X354188095Y-188428273D01*
X354188095Y-188047321D01*
X354235714Y-187952083D01*
X354330952Y-187904464D01*
X354521428Y-187904464D01*
X354616666Y-187952083D01*
X354664285Y-188047321D01*
X354664285Y-188142559D01*
X354188095Y-188237797D01*
X355045238Y-188523511D02*
X355140476Y-188571130D01*
X355330952Y-188571130D01*
X355426190Y-188523511D01*
X355473809Y-188428273D01*
X355473809Y-188380654D01*
X355426190Y-188285416D01*
X355330952Y-188237797D01*
X355188095Y-188237797D01*
X355092857Y-188190178D01*
X355045238Y-188094940D01*
X355045238Y-188047321D01*
X355092857Y-187952083D01*
X355188095Y-187904464D01*
X355330952Y-187904464D01*
X355426190Y-187952083D01*
X355902380Y-188571130D02*
X355902380Y-187904464D01*
X355902380Y-187571130D02*
X355854761Y-187618750D01*
X355902380Y-187666369D01*
X355950000Y-187618750D01*
X355902380Y-187571130D01*
X355902380Y-187666369D01*
X356807142Y-187904464D02*
X356807142Y-188713988D01*
X356759523Y-188809226D01*
X356711904Y-188856845D01*
X356616666Y-188904464D01*
X356473809Y-188904464D01*
X356378571Y-188856845D01*
X356807142Y-188523511D02*
X356711904Y-188571130D01*
X356521428Y-188571130D01*
X356426190Y-188523511D01*
X356378571Y-188475892D01*
X356330952Y-188380654D01*
X356330952Y-188094940D01*
X356378571Y-187999702D01*
X356426190Y-187952083D01*
X356521428Y-187904464D01*
X356711904Y-187904464D01*
X356807142Y-187952083D01*
X357283333Y-187904464D02*
X357283333Y-188571130D01*
X357283333Y-187999702D02*
X357330952Y-187952083D01*
X357426190Y-187904464D01*
X357569047Y-187904464D01*
X357664285Y-187952083D01*
X357711904Y-188047321D01*
X357711904Y-188571130D01*
X358569047Y-188523511D02*
X358473809Y-188571130D01*
X358283333Y-188571130D01*
X358188095Y-188523511D01*
X358140476Y-188428273D01*
X358140476Y-188047321D01*
X358188095Y-187952083D01*
X358283333Y-187904464D01*
X358473809Y-187904464D01*
X358569047Y-187952083D01*
X358616666Y-188047321D01*
X358616666Y-188142559D01*
X358140476Y-188237797D01*
X359473809Y-188571130D02*
X359473809Y-187571130D01*
X359473809Y-188523511D02*
X359378571Y-188571130D01*
X359188095Y-188571130D01*
X359092857Y-188523511D01*
X359045238Y-188475892D01*
X358997619Y-188380654D01*
X358997619Y-188094940D01*
X359045238Y-187999702D01*
X359092857Y-187952083D01*
X359188095Y-187904464D01*
X359378571Y-187904464D01*
X359473809Y-187952083D01*
X360711904Y-188571130D02*
X360711904Y-187571130D01*
X360711904Y-187952083D02*
X360807142Y-187904464D01*
X360997619Y-187904464D01*
X361092857Y-187952083D01*
X361140476Y-187999702D01*
X361188095Y-188094940D01*
X361188095Y-188380654D01*
X361140476Y-188475892D01*
X361092857Y-188523511D01*
X360997619Y-188571130D01*
X360807142Y-188571130D01*
X360711904Y-188523511D01*
X361521428Y-187904464D02*
X361759523Y-188571130D01*
X361997619Y-187904464D02*
X361759523Y-188571130D01*
X361664285Y-188809226D01*
X361616666Y-188856845D01*
X361521428Y-188904464D01*
X363140476Y-188571130D02*
X363140476Y-187571130D01*
X363473809Y-188285416D01*
X363807142Y-187571130D01*
X363807142Y-188571130D01*
X364283333Y-188571130D02*
X364283333Y-187904464D01*
X364283333Y-187571130D02*
X364235714Y-187618750D01*
X364283333Y-187666369D01*
X364330952Y-187618750D01*
X364283333Y-187571130D01*
X364283333Y-187666369D01*
X364759523Y-187904464D02*
X364759523Y-188571130D01*
X364759523Y-187999702D02*
X364807142Y-187952083D01*
X364902380Y-187904464D01*
X365045238Y-187904464D01*
X365140476Y-187952083D01*
X365188095Y-188047321D01*
X365188095Y-188571130D01*
X366092857Y-187904464D02*
X366092857Y-188713988D01*
X366045238Y-188809226D01*
X365997619Y-188856845D01*
X365902380Y-188904464D01*
X365759523Y-188904464D01*
X365664285Y-188856845D01*
X366092857Y-188523511D02*
X365997619Y-188571130D01*
X365807142Y-188571130D01*
X365711904Y-188523511D01*
X365664285Y-188475892D01*
X365616666Y-188380654D01*
X365616666Y-188094940D01*
X365664285Y-187999702D01*
X365711904Y-187952083D01*
X365807142Y-187904464D01*
X365997619Y-187904464D01*
X366092857Y-187952083D01*
X366473809Y-187904464D02*
X366997619Y-187904464D01*
X366473809Y-188571130D01*
X366997619Y-188571130D01*
X367759523Y-188523511D02*
X367664285Y-188571130D01*
X367473809Y-188571130D01*
X367378571Y-188523511D01*
X367330952Y-188428273D01*
X367330952Y-188047321D01*
X367378571Y-187952083D01*
X367473809Y-187904464D01*
X367664285Y-187904464D01*
X367759523Y-187952083D01*
X367807142Y-188047321D01*
X367807142Y-188142559D01*
X367330952Y-188237797D01*
X369283333Y-187571130D02*
X369283333Y-188285416D01*
X369235714Y-188428273D01*
X369140476Y-188523511D01*
X368997619Y-188571130D01*
X368902380Y-188571130D01*
X369759523Y-188571130D02*
X369759523Y-187904464D01*
X369759523Y-187571130D02*
X369711904Y-187618750D01*
X369759523Y-187666369D01*
X369807142Y-187618750D01*
X369759523Y-187571130D01*
X369759523Y-187666369D01*
X370235714Y-187904464D02*
X370235714Y-188571130D01*
X370235714Y-187999702D02*
X370283333Y-187952083D01*
X370378571Y-187904464D01*
X370521428Y-187904464D01*
X370616666Y-187952083D01*
X370664285Y-188047321D01*
X370664285Y-188571130D01*
X181903869Y-175664880D02*
X181713392Y-175664880D01*
X181618154Y-175712500D01*
X181570535Y-175760119D01*
X181475297Y-175902976D01*
X181427678Y-176093452D01*
X181427678Y-176474404D01*
X181475297Y-176569642D01*
X181522916Y-176617261D01*
X181618154Y-176664880D01*
X181808630Y-176664880D01*
X181903869Y-176617261D01*
X181951488Y-176569642D01*
X181999107Y-176474404D01*
X181999107Y-176236309D01*
X181951488Y-176141071D01*
X181903869Y-176093452D01*
X181808630Y-176045833D01*
X181618154Y-176045833D01*
X181522916Y-176093452D01*
X181475297Y-176141071D01*
X181427678Y-176236309D01*
X182427678Y-176569642D02*
X182475297Y-176617261D01*
X182427678Y-176664880D01*
X182380059Y-176617261D01*
X182427678Y-176569642D01*
X182427678Y-176664880D01*
X182856250Y-175760119D02*
X182903869Y-175712500D01*
X182999107Y-175664880D01*
X183237202Y-175664880D01*
X183332440Y-175712500D01*
X183380059Y-175760119D01*
X183427678Y-175855357D01*
X183427678Y-175950595D01*
X183380059Y-176093452D01*
X182808630Y-176664880D01*
X183427678Y-176664880D01*
X184332440Y-175664880D02*
X183856250Y-175664880D01*
X183808630Y-176141071D01*
X183856250Y-176093452D01*
X183951488Y-176045833D01*
X184189583Y-176045833D01*
X184284821Y-176093452D01*
X184332440Y-176141071D01*
X184380059Y-176236309D01*
X184380059Y-176474404D01*
X184332440Y-176569642D01*
X184284821Y-176617261D01*
X184189583Y-176664880D01*
X183951488Y-176664880D01*
X183856250Y-176617261D01*
X183808630Y-176569642D01*
X185237202Y-175998214D02*
X185237202Y-176664880D01*
X184808630Y-175998214D02*
X184808630Y-176522023D01*
X184856250Y-176617261D01*
X184951488Y-176664880D01*
X185094345Y-176664880D01*
X185189583Y-176617261D01*
X185237202Y-176569642D01*
X172474107Y-186189880D02*
X171902678Y-186189880D01*
X172188392Y-186189880D02*
X172188392Y-185189880D01*
X172093154Y-185332738D01*
X171997916Y-185427976D01*
X171902678Y-185475595D01*
X172902678Y-186094642D02*
X172950297Y-186142261D01*
X172902678Y-186189880D01*
X172855059Y-186142261D01*
X172902678Y-186094642D01*
X172902678Y-186189880D01*
X173331250Y-185285119D02*
X173378869Y-185237500D01*
X173474107Y-185189880D01*
X173712202Y-185189880D01*
X173807440Y-185237500D01*
X173855059Y-185285119D01*
X173902678Y-185380357D01*
X173902678Y-185475595D01*
X173855059Y-185618452D01*
X173283630Y-186189880D01*
X173902678Y-186189880D01*
X174807440Y-185189880D02*
X174331250Y-185189880D01*
X174283630Y-185666071D01*
X174331250Y-185618452D01*
X174426488Y-185570833D01*
X174664583Y-185570833D01*
X174759821Y-185618452D01*
X174807440Y-185666071D01*
X174855059Y-185761309D01*
X174855059Y-185999404D01*
X174807440Y-186094642D01*
X174759821Y-186142261D01*
X174664583Y-186189880D01*
X174426488Y-186189880D01*
X174331250Y-186142261D01*
X174283630Y-186094642D01*
X175712202Y-185523214D02*
X175712202Y-186189880D01*
X175283630Y-185523214D02*
X175283630Y-186047023D01*
X175331250Y-186142261D01*
X175426488Y-186189880D01*
X175569345Y-186189880D01*
X175664583Y-186142261D01*
X175712202Y-186094642D01*
%TO.C,MX75*%
X320540476Y-143327380D02*
X320540476Y-142327380D01*
X320969047Y-143279761D02*
X321111904Y-143327380D01*
X321350000Y-143327380D01*
X321445238Y-143279761D01*
X321492857Y-143232142D01*
X321540476Y-143136904D01*
X321540476Y-143041666D01*
X321492857Y-142946428D01*
X321445238Y-142898809D01*
X321350000Y-142851190D01*
X321159523Y-142803571D01*
X321064285Y-142755952D01*
X321016666Y-142708333D01*
X320969047Y-142613095D01*
X320969047Y-142517857D01*
X321016666Y-142422619D01*
X321064285Y-142375000D01*
X321159523Y-142327380D01*
X321397619Y-142327380D01*
X321540476Y-142375000D01*
X322159523Y-142327380D02*
X322350000Y-142327380D01*
X322445238Y-142375000D01*
X322540476Y-142470238D01*
X322588095Y-142660714D01*
X322588095Y-142994047D01*
X322540476Y-143184523D01*
X322445238Y-143279761D01*
X322350000Y-143327380D01*
X322159523Y-143327380D01*
X322064285Y-143279761D01*
X321969047Y-143184523D01*
X321921428Y-142994047D01*
X321921428Y-142660714D01*
X321969047Y-142470238D01*
X322064285Y-142375000D01*
X322159523Y-142327380D01*
X323778571Y-142803571D02*
X324111904Y-142803571D01*
X324254761Y-143327380D02*
X323778571Y-143327380D01*
X323778571Y-142327380D01*
X324254761Y-142327380D01*
X324683333Y-142660714D02*
X324683333Y-143327380D01*
X324683333Y-142755952D02*
X324730952Y-142708333D01*
X324826190Y-142660714D01*
X324969047Y-142660714D01*
X325064285Y-142708333D01*
X325111904Y-142803571D01*
X325111904Y-143327380D01*
X325445238Y-142660714D02*
X325826190Y-142660714D01*
X325588095Y-142327380D02*
X325588095Y-143184523D01*
X325635714Y-143279761D01*
X325730952Y-143327380D01*
X325826190Y-143327380D01*
X326540476Y-143279761D02*
X326445238Y-143327380D01*
X326254761Y-143327380D01*
X326159523Y-143279761D01*
X326111904Y-143184523D01*
X326111904Y-142803571D01*
X326159523Y-142708333D01*
X326254761Y-142660714D01*
X326445238Y-142660714D01*
X326540476Y-142708333D01*
X326588095Y-142803571D01*
X326588095Y-142898809D01*
X326111904Y-142994047D01*
X327016666Y-143327380D02*
X327016666Y-142660714D01*
X327016666Y-142851190D02*
X327064285Y-142755952D01*
X327111904Y-142708333D01*
X327207142Y-142660714D01*
X327302380Y-142660714D01*
%TO.C,MX74*%
X59126785Y-138517261D02*
X59269642Y-138564880D01*
X59507738Y-138564880D01*
X59602976Y-138517261D01*
X59650595Y-138469642D01*
X59698214Y-138374404D01*
X59698214Y-138279166D01*
X59650595Y-138183928D01*
X59602976Y-138136309D01*
X59507738Y-138088690D01*
X59317261Y-138041071D01*
X59222023Y-137993452D01*
X59174404Y-137945833D01*
X59126785Y-137850595D01*
X59126785Y-137755357D01*
X59174404Y-137660119D01*
X59222023Y-137612500D01*
X59317261Y-137564880D01*
X59555357Y-137564880D01*
X59698214Y-137612500D01*
X59983928Y-137898214D02*
X60364880Y-137898214D01*
X60126785Y-137564880D02*
X60126785Y-138422023D01*
X60174404Y-138517261D01*
X60269642Y-138564880D01*
X60364880Y-138564880D01*
X61079166Y-138517261D02*
X60983928Y-138564880D01*
X60793452Y-138564880D01*
X60698214Y-138517261D01*
X60650595Y-138422023D01*
X60650595Y-138041071D01*
X60698214Y-137945833D01*
X60793452Y-137898214D01*
X60983928Y-137898214D01*
X61079166Y-137945833D01*
X61126785Y-138041071D01*
X61126785Y-138136309D01*
X60650595Y-138231547D01*
X61555357Y-137898214D02*
X61555357Y-138898214D01*
X61555357Y-137945833D02*
X61650595Y-137898214D01*
X61841071Y-137898214D01*
X61936309Y-137945833D01*
X61983928Y-137993452D01*
X62031547Y-138088690D01*
X62031547Y-138374404D01*
X61983928Y-138469642D01*
X61936309Y-138517261D01*
X61841071Y-138564880D01*
X61650595Y-138564880D01*
X61555357Y-138517261D01*
X62460119Y-137898214D02*
X62460119Y-138898214D01*
X62460119Y-137945833D02*
X62555357Y-137898214D01*
X62745833Y-137898214D01*
X62841071Y-137945833D01*
X62888690Y-137993452D01*
X62936309Y-138088690D01*
X62936309Y-138374404D01*
X62888690Y-138469642D01*
X62841071Y-138517261D01*
X62745833Y-138564880D01*
X62555357Y-138564880D01*
X62460119Y-138517261D01*
X63745833Y-138517261D02*
X63650595Y-138564880D01*
X63460119Y-138564880D01*
X63364880Y-138517261D01*
X63317261Y-138422023D01*
X63317261Y-138041071D01*
X63364880Y-137945833D01*
X63460119Y-137898214D01*
X63650595Y-137898214D01*
X63745833Y-137945833D01*
X63793452Y-138041071D01*
X63793452Y-138136309D01*
X63317261Y-138231547D01*
X64650595Y-138564880D02*
X64650595Y-137564880D01*
X64650595Y-138517261D02*
X64555357Y-138564880D01*
X64364880Y-138564880D01*
X64269642Y-138517261D01*
X64222023Y-138469642D01*
X64174404Y-138374404D01*
X64174404Y-138088690D01*
X64222023Y-137993452D01*
X64269642Y-137945833D01*
X64364880Y-137898214D01*
X64555357Y-137898214D01*
X64650595Y-137945833D01*
%TO.C,MX78*%
X140946428Y-185285119D02*
X140994047Y-185237500D01*
X141089285Y-185189880D01*
X141327380Y-185189880D01*
X141422619Y-185237500D01*
X141470238Y-185285119D01*
X141517857Y-185380357D01*
X141517857Y-185475595D01*
X141470238Y-185618452D01*
X140898809Y-186189880D01*
X141517857Y-186189880D01*
X141946428Y-186094642D02*
X141994047Y-186142261D01*
X141946428Y-186189880D01*
X141898809Y-186142261D01*
X141946428Y-186094642D01*
X141946428Y-186189880D01*
X142375000Y-185285119D02*
X142422619Y-185237500D01*
X142517857Y-185189880D01*
X142755952Y-185189880D01*
X142851190Y-185237500D01*
X142898809Y-185285119D01*
X142946428Y-185380357D01*
X142946428Y-185475595D01*
X142898809Y-185618452D01*
X142327380Y-186189880D01*
X142946428Y-186189880D01*
X143851190Y-185189880D02*
X143375000Y-185189880D01*
X143327380Y-185666071D01*
X143375000Y-185618452D01*
X143470238Y-185570833D01*
X143708333Y-185570833D01*
X143803571Y-185618452D01*
X143851190Y-185666071D01*
X143898809Y-185761309D01*
X143898809Y-185999404D01*
X143851190Y-186094642D01*
X143803571Y-186142261D01*
X143708333Y-186189880D01*
X143470238Y-186189880D01*
X143375000Y-186142261D01*
X143327380Y-186094642D01*
X144755952Y-185523214D02*
X144755952Y-186189880D01*
X144327380Y-185523214D02*
X144327380Y-186047023D01*
X144375000Y-186142261D01*
X144470238Y-186189880D01*
X144613095Y-186189880D01*
X144708333Y-186142261D01*
X144755952Y-186094642D01*
%TO.C,MX80*%
X212383928Y-185285119D02*
X212431547Y-185237500D01*
X212526785Y-185189880D01*
X212764880Y-185189880D01*
X212860119Y-185237500D01*
X212907738Y-185285119D01*
X212955357Y-185380357D01*
X212955357Y-185475595D01*
X212907738Y-185618452D01*
X212336309Y-186189880D01*
X212955357Y-186189880D01*
X213383928Y-186094642D02*
X213431547Y-186142261D01*
X213383928Y-186189880D01*
X213336309Y-186142261D01*
X213383928Y-186094642D01*
X213383928Y-186189880D01*
X213764880Y-185189880D02*
X214431547Y-185189880D01*
X214002976Y-186189880D01*
X215288690Y-185189880D02*
X214812500Y-185189880D01*
X214764880Y-185666071D01*
X214812500Y-185618452D01*
X214907738Y-185570833D01*
X215145833Y-185570833D01*
X215241071Y-185618452D01*
X215288690Y-185666071D01*
X215336309Y-185761309D01*
X215336309Y-185999404D01*
X215288690Y-186094642D01*
X215241071Y-186142261D01*
X215145833Y-186189880D01*
X214907738Y-186189880D01*
X214812500Y-186142261D01*
X214764880Y-186094642D01*
X216193452Y-185523214D02*
X216193452Y-186189880D01*
X215764880Y-185523214D02*
X215764880Y-186047023D01*
X215812500Y-186142261D01*
X215907738Y-186189880D01*
X216050595Y-186189880D01*
X216145833Y-186142261D01*
X216193452Y-186094642D01*
%TD*%
D11*
%TO.C,D1*%
X69056250Y-99853750D03*
D12*
X69056250Y-104933750D03*
%TD*%
D11*
%TO.C,D2*%
X88106250Y-99853750D03*
D12*
X88106250Y-104933750D03*
%TD*%
D11*
%TO.C,D3*%
X107156250Y-99853750D03*
D12*
X107156250Y-104933750D03*
%TD*%
D11*
%TO.C,D4*%
X126206250Y-99853750D03*
D12*
X126206250Y-104933750D03*
%TD*%
D11*
%TO.C,D5*%
X145256250Y-99853750D03*
D12*
X145256250Y-104933750D03*
%TD*%
D11*
%TO.C,D6*%
X164306250Y-99853750D03*
D12*
X164306250Y-104933750D03*
%TD*%
D11*
%TO.C,D7*%
X183356250Y-99853750D03*
D12*
X183356250Y-104933750D03*
%TD*%
D11*
%TO.C,D8*%
X202406250Y-99853750D03*
D12*
X202406250Y-104933750D03*
%TD*%
D11*
%TO.C,D9*%
X221456250Y-99853750D03*
D12*
X221456250Y-104933750D03*
%TD*%
D11*
%TO.C,D10*%
X240506250Y-99853750D03*
D12*
X240506250Y-104933750D03*
%TD*%
D11*
%TO.C,D11*%
X259556250Y-99853750D03*
D12*
X259556250Y-104933750D03*
%TD*%
D11*
%TO.C,D12*%
X278606250Y-99853750D03*
D12*
X278606250Y-104933750D03*
%TD*%
D11*
%TO.C,D13*%
X297656250Y-99853750D03*
D12*
X297656250Y-104933750D03*
%TD*%
D11*
%TO.C,D14*%
X333375000Y-99853750D03*
D12*
X333375000Y-104933750D03*
%TD*%
D11*
%TO.C,D15*%
X52387500Y-116522500D03*
D12*
X52387500Y-121602500D03*
%TD*%
D11*
%TO.C,D16*%
X78581250Y-116522500D03*
D12*
X78581250Y-121602500D03*
%TD*%
D11*
%TO.C,D17*%
X97631250Y-116522500D03*
D12*
X97631250Y-121602500D03*
%TD*%
D11*
%TO.C,D18*%
X116681250Y-116522500D03*
D12*
X116681250Y-121602500D03*
%TD*%
D11*
%TO.C,D19*%
X135731250Y-116522500D03*
D12*
X135731250Y-121602500D03*
%TD*%
D11*
%TO.C,D20*%
X154781250Y-116522500D03*
D12*
X154781250Y-121602500D03*
%TD*%
D11*
%TO.C,D21*%
X173831250Y-116522500D03*
D12*
X173831250Y-121602500D03*
%TD*%
D11*
%TO.C,D22*%
X192881250Y-116522500D03*
D12*
X192881250Y-121602500D03*
%TD*%
D11*
%TO.C,D23*%
X211931250Y-116522500D03*
D12*
X211931250Y-121602500D03*
%TD*%
D11*
%TO.C,D24*%
X230981250Y-116522500D03*
D12*
X230981250Y-121602500D03*
%TD*%
D11*
%TO.C,D25*%
X250031250Y-116522500D03*
D12*
X250031250Y-121602500D03*
%TD*%
D11*
%TO.C,D26*%
X269081250Y-116522500D03*
D12*
X269081250Y-121602500D03*
%TD*%
D11*
%TO.C,D27*%
X288131250Y-116522500D03*
D12*
X288131250Y-121602500D03*
%TD*%
D11*
%TO.C,D28*%
X309562500Y-116522500D03*
D12*
X309562500Y-121602500D03*
%TD*%
D11*
%TO.C,D29*%
X335756250Y-137953750D03*
D12*
X335756250Y-143033750D03*
%TD*%
D11*
%TO.C,D30*%
X52387500Y-135572500D03*
D12*
X52387500Y-140652500D03*
%TD*%
D11*
%TO.C,D31*%
X83343750Y-135572500D03*
D12*
X83343750Y-140652500D03*
%TD*%
D11*
%TO.C,D32*%
X102393750Y-135572500D03*
D12*
X102393750Y-140652500D03*
%TD*%
D11*
%TO.C,D33*%
X121443750Y-135572500D03*
D12*
X121443750Y-140652500D03*
%TD*%
D11*
%TO.C,D34*%
X140493750Y-135572500D03*
D12*
X140493750Y-140652500D03*
%TD*%
D11*
%TO.C,D35*%
X159543750Y-135572500D03*
D12*
X159543750Y-140652500D03*
%TD*%
D11*
%TO.C,D36*%
X178593750Y-135572500D03*
D12*
X178593750Y-140652500D03*
%TD*%
D11*
%TO.C,D37*%
X197643750Y-135572500D03*
D12*
X197643750Y-140652500D03*
%TD*%
D11*
%TO.C,D38*%
X216693750Y-135572500D03*
D12*
X216693750Y-140652500D03*
%TD*%
D11*
%TO.C,D39*%
X235743750Y-135572500D03*
D12*
X235743750Y-140652500D03*
%TD*%
D11*
%TO.C,D40*%
X254793750Y-135572500D03*
D12*
X254793750Y-140652500D03*
%TD*%
D11*
%TO.C,D41*%
X273843750Y-135572500D03*
D12*
X273843750Y-140652500D03*
%TD*%
D11*
%TO.C,D43*%
X292893750Y-135572500D03*
D12*
X292893750Y-140652500D03*
%TD*%
D11*
%TO.C,D44*%
X335756250Y-154622500D03*
D12*
X335756250Y-159702500D03*
%TD*%
D11*
%TO.C,D45*%
X52387500Y-154622500D03*
D12*
X52387500Y-159702500D03*
%TD*%
D11*
%TO.C,D47*%
X92868750Y-154622500D03*
D12*
X92868750Y-159702500D03*
%TD*%
D11*
%TO.C,D48*%
X111918750Y-154622500D03*
D12*
X111918750Y-159702500D03*
%TD*%
D11*
%TO.C,D49*%
X130968750Y-154622500D03*
D12*
X130968750Y-159702500D03*
%TD*%
D11*
%TO.C,D50*%
X150018750Y-154622500D03*
D12*
X150018750Y-159702500D03*
%TD*%
D11*
%TO.C,D51*%
X169068750Y-154622500D03*
D12*
X169068750Y-159702500D03*
%TD*%
D11*
%TO.C,D52*%
X188118750Y-154622500D03*
D12*
X188118750Y-159702500D03*
%TD*%
D11*
%TO.C,D53*%
X207168750Y-154622500D03*
D12*
X207168750Y-159702500D03*
%TD*%
D11*
%TO.C,D54*%
X226218750Y-154622500D03*
D12*
X226218750Y-159702500D03*
%TD*%
D11*
%TO.C,D56*%
X264318750Y-154622500D03*
D12*
X264318750Y-159702500D03*
%TD*%
D11*
%TO.C,D57*%
X283368750Y-154622500D03*
D12*
X283368750Y-159702500D03*
%TD*%
D11*
%TO.C,D59*%
X354806250Y-154622500D03*
D12*
X354806250Y-159702500D03*
%TD*%
D11*
%TO.C,D60*%
X52387500Y-173672500D03*
D12*
X52387500Y-178752500D03*
%TD*%
D11*
%TO.C,D61*%
X76200000Y-173672500D03*
D12*
X76200000Y-178752500D03*
%TD*%
D11*
%TO.C,D62*%
X97631250Y-173672500D03*
D12*
X97631250Y-178752500D03*
%TD*%
D11*
%TO.C,D63*%
X164306250Y-173672500D03*
D12*
X164306250Y-178752500D03*
%TD*%
D11*
%TO.C,D64*%
X240506250Y-173672500D03*
D12*
X240506250Y-178752500D03*
%TD*%
D11*
%TO.C,D65*%
X259556250Y-173672500D03*
D12*
X259556250Y-178752500D03*
%TD*%
D11*
%TO.C,D66*%
X278606250Y-173672500D03*
D12*
X278606250Y-178752500D03*
%TD*%
D11*
%TO.C,D67*%
X297656250Y-176053750D03*
D12*
X297656250Y-181133750D03*
%TD*%
D11*
%TO.C,D68*%
X316706250Y-173672500D03*
D12*
X316706250Y-178752500D03*
%TD*%
D11*
%TO.C,D70*%
X354806250Y-173672500D03*
D12*
X354806250Y-178752500D03*
%TD*%
D11*
%TO.C,D74*%
X354806250Y-137953750D03*
D12*
X354806250Y-143033750D03*
%TD*%
D13*
%TO.C,DS1*%
X358616250Y-131250000D03*
X356076250Y-131250000D03*
X353536250Y-131250000D03*
X350996250Y-131250000D03*
%TD*%
D14*
%TO.C,MX1*%
X62071250Y-99695000D03*
X55721250Y-102235000D03*
D15*
X64611250Y-104775000D03*
D16*
X59531250Y-104775000D03*
D15*
X54451250Y-104775000D03*
%TD*%
%TO.C,MX2*%
X73501250Y-104775000D03*
X83661250Y-104775000D03*
D14*
X81121250Y-99695000D03*
D16*
X78581250Y-104775000D03*
D14*
X74771250Y-102235000D03*
%TD*%
D15*
%TO.C,MX3*%
X102711250Y-104775000D03*
X92551250Y-104775000D03*
D14*
X93821250Y-102235000D03*
X100171250Y-99695000D03*
D16*
X97631250Y-104775000D03*
%TD*%
D15*
%TO.C,MX4*%
X121761250Y-104775000D03*
D16*
X116681250Y-104775000D03*
D14*
X112871250Y-102235000D03*
X119221250Y-99695000D03*
D15*
X111601250Y-104775000D03*
%TD*%
%TO.C,MX5*%
X140811250Y-104775000D03*
D16*
X135731250Y-104775000D03*
D15*
X130651250Y-104775000D03*
D14*
X138271250Y-99695000D03*
X131921250Y-102235000D03*
%TD*%
%TO.C,MX6*%
X157321250Y-99695000D03*
D15*
X159861250Y-104775000D03*
D16*
X154781250Y-104775000D03*
D15*
X149701250Y-104775000D03*
D14*
X150971250Y-102235000D03*
%TD*%
%TO.C,MX7*%
X176371250Y-99695000D03*
X170021250Y-102235000D03*
D15*
X168751250Y-104775000D03*
X178911250Y-104775000D03*
D16*
X173831250Y-104775000D03*
%TD*%
%TO.C,MX8*%
X192881250Y-104775000D03*
D15*
X187801250Y-104775000D03*
X197961250Y-104775000D03*
D14*
X195421250Y-99695000D03*
X189071250Y-102235000D03*
%TD*%
D15*
%TO.C,MX9*%
X217011250Y-104775000D03*
D14*
X214471250Y-99695000D03*
X208121250Y-102235000D03*
D16*
X211931250Y-104775000D03*
D15*
X206851250Y-104775000D03*
%TD*%
%TO.C,MX10*%
X225901250Y-104775000D03*
X236061250Y-104775000D03*
D14*
X233521250Y-99695000D03*
D16*
X230981250Y-104775000D03*
D14*
X227171250Y-102235000D03*
%TD*%
D15*
%TO.C,MX11*%
X244951250Y-104775000D03*
D16*
X250031250Y-104775000D03*
D14*
X246221250Y-102235000D03*
D15*
X255111250Y-104775000D03*
D14*
X252571250Y-99695000D03*
%TD*%
D16*
%TO.C,MX12*%
X269081250Y-104775000D03*
D15*
X274161250Y-104775000D03*
X264001250Y-104775000D03*
D14*
X265271250Y-102235000D03*
X271621250Y-99695000D03*
%TD*%
D15*
%TO.C,MX13*%
X283051250Y-104775000D03*
X293211250Y-104775000D03*
D14*
X284321250Y-102235000D03*
D16*
X288131250Y-104775000D03*
D14*
X290671250Y-99695000D03*
%TD*%
D17*
%TO.C,MX14*%
X328606250Y-97775000D03*
D15*
X311626250Y-104775000D03*
X321786250Y-104775000D03*
D14*
X312896250Y-102235000D03*
D17*
X304806250Y-97775000D03*
D16*
X316706250Y-104775000D03*
D18*
X328606250Y-113015000D03*
D14*
X319246250Y-99695000D03*
D18*
X304806250Y-113015000D03*
%TD*%
D15*
%TO.C,MX15*%
X69373750Y-123825000D03*
D16*
X64293750Y-123825000D03*
D14*
X66833750Y-118745000D03*
D15*
X59213750Y-123825000D03*
D14*
X60483750Y-121285000D03*
%TD*%
D15*
%TO.C,MX16*%
X93186250Y-123825000D03*
D14*
X84296250Y-121285000D03*
D16*
X88106250Y-123825000D03*
D14*
X90646250Y-118745000D03*
D15*
X83026250Y-123825000D03*
%TD*%
D14*
%TO.C,MX17*%
X109696250Y-118745000D03*
X103346250Y-121285000D03*
D15*
X102076250Y-123825000D03*
D16*
X107156250Y-123825000D03*
D15*
X112236250Y-123825000D03*
%TD*%
%TO.C,MX18*%
X131286250Y-123825000D03*
D14*
X122396250Y-121285000D03*
X128746250Y-118745000D03*
D15*
X121126250Y-123825000D03*
D16*
X126206250Y-123825000D03*
%TD*%
D15*
%TO.C,MX19*%
X140176250Y-123825000D03*
D16*
X145256250Y-123825000D03*
D14*
X147796250Y-118745000D03*
X141446250Y-121285000D03*
D15*
X150336250Y-123825000D03*
%TD*%
D14*
%TO.C,MX20*%
X160496250Y-121285000D03*
D16*
X164306250Y-123825000D03*
D14*
X166846250Y-118745000D03*
D15*
X159226250Y-123825000D03*
X169386250Y-123825000D03*
%TD*%
%TO.C,MX21*%
X178276250Y-123825000D03*
X188436250Y-123825000D03*
D16*
X183356250Y-123825000D03*
D14*
X185896250Y-118745000D03*
X179546250Y-121285000D03*
%TD*%
D16*
%TO.C,MX22*%
X202406250Y-123825000D03*
D14*
X198596250Y-121285000D03*
D15*
X197326250Y-123825000D03*
D14*
X204946250Y-118745000D03*
D15*
X207486250Y-123825000D03*
%TD*%
D14*
%TO.C,MX23*%
X223996250Y-118745000D03*
D15*
X216376250Y-123825000D03*
D14*
X217646250Y-121285000D03*
D16*
X221456250Y-123825000D03*
D15*
X226536250Y-123825000D03*
%TD*%
%TO.C,MX24*%
X245586250Y-123825000D03*
D14*
X236696250Y-121285000D03*
D15*
X235426250Y-123825000D03*
D16*
X240506250Y-123825000D03*
D14*
X243046250Y-118745000D03*
%TD*%
D15*
%TO.C,MX25*%
X254476250Y-123825000D03*
D14*
X255746250Y-121285000D03*
D15*
X264636250Y-123825000D03*
D14*
X262096250Y-118745000D03*
D16*
X259556250Y-123825000D03*
%TD*%
D14*
%TO.C,MX26*%
X281146250Y-118745000D03*
X274796250Y-121285000D03*
D15*
X273526250Y-123825000D03*
X283686250Y-123825000D03*
D16*
X278606250Y-123825000D03*
%TD*%
D14*
%TO.C,MX27*%
X293846250Y-121285000D03*
X300196250Y-118745000D03*
D16*
X297656250Y-123825000D03*
D15*
X302736250Y-123825000D03*
X292576250Y-123825000D03*
%TD*%
%TO.C,MX28*%
X321468750Y-128905000D03*
X321468750Y-118745000D03*
D14*
X326548750Y-126365000D03*
X324008750Y-120015000D03*
D16*
X321468750Y-123825000D03*
%TD*%
D15*
%TO.C,MX29*%
X350361250Y-142875000D03*
X340201250Y-142875000D03*
D14*
X341471250Y-140335000D03*
D16*
X345281250Y-142875000D03*
D14*
X347821250Y-137795000D03*
%TD*%
D15*
%TO.C,MX30*%
X71755000Y-142875000D03*
D16*
X66675000Y-142875000D03*
D14*
X64135000Y-147955000D03*
X70485000Y-145415000D03*
D15*
X61595000Y-142875000D03*
%TD*%
D14*
%TO.C,MX31*%
X95408750Y-137795000D03*
D15*
X97948750Y-142875000D03*
X87788750Y-142875000D03*
D16*
X92868750Y-142875000D03*
D14*
X89058750Y-140335000D03*
%TD*%
%TO.C,MX32*%
X108108750Y-140335000D03*
D15*
X106838750Y-142875000D03*
D14*
X114458750Y-137795000D03*
D15*
X116998750Y-142875000D03*
D16*
X111918750Y-142875000D03*
%TD*%
D14*
%TO.C,MX33*%
X133508750Y-137795000D03*
D15*
X125888750Y-142875000D03*
D16*
X130968750Y-142875000D03*
D14*
X127158750Y-140335000D03*
D15*
X136048750Y-142875000D03*
%TD*%
D14*
%TO.C,MX34*%
X146208750Y-140335000D03*
D15*
X144938750Y-142875000D03*
X155098750Y-142875000D03*
D14*
X152558750Y-137795000D03*
D16*
X150018750Y-142875000D03*
%TD*%
D15*
%TO.C,MX35*%
X174148750Y-142875000D03*
D16*
X169068750Y-142875000D03*
D14*
X171608750Y-137795000D03*
D15*
X163988750Y-142875000D03*
D14*
X165258750Y-140335000D03*
%TD*%
%TO.C,MX36*%
X190658750Y-137795000D03*
D16*
X188118750Y-142875000D03*
D14*
X184308750Y-140335000D03*
D15*
X193198750Y-142875000D03*
X183038750Y-142875000D03*
%TD*%
%TO.C,MX37*%
X212248750Y-142875000D03*
X202088750Y-142875000D03*
D16*
X207168750Y-142875000D03*
D14*
X209708750Y-137795000D03*
X203358750Y-140335000D03*
%TD*%
D16*
%TO.C,MX38*%
X226218750Y-142875000D03*
D15*
X221138750Y-142875000D03*
D14*
X228758750Y-137795000D03*
X222408750Y-140335000D03*
D15*
X231298750Y-142875000D03*
%TD*%
%TO.C,MX39*%
X250348750Y-142875000D03*
X240188750Y-142875000D03*
D14*
X247808750Y-137795000D03*
D16*
X245268750Y-142875000D03*
D14*
X241458750Y-140335000D03*
%TD*%
D15*
%TO.C,MX40*%
X259238750Y-142875000D03*
D14*
X260508750Y-140335000D03*
D16*
X264318750Y-142875000D03*
D15*
X269398750Y-142875000D03*
D14*
X266858750Y-137795000D03*
%TD*%
%TO.C,MX41*%
X285908750Y-137795000D03*
D16*
X283368750Y-142875000D03*
D15*
X278288750Y-142875000D03*
X288448750Y-142875000D03*
D14*
X279558750Y-140335000D03*
%TD*%
D17*
%TO.C,MX43*%
X302225000Y-150875002D03*
D14*
X309245000Y-140335000D03*
D18*
X302225000Y-135635002D03*
D15*
X314325000Y-137795000D03*
D14*
X311785000Y-146685000D03*
D15*
X314325000Y-147955000D03*
D16*
X314325000Y-142875000D03*
D17*
X326025000Y-150875002D03*
D18*
X326025000Y-135635002D03*
%TD*%
D16*
%TO.C,MX44*%
X345281250Y-161925000D03*
D15*
X340201250Y-161925000D03*
X350361250Y-161925000D03*
D14*
X347821250Y-156845000D03*
X341471250Y-159385000D03*
%TD*%
D18*
%TO.C,MX45*%
X59537500Y-170165000D03*
D15*
X66357500Y-161925000D03*
D17*
X59537500Y-154925000D03*
D15*
X76517500Y-161925000D03*
D17*
X83337500Y-154925000D03*
D14*
X67627500Y-159385000D03*
X73977500Y-156845000D03*
D16*
X71437500Y-161925000D03*
D18*
X83337500Y-170165000D03*
%TD*%
D15*
%TO.C,MX47*%
X107473750Y-161925000D03*
D14*
X98583750Y-159385000D03*
X104933750Y-156845000D03*
D16*
X102393750Y-161925000D03*
D15*
X97313750Y-161925000D03*
%TD*%
%TO.C,MX48*%
X126523750Y-161925000D03*
X116363750Y-161925000D03*
D14*
X123983750Y-156845000D03*
D16*
X121443750Y-161925000D03*
D14*
X117633750Y-159385000D03*
%TD*%
%TO.C,MX49*%
X136683750Y-159385000D03*
D15*
X135413750Y-161925000D03*
D14*
X143033750Y-156845000D03*
D16*
X140493750Y-161925000D03*
D15*
X145573750Y-161925000D03*
%TD*%
D14*
%TO.C,MX50*%
X162083750Y-156845000D03*
D15*
X164623750Y-161925000D03*
D14*
X155733750Y-159385000D03*
D15*
X154463750Y-161925000D03*
D16*
X159543750Y-161925000D03*
%TD*%
D15*
%TO.C,MX51*%
X183673750Y-161925000D03*
D14*
X181133750Y-156845000D03*
X174783750Y-159385000D03*
D15*
X173513750Y-161925000D03*
D16*
X178593750Y-161925000D03*
%TD*%
D14*
%TO.C,MX52*%
X193833750Y-159385000D03*
D15*
X202723750Y-161925000D03*
X192563750Y-161925000D03*
D16*
X197643750Y-161925000D03*
D14*
X200183750Y-156845000D03*
%TD*%
D15*
%TO.C,MX53*%
X211613750Y-161925000D03*
D14*
X212883750Y-159385000D03*
D15*
X221773750Y-161925000D03*
D14*
X219233750Y-156845000D03*
D16*
X216693750Y-161925000D03*
%TD*%
D15*
%TO.C,MX54*%
X230663750Y-161925000D03*
D14*
X231933750Y-159385000D03*
D15*
X240823750Y-161925000D03*
D14*
X238283750Y-156845000D03*
D16*
X235743750Y-161925000D03*
%TD*%
D15*
%TO.C,MX55*%
X249713750Y-161925000D03*
D14*
X250983750Y-159385000D03*
X257333750Y-156845000D03*
D16*
X254793750Y-161925000D03*
D15*
X259873750Y-161925000D03*
%TD*%
%TO.C,MX56*%
X278923750Y-161925000D03*
D14*
X270033750Y-159385000D03*
X276383750Y-156845000D03*
D15*
X268763750Y-161925000D03*
D16*
X273843750Y-161925000D03*
%TD*%
D15*
%TO.C,MX57*%
X304482500Y-161925000D03*
D14*
X305752500Y-159385000D03*
D16*
X309562500Y-161925000D03*
D14*
X312102500Y-156845000D03*
D17*
X297662500Y-154925000D03*
D15*
X314642500Y-161925000D03*
D18*
X321462500Y-170165000D03*
X297662500Y-170165000D03*
D17*
X321462500Y-154925000D03*
%TD*%
D15*
%TO.C,MX59*%
X359251250Y-161925000D03*
D14*
X366871250Y-156845000D03*
D16*
X364331250Y-161925000D03*
D15*
X369411250Y-161925000D03*
D14*
X360521250Y-159385000D03*
%TD*%
D16*
%TO.C,MX60*%
X61912500Y-180975000D03*
D14*
X64452500Y-175895000D03*
D15*
X56832500Y-180975000D03*
D14*
X58102500Y-178435000D03*
D15*
X66992500Y-180975000D03*
%TD*%
D16*
%TO.C,MX61*%
X85725000Y-180975000D03*
D15*
X80645000Y-180975000D03*
D14*
X88265000Y-175895000D03*
D15*
X90805000Y-180975000D03*
D14*
X81915000Y-178435000D03*
%TD*%
%TO.C,MX62*%
X105727500Y-178435000D03*
X112077500Y-175895000D03*
D15*
X104457500Y-180975000D03*
D16*
X109537500Y-180975000D03*
D15*
X114617500Y-180975000D03*
%TD*%
%TO.C,MX64*%
X255111250Y-180975000D03*
D14*
X252571250Y-175895000D03*
X246221250Y-178435000D03*
D16*
X250031250Y-180975000D03*
D15*
X244951250Y-180975000D03*
%TD*%
D14*
%TO.C,MX65*%
X265271250Y-178435000D03*
X271621250Y-175895000D03*
D15*
X264001250Y-180975000D03*
D16*
X269081250Y-180975000D03*
D15*
X274161250Y-180975000D03*
%TD*%
D14*
%TO.C,MX66*%
X284321250Y-178435000D03*
X290671250Y-175895000D03*
D16*
X288131250Y-180975000D03*
D15*
X283051250Y-180975000D03*
X293211250Y-180975000D03*
%TD*%
D14*
%TO.C,MX67*%
X303371250Y-178435000D03*
D15*
X302101250Y-180975000D03*
X312261250Y-180975000D03*
D14*
X309721250Y-175895000D03*
D16*
X307181250Y-180975000D03*
%TD*%
D15*
%TO.C,MX68*%
X321151250Y-180975000D03*
D16*
X326231250Y-180975000D03*
D14*
X322421250Y-178435000D03*
X328771250Y-175895000D03*
D15*
X331311250Y-180975000D03*
%TD*%
D14*
%TO.C,MX69*%
X347821250Y-175895000D03*
X341471250Y-178435000D03*
D15*
X340201250Y-180975000D03*
X350361250Y-180975000D03*
D16*
X345281250Y-180975000D03*
%TD*%
D15*
%TO.C,MX70*%
X369411250Y-180975000D03*
D14*
X366871250Y-175895000D03*
X360521250Y-178435000D03*
D16*
X364331250Y-180975000D03*
D15*
X359251250Y-180975000D03*
%TD*%
D19*
%TO.C,U1*%
X347186250Y-99130000D03*
D20*
X347186250Y-101670000D03*
X347186250Y-104210000D03*
X347186250Y-106750000D03*
X347186250Y-109290000D03*
X347186250Y-111830000D03*
X347186250Y-114370000D03*
X347186250Y-116910000D03*
X347186250Y-119450000D03*
X347186250Y-121990000D03*
X347186250Y-124530000D03*
X347186250Y-127070000D03*
X362426250Y-127070000D03*
X362426250Y-124530000D03*
X362426250Y-121990000D03*
X362426250Y-119450000D03*
X362426250Y-116910000D03*
X362426250Y-114370000D03*
X362426250Y-111830000D03*
X362426250Y-109290000D03*
X362426250Y-106750000D03*
X362426250Y-104210000D03*
X362426250Y-101670000D03*
X362426250Y-99130000D03*
X349726250Y-127070000D03*
X352266250Y-127070000D03*
X354806250Y-127070000D03*
X357346250Y-127070000D03*
X359886250Y-127070000D03*
%TD*%
D11*
%TO.C,D55*%
X245268750Y-154622500D03*
D12*
X245268750Y-159702500D03*
%TD*%
D21*
%TO.C,SW1*%
X369931250Y-143875000D03*
X358731250Y-143875000D03*
D22*
X361831250Y-151375000D03*
D23*
X366831250Y-151375000D03*
X364331250Y-151375000D03*
X366831250Y-136875000D03*
X361831250Y-136875000D03*
%TD*%
D15*
%TO.C,MX63*%
X186055000Y-180975000D03*
X175895000Y-180975000D03*
D14*
X184785000Y-183515000D03*
D16*
X130975100Y-172720000D03*
X230974900Y-172720000D03*
D14*
X178435000Y-186055000D03*
D16*
X180975000Y-180975000D03*
D24*
X130975100Y-187960000D03*
X230974900Y-187960000D03*
%TD*%
D15*
%TO.C,MX79*%
X171132500Y-180975000D03*
D14*
X172402500Y-178435000D03*
D15*
X181292500Y-180975000D03*
D16*
X176212500Y-180975000D03*
D14*
X178752500Y-175895000D03*
%TD*%
D11*
%TO.C,D69*%
X335756250Y-173672500D03*
D12*
X335756250Y-178752500D03*
%TD*%
D11*
%TO.C,D42*%
X292893750Y-145097500D03*
D12*
X292893750Y-150177500D03*
%TD*%
D11*
%TO.C,D58*%
X335756250Y-164147500D03*
D12*
X335756250Y-169227500D03*
%TD*%
D14*
%TO.C,MX76*%
X65722500Y-164465000D03*
D15*
X56832500Y-161925000D03*
D14*
X59372500Y-167005000D03*
D15*
X66992500Y-161925000D03*
D16*
X61912500Y-161925000D03*
%TD*%
%TO.C,MX75*%
X323850000Y-133350000D03*
D24*
X330835000Y-145288000D03*
D14*
X318770000Y-130810000D03*
D15*
X323850000Y-138430000D03*
X323850000Y-128270000D03*
D16*
X315595000Y-121412000D03*
D24*
X330835000Y-121412000D03*
D14*
X321310000Y-137160000D03*
D16*
X315595000Y-145288000D03*
%TD*%
%TO.C,MX74*%
X61912500Y-142875000D03*
D14*
X64452500Y-137795000D03*
D15*
X56832500Y-142875000D03*
X66992500Y-142875000D03*
D14*
X58102500Y-140335000D03*
%TD*%
D15*
%TO.C,MX42*%
X302418750Y-147955000D03*
D16*
X302418750Y-142875000D03*
D15*
X302418750Y-137795000D03*
D14*
X299878750Y-146685000D03*
X297338750Y-140335000D03*
%TD*%
D17*
%TO.C,MX78*%
X154775000Y-187975000D03*
D14*
X145415000Y-175895000D03*
D15*
X147955000Y-180975000D03*
D18*
X154775000Y-172735000D03*
D17*
X130975000Y-187975000D03*
D16*
X142875000Y-180975000D03*
D15*
X137795000Y-180975000D03*
D14*
X139065000Y-178435000D03*
D18*
X130975000Y-172735000D03*
%TD*%
D14*
%TO.C,MX46*%
X80803750Y-167005000D03*
D16*
X83343750Y-161925000D03*
D14*
X87153750Y-164465000D03*
D15*
X88423750Y-161925000D03*
X78263750Y-161925000D03*
%TD*%
D16*
%TO.C,MX77*%
X300037500Y-161925000D03*
D14*
X303847500Y-164465000D03*
X297497500Y-167005000D03*
D15*
X294957500Y-161925000D03*
X305117500Y-161925000D03*
%TD*%
D11*
%TO.C,D46*%
X92868750Y-164147500D03*
D12*
X92868750Y-169227500D03*
%TD*%
D14*
%TO.C,MX80*%
X210502500Y-178435000D03*
D18*
X202412500Y-172735000D03*
D17*
X226212500Y-187975000D03*
D14*
X216852500Y-175895000D03*
D16*
X214312500Y-180975000D03*
D15*
X209232500Y-180975000D03*
D17*
X202412500Y-187975000D03*
D15*
X219392500Y-180975000D03*
D18*
X226212500Y-172735000D03*
%TD*%
D16*
%TO.C,MX58*%
X326231250Y-161925000D03*
D15*
X321151250Y-161925000D03*
D14*
X330041250Y-164465000D03*
X323691250Y-167005000D03*
D15*
X331311250Y-161925000D03*
%TD*%
M02*
