M48
; DRILL file {KiCad (6.0.1)} date Mon Apr 18 19:19:35 2022
; FORMAT={-:-/ absolute / inch / decimal}
; #@! TF.CreationDate,2022-04-18T19:19:35-04:00
; #@! TF.GenerationSoftware,Kicad,Pcbnew,(6.0.1)
; #@! TF.FileFunction,Plated,1,2,PTH
FMAT,2
INCH
; #@! TA.AperFunction,Plated,PTH,ViaDrill
T1C0.0157
; #@! TA.AperFunction,Plated,PTH,ComponentDrill
T2C0.0315
; #@! TA.AperFunction,Plated,PTH,ComponentDrill
T3C0.0394
%
G90
G05
T1
X2.3438Y-3.9375
X2.3438Y-4.5
X2.4375Y-7.3125
X2.4648Y-4.2327
X2.5312Y-5.1562
X2.8125Y-6.5625
X3.0938Y-3.9375
X3.1875Y-4.5
X3.2128Y-4.2638
X3.375Y-4.125
X3.4688Y-5.1562
X3.6562Y-5.8125
X3.8438Y-3.9375
X3.9375Y-4.5
X3.9648Y-4.2795
X4.125Y-4.125
X4.2188Y-5.1562
X4.3125Y-7.3125
X4.4062Y-5.8125
X4.5938Y-3.9375
X4.6875Y-4.5
X4.7128Y-4.2992
X4.7812Y-6.5625
X4.875Y-4.125
X4.9688Y-5.1562
X5.1562Y-5.8125
X5.3438Y-3.9375
X5.4375Y-4.5
X5.4375Y-7.3125
X5.4609Y-4.315
X5.5312Y-6.5625
X5.625Y-4.125
X5.7188Y-5.1562
X5.9062Y-5.8125
X6.0938Y-3.9375
X6.1875Y-4.5
X6.2265Y-4.3328
X6.2812Y-6.5625
X6.375Y-4.125
X6.4688Y-5.1562
X6.4688Y-7.3125
X6.6562Y-5.8125
X6.8438Y-3.9375
X6.9375Y-4.5
X6.9933Y-4.3495
X7.0312Y-6.5625
X7.125Y-4.125
X7.2188Y-5.1562
X7.4062Y-5.8125
X7.5Y-7.3125
X7.5938Y-3.9375
X7.6875Y-4.5
X7.762Y-4.3682
X7.7812Y-6.5625
X7.875Y-4.125
X7.9688Y-5.1562
X8.1562Y-5.8125
X8.3438Y-3.9375
X8.4375Y-4.5
X8.5287Y-4.3849
X8.5312Y-6.5625
X8.625Y-4.125
X8.625Y-7.3125
X8.7188Y-5.1562
X8.9062Y-5.8125
X9.0938Y-3.9375
X9.1875Y-4.5
X9.2812Y-6.5625
X9.2974Y-4.4036
X9.375Y-4.125
X9.4688Y-5.1562
X9.6562Y-5.8125
X9.8438Y-3.9375
X9.8438Y-7.3125
X9.9375Y-4.5
X10.0312Y-6.5625
X10.0641Y-4.4204
X10.125Y-4.125
X10.2188Y-5.1562
X10.4062Y-5.8125
X10.5938Y-3.9375
X10.5938Y-7.3125
X10.6875Y-4.5
X10.7812Y-6.5625
X10.8328Y-4.4391
X10.875Y-4.125
X10.9688Y-5.1562
X11.1562Y-5.8125
X11.3438Y-6.5625
X11.3438Y-7.3125
X11.4375Y-4.5
X11.6184Y-4.125
X11.6811Y-5.7126
X11.7188Y-5.1562
X11.9062Y-3.9764
X12.0938Y-7.3125
X12.1875Y-6.5625
X12.375Y-5.15
X12.4688Y-4.5
X12.7483Y-4.0748
X12.8438Y-7.3125
X12.9375Y-6.5625
X13.4062Y-5.1562
X13.5Y-5.8125
X13.5938Y-6.6562
X13.5938Y-7.3125
X13.7286Y-5.1562
X13.8703Y-4.8268
X13.9215Y-4.1378
X13.9688Y-4.8268
X14.0514Y-4.3622
X14.0987Y-4.3622
X14.126Y-5.4291
X14.1774Y-4.6654
X14.3438Y-6.5625
X14.3438Y-7.3125
X14.3546Y-4.874
T2
X2.0625Y-4.5875
X2.0625Y-4.7875
X2.0625Y-5.3375
X2.0625Y-5.5375
X2.0625Y-6.0875
X2.0625Y-6.2875
X2.0625Y-6.8375
X2.0625Y-7.0375
X2.7188Y-3.9312
X2.7188Y-4.1312
X3.0Y-6.8375
X3.0Y-7.0375
X3.0938Y-4.5875
X3.0938Y-4.7875
X3.2812Y-5.3375
X3.2812Y-5.5375
X3.4688Y-3.9312
X3.4688Y-4.1312
X3.6562Y-6.0875
X3.6562Y-6.2875
X3.6562Y-6.4625
X3.6562Y-6.6625
X3.8438Y-4.5875
X3.8438Y-4.7875
X3.8438Y-6.8375
X3.8438Y-7.0375
X4.0312Y-5.3375
X4.0312Y-5.5375
X4.2188Y-3.9312
X4.2188Y-4.1312
X4.4062Y-6.0875
X4.4062Y-6.2875
X4.5938Y-4.5875
X4.5938Y-4.7875
X4.7812Y-5.3375
X4.7812Y-5.5375
X4.7812Y-6.8375
X4.7812Y-7.0375
X4.9688Y-3.9312
X4.9688Y-4.1312
X5.1562Y-6.0875
X5.1562Y-6.2875
X5.3438Y-4.5875
X5.3438Y-4.7875
X5.5312Y-5.3375
X5.5312Y-5.5375
X5.7188Y-3.9312
X5.7188Y-4.1312
X5.9062Y-6.0875
X5.9062Y-6.2875
X6.0938Y-4.5875
X6.0938Y-4.7875
X6.2812Y-5.3375
X6.2812Y-5.5375
X6.3071Y-6.9312
X6.3071Y-7.1312
X6.4688Y-3.9312
X6.4688Y-4.1312
X6.4688Y-6.9312
X6.4688Y-7.1312
X6.6562Y-6.0875
X6.6562Y-6.2875
X6.8438Y-4.5875
X6.8438Y-4.7875
X7.0312Y-5.3375
X7.0312Y-5.5375
X7.2188Y-3.9312
X7.2188Y-4.1312
X7.4062Y-6.0875
X7.4062Y-6.2875
X7.5938Y-4.5875
X7.5938Y-4.7875
X7.6875Y-6.9312
X7.6875Y-7.1312
X7.7812Y-5.3375
X7.7812Y-5.5375
X7.9688Y-3.9312
X7.9688Y-4.1312
X8.1562Y-6.0875
X8.1562Y-6.2875
X8.3438Y-4.5875
X8.3438Y-4.7875
X8.5312Y-5.3375
X8.5312Y-5.5375
X8.7188Y-3.9312
X8.7188Y-4.1312
X8.9062Y-6.0875
X8.9062Y-6.2875
X9.0938Y-4.5875
X9.0938Y-4.7875
X9.2812Y-5.3375
X9.2812Y-5.5375
X9.4688Y-3.9312
X9.4688Y-4.1312
X9.4688Y-6.8375
X9.4688Y-7.0375
X9.6562Y-6.0875
X9.6562Y-6.2875
X9.8438Y-4.5875
X9.8438Y-4.7875
X10.0312Y-5.3375
X10.0312Y-5.5375
X10.2188Y-3.9312
X10.2188Y-4.1312
X10.2188Y-6.8375
X10.2188Y-7.0375
X10.4062Y-6.0875
X10.4062Y-6.2875
X10.5938Y-4.5875
X10.5938Y-4.7875
X10.7812Y-5.3375
X10.7812Y-5.5375
X10.9688Y-3.9312
X10.9688Y-4.1312
X10.9688Y-6.8375
X10.9688Y-7.0375
X11.1562Y-6.0875
X11.1562Y-6.2875
X11.3438Y-4.5875
X11.3438Y-4.7875
X11.5312Y-5.3375
X11.5312Y-5.5375
X11.5312Y-5.7125
X11.5312Y-5.9125
X11.7188Y-3.9312
X11.7188Y-4.1312
X11.7188Y-6.9312
X11.7188Y-7.1312
X12.1875Y-4.5875
X12.1875Y-4.7875
X12.4688Y-6.8375
X12.4688Y-7.0375
X13.125Y-3.9312
X13.125Y-4.1312
X13.2188Y-5.4312
X13.2188Y-5.6312
X13.2188Y-6.0875
X13.2188Y-6.2875
X13.2188Y-6.4625
X13.2188Y-6.6625
X13.2188Y-6.8375
X13.2188Y-7.0375
X13.9688Y-5.4312
X13.9688Y-5.6312
X13.9688Y-6.0875
X13.9688Y-6.2875
X13.9688Y-6.8375
X13.9688Y-7.0375
T3
X13.6687Y-3.9028
X13.6687Y-4.0028
X13.6687Y-4.1028
X13.6687Y-4.2028
X13.6687Y-4.3028
X13.6687Y-4.4028
X13.6687Y-4.5028
X13.6687Y-4.6028
X13.6687Y-4.7028
X13.6687Y-4.8028
X13.6687Y-4.9028
X13.6687Y-5.0028
X13.7687Y-5.0028
X13.8187Y-5.1673
X13.8688Y-5.0028
X13.9187Y-5.1673
X13.9688Y-5.0028
X14.0187Y-5.1673
X14.0687Y-5.0028
X14.1188Y-5.1673
X14.1687Y-5.0028
X14.2453Y-5.3533
X14.2453Y-5.9242
X14.2687Y-3.9028
X14.2687Y-4.0028
X14.2687Y-4.1028
X14.2687Y-4.2028
X14.2687Y-4.3028
X14.2687Y-4.4028
X14.2687Y-4.5028
X14.2687Y-4.6028
X14.2687Y-4.7028
X14.2687Y-4.8028
X14.2687Y-4.9028
X14.2687Y-5.0028
X14.3438Y-5.3533
X14.4422Y-5.3533
X14.4422Y-5.9242
T0
M30
