M48
; DRILL file {KiCad (6.0.1)} date Mon Apr 18 19:19:35 2022
; FORMAT={-:-/ absolute / inch / decimal}
; #@! TF.CreationDate,2022-04-18T19:19:35-04:00
; #@! TF.GenerationSoftware,Kicad,Pcbnew,(6.0.1)
; #@! TF.FileFunction,NonPlated,1,2,NPTH
FMAT,2
INCH
; #@! TA.AperFunction,NonPlated,NPTH,ComponentDrill
T1C0.0591
; #@! TA.AperFunction,NonPlated,NPTH,ComponentDrill
T2C0.0689
; #@! TA.AperFunction,NonPlated,NPTH,ComponentDrill
T3C0.1181
; #@! TA.AperFunction,NonPlated,NPTH,ComponentDrill
T4C0.1200
; #@! TA.AperFunction,NonPlated,NPTH,ComponentDrill
T5C0.1201
; #@! TA.AperFunction,NonPlated,NPTH,ComponentDrill
T6C0.1570
; #@! TA.AperFunction,NonPlated,NPTH,ComponentDrill
T7C0.1575
%
G90
G05
T2
X2.1437Y-4.125
X2.2375Y-5.625
X2.2375Y-6.375
X2.2375Y-7.125
X2.3312Y-4.875
X2.425Y-5.625
X2.5437Y-4.125
X2.6125Y-6.375
X2.6375Y-5.625
X2.6375Y-6.375
X2.6375Y-7.125
X2.7312Y-4.875
X2.825Y-5.625
X2.8937Y-4.125
X3.0125Y-6.375
X3.0812Y-6.375
X3.175Y-7.125
X3.2687Y-4.875
X3.2937Y-4.125
X3.4562Y-5.625
X3.4812Y-6.375
X3.575Y-7.125
X3.6437Y-4.125
X3.6687Y-4.875
X3.8312Y-6.375
X3.8562Y-5.625
X4.0187Y-4.875
X4.0438Y-4.125
X4.1125Y-7.125
X4.2062Y-5.625
X4.2313Y-6.375
X4.3937Y-4.125
X4.4188Y-4.875
X4.5125Y-7.125
X4.5812Y-6.375
X4.6063Y-5.625
X4.7687Y-4.875
X4.7938Y-4.125
X4.9562Y-5.625
X4.9813Y-6.375
X5.1437Y-4.125
X5.1688Y-4.875
X5.3312Y-6.375
X5.3563Y-5.625
X5.425Y-7.125
X5.5187Y-4.875
X5.5438Y-4.125
X5.7062Y-5.625
X5.7313Y-6.375
X5.825Y-7.125
X5.8937Y-4.125
X5.9188Y-4.875
X6.0812Y-6.375
X6.1063Y-5.625
X6.2687Y-4.875
X6.2938Y-4.125
X6.4562Y-5.625
X6.4813Y-6.375
X6.6437Y-4.125
X6.6688Y-4.875
X6.7375Y-7.125
X6.8312Y-6.375
X6.8563Y-5.625
X6.925Y-7.125
X7.0187Y-4.875
X7.0438Y-4.125
X7.1375Y-7.125
X7.2062Y-5.625
X7.2313Y-6.375
X7.325Y-7.125
X7.3937Y-4.125
X7.4188Y-4.875
X7.5812Y-6.375
X7.6063Y-5.625
X7.7687Y-4.875
X7.7938Y-4.125
X7.9562Y-5.625
X7.9813Y-6.375
X8.1437Y-4.125
X8.1687Y-4.875
X8.2375Y-7.125
X8.3312Y-6.375
X8.3562Y-5.625
X8.5187Y-4.875
X8.5437Y-4.125
X8.6375Y-7.125
X8.7062Y-5.625
X8.7312Y-6.375
X8.8937Y-4.125
X8.9187Y-4.875
X9.0812Y-6.375
X9.1062Y-5.625
X9.2687Y-4.875
X9.2937Y-4.125
X9.4562Y-5.625
X9.4812Y-6.375
X9.6437Y-4.125
X9.6437Y-7.125
X9.6687Y-4.875
X9.8312Y-6.375
X9.8562Y-5.625
X10.0187Y-4.875
X10.0437Y-4.125
X10.0437Y-7.125
X10.2062Y-5.625
X10.2312Y-6.375
X10.3937Y-4.125
X10.3937Y-7.125
X10.4187Y-4.875
X10.5812Y-6.375
X10.6062Y-5.625
X10.7687Y-4.875
X10.7937Y-4.125
X10.7937Y-7.125
X10.9562Y-5.625
X10.9812Y-6.375
X11.1437Y-4.125
X11.1437Y-7.125
X11.1687Y-4.875
X11.3562Y-5.625
X11.5187Y-4.875
X11.5437Y-4.125
X11.5437Y-7.125
X11.6125Y-6.375
X11.8937Y-7.125
X11.9062Y-5.425
X11.9062Y-5.825
X11.9187Y-4.875
X11.9875Y-6.375
X12.0125Y-6.375
X12.2687Y-4.125
X12.2937Y-7.125
X12.375Y-5.425
X12.375Y-5.825
X12.3875Y-6.375
X12.6437Y-6.375
X12.6437Y-7.125
X12.6562Y-4.675
X12.6562Y-5.075
X12.6687Y-4.125
X12.75Y-5.05
X12.75Y-5.45
X13.0437Y-6.375
X13.0437Y-7.125
X13.3937Y-5.625
X13.3937Y-6.375
X13.3937Y-7.125
X13.7937Y-5.625
X13.7937Y-6.375
X13.7937Y-7.125
X14.1437Y-5.625
X14.1437Y-6.375
X14.1437Y-7.125
X14.5437Y-5.625
X14.5437Y-6.375
X14.5437Y-7.125
T3
X2.1938Y-4.025
X2.2875Y-5.525
X2.2875Y-7.025
X2.3375Y-6.575
X2.3813Y-4.775
X2.4438Y-3.925
X2.525Y-5.825
X2.5375Y-5.425
X2.5375Y-6.925
X2.5875Y-6.475
X2.6313Y-4.675
X2.6625Y-6.275
X2.775Y-5.725
X2.9125Y-6.175
X2.9438Y-4.025
X3.1812Y-6.575
X3.1938Y-3.925
X3.225Y-7.025
X3.3188Y-4.775
X3.4312Y-6.475
X3.475Y-6.925
X3.5063Y-5.525
X3.5688Y-4.675
X3.6938Y-4.025
X3.7563Y-5.425
X3.8813Y-6.275
X3.9438Y-3.925
X4.0687Y-4.775
X4.1312Y-6.175
X4.1625Y-7.025
X4.2562Y-5.525
X4.3187Y-4.675
X4.4125Y-6.925
X4.4437Y-4.025
X4.5062Y-5.425
X4.6312Y-6.275
X4.6937Y-3.925
X4.8187Y-4.775
X4.8812Y-6.175
X5.0062Y-5.525
X5.0687Y-4.675
X5.1937Y-4.025
X5.2562Y-5.425
X5.3812Y-6.275
X5.4437Y-3.925
X5.475Y-7.025
X5.5687Y-4.775
X5.6312Y-6.175
X5.725Y-6.925
X5.7562Y-5.525
X5.8187Y-4.675
X5.9437Y-4.025
X6.0062Y-5.425
X6.1312Y-6.275
X6.1937Y-3.925
X6.3187Y-4.775
X6.3812Y-6.175
X6.5062Y-5.525
X6.5687Y-4.675
X6.6937Y-4.025
X6.7562Y-5.425
X6.7875Y-7.025
X6.8812Y-6.275
X6.9437Y-3.925
X7.025Y-7.325
X7.0375Y-6.925
X7.0687Y-4.775
X7.1312Y-6.175
X7.2562Y-5.525
X7.275Y-7.225
X7.3187Y-4.675
X7.4437Y-4.025
X7.5062Y-5.425
X7.6312Y-6.275
X7.6937Y-3.925
X7.8187Y-4.775
X7.8812Y-6.175
X8.0062Y-5.525
X8.0687Y-4.675
X8.1937Y-4.025
X8.2562Y-5.425
X8.2875Y-7.025
X8.3812Y-6.275
X8.4437Y-3.925
X8.5375Y-6.925
X8.5687Y-4.775
X8.6312Y-6.175
X8.7562Y-5.525
X8.8187Y-4.675
X8.9437Y-4.025
X9.0062Y-5.425
X9.1312Y-6.275
X9.1937Y-3.925
X9.3187Y-4.775
X9.3812Y-6.175
X9.5062Y-5.525
X9.5687Y-4.675
X9.6937Y-4.025
X9.6937Y-7.025
X9.7562Y-5.425
X9.8812Y-6.275
X9.9437Y-3.925
X9.9437Y-6.925
X10.0687Y-4.775
X10.1312Y-6.175
X10.2562Y-5.525
X10.3187Y-4.675
X10.4437Y-4.025
X10.4437Y-7.025
X10.5062Y-5.425
X10.6312Y-6.275
X10.6937Y-3.925
X10.6937Y-6.925
X10.8187Y-4.775
X10.8812Y-6.175
X11.0062Y-5.525
X11.0687Y-4.675
X11.1937Y-4.025
X11.1937Y-7.025
X11.2562Y-5.425
X11.4437Y-3.925
X11.4437Y-6.925
X11.5687Y-4.775
X11.7062Y-5.525
X11.7125Y-6.575
X11.8063Y-5.775
X11.8187Y-4.675
X11.9437Y-7.025
X11.9625Y-6.475
X12.0375Y-6.275
X12.175Y-5.525
X12.1937Y-6.925
X12.275Y-5.775
X12.2875Y-6.175
X12.3187Y-4.025
X12.55Y-5.15
X12.5687Y-3.925
X12.65Y-5.4
X12.6937Y-7.025
X12.7438Y-6.575
X12.7562Y-4.725
X12.8562Y-4.975
X12.9437Y-6.925
X12.9938Y-6.475
X13.4437Y-5.525
X13.4437Y-6.275
X13.4437Y-7.025
X13.6937Y-5.425
X13.6937Y-6.175
X13.6937Y-6.925
X14.1937Y-5.525
X14.1937Y-6.275
X14.1937Y-7.025
X14.4437Y-5.425
X14.4437Y-6.175
X14.4437Y-6.925
T4
X5.1565Y-7.4
X9.0935Y-7.4
X13.025Y-4.78
X13.025Y-5.72
T5
X2.344Y-6.0994
X3.281Y-6.0994
X5.1565Y-7.4006
X6.0935Y-7.4006
X7.969Y-7.4006
X8.906Y-7.4006
X11.719Y-6.0994
X11.9065Y-5.9006
X12.0002Y-3.8494
X12.656Y-6.0994
X12.8435Y-5.9006
X12.9373Y-3.8494
T6
X2.3438Y-4.125
X2.4375Y-5.625
X2.4375Y-6.375
X2.4375Y-7.125
X2.5312Y-4.875
X2.625Y-5.625
X2.8125Y-6.375
X3.0938Y-4.125
X3.2812Y-6.375
X3.375Y-7.125
X3.4688Y-4.875
X3.6562Y-5.625
X3.8438Y-4.125
X4.0312Y-6.375
X4.2188Y-4.875
X4.3125Y-7.125
X4.4062Y-5.625
X4.5938Y-4.125
X4.7812Y-6.375
X4.9688Y-4.875
X5.1562Y-5.625
X5.1565Y-6.8
X5.3438Y-4.125
X5.5312Y-6.375
X5.625Y-7.125
X5.7188Y-4.875
X5.9062Y-5.625
X6.0938Y-4.125
X6.2812Y-6.375
X6.4688Y-4.875
X6.6562Y-5.625
X6.8438Y-4.125
X6.9375Y-7.125
X7.0312Y-6.375
X7.125Y-7.125
X7.2188Y-4.875
X7.4062Y-5.625
X7.5938Y-4.125
X7.7812Y-6.375
X7.9688Y-4.875
X8.1562Y-5.625
X8.3438Y-4.125
X8.4375Y-7.125
X8.5312Y-6.375
X8.7188Y-4.875
X8.9062Y-5.625
X9.0935Y-6.8
X9.0938Y-4.125
X9.2812Y-6.375
X9.4688Y-4.875
X9.6562Y-5.625
X9.8438Y-4.125
X9.8438Y-7.125
X10.0312Y-6.375
X10.2188Y-4.875
X10.4062Y-5.625
X10.5938Y-4.125
X10.5938Y-7.125
X10.7812Y-6.375
X10.9688Y-4.875
X11.1562Y-5.625
X11.3438Y-4.125
X11.3438Y-7.125
X11.7188Y-4.875
X11.8125Y-6.375
X11.9062Y-5.625
X12.0938Y-7.125
X12.1875Y-6.375
X12.375Y-5.625
X12.425Y-4.78
X12.425Y-5.72
X12.4688Y-4.125
X12.6562Y-4.875
X12.75Y-5.25
X12.8438Y-6.375
X12.8438Y-7.125
X13.5938Y-5.625
X13.5938Y-6.375
X13.5938Y-7.125
X14.3438Y-5.625
X14.3438Y-6.375
X14.3438Y-7.125
T7
X2.344Y-6.6994
X3.281Y-6.6994
X5.1565Y-6.8006
X6.0935Y-6.8006
X7.969Y-6.8006
X8.906Y-6.8006
X11.719Y-6.6994
X11.9065Y-5.3006
X12.0002Y-4.4494
X12.656Y-6.6994
X12.8435Y-5.3006
X12.9373Y-4.4494
T1
G00X14.1233Y-5.623
M15
G01X14.1233Y-5.6742
M16
G05
G00X14.5642Y-5.623
M15
G01X14.5642Y-5.6742
M16
G05
T0
M30
