%TF.GenerationSoftware,KiCad,Pcbnew,(6.0.1)*%
%TF.CreationDate,2022-05-15T15:51:36-04:00*%
%TF.ProjectId,GanJing 65 rev 2 hotswap,47616e4a-696e-4672-9036-352072657620,2*%
%TF.SameCoordinates,Original*%
%TF.FileFunction,Legend,Top*%
%TF.FilePolarity,Positive*%
%FSLAX46Y46*%
G04 Gerber Fmt 4.6, Leading zero omitted, Abs format (unit mm)*
G04 Created by KiCad (PCBNEW (6.0.1)) date 2022-05-15 15:51:36*
%MOMM*%
%LPD*%
G01*
G04 APERTURE LIST*
%ADD10C,0.150000*%
%ADD11C,0.120000*%
%ADD12R,1.600000X1.600000*%
%ADD13O,1.600000X1.600000*%
%ADD14R,1.800000X1.800000*%
%ADD15C,1.800000*%
%ADD16C,1.750000*%
%ADD17C,3.000000*%
%ADD18C,3.987800*%
%ADD19C,4.000000*%
%ADD20C,3.050000*%
%ADD21R,2.000000X3.200000*%
%ADD22R,2.000000X2.000000*%
%ADD23C,2.000000*%
%ADD24C,3.048000*%
G04 APERTURE END LIST*
D10*
%TO.C,D1*%
X68318154Y-97766130D02*
X68318154Y-96766130D01*
X68556250Y-96766130D01*
X68699107Y-96813750D01*
X68794345Y-96908988D01*
X68841964Y-97004226D01*
X68889583Y-97194702D01*
X68889583Y-97337559D01*
X68841964Y-97528035D01*
X68794345Y-97623273D01*
X68699107Y-97718511D01*
X68556250Y-97766130D01*
X68318154Y-97766130D01*
X69841964Y-97766130D02*
X69270535Y-97766130D01*
X69556250Y-97766130D02*
X69556250Y-96766130D01*
X69461011Y-96908988D01*
X69365773Y-97004226D01*
X69270535Y-97051845D01*
%TO.C,D2*%
X87368154Y-97766130D02*
X87368154Y-96766130D01*
X87606250Y-96766130D01*
X87749107Y-96813750D01*
X87844345Y-96908988D01*
X87891964Y-97004226D01*
X87939583Y-97194702D01*
X87939583Y-97337559D01*
X87891964Y-97528035D01*
X87844345Y-97623273D01*
X87749107Y-97718511D01*
X87606250Y-97766130D01*
X87368154Y-97766130D01*
X88320535Y-96861369D02*
X88368154Y-96813750D01*
X88463392Y-96766130D01*
X88701488Y-96766130D01*
X88796726Y-96813750D01*
X88844345Y-96861369D01*
X88891964Y-96956607D01*
X88891964Y-97051845D01*
X88844345Y-97194702D01*
X88272916Y-97766130D01*
X88891964Y-97766130D01*
%TO.C,D3*%
X106418154Y-97766130D02*
X106418154Y-96766130D01*
X106656250Y-96766130D01*
X106799107Y-96813750D01*
X106894345Y-96908988D01*
X106941964Y-97004226D01*
X106989583Y-97194702D01*
X106989583Y-97337559D01*
X106941964Y-97528035D01*
X106894345Y-97623273D01*
X106799107Y-97718511D01*
X106656250Y-97766130D01*
X106418154Y-97766130D01*
X107322916Y-96766130D02*
X107941964Y-96766130D01*
X107608630Y-97147083D01*
X107751488Y-97147083D01*
X107846726Y-97194702D01*
X107894345Y-97242321D01*
X107941964Y-97337559D01*
X107941964Y-97575654D01*
X107894345Y-97670892D01*
X107846726Y-97718511D01*
X107751488Y-97766130D01*
X107465773Y-97766130D01*
X107370535Y-97718511D01*
X107322916Y-97670892D01*
%TO.C,D4*%
X125468154Y-97766130D02*
X125468154Y-96766130D01*
X125706250Y-96766130D01*
X125849107Y-96813750D01*
X125944345Y-96908988D01*
X125991964Y-97004226D01*
X126039583Y-97194702D01*
X126039583Y-97337559D01*
X125991964Y-97528035D01*
X125944345Y-97623273D01*
X125849107Y-97718511D01*
X125706250Y-97766130D01*
X125468154Y-97766130D01*
X126896726Y-97099464D02*
X126896726Y-97766130D01*
X126658630Y-96718511D02*
X126420535Y-97432797D01*
X127039583Y-97432797D01*
%TO.C,D5*%
X144518154Y-97766130D02*
X144518154Y-96766130D01*
X144756250Y-96766130D01*
X144899107Y-96813750D01*
X144994345Y-96908988D01*
X145041964Y-97004226D01*
X145089583Y-97194702D01*
X145089583Y-97337559D01*
X145041964Y-97528035D01*
X144994345Y-97623273D01*
X144899107Y-97718511D01*
X144756250Y-97766130D01*
X144518154Y-97766130D01*
X145994345Y-96766130D02*
X145518154Y-96766130D01*
X145470535Y-97242321D01*
X145518154Y-97194702D01*
X145613392Y-97147083D01*
X145851488Y-97147083D01*
X145946726Y-97194702D01*
X145994345Y-97242321D01*
X146041964Y-97337559D01*
X146041964Y-97575654D01*
X145994345Y-97670892D01*
X145946726Y-97718511D01*
X145851488Y-97766130D01*
X145613392Y-97766130D01*
X145518154Y-97718511D01*
X145470535Y-97670892D01*
%TO.C,D6*%
X163568154Y-97766130D02*
X163568154Y-96766130D01*
X163806250Y-96766130D01*
X163949107Y-96813750D01*
X164044345Y-96908988D01*
X164091964Y-97004226D01*
X164139583Y-97194702D01*
X164139583Y-97337559D01*
X164091964Y-97528035D01*
X164044345Y-97623273D01*
X163949107Y-97718511D01*
X163806250Y-97766130D01*
X163568154Y-97766130D01*
X164996726Y-96766130D02*
X164806250Y-96766130D01*
X164711011Y-96813750D01*
X164663392Y-96861369D01*
X164568154Y-97004226D01*
X164520535Y-97194702D01*
X164520535Y-97575654D01*
X164568154Y-97670892D01*
X164615773Y-97718511D01*
X164711011Y-97766130D01*
X164901488Y-97766130D01*
X164996726Y-97718511D01*
X165044345Y-97670892D01*
X165091964Y-97575654D01*
X165091964Y-97337559D01*
X165044345Y-97242321D01*
X164996726Y-97194702D01*
X164901488Y-97147083D01*
X164711011Y-97147083D01*
X164615773Y-97194702D01*
X164568154Y-97242321D01*
X164520535Y-97337559D01*
%TO.C,D7*%
X182618154Y-97766130D02*
X182618154Y-96766130D01*
X182856250Y-96766130D01*
X182999107Y-96813750D01*
X183094345Y-96908988D01*
X183141964Y-97004226D01*
X183189583Y-97194702D01*
X183189583Y-97337559D01*
X183141964Y-97528035D01*
X183094345Y-97623273D01*
X182999107Y-97718511D01*
X182856250Y-97766130D01*
X182618154Y-97766130D01*
X183522916Y-96766130D02*
X184189583Y-96766130D01*
X183761011Y-97766130D01*
%TO.C,D8*%
X201668154Y-97766130D02*
X201668154Y-96766130D01*
X201906250Y-96766130D01*
X202049107Y-96813750D01*
X202144345Y-96908988D01*
X202191964Y-97004226D01*
X202239583Y-97194702D01*
X202239583Y-97337559D01*
X202191964Y-97528035D01*
X202144345Y-97623273D01*
X202049107Y-97718511D01*
X201906250Y-97766130D01*
X201668154Y-97766130D01*
X202811011Y-97194702D02*
X202715773Y-97147083D01*
X202668154Y-97099464D01*
X202620535Y-97004226D01*
X202620535Y-96956607D01*
X202668154Y-96861369D01*
X202715773Y-96813750D01*
X202811011Y-96766130D01*
X203001488Y-96766130D01*
X203096726Y-96813750D01*
X203144345Y-96861369D01*
X203191964Y-96956607D01*
X203191964Y-97004226D01*
X203144345Y-97099464D01*
X203096726Y-97147083D01*
X203001488Y-97194702D01*
X202811011Y-97194702D01*
X202715773Y-97242321D01*
X202668154Y-97289940D01*
X202620535Y-97385178D01*
X202620535Y-97575654D01*
X202668154Y-97670892D01*
X202715773Y-97718511D01*
X202811011Y-97766130D01*
X203001488Y-97766130D01*
X203096726Y-97718511D01*
X203144345Y-97670892D01*
X203191964Y-97575654D01*
X203191964Y-97385178D01*
X203144345Y-97289940D01*
X203096726Y-97242321D01*
X203001488Y-97194702D01*
%TO.C,D9*%
X220718154Y-97766130D02*
X220718154Y-96766130D01*
X220956250Y-96766130D01*
X221099107Y-96813750D01*
X221194345Y-96908988D01*
X221241964Y-97004226D01*
X221289583Y-97194702D01*
X221289583Y-97337559D01*
X221241964Y-97528035D01*
X221194345Y-97623273D01*
X221099107Y-97718511D01*
X220956250Y-97766130D01*
X220718154Y-97766130D01*
X221765773Y-97766130D02*
X221956250Y-97766130D01*
X222051488Y-97718511D01*
X222099107Y-97670892D01*
X222194345Y-97528035D01*
X222241964Y-97337559D01*
X222241964Y-96956607D01*
X222194345Y-96861369D01*
X222146726Y-96813750D01*
X222051488Y-96766130D01*
X221861011Y-96766130D01*
X221765773Y-96813750D01*
X221718154Y-96861369D01*
X221670535Y-96956607D01*
X221670535Y-97194702D01*
X221718154Y-97289940D01*
X221765773Y-97337559D01*
X221861011Y-97385178D01*
X222051488Y-97385178D01*
X222146726Y-97337559D01*
X222194345Y-97289940D01*
X222241964Y-97194702D01*
%TO.C,D10*%
X239291964Y-97766130D02*
X239291964Y-96766130D01*
X239530059Y-96766130D01*
X239672916Y-96813750D01*
X239768154Y-96908988D01*
X239815773Y-97004226D01*
X239863392Y-97194702D01*
X239863392Y-97337559D01*
X239815773Y-97528035D01*
X239768154Y-97623273D01*
X239672916Y-97718511D01*
X239530059Y-97766130D01*
X239291964Y-97766130D01*
X240815773Y-97766130D02*
X240244345Y-97766130D01*
X240530059Y-97766130D02*
X240530059Y-96766130D01*
X240434821Y-96908988D01*
X240339583Y-97004226D01*
X240244345Y-97051845D01*
X241434821Y-96766130D02*
X241530059Y-96766130D01*
X241625297Y-96813750D01*
X241672916Y-96861369D01*
X241720535Y-96956607D01*
X241768154Y-97147083D01*
X241768154Y-97385178D01*
X241720535Y-97575654D01*
X241672916Y-97670892D01*
X241625297Y-97718511D01*
X241530059Y-97766130D01*
X241434821Y-97766130D01*
X241339583Y-97718511D01*
X241291964Y-97670892D01*
X241244345Y-97575654D01*
X241196726Y-97385178D01*
X241196726Y-97147083D01*
X241244345Y-96956607D01*
X241291964Y-96861369D01*
X241339583Y-96813750D01*
X241434821Y-96766130D01*
%TO.C,D11*%
X258341964Y-97766130D02*
X258341964Y-96766130D01*
X258580059Y-96766130D01*
X258722916Y-96813750D01*
X258818154Y-96908988D01*
X258865773Y-97004226D01*
X258913392Y-97194702D01*
X258913392Y-97337559D01*
X258865773Y-97528035D01*
X258818154Y-97623273D01*
X258722916Y-97718511D01*
X258580059Y-97766130D01*
X258341964Y-97766130D01*
X259865773Y-97766130D02*
X259294345Y-97766130D01*
X259580059Y-97766130D02*
X259580059Y-96766130D01*
X259484821Y-96908988D01*
X259389583Y-97004226D01*
X259294345Y-97051845D01*
X260818154Y-97766130D02*
X260246726Y-97766130D01*
X260532440Y-97766130D02*
X260532440Y-96766130D01*
X260437202Y-96908988D01*
X260341964Y-97004226D01*
X260246726Y-97051845D01*
%TO.C,D12*%
X277391964Y-97766130D02*
X277391964Y-96766130D01*
X277630059Y-96766130D01*
X277772916Y-96813750D01*
X277868154Y-96908988D01*
X277915773Y-97004226D01*
X277963392Y-97194702D01*
X277963392Y-97337559D01*
X277915773Y-97528035D01*
X277868154Y-97623273D01*
X277772916Y-97718511D01*
X277630059Y-97766130D01*
X277391964Y-97766130D01*
X278915773Y-97766130D02*
X278344345Y-97766130D01*
X278630059Y-97766130D02*
X278630059Y-96766130D01*
X278534821Y-96908988D01*
X278439583Y-97004226D01*
X278344345Y-97051845D01*
X279296726Y-96861369D02*
X279344345Y-96813750D01*
X279439583Y-96766130D01*
X279677678Y-96766130D01*
X279772916Y-96813750D01*
X279820535Y-96861369D01*
X279868154Y-96956607D01*
X279868154Y-97051845D01*
X279820535Y-97194702D01*
X279249107Y-97766130D01*
X279868154Y-97766130D01*
%TO.C,D13*%
X296441964Y-97766130D02*
X296441964Y-96766130D01*
X296680059Y-96766130D01*
X296822916Y-96813750D01*
X296918154Y-96908988D01*
X296965773Y-97004226D01*
X297013392Y-97194702D01*
X297013392Y-97337559D01*
X296965773Y-97528035D01*
X296918154Y-97623273D01*
X296822916Y-97718511D01*
X296680059Y-97766130D01*
X296441964Y-97766130D01*
X297965773Y-97766130D02*
X297394345Y-97766130D01*
X297680059Y-97766130D02*
X297680059Y-96766130D01*
X297584821Y-96908988D01*
X297489583Y-97004226D01*
X297394345Y-97051845D01*
X298299107Y-96766130D02*
X298918154Y-96766130D01*
X298584821Y-97147083D01*
X298727678Y-97147083D01*
X298822916Y-97194702D01*
X298870535Y-97242321D01*
X298918154Y-97337559D01*
X298918154Y-97575654D01*
X298870535Y-97670892D01*
X298822916Y-97718511D01*
X298727678Y-97766130D01*
X298441964Y-97766130D01*
X298346726Y-97718511D01*
X298299107Y-97670892D01*
%TO.C,D14*%
X332160714Y-97766130D02*
X332160714Y-96766130D01*
X332398809Y-96766130D01*
X332541666Y-96813750D01*
X332636904Y-96908988D01*
X332684523Y-97004226D01*
X332732142Y-97194702D01*
X332732142Y-97337559D01*
X332684523Y-97528035D01*
X332636904Y-97623273D01*
X332541666Y-97718511D01*
X332398809Y-97766130D01*
X332160714Y-97766130D01*
X333684523Y-97766130D02*
X333113095Y-97766130D01*
X333398809Y-97766130D02*
X333398809Y-96766130D01*
X333303571Y-96908988D01*
X333208333Y-97004226D01*
X333113095Y-97051845D01*
X334541666Y-97099464D02*
X334541666Y-97766130D01*
X334303571Y-96718511D02*
X334065476Y-97432797D01*
X334684523Y-97432797D01*
%TO.C,D16*%
X51173214Y-114434880D02*
X51173214Y-113434880D01*
X51411309Y-113434880D01*
X51554166Y-113482500D01*
X51649404Y-113577738D01*
X51697023Y-113672976D01*
X51744642Y-113863452D01*
X51744642Y-114006309D01*
X51697023Y-114196785D01*
X51649404Y-114292023D01*
X51554166Y-114387261D01*
X51411309Y-114434880D01*
X51173214Y-114434880D01*
X52697023Y-114434880D02*
X52125595Y-114434880D01*
X52411309Y-114434880D02*
X52411309Y-113434880D01*
X52316071Y-113577738D01*
X52220833Y-113672976D01*
X52125595Y-113720595D01*
X53554166Y-113434880D02*
X53363690Y-113434880D01*
X53268452Y-113482500D01*
X53220833Y-113530119D01*
X53125595Y-113672976D01*
X53077976Y-113863452D01*
X53077976Y-114244404D01*
X53125595Y-114339642D01*
X53173214Y-114387261D01*
X53268452Y-114434880D01*
X53458928Y-114434880D01*
X53554166Y-114387261D01*
X53601785Y-114339642D01*
X53649404Y-114244404D01*
X53649404Y-114006309D01*
X53601785Y-113911071D01*
X53554166Y-113863452D01*
X53458928Y-113815833D01*
X53268452Y-113815833D01*
X53173214Y-113863452D01*
X53125595Y-113911071D01*
X53077976Y-114006309D01*
%TO.C,D17*%
X77366964Y-114434880D02*
X77366964Y-113434880D01*
X77605059Y-113434880D01*
X77747916Y-113482500D01*
X77843154Y-113577738D01*
X77890773Y-113672976D01*
X77938392Y-113863452D01*
X77938392Y-114006309D01*
X77890773Y-114196785D01*
X77843154Y-114292023D01*
X77747916Y-114387261D01*
X77605059Y-114434880D01*
X77366964Y-114434880D01*
X78890773Y-114434880D02*
X78319345Y-114434880D01*
X78605059Y-114434880D02*
X78605059Y-113434880D01*
X78509821Y-113577738D01*
X78414583Y-113672976D01*
X78319345Y-113720595D01*
X79224107Y-113434880D02*
X79890773Y-113434880D01*
X79462202Y-114434880D01*
%TO.C,D18*%
X96416964Y-114434880D02*
X96416964Y-113434880D01*
X96655059Y-113434880D01*
X96797916Y-113482500D01*
X96893154Y-113577738D01*
X96940773Y-113672976D01*
X96988392Y-113863452D01*
X96988392Y-114006309D01*
X96940773Y-114196785D01*
X96893154Y-114292023D01*
X96797916Y-114387261D01*
X96655059Y-114434880D01*
X96416964Y-114434880D01*
X97940773Y-114434880D02*
X97369345Y-114434880D01*
X97655059Y-114434880D02*
X97655059Y-113434880D01*
X97559821Y-113577738D01*
X97464583Y-113672976D01*
X97369345Y-113720595D01*
X98512202Y-113863452D02*
X98416964Y-113815833D01*
X98369345Y-113768214D01*
X98321726Y-113672976D01*
X98321726Y-113625357D01*
X98369345Y-113530119D01*
X98416964Y-113482500D01*
X98512202Y-113434880D01*
X98702678Y-113434880D01*
X98797916Y-113482500D01*
X98845535Y-113530119D01*
X98893154Y-113625357D01*
X98893154Y-113672976D01*
X98845535Y-113768214D01*
X98797916Y-113815833D01*
X98702678Y-113863452D01*
X98512202Y-113863452D01*
X98416964Y-113911071D01*
X98369345Y-113958690D01*
X98321726Y-114053928D01*
X98321726Y-114244404D01*
X98369345Y-114339642D01*
X98416964Y-114387261D01*
X98512202Y-114434880D01*
X98702678Y-114434880D01*
X98797916Y-114387261D01*
X98845535Y-114339642D01*
X98893154Y-114244404D01*
X98893154Y-114053928D01*
X98845535Y-113958690D01*
X98797916Y-113911071D01*
X98702678Y-113863452D01*
%TO.C,D19*%
X115466964Y-114434880D02*
X115466964Y-113434880D01*
X115705059Y-113434880D01*
X115847916Y-113482500D01*
X115943154Y-113577738D01*
X115990773Y-113672976D01*
X116038392Y-113863452D01*
X116038392Y-114006309D01*
X115990773Y-114196785D01*
X115943154Y-114292023D01*
X115847916Y-114387261D01*
X115705059Y-114434880D01*
X115466964Y-114434880D01*
X116990773Y-114434880D02*
X116419345Y-114434880D01*
X116705059Y-114434880D02*
X116705059Y-113434880D01*
X116609821Y-113577738D01*
X116514583Y-113672976D01*
X116419345Y-113720595D01*
X117466964Y-114434880D02*
X117657440Y-114434880D01*
X117752678Y-114387261D01*
X117800297Y-114339642D01*
X117895535Y-114196785D01*
X117943154Y-114006309D01*
X117943154Y-113625357D01*
X117895535Y-113530119D01*
X117847916Y-113482500D01*
X117752678Y-113434880D01*
X117562202Y-113434880D01*
X117466964Y-113482500D01*
X117419345Y-113530119D01*
X117371726Y-113625357D01*
X117371726Y-113863452D01*
X117419345Y-113958690D01*
X117466964Y-114006309D01*
X117562202Y-114053928D01*
X117752678Y-114053928D01*
X117847916Y-114006309D01*
X117895535Y-113958690D01*
X117943154Y-113863452D01*
%TO.C,D20*%
X134516964Y-114434880D02*
X134516964Y-113434880D01*
X134755059Y-113434880D01*
X134897916Y-113482500D01*
X134993154Y-113577738D01*
X135040773Y-113672976D01*
X135088392Y-113863452D01*
X135088392Y-114006309D01*
X135040773Y-114196785D01*
X134993154Y-114292023D01*
X134897916Y-114387261D01*
X134755059Y-114434880D01*
X134516964Y-114434880D01*
X135469345Y-113530119D02*
X135516964Y-113482500D01*
X135612202Y-113434880D01*
X135850297Y-113434880D01*
X135945535Y-113482500D01*
X135993154Y-113530119D01*
X136040773Y-113625357D01*
X136040773Y-113720595D01*
X135993154Y-113863452D01*
X135421726Y-114434880D01*
X136040773Y-114434880D01*
X136659821Y-113434880D02*
X136755059Y-113434880D01*
X136850297Y-113482500D01*
X136897916Y-113530119D01*
X136945535Y-113625357D01*
X136993154Y-113815833D01*
X136993154Y-114053928D01*
X136945535Y-114244404D01*
X136897916Y-114339642D01*
X136850297Y-114387261D01*
X136755059Y-114434880D01*
X136659821Y-114434880D01*
X136564583Y-114387261D01*
X136516964Y-114339642D01*
X136469345Y-114244404D01*
X136421726Y-114053928D01*
X136421726Y-113815833D01*
X136469345Y-113625357D01*
X136516964Y-113530119D01*
X136564583Y-113482500D01*
X136659821Y-113434880D01*
%TO.C,D21*%
X153566964Y-114434880D02*
X153566964Y-113434880D01*
X153805059Y-113434880D01*
X153947916Y-113482500D01*
X154043154Y-113577738D01*
X154090773Y-113672976D01*
X154138392Y-113863452D01*
X154138392Y-114006309D01*
X154090773Y-114196785D01*
X154043154Y-114292023D01*
X153947916Y-114387261D01*
X153805059Y-114434880D01*
X153566964Y-114434880D01*
X154519345Y-113530119D02*
X154566964Y-113482500D01*
X154662202Y-113434880D01*
X154900297Y-113434880D01*
X154995535Y-113482500D01*
X155043154Y-113530119D01*
X155090773Y-113625357D01*
X155090773Y-113720595D01*
X155043154Y-113863452D01*
X154471726Y-114434880D01*
X155090773Y-114434880D01*
X156043154Y-114434880D02*
X155471726Y-114434880D01*
X155757440Y-114434880D02*
X155757440Y-113434880D01*
X155662202Y-113577738D01*
X155566964Y-113672976D01*
X155471726Y-113720595D01*
%TO.C,D22*%
X172616964Y-114434880D02*
X172616964Y-113434880D01*
X172855059Y-113434880D01*
X172997916Y-113482500D01*
X173093154Y-113577738D01*
X173140773Y-113672976D01*
X173188392Y-113863452D01*
X173188392Y-114006309D01*
X173140773Y-114196785D01*
X173093154Y-114292023D01*
X172997916Y-114387261D01*
X172855059Y-114434880D01*
X172616964Y-114434880D01*
X173569345Y-113530119D02*
X173616964Y-113482500D01*
X173712202Y-113434880D01*
X173950297Y-113434880D01*
X174045535Y-113482500D01*
X174093154Y-113530119D01*
X174140773Y-113625357D01*
X174140773Y-113720595D01*
X174093154Y-113863452D01*
X173521726Y-114434880D01*
X174140773Y-114434880D01*
X174521726Y-113530119D02*
X174569345Y-113482500D01*
X174664583Y-113434880D01*
X174902678Y-113434880D01*
X174997916Y-113482500D01*
X175045535Y-113530119D01*
X175093154Y-113625357D01*
X175093154Y-113720595D01*
X175045535Y-113863452D01*
X174474107Y-114434880D01*
X175093154Y-114434880D01*
%TO.C,D23*%
X191666964Y-114434880D02*
X191666964Y-113434880D01*
X191905059Y-113434880D01*
X192047916Y-113482500D01*
X192143154Y-113577738D01*
X192190773Y-113672976D01*
X192238392Y-113863452D01*
X192238392Y-114006309D01*
X192190773Y-114196785D01*
X192143154Y-114292023D01*
X192047916Y-114387261D01*
X191905059Y-114434880D01*
X191666964Y-114434880D01*
X192619345Y-113530119D02*
X192666964Y-113482500D01*
X192762202Y-113434880D01*
X193000297Y-113434880D01*
X193095535Y-113482500D01*
X193143154Y-113530119D01*
X193190773Y-113625357D01*
X193190773Y-113720595D01*
X193143154Y-113863452D01*
X192571726Y-114434880D01*
X193190773Y-114434880D01*
X193524107Y-113434880D02*
X194143154Y-113434880D01*
X193809821Y-113815833D01*
X193952678Y-113815833D01*
X194047916Y-113863452D01*
X194095535Y-113911071D01*
X194143154Y-114006309D01*
X194143154Y-114244404D01*
X194095535Y-114339642D01*
X194047916Y-114387261D01*
X193952678Y-114434880D01*
X193666964Y-114434880D01*
X193571726Y-114387261D01*
X193524107Y-114339642D01*
%TO.C,D24*%
X210716964Y-114434880D02*
X210716964Y-113434880D01*
X210955059Y-113434880D01*
X211097916Y-113482500D01*
X211193154Y-113577738D01*
X211240773Y-113672976D01*
X211288392Y-113863452D01*
X211288392Y-114006309D01*
X211240773Y-114196785D01*
X211193154Y-114292023D01*
X211097916Y-114387261D01*
X210955059Y-114434880D01*
X210716964Y-114434880D01*
X211669345Y-113530119D02*
X211716964Y-113482500D01*
X211812202Y-113434880D01*
X212050297Y-113434880D01*
X212145535Y-113482500D01*
X212193154Y-113530119D01*
X212240773Y-113625357D01*
X212240773Y-113720595D01*
X212193154Y-113863452D01*
X211621726Y-114434880D01*
X212240773Y-114434880D01*
X213097916Y-113768214D02*
X213097916Y-114434880D01*
X212859821Y-113387261D02*
X212621726Y-114101547D01*
X213240773Y-114101547D01*
%TO.C,D25*%
X229766964Y-114434880D02*
X229766964Y-113434880D01*
X230005059Y-113434880D01*
X230147916Y-113482500D01*
X230243154Y-113577738D01*
X230290773Y-113672976D01*
X230338392Y-113863452D01*
X230338392Y-114006309D01*
X230290773Y-114196785D01*
X230243154Y-114292023D01*
X230147916Y-114387261D01*
X230005059Y-114434880D01*
X229766964Y-114434880D01*
X230719345Y-113530119D02*
X230766964Y-113482500D01*
X230862202Y-113434880D01*
X231100297Y-113434880D01*
X231195535Y-113482500D01*
X231243154Y-113530119D01*
X231290773Y-113625357D01*
X231290773Y-113720595D01*
X231243154Y-113863452D01*
X230671726Y-114434880D01*
X231290773Y-114434880D01*
X232195535Y-113434880D02*
X231719345Y-113434880D01*
X231671726Y-113911071D01*
X231719345Y-113863452D01*
X231814583Y-113815833D01*
X232052678Y-113815833D01*
X232147916Y-113863452D01*
X232195535Y-113911071D01*
X232243154Y-114006309D01*
X232243154Y-114244404D01*
X232195535Y-114339642D01*
X232147916Y-114387261D01*
X232052678Y-114434880D01*
X231814583Y-114434880D01*
X231719345Y-114387261D01*
X231671726Y-114339642D01*
%TO.C,D26*%
X248816964Y-114434880D02*
X248816964Y-113434880D01*
X249055059Y-113434880D01*
X249197916Y-113482500D01*
X249293154Y-113577738D01*
X249340773Y-113672976D01*
X249388392Y-113863452D01*
X249388392Y-114006309D01*
X249340773Y-114196785D01*
X249293154Y-114292023D01*
X249197916Y-114387261D01*
X249055059Y-114434880D01*
X248816964Y-114434880D01*
X249769345Y-113530119D02*
X249816964Y-113482500D01*
X249912202Y-113434880D01*
X250150297Y-113434880D01*
X250245535Y-113482500D01*
X250293154Y-113530119D01*
X250340773Y-113625357D01*
X250340773Y-113720595D01*
X250293154Y-113863452D01*
X249721726Y-114434880D01*
X250340773Y-114434880D01*
X251197916Y-113434880D02*
X251007440Y-113434880D01*
X250912202Y-113482500D01*
X250864583Y-113530119D01*
X250769345Y-113672976D01*
X250721726Y-113863452D01*
X250721726Y-114244404D01*
X250769345Y-114339642D01*
X250816964Y-114387261D01*
X250912202Y-114434880D01*
X251102678Y-114434880D01*
X251197916Y-114387261D01*
X251245535Y-114339642D01*
X251293154Y-114244404D01*
X251293154Y-114006309D01*
X251245535Y-113911071D01*
X251197916Y-113863452D01*
X251102678Y-113815833D01*
X250912202Y-113815833D01*
X250816964Y-113863452D01*
X250769345Y-113911071D01*
X250721726Y-114006309D01*
%TO.C,D27*%
X267866964Y-114434880D02*
X267866964Y-113434880D01*
X268105059Y-113434880D01*
X268247916Y-113482500D01*
X268343154Y-113577738D01*
X268390773Y-113672976D01*
X268438392Y-113863452D01*
X268438392Y-114006309D01*
X268390773Y-114196785D01*
X268343154Y-114292023D01*
X268247916Y-114387261D01*
X268105059Y-114434880D01*
X267866964Y-114434880D01*
X268819345Y-113530119D02*
X268866964Y-113482500D01*
X268962202Y-113434880D01*
X269200297Y-113434880D01*
X269295535Y-113482500D01*
X269343154Y-113530119D01*
X269390773Y-113625357D01*
X269390773Y-113720595D01*
X269343154Y-113863452D01*
X268771726Y-114434880D01*
X269390773Y-114434880D01*
X269724107Y-113434880D02*
X270390773Y-113434880D01*
X269962202Y-114434880D01*
%TO.C,D28*%
X286916964Y-114434880D02*
X286916964Y-113434880D01*
X287155059Y-113434880D01*
X287297916Y-113482500D01*
X287393154Y-113577738D01*
X287440773Y-113672976D01*
X287488392Y-113863452D01*
X287488392Y-114006309D01*
X287440773Y-114196785D01*
X287393154Y-114292023D01*
X287297916Y-114387261D01*
X287155059Y-114434880D01*
X286916964Y-114434880D01*
X287869345Y-113530119D02*
X287916964Y-113482500D01*
X288012202Y-113434880D01*
X288250297Y-113434880D01*
X288345535Y-113482500D01*
X288393154Y-113530119D01*
X288440773Y-113625357D01*
X288440773Y-113720595D01*
X288393154Y-113863452D01*
X287821726Y-114434880D01*
X288440773Y-114434880D01*
X289012202Y-113863452D02*
X288916964Y-113815833D01*
X288869345Y-113768214D01*
X288821726Y-113672976D01*
X288821726Y-113625357D01*
X288869345Y-113530119D01*
X288916964Y-113482500D01*
X289012202Y-113434880D01*
X289202678Y-113434880D01*
X289297916Y-113482500D01*
X289345535Y-113530119D01*
X289393154Y-113625357D01*
X289393154Y-113672976D01*
X289345535Y-113768214D01*
X289297916Y-113815833D01*
X289202678Y-113863452D01*
X289012202Y-113863452D01*
X288916964Y-113911071D01*
X288869345Y-113958690D01*
X288821726Y-114053928D01*
X288821726Y-114244404D01*
X288869345Y-114339642D01*
X288916964Y-114387261D01*
X289012202Y-114434880D01*
X289202678Y-114434880D01*
X289297916Y-114387261D01*
X289345535Y-114339642D01*
X289393154Y-114244404D01*
X289393154Y-114053928D01*
X289345535Y-113958690D01*
X289297916Y-113911071D01*
X289202678Y-113863452D01*
%TO.C,D29*%
X308348214Y-114434880D02*
X308348214Y-113434880D01*
X308586309Y-113434880D01*
X308729166Y-113482500D01*
X308824404Y-113577738D01*
X308872023Y-113672976D01*
X308919642Y-113863452D01*
X308919642Y-114006309D01*
X308872023Y-114196785D01*
X308824404Y-114292023D01*
X308729166Y-114387261D01*
X308586309Y-114434880D01*
X308348214Y-114434880D01*
X309300595Y-113530119D02*
X309348214Y-113482500D01*
X309443452Y-113434880D01*
X309681547Y-113434880D01*
X309776785Y-113482500D01*
X309824404Y-113530119D01*
X309872023Y-113625357D01*
X309872023Y-113720595D01*
X309824404Y-113863452D01*
X309252976Y-114434880D01*
X309872023Y-114434880D01*
X310348214Y-114434880D02*
X310538690Y-114434880D01*
X310633928Y-114387261D01*
X310681547Y-114339642D01*
X310776785Y-114196785D01*
X310824404Y-114006309D01*
X310824404Y-113625357D01*
X310776785Y-113530119D01*
X310729166Y-113482500D01*
X310633928Y-113434880D01*
X310443452Y-113434880D01*
X310348214Y-113482500D01*
X310300595Y-113530119D01*
X310252976Y-113625357D01*
X310252976Y-113863452D01*
X310300595Y-113958690D01*
X310348214Y-114006309D01*
X310443452Y-114053928D01*
X310633928Y-114053928D01*
X310729166Y-114006309D01*
X310776785Y-113958690D01*
X310824404Y-113863452D01*
%TO.C,D30*%
X334541964Y-135866130D02*
X334541964Y-134866130D01*
X334780059Y-134866130D01*
X334922916Y-134913750D01*
X335018154Y-135008988D01*
X335065773Y-135104226D01*
X335113392Y-135294702D01*
X335113392Y-135437559D01*
X335065773Y-135628035D01*
X335018154Y-135723273D01*
X334922916Y-135818511D01*
X334780059Y-135866130D01*
X334541964Y-135866130D01*
X335446726Y-134866130D02*
X336065773Y-134866130D01*
X335732440Y-135247083D01*
X335875297Y-135247083D01*
X335970535Y-135294702D01*
X336018154Y-135342321D01*
X336065773Y-135437559D01*
X336065773Y-135675654D01*
X336018154Y-135770892D01*
X335970535Y-135818511D01*
X335875297Y-135866130D01*
X335589583Y-135866130D01*
X335494345Y-135818511D01*
X335446726Y-135770892D01*
X336684821Y-134866130D02*
X336780059Y-134866130D01*
X336875297Y-134913750D01*
X336922916Y-134961369D01*
X336970535Y-135056607D01*
X337018154Y-135247083D01*
X337018154Y-135485178D01*
X336970535Y-135675654D01*
X336922916Y-135770892D01*
X336875297Y-135818511D01*
X336780059Y-135866130D01*
X336684821Y-135866130D01*
X336589583Y-135818511D01*
X336541964Y-135770892D01*
X336494345Y-135675654D01*
X336446726Y-135485178D01*
X336446726Y-135247083D01*
X336494345Y-135056607D01*
X336541964Y-134961369D01*
X336589583Y-134913750D01*
X336684821Y-134866130D01*
%TO.C,D31*%
X51173214Y-133484880D02*
X51173214Y-132484880D01*
X51411309Y-132484880D01*
X51554166Y-132532500D01*
X51649404Y-132627738D01*
X51697023Y-132722976D01*
X51744642Y-132913452D01*
X51744642Y-133056309D01*
X51697023Y-133246785D01*
X51649404Y-133342023D01*
X51554166Y-133437261D01*
X51411309Y-133484880D01*
X51173214Y-133484880D01*
X52077976Y-132484880D02*
X52697023Y-132484880D01*
X52363690Y-132865833D01*
X52506547Y-132865833D01*
X52601785Y-132913452D01*
X52649404Y-132961071D01*
X52697023Y-133056309D01*
X52697023Y-133294404D01*
X52649404Y-133389642D01*
X52601785Y-133437261D01*
X52506547Y-133484880D01*
X52220833Y-133484880D01*
X52125595Y-133437261D01*
X52077976Y-133389642D01*
X53649404Y-133484880D02*
X53077976Y-133484880D01*
X53363690Y-133484880D02*
X53363690Y-132484880D01*
X53268452Y-132627738D01*
X53173214Y-132722976D01*
X53077976Y-132770595D01*
%TO.C,D32*%
X82129464Y-133484880D02*
X82129464Y-132484880D01*
X82367559Y-132484880D01*
X82510416Y-132532500D01*
X82605654Y-132627738D01*
X82653273Y-132722976D01*
X82700892Y-132913452D01*
X82700892Y-133056309D01*
X82653273Y-133246785D01*
X82605654Y-133342023D01*
X82510416Y-133437261D01*
X82367559Y-133484880D01*
X82129464Y-133484880D01*
X83034226Y-132484880D02*
X83653273Y-132484880D01*
X83319940Y-132865833D01*
X83462797Y-132865833D01*
X83558035Y-132913452D01*
X83605654Y-132961071D01*
X83653273Y-133056309D01*
X83653273Y-133294404D01*
X83605654Y-133389642D01*
X83558035Y-133437261D01*
X83462797Y-133484880D01*
X83177083Y-133484880D01*
X83081845Y-133437261D01*
X83034226Y-133389642D01*
X84034226Y-132580119D02*
X84081845Y-132532500D01*
X84177083Y-132484880D01*
X84415178Y-132484880D01*
X84510416Y-132532500D01*
X84558035Y-132580119D01*
X84605654Y-132675357D01*
X84605654Y-132770595D01*
X84558035Y-132913452D01*
X83986607Y-133484880D01*
X84605654Y-133484880D01*
%TO.C,D33*%
X101179464Y-133484880D02*
X101179464Y-132484880D01*
X101417559Y-132484880D01*
X101560416Y-132532500D01*
X101655654Y-132627738D01*
X101703273Y-132722976D01*
X101750892Y-132913452D01*
X101750892Y-133056309D01*
X101703273Y-133246785D01*
X101655654Y-133342023D01*
X101560416Y-133437261D01*
X101417559Y-133484880D01*
X101179464Y-133484880D01*
X102084226Y-132484880D02*
X102703273Y-132484880D01*
X102369940Y-132865833D01*
X102512797Y-132865833D01*
X102608035Y-132913452D01*
X102655654Y-132961071D01*
X102703273Y-133056309D01*
X102703273Y-133294404D01*
X102655654Y-133389642D01*
X102608035Y-133437261D01*
X102512797Y-133484880D01*
X102227083Y-133484880D01*
X102131845Y-133437261D01*
X102084226Y-133389642D01*
X103036607Y-132484880D02*
X103655654Y-132484880D01*
X103322321Y-132865833D01*
X103465178Y-132865833D01*
X103560416Y-132913452D01*
X103608035Y-132961071D01*
X103655654Y-133056309D01*
X103655654Y-133294404D01*
X103608035Y-133389642D01*
X103560416Y-133437261D01*
X103465178Y-133484880D01*
X103179464Y-133484880D01*
X103084226Y-133437261D01*
X103036607Y-133389642D01*
%TO.C,D34*%
X120229464Y-133484880D02*
X120229464Y-132484880D01*
X120467559Y-132484880D01*
X120610416Y-132532500D01*
X120705654Y-132627738D01*
X120753273Y-132722976D01*
X120800892Y-132913452D01*
X120800892Y-133056309D01*
X120753273Y-133246785D01*
X120705654Y-133342023D01*
X120610416Y-133437261D01*
X120467559Y-133484880D01*
X120229464Y-133484880D01*
X121134226Y-132484880D02*
X121753273Y-132484880D01*
X121419940Y-132865833D01*
X121562797Y-132865833D01*
X121658035Y-132913452D01*
X121705654Y-132961071D01*
X121753273Y-133056309D01*
X121753273Y-133294404D01*
X121705654Y-133389642D01*
X121658035Y-133437261D01*
X121562797Y-133484880D01*
X121277083Y-133484880D01*
X121181845Y-133437261D01*
X121134226Y-133389642D01*
X122610416Y-132818214D02*
X122610416Y-133484880D01*
X122372321Y-132437261D02*
X122134226Y-133151547D01*
X122753273Y-133151547D01*
%TO.C,D35*%
X139279464Y-133484880D02*
X139279464Y-132484880D01*
X139517559Y-132484880D01*
X139660416Y-132532500D01*
X139755654Y-132627738D01*
X139803273Y-132722976D01*
X139850892Y-132913452D01*
X139850892Y-133056309D01*
X139803273Y-133246785D01*
X139755654Y-133342023D01*
X139660416Y-133437261D01*
X139517559Y-133484880D01*
X139279464Y-133484880D01*
X140184226Y-132484880D02*
X140803273Y-132484880D01*
X140469940Y-132865833D01*
X140612797Y-132865833D01*
X140708035Y-132913452D01*
X140755654Y-132961071D01*
X140803273Y-133056309D01*
X140803273Y-133294404D01*
X140755654Y-133389642D01*
X140708035Y-133437261D01*
X140612797Y-133484880D01*
X140327083Y-133484880D01*
X140231845Y-133437261D01*
X140184226Y-133389642D01*
X141708035Y-132484880D02*
X141231845Y-132484880D01*
X141184226Y-132961071D01*
X141231845Y-132913452D01*
X141327083Y-132865833D01*
X141565178Y-132865833D01*
X141660416Y-132913452D01*
X141708035Y-132961071D01*
X141755654Y-133056309D01*
X141755654Y-133294404D01*
X141708035Y-133389642D01*
X141660416Y-133437261D01*
X141565178Y-133484880D01*
X141327083Y-133484880D01*
X141231845Y-133437261D01*
X141184226Y-133389642D01*
%TO.C,D36*%
X158329464Y-133484880D02*
X158329464Y-132484880D01*
X158567559Y-132484880D01*
X158710416Y-132532500D01*
X158805654Y-132627738D01*
X158853273Y-132722976D01*
X158900892Y-132913452D01*
X158900892Y-133056309D01*
X158853273Y-133246785D01*
X158805654Y-133342023D01*
X158710416Y-133437261D01*
X158567559Y-133484880D01*
X158329464Y-133484880D01*
X159234226Y-132484880D02*
X159853273Y-132484880D01*
X159519940Y-132865833D01*
X159662797Y-132865833D01*
X159758035Y-132913452D01*
X159805654Y-132961071D01*
X159853273Y-133056309D01*
X159853273Y-133294404D01*
X159805654Y-133389642D01*
X159758035Y-133437261D01*
X159662797Y-133484880D01*
X159377083Y-133484880D01*
X159281845Y-133437261D01*
X159234226Y-133389642D01*
X160710416Y-132484880D02*
X160519940Y-132484880D01*
X160424702Y-132532500D01*
X160377083Y-132580119D01*
X160281845Y-132722976D01*
X160234226Y-132913452D01*
X160234226Y-133294404D01*
X160281845Y-133389642D01*
X160329464Y-133437261D01*
X160424702Y-133484880D01*
X160615178Y-133484880D01*
X160710416Y-133437261D01*
X160758035Y-133389642D01*
X160805654Y-133294404D01*
X160805654Y-133056309D01*
X160758035Y-132961071D01*
X160710416Y-132913452D01*
X160615178Y-132865833D01*
X160424702Y-132865833D01*
X160329464Y-132913452D01*
X160281845Y-132961071D01*
X160234226Y-133056309D01*
%TO.C,D37*%
X177379464Y-133484880D02*
X177379464Y-132484880D01*
X177617559Y-132484880D01*
X177760416Y-132532500D01*
X177855654Y-132627738D01*
X177903273Y-132722976D01*
X177950892Y-132913452D01*
X177950892Y-133056309D01*
X177903273Y-133246785D01*
X177855654Y-133342023D01*
X177760416Y-133437261D01*
X177617559Y-133484880D01*
X177379464Y-133484880D01*
X178284226Y-132484880D02*
X178903273Y-132484880D01*
X178569940Y-132865833D01*
X178712797Y-132865833D01*
X178808035Y-132913452D01*
X178855654Y-132961071D01*
X178903273Y-133056309D01*
X178903273Y-133294404D01*
X178855654Y-133389642D01*
X178808035Y-133437261D01*
X178712797Y-133484880D01*
X178427083Y-133484880D01*
X178331845Y-133437261D01*
X178284226Y-133389642D01*
X179236607Y-132484880D02*
X179903273Y-132484880D01*
X179474702Y-133484880D01*
%TO.C,D38*%
X196429464Y-133484880D02*
X196429464Y-132484880D01*
X196667559Y-132484880D01*
X196810416Y-132532500D01*
X196905654Y-132627738D01*
X196953273Y-132722976D01*
X197000892Y-132913452D01*
X197000892Y-133056309D01*
X196953273Y-133246785D01*
X196905654Y-133342023D01*
X196810416Y-133437261D01*
X196667559Y-133484880D01*
X196429464Y-133484880D01*
X197334226Y-132484880D02*
X197953273Y-132484880D01*
X197619940Y-132865833D01*
X197762797Y-132865833D01*
X197858035Y-132913452D01*
X197905654Y-132961071D01*
X197953273Y-133056309D01*
X197953273Y-133294404D01*
X197905654Y-133389642D01*
X197858035Y-133437261D01*
X197762797Y-133484880D01*
X197477083Y-133484880D01*
X197381845Y-133437261D01*
X197334226Y-133389642D01*
X198524702Y-132913452D02*
X198429464Y-132865833D01*
X198381845Y-132818214D01*
X198334226Y-132722976D01*
X198334226Y-132675357D01*
X198381845Y-132580119D01*
X198429464Y-132532500D01*
X198524702Y-132484880D01*
X198715178Y-132484880D01*
X198810416Y-132532500D01*
X198858035Y-132580119D01*
X198905654Y-132675357D01*
X198905654Y-132722976D01*
X198858035Y-132818214D01*
X198810416Y-132865833D01*
X198715178Y-132913452D01*
X198524702Y-132913452D01*
X198429464Y-132961071D01*
X198381845Y-133008690D01*
X198334226Y-133103928D01*
X198334226Y-133294404D01*
X198381845Y-133389642D01*
X198429464Y-133437261D01*
X198524702Y-133484880D01*
X198715178Y-133484880D01*
X198810416Y-133437261D01*
X198858035Y-133389642D01*
X198905654Y-133294404D01*
X198905654Y-133103928D01*
X198858035Y-133008690D01*
X198810416Y-132961071D01*
X198715178Y-132913452D01*
%TO.C,D39*%
X215479464Y-133484880D02*
X215479464Y-132484880D01*
X215717559Y-132484880D01*
X215860416Y-132532500D01*
X215955654Y-132627738D01*
X216003273Y-132722976D01*
X216050892Y-132913452D01*
X216050892Y-133056309D01*
X216003273Y-133246785D01*
X215955654Y-133342023D01*
X215860416Y-133437261D01*
X215717559Y-133484880D01*
X215479464Y-133484880D01*
X216384226Y-132484880D02*
X217003273Y-132484880D01*
X216669940Y-132865833D01*
X216812797Y-132865833D01*
X216908035Y-132913452D01*
X216955654Y-132961071D01*
X217003273Y-133056309D01*
X217003273Y-133294404D01*
X216955654Y-133389642D01*
X216908035Y-133437261D01*
X216812797Y-133484880D01*
X216527083Y-133484880D01*
X216431845Y-133437261D01*
X216384226Y-133389642D01*
X217479464Y-133484880D02*
X217669940Y-133484880D01*
X217765178Y-133437261D01*
X217812797Y-133389642D01*
X217908035Y-133246785D01*
X217955654Y-133056309D01*
X217955654Y-132675357D01*
X217908035Y-132580119D01*
X217860416Y-132532500D01*
X217765178Y-132484880D01*
X217574702Y-132484880D01*
X217479464Y-132532500D01*
X217431845Y-132580119D01*
X217384226Y-132675357D01*
X217384226Y-132913452D01*
X217431845Y-133008690D01*
X217479464Y-133056309D01*
X217574702Y-133103928D01*
X217765178Y-133103928D01*
X217860416Y-133056309D01*
X217908035Y-133008690D01*
X217955654Y-132913452D01*
%TO.C,D40*%
X234529464Y-133484880D02*
X234529464Y-132484880D01*
X234767559Y-132484880D01*
X234910416Y-132532500D01*
X235005654Y-132627738D01*
X235053273Y-132722976D01*
X235100892Y-132913452D01*
X235100892Y-133056309D01*
X235053273Y-133246785D01*
X235005654Y-133342023D01*
X234910416Y-133437261D01*
X234767559Y-133484880D01*
X234529464Y-133484880D01*
X235958035Y-132818214D02*
X235958035Y-133484880D01*
X235719940Y-132437261D02*
X235481845Y-133151547D01*
X236100892Y-133151547D01*
X236672321Y-132484880D02*
X236767559Y-132484880D01*
X236862797Y-132532500D01*
X236910416Y-132580119D01*
X236958035Y-132675357D01*
X237005654Y-132865833D01*
X237005654Y-133103928D01*
X236958035Y-133294404D01*
X236910416Y-133389642D01*
X236862797Y-133437261D01*
X236767559Y-133484880D01*
X236672321Y-133484880D01*
X236577083Y-133437261D01*
X236529464Y-133389642D01*
X236481845Y-133294404D01*
X236434226Y-133103928D01*
X236434226Y-132865833D01*
X236481845Y-132675357D01*
X236529464Y-132580119D01*
X236577083Y-132532500D01*
X236672321Y-132484880D01*
%TO.C,D41*%
X253579464Y-133484880D02*
X253579464Y-132484880D01*
X253817559Y-132484880D01*
X253960416Y-132532500D01*
X254055654Y-132627738D01*
X254103273Y-132722976D01*
X254150892Y-132913452D01*
X254150892Y-133056309D01*
X254103273Y-133246785D01*
X254055654Y-133342023D01*
X253960416Y-133437261D01*
X253817559Y-133484880D01*
X253579464Y-133484880D01*
X255008035Y-132818214D02*
X255008035Y-133484880D01*
X254769940Y-132437261D02*
X254531845Y-133151547D01*
X255150892Y-133151547D01*
X256055654Y-133484880D02*
X255484226Y-133484880D01*
X255769940Y-133484880D02*
X255769940Y-132484880D01*
X255674702Y-132627738D01*
X255579464Y-132722976D01*
X255484226Y-132770595D01*
%TO.C,D42*%
X272629464Y-133484880D02*
X272629464Y-132484880D01*
X272867559Y-132484880D01*
X273010416Y-132532500D01*
X273105654Y-132627738D01*
X273153273Y-132722976D01*
X273200892Y-132913452D01*
X273200892Y-133056309D01*
X273153273Y-133246785D01*
X273105654Y-133342023D01*
X273010416Y-133437261D01*
X272867559Y-133484880D01*
X272629464Y-133484880D01*
X274058035Y-132818214D02*
X274058035Y-133484880D01*
X273819940Y-132437261D02*
X273581845Y-133151547D01*
X274200892Y-133151547D01*
X274534226Y-132580119D02*
X274581845Y-132532500D01*
X274677083Y-132484880D01*
X274915178Y-132484880D01*
X275010416Y-132532500D01*
X275058035Y-132580119D01*
X275105654Y-132675357D01*
X275105654Y-132770595D01*
X275058035Y-132913452D01*
X274486607Y-133484880D01*
X275105654Y-133484880D01*
%TO.C,D44*%
X291679464Y-133484880D02*
X291679464Y-132484880D01*
X291917559Y-132484880D01*
X292060416Y-132532500D01*
X292155654Y-132627738D01*
X292203273Y-132722976D01*
X292250892Y-132913452D01*
X292250892Y-133056309D01*
X292203273Y-133246785D01*
X292155654Y-133342023D01*
X292060416Y-133437261D01*
X291917559Y-133484880D01*
X291679464Y-133484880D01*
X293108035Y-132818214D02*
X293108035Y-133484880D01*
X292869940Y-132437261D02*
X292631845Y-133151547D01*
X293250892Y-133151547D01*
X294060416Y-132818214D02*
X294060416Y-133484880D01*
X293822321Y-132437261D02*
X293584226Y-133151547D01*
X294203273Y-133151547D01*
%TO.C,D45*%
X334541964Y-152534880D02*
X334541964Y-151534880D01*
X334780059Y-151534880D01*
X334922916Y-151582500D01*
X335018154Y-151677738D01*
X335065773Y-151772976D01*
X335113392Y-151963452D01*
X335113392Y-152106309D01*
X335065773Y-152296785D01*
X335018154Y-152392023D01*
X334922916Y-152487261D01*
X334780059Y-152534880D01*
X334541964Y-152534880D01*
X335970535Y-151868214D02*
X335970535Y-152534880D01*
X335732440Y-151487261D02*
X335494345Y-152201547D01*
X336113392Y-152201547D01*
X336970535Y-151534880D02*
X336494345Y-151534880D01*
X336446726Y-152011071D01*
X336494345Y-151963452D01*
X336589583Y-151915833D01*
X336827678Y-151915833D01*
X336922916Y-151963452D01*
X336970535Y-152011071D01*
X337018154Y-152106309D01*
X337018154Y-152344404D01*
X336970535Y-152439642D01*
X336922916Y-152487261D01*
X336827678Y-152534880D01*
X336589583Y-152534880D01*
X336494345Y-152487261D01*
X336446726Y-152439642D01*
%TO.C,D46*%
X51173214Y-152534880D02*
X51173214Y-151534880D01*
X51411309Y-151534880D01*
X51554166Y-151582500D01*
X51649404Y-151677738D01*
X51697023Y-151772976D01*
X51744642Y-151963452D01*
X51744642Y-152106309D01*
X51697023Y-152296785D01*
X51649404Y-152392023D01*
X51554166Y-152487261D01*
X51411309Y-152534880D01*
X51173214Y-152534880D01*
X52601785Y-151868214D02*
X52601785Y-152534880D01*
X52363690Y-151487261D02*
X52125595Y-152201547D01*
X52744642Y-152201547D01*
X53554166Y-151534880D02*
X53363690Y-151534880D01*
X53268452Y-151582500D01*
X53220833Y-151630119D01*
X53125595Y-151772976D01*
X53077976Y-151963452D01*
X53077976Y-152344404D01*
X53125595Y-152439642D01*
X53173214Y-152487261D01*
X53268452Y-152534880D01*
X53458928Y-152534880D01*
X53554166Y-152487261D01*
X53601785Y-152439642D01*
X53649404Y-152344404D01*
X53649404Y-152106309D01*
X53601785Y-152011071D01*
X53554166Y-151963452D01*
X53458928Y-151915833D01*
X53268452Y-151915833D01*
X53173214Y-151963452D01*
X53125595Y-152011071D01*
X53077976Y-152106309D01*
%TO.C,D48*%
X91654464Y-152534880D02*
X91654464Y-151534880D01*
X91892559Y-151534880D01*
X92035416Y-151582500D01*
X92130654Y-151677738D01*
X92178273Y-151772976D01*
X92225892Y-151963452D01*
X92225892Y-152106309D01*
X92178273Y-152296785D01*
X92130654Y-152392023D01*
X92035416Y-152487261D01*
X91892559Y-152534880D01*
X91654464Y-152534880D01*
X93083035Y-151868214D02*
X93083035Y-152534880D01*
X92844940Y-151487261D02*
X92606845Y-152201547D01*
X93225892Y-152201547D01*
X93749702Y-151963452D02*
X93654464Y-151915833D01*
X93606845Y-151868214D01*
X93559226Y-151772976D01*
X93559226Y-151725357D01*
X93606845Y-151630119D01*
X93654464Y-151582500D01*
X93749702Y-151534880D01*
X93940178Y-151534880D01*
X94035416Y-151582500D01*
X94083035Y-151630119D01*
X94130654Y-151725357D01*
X94130654Y-151772976D01*
X94083035Y-151868214D01*
X94035416Y-151915833D01*
X93940178Y-151963452D01*
X93749702Y-151963452D01*
X93654464Y-152011071D01*
X93606845Y-152058690D01*
X93559226Y-152153928D01*
X93559226Y-152344404D01*
X93606845Y-152439642D01*
X93654464Y-152487261D01*
X93749702Y-152534880D01*
X93940178Y-152534880D01*
X94035416Y-152487261D01*
X94083035Y-152439642D01*
X94130654Y-152344404D01*
X94130654Y-152153928D01*
X94083035Y-152058690D01*
X94035416Y-152011071D01*
X93940178Y-151963452D01*
%TO.C,D49*%
X110704464Y-152534880D02*
X110704464Y-151534880D01*
X110942559Y-151534880D01*
X111085416Y-151582500D01*
X111180654Y-151677738D01*
X111228273Y-151772976D01*
X111275892Y-151963452D01*
X111275892Y-152106309D01*
X111228273Y-152296785D01*
X111180654Y-152392023D01*
X111085416Y-152487261D01*
X110942559Y-152534880D01*
X110704464Y-152534880D01*
X112133035Y-151868214D02*
X112133035Y-152534880D01*
X111894940Y-151487261D02*
X111656845Y-152201547D01*
X112275892Y-152201547D01*
X112704464Y-152534880D02*
X112894940Y-152534880D01*
X112990178Y-152487261D01*
X113037797Y-152439642D01*
X113133035Y-152296785D01*
X113180654Y-152106309D01*
X113180654Y-151725357D01*
X113133035Y-151630119D01*
X113085416Y-151582500D01*
X112990178Y-151534880D01*
X112799702Y-151534880D01*
X112704464Y-151582500D01*
X112656845Y-151630119D01*
X112609226Y-151725357D01*
X112609226Y-151963452D01*
X112656845Y-152058690D01*
X112704464Y-152106309D01*
X112799702Y-152153928D01*
X112990178Y-152153928D01*
X113085416Y-152106309D01*
X113133035Y-152058690D01*
X113180654Y-151963452D01*
%TO.C,D50*%
X129754464Y-152534880D02*
X129754464Y-151534880D01*
X129992559Y-151534880D01*
X130135416Y-151582500D01*
X130230654Y-151677738D01*
X130278273Y-151772976D01*
X130325892Y-151963452D01*
X130325892Y-152106309D01*
X130278273Y-152296785D01*
X130230654Y-152392023D01*
X130135416Y-152487261D01*
X129992559Y-152534880D01*
X129754464Y-152534880D01*
X131230654Y-151534880D02*
X130754464Y-151534880D01*
X130706845Y-152011071D01*
X130754464Y-151963452D01*
X130849702Y-151915833D01*
X131087797Y-151915833D01*
X131183035Y-151963452D01*
X131230654Y-152011071D01*
X131278273Y-152106309D01*
X131278273Y-152344404D01*
X131230654Y-152439642D01*
X131183035Y-152487261D01*
X131087797Y-152534880D01*
X130849702Y-152534880D01*
X130754464Y-152487261D01*
X130706845Y-152439642D01*
X131897321Y-151534880D02*
X131992559Y-151534880D01*
X132087797Y-151582500D01*
X132135416Y-151630119D01*
X132183035Y-151725357D01*
X132230654Y-151915833D01*
X132230654Y-152153928D01*
X132183035Y-152344404D01*
X132135416Y-152439642D01*
X132087797Y-152487261D01*
X131992559Y-152534880D01*
X131897321Y-152534880D01*
X131802083Y-152487261D01*
X131754464Y-152439642D01*
X131706845Y-152344404D01*
X131659226Y-152153928D01*
X131659226Y-151915833D01*
X131706845Y-151725357D01*
X131754464Y-151630119D01*
X131802083Y-151582500D01*
X131897321Y-151534880D01*
%TO.C,D51*%
X148804464Y-152534880D02*
X148804464Y-151534880D01*
X149042559Y-151534880D01*
X149185416Y-151582500D01*
X149280654Y-151677738D01*
X149328273Y-151772976D01*
X149375892Y-151963452D01*
X149375892Y-152106309D01*
X149328273Y-152296785D01*
X149280654Y-152392023D01*
X149185416Y-152487261D01*
X149042559Y-152534880D01*
X148804464Y-152534880D01*
X150280654Y-151534880D02*
X149804464Y-151534880D01*
X149756845Y-152011071D01*
X149804464Y-151963452D01*
X149899702Y-151915833D01*
X150137797Y-151915833D01*
X150233035Y-151963452D01*
X150280654Y-152011071D01*
X150328273Y-152106309D01*
X150328273Y-152344404D01*
X150280654Y-152439642D01*
X150233035Y-152487261D01*
X150137797Y-152534880D01*
X149899702Y-152534880D01*
X149804464Y-152487261D01*
X149756845Y-152439642D01*
X151280654Y-152534880D02*
X150709226Y-152534880D01*
X150994940Y-152534880D02*
X150994940Y-151534880D01*
X150899702Y-151677738D01*
X150804464Y-151772976D01*
X150709226Y-151820595D01*
%TO.C,D52*%
X167854464Y-152534880D02*
X167854464Y-151534880D01*
X168092559Y-151534880D01*
X168235416Y-151582500D01*
X168330654Y-151677738D01*
X168378273Y-151772976D01*
X168425892Y-151963452D01*
X168425892Y-152106309D01*
X168378273Y-152296785D01*
X168330654Y-152392023D01*
X168235416Y-152487261D01*
X168092559Y-152534880D01*
X167854464Y-152534880D01*
X169330654Y-151534880D02*
X168854464Y-151534880D01*
X168806845Y-152011071D01*
X168854464Y-151963452D01*
X168949702Y-151915833D01*
X169187797Y-151915833D01*
X169283035Y-151963452D01*
X169330654Y-152011071D01*
X169378273Y-152106309D01*
X169378273Y-152344404D01*
X169330654Y-152439642D01*
X169283035Y-152487261D01*
X169187797Y-152534880D01*
X168949702Y-152534880D01*
X168854464Y-152487261D01*
X168806845Y-152439642D01*
X169759226Y-151630119D02*
X169806845Y-151582500D01*
X169902083Y-151534880D01*
X170140178Y-151534880D01*
X170235416Y-151582500D01*
X170283035Y-151630119D01*
X170330654Y-151725357D01*
X170330654Y-151820595D01*
X170283035Y-151963452D01*
X169711607Y-152534880D01*
X170330654Y-152534880D01*
%TO.C,D53*%
X186904464Y-152534880D02*
X186904464Y-151534880D01*
X187142559Y-151534880D01*
X187285416Y-151582500D01*
X187380654Y-151677738D01*
X187428273Y-151772976D01*
X187475892Y-151963452D01*
X187475892Y-152106309D01*
X187428273Y-152296785D01*
X187380654Y-152392023D01*
X187285416Y-152487261D01*
X187142559Y-152534880D01*
X186904464Y-152534880D01*
X188380654Y-151534880D02*
X187904464Y-151534880D01*
X187856845Y-152011071D01*
X187904464Y-151963452D01*
X187999702Y-151915833D01*
X188237797Y-151915833D01*
X188333035Y-151963452D01*
X188380654Y-152011071D01*
X188428273Y-152106309D01*
X188428273Y-152344404D01*
X188380654Y-152439642D01*
X188333035Y-152487261D01*
X188237797Y-152534880D01*
X187999702Y-152534880D01*
X187904464Y-152487261D01*
X187856845Y-152439642D01*
X188761607Y-151534880D02*
X189380654Y-151534880D01*
X189047321Y-151915833D01*
X189190178Y-151915833D01*
X189285416Y-151963452D01*
X189333035Y-152011071D01*
X189380654Y-152106309D01*
X189380654Y-152344404D01*
X189333035Y-152439642D01*
X189285416Y-152487261D01*
X189190178Y-152534880D01*
X188904464Y-152534880D01*
X188809226Y-152487261D01*
X188761607Y-152439642D01*
%TO.C,D54*%
X205954464Y-152534880D02*
X205954464Y-151534880D01*
X206192559Y-151534880D01*
X206335416Y-151582500D01*
X206430654Y-151677738D01*
X206478273Y-151772976D01*
X206525892Y-151963452D01*
X206525892Y-152106309D01*
X206478273Y-152296785D01*
X206430654Y-152392023D01*
X206335416Y-152487261D01*
X206192559Y-152534880D01*
X205954464Y-152534880D01*
X207430654Y-151534880D02*
X206954464Y-151534880D01*
X206906845Y-152011071D01*
X206954464Y-151963452D01*
X207049702Y-151915833D01*
X207287797Y-151915833D01*
X207383035Y-151963452D01*
X207430654Y-152011071D01*
X207478273Y-152106309D01*
X207478273Y-152344404D01*
X207430654Y-152439642D01*
X207383035Y-152487261D01*
X207287797Y-152534880D01*
X207049702Y-152534880D01*
X206954464Y-152487261D01*
X206906845Y-152439642D01*
X208335416Y-151868214D02*
X208335416Y-152534880D01*
X208097321Y-151487261D02*
X207859226Y-152201547D01*
X208478273Y-152201547D01*
%TO.C,D55*%
X225004464Y-152534880D02*
X225004464Y-151534880D01*
X225242559Y-151534880D01*
X225385416Y-151582500D01*
X225480654Y-151677738D01*
X225528273Y-151772976D01*
X225575892Y-151963452D01*
X225575892Y-152106309D01*
X225528273Y-152296785D01*
X225480654Y-152392023D01*
X225385416Y-152487261D01*
X225242559Y-152534880D01*
X225004464Y-152534880D01*
X226480654Y-151534880D02*
X226004464Y-151534880D01*
X225956845Y-152011071D01*
X226004464Y-151963452D01*
X226099702Y-151915833D01*
X226337797Y-151915833D01*
X226433035Y-151963452D01*
X226480654Y-152011071D01*
X226528273Y-152106309D01*
X226528273Y-152344404D01*
X226480654Y-152439642D01*
X226433035Y-152487261D01*
X226337797Y-152534880D01*
X226099702Y-152534880D01*
X226004464Y-152487261D01*
X225956845Y-152439642D01*
X227433035Y-151534880D02*
X226956845Y-151534880D01*
X226909226Y-152011071D01*
X226956845Y-151963452D01*
X227052083Y-151915833D01*
X227290178Y-151915833D01*
X227385416Y-151963452D01*
X227433035Y-152011071D01*
X227480654Y-152106309D01*
X227480654Y-152344404D01*
X227433035Y-152439642D01*
X227385416Y-152487261D01*
X227290178Y-152534880D01*
X227052083Y-152534880D01*
X226956845Y-152487261D01*
X226909226Y-152439642D01*
%TO.C,D57*%
X263104464Y-152534880D02*
X263104464Y-151534880D01*
X263342559Y-151534880D01*
X263485416Y-151582500D01*
X263580654Y-151677738D01*
X263628273Y-151772976D01*
X263675892Y-151963452D01*
X263675892Y-152106309D01*
X263628273Y-152296785D01*
X263580654Y-152392023D01*
X263485416Y-152487261D01*
X263342559Y-152534880D01*
X263104464Y-152534880D01*
X264580654Y-151534880D02*
X264104464Y-151534880D01*
X264056845Y-152011071D01*
X264104464Y-151963452D01*
X264199702Y-151915833D01*
X264437797Y-151915833D01*
X264533035Y-151963452D01*
X264580654Y-152011071D01*
X264628273Y-152106309D01*
X264628273Y-152344404D01*
X264580654Y-152439642D01*
X264533035Y-152487261D01*
X264437797Y-152534880D01*
X264199702Y-152534880D01*
X264104464Y-152487261D01*
X264056845Y-152439642D01*
X264961607Y-151534880D02*
X265628273Y-151534880D01*
X265199702Y-152534880D01*
%TO.C,D58*%
X282154464Y-152534880D02*
X282154464Y-151534880D01*
X282392559Y-151534880D01*
X282535416Y-151582500D01*
X282630654Y-151677738D01*
X282678273Y-151772976D01*
X282725892Y-151963452D01*
X282725892Y-152106309D01*
X282678273Y-152296785D01*
X282630654Y-152392023D01*
X282535416Y-152487261D01*
X282392559Y-152534880D01*
X282154464Y-152534880D01*
X283630654Y-151534880D02*
X283154464Y-151534880D01*
X283106845Y-152011071D01*
X283154464Y-151963452D01*
X283249702Y-151915833D01*
X283487797Y-151915833D01*
X283583035Y-151963452D01*
X283630654Y-152011071D01*
X283678273Y-152106309D01*
X283678273Y-152344404D01*
X283630654Y-152439642D01*
X283583035Y-152487261D01*
X283487797Y-152534880D01*
X283249702Y-152534880D01*
X283154464Y-152487261D01*
X283106845Y-152439642D01*
X284249702Y-151963452D02*
X284154464Y-151915833D01*
X284106845Y-151868214D01*
X284059226Y-151772976D01*
X284059226Y-151725357D01*
X284106845Y-151630119D01*
X284154464Y-151582500D01*
X284249702Y-151534880D01*
X284440178Y-151534880D01*
X284535416Y-151582500D01*
X284583035Y-151630119D01*
X284630654Y-151725357D01*
X284630654Y-151772976D01*
X284583035Y-151868214D01*
X284535416Y-151915833D01*
X284440178Y-151963452D01*
X284249702Y-151963452D01*
X284154464Y-152011071D01*
X284106845Y-152058690D01*
X284059226Y-152153928D01*
X284059226Y-152344404D01*
X284106845Y-152439642D01*
X284154464Y-152487261D01*
X284249702Y-152534880D01*
X284440178Y-152534880D01*
X284535416Y-152487261D01*
X284583035Y-152439642D01*
X284630654Y-152344404D01*
X284630654Y-152153928D01*
X284583035Y-152058690D01*
X284535416Y-152011071D01*
X284440178Y-151963452D01*
%TO.C,D60*%
X353591964Y-152534880D02*
X353591964Y-151534880D01*
X353830059Y-151534880D01*
X353972916Y-151582500D01*
X354068154Y-151677738D01*
X354115773Y-151772976D01*
X354163392Y-151963452D01*
X354163392Y-152106309D01*
X354115773Y-152296785D01*
X354068154Y-152392023D01*
X353972916Y-152487261D01*
X353830059Y-152534880D01*
X353591964Y-152534880D01*
X355020535Y-151534880D02*
X354830059Y-151534880D01*
X354734821Y-151582500D01*
X354687202Y-151630119D01*
X354591964Y-151772976D01*
X354544345Y-151963452D01*
X354544345Y-152344404D01*
X354591964Y-152439642D01*
X354639583Y-152487261D01*
X354734821Y-152534880D01*
X354925297Y-152534880D01*
X355020535Y-152487261D01*
X355068154Y-152439642D01*
X355115773Y-152344404D01*
X355115773Y-152106309D01*
X355068154Y-152011071D01*
X355020535Y-151963452D01*
X354925297Y-151915833D01*
X354734821Y-151915833D01*
X354639583Y-151963452D01*
X354591964Y-152011071D01*
X354544345Y-152106309D01*
X355734821Y-151534880D02*
X355830059Y-151534880D01*
X355925297Y-151582500D01*
X355972916Y-151630119D01*
X356020535Y-151725357D01*
X356068154Y-151915833D01*
X356068154Y-152153928D01*
X356020535Y-152344404D01*
X355972916Y-152439642D01*
X355925297Y-152487261D01*
X355830059Y-152534880D01*
X355734821Y-152534880D01*
X355639583Y-152487261D01*
X355591964Y-152439642D01*
X355544345Y-152344404D01*
X355496726Y-152153928D01*
X355496726Y-151915833D01*
X355544345Y-151725357D01*
X355591964Y-151630119D01*
X355639583Y-151582500D01*
X355734821Y-151534880D01*
%TO.C,D61*%
X51173214Y-171584880D02*
X51173214Y-170584880D01*
X51411309Y-170584880D01*
X51554166Y-170632500D01*
X51649404Y-170727738D01*
X51697023Y-170822976D01*
X51744642Y-171013452D01*
X51744642Y-171156309D01*
X51697023Y-171346785D01*
X51649404Y-171442023D01*
X51554166Y-171537261D01*
X51411309Y-171584880D01*
X51173214Y-171584880D01*
X52601785Y-170584880D02*
X52411309Y-170584880D01*
X52316071Y-170632500D01*
X52268452Y-170680119D01*
X52173214Y-170822976D01*
X52125595Y-171013452D01*
X52125595Y-171394404D01*
X52173214Y-171489642D01*
X52220833Y-171537261D01*
X52316071Y-171584880D01*
X52506547Y-171584880D01*
X52601785Y-171537261D01*
X52649404Y-171489642D01*
X52697023Y-171394404D01*
X52697023Y-171156309D01*
X52649404Y-171061071D01*
X52601785Y-171013452D01*
X52506547Y-170965833D01*
X52316071Y-170965833D01*
X52220833Y-171013452D01*
X52173214Y-171061071D01*
X52125595Y-171156309D01*
X53649404Y-171584880D02*
X53077976Y-171584880D01*
X53363690Y-171584880D02*
X53363690Y-170584880D01*
X53268452Y-170727738D01*
X53173214Y-170822976D01*
X53077976Y-170870595D01*
%TO.C,D62*%
X74985714Y-171584880D02*
X74985714Y-170584880D01*
X75223809Y-170584880D01*
X75366666Y-170632500D01*
X75461904Y-170727738D01*
X75509523Y-170822976D01*
X75557142Y-171013452D01*
X75557142Y-171156309D01*
X75509523Y-171346785D01*
X75461904Y-171442023D01*
X75366666Y-171537261D01*
X75223809Y-171584880D01*
X74985714Y-171584880D01*
X76414285Y-170584880D02*
X76223809Y-170584880D01*
X76128571Y-170632500D01*
X76080952Y-170680119D01*
X75985714Y-170822976D01*
X75938095Y-171013452D01*
X75938095Y-171394404D01*
X75985714Y-171489642D01*
X76033333Y-171537261D01*
X76128571Y-171584880D01*
X76319047Y-171584880D01*
X76414285Y-171537261D01*
X76461904Y-171489642D01*
X76509523Y-171394404D01*
X76509523Y-171156309D01*
X76461904Y-171061071D01*
X76414285Y-171013452D01*
X76319047Y-170965833D01*
X76128571Y-170965833D01*
X76033333Y-171013452D01*
X75985714Y-171061071D01*
X75938095Y-171156309D01*
X76890476Y-170680119D02*
X76938095Y-170632500D01*
X77033333Y-170584880D01*
X77271428Y-170584880D01*
X77366666Y-170632500D01*
X77414285Y-170680119D01*
X77461904Y-170775357D01*
X77461904Y-170870595D01*
X77414285Y-171013452D01*
X76842857Y-171584880D01*
X77461904Y-171584880D01*
%TO.C,D63*%
X96416964Y-171584880D02*
X96416964Y-170584880D01*
X96655059Y-170584880D01*
X96797916Y-170632500D01*
X96893154Y-170727738D01*
X96940773Y-170822976D01*
X96988392Y-171013452D01*
X96988392Y-171156309D01*
X96940773Y-171346785D01*
X96893154Y-171442023D01*
X96797916Y-171537261D01*
X96655059Y-171584880D01*
X96416964Y-171584880D01*
X97845535Y-170584880D02*
X97655059Y-170584880D01*
X97559821Y-170632500D01*
X97512202Y-170680119D01*
X97416964Y-170822976D01*
X97369345Y-171013452D01*
X97369345Y-171394404D01*
X97416964Y-171489642D01*
X97464583Y-171537261D01*
X97559821Y-171584880D01*
X97750297Y-171584880D01*
X97845535Y-171537261D01*
X97893154Y-171489642D01*
X97940773Y-171394404D01*
X97940773Y-171156309D01*
X97893154Y-171061071D01*
X97845535Y-171013452D01*
X97750297Y-170965833D01*
X97559821Y-170965833D01*
X97464583Y-171013452D01*
X97416964Y-171061071D01*
X97369345Y-171156309D01*
X98274107Y-170584880D02*
X98893154Y-170584880D01*
X98559821Y-170965833D01*
X98702678Y-170965833D01*
X98797916Y-171013452D01*
X98845535Y-171061071D01*
X98893154Y-171156309D01*
X98893154Y-171394404D01*
X98845535Y-171489642D01*
X98797916Y-171537261D01*
X98702678Y-171584880D01*
X98416964Y-171584880D01*
X98321726Y-171537261D01*
X98274107Y-171489642D01*
%TO.C,D66*%
X163091964Y-173966130D02*
X163091964Y-172966130D01*
X163330059Y-172966130D01*
X163472916Y-173013750D01*
X163568154Y-173108988D01*
X163615773Y-173204226D01*
X163663392Y-173394702D01*
X163663392Y-173537559D01*
X163615773Y-173728035D01*
X163568154Y-173823273D01*
X163472916Y-173918511D01*
X163330059Y-173966130D01*
X163091964Y-173966130D01*
X164520535Y-172966130D02*
X164330059Y-172966130D01*
X164234821Y-173013750D01*
X164187202Y-173061369D01*
X164091964Y-173204226D01*
X164044345Y-173394702D01*
X164044345Y-173775654D01*
X164091964Y-173870892D01*
X164139583Y-173918511D01*
X164234821Y-173966130D01*
X164425297Y-173966130D01*
X164520535Y-173918511D01*
X164568154Y-173870892D01*
X164615773Y-173775654D01*
X164615773Y-173537559D01*
X164568154Y-173442321D01*
X164520535Y-173394702D01*
X164425297Y-173347083D01*
X164234821Y-173347083D01*
X164139583Y-173394702D01*
X164091964Y-173442321D01*
X164044345Y-173537559D01*
X165472916Y-172966130D02*
X165282440Y-172966130D01*
X165187202Y-173013750D01*
X165139583Y-173061369D01*
X165044345Y-173204226D01*
X164996726Y-173394702D01*
X164996726Y-173775654D01*
X165044345Y-173870892D01*
X165091964Y-173918511D01*
X165187202Y-173966130D01*
X165377678Y-173966130D01*
X165472916Y-173918511D01*
X165520535Y-173870892D01*
X165568154Y-173775654D01*
X165568154Y-173537559D01*
X165520535Y-173442321D01*
X165472916Y-173394702D01*
X165377678Y-173347083D01*
X165187202Y-173347083D01*
X165091964Y-173394702D01*
X165044345Y-173442321D01*
X164996726Y-173537559D01*
%TO.C,D68*%
X239291964Y-171584880D02*
X239291964Y-170584880D01*
X239530059Y-170584880D01*
X239672916Y-170632500D01*
X239768154Y-170727738D01*
X239815773Y-170822976D01*
X239863392Y-171013452D01*
X239863392Y-171156309D01*
X239815773Y-171346785D01*
X239768154Y-171442023D01*
X239672916Y-171537261D01*
X239530059Y-171584880D01*
X239291964Y-171584880D01*
X240720535Y-170584880D02*
X240530059Y-170584880D01*
X240434821Y-170632500D01*
X240387202Y-170680119D01*
X240291964Y-170822976D01*
X240244345Y-171013452D01*
X240244345Y-171394404D01*
X240291964Y-171489642D01*
X240339583Y-171537261D01*
X240434821Y-171584880D01*
X240625297Y-171584880D01*
X240720535Y-171537261D01*
X240768154Y-171489642D01*
X240815773Y-171394404D01*
X240815773Y-171156309D01*
X240768154Y-171061071D01*
X240720535Y-171013452D01*
X240625297Y-170965833D01*
X240434821Y-170965833D01*
X240339583Y-171013452D01*
X240291964Y-171061071D01*
X240244345Y-171156309D01*
X241387202Y-171013452D02*
X241291964Y-170965833D01*
X241244345Y-170918214D01*
X241196726Y-170822976D01*
X241196726Y-170775357D01*
X241244345Y-170680119D01*
X241291964Y-170632500D01*
X241387202Y-170584880D01*
X241577678Y-170584880D01*
X241672916Y-170632500D01*
X241720535Y-170680119D01*
X241768154Y-170775357D01*
X241768154Y-170822976D01*
X241720535Y-170918214D01*
X241672916Y-170965833D01*
X241577678Y-171013452D01*
X241387202Y-171013452D01*
X241291964Y-171061071D01*
X241244345Y-171108690D01*
X241196726Y-171203928D01*
X241196726Y-171394404D01*
X241244345Y-171489642D01*
X241291964Y-171537261D01*
X241387202Y-171584880D01*
X241577678Y-171584880D01*
X241672916Y-171537261D01*
X241720535Y-171489642D01*
X241768154Y-171394404D01*
X241768154Y-171203928D01*
X241720535Y-171108690D01*
X241672916Y-171061071D01*
X241577678Y-171013452D01*
%TO.C,D69*%
X258341964Y-171584880D02*
X258341964Y-170584880D01*
X258580059Y-170584880D01*
X258722916Y-170632500D01*
X258818154Y-170727738D01*
X258865773Y-170822976D01*
X258913392Y-171013452D01*
X258913392Y-171156309D01*
X258865773Y-171346785D01*
X258818154Y-171442023D01*
X258722916Y-171537261D01*
X258580059Y-171584880D01*
X258341964Y-171584880D01*
X259770535Y-170584880D02*
X259580059Y-170584880D01*
X259484821Y-170632500D01*
X259437202Y-170680119D01*
X259341964Y-170822976D01*
X259294345Y-171013452D01*
X259294345Y-171394404D01*
X259341964Y-171489642D01*
X259389583Y-171537261D01*
X259484821Y-171584880D01*
X259675297Y-171584880D01*
X259770535Y-171537261D01*
X259818154Y-171489642D01*
X259865773Y-171394404D01*
X259865773Y-171156309D01*
X259818154Y-171061071D01*
X259770535Y-171013452D01*
X259675297Y-170965833D01*
X259484821Y-170965833D01*
X259389583Y-171013452D01*
X259341964Y-171061071D01*
X259294345Y-171156309D01*
X260341964Y-171584880D02*
X260532440Y-171584880D01*
X260627678Y-171537261D01*
X260675297Y-171489642D01*
X260770535Y-171346785D01*
X260818154Y-171156309D01*
X260818154Y-170775357D01*
X260770535Y-170680119D01*
X260722916Y-170632500D01*
X260627678Y-170584880D01*
X260437202Y-170584880D01*
X260341964Y-170632500D01*
X260294345Y-170680119D01*
X260246726Y-170775357D01*
X260246726Y-171013452D01*
X260294345Y-171108690D01*
X260341964Y-171156309D01*
X260437202Y-171203928D01*
X260627678Y-171203928D01*
X260722916Y-171156309D01*
X260770535Y-171108690D01*
X260818154Y-171013452D01*
%TO.C,D70*%
X277391964Y-171584880D02*
X277391964Y-170584880D01*
X277630059Y-170584880D01*
X277772916Y-170632500D01*
X277868154Y-170727738D01*
X277915773Y-170822976D01*
X277963392Y-171013452D01*
X277963392Y-171156309D01*
X277915773Y-171346785D01*
X277868154Y-171442023D01*
X277772916Y-171537261D01*
X277630059Y-171584880D01*
X277391964Y-171584880D01*
X278296726Y-170584880D02*
X278963392Y-170584880D01*
X278534821Y-171584880D01*
X279534821Y-170584880D02*
X279630059Y-170584880D01*
X279725297Y-170632500D01*
X279772916Y-170680119D01*
X279820535Y-170775357D01*
X279868154Y-170965833D01*
X279868154Y-171203928D01*
X279820535Y-171394404D01*
X279772916Y-171489642D01*
X279725297Y-171537261D01*
X279630059Y-171584880D01*
X279534821Y-171584880D01*
X279439583Y-171537261D01*
X279391964Y-171489642D01*
X279344345Y-171394404D01*
X279296726Y-171203928D01*
X279296726Y-170965833D01*
X279344345Y-170775357D01*
X279391964Y-170680119D01*
X279439583Y-170632500D01*
X279534821Y-170584880D01*
%TO.C,D71*%
X296441964Y-173966130D02*
X296441964Y-172966130D01*
X296680059Y-172966130D01*
X296822916Y-173013750D01*
X296918154Y-173108988D01*
X296965773Y-173204226D01*
X297013392Y-173394702D01*
X297013392Y-173537559D01*
X296965773Y-173728035D01*
X296918154Y-173823273D01*
X296822916Y-173918511D01*
X296680059Y-173966130D01*
X296441964Y-173966130D01*
X297346726Y-172966130D02*
X298013392Y-172966130D01*
X297584821Y-173966130D01*
X298918154Y-173966130D02*
X298346726Y-173966130D01*
X298632440Y-173966130D02*
X298632440Y-172966130D01*
X298537202Y-173108988D01*
X298441964Y-173204226D01*
X298346726Y-173251845D01*
%TO.C,D72*%
X315491964Y-171584880D02*
X315491964Y-170584880D01*
X315730059Y-170584880D01*
X315872916Y-170632500D01*
X315968154Y-170727738D01*
X316015773Y-170822976D01*
X316063392Y-171013452D01*
X316063392Y-171156309D01*
X316015773Y-171346785D01*
X315968154Y-171442023D01*
X315872916Y-171537261D01*
X315730059Y-171584880D01*
X315491964Y-171584880D01*
X316396726Y-170584880D02*
X317063392Y-170584880D01*
X316634821Y-171584880D01*
X317396726Y-170680119D02*
X317444345Y-170632500D01*
X317539583Y-170584880D01*
X317777678Y-170584880D01*
X317872916Y-170632500D01*
X317920535Y-170680119D01*
X317968154Y-170775357D01*
X317968154Y-170870595D01*
X317920535Y-171013452D01*
X317349107Y-171584880D01*
X317968154Y-171584880D01*
%TO.C,D74*%
X353591964Y-171584880D02*
X353591964Y-170584880D01*
X353830059Y-170584880D01*
X353972916Y-170632500D01*
X354068154Y-170727738D01*
X354115773Y-170822976D01*
X354163392Y-171013452D01*
X354163392Y-171156309D01*
X354115773Y-171346785D01*
X354068154Y-171442023D01*
X353972916Y-171537261D01*
X353830059Y-171584880D01*
X353591964Y-171584880D01*
X354496726Y-170584880D02*
X355163392Y-170584880D01*
X354734821Y-171584880D01*
X355972916Y-170918214D02*
X355972916Y-171584880D01*
X355734821Y-170537261D02*
X355496726Y-171251547D01*
X356115773Y-171251547D01*
%TO.C,D15*%
X353591964Y-135866130D02*
X353591964Y-134866130D01*
X353830059Y-134866130D01*
X353972916Y-134913750D01*
X354068154Y-135008988D01*
X354115773Y-135104226D01*
X354163392Y-135294702D01*
X354163392Y-135437559D01*
X354115773Y-135628035D01*
X354068154Y-135723273D01*
X353972916Y-135818511D01*
X353830059Y-135866130D01*
X353591964Y-135866130D01*
X355115773Y-135866130D02*
X354544345Y-135866130D01*
X354830059Y-135866130D02*
X354830059Y-134866130D01*
X354734821Y-135008988D01*
X354639583Y-135104226D01*
X354544345Y-135151845D01*
X356020535Y-134866130D02*
X355544345Y-134866130D01*
X355496726Y-135342321D01*
X355544345Y-135294702D01*
X355639583Y-135247083D01*
X355877678Y-135247083D01*
X355972916Y-135294702D01*
X356020535Y-135342321D01*
X356068154Y-135437559D01*
X356068154Y-135675654D01*
X356020535Y-135770892D01*
X355972916Y-135818511D01*
X355877678Y-135866130D01*
X355639583Y-135866130D01*
X355544345Y-135818511D01*
X355496726Y-135770892D01*
%TO.C,DS1*%
X353591964Y-134252380D02*
X353591964Y-133252380D01*
X353830059Y-133252380D01*
X353972916Y-133300000D01*
X354068154Y-133395238D01*
X354115773Y-133490476D01*
X354163392Y-133680952D01*
X354163392Y-133823809D01*
X354115773Y-134014285D01*
X354068154Y-134109523D01*
X353972916Y-134204761D01*
X353830059Y-134252380D01*
X353591964Y-134252380D01*
X354544345Y-134204761D02*
X354687202Y-134252380D01*
X354925297Y-134252380D01*
X355020535Y-134204761D01*
X355068154Y-134157142D01*
X355115773Y-134061904D01*
X355115773Y-133966666D01*
X355068154Y-133871428D01*
X355020535Y-133823809D01*
X354925297Y-133776190D01*
X354734821Y-133728571D01*
X354639583Y-133680952D01*
X354591964Y-133633333D01*
X354544345Y-133538095D01*
X354544345Y-133442857D01*
X354591964Y-133347619D01*
X354639583Y-133300000D01*
X354734821Y-133252380D01*
X354972916Y-133252380D01*
X355115773Y-133300000D01*
X356068154Y-134252380D02*
X355496726Y-134252380D01*
X355782440Y-134252380D02*
X355782440Y-133252380D01*
X355687202Y-133395238D01*
X355591964Y-133490476D01*
X355496726Y-133538095D01*
%TO.C,U1*%
X354044345Y-110012380D02*
X354044345Y-110821904D01*
X354091964Y-110917142D01*
X354139583Y-110964761D01*
X354234821Y-111012380D01*
X354425297Y-111012380D01*
X354520535Y-110964761D01*
X354568154Y-110917142D01*
X354615773Y-110821904D01*
X354615773Y-110012380D01*
X355615773Y-111012380D02*
X355044345Y-111012380D01*
X355330059Y-111012380D02*
X355330059Y-110012380D01*
X355234821Y-110155238D01*
X355139583Y-110250476D01*
X355044345Y-110298095D01*
X352258630Y-113028571D02*
X352591964Y-113028571D01*
X352734821Y-113552380D02*
X352258630Y-113552380D01*
X352258630Y-112552380D01*
X352734821Y-112552380D01*
X353306250Y-113552380D02*
X353211011Y-113504761D01*
X353163392Y-113409523D01*
X353163392Y-112552380D01*
X353687202Y-113552380D02*
X353687202Y-112885714D01*
X353687202Y-112552380D02*
X353639583Y-112600000D01*
X353687202Y-112647619D01*
X353734821Y-112600000D01*
X353687202Y-112552380D01*
X353687202Y-112647619D01*
X354020535Y-112885714D02*
X354401488Y-112885714D01*
X354163392Y-112552380D02*
X354163392Y-113409523D01*
X354211011Y-113504761D01*
X354306250Y-113552380D01*
X354401488Y-113552380D01*
X355115773Y-113504761D02*
X355020535Y-113552380D01*
X354830059Y-113552380D01*
X354734821Y-113504761D01*
X354687202Y-113409523D01*
X354687202Y-113028571D01*
X354734821Y-112933333D01*
X354830059Y-112885714D01*
X355020535Y-112885714D01*
X355115773Y-112933333D01*
X355163392Y-113028571D01*
X355163392Y-113123809D01*
X354687202Y-113219047D01*
X355591964Y-113171428D02*
X356353869Y-113171428D01*
X357401488Y-113457142D02*
X357353869Y-113504761D01*
X357211011Y-113552380D01*
X357115773Y-113552380D01*
X356972916Y-113504761D01*
X356877678Y-113409523D01*
X356830059Y-113314285D01*
X356782440Y-113123809D01*
X356782440Y-112980952D01*
X356830059Y-112790476D01*
X356877678Y-112695238D01*
X356972916Y-112600000D01*
X357115773Y-112552380D01*
X357211011Y-112552380D01*
X357353869Y-112600000D01*
X357401488Y-112647619D01*
%TO.C,D56*%
X244054464Y-152534880D02*
X244054464Y-151534880D01*
X244292559Y-151534880D01*
X244435416Y-151582500D01*
X244530654Y-151677738D01*
X244578273Y-151772976D01*
X244625892Y-151963452D01*
X244625892Y-152106309D01*
X244578273Y-152296785D01*
X244530654Y-152392023D01*
X244435416Y-152487261D01*
X244292559Y-152534880D01*
X244054464Y-152534880D01*
X245530654Y-151534880D02*
X245054464Y-151534880D01*
X245006845Y-152011071D01*
X245054464Y-151963452D01*
X245149702Y-151915833D01*
X245387797Y-151915833D01*
X245483035Y-151963452D01*
X245530654Y-152011071D01*
X245578273Y-152106309D01*
X245578273Y-152344404D01*
X245530654Y-152439642D01*
X245483035Y-152487261D01*
X245387797Y-152534880D01*
X245149702Y-152534880D01*
X245054464Y-152487261D01*
X245006845Y-152439642D01*
X246435416Y-151534880D02*
X246244940Y-151534880D01*
X246149702Y-151582500D01*
X246102083Y-151630119D01*
X246006845Y-151772976D01*
X245959226Y-151963452D01*
X245959226Y-152344404D01*
X246006845Y-152439642D01*
X246054464Y-152487261D01*
X246149702Y-152534880D01*
X246340178Y-152534880D01*
X246435416Y-152487261D01*
X246483035Y-152439642D01*
X246530654Y-152344404D01*
X246530654Y-152106309D01*
X246483035Y-152011071D01*
X246435416Y-151963452D01*
X246340178Y-151915833D01*
X246149702Y-151915833D01*
X246054464Y-151963452D01*
X246006845Y-152011071D01*
X245959226Y-152106309D01*
%TO.C,D73*%
X334541964Y-171584880D02*
X334541964Y-170584880D01*
X334780059Y-170584880D01*
X334922916Y-170632500D01*
X335018154Y-170727738D01*
X335065773Y-170822976D01*
X335113392Y-171013452D01*
X335113392Y-171156309D01*
X335065773Y-171346785D01*
X335018154Y-171442023D01*
X334922916Y-171537261D01*
X334780059Y-171584880D01*
X334541964Y-171584880D01*
X335446726Y-170584880D02*
X336113392Y-170584880D01*
X335684821Y-171584880D01*
X336399107Y-170584880D02*
X337018154Y-170584880D01*
X336684821Y-170965833D01*
X336827678Y-170965833D01*
X336922916Y-171013452D01*
X336970535Y-171061071D01*
X337018154Y-171156309D01*
X337018154Y-171394404D01*
X336970535Y-171489642D01*
X336922916Y-171537261D01*
X336827678Y-171584880D01*
X336541964Y-171584880D01*
X336446726Y-171537261D01*
X336399107Y-171489642D01*
%TO.C,D43*%
X291679464Y-143009880D02*
X291679464Y-142009880D01*
X291917559Y-142009880D01*
X292060416Y-142057500D01*
X292155654Y-142152738D01*
X292203273Y-142247976D01*
X292250892Y-142438452D01*
X292250892Y-142581309D01*
X292203273Y-142771785D01*
X292155654Y-142867023D01*
X292060416Y-142962261D01*
X291917559Y-143009880D01*
X291679464Y-143009880D01*
X293108035Y-142343214D02*
X293108035Y-143009880D01*
X292869940Y-141962261D02*
X292631845Y-142676547D01*
X293250892Y-142676547D01*
X293536607Y-142009880D02*
X294155654Y-142009880D01*
X293822321Y-142390833D01*
X293965178Y-142390833D01*
X294060416Y-142438452D01*
X294108035Y-142486071D01*
X294155654Y-142581309D01*
X294155654Y-142819404D01*
X294108035Y-142914642D01*
X294060416Y-142962261D01*
X293965178Y-143009880D01*
X293679464Y-143009880D01*
X293584226Y-142962261D01*
X293536607Y-142914642D01*
%TO.C,D59*%
X334541964Y-162059880D02*
X334541964Y-161059880D01*
X334780059Y-161059880D01*
X334922916Y-161107500D01*
X335018154Y-161202738D01*
X335065773Y-161297976D01*
X335113392Y-161488452D01*
X335113392Y-161631309D01*
X335065773Y-161821785D01*
X335018154Y-161917023D01*
X334922916Y-162012261D01*
X334780059Y-162059880D01*
X334541964Y-162059880D01*
X336018154Y-161059880D02*
X335541964Y-161059880D01*
X335494345Y-161536071D01*
X335541964Y-161488452D01*
X335637202Y-161440833D01*
X335875297Y-161440833D01*
X335970535Y-161488452D01*
X336018154Y-161536071D01*
X336065773Y-161631309D01*
X336065773Y-161869404D01*
X336018154Y-161964642D01*
X335970535Y-162012261D01*
X335875297Y-162059880D01*
X335637202Y-162059880D01*
X335541964Y-162012261D01*
X335494345Y-161964642D01*
X336541964Y-162059880D02*
X336732440Y-162059880D01*
X336827678Y-162012261D01*
X336875297Y-161964642D01*
X336970535Y-161821785D01*
X337018154Y-161631309D01*
X337018154Y-161250357D01*
X336970535Y-161155119D01*
X336922916Y-161107500D01*
X336827678Y-161059880D01*
X336637202Y-161059880D01*
X336541964Y-161107500D01*
X336494345Y-161155119D01*
X336446726Y-161250357D01*
X336446726Y-161488452D01*
X336494345Y-161583690D01*
X336541964Y-161631309D01*
X336637202Y-161678928D01*
X336827678Y-161678928D01*
X336922916Y-161631309D01*
X336970535Y-161583690D01*
X337018154Y-161488452D01*
%TO.C,D67*%
X194048214Y-173966130D02*
X194048214Y-172966130D01*
X194286309Y-172966130D01*
X194429166Y-173013750D01*
X194524404Y-173108988D01*
X194572023Y-173204226D01*
X194619642Y-173394702D01*
X194619642Y-173537559D01*
X194572023Y-173728035D01*
X194524404Y-173823273D01*
X194429166Y-173918511D01*
X194286309Y-173966130D01*
X194048214Y-173966130D01*
X195476785Y-172966130D02*
X195286309Y-172966130D01*
X195191071Y-173013750D01*
X195143452Y-173061369D01*
X195048214Y-173204226D01*
X195000595Y-173394702D01*
X195000595Y-173775654D01*
X195048214Y-173870892D01*
X195095833Y-173918511D01*
X195191071Y-173966130D01*
X195381547Y-173966130D01*
X195476785Y-173918511D01*
X195524404Y-173870892D01*
X195572023Y-173775654D01*
X195572023Y-173537559D01*
X195524404Y-173442321D01*
X195476785Y-173394702D01*
X195381547Y-173347083D01*
X195191071Y-173347083D01*
X195095833Y-173394702D01*
X195048214Y-173442321D01*
X195000595Y-173537559D01*
X195905357Y-172966130D02*
X196572023Y-172966130D01*
X196143452Y-173966130D01*
%TO.C,D47*%
X91654464Y-162059880D02*
X91654464Y-161059880D01*
X91892559Y-161059880D01*
X92035416Y-161107500D01*
X92130654Y-161202738D01*
X92178273Y-161297976D01*
X92225892Y-161488452D01*
X92225892Y-161631309D01*
X92178273Y-161821785D01*
X92130654Y-161917023D01*
X92035416Y-162012261D01*
X91892559Y-162059880D01*
X91654464Y-162059880D01*
X93083035Y-161393214D02*
X93083035Y-162059880D01*
X92844940Y-161012261D02*
X92606845Y-161726547D01*
X93225892Y-161726547D01*
X93511607Y-161059880D02*
X94178273Y-161059880D01*
X93749702Y-162059880D01*
%TO.C,D64*%
X120229464Y-171584880D02*
X120229464Y-170584880D01*
X120467559Y-170584880D01*
X120610416Y-170632500D01*
X120705654Y-170727738D01*
X120753273Y-170822976D01*
X120800892Y-171013452D01*
X120800892Y-171156309D01*
X120753273Y-171346785D01*
X120705654Y-171442023D01*
X120610416Y-171537261D01*
X120467559Y-171584880D01*
X120229464Y-171584880D01*
X121658035Y-170584880D02*
X121467559Y-170584880D01*
X121372321Y-170632500D01*
X121324702Y-170680119D01*
X121229464Y-170822976D01*
X121181845Y-171013452D01*
X121181845Y-171394404D01*
X121229464Y-171489642D01*
X121277083Y-171537261D01*
X121372321Y-171584880D01*
X121562797Y-171584880D01*
X121658035Y-171537261D01*
X121705654Y-171489642D01*
X121753273Y-171394404D01*
X121753273Y-171156309D01*
X121705654Y-171061071D01*
X121658035Y-171013452D01*
X121562797Y-170965833D01*
X121372321Y-170965833D01*
X121277083Y-171013452D01*
X121229464Y-171061071D01*
X121181845Y-171156309D01*
X122610416Y-170918214D02*
X122610416Y-171584880D01*
X122372321Y-170537261D02*
X122134226Y-171251547D01*
X122753273Y-171251547D01*
%TO.C,D65*%
X158985714Y-173966130D02*
X158985714Y-172966130D01*
X159223809Y-172966130D01*
X159366666Y-173013750D01*
X159461904Y-173108988D01*
X159509523Y-173204226D01*
X159557142Y-173394702D01*
X159557142Y-173537559D01*
X159509523Y-173728035D01*
X159461904Y-173823273D01*
X159366666Y-173918511D01*
X159223809Y-173966130D01*
X158985714Y-173966130D01*
X160414285Y-172966130D02*
X160223809Y-172966130D01*
X160128571Y-173013750D01*
X160080952Y-173061369D01*
X159985714Y-173204226D01*
X159938095Y-173394702D01*
X159938095Y-173775654D01*
X159985714Y-173870892D01*
X160033333Y-173918511D01*
X160128571Y-173966130D01*
X160319047Y-173966130D01*
X160414285Y-173918511D01*
X160461904Y-173870892D01*
X160509523Y-173775654D01*
X160509523Y-173537559D01*
X160461904Y-173442321D01*
X160414285Y-173394702D01*
X160319047Y-173347083D01*
X160128571Y-173347083D01*
X160033333Y-173394702D01*
X159985714Y-173442321D01*
X159938095Y-173537559D01*
X161414285Y-172966130D02*
X160938095Y-172966130D01*
X160890476Y-173442321D01*
X160938095Y-173394702D01*
X161033333Y-173347083D01*
X161271428Y-173347083D01*
X161366666Y-173394702D01*
X161414285Y-173442321D01*
X161461904Y-173537559D01*
X161461904Y-173775654D01*
X161414285Y-173870892D01*
X161366666Y-173918511D01*
X161271428Y-173966130D01*
X161033333Y-173966130D01*
X160938095Y-173918511D01*
X160890476Y-173870892D01*
D11*
%TO.C,D1*%
X68056250Y-100923750D02*
X68056250Y-103893750D01*
X69056250Y-100653750D02*
X69056250Y-101943750D01*
X69056250Y-102043750D02*
X68526250Y-102993750D01*
X70056250Y-100913750D02*
X70056250Y-103903750D01*
X68056250Y-103903750D02*
X70056250Y-103903750D01*
X68526250Y-101943750D02*
X69586250Y-101943750D01*
X68526250Y-102993750D02*
X69586250Y-102993750D01*
X68056250Y-100913750D02*
X70056250Y-100913750D01*
X69056250Y-104133750D02*
X69056250Y-102993750D01*
X69056250Y-102043750D02*
X69586250Y-102993750D01*
%TO.C,D2*%
X87106250Y-103903750D02*
X89106250Y-103903750D01*
X87106250Y-100913750D02*
X89106250Y-100913750D01*
X87576250Y-102993750D02*
X88636250Y-102993750D01*
X88106250Y-102043750D02*
X88636250Y-102993750D01*
X88106250Y-100653750D02*
X88106250Y-101943750D01*
X88106250Y-104133750D02*
X88106250Y-102993750D01*
X87576250Y-101943750D02*
X88636250Y-101943750D01*
X87106250Y-100923750D02*
X87106250Y-103893750D01*
X89106250Y-100913750D02*
X89106250Y-103903750D01*
X88106250Y-102043750D02*
X87576250Y-102993750D01*
%TO.C,D3*%
X106626250Y-102993750D02*
X107686250Y-102993750D01*
X106156250Y-103903750D02*
X108156250Y-103903750D01*
X107156250Y-104133750D02*
X107156250Y-102993750D01*
X107156250Y-100653750D02*
X107156250Y-101943750D01*
X106156250Y-100923750D02*
X106156250Y-103893750D01*
X107156250Y-102043750D02*
X107686250Y-102993750D01*
X108156250Y-100913750D02*
X108156250Y-103903750D01*
X106156250Y-100913750D02*
X108156250Y-100913750D01*
X106626250Y-101943750D02*
X107686250Y-101943750D01*
X107156250Y-102043750D02*
X106626250Y-102993750D01*
%TO.C,D4*%
X125206250Y-100923750D02*
X125206250Y-103893750D01*
X126206250Y-100653750D02*
X126206250Y-101943750D01*
X125676250Y-102993750D02*
X126736250Y-102993750D01*
X125206250Y-103903750D02*
X127206250Y-103903750D01*
X125206250Y-100913750D02*
X127206250Y-100913750D01*
X127206250Y-100913750D02*
X127206250Y-103903750D01*
X126206250Y-104133750D02*
X126206250Y-102993750D01*
X126206250Y-102043750D02*
X126736250Y-102993750D01*
X126206250Y-102043750D02*
X125676250Y-102993750D01*
X125676250Y-101943750D02*
X126736250Y-101943750D01*
%TO.C,D5*%
X144256250Y-100913750D02*
X146256250Y-100913750D01*
X144726250Y-102993750D02*
X145786250Y-102993750D01*
X145256250Y-102043750D02*
X145786250Y-102993750D01*
X144256250Y-103903750D02*
X146256250Y-103903750D01*
X145256250Y-100653750D02*
X145256250Y-101943750D01*
X144726250Y-101943750D02*
X145786250Y-101943750D01*
X144256250Y-100923750D02*
X144256250Y-103893750D01*
X145256250Y-102043750D02*
X144726250Y-102993750D01*
X145256250Y-104133750D02*
X145256250Y-102993750D01*
X146256250Y-100913750D02*
X146256250Y-103903750D01*
%TO.C,D6*%
X163306250Y-100923750D02*
X163306250Y-103893750D01*
X164306250Y-100653750D02*
X164306250Y-101943750D01*
X163306250Y-103903750D02*
X165306250Y-103903750D01*
X163776250Y-101943750D02*
X164836250Y-101943750D01*
X164306250Y-104133750D02*
X164306250Y-102993750D01*
X164306250Y-102043750D02*
X163776250Y-102993750D01*
X164306250Y-102043750D02*
X164836250Y-102993750D01*
X165306250Y-100913750D02*
X165306250Y-103903750D01*
X163306250Y-100913750D02*
X165306250Y-100913750D01*
X163776250Y-102993750D02*
X164836250Y-102993750D01*
%TO.C,D7*%
X182356250Y-100913750D02*
X184356250Y-100913750D01*
X184356250Y-100913750D02*
X184356250Y-103903750D01*
X182826250Y-101943750D02*
X183886250Y-101943750D01*
X183356250Y-104133750D02*
X183356250Y-102993750D01*
X182356250Y-100923750D02*
X182356250Y-103893750D01*
X183356250Y-100653750D02*
X183356250Y-101943750D01*
X183356250Y-102043750D02*
X183886250Y-102993750D01*
X182356250Y-103903750D02*
X184356250Y-103903750D01*
X182826250Y-102993750D02*
X183886250Y-102993750D01*
X183356250Y-102043750D02*
X182826250Y-102993750D01*
%TO.C,D8*%
X202406250Y-100653750D02*
X202406250Y-101943750D01*
X201406250Y-100923750D02*
X201406250Y-103893750D01*
X201876250Y-101943750D02*
X202936250Y-101943750D01*
X202406250Y-102043750D02*
X201876250Y-102993750D01*
X202406250Y-102043750D02*
X202936250Y-102993750D01*
X201406250Y-100913750D02*
X203406250Y-100913750D01*
X203406250Y-100913750D02*
X203406250Y-103903750D01*
X202406250Y-104133750D02*
X202406250Y-102993750D01*
X201406250Y-103903750D02*
X203406250Y-103903750D01*
X201876250Y-102993750D02*
X202936250Y-102993750D01*
%TO.C,D9*%
X220926250Y-102993750D02*
X221986250Y-102993750D01*
X220926250Y-101943750D02*
X221986250Y-101943750D01*
X221456250Y-102043750D02*
X220926250Y-102993750D01*
X221456250Y-100653750D02*
X221456250Y-101943750D01*
X220456250Y-100923750D02*
X220456250Y-103893750D01*
X222456250Y-100913750D02*
X222456250Y-103903750D01*
X221456250Y-104133750D02*
X221456250Y-102993750D01*
X220456250Y-103903750D02*
X222456250Y-103903750D01*
X221456250Y-102043750D02*
X221986250Y-102993750D01*
X220456250Y-100913750D02*
X222456250Y-100913750D01*
%TO.C,D10*%
X239976250Y-101943750D02*
X241036250Y-101943750D01*
X241506250Y-100913750D02*
X241506250Y-103903750D01*
X240506250Y-104133750D02*
X240506250Y-102993750D01*
X239506250Y-100913750D02*
X241506250Y-100913750D01*
X240506250Y-102043750D02*
X239976250Y-102993750D01*
X239976250Y-102993750D02*
X241036250Y-102993750D01*
X240506250Y-102043750D02*
X241036250Y-102993750D01*
X239506250Y-100923750D02*
X239506250Y-103893750D01*
X239506250Y-103903750D02*
X241506250Y-103903750D01*
X240506250Y-100653750D02*
X240506250Y-101943750D01*
%TO.C,D11*%
X259026250Y-101943750D02*
X260086250Y-101943750D01*
X259556250Y-104133750D02*
X259556250Y-102993750D01*
X258556250Y-100923750D02*
X258556250Y-103893750D01*
X259556250Y-102043750D02*
X259026250Y-102993750D01*
X259556250Y-100653750D02*
X259556250Y-101943750D01*
X259556250Y-102043750D02*
X260086250Y-102993750D01*
X258556250Y-100913750D02*
X260556250Y-100913750D01*
X259026250Y-102993750D02*
X260086250Y-102993750D01*
X258556250Y-103903750D02*
X260556250Y-103903750D01*
X260556250Y-100913750D02*
X260556250Y-103903750D01*
%TO.C,D12*%
X277606250Y-103903750D02*
X279606250Y-103903750D01*
X278076250Y-102993750D02*
X279136250Y-102993750D01*
X277606250Y-100913750D02*
X279606250Y-100913750D01*
X278606250Y-100653750D02*
X278606250Y-101943750D01*
X278076250Y-101943750D02*
X279136250Y-101943750D01*
X278606250Y-102043750D02*
X279136250Y-102993750D01*
X278606250Y-102043750D02*
X278076250Y-102993750D01*
X279606250Y-100913750D02*
X279606250Y-103903750D01*
X277606250Y-100923750D02*
X277606250Y-103893750D01*
X278606250Y-104133750D02*
X278606250Y-102993750D01*
%TO.C,D13*%
X296656250Y-100923750D02*
X296656250Y-103893750D01*
X296656250Y-100913750D02*
X298656250Y-100913750D01*
X297656250Y-100653750D02*
X297656250Y-101943750D01*
X297656250Y-104133750D02*
X297656250Y-102993750D01*
X297126250Y-102993750D02*
X298186250Y-102993750D01*
X298656250Y-100913750D02*
X298656250Y-103903750D01*
X297126250Y-101943750D02*
X298186250Y-101943750D01*
X297656250Y-102043750D02*
X297126250Y-102993750D01*
X297656250Y-102043750D02*
X298186250Y-102993750D01*
X296656250Y-103903750D02*
X298656250Y-103903750D01*
%TO.C,D14*%
X333375000Y-100653750D02*
X333375000Y-101943750D01*
X334375000Y-100913750D02*
X334375000Y-103903750D01*
X333375000Y-104133750D02*
X333375000Y-102993750D01*
X333375000Y-102043750D02*
X333905000Y-102993750D01*
X332375000Y-100913750D02*
X334375000Y-100913750D01*
X332375000Y-100923750D02*
X332375000Y-103893750D01*
X332845000Y-102993750D02*
X333905000Y-102993750D01*
X332845000Y-101943750D02*
X333905000Y-101943750D01*
X333375000Y-102043750D02*
X332845000Y-102993750D01*
X332375000Y-103903750D02*
X334375000Y-103903750D01*
%TO.C,D16*%
X53387500Y-117582500D02*
X53387500Y-120572500D01*
X52387500Y-117322500D02*
X52387500Y-118612500D01*
X51387500Y-117582500D02*
X53387500Y-117582500D01*
X52387500Y-118712500D02*
X51857500Y-119662500D01*
X51387500Y-117592500D02*
X51387500Y-120562500D01*
X51857500Y-118612500D02*
X52917500Y-118612500D01*
X51387500Y-120572500D02*
X53387500Y-120572500D01*
X52387500Y-118712500D02*
X52917500Y-119662500D01*
X51857500Y-119662500D02*
X52917500Y-119662500D01*
X52387500Y-120802500D02*
X52387500Y-119662500D01*
%TO.C,D17*%
X77581250Y-120572500D02*
X79581250Y-120572500D01*
X78051250Y-118612500D02*
X79111250Y-118612500D01*
X78581250Y-118712500D02*
X79111250Y-119662500D01*
X78051250Y-119662500D02*
X79111250Y-119662500D01*
X78581250Y-118712500D02*
X78051250Y-119662500D01*
X78581250Y-117322500D02*
X78581250Y-118612500D01*
X77581250Y-117592500D02*
X77581250Y-120562500D01*
X79581250Y-117582500D02*
X79581250Y-120572500D01*
X77581250Y-117582500D02*
X79581250Y-117582500D01*
X78581250Y-120802500D02*
X78581250Y-119662500D01*
%TO.C,D18*%
X98631250Y-117582500D02*
X98631250Y-120572500D01*
X96631250Y-117592500D02*
X96631250Y-120562500D01*
X97631250Y-118712500D02*
X98161250Y-119662500D01*
X97101250Y-118612500D02*
X98161250Y-118612500D01*
X96631250Y-120572500D02*
X98631250Y-120572500D01*
X97631250Y-118712500D02*
X97101250Y-119662500D01*
X97101250Y-119662500D02*
X98161250Y-119662500D01*
X97631250Y-117322500D02*
X97631250Y-118612500D01*
X96631250Y-117582500D02*
X98631250Y-117582500D01*
X97631250Y-120802500D02*
X97631250Y-119662500D01*
%TO.C,D19*%
X116151250Y-119662500D02*
X117211250Y-119662500D01*
X116151250Y-118612500D02*
X117211250Y-118612500D01*
X116681250Y-118712500D02*
X116151250Y-119662500D01*
X116681250Y-118712500D02*
X117211250Y-119662500D01*
X115681250Y-120572500D02*
X117681250Y-120572500D01*
X115681250Y-117582500D02*
X117681250Y-117582500D01*
X116681250Y-120802500D02*
X116681250Y-119662500D01*
X115681250Y-117592500D02*
X115681250Y-120562500D01*
X117681250Y-117582500D02*
X117681250Y-120572500D01*
X116681250Y-117322500D02*
X116681250Y-118612500D01*
%TO.C,D20*%
X135201250Y-118612500D02*
X136261250Y-118612500D01*
X134731250Y-117582500D02*
X136731250Y-117582500D01*
X135731250Y-118712500D02*
X136261250Y-119662500D01*
X134731250Y-117592500D02*
X134731250Y-120562500D01*
X135731250Y-118712500D02*
X135201250Y-119662500D01*
X136731250Y-117582500D02*
X136731250Y-120572500D01*
X134731250Y-120572500D02*
X136731250Y-120572500D01*
X135731250Y-117322500D02*
X135731250Y-118612500D01*
X135731250Y-120802500D02*
X135731250Y-119662500D01*
X135201250Y-119662500D02*
X136261250Y-119662500D01*
%TO.C,D21*%
X155781250Y-117582500D02*
X155781250Y-120572500D01*
X153781250Y-117592500D02*
X153781250Y-120562500D01*
X154781250Y-117322500D02*
X154781250Y-118612500D01*
X153781250Y-117582500D02*
X155781250Y-117582500D01*
X154781250Y-118712500D02*
X155311250Y-119662500D01*
X153781250Y-120572500D02*
X155781250Y-120572500D01*
X154251250Y-118612500D02*
X155311250Y-118612500D01*
X154781250Y-118712500D02*
X154251250Y-119662500D01*
X154781250Y-120802500D02*
X154781250Y-119662500D01*
X154251250Y-119662500D02*
X155311250Y-119662500D01*
%TO.C,D22*%
X173831250Y-118712500D02*
X174361250Y-119662500D01*
X172831250Y-117592500D02*
X172831250Y-120562500D01*
X172831250Y-117582500D02*
X174831250Y-117582500D01*
X173831250Y-120802500D02*
X173831250Y-119662500D01*
X174831250Y-117582500D02*
X174831250Y-120572500D01*
X173831250Y-118712500D02*
X173301250Y-119662500D01*
X173831250Y-117322500D02*
X173831250Y-118612500D01*
X173301250Y-118612500D02*
X174361250Y-118612500D01*
X173301250Y-119662500D02*
X174361250Y-119662500D01*
X172831250Y-120572500D02*
X174831250Y-120572500D01*
%TO.C,D23*%
X192881250Y-118712500D02*
X193411250Y-119662500D01*
X192881250Y-120802500D02*
X192881250Y-119662500D01*
X191881250Y-117592500D02*
X191881250Y-120562500D01*
X192881250Y-118712500D02*
X192351250Y-119662500D01*
X193881250Y-117582500D02*
X193881250Y-120572500D01*
X192881250Y-117322500D02*
X192881250Y-118612500D01*
X191881250Y-117582500D02*
X193881250Y-117582500D01*
X192351250Y-118612500D02*
X193411250Y-118612500D01*
X191881250Y-120572500D02*
X193881250Y-120572500D01*
X192351250Y-119662500D02*
X193411250Y-119662500D01*
%TO.C,D24*%
X210931250Y-120572500D02*
X212931250Y-120572500D01*
X211931250Y-120802500D02*
X211931250Y-119662500D01*
X210931250Y-117582500D02*
X212931250Y-117582500D01*
X212931250Y-117582500D02*
X212931250Y-120572500D01*
X210931250Y-117592500D02*
X210931250Y-120562500D01*
X211931250Y-118712500D02*
X212461250Y-119662500D01*
X211931250Y-118712500D02*
X211401250Y-119662500D01*
X211401250Y-119662500D02*
X212461250Y-119662500D01*
X211401250Y-118612500D02*
X212461250Y-118612500D01*
X211931250Y-117322500D02*
X211931250Y-118612500D01*
%TO.C,D25*%
X230981250Y-118712500D02*
X231511250Y-119662500D01*
X230981250Y-118712500D02*
X230451250Y-119662500D01*
X229981250Y-120572500D02*
X231981250Y-120572500D01*
X231981250Y-117582500D02*
X231981250Y-120572500D01*
X229981250Y-117582500D02*
X231981250Y-117582500D01*
X230981250Y-117322500D02*
X230981250Y-118612500D01*
X229981250Y-117592500D02*
X229981250Y-120562500D01*
X230451250Y-118612500D02*
X231511250Y-118612500D01*
X230981250Y-120802500D02*
X230981250Y-119662500D01*
X230451250Y-119662500D02*
X231511250Y-119662500D01*
%TO.C,D26*%
X249031250Y-117592500D02*
X249031250Y-120562500D01*
X249031250Y-117582500D02*
X251031250Y-117582500D01*
X249501250Y-118612500D02*
X250561250Y-118612500D01*
X251031250Y-117582500D02*
X251031250Y-120572500D01*
X250031250Y-118712500D02*
X249501250Y-119662500D01*
X249031250Y-120572500D02*
X251031250Y-120572500D01*
X250031250Y-118712500D02*
X250561250Y-119662500D01*
X250031250Y-120802500D02*
X250031250Y-119662500D01*
X250031250Y-117322500D02*
X250031250Y-118612500D01*
X249501250Y-119662500D02*
X250561250Y-119662500D01*
%TO.C,D27*%
X269081250Y-117322500D02*
X269081250Y-118612500D01*
X268081250Y-120572500D02*
X270081250Y-120572500D01*
X268551250Y-119662500D02*
X269611250Y-119662500D01*
X268081250Y-117592500D02*
X268081250Y-120562500D01*
X268551250Y-118612500D02*
X269611250Y-118612500D01*
X268081250Y-117582500D02*
X270081250Y-117582500D01*
X269081250Y-118712500D02*
X268551250Y-119662500D01*
X269081250Y-118712500D02*
X269611250Y-119662500D01*
X270081250Y-117582500D02*
X270081250Y-120572500D01*
X269081250Y-120802500D02*
X269081250Y-119662500D01*
%TO.C,D28*%
X287131250Y-117592500D02*
X287131250Y-120562500D01*
X288131250Y-120802500D02*
X288131250Y-119662500D01*
X287601250Y-118612500D02*
X288661250Y-118612500D01*
X288131250Y-118712500D02*
X287601250Y-119662500D01*
X288131250Y-117322500D02*
X288131250Y-118612500D01*
X289131250Y-117582500D02*
X289131250Y-120572500D01*
X287131250Y-120572500D02*
X289131250Y-120572500D01*
X287601250Y-119662500D02*
X288661250Y-119662500D01*
X287131250Y-117582500D02*
X289131250Y-117582500D01*
X288131250Y-118712500D02*
X288661250Y-119662500D01*
%TO.C,D29*%
X309562500Y-118712500D02*
X309032500Y-119662500D01*
X309562500Y-118712500D02*
X310092500Y-119662500D01*
X309562500Y-117322500D02*
X309562500Y-118612500D01*
X309562500Y-120802500D02*
X309562500Y-119662500D01*
X310562500Y-117582500D02*
X310562500Y-120572500D01*
X308562500Y-117582500D02*
X310562500Y-117582500D01*
X309032500Y-119662500D02*
X310092500Y-119662500D01*
X308562500Y-120572500D02*
X310562500Y-120572500D01*
X308562500Y-117592500D02*
X308562500Y-120562500D01*
X309032500Y-118612500D02*
X310092500Y-118612500D01*
%TO.C,D30*%
X334756250Y-139013750D02*
X336756250Y-139013750D01*
X334756250Y-142003750D02*
X336756250Y-142003750D01*
X335756250Y-140143750D02*
X335226250Y-141093750D01*
X335756250Y-142233750D02*
X335756250Y-141093750D01*
X335756250Y-138753750D02*
X335756250Y-140043750D01*
X334756250Y-139023750D02*
X334756250Y-141993750D01*
X335226250Y-140043750D02*
X336286250Y-140043750D01*
X335756250Y-140143750D02*
X336286250Y-141093750D01*
X336756250Y-139013750D02*
X336756250Y-142003750D01*
X335226250Y-141093750D02*
X336286250Y-141093750D01*
%TO.C,D31*%
X52387500Y-137762500D02*
X52917500Y-138712500D01*
X51857500Y-138712500D02*
X52917500Y-138712500D01*
X52387500Y-137762500D02*
X51857500Y-138712500D01*
X52387500Y-139852500D02*
X52387500Y-138712500D01*
X53387500Y-136632500D02*
X53387500Y-139622500D01*
X51857500Y-137662500D02*
X52917500Y-137662500D01*
X52387500Y-136372500D02*
X52387500Y-137662500D01*
X51387500Y-139622500D02*
X53387500Y-139622500D01*
X51387500Y-136642500D02*
X51387500Y-139612500D01*
X51387500Y-136632500D02*
X53387500Y-136632500D01*
%TO.C,D32*%
X83343750Y-137762500D02*
X82813750Y-138712500D01*
X83343750Y-136372500D02*
X83343750Y-137662500D01*
X82343750Y-136642500D02*
X82343750Y-139612500D01*
X82343750Y-136632500D02*
X84343750Y-136632500D01*
X84343750Y-136632500D02*
X84343750Y-139622500D01*
X82343750Y-139622500D02*
X84343750Y-139622500D01*
X83343750Y-139852500D02*
X83343750Y-138712500D01*
X83343750Y-137762500D02*
X83873750Y-138712500D01*
X82813750Y-138712500D02*
X83873750Y-138712500D01*
X82813750Y-137662500D02*
X83873750Y-137662500D01*
%TO.C,D33*%
X102393750Y-139852500D02*
X102393750Y-138712500D01*
X102393750Y-136372500D02*
X102393750Y-137662500D01*
X102393750Y-137762500D02*
X101863750Y-138712500D01*
X101393750Y-136642500D02*
X101393750Y-139612500D01*
X101863750Y-137662500D02*
X102923750Y-137662500D01*
X103393750Y-136632500D02*
X103393750Y-139622500D01*
X101393750Y-136632500D02*
X103393750Y-136632500D01*
X102393750Y-137762500D02*
X102923750Y-138712500D01*
X101393750Y-139622500D02*
X103393750Y-139622500D01*
X101863750Y-138712500D02*
X102923750Y-138712500D01*
%TO.C,D34*%
X120443750Y-136632500D02*
X122443750Y-136632500D01*
X121443750Y-136372500D02*
X121443750Y-137662500D01*
X121443750Y-139852500D02*
X121443750Y-138712500D01*
X120443750Y-136642500D02*
X120443750Y-139612500D01*
X120913750Y-137662500D02*
X121973750Y-137662500D01*
X121443750Y-137762500D02*
X120913750Y-138712500D01*
X120913750Y-138712500D02*
X121973750Y-138712500D01*
X121443750Y-137762500D02*
X121973750Y-138712500D01*
X122443750Y-136632500D02*
X122443750Y-139622500D01*
X120443750Y-139622500D02*
X122443750Y-139622500D01*
%TO.C,D35*%
X141493750Y-136632500D02*
X141493750Y-139622500D01*
X139493750Y-136642500D02*
X139493750Y-139612500D01*
X140493750Y-136372500D02*
X140493750Y-137662500D01*
X140493750Y-137762500D02*
X141023750Y-138712500D01*
X140493750Y-139852500D02*
X140493750Y-138712500D01*
X139963750Y-137662500D02*
X141023750Y-137662500D01*
X139493750Y-136632500D02*
X141493750Y-136632500D01*
X139493750Y-139622500D02*
X141493750Y-139622500D01*
X139963750Y-138712500D02*
X141023750Y-138712500D01*
X140493750Y-137762500D02*
X139963750Y-138712500D01*
%TO.C,D36*%
X159543750Y-137762500D02*
X159013750Y-138712500D01*
X159543750Y-137762500D02*
X160073750Y-138712500D01*
X159013750Y-137662500D02*
X160073750Y-137662500D01*
X158543750Y-136632500D02*
X160543750Y-136632500D01*
X159013750Y-138712500D02*
X160073750Y-138712500D01*
X159543750Y-139852500D02*
X159543750Y-138712500D01*
X158543750Y-136642500D02*
X158543750Y-139612500D01*
X158543750Y-139622500D02*
X160543750Y-139622500D01*
X159543750Y-136372500D02*
X159543750Y-137662500D01*
X160543750Y-136632500D02*
X160543750Y-139622500D01*
%TO.C,D37*%
X177593750Y-139622500D02*
X179593750Y-139622500D01*
X177593750Y-136642500D02*
X177593750Y-139612500D01*
X178593750Y-139852500D02*
X178593750Y-138712500D01*
X178593750Y-137762500D02*
X179123750Y-138712500D01*
X178063750Y-138712500D02*
X179123750Y-138712500D01*
X179593750Y-136632500D02*
X179593750Y-139622500D01*
X178593750Y-136372500D02*
X178593750Y-137662500D01*
X178593750Y-137762500D02*
X178063750Y-138712500D01*
X177593750Y-136632500D02*
X179593750Y-136632500D01*
X178063750Y-137662500D02*
X179123750Y-137662500D01*
%TO.C,D38*%
X197643750Y-136372500D02*
X197643750Y-137662500D01*
X197113750Y-138712500D02*
X198173750Y-138712500D01*
X196643750Y-136632500D02*
X198643750Y-136632500D01*
X197643750Y-137762500D02*
X197113750Y-138712500D01*
X197113750Y-137662500D02*
X198173750Y-137662500D01*
X196643750Y-139622500D02*
X198643750Y-139622500D01*
X197643750Y-139852500D02*
X197643750Y-138712500D01*
X196643750Y-136642500D02*
X196643750Y-139612500D01*
X198643750Y-136632500D02*
X198643750Y-139622500D01*
X197643750Y-137762500D02*
X198173750Y-138712500D01*
%TO.C,D39*%
X216693750Y-137762500D02*
X216163750Y-138712500D01*
X216693750Y-137762500D02*
X217223750Y-138712500D01*
X216693750Y-136372500D02*
X216693750Y-137662500D01*
X215693750Y-139622500D02*
X217693750Y-139622500D01*
X215693750Y-136642500D02*
X215693750Y-139612500D01*
X216163750Y-138712500D02*
X217223750Y-138712500D01*
X216163750Y-137662500D02*
X217223750Y-137662500D01*
X217693750Y-136632500D02*
X217693750Y-139622500D01*
X215693750Y-136632500D02*
X217693750Y-136632500D01*
X216693750Y-139852500D02*
X216693750Y-138712500D01*
%TO.C,D40*%
X235213750Y-137662500D02*
X236273750Y-137662500D01*
X234743750Y-136642500D02*
X234743750Y-139612500D01*
X235743750Y-137762500D02*
X235213750Y-138712500D01*
X235743750Y-136372500D02*
X235743750Y-137662500D01*
X235743750Y-137762500D02*
X236273750Y-138712500D01*
X236743750Y-136632500D02*
X236743750Y-139622500D01*
X235743750Y-139852500D02*
X235743750Y-138712500D01*
X234743750Y-139622500D02*
X236743750Y-139622500D01*
X234743750Y-136632500D02*
X236743750Y-136632500D01*
X235213750Y-138712500D02*
X236273750Y-138712500D01*
%TO.C,D41*%
X254793750Y-139852500D02*
X254793750Y-138712500D01*
X253793750Y-136632500D02*
X255793750Y-136632500D01*
X255793750Y-136632500D02*
X255793750Y-139622500D01*
X253793750Y-136642500D02*
X253793750Y-139612500D01*
X254793750Y-136372500D02*
X254793750Y-137662500D01*
X253793750Y-139622500D02*
X255793750Y-139622500D01*
X254793750Y-137762500D02*
X254263750Y-138712500D01*
X254263750Y-138712500D02*
X255323750Y-138712500D01*
X254263750Y-137662500D02*
X255323750Y-137662500D01*
X254793750Y-137762500D02*
X255323750Y-138712500D01*
%TO.C,D42*%
X273313750Y-138712500D02*
X274373750Y-138712500D01*
X272843750Y-136642500D02*
X272843750Y-139612500D01*
X272843750Y-139622500D02*
X274843750Y-139622500D01*
X274843750Y-136632500D02*
X274843750Y-139622500D01*
X273843750Y-136372500D02*
X273843750Y-137662500D01*
X273313750Y-137662500D02*
X274373750Y-137662500D01*
X273843750Y-137762500D02*
X273313750Y-138712500D01*
X273843750Y-137762500D02*
X274373750Y-138712500D01*
X272843750Y-136632500D02*
X274843750Y-136632500D01*
X273843750Y-139852500D02*
X273843750Y-138712500D01*
%TO.C,D44*%
X292893750Y-137762500D02*
X292363750Y-138712500D01*
X291893750Y-139622500D02*
X293893750Y-139622500D01*
X292363750Y-137662500D02*
X293423750Y-137662500D01*
X291893750Y-136642500D02*
X291893750Y-139612500D01*
X292893750Y-137762500D02*
X293423750Y-138712500D01*
X292363750Y-138712500D02*
X293423750Y-138712500D01*
X292893750Y-139852500D02*
X292893750Y-138712500D01*
X293893750Y-136632500D02*
X293893750Y-139622500D01*
X291893750Y-136632500D02*
X293893750Y-136632500D01*
X292893750Y-136372500D02*
X292893750Y-137662500D01*
%TO.C,D45*%
X335756250Y-156812500D02*
X335226250Y-157762500D01*
X334756250Y-158672500D02*
X336756250Y-158672500D01*
X334756250Y-155682500D02*
X336756250Y-155682500D01*
X334756250Y-155692500D02*
X334756250Y-158662500D01*
X335756250Y-155422500D02*
X335756250Y-156712500D01*
X335226250Y-156712500D02*
X336286250Y-156712500D01*
X335226250Y-157762500D02*
X336286250Y-157762500D01*
X336756250Y-155682500D02*
X336756250Y-158672500D01*
X335756250Y-158902500D02*
X335756250Y-157762500D01*
X335756250Y-156812500D02*
X336286250Y-157762500D01*
%TO.C,D46*%
X51387500Y-158672500D02*
X53387500Y-158672500D01*
X53387500Y-155682500D02*
X53387500Y-158672500D01*
X52387500Y-156812500D02*
X52917500Y-157762500D01*
X52387500Y-156812500D02*
X51857500Y-157762500D01*
X52387500Y-158902500D02*
X52387500Y-157762500D01*
X51387500Y-155692500D02*
X51387500Y-158662500D01*
X51857500Y-157762500D02*
X52917500Y-157762500D01*
X51857500Y-156712500D02*
X52917500Y-156712500D01*
X51387500Y-155682500D02*
X53387500Y-155682500D01*
X52387500Y-155422500D02*
X52387500Y-156712500D01*
%TO.C,D48*%
X93868750Y-155682500D02*
X93868750Y-158672500D01*
X92868750Y-156812500D02*
X92338750Y-157762500D01*
X92338750Y-157762500D02*
X93398750Y-157762500D01*
X92868750Y-158902500D02*
X92868750Y-157762500D01*
X92868750Y-156812500D02*
X93398750Y-157762500D01*
X91868750Y-158672500D02*
X93868750Y-158672500D01*
X91868750Y-155692500D02*
X91868750Y-158662500D01*
X92338750Y-156712500D02*
X93398750Y-156712500D01*
X91868750Y-155682500D02*
X93868750Y-155682500D01*
X92868750Y-155422500D02*
X92868750Y-156712500D01*
%TO.C,D49*%
X111918750Y-158902500D02*
X111918750Y-157762500D01*
X111388750Y-157762500D02*
X112448750Y-157762500D01*
X111918750Y-156812500D02*
X111388750Y-157762500D01*
X110918750Y-158672500D02*
X112918750Y-158672500D01*
X110918750Y-155682500D02*
X112918750Y-155682500D01*
X110918750Y-155692500D02*
X110918750Y-158662500D01*
X111918750Y-156812500D02*
X112448750Y-157762500D01*
X111388750Y-156712500D02*
X112448750Y-156712500D01*
X111918750Y-155422500D02*
X111918750Y-156712500D01*
X112918750Y-155682500D02*
X112918750Y-158672500D01*
%TO.C,D50*%
X130968750Y-156812500D02*
X130438750Y-157762500D01*
X129968750Y-155692500D02*
X129968750Y-158662500D01*
X130968750Y-158902500D02*
X130968750Y-157762500D01*
X130438750Y-156712500D02*
X131498750Y-156712500D01*
X130438750Y-157762500D02*
X131498750Y-157762500D01*
X129968750Y-155682500D02*
X131968750Y-155682500D01*
X129968750Y-158672500D02*
X131968750Y-158672500D01*
X131968750Y-155682500D02*
X131968750Y-158672500D01*
X130968750Y-156812500D02*
X131498750Y-157762500D01*
X130968750Y-155422500D02*
X130968750Y-156712500D01*
%TO.C,D51*%
X150018750Y-156812500D02*
X150548750Y-157762500D01*
X149018750Y-155692500D02*
X149018750Y-158662500D01*
X149018750Y-155682500D02*
X151018750Y-155682500D01*
X150018750Y-158902500D02*
X150018750Y-157762500D01*
X151018750Y-155682500D02*
X151018750Y-158672500D01*
X149488750Y-156712500D02*
X150548750Y-156712500D01*
X150018750Y-155422500D02*
X150018750Y-156712500D01*
X149018750Y-158672500D02*
X151018750Y-158672500D01*
X149488750Y-157762500D02*
X150548750Y-157762500D01*
X150018750Y-156812500D02*
X149488750Y-157762500D01*
%TO.C,D52*%
X169068750Y-156812500D02*
X168538750Y-157762500D01*
X169068750Y-155422500D02*
X169068750Y-156712500D01*
X168068750Y-155692500D02*
X168068750Y-158662500D01*
X170068750Y-155682500D02*
X170068750Y-158672500D01*
X168538750Y-156712500D02*
X169598750Y-156712500D01*
X169068750Y-156812500D02*
X169598750Y-157762500D01*
X168068750Y-158672500D02*
X170068750Y-158672500D01*
X169068750Y-158902500D02*
X169068750Y-157762500D01*
X168538750Y-157762500D02*
X169598750Y-157762500D01*
X168068750Y-155682500D02*
X170068750Y-155682500D01*
%TO.C,D53*%
X188118750Y-158902500D02*
X188118750Y-157762500D01*
X187118750Y-155682500D02*
X189118750Y-155682500D01*
X187588750Y-157762500D02*
X188648750Y-157762500D01*
X187588750Y-156712500D02*
X188648750Y-156712500D01*
X189118750Y-155682500D02*
X189118750Y-158672500D01*
X187118750Y-155692500D02*
X187118750Y-158662500D01*
X188118750Y-156812500D02*
X188648750Y-157762500D01*
X188118750Y-156812500D02*
X187588750Y-157762500D01*
X187118750Y-158672500D02*
X189118750Y-158672500D01*
X188118750Y-155422500D02*
X188118750Y-156712500D01*
%TO.C,D54*%
X206168750Y-155692500D02*
X206168750Y-158662500D01*
X207168750Y-155422500D02*
X207168750Y-156712500D01*
X207168750Y-156812500D02*
X207698750Y-157762500D01*
X206168750Y-155682500D02*
X208168750Y-155682500D01*
X208168750Y-155682500D02*
X208168750Y-158672500D01*
X207168750Y-158902500D02*
X207168750Y-157762500D01*
X206638750Y-156712500D02*
X207698750Y-156712500D01*
X206638750Y-157762500D02*
X207698750Y-157762500D01*
X206168750Y-158672500D02*
X208168750Y-158672500D01*
X207168750Y-156812500D02*
X206638750Y-157762500D01*
%TO.C,D55*%
X226218750Y-156812500D02*
X226748750Y-157762500D01*
X225688750Y-156712500D02*
X226748750Y-156712500D01*
X225218750Y-155692500D02*
X225218750Y-158662500D01*
X226218750Y-158902500D02*
X226218750Y-157762500D01*
X226218750Y-156812500D02*
X225688750Y-157762500D01*
X225688750Y-157762500D02*
X226748750Y-157762500D01*
X226218750Y-155422500D02*
X226218750Y-156712500D01*
X225218750Y-158672500D02*
X227218750Y-158672500D01*
X227218750Y-155682500D02*
X227218750Y-158672500D01*
X225218750Y-155682500D02*
X227218750Y-155682500D01*
%TO.C,D57*%
X263318750Y-155692500D02*
X263318750Y-158662500D01*
X264318750Y-155422500D02*
X264318750Y-156712500D01*
X265318750Y-155682500D02*
X265318750Y-158672500D01*
X264318750Y-158902500D02*
X264318750Y-157762500D01*
X263788750Y-157762500D02*
X264848750Y-157762500D01*
X263318750Y-155682500D02*
X265318750Y-155682500D01*
X263788750Y-156712500D02*
X264848750Y-156712500D01*
X264318750Y-156812500D02*
X264848750Y-157762500D01*
X264318750Y-156812500D02*
X263788750Y-157762500D01*
X263318750Y-158672500D02*
X265318750Y-158672500D01*
%TO.C,D58*%
X282368750Y-158672500D02*
X284368750Y-158672500D01*
X283368750Y-155422500D02*
X283368750Y-156712500D01*
X282838750Y-156712500D02*
X283898750Y-156712500D01*
X282838750Y-157762500D02*
X283898750Y-157762500D01*
X284368750Y-155682500D02*
X284368750Y-158672500D01*
X283368750Y-158902500D02*
X283368750Y-157762500D01*
X282368750Y-155692500D02*
X282368750Y-158662500D01*
X282368750Y-155682500D02*
X284368750Y-155682500D01*
X283368750Y-156812500D02*
X282838750Y-157762500D01*
X283368750Y-156812500D02*
X283898750Y-157762500D01*
%TO.C,D60*%
X353806250Y-155692500D02*
X353806250Y-158662500D01*
X354806250Y-155422500D02*
X354806250Y-156712500D01*
X355806250Y-155682500D02*
X355806250Y-158672500D01*
X353806250Y-158672500D02*
X355806250Y-158672500D01*
X354806250Y-156812500D02*
X354276250Y-157762500D01*
X353806250Y-155682500D02*
X355806250Y-155682500D01*
X354806250Y-158902500D02*
X354806250Y-157762500D01*
X354806250Y-156812500D02*
X355336250Y-157762500D01*
X354276250Y-157762500D02*
X355336250Y-157762500D01*
X354276250Y-156712500D02*
X355336250Y-156712500D01*
%TO.C,D61*%
X51387500Y-174742500D02*
X51387500Y-177712500D01*
X52387500Y-175862500D02*
X52917500Y-176812500D01*
X51387500Y-177722500D02*
X53387500Y-177722500D01*
X53387500Y-174732500D02*
X53387500Y-177722500D01*
X52387500Y-174472500D02*
X52387500Y-175762500D01*
X52387500Y-175862500D02*
X51857500Y-176812500D01*
X51857500Y-175762500D02*
X52917500Y-175762500D01*
X51857500Y-176812500D02*
X52917500Y-176812500D01*
X52387500Y-177952500D02*
X52387500Y-176812500D01*
X51387500Y-174732500D02*
X53387500Y-174732500D01*
%TO.C,D62*%
X76200000Y-174472500D02*
X76200000Y-175762500D01*
X76200000Y-177952500D02*
X76200000Y-176812500D01*
X75670000Y-175762500D02*
X76730000Y-175762500D01*
X75200000Y-174742500D02*
X75200000Y-177712500D01*
X77200000Y-174732500D02*
X77200000Y-177722500D01*
X76200000Y-175862500D02*
X75670000Y-176812500D01*
X76200000Y-175862500D02*
X76730000Y-176812500D01*
X75200000Y-174732500D02*
X77200000Y-174732500D01*
X75670000Y-176812500D02*
X76730000Y-176812500D01*
X75200000Y-177722500D02*
X77200000Y-177722500D01*
%TO.C,D63*%
X96631250Y-174742500D02*
X96631250Y-177712500D01*
X97101250Y-176812500D02*
X98161250Y-176812500D01*
X96631250Y-177722500D02*
X98631250Y-177722500D01*
X97631250Y-175862500D02*
X97101250Y-176812500D01*
X97631250Y-177952500D02*
X97631250Y-176812500D01*
X98631250Y-174732500D02*
X98631250Y-177722500D01*
X97631250Y-175862500D02*
X98161250Y-176812500D01*
X96631250Y-174732500D02*
X98631250Y-174732500D01*
X97101250Y-175762500D02*
X98161250Y-175762500D01*
X97631250Y-174472500D02*
X97631250Y-175762500D01*
%TO.C,D66*%
X164306250Y-176853750D02*
X164306250Y-178143750D01*
X163776250Y-179193750D02*
X164836250Y-179193750D01*
X164306250Y-178243750D02*
X164836250Y-179193750D01*
X163306250Y-180103750D02*
X165306250Y-180103750D01*
X163306250Y-177123750D02*
X163306250Y-180093750D01*
X165306250Y-177113750D02*
X165306250Y-180103750D01*
X164306250Y-178243750D02*
X163776250Y-179193750D01*
X163306250Y-177113750D02*
X165306250Y-177113750D01*
X164306250Y-180333750D02*
X164306250Y-179193750D01*
X163776250Y-178143750D02*
X164836250Y-178143750D01*
%TO.C,D68*%
X239506250Y-174732500D02*
X241506250Y-174732500D01*
X239506250Y-177722500D02*
X241506250Y-177722500D01*
X240506250Y-177952500D02*
X240506250Y-176812500D01*
X239506250Y-174742500D02*
X239506250Y-177712500D01*
X240506250Y-175862500D02*
X241036250Y-176812500D01*
X239976250Y-176812500D02*
X241036250Y-176812500D01*
X240506250Y-174472500D02*
X240506250Y-175762500D01*
X241506250Y-174732500D02*
X241506250Y-177722500D01*
X240506250Y-175862500D02*
X239976250Y-176812500D01*
X239976250Y-175762500D02*
X241036250Y-175762500D01*
%TO.C,D69*%
X258556250Y-177722500D02*
X260556250Y-177722500D01*
X259556250Y-177952500D02*
X259556250Y-176812500D01*
X259026250Y-175762500D02*
X260086250Y-175762500D01*
X258556250Y-174732500D02*
X260556250Y-174732500D01*
X259026250Y-176812500D02*
X260086250Y-176812500D01*
X260556250Y-174732500D02*
X260556250Y-177722500D01*
X258556250Y-174742500D02*
X258556250Y-177712500D01*
X259556250Y-175862500D02*
X259026250Y-176812500D01*
X259556250Y-174472500D02*
X259556250Y-175762500D01*
X259556250Y-175862500D02*
X260086250Y-176812500D01*
%TO.C,D70*%
X278606250Y-175862500D02*
X278076250Y-176812500D01*
X278076250Y-175762500D02*
X279136250Y-175762500D01*
X278606250Y-175862500D02*
X279136250Y-176812500D01*
X278606250Y-177952500D02*
X278606250Y-176812500D01*
X277606250Y-177722500D02*
X279606250Y-177722500D01*
X277606250Y-174732500D02*
X279606250Y-174732500D01*
X277606250Y-174742500D02*
X277606250Y-177712500D01*
X279606250Y-174732500D02*
X279606250Y-177722500D01*
X278076250Y-176812500D02*
X279136250Y-176812500D01*
X278606250Y-174472500D02*
X278606250Y-175762500D01*
%TO.C,D71*%
X298656250Y-177113750D02*
X298656250Y-180103750D01*
X296656250Y-177113750D02*
X298656250Y-177113750D01*
X297126250Y-179193750D02*
X298186250Y-179193750D01*
X296656250Y-180103750D02*
X298656250Y-180103750D01*
X297126250Y-178143750D02*
X298186250Y-178143750D01*
X296656250Y-177123750D02*
X296656250Y-180093750D01*
X297656250Y-176853750D02*
X297656250Y-178143750D01*
X297656250Y-178243750D02*
X298186250Y-179193750D01*
X297656250Y-178243750D02*
X297126250Y-179193750D01*
X297656250Y-180333750D02*
X297656250Y-179193750D01*
%TO.C,D72*%
X315706250Y-177722500D02*
X317706250Y-177722500D01*
X316176250Y-176812500D02*
X317236250Y-176812500D01*
X316706250Y-177952500D02*
X316706250Y-176812500D01*
X315706250Y-174732500D02*
X317706250Y-174732500D01*
X315706250Y-174742500D02*
X315706250Y-177712500D01*
X316706250Y-175862500D02*
X317236250Y-176812500D01*
X316176250Y-175762500D02*
X317236250Y-175762500D01*
X317706250Y-174732500D02*
X317706250Y-177722500D01*
X316706250Y-175862500D02*
X316176250Y-176812500D01*
X316706250Y-174472500D02*
X316706250Y-175762500D01*
%TO.C,D74*%
X353806250Y-174742500D02*
X353806250Y-177712500D01*
X354276250Y-175762500D02*
X355336250Y-175762500D01*
X354806250Y-174472500D02*
X354806250Y-175762500D01*
X353806250Y-177722500D02*
X355806250Y-177722500D01*
X354276250Y-176812500D02*
X355336250Y-176812500D01*
X354806250Y-175862500D02*
X354276250Y-176812500D01*
X354806250Y-175862500D02*
X355336250Y-176812500D01*
X355806250Y-174732500D02*
X355806250Y-177722500D01*
X353806250Y-174732500D02*
X355806250Y-174732500D01*
X354806250Y-177952500D02*
X354806250Y-176812500D01*
%TO.C,D15*%
X353806250Y-142003750D02*
X355806250Y-142003750D01*
X354806250Y-142233750D02*
X354806250Y-141093750D01*
X354806250Y-138753750D02*
X354806250Y-140043750D01*
X353806250Y-139023750D02*
X353806250Y-141993750D01*
X354276250Y-141093750D02*
X355336250Y-141093750D01*
X355806250Y-139013750D02*
X355806250Y-142003750D01*
X354806250Y-140143750D02*
X355336250Y-141093750D01*
X354276250Y-140043750D02*
X355336250Y-140043750D01*
X353806250Y-139013750D02*
X355806250Y-139013750D01*
X354806250Y-140143750D02*
X354276250Y-141093750D01*
%TO.C,DS1*%
X349806250Y-132461000D02*
X349806250Y-130048000D01*
X359806250Y-132461000D02*
X349806250Y-132461000D01*
X359806250Y-132461000D02*
X359806250Y-130048000D01*
X349806250Y-130048000D02*
X359806250Y-130048000D01*
%TO.C,D56*%
X246268750Y-155682500D02*
X246268750Y-158672500D01*
X244268750Y-158672500D02*
X246268750Y-158672500D01*
X245268750Y-155422500D02*
X245268750Y-156712500D01*
X244268750Y-155682500D02*
X246268750Y-155682500D01*
X245268750Y-156812500D02*
X244738750Y-157762500D01*
X245268750Y-158902500D02*
X245268750Y-157762500D01*
X244738750Y-156712500D02*
X245798750Y-156712500D01*
X244738750Y-157762500D02*
X245798750Y-157762500D01*
X245268750Y-156812500D02*
X245798750Y-157762500D01*
X244268750Y-155692500D02*
X244268750Y-158662500D01*
%TO.C,D73*%
X334756250Y-174742500D02*
X334756250Y-177712500D01*
X335226250Y-176812500D02*
X336286250Y-176812500D01*
X334756250Y-174732500D02*
X336756250Y-174732500D01*
X334756250Y-177722500D02*
X336756250Y-177722500D01*
X335756250Y-175862500D02*
X335226250Y-176812500D01*
X335756250Y-174472500D02*
X335756250Y-175762500D01*
X336756250Y-174732500D02*
X336756250Y-177722500D01*
X335756250Y-175862500D02*
X336286250Y-176812500D01*
X335226250Y-175762500D02*
X336286250Y-175762500D01*
X335756250Y-177952500D02*
X335756250Y-176812500D01*
%TO.C,D43*%
X293893750Y-146157500D02*
X293893750Y-149147500D01*
X292363750Y-147187500D02*
X293423750Y-147187500D01*
X291893750Y-149147500D02*
X293893750Y-149147500D01*
X292363750Y-148237500D02*
X293423750Y-148237500D01*
X292893750Y-149377500D02*
X292893750Y-148237500D01*
X291893750Y-146167500D02*
X291893750Y-149137500D01*
X292893750Y-147287500D02*
X292363750Y-148237500D01*
X292893750Y-145897500D02*
X292893750Y-147187500D01*
X292893750Y-147287500D02*
X293423750Y-148237500D01*
X291893750Y-146157500D02*
X293893750Y-146157500D01*
%TO.C,D59*%
X334756250Y-168197500D02*
X336756250Y-168197500D01*
X335756250Y-166337500D02*
X335226250Y-167287500D01*
X335756250Y-164947500D02*
X335756250Y-166237500D01*
X334756250Y-165217500D02*
X334756250Y-168187500D01*
X335756250Y-166337500D02*
X336286250Y-167287500D01*
X335226250Y-166237500D02*
X336286250Y-166237500D01*
X336756250Y-165207500D02*
X336756250Y-168197500D01*
X335226250Y-167287500D02*
X336286250Y-167287500D01*
X335756250Y-168427500D02*
X335756250Y-167287500D01*
X334756250Y-165207500D02*
X336756250Y-165207500D01*
%TO.C,D67*%
X194732500Y-179193750D02*
X195792500Y-179193750D01*
X194262500Y-177113750D02*
X196262500Y-177113750D01*
X195262500Y-180333750D02*
X195262500Y-179193750D01*
X194262500Y-177123750D02*
X194262500Y-180093750D01*
X195262500Y-178243750D02*
X195792500Y-179193750D01*
X195262500Y-178243750D02*
X194732500Y-179193750D01*
X194262500Y-180103750D02*
X196262500Y-180103750D01*
X196262500Y-177113750D02*
X196262500Y-180103750D01*
X194732500Y-178143750D02*
X195792500Y-178143750D01*
X195262500Y-176853750D02*
X195262500Y-178143750D01*
%TO.C,D47*%
X92868750Y-168427500D02*
X92868750Y-167287500D01*
X93868750Y-165207500D02*
X93868750Y-168197500D01*
X92868750Y-166337500D02*
X92338750Y-167287500D01*
X92868750Y-166337500D02*
X93398750Y-167287500D01*
X92338750Y-166237500D02*
X93398750Y-166237500D01*
X92338750Y-167287500D02*
X93398750Y-167287500D01*
X91868750Y-165217500D02*
X91868750Y-168187500D01*
X91868750Y-168197500D02*
X93868750Y-168197500D01*
X92868750Y-164947500D02*
X92868750Y-166237500D01*
X91868750Y-165207500D02*
X93868750Y-165207500D01*
%TO.C,D64*%
X121443750Y-177952500D02*
X121443750Y-176812500D01*
X121443750Y-174472500D02*
X121443750Y-175762500D01*
X120443750Y-177722500D02*
X122443750Y-177722500D01*
X121443750Y-175862500D02*
X121973750Y-176812500D01*
X120913750Y-176812500D02*
X121973750Y-176812500D01*
X122443750Y-174732500D02*
X122443750Y-177722500D01*
X120913750Y-175762500D02*
X121973750Y-175762500D01*
X121443750Y-175862500D02*
X120913750Y-176812500D01*
X120443750Y-174742500D02*
X120443750Y-177712500D01*
X120443750Y-174732500D02*
X122443750Y-174732500D01*
%TO.C,D65*%
X160200000Y-176853750D02*
X160200000Y-178143750D01*
X160200000Y-180333750D02*
X160200000Y-179193750D01*
X159200000Y-177123750D02*
X159200000Y-180093750D01*
X160200000Y-178243750D02*
X160730000Y-179193750D01*
X159200000Y-177113750D02*
X161200000Y-177113750D01*
X159670000Y-178143750D02*
X160730000Y-178143750D01*
X160200000Y-178243750D02*
X159670000Y-179193750D01*
X159200000Y-180103750D02*
X161200000Y-180103750D01*
X159670000Y-179193750D02*
X160730000Y-179193750D01*
X161200000Y-177113750D02*
X161200000Y-180103750D01*
%TD*%
%LPC*%
D10*
X353235714Y-188571130D02*
X353235714Y-187571130D01*
X353473809Y-187571130D01*
X353616666Y-187618750D01*
X353711904Y-187713988D01*
X353759523Y-187809226D01*
X353807142Y-187999702D01*
X353807142Y-188142559D01*
X353759523Y-188333035D01*
X353711904Y-188428273D01*
X353616666Y-188523511D01*
X353473809Y-188571130D01*
X353235714Y-188571130D01*
X354616666Y-188523511D02*
X354521428Y-188571130D01*
X354330952Y-188571130D01*
X354235714Y-188523511D01*
X354188095Y-188428273D01*
X354188095Y-188047321D01*
X354235714Y-187952083D01*
X354330952Y-187904464D01*
X354521428Y-187904464D01*
X354616666Y-187952083D01*
X354664285Y-188047321D01*
X354664285Y-188142559D01*
X354188095Y-188237797D01*
X355045238Y-188523511D02*
X355140476Y-188571130D01*
X355330952Y-188571130D01*
X355426190Y-188523511D01*
X355473809Y-188428273D01*
X355473809Y-188380654D01*
X355426190Y-188285416D01*
X355330952Y-188237797D01*
X355188095Y-188237797D01*
X355092857Y-188190178D01*
X355045238Y-188094940D01*
X355045238Y-188047321D01*
X355092857Y-187952083D01*
X355188095Y-187904464D01*
X355330952Y-187904464D01*
X355426190Y-187952083D01*
X355902380Y-188571130D02*
X355902380Y-187904464D01*
X355902380Y-187571130D02*
X355854761Y-187618750D01*
X355902380Y-187666369D01*
X355950000Y-187618750D01*
X355902380Y-187571130D01*
X355902380Y-187666369D01*
X356807142Y-187904464D02*
X356807142Y-188713988D01*
X356759523Y-188809226D01*
X356711904Y-188856845D01*
X356616666Y-188904464D01*
X356473809Y-188904464D01*
X356378571Y-188856845D01*
X356807142Y-188523511D02*
X356711904Y-188571130D01*
X356521428Y-188571130D01*
X356426190Y-188523511D01*
X356378571Y-188475892D01*
X356330952Y-188380654D01*
X356330952Y-188094940D01*
X356378571Y-187999702D01*
X356426190Y-187952083D01*
X356521428Y-187904464D01*
X356711904Y-187904464D01*
X356807142Y-187952083D01*
X357283333Y-187904464D02*
X357283333Y-188571130D01*
X357283333Y-187999702D02*
X357330952Y-187952083D01*
X357426190Y-187904464D01*
X357569047Y-187904464D01*
X357664285Y-187952083D01*
X357711904Y-188047321D01*
X357711904Y-188571130D01*
X358569047Y-188523511D02*
X358473809Y-188571130D01*
X358283333Y-188571130D01*
X358188095Y-188523511D01*
X358140476Y-188428273D01*
X358140476Y-188047321D01*
X358188095Y-187952083D01*
X358283333Y-187904464D01*
X358473809Y-187904464D01*
X358569047Y-187952083D01*
X358616666Y-188047321D01*
X358616666Y-188142559D01*
X358140476Y-188237797D01*
X359473809Y-188571130D02*
X359473809Y-187571130D01*
X359473809Y-188523511D02*
X359378571Y-188571130D01*
X359188095Y-188571130D01*
X359092857Y-188523511D01*
X359045238Y-188475892D01*
X358997619Y-188380654D01*
X358997619Y-188094940D01*
X359045238Y-187999702D01*
X359092857Y-187952083D01*
X359188095Y-187904464D01*
X359378571Y-187904464D01*
X359473809Y-187952083D01*
X360711904Y-188571130D02*
X360711904Y-187571130D01*
X360711904Y-187952083D02*
X360807142Y-187904464D01*
X360997619Y-187904464D01*
X361092857Y-187952083D01*
X361140476Y-187999702D01*
X361188095Y-188094940D01*
X361188095Y-188380654D01*
X361140476Y-188475892D01*
X361092857Y-188523511D01*
X360997619Y-188571130D01*
X360807142Y-188571130D01*
X360711904Y-188523511D01*
X361521428Y-187904464D02*
X361759523Y-188571130D01*
X361997619Y-187904464D02*
X361759523Y-188571130D01*
X361664285Y-188809226D01*
X361616666Y-188856845D01*
X361521428Y-188904464D01*
X363140476Y-188571130D02*
X363140476Y-187571130D01*
X363473809Y-188285416D01*
X363807142Y-187571130D01*
X363807142Y-188571130D01*
X364283333Y-188571130D02*
X364283333Y-187904464D01*
X364283333Y-187571130D02*
X364235714Y-187618750D01*
X364283333Y-187666369D01*
X364330952Y-187618750D01*
X364283333Y-187571130D01*
X364283333Y-187666369D01*
X364759523Y-187904464D02*
X364759523Y-188571130D01*
X364759523Y-187999702D02*
X364807142Y-187952083D01*
X364902380Y-187904464D01*
X365045238Y-187904464D01*
X365140476Y-187952083D01*
X365188095Y-188047321D01*
X365188095Y-188571130D01*
X366092857Y-187904464D02*
X366092857Y-188713988D01*
X366045238Y-188809226D01*
X365997619Y-188856845D01*
X365902380Y-188904464D01*
X365759523Y-188904464D01*
X365664285Y-188856845D01*
X366092857Y-188523511D02*
X365997619Y-188571130D01*
X365807142Y-188571130D01*
X365711904Y-188523511D01*
X365664285Y-188475892D01*
X365616666Y-188380654D01*
X365616666Y-188094940D01*
X365664285Y-187999702D01*
X365711904Y-187952083D01*
X365807142Y-187904464D01*
X365997619Y-187904464D01*
X366092857Y-187952083D01*
X366473809Y-187904464D02*
X366997619Y-187904464D01*
X366473809Y-188571130D01*
X366997619Y-188571130D01*
X367759523Y-188523511D02*
X367664285Y-188571130D01*
X367473809Y-188571130D01*
X367378571Y-188523511D01*
X367330952Y-188428273D01*
X367330952Y-188047321D01*
X367378571Y-187952083D01*
X367473809Y-187904464D01*
X367664285Y-187904464D01*
X367759523Y-187952083D01*
X367807142Y-188047321D01*
X367807142Y-188142559D01*
X367330952Y-188237797D01*
X369283333Y-187571130D02*
X369283333Y-188285416D01*
X369235714Y-188428273D01*
X369140476Y-188523511D01*
X368997619Y-188571130D01*
X368902380Y-188571130D01*
X369759523Y-188571130D02*
X369759523Y-187904464D01*
X369759523Y-187571130D02*
X369711904Y-187618750D01*
X369759523Y-187666369D01*
X369807142Y-187618750D01*
X369759523Y-187571130D01*
X369759523Y-187666369D01*
X370235714Y-187904464D02*
X370235714Y-188571130D01*
X370235714Y-187999702D02*
X370283333Y-187952083D01*
X370378571Y-187904464D01*
X370521428Y-187904464D01*
X370616666Y-187952083D01*
X370664285Y-188047321D01*
X370664285Y-188571130D01*
X68294642Y-138517261D02*
X68437500Y-138564880D01*
X68675595Y-138564880D01*
X68770833Y-138517261D01*
X68818452Y-138469642D01*
X68866071Y-138374404D01*
X68866071Y-138279166D01*
X68818452Y-138183928D01*
X68770833Y-138136309D01*
X68675595Y-138088690D01*
X68485119Y-138041071D01*
X68389880Y-137993452D01*
X68342261Y-137945833D01*
X68294642Y-137850595D01*
X68294642Y-137755357D01*
X68342261Y-137660119D01*
X68389880Y-137612500D01*
X68485119Y-137564880D01*
X68723214Y-137564880D01*
X68866071Y-137612500D01*
X69151785Y-137898214D02*
X69532738Y-137898214D01*
X69294642Y-137564880D02*
X69294642Y-138422023D01*
X69342261Y-138517261D01*
X69437500Y-138564880D01*
X69532738Y-138564880D01*
X70294642Y-138564880D02*
X70294642Y-138041071D01*
X70247023Y-137945833D01*
X70151785Y-137898214D01*
X69961309Y-137898214D01*
X69866071Y-137945833D01*
X70294642Y-138517261D02*
X70199404Y-138564880D01*
X69961309Y-138564880D01*
X69866071Y-138517261D01*
X69818452Y-138422023D01*
X69818452Y-138326785D01*
X69866071Y-138231547D01*
X69961309Y-138183928D01*
X70199404Y-138183928D01*
X70294642Y-138136309D01*
X70770833Y-137898214D02*
X70770833Y-138564880D01*
X70770833Y-137993452D02*
X70818452Y-137945833D01*
X70913690Y-137898214D01*
X71056547Y-137898214D01*
X71151785Y-137945833D01*
X71199404Y-138041071D01*
X71199404Y-138564880D01*
X72104166Y-138564880D02*
X72104166Y-137564880D01*
X72104166Y-138517261D02*
X72008928Y-138564880D01*
X71818452Y-138564880D01*
X71723214Y-138517261D01*
X71675595Y-138469642D01*
X71627976Y-138374404D01*
X71627976Y-138088690D01*
X71675595Y-137993452D01*
X71723214Y-137945833D01*
X71818452Y-137898214D01*
X72008928Y-137898214D01*
X72104166Y-137945833D01*
X73008928Y-138564880D02*
X73008928Y-138041071D01*
X72961309Y-137945833D01*
X72866071Y-137898214D01*
X72675595Y-137898214D01*
X72580357Y-137945833D01*
X73008928Y-138517261D02*
X72913690Y-138564880D01*
X72675595Y-138564880D01*
X72580357Y-138517261D01*
X72532738Y-138422023D01*
X72532738Y-138326785D01*
X72580357Y-138231547D01*
X72675595Y-138183928D01*
X72913690Y-138183928D01*
X73008928Y-138136309D01*
X73485119Y-138564880D02*
X73485119Y-137898214D01*
X73485119Y-138088690D02*
X73532738Y-137993452D01*
X73580357Y-137945833D01*
X73675595Y-137898214D01*
X73770833Y-137898214D01*
X74532738Y-138564880D02*
X74532738Y-137564880D01*
X74532738Y-138517261D02*
X74437500Y-138564880D01*
X74247023Y-138564880D01*
X74151785Y-138517261D01*
X74104166Y-138469642D01*
X74056547Y-138374404D01*
X74056547Y-138088690D01*
X74104166Y-137993452D01*
X74151785Y-137945833D01*
X74247023Y-137898214D01*
X74437500Y-137898214D01*
X74532738Y-137945833D01*
X181903869Y-175664880D02*
X181713392Y-175664880D01*
X181618154Y-175712500D01*
X181570535Y-175760119D01*
X181475297Y-175902976D01*
X181427678Y-176093452D01*
X181427678Y-176474404D01*
X181475297Y-176569642D01*
X181522916Y-176617261D01*
X181618154Y-176664880D01*
X181808630Y-176664880D01*
X181903869Y-176617261D01*
X181951488Y-176569642D01*
X181999107Y-176474404D01*
X181999107Y-176236309D01*
X181951488Y-176141071D01*
X181903869Y-176093452D01*
X181808630Y-176045833D01*
X181618154Y-176045833D01*
X181522916Y-176093452D01*
X181475297Y-176141071D01*
X181427678Y-176236309D01*
X182427678Y-176569642D02*
X182475297Y-176617261D01*
X182427678Y-176664880D01*
X182380059Y-176617261D01*
X182427678Y-176569642D01*
X182427678Y-176664880D01*
X182856250Y-175760119D02*
X182903869Y-175712500D01*
X182999107Y-175664880D01*
X183237202Y-175664880D01*
X183332440Y-175712500D01*
X183380059Y-175760119D01*
X183427678Y-175855357D01*
X183427678Y-175950595D01*
X183380059Y-176093452D01*
X182808630Y-176664880D01*
X183427678Y-176664880D01*
X184332440Y-175664880D02*
X183856250Y-175664880D01*
X183808630Y-176141071D01*
X183856250Y-176093452D01*
X183951488Y-176045833D01*
X184189583Y-176045833D01*
X184284821Y-176093452D01*
X184332440Y-176141071D01*
X184380059Y-176236309D01*
X184380059Y-176474404D01*
X184332440Y-176569642D01*
X184284821Y-176617261D01*
X184189583Y-176664880D01*
X183951488Y-176664880D01*
X183856250Y-176617261D01*
X183808630Y-176569642D01*
X185237202Y-175998214D02*
X185237202Y-176664880D01*
X184808630Y-175998214D02*
X184808630Y-176522023D01*
X184856250Y-176617261D01*
X184951488Y-176664880D01*
X185094345Y-176664880D01*
X185189583Y-176617261D01*
X185237202Y-176569642D01*
X172474107Y-186189880D02*
X171902678Y-186189880D01*
X172188392Y-186189880D02*
X172188392Y-185189880D01*
X172093154Y-185332738D01*
X171997916Y-185427976D01*
X171902678Y-185475595D01*
X172902678Y-186094642D02*
X172950297Y-186142261D01*
X172902678Y-186189880D01*
X172855059Y-186142261D01*
X172902678Y-186094642D01*
X172902678Y-186189880D01*
X173331250Y-185285119D02*
X173378869Y-185237500D01*
X173474107Y-185189880D01*
X173712202Y-185189880D01*
X173807440Y-185237500D01*
X173855059Y-185285119D01*
X173902678Y-185380357D01*
X173902678Y-185475595D01*
X173855059Y-185618452D01*
X173283630Y-186189880D01*
X173902678Y-186189880D01*
X174807440Y-185189880D02*
X174331250Y-185189880D01*
X174283630Y-185666071D01*
X174331250Y-185618452D01*
X174426488Y-185570833D01*
X174664583Y-185570833D01*
X174759821Y-185618452D01*
X174807440Y-185666071D01*
X174855059Y-185761309D01*
X174855059Y-185999404D01*
X174807440Y-186094642D01*
X174759821Y-186142261D01*
X174664583Y-186189880D01*
X174426488Y-186189880D01*
X174331250Y-186142261D01*
X174283630Y-186094642D01*
X175712202Y-185523214D02*
X175712202Y-186189880D01*
X175283630Y-185523214D02*
X175283630Y-186047023D01*
X175331250Y-186142261D01*
X175426488Y-186189880D01*
X175569345Y-186189880D01*
X175664583Y-186142261D01*
X175712202Y-186094642D01*
%TO.C,MX76*%
X320540476Y-143327380D02*
X320540476Y-142327380D01*
X320969047Y-143279761D02*
X321111904Y-143327380D01*
X321350000Y-143327380D01*
X321445238Y-143279761D01*
X321492857Y-143232142D01*
X321540476Y-143136904D01*
X321540476Y-143041666D01*
X321492857Y-142946428D01*
X321445238Y-142898809D01*
X321350000Y-142851190D01*
X321159523Y-142803571D01*
X321064285Y-142755952D01*
X321016666Y-142708333D01*
X320969047Y-142613095D01*
X320969047Y-142517857D01*
X321016666Y-142422619D01*
X321064285Y-142375000D01*
X321159523Y-142327380D01*
X321397619Y-142327380D01*
X321540476Y-142375000D01*
X322159523Y-142327380D02*
X322350000Y-142327380D01*
X322445238Y-142375000D01*
X322540476Y-142470238D01*
X322588095Y-142660714D01*
X322588095Y-142994047D01*
X322540476Y-143184523D01*
X322445238Y-143279761D01*
X322350000Y-143327380D01*
X322159523Y-143327380D01*
X322064285Y-143279761D01*
X321969047Y-143184523D01*
X321921428Y-142994047D01*
X321921428Y-142660714D01*
X321969047Y-142470238D01*
X322064285Y-142375000D01*
X322159523Y-142327380D01*
X323778571Y-142803571D02*
X324111904Y-142803571D01*
X324254761Y-143327380D02*
X323778571Y-143327380D01*
X323778571Y-142327380D01*
X324254761Y-142327380D01*
X324683333Y-142660714D02*
X324683333Y-143327380D01*
X324683333Y-142755952D02*
X324730952Y-142708333D01*
X324826190Y-142660714D01*
X324969047Y-142660714D01*
X325064285Y-142708333D01*
X325111904Y-142803571D01*
X325111904Y-143327380D01*
X325445238Y-142660714D02*
X325826190Y-142660714D01*
X325588095Y-142327380D02*
X325588095Y-143184523D01*
X325635714Y-143279761D01*
X325730952Y-143327380D01*
X325826190Y-143327380D01*
X326540476Y-143279761D02*
X326445238Y-143327380D01*
X326254761Y-143327380D01*
X326159523Y-143279761D01*
X326111904Y-143184523D01*
X326111904Y-142803571D01*
X326159523Y-142708333D01*
X326254761Y-142660714D01*
X326445238Y-142660714D01*
X326540476Y-142708333D01*
X326588095Y-142803571D01*
X326588095Y-142898809D01*
X326111904Y-142994047D01*
X327016666Y-143327380D02*
X327016666Y-142660714D01*
X327016666Y-142851190D02*
X327064285Y-142755952D01*
X327111904Y-142708333D01*
X327207142Y-142660714D01*
X327302380Y-142660714D01*
%TO.C,MX75*%
X54364285Y-148042261D02*
X54507142Y-148089880D01*
X54745238Y-148089880D01*
X54840476Y-148042261D01*
X54888095Y-147994642D01*
X54935714Y-147899404D01*
X54935714Y-147804166D01*
X54888095Y-147708928D01*
X54840476Y-147661309D01*
X54745238Y-147613690D01*
X54554761Y-147566071D01*
X54459523Y-147518452D01*
X54411904Y-147470833D01*
X54364285Y-147375595D01*
X54364285Y-147280357D01*
X54411904Y-147185119D01*
X54459523Y-147137500D01*
X54554761Y-147089880D01*
X54792857Y-147089880D01*
X54935714Y-147137500D01*
X55221428Y-147423214D02*
X55602380Y-147423214D01*
X55364285Y-147089880D02*
X55364285Y-147947023D01*
X55411904Y-148042261D01*
X55507142Y-148089880D01*
X55602380Y-148089880D01*
X56316666Y-148042261D02*
X56221428Y-148089880D01*
X56030952Y-148089880D01*
X55935714Y-148042261D01*
X55888095Y-147947023D01*
X55888095Y-147566071D01*
X55935714Y-147470833D01*
X56030952Y-147423214D01*
X56221428Y-147423214D01*
X56316666Y-147470833D01*
X56364285Y-147566071D01*
X56364285Y-147661309D01*
X55888095Y-147756547D01*
X56792857Y-147423214D02*
X56792857Y-148423214D01*
X56792857Y-147470833D02*
X56888095Y-147423214D01*
X57078571Y-147423214D01*
X57173809Y-147470833D01*
X57221428Y-147518452D01*
X57269047Y-147613690D01*
X57269047Y-147899404D01*
X57221428Y-147994642D01*
X57173809Y-148042261D01*
X57078571Y-148089880D01*
X56888095Y-148089880D01*
X56792857Y-148042261D01*
X57697619Y-147423214D02*
X57697619Y-148423214D01*
X57697619Y-147470833D02*
X57792857Y-147423214D01*
X57983333Y-147423214D01*
X58078571Y-147470833D01*
X58126190Y-147518452D01*
X58173809Y-147613690D01*
X58173809Y-147899404D01*
X58126190Y-147994642D01*
X58078571Y-148042261D01*
X57983333Y-148089880D01*
X57792857Y-148089880D01*
X57697619Y-148042261D01*
X58983333Y-148042261D02*
X58888095Y-148089880D01*
X58697619Y-148089880D01*
X58602380Y-148042261D01*
X58554761Y-147947023D01*
X58554761Y-147566071D01*
X58602380Y-147470833D01*
X58697619Y-147423214D01*
X58888095Y-147423214D01*
X58983333Y-147470833D01*
X59030952Y-147566071D01*
X59030952Y-147661309D01*
X58554761Y-147756547D01*
X59888095Y-148089880D02*
X59888095Y-147089880D01*
X59888095Y-148042261D02*
X59792857Y-148089880D01*
X59602380Y-148089880D01*
X59507142Y-148042261D01*
X59459523Y-147994642D01*
X59411904Y-147899404D01*
X59411904Y-147613690D01*
X59459523Y-147518452D01*
X59507142Y-147470833D01*
X59602380Y-147423214D01*
X59792857Y-147423214D01*
X59888095Y-147470833D01*
%TO.C,MX64*%
X140946428Y-185285119D02*
X140994047Y-185237500D01*
X141089285Y-185189880D01*
X141327380Y-185189880D01*
X141422619Y-185237500D01*
X141470238Y-185285119D01*
X141517857Y-185380357D01*
X141517857Y-185475595D01*
X141470238Y-185618452D01*
X140898809Y-186189880D01*
X141517857Y-186189880D01*
X141946428Y-186094642D02*
X141994047Y-186142261D01*
X141946428Y-186189880D01*
X141898809Y-186142261D01*
X141946428Y-186094642D01*
X141946428Y-186189880D01*
X142375000Y-185285119D02*
X142422619Y-185237500D01*
X142517857Y-185189880D01*
X142755952Y-185189880D01*
X142851190Y-185237500D01*
X142898809Y-185285119D01*
X142946428Y-185380357D01*
X142946428Y-185475595D01*
X142898809Y-185618452D01*
X142327380Y-186189880D01*
X142946428Y-186189880D01*
X143851190Y-185189880D02*
X143375000Y-185189880D01*
X143327380Y-185666071D01*
X143375000Y-185618452D01*
X143470238Y-185570833D01*
X143708333Y-185570833D01*
X143803571Y-185618452D01*
X143851190Y-185666071D01*
X143898809Y-185761309D01*
X143898809Y-185999404D01*
X143851190Y-186094642D01*
X143803571Y-186142261D01*
X143708333Y-186189880D01*
X143470238Y-186189880D01*
X143375000Y-186142261D01*
X143327380Y-186094642D01*
X144755952Y-185523214D02*
X144755952Y-186189880D01*
X144327380Y-185523214D02*
X144327380Y-186047023D01*
X144375000Y-186142261D01*
X144470238Y-186189880D01*
X144613095Y-186189880D01*
X144708333Y-186142261D01*
X144755952Y-186094642D01*
%TO.C,MX67*%
X212383928Y-185285119D02*
X212431547Y-185237500D01*
X212526785Y-185189880D01*
X212764880Y-185189880D01*
X212860119Y-185237500D01*
X212907738Y-185285119D01*
X212955357Y-185380357D01*
X212955357Y-185475595D01*
X212907738Y-185618452D01*
X212336309Y-186189880D01*
X212955357Y-186189880D01*
X213383928Y-186094642D02*
X213431547Y-186142261D01*
X213383928Y-186189880D01*
X213336309Y-186142261D01*
X213383928Y-186094642D01*
X213383928Y-186189880D01*
X213764880Y-185189880D02*
X214431547Y-185189880D01*
X214002976Y-186189880D01*
X215288690Y-185189880D02*
X214812500Y-185189880D01*
X214764880Y-185666071D01*
X214812500Y-185618452D01*
X214907738Y-185570833D01*
X215145833Y-185570833D01*
X215241071Y-185618452D01*
X215288690Y-185666071D01*
X215336309Y-185761309D01*
X215336309Y-185999404D01*
X215288690Y-186094642D01*
X215241071Y-186142261D01*
X215145833Y-186189880D01*
X214907738Y-186189880D01*
X214812500Y-186142261D01*
X214764880Y-186094642D01*
X216193452Y-185523214D02*
X216193452Y-186189880D01*
X215764880Y-185523214D02*
X215764880Y-186047023D01*
X215812500Y-186142261D01*
X215907738Y-186189880D01*
X216050595Y-186189880D01*
X216145833Y-186142261D01*
X216193452Y-186094642D01*
%TD*%
D12*
%TO.C,D1*%
X69056250Y-99853750D03*
D13*
X69056250Y-104933750D03*
%TD*%
D12*
%TO.C,D2*%
X88106250Y-99853750D03*
D13*
X88106250Y-104933750D03*
%TD*%
D12*
%TO.C,D3*%
X107156250Y-99853750D03*
D13*
X107156250Y-104933750D03*
%TD*%
D12*
%TO.C,D4*%
X126206250Y-99853750D03*
D13*
X126206250Y-104933750D03*
%TD*%
D12*
%TO.C,D5*%
X145256250Y-99853750D03*
D13*
X145256250Y-104933750D03*
%TD*%
D12*
%TO.C,D6*%
X164306250Y-99853750D03*
D13*
X164306250Y-104933750D03*
%TD*%
D12*
%TO.C,D7*%
X183356250Y-99853750D03*
D13*
X183356250Y-104933750D03*
%TD*%
D12*
%TO.C,D8*%
X202406250Y-99853750D03*
D13*
X202406250Y-104933750D03*
%TD*%
D12*
%TO.C,D9*%
X221456250Y-99853750D03*
D13*
X221456250Y-104933750D03*
%TD*%
D12*
%TO.C,D10*%
X240506250Y-99853750D03*
D13*
X240506250Y-104933750D03*
%TD*%
D12*
%TO.C,D11*%
X259556250Y-99853750D03*
D13*
X259556250Y-104933750D03*
%TD*%
D12*
%TO.C,D12*%
X278606250Y-99853750D03*
D13*
X278606250Y-104933750D03*
%TD*%
D12*
%TO.C,D13*%
X297656250Y-99853750D03*
D13*
X297656250Y-104933750D03*
%TD*%
D12*
%TO.C,D14*%
X333375000Y-99853750D03*
D13*
X333375000Y-104933750D03*
%TD*%
D12*
%TO.C,D16*%
X52387500Y-116522500D03*
D13*
X52387500Y-121602500D03*
%TD*%
D12*
%TO.C,D17*%
X78581250Y-116522500D03*
D13*
X78581250Y-121602500D03*
%TD*%
D12*
%TO.C,D18*%
X97631250Y-116522500D03*
D13*
X97631250Y-121602500D03*
%TD*%
D12*
%TO.C,D19*%
X116681250Y-116522500D03*
D13*
X116681250Y-121602500D03*
%TD*%
D12*
%TO.C,D20*%
X135731250Y-116522500D03*
D13*
X135731250Y-121602500D03*
%TD*%
D12*
%TO.C,D21*%
X154781250Y-116522500D03*
D13*
X154781250Y-121602500D03*
%TD*%
D12*
%TO.C,D22*%
X173831250Y-116522500D03*
D13*
X173831250Y-121602500D03*
%TD*%
D12*
%TO.C,D23*%
X192881250Y-116522500D03*
D13*
X192881250Y-121602500D03*
%TD*%
D12*
%TO.C,D24*%
X211931250Y-116522500D03*
D13*
X211931250Y-121602500D03*
%TD*%
D12*
%TO.C,D25*%
X230981250Y-116522500D03*
D13*
X230981250Y-121602500D03*
%TD*%
D12*
%TO.C,D26*%
X250031250Y-116522500D03*
D13*
X250031250Y-121602500D03*
%TD*%
D12*
%TO.C,D27*%
X269081250Y-116522500D03*
D13*
X269081250Y-121602500D03*
%TD*%
D12*
%TO.C,D28*%
X288131250Y-116522500D03*
D13*
X288131250Y-121602500D03*
%TD*%
D12*
%TO.C,D29*%
X309562500Y-116522500D03*
D13*
X309562500Y-121602500D03*
%TD*%
D12*
%TO.C,D30*%
X335756250Y-137953750D03*
D13*
X335756250Y-143033750D03*
%TD*%
D12*
%TO.C,D31*%
X52387500Y-135572500D03*
D13*
X52387500Y-140652500D03*
%TD*%
D12*
%TO.C,D32*%
X83343750Y-135572500D03*
D13*
X83343750Y-140652500D03*
%TD*%
D12*
%TO.C,D33*%
X102393750Y-135572500D03*
D13*
X102393750Y-140652500D03*
%TD*%
D12*
%TO.C,D34*%
X121443750Y-135572500D03*
D13*
X121443750Y-140652500D03*
%TD*%
D12*
%TO.C,D35*%
X140493750Y-135572500D03*
D13*
X140493750Y-140652500D03*
%TD*%
D12*
%TO.C,D36*%
X159543750Y-135572500D03*
D13*
X159543750Y-140652500D03*
%TD*%
D12*
%TO.C,D37*%
X178593750Y-135572500D03*
D13*
X178593750Y-140652500D03*
%TD*%
D12*
%TO.C,D38*%
X197643750Y-135572500D03*
D13*
X197643750Y-140652500D03*
%TD*%
D12*
%TO.C,D39*%
X216693750Y-135572500D03*
D13*
X216693750Y-140652500D03*
%TD*%
D12*
%TO.C,D40*%
X235743750Y-135572500D03*
D13*
X235743750Y-140652500D03*
%TD*%
D12*
%TO.C,D41*%
X254793750Y-135572500D03*
D13*
X254793750Y-140652500D03*
%TD*%
D12*
%TO.C,D42*%
X273843750Y-135572500D03*
D13*
X273843750Y-140652500D03*
%TD*%
D12*
%TO.C,D44*%
X292893750Y-135572500D03*
D13*
X292893750Y-140652500D03*
%TD*%
D12*
%TO.C,D45*%
X335756250Y-154622500D03*
D13*
X335756250Y-159702500D03*
%TD*%
D12*
%TO.C,D46*%
X52387500Y-154622500D03*
D13*
X52387500Y-159702500D03*
%TD*%
D12*
%TO.C,D48*%
X92868750Y-154622500D03*
D13*
X92868750Y-159702500D03*
%TD*%
D12*
%TO.C,D49*%
X111918750Y-154622500D03*
D13*
X111918750Y-159702500D03*
%TD*%
D12*
%TO.C,D50*%
X130968750Y-154622500D03*
D13*
X130968750Y-159702500D03*
%TD*%
D12*
%TO.C,D51*%
X150018750Y-154622500D03*
D13*
X150018750Y-159702500D03*
%TD*%
D12*
%TO.C,D52*%
X169068750Y-154622500D03*
D13*
X169068750Y-159702500D03*
%TD*%
D12*
%TO.C,D53*%
X188118750Y-154622500D03*
D13*
X188118750Y-159702500D03*
%TD*%
D12*
%TO.C,D54*%
X207168750Y-154622500D03*
D13*
X207168750Y-159702500D03*
%TD*%
D12*
%TO.C,D55*%
X226218750Y-154622500D03*
D13*
X226218750Y-159702500D03*
%TD*%
D12*
%TO.C,D57*%
X264318750Y-154622500D03*
D13*
X264318750Y-159702500D03*
%TD*%
D12*
%TO.C,D58*%
X283368750Y-154622500D03*
D13*
X283368750Y-159702500D03*
%TD*%
D12*
%TO.C,D60*%
X354806250Y-154622500D03*
D13*
X354806250Y-159702500D03*
%TD*%
D12*
%TO.C,D61*%
X52387500Y-173672500D03*
D13*
X52387500Y-178752500D03*
%TD*%
D12*
%TO.C,D62*%
X76200000Y-173672500D03*
D13*
X76200000Y-178752500D03*
%TD*%
D12*
%TO.C,D63*%
X97631250Y-173672500D03*
D13*
X97631250Y-178752500D03*
%TD*%
D12*
%TO.C,D66*%
X164306250Y-176053750D03*
D13*
X164306250Y-181133750D03*
%TD*%
D12*
%TO.C,D68*%
X240506250Y-173672500D03*
D13*
X240506250Y-178752500D03*
%TD*%
D12*
%TO.C,D69*%
X259556250Y-173672500D03*
D13*
X259556250Y-178752500D03*
%TD*%
D12*
%TO.C,D70*%
X278606250Y-173672500D03*
D13*
X278606250Y-178752500D03*
%TD*%
D12*
%TO.C,D71*%
X297656250Y-176053750D03*
D13*
X297656250Y-181133750D03*
%TD*%
D12*
%TO.C,D72*%
X316706250Y-173672500D03*
D13*
X316706250Y-178752500D03*
%TD*%
D12*
%TO.C,D74*%
X354806250Y-173672500D03*
D13*
X354806250Y-178752500D03*
%TD*%
D12*
%TO.C,D15*%
X354806250Y-137953750D03*
D13*
X354806250Y-143033750D03*
%TD*%
D14*
%TO.C,DS1*%
X358616250Y-131250000D03*
D15*
X356076250Y-131250000D03*
X353536250Y-131250000D03*
X350996250Y-131250000D03*
%TD*%
D16*
%TO.C,MX1*%
X54451250Y-104775000D03*
X64611250Y-104775000D03*
D17*
X62071250Y-99695000D03*
D18*
X59531250Y-104775000D03*
D17*
X55721250Y-102235000D03*
%TD*%
D18*
%TO.C,MX2*%
X78581250Y-104775000D03*
D16*
X83661250Y-104775000D03*
D17*
X74771250Y-102235000D03*
X81121250Y-99695000D03*
D16*
X73501250Y-104775000D03*
%TD*%
%TO.C,MX3*%
X92551250Y-104775000D03*
D17*
X100171250Y-99695000D03*
D18*
X97631250Y-104775000D03*
D17*
X93821250Y-102235000D03*
D16*
X102711250Y-104775000D03*
%TD*%
D17*
%TO.C,MX4*%
X112871250Y-102235000D03*
D18*
X116681250Y-104775000D03*
D17*
X119221250Y-99695000D03*
D16*
X121761250Y-104775000D03*
X111601250Y-104775000D03*
%TD*%
D17*
%TO.C,MX5*%
X131921250Y-102235000D03*
D16*
X130651250Y-104775000D03*
D17*
X138271250Y-99695000D03*
D18*
X135731250Y-104775000D03*
D16*
X140811250Y-104775000D03*
%TD*%
D17*
%TO.C,MX6*%
X157321250Y-99695000D03*
D16*
X159861250Y-104775000D03*
X149701250Y-104775000D03*
D18*
X154781250Y-104775000D03*
D17*
X150971250Y-102235000D03*
%TD*%
D18*
%TO.C,MX7*%
X173831250Y-104775000D03*
D16*
X178911250Y-104775000D03*
D17*
X170021250Y-102235000D03*
D16*
X168751250Y-104775000D03*
D17*
X176371250Y-99695000D03*
%TD*%
%TO.C,MX8*%
X189071250Y-102235000D03*
D16*
X187801250Y-104775000D03*
D18*
X192881250Y-104775000D03*
D16*
X197961250Y-104775000D03*
D17*
X195421250Y-99695000D03*
%TD*%
%TO.C,MX9*%
X208121250Y-102235000D03*
D16*
X217011250Y-104775000D03*
D17*
X214471250Y-99695000D03*
D18*
X211931250Y-104775000D03*
D16*
X206851250Y-104775000D03*
%TD*%
D17*
%TO.C,MX10*%
X233521250Y-99695000D03*
D18*
X230981250Y-104775000D03*
D17*
X227171250Y-102235000D03*
D16*
X225901250Y-104775000D03*
X236061250Y-104775000D03*
%TD*%
D17*
%TO.C,MX11*%
X252571250Y-99695000D03*
D16*
X244951250Y-104775000D03*
D18*
X250031250Y-104775000D03*
D16*
X255111250Y-104775000D03*
D17*
X246221250Y-102235000D03*
%TD*%
D16*
%TO.C,MX12*%
X264001250Y-104775000D03*
D18*
X269081250Y-104775000D03*
D16*
X274161250Y-104775000D03*
D17*
X265271250Y-102235000D03*
X271621250Y-99695000D03*
%TD*%
%TO.C,MX13*%
X284321250Y-102235000D03*
X290671250Y-99695000D03*
D16*
X293211250Y-104775000D03*
D18*
X288131250Y-104775000D03*
D16*
X283051250Y-104775000D03*
%TD*%
D18*
%TO.C,MX14*%
X316706250Y-104775000D03*
D17*
X312896250Y-102235000D03*
D16*
X311626250Y-104775000D03*
D19*
X328606250Y-113015000D03*
D20*
X328606250Y-97775000D03*
D17*
X319246250Y-99695000D03*
D16*
X321786250Y-104775000D03*
D19*
X304806250Y-113015000D03*
D20*
X304806250Y-97775000D03*
%TD*%
D16*
%TO.C,MX16*%
X69373750Y-123825000D03*
D18*
X64293750Y-123825000D03*
D17*
X66833750Y-118745000D03*
X60483750Y-121285000D03*
D16*
X59213750Y-123825000D03*
%TD*%
D18*
%TO.C,MX17*%
X88106250Y-123825000D03*
D16*
X83026250Y-123825000D03*
D17*
X90646250Y-118745000D03*
X84296250Y-121285000D03*
D16*
X93186250Y-123825000D03*
%TD*%
%TO.C,MX18*%
X102076250Y-123825000D03*
D17*
X103346250Y-121285000D03*
D16*
X112236250Y-123825000D03*
D17*
X109696250Y-118745000D03*
D18*
X107156250Y-123825000D03*
%TD*%
D16*
%TO.C,MX19*%
X131286250Y-123825000D03*
D17*
X128746250Y-118745000D03*
D16*
X121126250Y-123825000D03*
D17*
X122396250Y-121285000D03*
D18*
X126206250Y-123825000D03*
%TD*%
D16*
%TO.C,MX20*%
X140176250Y-123825000D03*
D17*
X141446250Y-121285000D03*
D16*
X150336250Y-123825000D03*
D17*
X147796250Y-118745000D03*
D18*
X145256250Y-123825000D03*
%TD*%
%TO.C,MX21*%
X164306250Y-123825000D03*
D17*
X166846250Y-118745000D03*
X160496250Y-121285000D03*
D16*
X169386250Y-123825000D03*
X159226250Y-123825000D03*
%TD*%
D17*
%TO.C,MX22*%
X185896250Y-118745000D03*
D18*
X183356250Y-123825000D03*
D16*
X178276250Y-123825000D03*
X188436250Y-123825000D03*
D17*
X179546250Y-121285000D03*
%TD*%
%TO.C,MX23*%
X198596250Y-121285000D03*
D16*
X197326250Y-123825000D03*
X207486250Y-123825000D03*
D18*
X202406250Y-123825000D03*
D17*
X204946250Y-118745000D03*
%TD*%
%TO.C,MX24*%
X223996250Y-118745000D03*
D18*
X221456250Y-123825000D03*
D17*
X217646250Y-121285000D03*
D16*
X216376250Y-123825000D03*
X226536250Y-123825000D03*
%TD*%
D17*
%TO.C,MX25*%
X243046250Y-118745000D03*
X236696250Y-121285000D03*
D16*
X235426250Y-123825000D03*
X245586250Y-123825000D03*
D18*
X240506250Y-123825000D03*
%TD*%
D16*
%TO.C,MX26*%
X264636250Y-123825000D03*
D18*
X259556250Y-123825000D03*
D17*
X262096250Y-118745000D03*
X255746250Y-121285000D03*
D16*
X254476250Y-123825000D03*
%TD*%
%TO.C,MX27*%
X283686250Y-123825000D03*
D17*
X281146250Y-118745000D03*
X274796250Y-121285000D03*
D18*
X278606250Y-123825000D03*
D16*
X273526250Y-123825000D03*
%TD*%
D18*
%TO.C,MX28*%
X297656250Y-123825000D03*
D17*
X300196250Y-118745000D03*
D16*
X292576250Y-123825000D03*
X302736250Y-123825000D03*
D17*
X293846250Y-121285000D03*
%TD*%
D18*
%TO.C,MX29*%
X321468750Y-123825000D03*
D16*
X321468750Y-118745000D03*
D17*
X324008750Y-120015000D03*
X326548750Y-126365000D03*
D16*
X321468750Y-128905000D03*
%TD*%
%TO.C,MX30*%
X340201250Y-142875000D03*
D17*
X341471250Y-140335000D03*
X347821250Y-137795000D03*
D16*
X350361250Y-142875000D03*
D18*
X345281250Y-142875000D03*
%TD*%
%TO.C,MX31*%
X66675000Y-142875000D03*
D16*
X61595000Y-142875000D03*
D17*
X70485000Y-145415000D03*
X64135000Y-147955000D03*
D16*
X71755000Y-142875000D03*
%TD*%
%TO.C,MX32*%
X97948750Y-142875000D03*
D18*
X92868750Y-142875000D03*
D17*
X89058750Y-140335000D03*
X95408750Y-137795000D03*
D16*
X87788750Y-142875000D03*
%TD*%
%TO.C,MX33*%
X116998750Y-142875000D03*
D17*
X114458750Y-137795000D03*
D16*
X106838750Y-142875000D03*
D18*
X111918750Y-142875000D03*
D17*
X108108750Y-140335000D03*
%TD*%
D16*
%TO.C,MX34*%
X125888750Y-142875000D03*
D17*
X127158750Y-140335000D03*
D16*
X136048750Y-142875000D03*
D18*
X130968750Y-142875000D03*
D17*
X133508750Y-137795000D03*
%TD*%
D18*
%TO.C,MX35*%
X150018750Y-142875000D03*
D17*
X152558750Y-137795000D03*
D16*
X144938750Y-142875000D03*
X155098750Y-142875000D03*
D17*
X146208750Y-140335000D03*
%TD*%
%TO.C,MX36*%
X171608750Y-137795000D03*
D18*
X169068750Y-142875000D03*
D17*
X165258750Y-140335000D03*
D16*
X163988750Y-142875000D03*
X174148750Y-142875000D03*
%TD*%
D17*
%TO.C,MX37*%
X190658750Y-137795000D03*
D16*
X183038750Y-142875000D03*
D17*
X184308750Y-140335000D03*
D16*
X193198750Y-142875000D03*
D18*
X188118750Y-142875000D03*
%TD*%
D16*
%TO.C,MX38*%
X212248750Y-142875000D03*
D17*
X209708750Y-137795000D03*
D18*
X207168750Y-142875000D03*
D17*
X203358750Y-140335000D03*
D16*
X202088750Y-142875000D03*
%TD*%
%TO.C,MX39*%
X221138750Y-142875000D03*
D17*
X222408750Y-140335000D03*
D16*
X231298750Y-142875000D03*
D18*
X226218750Y-142875000D03*
D17*
X228758750Y-137795000D03*
%TD*%
D16*
%TO.C,MX40*%
X250348750Y-142875000D03*
D17*
X247808750Y-137795000D03*
X241458750Y-140335000D03*
D18*
X245268750Y-142875000D03*
D16*
X240188750Y-142875000D03*
%TD*%
D17*
%TO.C,MX41*%
X260508750Y-140335000D03*
D16*
X259238750Y-142875000D03*
D18*
X264318750Y-142875000D03*
D17*
X266858750Y-137795000D03*
D16*
X269398750Y-142875000D03*
%TD*%
%TO.C,MX42*%
X278288750Y-142875000D03*
D18*
X283368750Y-142875000D03*
D17*
X285908750Y-137795000D03*
X279558750Y-140335000D03*
D16*
X288448750Y-142875000D03*
%TD*%
D20*
%TO.C,MX44*%
X326225000Y-149875000D03*
D16*
X314325000Y-147955000D03*
D19*
X326225000Y-134635000D03*
D18*
X314325000Y-142875000D03*
D16*
X314325000Y-137795000D03*
D17*
X309245000Y-140335000D03*
D19*
X302425000Y-134635000D03*
D17*
X311785000Y-146685000D03*
D20*
X302425000Y-149875000D03*
%TD*%
D17*
%TO.C,MX45*%
X347821250Y-156845000D03*
D16*
X340201250Y-161925000D03*
X350361250Y-161925000D03*
D18*
X345281250Y-161925000D03*
D17*
X341471250Y-159385000D03*
%TD*%
%TO.C,MX46*%
X67627500Y-159385000D03*
D18*
X71437500Y-161925000D03*
D19*
X59537500Y-170165000D03*
D16*
X66357500Y-161925000D03*
D17*
X73977500Y-156845000D03*
D20*
X83337500Y-154925000D03*
X59537500Y-154925000D03*
D19*
X83337500Y-170165000D03*
D16*
X76517500Y-161925000D03*
%TD*%
%TO.C,MX48*%
X97313750Y-161925000D03*
D17*
X104933750Y-156845000D03*
D18*
X102393750Y-161925000D03*
D17*
X98583750Y-159385000D03*
D16*
X107473750Y-161925000D03*
%TD*%
%TO.C,MX49*%
X116363750Y-161925000D03*
D18*
X121443750Y-161925000D03*
D17*
X117633750Y-159385000D03*
X123983750Y-156845000D03*
D16*
X126523750Y-161925000D03*
%TD*%
D18*
%TO.C,MX50*%
X140493750Y-161925000D03*
D16*
X145573750Y-161925000D03*
D17*
X143033750Y-156845000D03*
D16*
X135413750Y-161925000D03*
D17*
X136683750Y-159385000D03*
%TD*%
D16*
%TO.C,MX51*%
X154463750Y-161925000D03*
X164623750Y-161925000D03*
D17*
X162083750Y-156845000D03*
D18*
X159543750Y-161925000D03*
D17*
X155733750Y-159385000D03*
%TD*%
%TO.C,MX52*%
X174783750Y-159385000D03*
D18*
X178593750Y-161925000D03*
D17*
X181133750Y-156845000D03*
D16*
X183673750Y-161925000D03*
X173513750Y-161925000D03*
%TD*%
D17*
%TO.C,MX53*%
X200183750Y-156845000D03*
D16*
X192563750Y-161925000D03*
D17*
X193833750Y-159385000D03*
D18*
X197643750Y-161925000D03*
D16*
X202723750Y-161925000D03*
%TD*%
D18*
%TO.C,MX54*%
X216693750Y-161925000D03*
D16*
X211613750Y-161925000D03*
D17*
X212883750Y-159385000D03*
X219233750Y-156845000D03*
D16*
X221773750Y-161925000D03*
%TD*%
D18*
%TO.C,MX55*%
X235743750Y-161925000D03*
D17*
X231933750Y-159385000D03*
D16*
X230663750Y-161925000D03*
X240823750Y-161925000D03*
D17*
X238283750Y-156845000D03*
%TD*%
%TO.C,MX56*%
X250983750Y-159385000D03*
D16*
X249713750Y-161925000D03*
D17*
X257333750Y-156845000D03*
D18*
X254793750Y-161925000D03*
D16*
X259873750Y-161925000D03*
%TD*%
%TO.C,MX57*%
X278923750Y-161925000D03*
X268763750Y-161925000D03*
D18*
X273843750Y-161925000D03*
D17*
X276383750Y-156845000D03*
X270033750Y-159385000D03*
%TD*%
D19*
%TO.C,MX58*%
X321462500Y-170165000D03*
D16*
X304482500Y-161925000D03*
D19*
X297662500Y-170165000D03*
D16*
X314642500Y-161925000D03*
D17*
X305752500Y-159385000D03*
D20*
X297662500Y-154925000D03*
X321462500Y-154925000D03*
D17*
X312102500Y-156845000D03*
D18*
X309562500Y-161925000D03*
%TD*%
D16*
%TO.C,MX60*%
X359251250Y-161925000D03*
D17*
X360521250Y-159385000D03*
D16*
X369411250Y-161925000D03*
D18*
X364331250Y-161925000D03*
D17*
X366871250Y-156845000D03*
%TD*%
D16*
%TO.C,MX61*%
X56832500Y-180975000D03*
D17*
X58102500Y-178435000D03*
D18*
X61912500Y-180975000D03*
D17*
X64452500Y-175895000D03*
D16*
X66992500Y-180975000D03*
%TD*%
D17*
%TO.C,MX62*%
X88265000Y-175895000D03*
D16*
X90805000Y-180975000D03*
D17*
X81915000Y-178435000D03*
D16*
X80645000Y-180975000D03*
D18*
X85725000Y-180975000D03*
%TD*%
D16*
%TO.C,MX63*%
X104457500Y-180975000D03*
D17*
X105727500Y-178435000D03*
D16*
X114617500Y-180975000D03*
D17*
X112077500Y-175895000D03*
D18*
X109537500Y-180975000D03*
%TD*%
D17*
%TO.C,MX68*%
X246221250Y-178435000D03*
D16*
X244951250Y-180975000D03*
D18*
X250031250Y-180975000D03*
D16*
X255111250Y-180975000D03*
D17*
X252571250Y-175895000D03*
%TD*%
D16*
%TO.C,MX69*%
X274161250Y-180975000D03*
D18*
X269081250Y-180975000D03*
D17*
X265271250Y-178435000D03*
D16*
X264001250Y-180975000D03*
D17*
X271621250Y-175895000D03*
%TD*%
%TO.C,MX70*%
X290671250Y-175895000D03*
D16*
X283051250Y-180975000D03*
D18*
X288131250Y-180975000D03*
D17*
X284321250Y-178435000D03*
D16*
X293211250Y-180975000D03*
%TD*%
D17*
%TO.C,MX71*%
X309721250Y-175895000D03*
D16*
X312261250Y-180975000D03*
X302101250Y-180975000D03*
D18*
X307181250Y-180975000D03*
D17*
X303371250Y-178435000D03*
%TD*%
%TO.C,MX72*%
X322421250Y-178435000D03*
D18*
X326231250Y-180975000D03*
D16*
X321151250Y-180975000D03*
X331311250Y-180975000D03*
D17*
X328771250Y-175895000D03*
%TD*%
%TO.C,MX73*%
X347821250Y-175895000D03*
D16*
X350361250Y-180975000D03*
D17*
X341471250Y-178435000D03*
D18*
X345281250Y-180975000D03*
D16*
X340201250Y-180975000D03*
%TD*%
%TO.C,MX74*%
X359251250Y-180975000D03*
D18*
X364331250Y-180975000D03*
D16*
X369411250Y-180975000D03*
D17*
X366871250Y-175895000D03*
X360521250Y-178435000D03*
%TD*%
D14*
%TO.C,U1*%
X347186250Y-99130000D03*
D15*
X347186250Y-101670000D03*
X347186250Y-104210000D03*
X347186250Y-106750000D03*
X347186250Y-109290000D03*
X347186250Y-111830000D03*
X347186250Y-114370000D03*
X347186250Y-116910000D03*
X347186250Y-119450000D03*
X347186250Y-121990000D03*
X347186250Y-124530000D03*
X347186250Y-127070000D03*
X362426250Y-127070000D03*
X362426250Y-124530000D03*
X362426250Y-121990000D03*
X362426250Y-119450000D03*
X362426250Y-116910000D03*
X362426250Y-114370000D03*
X362426250Y-111830000D03*
X362426250Y-109290000D03*
X362426250Y-106750000D03*
X362426250Y-104210000D03*
X362426250Y-101670000D03*
X362426250Y-99130000D03*
X349726250Y-127070000D03*
X352266250Y-127070000D03*
X354806250Y-127070000D03*
X357346250Y-127070000D03*
X359886250Y-127070000D03*
%TD*%
D12*
%TO.C,D56*%
X245268750Y-154622500D03*
D13*
X245268750Y-159702500D03*
%TD*%
D21*
%TO.C,SW1*%
X369931250Y-143475000D03*
X358731250Y-143475000D03*
D22*
X366831250Y-135975000D03*
D23*
X361831250Y-135975000D03*
X364331250Y-135975000D03*
X361831250Y-150475000D03*
X366831250Y-150475000D03*
%TD*%
D17*
%TO.C,MX66*%
X184785000Y-183515000D03*
D18*
X130975100Y-172720000D03*
D17*
X178435000Y-186055000D03*
D18*
X180975000Y-180975000D03*
X230974900Y-172720000D03*
D24*
X230974900Y-187960000D03*
X130975100Y-187960000D03*
D16*
X186055000Y-180975000D03*
X175895000Y-180975000D03*
%TD*%
%TO.C,MX65*%
X181292500Y-180975000D03*
D17*
X178752500Y-175895000D03*
D18*
X176212500Y-180975000D03*
D17*
X172402500Y-178435000D03*
D16*
X171132500Y-180975000D03*
%TD*%
D12*
%TO.C,D73*%
X335756250Y-173672500D03*
D13*
X335756250Y-178752500D03*
%TD*%
D12*
%TO.C,D43*%
X292893750Y-145097500D03*
D13*
X292893750Y-150177500D03*
%TD*%
D17*
%TO.C,MX15*%
X366871250Y-137795000D03*
D16*
X359251250Y-142875000D03*
D17*
X360521250Y-140335000D03*
D18*
X364331250Y-142875000D03*
D16*
X369411250Y-142875000D03*
%TD*%
D12*
%TO.C,D59*%
X335756250Y-164147500D03*
D13*
X335756250Y-169227500D03*
%TD*%
D12*
%TO.C,D67*%
X195262500Y-176053750D03*
D13*
X195262500Y-181133750D03*
%TD*%
D18*
%TO.C,MX77*%
X61912500Y-161925000D03*
D16*
X66992500Y-161925000D03*
D17*
X59372500Y-167005000D03*
X65722500Y-164465000D03*
D16*
X56832500Y-161925000D03*
%TD*%
D17*
%TO.C,MX76*%
X318770000Y-130810000D03*
X321310000Y-137160000D03*
D18*
X315595000Y-145288000D03*
D16*
X323850000Y-128270000D03*
X323850000Y-138430000D03*
D18*
X323850000Y-133350000D03*
D24*
X330835000Y-145288000D03*
D18*
X315595000Y-121412000D03*
D24*
X330835000Y-121412000D03*
%TD*%
D16*
%TO.C,MX75*%
X66992500Y-142875000D03*
D18*
X61912500Y-142875000D03*
D16*
X56832500Y-142875000D03*
D17*
X64452500Y-137795000D03*
X58102500Y-140335000D03*
%TD*%
%TO.C,MX43*%
X297338750Y-140335000D03*
X299878750Y-146685000D03*
D16*
X302418750Y-137795000D03*
D18*
X302418750Y-142875000D03*
D16*
X302418750Y-147955000D03*
%TD*%
D19*
%TO.C,MX64*%
X154775000Y-172735000D03*
D18*
X142875000Y-180975000D03*
D17*
X139065000Y-178435000D03*
D16*
X147955000Y-180975000D03*
D20*
X130975000Y-187975000D03*
D17*
X145415000Y-175895000D03*
D19*
X130975000Y-172735000D03*
D16*
X137795000Y-180975000D03*
D20*
X154775000Y-187975000D03*
%TD*%
D17*
%TO.C,MX47*%
X80803750Y-167005000D03*
X87153750Y-164465000D03*
D18*
X83343750Y-161925000D03*
D16*
X88423750Y-161925000D03*
X78263750Y-161925000D03*
%TD*%
%TO.C,MX78*%
X294957500Y-161925000D03*
X305117500Y-161925000D03*
D17*
X297497500Y-167005000D03*
X303847500Y-164465000D03*
D18*
X300037500Y-161925000D03*
%TD*%
D12*
%TO.C,D47*%
X92868750Y-164147500D03*
D13*
X92868750Y-169227500D03*
%TD*%
D12*
%TO.C,D64*%
X121443750Y-173672500D03*
D13*
X121443750Y-178752500D03*
%TD*%
D19*
%TO.C,MX67*%
X226212500Y-172735000D03*
X202412500Y-172735000D03*
D16*
X209232500Y-180975000D03*
X219392500Y-180975000D03*
D20*
X202412500Y-187975000D03*
D17*
X210502500Y-178435000D03*
D18*
X214312500Y-180975000D03*
D17*
X216852500Y-175895000D03*
D20*
X226212500Y-187975000D03*
%TD*%
D12*
%TO.C,D65*%
X160200000Y-176053750D03*
D13*
X160200000Y-181133750D03*
%TD*%
D17*
%TO.C,MX59*%
X323691250Y-167005000D03*
D16*
X331311250Y-161925000D03*
D18*
X326231250Y-161925000D03*
D17*
X330041250Y-164465000D03*
D16*
X321151250Y-161925000D03*
%TD*%
M02*
