%TF.GenerationSoftware,KiCad,Pcbnew,(6.0.1)*%
%TF.CreationDate,2022-01-27T20:36:32-05:00*%
%TF.ProjectId,GanJing 70 plate,47616e4a-696e-4672-9037-3020706c6174,rev?*%
%TF.SameCoordinates,Original*%
%TF.FileFunction,Soldermask,Top*%
%TF.FilePolarity,Negative*%
%FSLAX46Y46*%
G04 Gerber Fmt 4.6, Leading zero omitted, Abs format (unit mm)*
G04 Created by KiCad (PCBNEW (6.0.1)) date 2022-01-27 20:36:32*
%MOMM*%
%LPD*%
G01*
G04 APERTURE LIST*
%ADD10C,0.300000*%
G04 APERTURE END LIST*
D10*
X351528571Y-190478571D02*
X351528571Y-188978571D01*
X351885714Y-188978571D01*
X352100000Y-189050000D01*
X352242857Y-189192857D01*
X352314285Y-189335714D01*
X352385714Y-189621428D01*
X352385714Y-189835714D01*
X352314285Y-190121428D01*
X352242857Y-190264285D01*
X352100000Y-190407142D01*
X351885714Y-190478571D01*
X351528571Y-190478571D01*
X353600000Y-190407142D02*
X353457142Y-190478571D01*
X353171428Y-190478571D01*
X353028571Y-190407142D01*
X352957142Y-190264285D01*
X352957142Y-189692857D01*
X353028571Y-189550000D01*
X353171428Y-189478571D01*
X353457142Y-189478571D01*
X353600000Y-189550000D01*
X353671428Y-189692857D01*
X353671428Y-189835714D01*
X352957142Y-189978571D01*
X354242857Y-190407142D02*
X354385714Y-190478571D01*
X354671428Y-190478571D01*
X354814285Y-190407142D01*
X354885714Y-190264285D01*
X354885714Y-190192857D01*
X354814285Y-190050000D01*
X354671428Y-189978571D01*
X354457142Y-189978571D01*
X354314285Y-189907142D01*
X354242857Y-189764285D01*
X354242857Y-189692857D01*
X354314285Y-189550000D01*
X354457142Y-189478571D01*
X354671428Y-189478571D01*
X354814285Y-189550000D01*
X355528571Y-190478571D02*
X355528571Y-189478571D01*
X355528571Y-188978571D02*
X355457142Y-189050000D01*
X355528571Y-189121428D01*
X355600000Y-189050000D01*
X355528571Y-188978571D01*
X355528571Y-189121428D01*
X356885714Y-189478571D02*
X356885714Y-190692857D01*
X356814285Y-190835714D01*
X356742857Y-190907142D01*
X356600000Y-190978571D01*
X356385714Y-190978571D01*
X356242857Y-190907142D01*
X356885714Y-190407142D02*
X356742857Y-190478571D01*
X356457142Y-190478571D01*
X356314285Y-190407142D01*
X356242857Y-190335714D01*
X356171428Y-190192857D01*
X356171428Y-189764285D01*
X356242857Y-189621428D01*
X356314285Y-189550000D01*
X356457142Y-189478571D01*
X356742857Y-189478571D01*
X356885714Y-189550000D01*
X357600000Y-189478571D02*
X357600000Y-190478571D01*
X357600000Y-189621428D02*
X357671428Y-189550000D01*
X357814285Y-189478571D01*
X358028571Y-189478571D01*
X358171428Y-189550000D01*
X358242857Y-189692857D01*
X358242857Y-190478571D01*
X359528571Y-190407142D02*
X359385714Y-190478571D01*
X359100000Y-190478571D01*
X358957142Y-190407142D01*
X358885714Y-190264285D01*
X358885714Y-189692857D01*
X358957142Y-189550000D01*
X359100000Y-189478571D01*
X359385714Y-189478571D01*
X359528571Y-189550000D01*
X359600000Y-189692857D01*
X359600000Y-189835714D01*
X358885714Y-189978571D01*
X360885714Y-190478571D02*
X360885714Y-188978571D01*
X360885714Y-190407142D02*
X360742857Y-190478571D01*
X360457142Y-190478571D01*
X360314285Y-190407142D01*
X360242857Y-190335714D01*
X360171428Y-190192857D01*
X360171428Y-189764285D01*
X360242857Y-189621428D01*
X360314285Y-189550000D01*
X360457142Y-189478571D01*
X360742857Y-189478571D01*
X360885714Y-189550000D01*
X362742857Y-190478571D02*
X362742857Y-188978571D01*
X362742857Y-189550000D02*
X362885714Y-189478571D01*
X363171428Y-189478571D01*
X363314285Y-189550000D01*
X363385714Y-189621428D01*
X363457142Y-189764285D01*
X363457142Y-190192857D01*
X363385714Y-190335714D01*
X363314285Y-190407142D01*
X363171428Y-190478571D01*
X362885714Y-190478571D01*
X362742857Y-190407142D01*
X363957142Y-189478571D02*
X364314285Y-190478571D01*
X364671428Y-189478571D02*
X364314285Y-190478571D01*
X364171428Y-190835714D01*
X364100000Y-190907142D01*
X363957142Y-190978571D01*
X366385714Y-190478571D02*
X366385714Y-188978571D01*
X366885714Y-190050000D01*
X367385714Y-188978571D01*
X367385714Y-190478571D01*
X368100000Y-190478571D02*
X368100000Y-189478571D01*
X368100000Y-188978571D02*
X368028571Y-189050000D01*
X368100000Y-189121428D01*
X368171428Y-189050000D01*
X368100000Y-188978571D01*
X368100000Y-189121428D01*
X368814285Y-189478571D02*
X368814285Y-190478571D01*
X368814285Y-189621428D02*
X368885714Y-189550000D01*
X369028571Y-189478571D01*
X369242857Y-189478571D01*
X369385714Y-189550000D01*
X369457142Y-189692857D01*
X369457142Y-190478571D01*
X370814285Y-189478571D02*
X370814285Y-190692857D01*
X370742857Y-190835714D01*
X370671428Y-190907142D01*
X370528571Y-190978571D01*
X370314285Y-190978571D01*
X370171428Y-190907142D01*
X370814285Y-190407142D02*
X370671428Y-190478571D01*
X370385714Y-190478571D01*
X370242857Y-190407142D01*
X370171428Y-190335714D01*
X370100000Y-190192857D01*
X370100000Y-189764285D01*
X370171428Y-189621428D01*
X370242857Y-189550000D01*
X370385714Y-189478571D01*
X370671428Y-189478571D01*
X370814285Y-189550000D01*
X371385714Y-189478571D02*
X372171428Y-189478571D01*
X371385714Y-190478571D01*
X372171428Y-190478571D01*
X373314285Y-190407142D02*
X373171428Y-190478571D01*
X372885714Y-190478571D01*
X372742857Y-190407142D01*
X372671428Y-190264285D01*
X372671428Y-189692857D01*
X372742857Y-189550000D01*
X372885714Y-189478571D01*
X373171428Y-189478571D01*
X373314285Y-189550000D01*
X373385714Y-189692857D01*
X373385714Y-189835714D01*
X372671428Y-189978571D01*
X375600000Y-188978571D02*
X375600000Y-190050000D01*
X375528571Y-190264285D01*
X375385714Y-190407142D01*
X375171428Y-190478571D01*
X375028571Y-190478571D01*
X376314285Y-190478571D02*
X376314285Y-189478571D01*
X376314285Y-188978571D02*
X376242857Y-189050000D01*
X376314285Y-189121428D01*
X376385714Y-189050000D01*
X376314285Y-188978571D01*
X376314285Y-189121428D01*
X377028571Y-189478571D02*
X377028571Y-190478571D01*
X377028571Y-189621428D02*
X377100000Y-189550000D01*
X377242857Y-189478571D01*
X377457142Y-189478571D01*
X377600000Y-189550000D01*
X377671428Y-189692857D01*
X377671428Y-190478571D01*
M02*
