%TF.GenerationSoftware,KiCad,Pcbnew,(5.1.12)-1*%
%TF.CreationDate,2022-01-10T12:08:13-05:00*%
%TF.ProjectId,GanJing 70 plate,47616e4a-696e-4672-9037-3020706c6174,rev?*%
%TF.SameCoordinates,Original*%
%TF.FileFunction,Profile,NP*%
%FSLAX46Y46*%
G04 Gerber Fmt 4.6, Leading zero omitted, Abs format (unit mm)*
G04 Created by KiCad (PCBNEW (5.1.12)-1) date 2022-01-10 12:08:13*
%MOMM*%
%LPD*%
G01*
G04 APERTURE LIST*
%TA.AperFunction,Profile*%
%ADD10C,0.200000*%
%TD*%
G04 APERTURE END LIST*
D10*
X246600000Y-105225000D02*
X303599999Y-105225000D01*
X373250000Y-156875000D02*
X373250000Y-193875049D01*
X133499999Y-108225000D02*
G75*
G02*
X131999999Y-106725000I0J1500000D01*
G01*
X370250000Y-196875049D02*
G75*
G02*
X371750000Y-195375049I1500000J0D01*
G01*
X272550000Y-204425000D02*
X239350000Y-204425000D01*
X45450000Y-124825000D02*
G75*
G02*
X43950000Y-126325000I-1500000J0D01*
G01*
X50943249Y-181899999D02*
X50856250Y-181899999D01*
X303599999Y-105225000D02*
G75*
G02*
X305099999Y-106725000I0J-1500000D01*
G01*
X369750000Y-204425000D02*
X335550000Y-204425000D01*
X306599999Y-108225000D02*
G75*
G02*
X305099999Y-106725000I0J1500000D01*
G01*
X220050000Y-108225000D02*
X243600000Y-108225000D01*
X371750000Y-155375000D02*
G75*
G02*
X370250000Y-153875000I0J1500000D01*
G01*
X217050000Y-105225000D02*
G75*
G02*
X218550000Y-106725000I0J-1500000D01*
G01*
X334050000Y-205925000D02*
G75*
G02*
X332550000Y-207425000I-1500000J0D01*
G01*
X306599999Y-108225000D02*
X331150000Y-108225000D01*
X370250000Y-146825000D02*
X370250000Y-153875000D01*
X133499999Y-108225000D02*
X157050000Y-108225000D01*
X220050000Y-108225000D02*
G75*
G02*
X218550000Y-106725000I0J1500000D01*
G01*
X312293800Y-148350000D02*
G75*
G02*
X311793800Y-148850000I-500000J0D01*
G01*
X45450000Y-124825000D02*
X45450000Y-108725000D01*
X373250000Y-193875049D02*
G75*
G02*
X371750000Y-195375049I-1500000J0D01*
G01*
X371750000Y-155375000D02*
G75*
G02*
X373250000Y-156875000I0J-1500000D01*
G01*
X72000000Y-106725000D02*
G75*
G02*
X70500000Y-108225000I-1500000J0D01*
G01*
X158550000Y-106725000D02*
G75*
G02*
X157050000Y-108225000I-1500000J0D01*
G01*
X301330749Y-163350000D02*
G75*
G02*
X301830749Y-162850000I500000J0D01*
G01*
X293830750Y-162850000D02*
G75*
G02*
X294330750Y-163350000I0J-500000D01*
G01*
X50943249Y-181900000D02*
G75*
G02*
X51443249Y-182400000I0J-500000D01*
G01*
X130500000Y-105225000D02*
G75*
G02*
X132000000Y-106725000I0J-1500000D01*
G01*
X42450000Y-127825000D02*
X42450000Y-184825000D01*
X82319250Y-182400000D02*
G75*
G02*
X82819250Y-181900000I500000J0D01*
G01*
X72000000Y-106725000D02*
G75*
G02*
X73500000Y-105225000I1500000J0D01*
G01*
X160050000Y-105225000D02*
X217050000Y-105225000D01*
X275550000Y-207425000D02*
X332550000Y-207425000D01*
X45950000Y-108225000D02*
X70500000Y-108225000D01*
X43950000Y-186325000D02*
G75*
G02*
X42450000Y-184825000I0J1500000D01*
G01*
X42450000Y-127825000D02*
G75*
G02*
X43950000Y-126325000I1500000J0D01*
G01*
X158550000Y-106725000D02*
G75*
G02*
X160050000Y-105225000I1500000J0D01*
G01*
X324412500Y-130887000D02*
G75*
G02*
X323912500Y-130387000I0J500000D01*
G01*
X311793750Y-143800000D02*
G75*
G02*
X312293750Y-144300000I0J-500000D01*
G01*
X325206751Y-162262999D02*
G75*
G02*
X325706750Y-161763000I499999J0D01*
G01*
X245100000Y-106725000D02*
G75*
G02*
X243600000Y-108225000I-1500000J0D01*
G01*
X317706750Y-162850000D02*
G75*
G02*
X318206750Y-163350000I0J-500000D01*
G01*
X74819250Y-181900000D02*
G75*
G02*
X75319250Y-182400000I0J-500000D01*
G01*
X58443250Y-182400000D02*
G75*
G02*
X58943250Y-181900000I500000J0D01*
G01*
X45450000Y-203925000D02*
X45450000Y-187825000D01*
X43950000Y-186325000D02*
G75*
G02*
X45450000Y-187825000I0J-1500000D01*
G01*
X245100000Y-106725000D02*
G75*
G02*
X246600000Y-105225000I1500000J0D01*
G01*
X80150000Y-204425000D02*
X45950000Y-204425000D01*
X176350000Y-204425000D02*
X143150000Y-204425000D01*
X73500000Y-105225000D02*
X130500000Y-105225000D01*
X370250000Y-196875049D02*
X370250000Y-203925000D01*
X237850000Y-205925000D02*
G75*
G02*
X239350000Y-204425000I1500000J0D01*
G01*
X176350000Y-204425000D02*
G75*
G02*
X177850000Y-205925000I0J-1500000D01*
G01*
X179350000Y-207425000D02*
G75*
G02*
X177850000Y-205925000I0J1500000D01*
G01*
X331650000Y-108725000D02*
X331650000Y-145825000D01*
X332150000Y-146325000D02*
G75*
G02*
X331650000Y-145825000I0J500000D01*
G01*
X129918750Y-200450000D02*
X129918750Y-186449999D01*
X347225000Y-186949999D02*
G75*
G02*
X347725000Y-187449999I0J-500000D01*
G01*
X229418750Y-185949999D02*
X218694250Y-185949999D01*
X352775000Y-187449999D02*
X352775000Y-200450000D01*
X295625000Y-187449999D02*
X295625000Y-200450000D01*
X333725000Y-187449999D02*
G75*
G02*
X334225000Y-186949999I500000J0D01*
G01*
X314675000Y-187449999D02*
G75*
G02*
X315175000Y-186949999I500000J0D01*
G01*
X83150000Y-207425000D02*
X140150000Y-207425000D01*
X74819250Y-181899999D02*
X58943250Y-181899999D01*
X229918750Y-200450000D02*
X229918750Y-186449999D01*
X141650000Y-205925000D02*
G75*
G02*
X140150000Y-207425000I-1500000J0D01*
G01*
X331150000Y-108225000D02*
G75*
G02*
X331650000Y-108725000I0J-500000D01*
G01*
X317706750Y-162850000D02*
X301830749Y-162850000D01*
X165156250Y-186949999D02*
X182918750Y-186949999D01*
X366775000Y-200450000D02*
X366775000Y-187449999D01*
X315175000Y-200950000D02*
G75*
G02*
X314675000Y-200450000I0J500000D01*
G01*
X334225000Y-200950000D02*
X347225000Y-200950000D01*
X328175000Y-186949999D02*
X315175000Y-186949999D01*
X50856250Y-167900000D02*
X85287500Y-167900000D01*
X366275000Y-186949999D02*
X353275000Y-186949999D01*
X334050000Y-205925000D02*
G75*
G02*
X335550000Y-204425000I1500000J0D01*
G01*
X291362500Y-148850000D02*
X311793800Y-148850000D01*
X347225000Y-186949999D02*
X334225000Y-186949999D01*
X272550000Y-204425000D02*
G75*
G02*
X274050000Y-205925000I0J-1500000D01*
G01*
X153756750Y-200450000D02*
X153756750Y-186449999D01*
X80150000Y-204425000D02*
G75*
G02*
X81650000Y-205925000I0J-1500000D01*
G01*
X275550000Y-207425000D02*
G75*
G02*
X274050000Y-205925000I0J1500000D01*
G01*
X218194250Y-186449999D02*
X218194250Y-200450000D01*
X141650000Y-205925000D02*
G75*
G02*
X143150000Y-204425000I1500000J0D01*
G01*
X83150000Y-207425000D02*
G75*
G02*
X81650000Y-205925000I0J1500000D01*
G01*
X366775000Y-200450000D02*
G75*
G02*
X366275000Y-200950000I-500000J0D01*
G01*
X314675000Y-187449999D02*
X314675000Y-200450000D01*
X182918750Y-200950000D02*
X165156250Y-200950000D01*
X347725000Y-200450000D02*
X347725000Y-187449999D01*
X45450000Y-108725000D02*
G75*
G02*
X45950000Y-108225000I500000J0D01*
G01*
X45950000Y-204425000D02*
G75*
G02*
X45450000Y-203925000I0J500000D01*
G01*
X201318250Y-200450000D02*
X201318250Y-186449999D01*
X146756750Y-186449999D02*
X146756750Y-200450000D01*
X218694250Y-200950000D02*
X229418750Y-200950000D01*
X328175000Y-186949999D02*
G75*
G02*
X328675000Y-187449999I0J-500000D01*
G01*
X353275000Y-200950000D02*
X366275000Y-200950000D01*
X352775000Y-187449999D02*
G75*
G02*
X353275000Y-186949999I500000J0D01*
G01*
X353275000Y-200950000D02*
G75*
G02*
X352775000Y-200450000I0J500000D01*
G01*
X334225000Y-200950000D02*
G75*
G02*
X333725000Y-200450000I0J500000D01*
G01*
X315175000Y-200950000D02*
X328175000Y-200950000D01*
X122880750Y-186449999D02*
X122880750Y-200450000D01*
X179350000Y-207425000D02*
X236350000Y-207425000D01*
X369750000Y-146325000D02*
G75*
G02*
X370250000Y-146825000I0J-500000D01*
G01*
X68618750Y-162850000D02*
X50856250Y-162850000D01*
X237850000Y-205925000D02*
G75*
G02*
X236350000Y-207425000I-1500000J0D01*
G01*
X194318250Y-186449999D02*
X194318250Y-200450000D01*
X366275000Y-186949999D02*
G75*
G02*
X366775000Y-187449999I0J-500000D01*
G01*
X328675000Y-200450000D02*
X328675000Y-187449999D01*
X50856250Y-148850000D02*
X68618750Y-148850000D01*
X347725000Y-200450000D02*
G75*
G02*
X347225000Y-200950000I-500000J0D01*
G01*
X369750000Y-146325000D02*
X332150000Y-146325000D01*
X333725000Y-187449999D02*
X333725000Y-200450000D01*
X328675000Y-200450000D02*
G75*
G02*
X328175000Y-200950000I-500000J0D01*
G01*
X370250000Y-203925000D02*
G75*
G02*
X369750000Y-204425000I-500000J0D01*
G01*
X153756750Y-200450000D02*
G75*
G02*
X153256750Y-200950000I-500000J0D01*
G01*
X147256750Y-200950000D02*
X153256750Y-200950000D01*
X271525000Y-200450000D02*
G75*
G02*
X271025000Y-200950000I-500000J0D01*
G01*
X202756250Y-187449999D02*
G75*
G02*
X203256250Y-186949999I500000J0D01*
G01*
X258025000Y-200950000D02*
G75*
G02*
X257525000Y-200450000I0J500000D01*
G01*
X164656250Y-187449999D02*
G75*
G02*
X165156250Y-186949999I500000J0D01*
G01*
X200818250Y-185949999D02*
X194818250Y-185949999D01*
X257525000Y-187449999D02*
X257525000Y-200450000D01*
X238475000Y-187449999D02*
X238475000Y-200450000D01*
X290575000Y-200450000D02*
G75*
G02*
X290075000Y-200950000I-500000J0D01*
G01*
X276575000Y-187449999D02*
X276575000Y-200450000D01*
X200818250Y-185949999D02*
G75*
G02*
X201318250Y-186449999I0J-500000D01*
G01*
X238975000Y-200950000D02*
X251975000Y-200950000D01*
X194818250Y-200950000D02*
X200818250Y-200950000D01*
X216256250Y-186949999D02*
G75*
G02*
X216756250Y-187449999I0J-500000D01*
G01*
X238475000Y-187449999D02*
G75*
G02*
X238975000Y-186949999I500000J0D01*
G01*
X252475000Y-200450000D02*
G75*
G02*
X251975000Y-200950000I-500000J0D01*
G01*
X144818750Y-186949999D02*
X131818750Y-186949999D01*
X216256250Y-186949999D02*
X203256250Y-186949999D01*
X238975000Y-200950000D02*
G75*
G02*
X238475000Y-200450000I0J500000D01*
G01*
X251975000Y-186949999D02*
X238975000Y-186949999D01*
X277075000Y-200950000D02*
X290075000Y-200950000D01*
X276575000Y-187449999D02*
G75*
G02*
X277075000Y-186949999I500000J0D01*
G01*
X218694250Y-200950000D02*
G75*
G02*
X218194250Y-200450000I0J500000D01*
G01*
X271525000Y-200450000D02*
X271525000Y-187449999D01*
X201318250Y-200450000D02*
G75*
G02*
X200818250Y-200950000I-500000J0D01*
G01*
X258025000Y-200950000D02*
X271025000Y-200950000D01*
X123380750Y-200950000D02*
G75*
G02*
X122880750Y-200450000I0J500000D01*
G01*
X146756750Y-186449999D02*
G75*
G02*
X147256750Y-185949999I500000J0D01*
G01*
X203256250Y-200950000D02*
X216256250Y-200950000D01*
X218194250Y-186449999D02*
G75*
G02*
X218694250Y-185949999I500000J0D01*
G01*
X203256250Y-200950000D02*
G75*
G02*
X202756250Y-200450000I0J500000D01*
G01*
X194318250Y-186449999D02*
G75*
G02*
X194818250Y-185949999I500000J0D01*
G01*
X216756250Y-200450000D02*
X216756250Y-187449999D01*
X122880750Y-186449999D02*
G75*
G02*
X123380750Y-185949999I500000J0D01*
G01*
X153256750Y-185949999D02*
X147256750Y-185949999D01*
X153256750Y-185949999D02*
G75*
G02*
X153756750Y-186449999I0J-500000D01*
G01*
X165156250Y-200950000D02*
G75*
G02*
X164656250Y-200450000I0J500000D01*
G01*
X145318750Y-200450000D02*
X145318750Y-187449999D01*
X202756250Y-187449999D02*
X202756250Y-200450000D01*
X290075000Y-186949999D02*
G75*
G02*
X290575000Y-187449999I0J-500000D01*
G01*
X216756250Y-200450000D02*
G75*
G02*
X216256250Y-200950000I-500000J0D01*
G01*
X271025000Y-186949999D02*
X258025000Y-186949999D01*
X164656250Y-187449999D02*
X164656250Y-200450000D01*
X131318750Y-187449999D02*
X131318750Y-200450000D01*
X309625000Y-200450000D02*
X309625000Y-187449999D01*
X309125000Y-186949999D02*
X296125000Y-186949999D01*
X296125000Y-200950000D02*
X309125000Y-200950000D01*
X251975000Y-186949999D02*
G75*
G02*
X252475000Y-187449999I0J-500000D01*
G01*
X194818250Y-200950000D02*
G75*
G02*
X194318250Y-200450000I0J500000D01*
G01*
X295625000Y-187449999D02*
G75*
G02*
X296125000Y-186949999I500000J0D01*
G01*
X131818750Y-200950000D02*
X144818750Y-200950000D01*
X309125000Y-186949999D02*
G75*
G02*
X309625000Y-187449999I0J-500000D01*
G01*
X144818750Y-186949999D02*
G75*
G02*
X145318750Y-187449999I0J-500000D01*
G01*
X309625000Y-200450000D02*
G75*
G02*
X309125000Y-200950000I-500000J0D01*
G01*
X296125000Y-200950000D02*
G75*
G02*
X295625000Y-200450000I0J500000D01*
G01*
X131318750Y-187449999D02*
G75*
G02*
X131818750Y-186949999I500000J0D01*
G01*
X290575000Y-200450000D02*
X290575000Y-187449999D01*
X290075000Y-186949999D02*
X277075000Y-186949999D01*
X277075000Y-200950000D02*
G75*
G02*
X276575000Y-200450000I0J500000D01*
G01*
X257525000Y-187449999D02*
G75*
G02*
X258025000Y-186949999I500000J0D01*
G01*
X271025000Y-186949999D02*
G75*
G02*
X271525000Y-187449999I0J-500000D01*
G01*
X147256750Y-200950000D02*
G75*
G02*
X146756750Y-200450000I0J500000D01*
G01*
X252475000Y-200450000D02*
X252475000Y-187449999D01*
X166250000Y-129800000D02*
X153250000Y-129800000D01*
X133700000Y-130300000D02*
G75*
G02*
X134200000Y-129800000I500000J0D01*
G01*
X128150000Y-129800000D02*
X115150000Y-129800000D01*
X115150000Y-143800000D02*
G75*
G02*
X114650000Y-143300000I0J500000D01*
G01*
X90049999Y-129800000D02*
G75*
G02*
X90549999Y-130300000I0J-500000D01*
G01*
X152750000Y-130300000D02*
G75*
G02*
X153250000Y-129800000I500000J0D01*
G01*
X166250000Y-129800000D02*
G75*
G02*
X166750000Y-130300000I0J-500000D01*
G01*
X96100000Y-143800000D02*
X109100000Y-143800000D01*
X77050000Y-143800000D02*
X90049999Y-143800000D01*
X49137500Y-143300000D02*
X49137500Y-130300000D01*
X48637500Y-129800000D02*
G75*
G02*
X49137500Y-130300000I0J-500000D01*
G01*
X153250000Y-143800000D02*
G75*
G02*
X152750000Y-143300000I0J500000D01*
G01*
X70837500Y-143800000D02*
X71837500Y-143800000D01*
X95600000Y-130300000D02*
G75*
G02*
X96100000Y-129800000I500000J0D01*
G01*
X128150000Y-129800000D02*
G75*
G02*
X128650000Y-130300000I0J-500000D01*
G01*
X109100000Y-129800000D02*
G75*
G02*
X109600000Y-130300000I0J-500000D01*
G01*
X90049999Y-129800000D02*
X77050000Y-129800000D01*
X133700000Y-130300000D02*
X133700000Y-143300000D01*
X109600000Y-143300000D02*
G75*
G02*
X109100000Y-143800000I-500000J0D01*
G01*
X70337500Y-130300000D02*
X70337500Y-143300000D01*
X47637500Y-143800000D02*
X48637500Y-143800000D01*
X72337500Y-143300000D02*
X72337500Y-130300000D01*
X71837500Y-129800000D02*
X70837500Y-129800000D01*
X47137500Y-130300000D02*
G75*
G02*
X47637500Y-129800000I500000J0D01*
G01*
X147200000Y-129800000D02*
G75*
G02*
X147700000Y-130300000I0J-500000D01*
G01*
X77050000Y-143800000D02*
G75*
G02*
X76550000Y-143300000I0J500000D01*
G01*
X70837500Y-143800000D02*
G75*
G02*
X70337500Y-143300000I0J500000D01*
G01*
X95600000Y-130300000D02*
X95600000Y-143300000D01*
X96100000Y-143800000D02*
G75*
G02*
X95600000Y-143300000I0J500000D01*
G01*
X70337500Y-130300000D02*
G75*
G02*
X70837500Y-129800000I500000J0D01*
G01*
X166750000Y-143300000D02*
X166750000Y-130300000D01*
X153250000Y-143800000D02*
X166250000Y-143800000D01*
X134200000Y-143800000D02*
X147200000Y-143800000D01*
X134200000Y-143800000D02*
G75*
G02*
X133700000Y-143300000I0J500000D01*
G01*
X166750000Y-143300000D02*
G75*
G02*
X166250000Y-143800000I-500000J0D01*
G01*
X147700000Y-143300000D02*
G75*
G02*
X147200000Y-143800000I-500000J0D01*
G01*
X114650000Y-130300000D02*
G75*
G02*
X115150000Y-129800000I500000J0D01*
G01*
X128650000Y-143300000D02*
G75*
G02*
X128150000Y-143800000I-500000J0D01*
G01*
X114650000Y-130300000D02*
X114650000Y-143300000D01*
X115150000Y-143800000D02*
X128150000Y-143800000D01*
X49137500Y-143300000D02*
G75*
G02*
X48637500Y-143800000I-500000J0D01*
G01*
X76550000Y-130300000D02*
X76550000Y-143300000D01*
X47137500Y-130300000D02*
X47137500Y-143300000D01*
X147700000Y-143300000D02*
X147700000Y-130300000D01*
X71837500Y-129800000D02*
G75*
G02*
X72337500Y-130300000I0J-500000D01*
G01*
X48637500Y-129800000D02*
X47637500Y-129800000D01*
X185800000Y-143300000D02*
G75*
G02*
X185300000Y-143800000I-500000J0D01*
G01*
X90549999Y-143300000D02*
G75*
G02*
X90049999Y-143800000I-500000J0D01*
G01*
X109100000Y-129800000D02*
X96100000Y-129800000D01*
X109600000Y-143300000D02*
X109600000Y-130300000D01*
X90550000Y-143300000D02*
X90550000Y-130300000D01*
X72337500Y-143300000D02*
G75*
G02*
X71837500Y-143800000I-500000J0D01*
G01*
X128650000Y-143300000D02*
X128650000Y-130300000D01*
X76550000Y-130300000D02*
G75*
G02*
X77050000Y-129800000I500000J0D01*
G01*
X172300000Y-143800000D02*
G75*
G02*
X171800000Y-143300000I0J500000D01*
G01*
X152750000Y-130300000D02*
X152750000Y-143300000D01*
X147200000Y-129800000D02*
X134200000Y-129800000D01*
X290075000Y-110749999D02*
X277075000Y-110749999D01*
X66237500Y-129800000D02*
G75*
G02*
X66737500Y-130300000I0J-500000D01*
G01*
X303212000Y-110749999D02*
X297212000Y-110749999D01*
X252475000Y-124249999D02*
X252475000Y-111249999D01*
X257525000Y-111249999D02*
X257525000Y-124249999D01*
X271025000Y-110749999D02*
X258025000Y-110749999D01*
X318650000Y-110749999D02*
G75*
G02*
X319150000Y-111249999I0J-500000D01*
G01*
X271025000Y-110749999D02*
G75*
G02*
X271525000Y-111249999I0J-500000D01*
G01*
X251975000Y-110749999D02*
X238975000Y-110749999D01*
X251975000Y-110749999D02*
G75*
G02*
X252475000Y-111249999I0J-500000D01*
G01*
X303712000Y-125250000D02*
X303712000Y-111249999D01*
X319150000Y-124249999D02*
X319150000Y-111249999D01*
X52737499Y-130300000D02*
X52737499Y-143300000D01*
X66737500Y-143300000D02*
X66737500Y-130300000D01*
X66237500Y-129800000D02*
X53237499Y-129800000D01*
X233425000Y-124249999D02*
X233425000Y-111249999D01*
X53237499Y-143800000D02*
X66237500Y-143800000D01*
X219925000Y-124749999D02*
X232925000Y-124749999D01*
X66737500Y-143300000D02*
G75*
G02*
X66237500Y-143800000I-500000J0D01*
G01*
X219425000Y-111249999D02*
G75*
G02*
X219925000Y-110749999I500000J0D01*
G01*
X305150000Y-111249999D02*
G75*
G02*
X305650000Y-110749999I500000J0D01*
G01*
X296712000Y-111249999D02*
X296712000Y-125250000D01*
X297212000Y-125750000D02*
G75*
G02*
X296712000Y-125250000I0J500000D01*
G01*
X233425000Y-124249999D02*
G75*
G02*
X232925000Y-124749999I-500000J0D01*
G01*
X53237499Y-143800000D02*
G75*
G02*
X52737499Y-143300000I0J500000D01*
G01*
X258025000Y-124749999D02*
X271025000Y-124749999D01*
X52737499Y-130300000D02*
G75*
G02*
X53237499Y-129800000I500000J0D01*
G01*
X321088000Y-125750000D02*
G75*
G02*
X320588000Y-125250000I0J500000D01*
G01*
X290075000Y-110749999D02*
G75*
G02*
X290575000Y-111249999I0J-500000D01*
G01*
X320588000Y-111249999D02*
X320588000Y-125250000D01*
X327588000Y-125250000D02*
X327588000Y-111249999D01*
X290575000Y-124249999D02*
X290575000Y-111249999D01*
X327088000Y-110749999D02*
X321088000Y-110749999D01*
X321088000Y-125750000D02*
X327088000Y-125750000D01*
X327588000Y-125250000D02*
G75*
G02*
X327088000Y-125750000I-500000J0D01*
G01*
X303212000Y-110749999D02*
G75*
G02*
X303712000Y-111249999I0J-500000D01*
G01*
X238975000Y-124749999D02*
X251975000Y-124749999D01*
X276575000Y-111249999D02*
X276575000Y-124249999D01*
X232925000Y-110749999D02*
G75*
G02*
X233425000Y-111249999I0J-500000D01*
G01*
X320588000Y-111249999D02*
G75*
G02*
X321088000Y-110749999I500000J0D01*
G01*
X327088000Y-110749999D02*
G75*
G02*
X327588000Y-111249999I0J-500000D01*
G01*
X258025000Y-124749999D02*
G75*
G02*
X257525000Y-124249999I0J500000D01*
G01*
X252475000Y-124249999D02*
G75*
G02*
X251975000Y-124749999I-500000J0D01*
G01*
X297212000Y-125750000D02*
X303212000Y-125750000D01*
X318650000Y-110749999D02*
X305650000Y-110749999D01*
X296712000Y-111249999D02*
G75*
G02*
X297212000Y-110749999I500000J0D01*
G01*
X271525000Y-124249999D02*
X271525000Y-111249999D01*
X219425000Y-111249999D02*
X219425000Y-124249999D01*
X232925000Y-110749999D02*
X219925000Y-110749999D01*
X305150000Y-111249999D02*
X305150000Y-124249999D01*
X238475000Y-111249999D02*
X238475000Y-124249999D01*
X290575000Y-124249999D02*
G75*
G02*
X290075000Y-124749999I-500000J0D01*
G01*
X238975000Y-124749999D02*
G75*
G02*
X238475000Y-124249999I0J500000D01*
G01*
X319150000Y-124249999D02*
G75*
G02*
X318650000Y-124749999I-500000J0D01*
G01*
X305650000Y-124749999D02*
G75*
G02*
X305150000Y-124249999I0J500000D01*
G01*
X303712000Y-125250000D02*
G75*
G02*
X303212000Y-125750000I-500000J0D01*
G01*
X257525000Y-111249999D02*
G75*
G02*
X258025000Y-110749999I500000J0D01*
G01*
X276575000Y-111249999D02*
G75*
G02*
X277075000Y-110749999I500000J0D01*
G01*
X277075000Y-124749999D02*
G75*
G02*
X276575000Y-124249999I0J500000D01*
G01*
X271525000Y-124249999D02*
G75*
G02*
X271025000Y-124749999I-500000J0D01*
G01*
X238475000Y-111249999D02*
G75*
G02*
X238975000Y-110749999I500000J0D01*
G01*
X305650000Y-124749999D02*
X318650000Y-124749999D01*
X277075000Y-124749999D02*
X290075000Y-124749999D01*
X47637500Y-143800000D02*
G75*
G02*
X47137500Y-143300000I0J500000D01*
G01*
X213875000Y-110749999D02*
G75*
G02*
X214375000Y-111249999I0J-500000D01*
G01*
X214375000Y-124249999D02*
G75*
G02*
X213875000Y-124749999I-500000J0D01*
G01*
X200875000Y-124749999D02*
G75*
G02*
X200375000Y-124249999I0J500000D01*
G01*
X181325000Y-111249999D02*
X181325000Y-124249999D01*
X194825000Y-110749999D02*
G75*
G02*
X195325000Y-111249999I0J-500000D01*
G01*
X181825000Y-124749999D02*
G75*
G02*
X181325000Y-124249999I0J500000D01*
G01*
X86074999Y-111249999D02*
G75*
G02*
X86574999Y-110749999I500000J0D01*
G01*
X143725000Y-124749999D02*
X156725000Y-124749999D01*
X143725000Y-124749999D02*
G75*
G02*
X143225000Y-124249999I0J500000D01*
G01*
X124674999Y-124749999D02*
G75*
G02*
X124174999Y-124249999I0J500000D01*
G01*
X86574999Y-124749999D02*
X99575000Y-124749999D01*
X67525000Y-124749999D02*
X80525000Y-124749999D01*
X181325000Y-111249999D02*
G75*
G02*
X181825000Y-110749999I500000J0D01*
G01*
X124674999Y-124749999D02*
X137675000Y-124749999D01*
X175774999Y-110749999D02*
G75*
G02*
X176274999Y-111249999I0J-500000D01*
G01*
X175774999Y-110749999D02*
X162775000Y-110749999D01*
X162775000Y-124749999D02*
X175774999Y-124749999D01*
X156725000Y-110749999D02*
G75*
G02*
X157225000Y-111249999I0J-500000D01*
G01*
X137675000Y-110749999D02*
X124674999Y-110749999D01*
X105125000Y-111249999D02*
X105125000Y-124249999D01*
X81025000Y-124249999D02*
G75*
G02*
X80525000Y-124749999I-500000J0D01*
G01*
X99575000Y-110749999D02*
X86574999Y-110749999D01*
X81025000Y-124249999D02*
X81025000Y-111249999D01*
X124174999Y-111249999D02*
G75*
G02*
X124674999Y-110749999I500000J0D01*
G01*
X119124999Y-124249999D02*
X119124999Y-111249999D01*
X162275000Y-111249999D02*
G75*
G02*
X162775000Y-110749999I500000J0D01*
G01*
X157225000Y-124249999D02*
G75*
G02*
X156725000Y-124749999I-500000J0D01*
G01*
X100075000Y-124249999D02*
X100075000Y-111249999D01*
X176274999Y-124249999D02*
X176274999Y-111249999D01*
X157225000Y-124249999D02*
X157225000Y-111249999D01*
X213875000Y-110749999D02*
X200875000Y-110749999D01*
X195325000Y-124249999D02*
X195325000Y-111249999D01*
X176274999Y-124249999D02*
G75*
G02*
X175774999Y-124749999I-500000J0D01*
G01*
X219925000Y-124749999D02*
G75*
G02*
X219425000Y-124249999I0J500000D01*
G01*
X200375000Y-111249999D02*
X200375000Y-124249999D01*
X118624999Y-110749999D02*
G75*
G02*
X119124999Y-111249999I0J-500000D01*
G01*
X86574999Y-124749999D02*
G75*
G02*
X86074999Y-124249999I0J500000D01*
G01*
X138175000Y-124249999D02*
X138175000Y-111249999D01*
X86075000Y-111249999D02*
X86075000Y-124249999D01*
X200875000Y-124749999D02*
X213875000Y-124749999D01*
X194825000Y-110749999D02*
X181825000Y-110749999D01*
X162775000Y-124749999D02*
G75*
G02*
X162275000Y-124249999I0J500000D01*
G01*
X156725000Y-110749999D02*
X143725000Y-110749999D01*
X124174999Y-111249999D02*
X124174999Y-124249999D01*
X67025000Y-111249999D02*
G75*
G02*
X67525000Y-110749999I500000J0D01*
G01*
X118624999Y-110749999D02*
X105625000Y-110749999D01*
X105625000Y-124749999D02*
X118624999Y-124749999D01*
X119124999Y-124249999D02*
G75*
G02*
X118624999Y-124749999I-500000J0D01*
G01*
X100075000Y-124249999D02*
G75*
G02*
X99575000Y-124749999I-500000J0D01*
G01*
X80525000Y-110749999D02*
X67525000Y-110749999D01*
X143225000Y-111249999D02*
G75*
G02*
X143725000Y-110749999I500000J0D01*
G01*
X200375000Y-111249999D02*
G75*
G02*
X200875000Y-110749999I500000J0D01*
G01*
X162275000Y-111249999D02*
X162275000Y-124249999D01*
X137675000Y-110749999D02*
G75*
G02*
X138175000Y-111249999I0J-500000D01*
G01*
X181825000Y-124749999D02*
X194825000Y-124749999D01*
X143225000Y-111249999D02*
X143225000Y-124249999D01*
X105125000Y-111249999D02*
G75*
G02*
X105625000Y-110749999I500000J0D01*
G01*
X67025000Y-111249999D02*
X67025000Y-124249999D01*
X138175000Y-124249999D02*
G75*
G02*
X137675000Y-124749999I-500000J0D01*
G01*
X99575000Y-110749999D02*
G75*
G02*
X100075000Y-111249999I0J-500000D01*
G01*
X195325000Y-124249999D02*
G75*
G02*
X194825000Y-124749999I-500000J0D01*
G01*
X105625000Y-124749999D02*
G75*
G02*
X105125000Y-124249999I0J500000D01*
G01*
X80525000Y-110749999D02*
G75*
G02*
X81025000Y-111249999I0J-500000D01*
G01*
X214375000Y-124249999D02*
X214375000Y-111249999D01*
X47974999Y-111249999D02*
X47974999Y-124249999D01*
X61974999Y-124249999D02*
G75*
G02*
X61474999Y-124749999I-500000J0D01*
G01*
X67525000Y-124749999D02*
G75*
G02*
X67025000Y-124249999I0J500000D01*
G01*
X48474999Y-124749999D02*
G75*
G02*
X47974999Y-124249999I0J500000D01*
G01*
X61974999Y-124249999D02*
X61974999Y-111249999D01*
X61474999Y-110749999D02*
X48474999Y-110749999D01*
X47974999Y-111249999D02*
G75*
G02*
X48474999Y-110749999I500000J0D01*
G01*
X48474999Y-124749999D02*
X61474999Y-124749999D01*
X61474999Y-110749999D02*
G75*
G02*
X61974999Y-111249999I0J-500000D01*
G01*
X129918749Y-200450000D02*
G75*
G02*
X129418749Y-200950000I-500000J0D01*
G01*
X97981250Y-187449999D02*
X97981250Y-200450000D01*
X63856250Y-186949999D02*
G75*
G02*
X64356250Y-187449999I0J-500000D01*
G01*
X74168750Y-187449999D02*
X74168750Y-200450000D01*
X50356250Y-187449999D02*
G75*
G02*
X50856250Y-186949999I500000J0D01*
G01*
X352775000Y-168400000D02*
G75*
G02*
X353275000Y-167900000I500000J0D01*
G01*
X333725000Y-168400000D02*
X333725000Y-181399999D01*
X131818750Y-200950000D02*
G75*
G02*
X131318750Y-200450000I0J500000D01*
G01*
X97981250Y-187449999D02*
G75*
G02*
X98481250Y-186949999I500000J0D01*
G01*
X182918750Y-186949999D02*
G75*
G02*
X183418750Y-187449999I0J-500000D01*
G01*
X98481250Y-200950000D02*
X111481250Y-200950000D01*
X111481250Y-186949999D02*
G75*
G02*
X111981250Y-187449999I0J-500000D01*
G01*
X88168750Y-200450000D02*
X88168750Y-187449999D01*
X50856250Y-200950000D02*
X63856250Y-200950000D01*
X353275000Y-181899999D02*
G75*
G02*
X352775000Y-181399999I0J500000D01*
G01*
X366275000Y-167900000D02*
X353275000Y-167900000D01*
X87668749Y-186949999D02*
X74668750Y-186949999D01*
X229418750Y-185949999D02*
G75*
G02*
X229918750Y-186449999I0J-500000D01*
G01*
X183418750Y-200450000D02*
G75*
G02*
X182918750Y-200950000I-500000J0D01*
G01*
X63856250Y-186949999D02*
X50856250Y-186949999D01*
X123380750Y-200950000D02*
X129418749Y-200950000D01*
X229918750Y-200450000D02*
G75*
G02*
X229418750Y-200950000I-500000J0D01*
G01*
X333725000Y-168400000D02*
G75*
G02*
X334225000Y-167900000I500000J0D01*
G01*
X313444250Y-168400000D02*
X313444250Y-182400000D01*
X129418749Y-185949999D02*
X123380750Y-185949999D01*
X111481250Y-186949999D02*
X98481250Y-186949999D01*
X88168749Y-200450000D02*
G75*
G02*
X87668749Y-200950000I-500000J0D01*
G01*
X352775000Y-168400000D02*
X352775000Y-181399999D01*
X64356250Y-200450000D02*
X64356250Y-187449999D01*
X334225000Y-181899999D02*
X347225000Y-181899999D01*
X129418749Y-185949999D02*
G75*
G02*
X129918749Y-186449999I0J-500000D01*
G01*
X111981250Y-200450000D02*
X111981250Y-187449999D01*
X74668750Y-200950000D02*
X87668749Y-200950000D01*
X366275000Y-167900000D02*
G75*
G02*
X366775000Y-168400000I0J-500000D01*
G01*
X74168750Y-187449999D02*
G75*
G02*
X74668750Y-186949999I500000J0D01*
G01*
X74668750Y-200950000D02*
G75*
G02*
X74168750Y-200450000I0J500000D01*
G01*
X50856250Y-200950000D02*
G75*
G02*
X50356250Y-200450000I0J500000D01*
G01*
X353275000Y-181899999D02*
X366275000Y-181899999D01*
X183418750Y-200450000D02*
X183418750Y-187449999D01*
X111981250Y-200450000D02*
G75*
G02*
X111481250Y-200950000I-500000J0D01*
G01*
X98481250Y-200950000D02*
G75*
G02*
X97981250Y-200450000I0J500000D01*
G01*
X347725000Y-181399999D02*
X347725000Y-168400000D01*
X347225000Y-167900000D02*
X334225000Y-167900000D01*
X87668749Y-186949999D02*
G75*
G02*
X88168749Y-187449999I0J-500000D01*
G01*
X366775000Y-181399999D02*
X366775000Y-168400000D01*
X64356250Y-200450000D02*
G75*
G02*
X63856250Y-200950000I-500000J0D01*
G01*
X50356250Y-187449999D02*
X50356250Y-200450000D01*
X334225000Y-181899999D02*
G75*
G02*
X333725000Y-181399999I0J500000D01*
G01*
X145318750Y-200450000D02*
G75*
G02*
X144818750Y-200950000I-500000J0D01*
G01*
X366775000Y-181399999D02*
G75*
G02*
X366275000Y-181899999I-500000J0D01*
G01*
X347225000Y-167900000D02*
G75*
G02*
X347725000Y-168400000I0J-500000D01*
G01*
X347725000Y-181399999D02*
G75*
G02*
X347225000Y-181899999I-500000J0D01*
G01*
X262787500Y-181899999D02*
X275787500Y-181899999D01*
X312006249Y-181399999D02*
G75*
G02*
X311506249Y-181899999I-500000J0D01*
G01*
X224687500Y-181899999D02*
G75*
G02*
X224187500Y-181399999I0J500000D01*
G01*
X262287500Y-168400000D02*
X262287500Y-181399999D01*
X199587500Y-167900000D02*
X186587500Y-167900000D01*
X218637500Y-167900000D02*
G75*
G02*
X219137500Y-168400000I0J-500000D01*
G01*
X289568250Y-168400000D02*
X289568250Y-182400000D01*
X262287500Y-168400000D02*
G75*
G02*
X262787500Y-167900000I500000J0D01*
G01*
X298006250Y-168400000D02*
X298006250Y-181399999D01*
X275787500Y-167900000D02*
G75*
G02*
X276287500Y-168400000I0J-500000D01*
G01*
X320444250Y-182400000D02*
X320444250Y-168400000D01*
X319944250Y-167900000D02*
X313944250Y-167900000D01*
X313944250Y-182900000D02*
X319944250Y-182900000D01*
X311506249Y-167900000D02*
G75*
G02*
X312006249Y-168400000I0J-500000D01*
G01*
X276287500Y-181399999D02*
X276287500Y-168400000D01*
X257237500Y-181399999D02*
X257237500Y-168400000D01*
X186087500Y-168400000D02*
X186087500Y-181399999D01*
X313444250Y-168400000D02*
G75*
G02*
X313944250Y-167900000I500000J0D01*
G01*
X319944250Y-167900000D02*
G75*
G02*
X320444250Y-168400000I0J-500000D01*
G01*
X256737500Y-167900000D02*
G75*
G02*
X257237500Y-168400000I0J-500000D01*
G01*
X243737500Y-181899999D02*
G75*
G02*
X243237500Y-181399999I0J500000D01*
G01*
X320444250Y-182400000D02*
G75*
G02*
X319944250Y-182900000I-500000J0D01*
G01*
X256737500Y-167900000D02*
X243737500Y-167900000D01*
X224187500Y-168400000D02*
X224187500Y-181399999D01*
X313944250Y-182900000D02*
G75*
G02*
X313444250Y-182400000I0J500000D01*
G01*
X296568250Y-182400000D02*
X296568250Y-168400000D01*
X290068250Y-182900000D02*
X296068250Y-182900000D01*
X167037500Y-168400000D02*
X167037500Y-181399999D01*
X298506250Y-181899999D02*
G75*
G02*
X298006250Y-181399999I0J500000D01*
G01*
X275787500Y-167900000D02*
X262787500Y-167900000D01*
X205137500Y-168400000D02*
X205137500Y-181399999D01*
X224687500Y-181899999D02*
X237687500Y-181899999D01*
X186587500Y-181899999D02*
X199587500Y-181899999D01*
X237687500Y-167900000D02*
X224687500Y-167900000D01*
X296068250Y-167900000D02*
X290068250Y-167900000D01*
X311506249Y-167900000D02*
X298506250Y-167900000D01*
X238187500Y-181399999D02*
G75*
G02*
X237687500Y-181899999I-500000J0D01*
G01*
X218637500Y-167900000D02*
X205637500Y-167900000D01*
X243237500Y-168400000D02*
X243237500Y-181399999D01*
X219137500Y-181399999D02*
X219137500Y-168400000D01*
X243237500Y-168400000D02*
G75*
G02*
X243737500Y-167900000I500000J0D01*
G01*
X205637500Y-181899999D02*
G75*
G02*
X205137500Y-181399999I0J500000D01*
G01*
X200087500Y-181399999D02*
X200087500Y-168400000D01*
X205637500Y-181899999D02*
X218637500Y-181899999D01*
X219137500Y-181399999D02*
G75*
G02*
X218637500Y-181899999I-500000J0D01*
G01*
X257237500Y-181399999D02*
G75*
G02*
X256737500Y-181899999I-500000J0D01*
G01*
X186587500Y-181899999D02*
G75*
G02*
X186087500Y-181399999I0J500000D01*
G01*
X289568250Y-168400000D02*
G75*
G02*
X290068250Y-167900000I500000J0D01*
G01*
X296068250Y-167900000D02*
G75*
G02*
X296568250Y-168400000I0J-500000D01*
G01*
X224187500Y-168400000D02*
G75*
G02*
X224687500Y-167900000I500000J0D01*
G01*
X238187500Y-181399999D02*
X238187500Y-168400000D01*
X296568250Y-182400000D02*
G75*
G02*
X296068250Y-182900000I-500000J0D01*
G01*
X276287500Y-181399999D02*
G75*
G02*
X275787500Y-181899999I-500000J0D01*
G01*
X199587500Y-167900000D02*
G75*
G02*
X200087500Y-168400000I0J-500000D01*
G01*
X200087500Y-181399999D02*
G75*
G02*
X199587500Y-181899999I-500000J0D01*
G01*
X186087500Y-168400000D02*
G75*
G02*
X186587500Y-167900000I500000J0D01*
G01*
X290068250Y-182900000D02*
G75*
G02*
X289568250Y-182400000I0J500000D01*
G01*
X298506250Y-181899999D02*
X311506249Y-181899999D01*
X205137500Y-168400000D02*
G75*
G02*
X205637500Y-167900000I500000J0D01*
G01*
X262787500Y-181899999D02*
G75*
G02*
X262287500Y-181399999I0J500000D01*
G01*
X312006249Y-181399999D02*
X312006249Y-168400000D01*
X298006250Y-168400000D02*
G75*
G02*
X298506250Y-167900000I500000J0D01*
G01*
X237687500Y-167900000D02*
G75*
G02*
X238187500Y-168400000I0J-500000D01*
G01*
X243737500Y-181899999D02*
X256737500Y-181899999D01*
X123387500Y-167900000D02*
G75*
G02*
X123887500Y-168400000I0J-500000D01*
G01*
X109887500Y-168400000D02*
X109887500Y-181399999D01*
X123887500Y-181399999D02*
G75*
G02*
X123387500Y-181899999I-500000J0D01*
G01*
X75819250Y-182900000D02*
X81819250Y-182900000D01*
X104837500Y-181399999D02*
G75*
G02*
X104337500Y-181899999I-500000J0D01*
G01*
X85787500Y-181399999D02*
X85787500Y-168400000D01*
X333725000Y-149349999D02*
X333725000Y-162350000D01*
X85787500Y-181399999D02*
G75*
G02*
X85287500Y-181899999I-500000J0D01*
G01*
X82319250Y-182400000D02*
G75*
G02*
X81819250Y-182900000I-500000J0D01*
G01*
X58443250Y-182400000D02*
G75*
G02*
X57943250Y-182900000I-500000J0D01*
G01*
X181037500Y-181399999D02*
X181037500Y-168400000D01*
X334225000Y-162850000D02*
X347225000Y-162850000D01*
X180537500Y-167900000D02*
X167537500Y-167900000D01*
X347725000Y-162350000D02*
X347725000Y-149349999D01*
X167537500Y-181899999D02*
X180537500Y-181899999D01*
X366275000Y-148850000D02*
X353275000Y-148850000D01*
X167037500Y-168400000D02*
G75*
G02*
X167537500Y-167900000I500000J0D01*
G01*
X352775000Y-149349999D02*
G75*
G02*
X353275000Y-148849999I500000J0D01*
G01*
X180537500Y-167900000D02*
G75*
G02*
X181037500Y-168400000I0J-500000D01*
G01*
X366275000Y-148849999D02*
G75*
G02*
X366775000Y-149349999I0J-500000D01*
G01*
X181037500Y-181399999D02*
G75*
G02*
X180537500Y-181899999I-500000J0D01*
G01*
X167537500Y-181899999D02*
G75*
G02*
X167037500Y-181399999I0J500000D01*
G01*
X104337500Y-167900000D02*
X91337500Y-167900000D01*
X353275000Y-162850000D02*
G75*
G02*
X352775000Y-162350000I0J500000D01*
G01*
X147987500Y-168400000D02*
X147987500Y-181399999D01*
X82819250Y-181899999D02*
X85287500Y-181899999D01*
X161987500Y-181399999D02*
X161987500Y-168400000D01*
X161487500Y-167900000D02*
X148487500Y-167900000D01*
X128937500Y-168400000D02*
X128937500Y-181399999D01*
X129437499Y-181899999D02*
G75*
G02*
X128937499Y-181399999I0J500000D01*
G01*
X123887500Y-181399999D02*
X123887500Y-168400000D01*
X148487500Y-181899999D02*
G75*
G02*
X147987500Y-181399999I0J500000D01*
G01*
X142437500Y-167900000D02*
G75*
G02*
X142937500Y-168400000I0J-500000D01*
G01*
X161487500Y-167900000D02*
G75*
G02*
X161987500Y-168400000I0J-500000D01*
G01*
X109887500Y-168400000D02*
G75*
G02*
X110387500Y-167900000I500000J0D01*
G01*
X104837500Y-181399999D02*
X104837500Y-168400000D01*
X75819250Y-182900000D02*
G75*
G02*
X75319250Y-182400000I0J500000D01*
G01*
X347225000Y-148850000D02*
X334225000Y-148850000D01*
X366775000Y-162350000D02*
G75*
G02*
X366275000Y-162850000I-500000J0D01*
G01*
X148487500Y-181899999D02*
X161487500Y-181899999D01*
X147987500Y-168400000D02*
G75*
G02*
X148487500Y-167900000I500000J0D01*
G01*
X50356250Y-168400000D02*
G75*
G02*
X50856250Y-167900000I500000J0D01*
G01*
X51943249Y-182900000D02*
G75*
G02*
X51443249Y-182400000I0J500000D01*
G01*
X161987500Y-181399999D02*
G75*
G02*
X161487500Y-181899999I-500000J0D01*
G01*
X142937500Y-181399999D02*
X142937500Y-168400000D01*
X142437500Y-167900000D02*
X129437499Y-167900000D01*
X91337500Y-181899999D02*
G75*
G02*
X90837500Y-181399999I0J500000D01*
G01*
X366775000Y-162350000D02*
X366775000Y-149349999D01*
X353275000Y-162850000D02*
X366275000Y-162850000D01*
X91337500Y-181899999D02*
X104337500Y-181899999D01*
X50856250Y-181899999D02*
G75*
G02*
X50356250Y-181399999I0J500000D01*
G01*
X90837500Y-168400000D02*
G75*
G02*
X91337500Y-167900000I500000J0D01*
G01*
X352775000Y-149349999D02*
X352775000Y-162350000D01*
X129437499Y-181899999D02*
X142437500Y-181899999D01*
X142937500Y-181399999D02*
G75*
G02*
X142437500Y-181899999I-500000J0D01*
G01*
X90837500Y-168400000D02*
X90837500Y-181399999D01*
X85287500Y-167900000D02*
G75*
G02*
X85787500Y-168400000I0J-500000D01*
G01*
X123387500Y-167900000D02*
X110387500Y-167900000D01*
X104337500Y-167900000D02*
G75*
G02*
X104837500Y-168400000I0J-500000D01*
G01*
X50356250Y-168400000D02*
X50356250Y-181399999D01*
X51943249Y-182900000D02*
X57943250Y-182900000D01*
X128937499Y-168400000D02*
G75*
G02*
X129437499Y-167900000I500000J0D01*
G01*
X110387500Y-181899999D02*
X123387500Y-181899999D01*
X110387500Y-181899999D02*
G75*
G02*
X109887500Y-181399999I0J500000D01*
G01*
X266262500Y-148849999D02*
G75*
G02*
X266762500Y-149349999I0J-500000D01*
G01*
X247212500Y-148850000D02*
X234212500Y-148850000D01*
X318706750Y-163850000D02*
G75*
G02*
X318206750Y-163350000I0J500000D01*
G01*
X271812500Y-149349999D02*
X271812500Y-162350000D01*
X190062500Y-148849999D02*
G75*
G02*
X190562500Y-149349999I0J-500000D01*
G01*
X228162500Y-148850000D02*
X215162500Y-148850000D01*
X347725000Y-162350000D02*
G75*
G02*
X347225000Y-162850000I-500000J0D01*
G01*
X290862500Y-149349999D02*
X290862500Y-162350000D01*
X291362500Y-162850000D02*
X293830750Y-162850000D01*
X214662500Y-149349999D02*
X214662500Y-162350000D01*
X209612500Y-162350000D02*
G75*
G02*
X209112500Y-162850000I-500000J0D01*
G01*
X190062500Y-148850000D02*
X177062500Y-148850000D01*
X285812500Y-162350000D02*
X285812500Y-149349999D01*
X291362500Y-162850000D02*
G75*
G02*
X290862500Y-162350000I0J500000D01*
G01*
X195612500Y-149349999D02*
X195612500Y-162350000D01*
X318706750Y-163850000D02*
X324706750Y-163850000D01*
X266262500Y-148850000D02*
X253262500Y-148850000D01*
X301330750Y-163350000D02*
G75*
G02*
X300830750Y-163850000I-500000J0D01*
G01*
X234212500Y-162850000D02*
G75*
G02*
X233712500Y-162350000I0J500000D01*
G01*
X252762500Y-149349999D02*
G75*
G02*
X253262500Y-148849999I500000J0D01*
G01*
X177062500Y-162850000D02*
G75*
G02*
X176562500Y-162350000I0J500000D01*
G01*
X252762500Y-149349999D02*
X252762500Y-162350000D01*
X228162500Y-148849999D02*
G75*
G02*
X228662500Y-149349999I0J-500000D01*
G01*
X176562500Y-149349999D02*
X176562500Y-162350000D01*
X228662500Y-162350000D02*
G75*
G02*
X228162500Y-162850000I-500000J0D01*
G01*
X215162500Y-162850000D02*
G75*
G02*
X214662500Y-162350000I0J500000D01*
G01*
X190562500Y-162350000D02*
X190562500Y-149349999D01*
X234212500Y-162850000D02*
X247212500Y-162850000D01*
X214662500Y-149349999D02*
G75*
G02*
X215162500Y-148849999I500000J0D01*
G01*
X195612500Y-149349999D02*
G75*
G02*
X196112500Y-148849999I500000J0D01*
G01*
X253262500Y-162850000D02*
X266262500Y-162850000D01*
X190562500Y-162350000D02*
G75*
G02*
X190062500Y-162850000I-500000J0D01*
G01*
X209612500Y-162350000D02*
X209612500Y-149349999D01*
X334225000Y-162850000D02*
G75*
G02*
X333725000Y-162350000I0J500000D01*
G01*
X253262500Y-162850000D02*
G75*
G02*
X252762500Y-162350000I0J500000D01*
G01*
X247712500Y-162350000D02*
X247712500Y-149349999D01*
X233712500Y-149349999D02*
G75*
G02*
X234212500Y-148849999I500000J0D01*
G01*
X233712500Y-149349999D02*
X233712500Y-162350000D01*
X176562500Y-149349999D02*
G75*
G02*
X177062500Y-148849999I500000J0D01*
G01*
X266762500Y-162350000D02*
G75*
G02*
X266262500Y-162850000I-500000J0D01*
G01*
X325206750Y-163350000D02*
X325206750Y-162263000D01*
X285312500Y-148850000D02*
X272312500Y-148850000D01*
X325206750Y-163350000D02*
G75*
G02*
X324706750Y-163850000I-500000J0D01*
G01*
X294830750Y-163850000D02*
X300830750Y-163850000D01*
X285812500Y-162350000D02*
G75*
G02*
X285312500Y-162850000I-500000J0D01*
G01*
X177062500Y-162850000D02*
X190062500Y-162850000D01*
X247212500Y-148849999D02*
G75*
G02*
X247712500Y-149349999I0J-500000D01*
G01*
X209112500Y-148849999D02*
G75*
G02*
X209612500Y-149349999I0J-500000D01*
G01*
X285312500Y-148849999D02*
G75*
G02*
X285812500Y-149349999I0J-500000D01*
G01*
X209112500Y-148850000D02*
X196112500Y-148850000D01*
X196112500Y-162850000D02*
G75*
G02*
X195612500Y-162350000I0J500000D01*
G01*
X271812500Y-149349999D02*
G75*
G02*
X272312500Y-148849999I500000J0D01*
G01*
X215162500Y-162850000D02*
X228162500Y-162850000D01*
X157512500Y-149349999D02*
X157512500Y-162350000D01*
X294830750Y-163850000D02*
G75*
G02*
X294330750Y-163350000I0J500000D01*
G01*
X266762500Y-162350000D02*
X266762500Y-149349999D01*
X247712500Y-162350000D02*
G75*
G02*
X247212500Y-162850000I-500000J0D01*
G01*
X196112500Y-162850000D02*
X209112500Y-162850000D01*
X333725000Y-149349999D02*
G75*
G02*
X334225000Y-148849999I500000J0D01*
G01*
X347225000Y-148849999D02*
G75*
G02*
X347725000Y-149349999I0J-500000D01*
G01*
X228662500Y-162350000D02*
X228662500Y-149349999D01*
X290862500Y-149349999D02*
G75*
G02*
X291362500Y-148849999I500000J0D01*
G01*
X272312500Y-162850000D02*
X285312500Y-162850000D01*
X272312500Y-162850000D02*
G75*
G02*
X271812500Y-162350000I0J500000D01*
G01*
X94812500Y-148849999D02*
G75*
G02*
X95312500Y-149349999I0J-500000D01*
G01*
X81312500Y-149349999D02*
X81312500Y-162350000D01*
X95312500Y-162350000D02*
G75*
G02*
X94812500Y-162850000I-500000J0D01*
G01*
X328012500Y-143800000D02*
X329012500Y-143800000D01*
X325706750Y-161762999D02*
X325793750Y-161763000D01*
X325793750Y-130887000D02*
X324412500Y-130887000D01*
X133412500Y-162350000D02*
X133412500Y-149349999D01*
X326293750Y-161263000D02*
X326293750Y-131387000D01*
X327512500Y-130300000D02*
G75*
G02*
X328012500Y-129800000I500000J0D01*
G01*
X328012500Y-143800000D02*
G75*
G02*
X327512500Y-143300000I0J500000D01*
G01*
X171512500Y-162350000D02*
X171512500Y-149349999D01*
X171012500Y-148850000D02*
X158012500Y-148850000D01*
X158012500Y-162850000D02*
X171012500Y-162850000D01*
X157512500Y-149349999D02*
G75*
G02*
X158012500Y-148849999I500000J0D01*
G01*
X171012500Y-148849999D02*
G75*
G02*
X171512500Y-149349999I0J-500000D01*
G01*
X304812500Y-143800000D02*
X305812500Y-143800000D01*
X171512500Y-162350000D02*
G75*
G02*
X171012500Y-162850000I-500000J0D01*
G01*
X158012500Y-162850000D02*
G75*
G02*
X157512500Y-162350000I0J500000D01*
G01*
X138462500Y-149349999D02*
X138462500Y-162350000D01*
X152462500Y-162350000D02*
X152462500Y-149349999D01*
X151962500Y-148850000D02*
X138962500Y-148850000D01*
X138962500Y-162850000D02*
X151962500Y-162850000D01*
X50856250Y-162850000D02*
G75*
G02*
X50356250Y-162350000I0J500000D01*
G01*
X138462500Y-149349999D02*
G75*
G02*
X138962500Y-148849999I500000J0D01*
G01*
X151962500Y-148849999D02*
G75*
G02*
X152462500Y-149349999I0J-500000D01*
G01*
X325793750Y-130887000D02*
G75*
G02*
X326293750Y-131387000I0J-500000D01*
G01*
X152462500Y-162350000D02*
G75*
G02*
X151962500Y-162850000I-500000J0D01*
G01*
X138962500Y-162850000D02*
G75*
G02*
X138462500Y-162350000I0J500000D01*
G01*
X100362500Y-149349999D02*
X100362500Y-162350000D01*
X100862500Y-162850000D02*
G75*
G02*
X100362500Y-162350000I0J500000D01*
G01*
X95312500Y-162350000D02*
X95312500Y-149349999D01*
X119912500Y-162850000D02*
G75*
G02*
X119412500Y-162350000I0J500000D01*
G01*
X113862500Y-148849999D02*
G75*
G02*
X114362500Y-149349999I0J-500000D01*
G01*
X119412500Y-149349999D02*
X119412500Y-162350000D01*
X132912500Y-148850000D02*
X119912500Y-148850000D01*
X132912500Y-148849999D02*
G75*
G02*
X133412500Y-149349999I0J-500000D01*
G01*
X329012500Y-129800000D02*
G75*
G02*
X329512500Y-130300000I0J-500000D01*
G01*
X81312500Y-149349999D02*
G75*
G02*
X81812500Y-148849999I500000J0D01*
G01*
X50356250Y-149349999D02*
G75*
G02*
X50856250Y-148849999I500000J0D01*
G01*
X119912500Y-162850000D02*
X132912500Y-162850000D01*
X119412500Y-149349999D02*
G75*
G02*
X119912500Y-148849999I500000J0D01*
G01*
X329512500Y-143300000D02*
X329512500Y-130300000D01*
X304312500Y-130300000D02*
X304312500Y-143300000D01*
X133412500Y-162350000D02*
G75*
G02*
X132912500Y-162850000I-500000J0D01*
G01*
X114362500Y-162350000D02*
X114362500Y-149349999D01*
X113862500Y-148850000D02*
X100862500Y-148850000D01*
X326293750Y-161263000D02*
G75*
G02*
X325793750Y-161763000I-500000J0D01*
G01*
X305812500Y-129800000D02*
X304812500Y-129800000D01*
X304312500Y-130300000D02*
G75*
G02*
X304812500Y-129800000I500000J0D01*
G01*
X69118750Y-162350000D02*
X69118750Y-149349999D01*
X329012500Y-129800000D02*
X328012500Y-129800000D01*
X68618750Y-148849999D02*
G75*
G02*
X69118750Y-149349999I0J-500000D01*
G01*
X306312500Y-143300000D02*
X306312500Y-130300000D01*
X100862500Y-162850000D02*
X113862500Y-162850000D01*
X114362500Y-162350000D02*
G75*
G02*
X113862500Y-162850000I-500000J0D01*
G01*
X50356250Y-149349999D02*
X50356250Y-162350000D01*
X312293750Y-144300000D02*
X312293800Y-148350000D01*
X94812500Y-148850000D02*
X81812500Y-148850000D01*
X69118750Y-162350000D02*
G75*
G02*
X68618750Y-162850000I-500000J0D01*
G01*
X327512500Y-130300000D02*
X327512500Y-143300000D01*
X329512500Y-143300000D02*
G75*
G02*
X329012500Y-143800000I-500000J0D01*
G01*
X100362500Y-149349999D02*
G75*
G02*
X100862500Y-148849999I500000J0D01*
G01*
X81812500Y-162850000D02*
X94812500Y-162850000D01*
X81812500Y-162850000D02*
G75*
G02*
X81312500Y-162350000I0J500000D01*
G01*
X204350000Y-129800000D02*
X191350000Y-129800000D01*
X229450000Y-143800000D02*
G75*
G02*
X228950000Y-143300000I0J500000D01*
G01*
X286100000Y-130300000D02*
G75*
G02*
X286600000Y-129800000I500000J0D01*
G01*
X280550000Y-129800000D02*
G75*
G02*
X281050000Y-130300000I0J-500000D01*
G01*
X323912500Y-130387000D02*
X323912500Y-130300000D01*
X281050000Y-143300000D02*
X281050000Y-130300000D01*
X323412500Y-129800000D02*
X310412499Y-129800000D01*
X310412499Y-143800000D02*
X311793750Y-143800000D01*
X191350000Y-143800000D02*
X204350000Y-143800000D01*
X185800000Y-143300000D02*
X185800000Y-130300000D01*
X309912499Y-130300000D02*
G75*
G02*
X310412499Y-129800000I500000J0D01*
G01*
X172300000Y-143800000D02*
X185300000Y-143800000D01*
X281050000Y-143300000D02*
G75*
G02*
X280550000Y-143800000I-500000J0D01*
G01*
X299600000Y-129800000D02*
G75*
G02*
X300100000Y-130300000I0J-500000D01*
G01*
X223400000Y-129800000D02*
X210400000Y-129800000D01*
X323412500Y-129800000D02*
G75*
G02*
X323912500Y-130300000I0J-500000D01*
G01*
X248500000Y-143800000D02*
G75*
G02*
X248000000Y-143300000I0J500000D01*
G01*
X190850000Y-130300000D02*
X190850000Y-143300000D01*
X299600000Y-129800000D02*
X286600000Y-129800000D01*
X286100000Y-130300000D02*
X286100000Y-143300000D01*
X242950000Y-143300000D02*
X242950000Y-130300000D01*
X204850000Y-143300000D02*
X204850000Y-130300000D01*
X300100000Y-143300000D02*
X300100000Y-130300000D01*
X286600000Y-143800000D02*
X299600000Y-143800000D01*
X261500000Y-129800000D02*
G75*
G02*
X262000000Y-130300000I0J-500000D01*
G01*
X171800000Y-130300000D02*
G75*
G02*
X172300000Y-129800000I500000J0D01*
G01*
X286600000Y-143800000D02*
G75*
G02*
X286100000Y-143300000I0J500000D01*
G01*
X223400000Y-129800000D02*
G75*
G02*
X223900000Y-130300000I0J-500000D01*
G01*
X209900000Y-130300000D02*
X209900000Y-143300000D01*
X191350000Y-143800000D02*
G75*
G02*
X190850000Y-143300000I0J500000D01*
G01*
X228950000Y-130300000D02*
X228950000Y-143300000D01*
X223900000Y-143300000D02*
X223900000Y-130300000D01*
X267550000Y-143800000D02*
X280550000Y-143800000D01*
X300100000Y-143300000D02*
G75*
G02*
X299600000Y-143800000I-500000J0D01*
G01*
X228950000Y-130300000D02*
G75*
G02*
X229450000Y-129800000I500000J0D01*
G01*
X242450000Y-129800000D02*
G75*
G02*
X242950000Y-130300000I0J-500000D01*
G01*
X242950000Y-143300000D02*
G75*
G02*
X242450000Y-143800000I-500000J0D01*
G01*
X185300000Y-129800000D02*
X172300000Y-129800000D01*
X210400000Y-143800000D02*
G75*
G02*
X209900000Y-143300000I0J500000D01*
G01*
X229450000Y-143800000D02*
X242450000Y-143800000D01*
X267550000Y-143800000D02*
G75*
G02*
X267050000Y-143300000I0J500000D01*
G01*
X204850000Y-143300000D02*
G75*
G02*
X204350000Y-143800000I-500000J0D01*
G01*
X190850000Y-130300000D02*
G75*
G02*
X191350000Y-129800000I500000J0D01*
G01*
X267050000Y-130300000D02*
X267050000Y-143300000D01*
X223900000Y-143300000D02*
G75*
G02*
X223400000Y-143800000I-500000J0D01*
G01*
X310412499Y-143800000D02*
G75*
G02*
X309912499Y-143300000I0J500000D01*
G01*
X261500000Y-129800000D02*
X248500000Y-129800000D01*
X248500000Y-143800000D02*
X261500000Y-143800000D01*
X210400000Y-143800000D02*
X223400000Y-143800000D01*
X185300000Y-129800000D02*
G75*
G02*
X185800000Y-130300000I0J-500000D01*
G01*
X305812500Y-129800000D02*
G75*
G02*
X306312500Y-130300000I0J-500000D01*
G01*
X306312500Y-143300000D02*
G75*
G02*
X305812500Y-143800000I-500000J0D01*
G01*
X262000000Y-143300000D02*
X262000000Y-130300000D01*
X204350000Y-129800000D02*
G75*
G02*
X204850000Y-130300000I0J-500000D01*
G01*
X304812500Y-143800000D02*
G75*
G02*
X304312500Y-143300000I0J500000D01*
G01*
X280550000Y-129800000D02*
X267550000Y-129800000D01*
X267050000Y-130300000D02*
G75*
G02*
X267550000Y-129800000I500000J0D01*
G01*
X262000000Y-143300000D02*
G75*
G02*
X261500000Y-143800000I-500000J0D01*
G01*
X309912499Y-130300000D02*
X309912499Y-143300000D01*
X248000000Y-130300000D02*
X248000000Y-143300000D01*
X209900000Y-130300000D02*
G75*
G02*
X210400000Y-129800000I500000J0D01*
G01*
X248000000Y-130300000D02*
G75*
G02*
X248500000Y-129800000I500000J0D01*
G01*
X242450000Y-129800000D02*
X229450000Y-129800000D01*
X171800000Y-130300000D02*
X171800000Y-143300000D01*
M02*
