%TF.GenerationSoftware,KiCad,Pcbnew,(6.0.1)*%
%TF.CreationDate,2022-01-27T20:36:32-05:00*%
%TF.ProjectId,GanJing 70 plate,47616e4a-696e-4672-9037-3020706c6174,rev?*%
%TF.SameCoordinates,Original*%
%TF.FileFunction,Profile,NP*%
%FSLAX46Y46*%
G04 Gerber Fmt 4.6, Leading zero omitted, Abs format (unit mm)*
G04 Created by KiCad (PCBNEW (6.0.1)) date 2022-01-27 20:36:32*
%MOMM*%
%LPD*%
G01*
G04 APERTURE LIST*
%TA.AperFunction,Profile*%
%ADD10C,0.200000*%
%TD*%
G04 APERTURE END LIST*
D10*
X334381750Y-148931750D02*
G75*
G03*
X333881750Y-149431750I1J-500001D01*
G01*
X261937500Y-150018750D02*
X274937500Y-150018750D01*
X137612500Y-168568750D02*
G75*
G03*
X138112500Y-169068750I500001J1D01*
G01*
X361450000Y-149518750D02*
G75*
G03*
X361950000Y-150018750I500001J1D01*
G01*
X252412500Y-169068750D02*
X265412500Y-169068750D01*
X260650000Y-188118750D02*
G75*
G03*
X261150000Y-187618750I-1J500001D01*
G01*
X137612500Y-155568750D02*
X137612500Y-168568750D01*
X322119250Y-169568750D02*
G75*
G03*
X322619250Y-170068750I500001J1D01*
G01*
X232075000Y-116968750D02*
X219075000Y-116968750D01*
X217787500Y-136018750D02*
X204787500Y-136018750D01*
X150325000Y-93393750D02*
G75*
G03*
X152325000Y-95393750I1999999J-1D01*
G01*
X375450000Y-136518750D02*
G75*
G03*
X374950000Y-136018750I-500001J-1D01*
G01*
X77793750Y-136518750D02*
G75*
G03*
X77293750Y-136018750I-500001J-1D01*
G01*
X275437500Y-136518750D02*
G75*
G03*
X274937500Y-136018750I-500001J-1D01*
G01*
X155931750Y-173118750D02*
G75*
G03*
X155431750Y-173618750I1J-500001D01*
G01*
X165400000Y-97918750D02*
X152400000Y-97918750D01*
X223337500Y-136518750D02*
X223337500Y-149518750D01*
X104275000Y-130468750D02*
G75*
G03*
X104775000Y-130968750I500001J1D01*
G01*
X270175000Y-130968750D02*
G75*
G03*
X270675000Y-130468750I-1J500001D01*
G01*
X355900000Y-174118750D02*
X342900000Y-174118750D01*
X195262500Y-169068750D02*
X208262500Y-169068750D01*
X127800000Y-98418750D02*
G75*
G03*
X127300000Y-97918750I-500001J-1D01*
G01*
X202993250Y-173618750D02*
X202993250Y-187618750D01*
X222550000Y-111918750D02*
G75*
G03*
X223050000Y-111418750I-1J500001D01*
G01*
X299250000Y-187618750D02*
X299250000Y-174618750D01*
X107156250Y-188118750D02*
X120156250Y-188118750D01*
X152325000Y-95393750D02*
X184525000Y-95393750D01*
X98725000Y-130968750D02*
G75*
G03*
X99225000Y-130468750I-1J500001D01*
G01*
X247150000Y-174618750D02*
X247150000Y-187618750D01*
X375450000Y-155568750D02*
G75*
G03*
X374950000Y-155068750I-500001J-1D01*
G01*
X285750000Y-174118750D02*
G75*
G03*
X285250000Y-174618750I1J-500001D01*
G01*
X161931750Y-173118750D02*
X155931750Y-173118750D01*
X204000000Y-98418750D02*
G75*
G03*
X203500000Y-97918750I-500001J-1D01*
G01*
X361950000Y-174118750D02*
G75*
G03*
X361450000Y-174618750I1J-500001D01*
G01*
X324725000Y-95393750D02*
X339825000Y-95393750D01*
X270175000Y-116968750D02*
X257175000Y-116968750D01*
X265912500Y-168568750D02*
X265912500Y-155568750D01*
X150325000Y-93393750D02*
G75*
G03*
X148325000Y-91393750I-1999999J1D01*
G01*
X299250000Y-174618750D02*
G75*
G03*
X298750000Y-174118750I-500001J-1D01*
G01*
X176212500Y-169068750D02*
X189212500Y-169068750D01*
X375450000Y-168568750D02*
X375450000Y-155568750D01*
X61412500Y-130468750D02*
G75*
G03*
X61912500Y-130968750I500001J1D01*
G01*
X305387000Y-112418750D02*
G75*
G03*
X305887000Y-112918750I500001J1D01*
G01*
X142087500Y-149518750D02*
X142087500Y-136518750D01*
X61412500Y-117468750D02*
X61412500Y-130468750D01*
X217787500Y-150018750D02*
G75*
G03*
X218287500Y-149518750I-1J500001D01*
G01*
X322619250Y-170068750D02*
X328619250Y-170068750D01*
X214312500Y-155068750D02*
G75*
G03*
X213812500Y-155568750I1J-500001D01*
G01*
X261150000Y-174618750D02*
G75*
G03*
X260650000Y-174118750I-500001J-1D01*
G01*
X284462500Y-155068750D02*
X271462500Y-155068750D01*
X342900000Y-174118750D02*
G75*
G03*
X342400000Y-174618750I1J-500001D01*
G01*
X336850000Y-174118750D02*
X323850000Y-174118750D01*
X70150000Y-97918750D02*
X57150000Y-97918750D01*
X156662500Y-155568750D02*
X156662500Y-168568750D01*
X208262500Y-155068750D02*
X195262500Y-155068750D01*
X298750000Y-111918750D02*
G75*
G03*
X299250000Y-111418750I-1J500001D01*
G01*
X113012500Y-155068750D02*
X100012500Y-155068750D01*
X136825000Y-130968750D02*
G75*
G03*
X137325000Y-130468750I-1J500001D01*
G01*
X276225000Y-130968750D02*
X289225000Y-130968750D01*
X276225000Y-116968750D02*
G75*
G03*
X275725000Y-117468750I1J-500001D01*
G01*
X189212500Y-169068750D02*
G75*
G03*
X189712500Y-168568750I-1J500001D01*
G01*
X274937500Y-150018750D02*
G75*
G03*
X275437500Y-149518750I-1J500001D01*
G01*
X375450000Y-149518750D02*
X375450000Y-136518750D01*
X251625000Y-117468750D02*
G75*
G03*
X251125000Y-116968750I-500001J-1D01*
G01*
X180475000Y-117468750D02*
X180475000Y-130468750D01*
X361450000Y-168568750D02*
G75*
G03*
X361950000Y-169068750I500001J1D01*
G01*
X59031250Y-149518750D02*
G75*
G03*
X59531250Y-150018750I500001J1D01*
G01*
X232075000Y-130968750D02*
G75*
G03*
X232575000Y-130468750I-1J500001D01*
G01*
X337350000Y-174618750D02*
G75*
G03*
X336850000Y-174118750I-500001J-1D01*
G01*
X104775000Y-116968750D02*
G75*
G03*
X104275000Y-117468750I1J-500001D01*
G01*
X227812500Y-155568750D02*
G75*
G03*
X227312500Y-155068750I-500001J-1D01*
G01*
X54125000Y-191093750D02*
G75*
G03*
X54625000Y-191593750I500001J1D01*
G01*
X256675000Y-117468750D02*
X256675000Y-130468750D01*
X361950000Y-150018750D02*
X374950000Y-150018750D01*
X355900000Y-150018750D02*
G75*
G03*
X356400000Y-149518750I-1J500001D01*
G01*
X289725000Y-130468750D02*
X289725000Y-117468750D01*
X151900000Y-98418750D02*
X151900000Y-111418750D01*
X280725000Y-95393750D02*
G75*
G03*
X282725000Y-93393750I1J1999999D01*
G01*
X323350000Y-187618750D02*
G75*
G03*
X323850000Y-188118750I500001J1D01*
G01*
X175712500Y-168568750D02*
G75*
G03*
X176212500Y-169068750I500001J1D01*
G01*
X99512500Y-168568750D02*
G75*
G03*
X100012500Y-169068750I500001J1D01*
G01*
X154931800Y-174118750D02*
G75*
G03*
X155431800Y-173618750I-1J500001D01*
G01*
X228600000Y-97918750D02*
G75*
G03*
X228100000Y-98418750I1J-500001D01*
G01*
X195262500Y-155068750D02*
G75*
G03*
X194762500Y-155568750I1J-500001D01*
G01*
X202993250Y-187618750D02*
G75*
G03*
X203493250Y-188118750I500001J1D01*
G01*
X226369300Y-174118750D02*
X210493300Y-174118750D01*
X123325000Y-117468750D02*
X123325000Y-130468750D01*
X356400000Y-168568750D02*
X356400000Y-155568750D01*
X209050000Y-98418750D02*
X209050000Y-111418750D01*
X228100000Y-111418750D02*
G75*
G03*
X228600000Y-111918750I500001J1D01*
G01*
X355900000Y-136018750D02*
X342900000Y-136018750D01*
X96843750Y-187618750D02*
X96843750Y-174618750D01*
X247650000Y-188118750D02*
X260650000Y-188118750D01*
X246525000Y-93393750D02*
G75*
G03*
X248525000Y-95393750I1999999J-1D01*
G01*
X266200000Y-111418750D02*
G75*
G03*
X266700000Y-111918750I500001J1D01*
G01*
X72531250Y-188118750D02*
G75*
G03*
X73031250Y-187618750I-1J500001D01*
G01*
X304800000Y-174118750D02*
G75*
G03*
X304300000Y-174618750I1J-500001D01*
G01*
X191593750Y-188118750D02*
X173831250Y-188118750D01*
X190000000Y-98418750D02*
X190000000Y-111418750D01*
X236837500Y-136018750D02*
X223837500Y-136018750D01*
X188525000Y-91393750D02*
X244525000Y-91393750D01*
X170950000Y-111418750D02*
G75*
G03*
X171450000Y-111918750I500001J1D01*
G01*
X199237500Y-149518750D02*
X199237500Y-136518750D01*
X184950000Y-98418750D02*
G75*
G03*
X184450000Y-97918750I-500001J-1D01*
G01*
X123325000Y-130468750D02*
G75*
G03*
X123825000Y-130968750I500001J1D01*
G01*
X61912500Y-130968750D02*
X74912500Y-130968750D01*
X332587500Y-117555750D02*
G75*
G03*
X333087500Y-118055750I500001J1D01*
G01*
X342400000Y-187618750D02*
G75*
G03*
X342900000Y-188118750I500001J1D01*
G01*
X305887000Y-97918750D02*
G75*
G03*
X305387000Y-98418750I1J-500001D01*
G01*
X333381750Y-151018750D02*
G75*
G03*
X333881750Y-150518750I-1J500001D01*
G01*
X337350000Y-187618750D02*
X337350000Y-174618750D01*
X242387500Y-149518750D02*
G75*
G03*
X242887500Y-150018750I500001J1D01*
G01*
X282725000Y-193593750D02*
G75*
G03*
X280725000Y-191593750I-1999999J1D01*
G01*
X209493250Y-173118750D02*
X203493250Y-173118750D01*
X223837500Y-150018750D02*
X236837500Y-150018750D01*
X106656250Y-174618750D02*
X106656250Y-187618750D01*
X333881750Y-150518750D02*
X333881750Y-149431750D01*
X332587500Y-117468750D02*
G75*
G03*
X332087500Y-116968750I-500001J-1D01*
G01*
X226369300Y-174118750D02*
G75*
G03*
X226869300Y-173618750I-1J500001D01*
G01*
X298243250Y-155568750D02*
X298243250Y-169568750D01*
X128587500Y-150018750D02*
X141587500Y-150018750D01*
X89987500Y-136518750D02*
X89987500Y-149518750D01*
X285750000Y-188118750D02*
X298750000Y-188118750D01*
X161425000Y-117468750D02*
X161425000Y-130468750D01*
X108250000Y-111918750D02*
G75*
G03*
X108750000Y-111418750I-1J500001D01*
G01*
X256387500Y-136518750D02*
G75*
G03*
X255887500Y-136018750I-500001J-1D01*
G01*
X103987500Y-136518750D02*
G75*
G03*
X103487500Y-136018750I-500001J-1D01*
G01*
X232862500Y-155568750D02*
X232862500Y-168568750D01*
X308775000Y-130468750D02*
X308775000Y-117468750D01*
X214312500Y-169068750D02*
X227312500Y-169068750D01*
X118562500Y-168568750D02*
G75*
G03*
X119062500Y-169068750I500001J1D01*
G01*
X266200000Y-98418750D02*
X266200000Y-111418750D01*
X161925000Y-130968750D02*
X174925000Y-130968750D01*
X299250000Y-98418750D02*
G75*
G03*
X298750000Y-97918750I-500001J-1D01*
G01*
X284725000Y-91393750D02*
X320725000Y-91393750D01*
X75700000Y-98418750D02*
X75700000Y-111418750D01*
X289725000Y-117468750D02*
G75*
G03*
X289225000Y-116968750I-500001J-1D01*
G01*
X279700000Y-174118750D02*
X266700000Y-174118750D01*
X76200000Y-111918750D02*
X89200000Y-111918750D01*
X374950000Y-155068750D02*
X361950000Y-155068750D01*
X123825000Y-116968750D02*
G75*
G03*
X123325000Y-117468750I1J-500001D01*
G01*
X294487500Y-136518750D02*
G75*
G03*
X293987500Y-136018750I-500001J-1D01*
G01*
X251125000Y-130968750D02*
G75*
G03*
X251625000Y-130468750I-1J500001D01*
G01*
X284962500Y-155568750D02*
G75*
G03*
X284462500Y-155068750I-500001J-1D01*
G01*
X336850000Y-188118750D02*
G75*
G03*
X337350000Y-187618750I-1J500001D01*
G01*
X260650000Y-174118750D02*
X247650000Y-174118750D01*
X198737500Y-150018750D02*
G75*
G03*
X199237500Y-149518750I-1J500001D01*
G01*
X59031250Y-187618750D02*
G75*
G03*
X59531250Y-188118750I500001J1D01*
G01*
X170662500Y-155568750D02*
G75*
G03*
X170162500Y-155068750I-500001J-1D01*
G01*
X118275000Y-117468750D02*
G75*
G03*
X117775000Y-116968750I-500001J-1D01*
G01*
X323850000Y-188118750D02*
X336850000Y-188118750D01*
X246525000Y-93393750D02*
G75*
G03*
X244525000Y-91393750I-1999999J1D01*
G01*
X284962500Y-168568750D02*
X284962500Y-155568750D01*
X103487500Y-150018750D02*
G75*
G03*
X103987500Y-149518750I-1J500001D01*
G01*
X374950000Y-188118750D02*
G75*
G03*
X375450000Y-187618750I-1J500001D01*
G01*
X54125000Y-191093750D02*
X54125000Y-95893750D01*
X146350000Y-111918750D02*
G75*
G03*
X146850000Y-111418750I-1J500001D01*
G01*
X304743250Y-170068750D02*
G75*
G03*
X305243250Y-169568750I-1J500001D01*
G01*
X113512500Y-155568750D02*
G75*
G03*
X113012500Y-155068750I-500001J-1D01*
G01*
X108750000Y-111418750D02*
X108750000Y-98418750D01*
X70650000Y-98418750D02*
G75*
G03*
X70150000Y-97918750I-500001J-1D01*
G01*
X251912500Y-155568750D02*
X251912500Y-168568750D01*
X128587500Y-136018750D02*
G75*
G03*
X128087500Y-136518750I1J-500001D01*
G01*
X332587500Y-117555750D02*
X332587500Y-117468750D01*
X375450000Y-187618750D02*
X375450000Y-174618750D01*
X59531250Y-188118750D02*
X72531250Y-188118750D01*
X94462500Y-155568750D02*
G75*
G03*
X93962500Y-155068750I-500001J-1D01*
G01*
X248525000Y-191593750D02*
X280725000Y-191593750D01*
X279700000Y-97918750D02*
X266700000Y-97918750D01*
X174925000Y-116968750D02*
X161925000Y-116968750D01*
X85225000Y-117468750D02*
X85225000Y-130468750D01*
X128087500Y-149518750D02*
G75*
G03*
X128587500Y-150018750I500001J1D01*
G01*
X280200000Y-111418750D02*
X280200000Y-98418750D01*
X219075000Y-116968750D02*
G75*
G03*
X218575000Y-117468750I1J-500001D01*
G01*
X266700000Y-97918750D02*
G75*
G03*
X266200000Y-98418750I1J-500001D01*
G01*
X109037500Y-136518750D02*
X109037500Y-149518750D01*
X318587500Y-130468750D02*
G75*
G03*
X319087500Y-130968750I500001J1D01*
G01*
X85725000Y-130968750D02*
X98725000Y-130968750D01*
X310505750Y-150018750D02*
G75*
G03*
X310005750Y-150518750I1J-500001D01*
G01*
X141587500Y-136018750D02*
X128587500Y-136018750D01*
X252412500Y-155068750D02*
G75*
G03*
X251912500Y-155568750I1J-500001D01*
G01*
X142375000Y-130468750D02*
G75*
G03*
X142875000Y-130968750I500001J1D01*
G01*
X108250000Y-97918750D02*
X95250000Y-97918750D01*
X275725000Y-117468750D02*
X275725000Y-130468750D01*
X170162500Y-169068750D02*
G75*
G03*
X170662500Y-168568750I-1J500001D01*
G01*
X223050000Y-98418750D02*
G75*
G03*
X222550000Y-97918750I-500001J-1D01*
G01*
X298743250Y-170068750D02*
X304743250Y-170068750D01*
X66618250Y-170068750D02*
G75*
G03*
X67118250Y-169568750I-1J500001D01*
G01*
X303005750Y-150518750D02*
G75*
G03*
X303505750Y-151018750I500001J1D01*
G01*
X361450000Y-174618750D02*
X361450000Y-187618750D01*
X165400000Y-111918750D02*
G75*
G03*
X165900000Y-111418750I-1J500001D01*
G01*
X266700000Y-188118750D02*
X279700000Y-188118750D01*
X266200000Y-187618750D02*
G75*
G03*
X266700000Y-188118750I500001J1D01*
G01*
X59531250Y-136018750D02*
G75*
G03*
X59031250Y-136518750I1J-500001D01*
G01*
X83494250Y-169068750D02*
X67618250Y-169068750D01*
X378925000Y-133993750D02*
X378925000Y-191093750D01*
X299537500Y-136518750D02*
X299537500Y-149518750D01*
X70650000Y-111418750D02*
X70650000Y-98418750D01*
X59531250Y-155068750D02*
G75*
G03*
X59031250Y-155568750I1J-500001D01*
G01*
X203500000Y-111918750D02*
G75*
G03*
X204000000Y-111418750I-1J500001D01*
G01*
X328619250Y-155068750D02*
X298743250Y-155068750D01*
X246362500Y-155068750D02*
X233362500Y-155068750D01*
X171450000Y-111918750D02*
X184450000Y-111918750D01*
X131555750Y-173618750D02*
X131555750Y-187618750D01*
X92325000Y-91393750D02*
G75*
G03*
X90325000Y-93393750I-1J-1999999D01*
G01*
X298743250Y-155068750D02*
G75*
G03*
X298243250Y-155568750I1J-500001D01*
G01*
X305743300Y-169068750D02*
G75*
G03*
X305243300Y-169568750I1J-500001D01*
G01*
X327381750Y-151018750D02*
X333381750Y-151018750D01*
X261150000Y-111418750D02*
X261150000Y-98418750D01*
X127300000Y-97918750D02*
X114300000Y-97918750D01*
X142875000Y-130968750D02*
X155875000Y-130968750D01*
X54625000Y-95393750D02*
X88325000Y-95393750D01*
X161137500Y-149518750D02*
X161137500Y-136518750D01*
X256675000Y-130468750D02*
G75*
G03*
X257175000Y-130968750I500001J1D01*
G01*
X270675000Y-117468750D02*
G75*
G03*
X270175000Y-116968750I-500001J-1D01*
G01*
X138112500Y-155068750D02*
G75*
G03*
X137612500Y-155568750I1J-500001D01*
G01*
X274937500Y-136018750D02*
X261937500Y-136018750D01*
X72531250Y-174118750D02*
X59531250Y-174118750D01*
X374950000Y-174118750D02*
X361950000Y-174118750D01*
X122537500Y-136018750D02*
X109537500Y-136018750D01*
X119062500Y-169068750D02*
X132062500Y-169068750D01*
X227369250Y-173118750D02*
G75*
G03*
X226869250Y-173618750I1J-500001D01*
G01*
X132055750Y-173118750D02*
G75*
G03*
X131555750Y-173618750I1J-500001D01*
G01*
X294487500Y-149518750D02*
X294487500Y-136518750D01*
X242100000Y-111418750D02*
X242100000Y-98418750D01*
X180187500Y-136518750D02*
G75*
G03*
X179687500Y-136018750I-500001J-1D01*
G01*
X161137500Y-136518750D02*
G75*
G03*
X160637500Y-136018750I-500001J-1D01*
G01*
X308275000Y-116968750D02*
X295275000Y-116968750D01*
X329763000Y-112918750D02*
X335763000Y-112918750D01*
X120656250Y-187618750D02*
X120656250Y-174618750D01*
X334381750Y-148931750D02*
X334468750Y-148931750D01*
X336263000Y-98418750D02*
G75*
G03*
X335763000Y-97918750I-500001J-1D01*
G01*
X322725000Y-93393750D02*
G75*
G03*
X320725000Y-91393750I-1999999J1D01*
G01*
X132062500Y-155068750D02*
X119062500Y-155068750D01*
X271462500Y-169068750D02*
X284462500Y-169068750D01*
X266700000Y-111918750D02*
X279700000Y-111918750D01*
X356400000Y-149518750D02*
X356400000Y-136518750D01*
X180975000Y-116968750D02*
G75*
G03*
X180475000Y-117468750I1J-500001D01*
G01*
X355900000Y-155068750D02*
X342900000Y-155068750D01*
X171450000Y-97918750D02*
G75*
G03*
X170950000Y-98418750I1J-500001D01*
G01*
X265412500Y-169068750D02*
G75*
G03*
X265912500Y-168568750I-1J500001D01*
G01*
X166687500Y-136018750D02*
G75*
G03*
X166187500Y-136518750I1J-500001D01*
G01*
X162431750Y-173618750D02*
G75*
G03*
X161931750Y-173118750I-500001J-1D01*
G01*
X320468800Y-136018750D02*
G75*
G03*
X320968800Y-135518750I-1J500001D01*
G01*
X293987500Y-136018750D02*
X280987500Y-136018750D01*
X233362500Y-169068750D02*
X246362500Y-169068750D01*
X244525000Y-195593750D02*
G75*
G03*
X246525000Y-193593750I1J1999999D01*
G01*
X127300000Y-111918750D02*
G75*
G03*
X127800000Y-111418750I-1J500001D01*
G01*
X293987500Y-150018750D02*
G75*
G03*
X294487500Y-149518750I-1J500001D01*
G01*
X308275000Y-130968750D02*
G75*
G03*
X308775000Y-130468750I-1J500001D01*
G01*
X114300000Y-111918750D02*
X127300000Y-111918750D01*
X280200000Y-174618750D02*
G75*
G03*
X279700000Y-174118750I-500001J-1D01*
G01*
X361950000Y-169068750D02*
X374950000Y-169068750D01*
X255887500Y-136018750D02*
X242887500Y-136018750D01*
X131555750Y-187618750D02*
G75*
G03*
X132055750Y-188118750I500001J1D01*
G01*
X59031250Y-136518750D02*
X59031250Y-149518750D01*
X180975000Y-130968750D02*
X193975000Y-130968750D01*
X175712500Y-155568750D02*
X175712500Y-168568750D01*
X74912500Y-116968750D02*
X61912500Y-116968750D01*
X326881750Y-150518750D02*
G75*
G03*
X327381750Y-151018750I500001J1D01*
G01*
X114300000Y-97918750D02*
G75*
G03*
X113800000Y-98418750I1J-500001D01*
G01*
X280987500Y-136018750D02*
G75*
G03*
X280487500Y-136518750I1J-500001D01*
G01*
X223337500Y-149518750D02*
G75*
G03*
X223837500Y-150018750I500001J1D01*
G01*
X261150000Y-98418750D02*
G75*
G03*
X260650000Y-97918750I-500001J-1D01*
G01*
X83994250Y-169568750D02*
G75*
G03*
X83494250Y-169068750I-500001J-1D01*
G01*
X361950000Y-155068750D02*
G75*
G03*
X361450000Y-155568750I1J-500001D01*
G01*
X237625000Y-117468750D02*
X237625000Y-130468750D01*
X174925000Y-130968750D02*
G75*
G03*
X175425000Y-130468750I-1J500001D01*
G01*
X326881750Y-150518750D02*
G75*
G03*
X326381750Y-150018750I-500001J-1D01*
G01*
X120156250Y-188118750D02*
G75*
G03*
X120656250Y-187618750I-1J500001D01*
G01*
X96343750Y-174118750D02*
X83343750Y-174118750D01*
X266700000Y-174118750D02*
G75*
G03*
X266200000Y-174618750I1J-500001D01*
G01*
X94750000Y-98418750D02*
X94750000Y-111418750D01*
X342400000Y-155568750D02*
X342400000Y-168568750D01*
X82843750Y-187618750D02*
G75*
G03*
X83343750Y-188118750I500001J1D01*
G01*
X157162500Y-169068750D02*
X170162500Y-169068750D01*
X280987500Y-150018750D02*
X293987500Y-150018750D01*
X75700000Y-111418750D02*
G75*
G03*
X76200000Y-111918750I500001J1D01*
G01*
X160637500Y-150018750D02*
G75*
G03*
X161137500Y-149518750I-1J500001D01*
G01*
X213525000Y-130468750D02*
X213525000Y-117468750D01*
X242100000Y-98418750D02*
G75*
G03*
X241600000Y-97918750I-500001J-1D01*
G01*
X191593750Y-188118750D02*
G75*
G03*
X192093750Y-187618750I-1J500001D01*
G01*
X342900000Y-155068750D02*
G75*
G03*
X342400000Y-155568750I1J-500001D01*
G01*
X361450000Y-187618750D02*
G75*
G03*
X361950000Y-188118750I500001J1D01*
G01*
X109537500Y-150018750D02*
X122537500Y-150018750D01*
X285250000Y-111418750D02*
G75*
G03*
X285750000Y-111918750I500001J1D01*
G01*
X77293750Y-150018750D02*
X59531250Y-150018750D01*
X356400000Y-174618750D02*
G75*
G03*
X355900000Y-174118750I-500001J-1D01*
G01*
X147637500Y-150018750D02*
X160637500Y-150018750D01*
X176212500Y-155068750D02*
G75*
G03*
X175712500Y-155568750I1J-500001D01*
G01*
X242387500Y-136518750D02*
X242387500Y-149518750D01*
X247650000Y-174118750D02*
G75*
G03*
X247150000Y-174618750I1J-500001D01*
G01*
X318587500Y-117468750D02*
X318587500Y-130468750D01*
X237625000Y-130468750D02*
G75*
G03*
X238125000Y-130968750I500001J1D01*
G01*
X161931750Y-188118750D02*
G75*
G03*
X162431750Y-187618750I-1J500001D01*
G01*
X329119250Y-155568750D02*
G75*
G03*
X328619250Y-155068750I-500001J-1D01*
G01*
X340325000Y-95893750D02*
G75*
G03*
X339825000Y-95393750I-500001J-1D01*
G01*
X94462500Y-168568750D02*
X94462500Y-155568750D01*
X209550000Y-111918750D02*
X222550000Y-111918750D01*
X275725000Y-130468750D02*
G75*
G03*
X276225000Y-130968750I500001J1D01*
G01*
X170950000Y-98418750D02*
X170950000Y-111418750D01*
X95250000Y-97918750D02*
G75*
G03*
X94750000Y-98418750I1J-500001D01*
G01*
X60118250Y-169568750D02*
G75*
G03*
X59618250Y-169068750I-500001J-1D01*
G01*
X280200000Y-187618750D02*
X280200000Y-174618750D01*
X161425000Y-130468750D02*
G75*
G03*
X161925000Y-130968750I500001J1D01*
G01*
X238593750Y-187618750D02*
X238593750Y-173618750D01*
X93962500Y-169068750D02*
G75*
G03*
X94462500Y-168568750I-1J500001D01*
G01*
X83343750Y-188118750D02*
X96343750Y-188118750D01*
X141587500Y-150018750D02*
G75*
G03*
X142087500Y-149518750I-1J500001D01*
G01*
X265912500Y-155568750D02*
G75*
G03*
X265412500Y-155068750I-500001J-1D01*
G01*
X342400000Y-136518750D02*
X342400000Y-149518750D01*
X57150000Y-111918750D02*
X70150000Y-111918750D01*
X340325000Y-95893750D02*
X340325000Y-132993750D01*
X57150000Y-97918750D02*
G75*
G03*
X56650000Y-98418750I1J-500001D01*
G01*
X374950000Y-169068750D02*
G75*
G03*
X375450000Y-168568750I-1J500001D01*
G01*
X83994250Y-169568750D02*
G75*
G03*
X84494250Y-170068750I500001J1D01*
G01*
X113800000Y-98418750D02*
X113800000Y-111418750D01*
X238125000Y-116968750D02*
G75*
G03*
X237625000Y-117468750I1J-500001D01*
G01*
X213812500Y-168568750D02*
G75*
G03*
X214312500Y-169068750I500001J1D01*
G01*
X166187500Y-136518750D02*
X166187500Y-149518750D01*
X170162500Y-155068750D02*
X157162500Y-155068750D01*
X136825000Y-116968750D02*
X123825000Y-116968750D01*
X237337500Y-149518750D02*
X237337500Y-136518750D01*
X74912500Y-130968750D02*
G75*
G03*
X75412500Y-130468750I-1J500001D01*
G01*
X170662500Y-168568750D02*
X170662500Y-155568750D01*
X109037500Y-149518750D02*
G75*
G03*
X109537500Y-150018750I500001J1D01*
G01*
X257175000Y-116968750D02*
G75*
G03*
X256675000Y-117468750I1J-500001D01*
G01*
X160637500Y-136018750D02*
X147637500Y-136018750D01*
X356400000Y-136518750D02*
G75*
G03*
X355900000Y-136018750I-500001J-1D01*
G01*
X304800000Y-188118750D02*
X317800000Y-188118750D01*
X228600000Y-111918750D02*
X241600000Y-111918750D01*
X375450000Y-174618750D02*
G75*
G03*
X374950000Y-174118750I-500001J-1D01*
G01*
X157162500Y-155068750D02*
G75*
G03*
X156662500Y-155568750I1J-500001D01*
G01*
X147137500Y-136518750D02*
X147137500Y-149518750D01*
X175425000Y-117468750D02*
G75*
G03*
X174925000Y-116968750I-500001J-1D01*
G01*
X232575000Y-117468750D02*
G75*
G03*
X232075000Y-116968750I-500001J-1D01*
G01*
X308775000Y-117468750D02*
G75*
G03*
X308275000Y-116968750I-500001J-1D01*
G01*
X104775000Y-130968750D02*
X117775000Y-130968750D01*
X91494250Y-169068750D02*
X93962500Y-169068750D01*
X185237500Y-136518750D02*
X185237500Y-149518750D01*
X334968750Y-148431750D02*
X334968750Y-118555750D01*
X117775000Y-130968750D02*
G75*
G03*
X118275000Y-130468750I-1J500001D01*
G01*
X329263000Y-112418750D02*
G75*
G03*
X329763000Y-112918750I500001J1D01*
G01*
X204287500Y-136518750D02*
X204287500Y-149518750D01*
X275437500Y-149518750D02*
X275437500Y-136518750D01*
X194762500Y-168568750D02*
G75*
G03*
X195262500Y-169068750I500001J1D01*
G01*
X156375000Y-117468750D02*
G75*
G03*
X155875000Y-116968750I-500001J-1D01*
G01*
X173331250Y-187618750D02*
G75*
G03*
X173831250Y-188118750I500001J1D01*
G01*
X255887500Y-150018750D02*
G75*
G03*
X256387500Y-149518750I-1J500001D01*
G01*
X260650000Y-97918750D02*
X247650000Y-97918750D01*
X295275000Y-116968750D02*
G75*
G03*
X294775000Y-117468750I1J-500001D01*
G01*
X303505750Y-151018750D02*
X309505750Y-151018750D01*
X194762500Y-155568750D02*
X194762500Y-168568750D01*
X322725000Y-93393750D02*
G75*
G03*
X324725000Y-95393750I1999999J-1D01*
G01*
X340725000Y-195593750D02*
X284725000Y-195593750D01*
X59531250Y-136018750D02*
X77293750Y-136018750D01*
X138093750Y-173118750D02*
X132055750Y-173118750D01*
X200025000Y-130968750D02*
X213025000Y-130968750D01*
X342900000Y-136018750D02*
G75*
G03*
X342400000Y-136518750I1J-500001D01*
G01*
X340325000Y-132993750D02*
G75*
G03*
X340825000Y-133493750I500001J1D01*
G01*
X223050000Y-111418750D02*
X223050000Y-98418750D01*
X77293750Y-150018750D02*
G75*
G03*
X77793750Y-149518750I-1J500001D01*
G01*
X166687500Y-150018750D02*
X179687500Y-150018750D01*
X199525000Y-130468750D02*
G75*
G03*
X200025000Y-130968750I500001J1D01*
G01*
X117775000Y-116968750D02*
X104775000Y-116968750D01*
X190500000Y-97918750D02*
G75*
G03*
X190000000Y-98418750I1J-500001D01*
G01*
X328619250Y-170068750D02*
G75*
G03*
X329119250Y-169568750I-1J500001D01*
G01*
X232862500Y-168568750D02*
G75*
G03*
X233362500Y-169068750I500001J1D01*
G01*
X152325000Y-191593750D02*
G75*
G03*
X150325000Y-193593750I-1J-1999999D01*
G01*
X305387000Y-98418750D02*
X305387000Y-112418750D01*
X218287500Y-149518750D02*
X218287500Y-136518750D01*
X119062500Y-155068750D02*
G75*
G03*
X118562500Y-155568750I1J-500001D01*
G01*
X73031250Y-187618750D02*
X73031250Y-174618750D01*
X318300000Y-187618750D02*
X318300000Y-174618750D01*
X59618250Y-169068750D02*
X59531250Y-169068750D01*
X361950000Y-136018750D02*
G75*
G03*
X361450000Y-136518750I1J-500001D01*
G01*
X109537500Y-136018750D02*
G75*
G03*
X109037500Y-136518750I1J-500001D01*
G01*
X198737500Y-136018750D02*
X185737500Y-136018750D01*
X227812500Y-168568750D02*
X227812500Y-155568750D01*
X192093750Y-187618750D02*
X192093750Y-174618750D01*
X304300000Y-174618750D02*
X304300000Y-187618750D01*
X154931800Y-174118750D02*
X139093800Y-174118750D01*
X90325000Y-193593750D02*
G75*
G03*
X92325000Y-195593750I1999999J-1D01*
G01*
X378425000Y-191593750D02*
X344725000Y-191593750D01*
X280487500Y-136518750D02*
X280487500Y-149518750D01*
X204287500Y-149518750D02*
G75*
G03*
X204787500Y-150018750I500001J1D01*
G01*
X151612500Y-168568750D02*
X151612500Y-155568750D01*
X59031250Y-168568750D02*
G75*
G03*
X59531250Y-169068750I500001J1D01*
G01*
X326381750Y-150018750D02*
X310505750Y-150018750D01*
X344725000Y-191593750D02*
G75*
G03*
X342725000Y-193593750I-1J-1999999D01*
G01*
X89987500Y-149518750D02*
G75*
G03*
X90487500Y-150018750I500001J1D01*
G01*
X208762500Y-168568750D02*
X208762500Y-155568750D01*
X312887000Y-111918750D02*
G75*
G03*
X312387000Y-112418750I1J-500001D01*
G01*
X238093750Y-188118750D02*
G75*
G03*
X238593750Y-187618750I-1J500001D01*
G01*
X100012500Y-155068750D02*
G75*
G03*
X99512500Y-155568750I1J-500001D01*
G01*
X265412500Y-155068750D02*
X252412500Y-155068750D01*
X132562500Y-155568750D02*
G75*
G03*
X132062500Y-155068750I-500001J-1D01*
G01*
X59031250Y-155568750D02*
X59031250Y-168568750D01*
X162431750Y-187618750D02*
X162431750Y-173618750D01*
X156375000Y-130468750D02*
X156375000Y-117468750D01*
X61912500Y-116968750D02*
G75*
G03*
X61412500Y-117468750I1J-500001D01*
G01*
X138112500Y-169068750D02*
X151112500Y-169068750D01*
X185237500Y-149518750D02*
G75*
G03*
X185737500Y-150018750I500001J1D01*
G01*
X335763000Y-97918750D02*
X305887000Y-97918750D01*
X179687500Y-150018750D02*
G75*
G03*
X180187500Y-149518750I-1J500001D01*
G01*
X280487500Y-149518750D02*
G75*
G03*
X280987500Y-150018750I500001J1D01*
G01*
X232575000Y-130468750D02*
X232575000Y-117468750D01*
X89200000Y-97918750D02*
X76200000Y-97918750D01*
X209550000Y-97918750D02*
G75*
G03*
X209050000Y-98418750I1J-500001D01*
G01*
X90487500Y-136018750D02*
G75*
G03*
X89987500Y-136518750I1J-500001D01*
G01*
X342400000Y-174618750D02*
X342400000Y-187618750D01*
X279700000Y-188118750D02*
G75*
G03*
X280200000Y-187618750I-1J500001D01*
G01*
X123037500Y-149518750D02*
X123037500Y-136518750D01*
X285250000Y-187618750D02*
G75*
G03*
X285750000Y-188118750I500001J1D01*
G01*
X332087500Y-116968750D02*
X319087500Y-116968750D01*
X180475000Y-130468750D02*
G75*
G03*
X180975000Y-130968750I500001J1D01*
G01*
X219075000Y-130968750D02*
X232075000Y-130968750D01*
X299537500Y-149518750D02*
G75*
G03*
X300037500Y-150018750I500001J1D01*
G01*
X151112500Y-155068750D02*
X138112500Y-155068750D01*
X83343750Y-174118750D02*
G75*
G03*
X82843750Y-174618750I1J-500001D01*
G01*
X56650000Y-111418750D02*
G75*
G03*
X57150000Y-111918750I500001J1D01*
G01*
X218575000Y-130468750D02*
G75*
G03*
X219075000Y-130968750I500001J1D01*
G01*
X77793750Y-149518750D02*
X77793750Y-136518750D01*
X223837500Y-136018750D02*
G75*
G03*
X223337500Y-136518750I1J-500001D01*
G01*
X73031250Y-174618750D02*
G75*
G03*
X72531250Y-174118750I-500001J-1D01*
G01*
X152325000Y-191593750D02*
X184525000Y-191593750D01*
X270962500Y-168568750D02*
G75*
G03*
X271462500Y-169068750I500001J1D01*
G01*
X342900000Y-188118750D02*
X355900000Y-188118750D01*
X186525000Y-193593750D02*
G75*
G03*
X184525000Y-191593750I-1999999J1D01*
G01*
X120156250Y-174118750D02*
X107156250Y-174118750D01*
X189212500Y-155068750D02*
X176212500Y-155068750D01*
X85725000Y-116968750D02*
G75*
G03*
X85225000Y-117468750I1J-500001D01*
G01*
X329119250Y-169568750D02*
X329119250Y-155568750D01*
X96343750Y-188118750D02*
G75*
G03*
X96843750Y-187618750I-1J500001D01*
G01*
X142875000Y-116968750D02*
G75*
G03*
X142375000Y-117468750I1J-500001D01*
G01*
X193975000Y-130968750D02*
G75*
G03*
X194475000Y-130468750I-1J500001D01*
G01*
X82843750Y-174618750D02*
X82843750Y-187618750D01*
X294775000Y-130468750D02*
G75*
G03*
X295275000Y-130968750I500001J1D01*
G01*
X165900000Y-98418750D02*
G75*
G03*
X165400000Y-97918750I-500001J-1D01*
G01*
X118275000Y-130468750D02*
X118275000Y-117468750D01*
X147637500Y-136018750D02*
G75*
G03*
X147137500Y-136518750I1J-500001D01*
G01*
X378925000Y-133993750D02*
G75*
G03*
X378425000Y-133493750I-500001J-1D01*
G01*
X90494250Y-170068750D02*
G75*
G03*
X90994250Y-169568750I-1J500001D01*
G01*
X103487500Y-136018750D02*
X90487500Y-136018750D01*
X361450000Y-136518750D02*
X361450000Y-149518750D01*
X355900000Y-169068750D02*
G75*
G03*
X356400000Y-168568750I-1J500001D01*
G01*
X309505750Y-151018750D02*
G75*
G03*
X310005750Y-150518750I-1J500001D01*
G01*
X99512500Y-155568750D02*
X99512500Y-168568750D01*
X146350000Y-97918750D02*
X133350000Y-97918750D01*
X251125000Y-116968750D02*
X238125000Y-116968750D01*
X266200000Y-174618750D02*
X266200000Y-187618750D01*
X247650000Y-111918750D02*
X260650000Y-111918750D01*
X96843750Y-174618750D02*
G75*
G03*
X96343750Y-174118750I-500001J-1D01*
G01*
X342900000Y-150018750D02*
X355900000Y-150018750D01*
X218575000Y-117468750D02*
X218575000Y-130468750D01*
X279700000Y-111918750D02*
G75*
G03*
X280200000Y-111418750I-1J500001D01*
G01*
X132062500Y-169068750D02*
G75*
G03*
X132562500Y-168568750I-1J500001D01*
G01*
X300037500Y-136018750D02*
G75*
G03*
X299537500Y-136518750I1J-500001D01*
G01*
X237337500Y-136518750D02*
G75*
G03*
X236837500Y-136018750I-500001J-1D01*
G01*
X248525000Y-191593750D02*
G75*
G03*
X246525000Y-193593750I-1J-1999999D01*
G01*
X242887500Y-150018750D02*
X255887500Y-150018750D01*
X270675000Y-130468750D02*
X270675000Y-117468750D01*
X203493250Y-188118750D02*
X238093750Y-188118750D01*
X128087500Y-136518750D02*
X128087500Y-149518750D01*
X108750000Y-98418750D02*
G75*
G03*
X108250000Y-97918750I-500001J-1D01*
G01*
X203500000Y-97918750D02*
X190500000Y-97918750D01*
X238593750Y-173618750D02*
G75*
G03*
X238093750Y-173118750I-500001J-1D01*
G01*
X257175000Y-130968750D02*
X270175000Y-130968750D01*
X123037500Y-136518750D02*
G75*
G03*
X122537500Y-136018750I-500001J-1D01*
G01*
X295275000Y-130968750D02*
X308275000Y-130968750D01*
X282725000Y-193593750D02*
G75*
G03*
X284725000Y-195593750I1999999J-1D01*
G01*
X256387500Y-149518750D02*
X256387500Y-136518750D01*
X285750000Y-111918750D02*
X298750000Y-111918750D01*
X329263000Y-112418750D02*
G75*
G03*
X328763000Y-111918750I-500001J-1D01*
G01*
X199525000Y-117468750D02*
X199525000Y-130468750D01*
X70150000Y-111918750D02*
G75*
G03*
X70650000Y-111418750I-1J500001D01*
G01*
X132850000Y-111418750D02*
G75*
G03*
X133350000Y-111918750I500001J1D01*
G01*
X155875000Y-116968750D02*
X142875000Y-116968750D01*
X213025000Y-116968750D02*
X200025000Y-116968750D01*
X94750000Y-111418750D02*
G75*
G03*
X95250000Y-111918750I500001J1D01*
G01*
X356400000Y-187618750D02*
X356400000Y-174618750D01*
X60618250Y-170068750D02*
X66618250Y-170068750D01*
X184450000Y-111918750D02*
G75*
G03*
X184950000Y-111418750I-1J500001D01*
G01*
X251625000Y-130468750D02*
X251625000Y-117468750D01*
X378425000Y-191593750D02*
G75*
G03*
X378925000Y-191093750I-1J500001D01*
G01*
X261937500Y-136018750D02*
G75*
G03*
X261437500Y-136518750I1J-500001D01*
G01*
X152400000Y-97918750D02*
G75*
G03*
X151900000Y-98418750I1J-500001D01*
G01*
X318300000Y-174618750D02*
G75*
G03*
X317800000Y-174118750I-500001J-1D01*
G01*
X185737500Y-150018750D02*
X198737500Y-150018750D01*
X59531250Y-155068750D02*
X93962500Y-155068750D01*
X156662500Y-168568750D02*
G75*
G03*
X157162500Y-169068750I500001J1D01*
G01*
X238125000Y-130968750D02*
X251125000Y-130968750D01*
X188525000Y-91393750D02*
G75*
G03*
X186525000Y-93393750I-1J-1999999D01*
G01*
X247650000Y-97918750D02*
G75*
G03*
X247150000Y-98418750I1J-500001D01*
G01*
X247150000Y-187618750D02*
G75*
G03*
X247650000Y-188118750I500001J1D01*
G01*
X285250000Y-174618750D02*
X285250000Y-187618750D01*
X334468750Y-118055750D02*
X333087500Y-118055750D01*
X54625000Y-191593750D02*
X88325000Y-191593750D01*
X336263000Y-112418750D02*
X336263000Y-98418750D01*
X289225000Y-116968750D02*
X276225000Y-116968750D01*
X184450000Y-97918750D02*
X171450000Y-97918750D01*
X209993300Y-173618750D02*
G75*
G03*
X210493300Y-174118750I500001J1D01*
G01*
X285250000Y-98418750D02*
X285250000Y-111418750D01*
X138593800Y-173618750D02*
G75*
G03*
X139093800Y-174118750I500001J1D01*
G01*
X246862500Y-155568750D02*
G75*
G03*
X246362500Y-155068750I-500001J-1D01*
G01*
X151112500Y-169068750D02*
G75*
G03*
X151612500Y-168568750I-1J500001D01*
G01*
X361450000Y-155568750D02*
X361450000Y-168568750D01*
X155875000Y-130968750D02*
G75*
G03*
X156375000Y-130468750I-1J500001D01*
G01*
X227312500Y-155068750D02*
X214312500Y-155068750D01*
X319087500Y-130968750D02*
X320468750Y-130968750D01*
X242887500Y-136018750D02*
G75*
G03*
X242387500Y-136518750I1J-500001D01*
G01*
X299250000Y-111418750D02*
X299250000Y-98418750D01*
X208762500Y-155568750D02*
G75*
G03*
X208262500Y-155068750I-500001J-1D01*
G01*
X59531250Y-174118750D02*
G75*
G03*
X59031250Y-174618750I1J-500001D01*
G01*
X320968750Y-131468750D02*
G75*
G03*
X320468750Y-130968750I-500001J-1D01*
G01*
X246862500Y-168568750D02*
X246862500Y-155568750D01*
X334968750Y-118555750D02*
G75*
G03*
X334468750Y-118055750I-500001J-1D01*
G01*
X200025000Y-116968750D02*
G75*
G03*
X199525000Y-117468750I1J-500001D01*
G01*
X340725000Y-195593750D02*
G75*
G03*
X342725000Y-193593750I1J1999999D01*
G01*
X260650000Y-111918750D02*
G75*
G03*
X261150000Y-111418750I-1J500001D01*
G01*
X285750000Y-97918750D02*
G75*
G03*
X285250000Y-98418750I1J-500001D01*
G01*
X151900000Y-111418750D02*
G75*
G03*
X152400000Y-111918750I500001J1D01*
G01*
X132562500Y-168568750D02*
X132562500Y-155568750D01*
X194475000Y-130468750D02*
X194475000Y-117468750D01*
X146850000Y-98418750D02*
G75*
G03*
X146350000Y-97918750I-500001J-1D01*
G01*
X238093750Y-173118750D02*
X227369250Y-173118750D01*
X88325000Y-95393750D02*
G75*
G03*
X90325000Y-93393750I1J1999999D01*
G01*
X89200000Y-111918750D02*
G75*
G03*
X89700000Y-111418750I-1J500001D01*
G01*
X342400000Y-168568750D02*
G75*
G03*
X342900000Y-169068750I500001J1D01*
G01*
X209050000Y-111418750D02*
G75*
G03*
X209550000Y-111918750I500001J1D01*
G01*
X246362500Y-169068750D02*
G75*
G03*
X246862500Y-168568750I-1J500001D01*
G01*
X148325000Y-195593750D02*
G75*
G03*
X150325000Y-193593750I1J1999999D01*
G01*
X334468750Y-148931750D02*
G75*
G03*
X334968750Y-148431750I-1J500001D01*
G01*
X175425000Y-130468750D02*
X175425000Y-117468750D01*
X89700000Y-111418750D02*
X89700000Y-98418750D01*
X298750000Y-97918750D02*
X285750000Y-97918750D01*
X137325000Y-117468750D02*
G75*
G03*
X136825000Y-116968750I-500001J-1D01*
G01*
X152400000Y-111918750D02*
X165400000Y-111918750D01*
X113800000Y-111418750D02*
G75*
G03*
X114300000Y-111918750I500001J1D01*
G01*
X138593750Y-173618750D02*
G75*
G03*
X138093750Y-173118750I-500001J-1D01*
G01*
X123825000Y-130968750D02*
X136825000Y-130968750D01*
X59031250Y-174618750D02*
X59031250Y-187618750D01*
X113512500Y-168568750D02*
X113512500Y-155568750D01*
X204000000Y-111418750D02*
X204000000Y-98418750D01*
X147137500Y-149518750D02*
G75*
G03*
X147637500Y-150018750I500001J1D01*
G01*
X311887000Y-112918750D02*
G75*
G03*
X312387000Y-112418750I-1J500001D01*
G01*
X213025000Y-130968750D02*
G75*
G03*
X213525000Y-130468750I-1J500001D01*
G01*
X241600000Y-97918750D02*
X228600000Y-97918750D01*
X209993250Y-173618750D02*
G75*
G03*
X209493250Y-173118750I-500001J-1D01*
G01*
X270962500Y-155568750D02*
X270962500Y-168568750D01*
X60118250Y-169568750D02*
G75*
G03*
X60618250Y-170068750I500001J1D01*
G01*
X289225000Y-130968750D02*
G75*
G03*
X289725000Y-130468750I-1J500001D01*
G01*
X99225000Y-130468750D02*
X99225000Y-117468750D01*
X151612500Y-155568750D02*
G75*
G03*
X151112500Y-155068750I-500001J-1D01*
G01*
X90487500Y-150018750D02*
X103487500Y-150018750D01*
X342900000Y-169068750D02*
X355900000Y-169068750D01*
X320968750Y-131468750D02*
X320968800Y-135518750D01*
X67618250Y-169068750D02*
G75*
G03*
X67118250Y-169568750I1J-500001D01*
G01*
X248525000Y-95393750D02*
X280725000Y-95393750D01*
X236837500Y-150018750D02*
G75*
G03*
X237337500Y-149518750I-1J500001D01*
G01*
X304300000Y-187618750D02*
G75*
G03*
X304800000Y-188118750I500001J1D01*
G01*
X374950000Y-136018750D02*
X361950000Y-136018750D01*
X261437500Y-136518750D02*
X261437500Y-149518750D01*
X184525000Y-95393750D02*
G75*
G03*
X186525000Y-93393750I1J1999999D01*
G01*
X374950000Y-150018750D02*
G75*
G03*
X375450000Y-149518750I-1J500001D01*
G01*
X204787500Y-150018750D02*
X217787500Y-150018750D01*
X193975000Y-116968750D02*
X180975000Y-116968750D01*
X180187500Y-149518750D02*
X180187500Y-136518750D01*
X146850000Y-111418750D02*
X146850000Y-98418750D01*
X261437500Y-149518750D02*
G75*
G03*
X261937500Y-150018750I500001J1D01*
G01*
X228100000Y-98418750D02*
X228100000Y-111418750D01*
X118562500Y-155568750D02*
X118562500Y-168568750D01*
X165900000Y-111418750D02*
X165900000Y-98418750D01*
X192093750Y-174618750D02*
G75*
G03*
X191593750Y-174118750I-500001J-1D01*
G01*
X298243250Y-169568750D02*
G75*
G03*
X298743250Y-170068750I500001J1D01*
G01*
X104275000Y-117468750D02*
X104275000Y-130468750D01*
X84494250Y-170068750D02*
X90494250Y-170068750D01*
X190500000Y-111918750D02*
X203500000Y-111918750D01*
X127800000Y-111418750D02*
X127800000Y-98418750D01*
X107156250Y-174118750D02*
G75*
G03*
X106656250Y-174618750I1J-500001D01*
G01*
X133350000Y-111918750D02*
X146350000Y-111918750D01*
X300037500Y-136018750D02*
X320468800Y-136018750D01*
X189712500Y-168568750D02*
X189712500Y-155568750D01*
X241600000Y-111918750D02*
G75*
G03*
X242100000Y-111418750I-1J500001D01*
G01*
X100012500Y-169068750D02*
X113012500Y-169068750D01*
X335763000Y-112918750D02*
G75*
G03*
X336263000Y-112418750I-1J500001D01*
G01*
X194475000Y-117468750D02*
G75*
G03*
X193975000Y-116968750I-500001J-1D01*
G01*
X185737500Y-136018750D02*
G75*
G03*
X185237500Y-136518750I1J-500001D01*
G01*
X342400000Y-149518750D02*
G75*
G03*
X342900000Y-150018750I500001J1D01*
G01*
X75412500Y-117468750D02*
G75*
G03*
X74912500Y-116968750I-500001J-1D01*
G01*
X305887000Y-112918750D02*
X311887000Y-112918750D01*
X261150000Y-187618750D02*
X261150000Y-174618750D01*
X173831250Y-174118750D02*
G75*
G03*
X173331250Y-174618750I1J-500001D01*
G01*
X199237500Y-136518750D02*
G75*
G03*
X198737500Y-136018750I-500001J-1D01*
G01*
X203493250Y-173118750D02*
G75*
G03*
X202993250Y-173618750I1J-500001D01*
G01*
X184950000Y-111418750D02*
X184950000Y-98418750D01*
X190000000Y-111418750D02*
G75*
G03*
X190500000Y-111918750I500001J1D01*
G01*
X280200000Y-98418750D02*
G75*
G03*
X279700000Y-97918750I-500001J-1D01*
G01*
X233362500Y-155068750D02*
G75*
G03*
X232862500Y-155568750I1J-500001D01*
G01*
X89700000Y-98418750D02*
G75*
G03*
X89200000Y-97918750I-500001J-1D01*
G01*
X133350000Y-97918750D02*
G75*
G03*
X132850000Y-98418750I1J-500001D01*
G01*
X95250000Y-111918750D02*
X108250000Y-111918750D01*
X222550000Y-97918750D02*
X209550000Y-97918750D01*
X98725000Y-116968750D02*
X85725000Y-116968750D01*
X137325000Y-130468750D02*
X137325000Y-117468750D01*
X284725000Y-91393750D02*
G75*
G03*
X282725000Y-93393750I-1J-1999999D01*
G01*
X106656250Y-187618750D02*
G75*
G03*
X107156250Y-188118750I500001J1D01*
G01*
X166187500Y-149518750D02*
G75*
G03*
X166687500Y-150018750I500001J1D01*
G01*
X213525000Y-117468750D02*
G75*
G03*
X213025000Y-116968750I-500001J-1D01*
G01*
X303005750Y-150518750D02*
G75*
G03*
X302505750Y-150018750I-500001J-1D01*
G01*
X298750000Y-174118750D02*
X285750000Y-174118750D01*
X208262500Y-169068750D02*
G75*
G03*
X208762500Y-168568750I-1J500001D01*
G01*
X378425000Y-133493750D02*
X340825000Y-133493750D01*
X305743300Y-169068750D02*
X321619300Y-169068750D01*
X317800000Y-174118750D02*
X304800000Y-174118750D01*
X189712500Y-155568750D02*
G75*
G03*
X189212500Y-155068750I-500001J-1D01*
G01*
X355900000Y-188118750D02*
G75*
G03*
X356400000Y-187618750I-1J500001D01*
G01*
X113012500Y-169068750D02*
G75*
G03*
X113512500Y-168568750I-1J500001D01*
G01*
X120656250Y-174618750D02*
G75*
G03*
X120156250Y-174118750I-500001J-1D01*
G01*
X186525000Y-193593750D02*
G75*
G03*
X188525000Y-195593750I1999999J-1D01*
G01*
X317800000Y-188118750D02*
G75*
G03*
X318300000Y-187618750I-1J500001D01*
G01*
X319087500Y-116968750D02*
G75*
G03*
X318587500Y-117468750I1J-500001D01*
G01*
X103987500Y-149518750D02*
X103987500Y-136518750D01*
X213812500Y-155568750D02*
X213812500Y-168568750D01*
X90325000Y-193593750D02*
G75*
G03*
X88325000Y-191593750I-1999999J1D01*
G01*
X75412500Y-130468750D02*
X75412500Y-117468750D01*
X298750000Y-188118750D02*
G75*
G03*
X299250000Y-187618750I-1J500001D01*
G01*
X294775000Y-117468750D02*
X294775000Y-130468750D01*
X161925000Y-116968750D02*
G75*
G03*
X161425000Y-117468750I1J-500001D01*
G01*
X56650000Y-98418750D02*
X56650000Y-111418750D01*
X173831250Y-174118750D02*
X191593750Y-174118750D01*
X322119300Y-169568750D02*
G75*
G03*
X321619300Y-169068750I-500001J-1D01*
G01*
X356400000Y-155568750D02*
G75*
G03*
X355900000Y-155068750I-500001J-1D01*
G01*
X284462500Y-169068750D02*
G75*
G03*
X284962500Y-168568750I-1J500001D01*
G01*
X300037500Y-150018750D02*
X302505750Y-150018750D01*
X92325000Y-91393750D02*
X148325000Y-91393750D01*
X218287500Y-136518750D02*
G75*
G03*
X217787500Y-136018750I-500001J-1D01*
G01*
X54625000Y-95393750D02*
G75*
G03*
X54125000Y-95893750I1J-500001D01*
G01*
X361950000Y-188118750D02*
X374950000Y-188118750D01*
X85225000Y-130468750D02*
G75*
G03*
X85725000Y-130968750I500001J1D01*
G01*
X91494250Y-169068750D02*
G75*
G03*
X90994250Y-169568750I1J-500001D01*
G01*
X132055750Y-188118750D02*
X161931750Y-188118750D01*
X312887000Y-111918750D02*
X328763000Y-111918750D01*
X173331250Y-174618750D02*
X173331250Y-187618750D01*
X122537500Y-150018750D02*
G75*
G03*
X123037500Y-149518750I-1J500001D01*
G01*
X142375000Y-117468750D02*
X142375000Y-130468750D01*
X247150000Y-98418750D02*
X247150000Y-111418750D01*
X142087500Y-136518750D02*
G75*
G03*
X141587500Y-136018750I-500001J-1D01*
G01*
X251912500Y-168568750D02*
G75*
G03*
X252412500Y-169068750I500001J1D01*
G01*
X132850000Y-98418750D02*
X132850000Y-111418750D01*
X99225000Y-117468750D02*
G75*
G03*
X98725000Y-116968750I-500001J-1D01*
G01*
X227312500Y-169068750D02*
G75*
G03*
X227812500Y-168568750I-1J500001D01*
G01*
X148325000Y-195593750D02*
X92325000Y-195593750D01*
X179687500Y-136018750D02*
X166687500Y-136018750D01*
X271462500Y-155068750D02*
G75*
G03*
X270962500Y-155568750I1J-500001D01*
G01*
X247150000Y-111418750D02*
G75*
G03*
X247650000Y-111918750I500001J1D01*
G01*
X323350000Y-174618750D02*
X323350000Y-187618750D01*
X323850000Y-174118750D02*
G75*
G03*
X323350000Y-174618750I1J-500001D01*
G01*
X244525000Y-195593750D02*
X188525000Y-195593750D01*
X204787500Y-136018750D02*
G75*
G03*
X204287500Y-136518750I1J-500001D01*
G01*
X76200000Y-97918750D02*
G75*
G03*
X75700000Y-98418750I1J-500001D01*
G01*
M02*
