%TF.GenerationSoftware,KiCad,Pcbnew,(6.0.1)*%
%TF.CreationDate,2022-01-30T19:11:49-05:00*%
%TF.ProjectId,GanJing 70 plate,47616e4a-696e-4672-9037-3020706c6174,rev?*%
%TF.SameCoordinates,Original*%
%TF.FileFunction,Profile,NP*%
%FSLAX46Y46*%
G04 Gerber Fmt 4.6, Leading zero omitted, Abs format (unit mm)*
G04 Created by KiCad (PCBNEW (6.0.1)) date 2022-01-30 19:11:49*
%MOMM*%
%LPD*%
G01*
G04 APERTURE LIST*
%TA.AperFunction,Profile*%
%ADD10C,0.200000*%
%TD*%
G04 APERTURE END LIST*
D10*
X245575000Y-204275000D02*
X277775000Y-204275000D01*
X149375000Y-204275000D02*
X181575000Y-204275000D01*
X51675000Y-204275000D02*
X85375000Y-204275000D01*
X277775000Y-108075000D02*
G75*
G03*
X279775000Y-106075000I1J1999999D01*
G01*
X281775000Y-104075000D02*
G75*
G03*
X279775000Y-106075000I-1J-1999999D01*
G01*
X319775000Y-106075000D02*
G75*
G03*
X317775000Y-104075000I-1999999J1D01*
G01*
X319775000Y-106075000D02*
G75*
G03*
X321775000Y-108075000I1999999J-1D01*
G01*
X337775000Y-208275000D02*
X281775000Y-208275000D01*
X279775000Y-206275000D02*
G75*
G03*
X281775000Y-208275000I1999999J-1D01*
G01*
X279775000Y-206275000D02*
G75*
G03*
X277775000Y-204275000I-1999999J1D01*
G01*
X341775000Y-204275000D02*
G75*
G03*
X339775000Y-206275000I-1J-1999999D01*
G01*
X337775000Y-208275000D02*
G75*
G03*
X339775000Y-206275000I1J1999999D01*
G01*
X145375000Y-208275000D02*
X89375000Y-208275000D01*
X87375000Y-206275000D02*
G75*
G03*
X89375000Y-208275000I1999999J-1D01*
G01*
X87375000Y-206275000D02*
G75*
G03*
X85375000Y-204275000I-1999999J1D01*
G01*
X149375000Y-204275000D02*
G75*
G03*
X147375000Y-206275000I-1J-1999999D01*
G01*
X145375000Y-208275000D02*
G75*
G03*
X147375000Y-206275000I1J1999999D01*
G01*
X241575000Y-208275000D02*
X185575000Y-208275000D01*
X183575000Y-206275000D02*
G75*
G03*
X185575000Y-208275000I1999999J-1D01*
G01*
X183575000Y-206275000D02*
G75*
G03*
X181575000Y-204275000I-1999999J1D01*
G01*
X245575000Y-204275000D02*
G75*
G03*
X243575000Y-206275000I-1J-1999999D01*
G01*
X241575000Y-208275000D02*
G75*
G03*
X243575000Y-206275000I1J1999999D01*
G01*
X185575000Y-104075000D02*
X241575000Y-104075000D01*
X243575000Y-106075000D02*
G75*
G03*
X241575000Y-104075000I-1999999J1D01*
G01*
X243575000Y-106075000D02*
G75*
G03*
X245575000Y-108075000I1999999J-1D01*
G01*
X181575000Y-108075000D02*
G75*
G03*
X183575000Y-106075000I1J1999999D01*
G01*
X185575000Y-104075000D02*
G75*
G03*
X183575000Y-106075000I-1J-1999999D01*
G01*
X281775000Y-104075000D02*
X317775000Y-104075000D01*
X89375000Y-104075000D02*
X145375000Y-104075000D01*
X147375000Y-106075000D02*
G75*
G03*
X145375000Y-104075000I-1999999J1D01*
G01*
X147375000Y-106075000D02*
G75*
G03*
X149375000Y-108075000I1999999J-1D01*
G01*
X85375000Y-108075000D02*
G75*
G03*
X87375000Y-106075000I1J1999999D01*
G01*
X89375000Y-104075000D02*
G75*
G03*
X87375000Y-106075000I-1J-1999999D01*
G01*
X326313000Y-125100000D02*
G75*
G03*
X325813000Y-124600000I-500001J-1D01*
G01*
X309937000Y-124600000D02*
G75*
G03*
X309437000Y-125100000I1J-500001D01*
G01*
X302793300Y-181750000D02*
G75*
G03*
X302293300Y-182250000I1J-500001D01*
G01*
X319169300Y-182250000D02*
G75*
G03*
X318669300Y-181750000I-500001J-1D01*
G01*
X207043300Y-186300000D02*
G75*
G03*
X207543300Y-186800000I500001J1D01*
G01*
X223419300Y-186800000D02*
G75*
G03*
X223919300Y-186300000I-1J500001D01*
G01*
X135643800Y-186300000D02*
G75*
G03*
X136143800Y-186800000I500001J1D01*
G01*
X151981800Y-186800000D02*
G75*
G03*
X152481800Y-186300000I-1J500001D01*
G01*
X329637500Y-130237000D02*
G75*
G03*
X330137500Y-130737000I500001J1D01*
G01*
X318018750Y-144150000D02*
G75*
G03*
X317518750Y-143650000I-500001J-1D01*
G01*
X317518800Y-148700000D02*
G75*
G03*
X318018800Y-148200000I-1J500001D01*
G01*
X331431750Y-161613000D02*
G75*
G03*
X330931750Y-162113000I1J-500001D01*
G01*
X323931750Y-163200000D02*
G75*
G03*
X323431750Y-162700000I-500001J-1D01*
G01*
X307555750Y-162700000D02*
G75*
G03*
X307055750Y-163200000I1J-500001D01*
G01*
X300055750Y-163200000D02*
G75*
G03*
X299555750Y-162700000I-500001J-1D01*
G01*
X88544250Y-181750000D02*
G75*
G03*
X88044250Y-182250000I1J-500001D01*
G01*
X81044250Y-182250000D02*
G75*
G03*
X80544250Y-181750000I-500001J-1D01*
G01*
X64668250Y-181750000D02*
G75*
G03*
X64168250Y-182250000I1J-500001D01*
G01*
X56668250Y-181750000D02*
X56581250Y-181750000D01*
X57168250Y-182250000D02*
G75*
G03*
X56668250Y-181750000I-500001J-1D01*
G01*
X51675000Y-108075000D02*
X85375000Y-108075000D01*
X51175000Y-203775000D02*
X51175000Y-108575000D01*
X375475000Y-204275000D02*
X341775000Y-204275000D01*
X375975000Y-146675000D02*
X375975000Y-203775000D01*
X321775000Y-108075000D02*
X336875000Y-108075000D01*
X245575000Y-108075000D02*
X277775000Y-108075000D01*
X149375000Y-108075000D02*
X181575000Y-108075000D01*
X337375000Y-108575000D02*
X337375000Y-145675000D01*
X375475000Y-146175000D02*
X337875000Y-146175000D01*
X337375000Y-145675000D02*
G75*
G03*
X337875000Y-146175000I500001J1D01*
G01*
X375975000Y-146675000D02*
G75*
G03*
X375475000Y-146175000I-500001J-1D01*
G01*
X337375000Y-108575000D02*
G75*
G03*
X336875000Y-108075000I-500001J-1D01*
G01*
X375475000Y-204275000D02*
G75*
G03*
X375975000Y-203775000I-1J500001D01*
G01*
X51675000Y-108075000D02*
G75*
G03*
X51175000Y-108575000I1J-500001D01*
G01*
X51175000Y-203775000D02*
G75*
G03*
X51675000Y-204275000I500001J1D01*
G01*
X235643750Y-200300000D02*
X235643750Y-186300000D01*
X200043250Y-186300000D02*
X200043250Y-200300000D01*
X159481750Y-200300000D02*
X159481750Y-186300000D01*
X128605750Y-186300000D02*
X128605750Y-200300000D01*
X323431750Y-162700000D02*
X307555750Y-162700000D01*
X297087500Y-148700000D02*
X317518800Y-148700000D01*
X235143750Y-185800000D02*
X224419250Y-185800000D01*
X188643750Y-200800000D02*
X170881250Y-200800000D01*
X170881250Y-186800000D02*
X188643750Y-186800000D01*
X80544250Y-181750000D02*
X64668250Y-181750000D01*
X56581250Y-167750000D02*
X91012500Y-167750000D01*
X74343750Y-162700000D02*
X56581250Y-162700000D01*
X56581250Y-148700000D02*
X74343750Y-148700000D01*
X358500000Y-187300000D02*
X358500000Y-200300000D01*
X372500000Y-200300000D02*
X372500000Y-187300000D01*
X372000000Y-186800000D02*
X359000000Y-186800000D01*
X359000000Y-200800000D02*
X372000000Y-200800000D01*
X359000000Y-186800000D02*
G75*
G03*
X358500000Y-187300000I1J-500001D01*
G01*
X372500000Y-187300000D02*
G75*
G03*
X372000000Y-186800000I-500001J-1D01*
G01*
X372000000Y-200800000D02*
G75*
G03*
X372500000Y-200300000I-1J500001D01*
G01*
X358500000Y-200300000D02*
G75*
G03*
X359000000Y-200800000I500001J1D01*
G01*
X339450000Y-187300000D02*
X339450000Y-200300000D01*
X353450000Y-200300000D02*
X353450000Y-187300000D01*
X352950000Y-186800000D02*
X339950000Y-186800000D01*
X339950000Y-200800000D02*
X352950000Y-200800000D01*
X339950000Y-186800000D02*
G75*
G03*
X339450000Y-187300000I1J-500001D01*
G01*
X353450000Y-187300000D02*
G75*
G03*
X352950000Y-186800000I-500001J-1D01*
G01*
X352950000Y-200800000D02*
G75*
G03*
X353450000Y-200300000I-1J500001D01*
G01*
X339450000Y-200300000D02*
G75*
G03*
X339950000Y-200800000I500001J1D01*
G01*
X320400000Y-187300000D02*
X320400000Y-200300000D01*
X334400000Y-200300000D02*
X334400000Y-187300000D01*
X333900000Y-186800000D02*
X320900000Y-186800000D01*
X320900000Y-200800000D02*
X333900000Y-200800000D01*
X320900000Y-186800000D02*
G75*
G03*
X320400000Y-187300000I1J-500001D01*
G01*
X334400000Y-187300000D02*
G75*
G03*
X333900000Y-186800000I-500001J-1D01*
G01*
X333900000Y-200800000D02*
G75*
G03*
X334400000Y-200300000I-1J500001D01*
G01*
X320400000Y-200300000D02*
G75*
G03*
X320900000Y-200800000I500001J1D01*
G01*
X301350000Y-187300000D02*
X301350000Y-200300000D01*
X315350000Y-200300000D02*
X315350000Y-187300000D01*
X314850000Y-186800000D02*
X301850000Y-186800000D01*
X301850000Y-200800000D02*
X314850000Y-200800000D01*
X301850000Y-186800000D02*
G75*
G03*
X301350000Y-187300000I1J-500001D01*
G01*
X315350000Y-187300000D02*
G75*
G03*
X314850000Y-186800000I-500001J-1D01*
G01*
X314850000Y-200800000D02*
G75*
G03*
X315350000Y-200300000I-1J500001D01*
G01*
X301350000Y-200300000D02*
G75*
G03*
X301850000Y-200800000I500001J1D01*
G01*
X282300000Y-187300000D02*
X282300000Y-200300000D01*
X296300000Y-200300000D02*
X296300000Y-187300000D01*
X295800000Y-186800000D02*
X282800000Y-186800000D01*
X282800000Y-200800000D02*
X295800000Y-200800000D01*
X282800000Y-186800000D02*
G75*
G03*
X282300000Y-187300000I1J-500001D01*
G01*
X296300000Y-187300000D02*
G75*
G03*
X295800000Y-186800000I-500001J-1D01*
G01*
X295800000Y-200800000D02*
G75*
G03*
X296300000Y-200300000I-1J500001D01*
G01*
X282300000Y-200300000D02*
G75*
G03*
X282800000Y-200800000I500001J1D01*
G01*
X263250000Y-187300000D02*
X263250000Y-200300000D01*
X277250000Y-200300000D02*
X277250000Y-187300000D01*
X276750000Y-186800000D02*
X263750000Y-186800000D01*
X263750000Y-200800000D02*
X276750000Y-200800000D01*
X263750000Y-186800000D02*
G75*
G03*
X263250000Y-187300000I1J-500001D01*
G01*
X277250000Y-187300000D02*
G75*
G03*
X276750000Y-186800000I-500001J-1D01*
G01*
X276750000Y-200800000D02*
G75*
G03*
X277250000Y-200300000I-1J500001D01*
G01*
X263250000Y-200300000D02*
G75*
G03*
X263750000Y-200800000I500001J1D01*
G01*
X244200000Y-187300000D02*
X244200000Y-200300000D01*
X258200000Y-200300000D02*
X258200000Y-187300000D01*
X257700000Y-186800000D02*
X244700000Y-186800000D01*
X244700000Y-200800000D02*
X257700000Y-200800000D01*
X244700000Y-186800000D02*
G75*
G03*
X244200000Y-187300000I1J-500001D01*
G01*
X258200000Y-187300000D02*
G75*
G03*
X257700000Y-186800000I-500001J-1D01*
G01*
X257700000Y-200800000D02*
G75*
G03*
X258200000Y-200300000I-1J500001D01*
G01*
X244200000Y-200300000D02*
G75*
G03*
X244700000Y-200800000I500001J1D01*
G01*
X224419250Y-185800000D02*
G75*
G03*
X223919250Y-186300000I1J-500001D01*
G01*
X206543250Y-185800000D02*
X200543250Y-185800000D01*
X200543250Y-185800000D02*
G75*
G03*
X200043250Y-186300000I1J-500001D01*
G01*
X207043250Y-186300000D02*
G75*
G03*
X206543250Y-185800000I-500001J-1D01*
G01*
X200043250Y-200300000D02*
G75*
G03*
X200543250Y-200800000I500001J1D01*
G01*
X223419300Y-186800000D02*
X207543300Y-186800000D01*
X200543250Y-200800000D02*
X235143750Y-200800000D01*
X170381250Y-187300000D02*
X170381250Y-200300000D01*
X170881250Y-186800000D02*
G75*
G03*
X170381250Y-187300000I1J-500001D01*
G01*
X170381250Y-200300000D02*
G75*
G03*
X170881250Y-200800000I500001J1D01*
G01*
X158981750Y-185800000D02*
X152981750Y-185800000D01*
X152981750Y-185800000D02*
G75*
G03*
X152481750Y-186300000I1J-500001D01*
G01*
X159481750Y-186300000D02*
G75*
G03*
X158981750Y-185800000I-500001J-1D01*
G01*
X158981750Y-200800000D02*
G75*
G03*
X159481750Y-200300000I-1J500001D01*
G01*
X129105750Y-185800000D02*
G75*
G03*
X128605750Y-186300000I1J-500001D01*
G01*
X128605750Y-200300000D02*
G75*
G03*
X129105750Y-200800000I500001J1D01*
G01*
X151981800Y-186800000D02*
X136143800Y-186800000D01*
X129105750Y-200800000D02*
X158981750Y-200800000D01*
X235643750Y-186300000D02*
G75*
G03*
X235143750Y-185800000I-500001J-1D01*
G01*
X235143750Y-200800000D02*
G75*
G03*
X235643750Y-200300000I-1J500001D01*
G01*
X135143750Y-185800000D02*
X129105750Y-185800000D01*
X135643750Y-186300000D02*
G75*
G03*
X135143750Y-185800000I-500001J-1D01*
G01*
X189143750Y-200300000D02*
X189143750Y-187300000D01*
X189143750Y-187300000D02*
G75*
G03*
X188643750Y-186800000I-500001J-1D01*
G01*
X188643750Y-200800000D02*
G75*
G03*
X189143750Y-200300000I-1J500001D01*
G01*
X103706250Y-187300000D02*
X103706250Y-200300000D01*
X117706250Y-200300000D02*
X117706250Y-187300000D01*
X117206250Y-186800000D02*
X104206250Y-186800000D01*
X104206250Y-200800000D02*
X117206250Y-200800000D01*
X104206250Y-186800000D02*
G75*
G03*
X103706250Y-187300000I1J-500001D01*
G01*
X117706250Y-187300000D02*
G75*
G03*
X117206250Y-186800000I-500001J-1D01*
G01*
X117206250Y-200800000D02*
G75*
G03*
X117706250Y-200300000I-1J500001D01*
G01*
X103706250Y-200300000D02*
G75*
G03*
X104206250Y-200800000I500001J1D01*
G01*
X79893750Y-187300000D02*
X79893750Y-200300000D01*
X93893750Y-200300000D02*
X93893750Y-187300000D01*
X93393750Y-186800000D02*
X80393750Y-186800000D01*
X80393750Y-200800000D02*
X93393750Y-200800000D01*
X80393750Y-186800000D02*
G75*
G03*
X79893750Y-187300000I1J-500001D01*
G01*
X93893750Y-187300000D02*
G75*
G03*
X93393750Y-186800000I-500001J-1D01*
G01*
X93393750Y-200800000D02*
G75*
G03*
X93893750Y-200300000I-1J500001D01*
G01*
X79893750Y-200300000D02*
G75*
G03*
X80393750Y-200800000I500001J1D01*
G01*
X56081250Y-187300000D02*
X56081250Y-200300000D01*
X70081250Y-200300000D02*
X70081250Y-187300000D01*
X69581250Y-186800000D02*
X56581250Y-186800000D01*
X56581250Y-200800000D02*
X69581250Y-200800000D01*
X56581250Y-186800000D02*
G75*
G03*
X56081250Y-187300000I1J-500001D01*
G01*
X70081250Y-187300000D02*
G75*
G03*
X69581250Y-186800000I-500001J-1D01*
G01*
X69581250Y-200800000D02*
G75*
G03*
X70081250Y-200300000I-1J500001D01*
G01*
X56081250Y-200300000D02*
G75*
G03*
X56581250Y-200800000I500001J1D01*
G01*
X358500000Y-168250000D02*
X358500000Y-181250000D01*
X372500000Y-181250000D02*
X372500000Y-168250000D01*
X372000000Y-167750000D02*
X359000000Y-167750000D01*
X359000000Y-181750000D02*
X372000000Y-181750000D01*
X359000000Y-167750000D02*
G75*
G03*
X358500000Y-168250000I1J-500001D01*
G01*
X372500000Y-168250000D02*
G75*
G03*
X372000000Y-167750000I-500001J-1D01*
G01*
X372000000Y-181750000D02*
G75*
G03*
X372500000Y-181250000I-1J500001D01*
G01*
X358500000Y-181250000D02*
G75*
G03*
X359000000Y-181750000I500001J1D01*
G01*
X339450000Y-168250000D02*
X339450000Y-181250000D01*
X353450000Y-181250000D02*
X353450000Y-168250000D01*
X352950000Y-167750000D02*
X339950000Y-167750000D01*
X339950000Y-181750000D02*
X352950000Y-181750000D01*
X339950000Y-167750000D02*
G75*
G03*
X339450000Y-168250000I1J-500001D01*
G01*
X353450000Y-168250000D02*
G75*
G03*
X352950000Y-167750000I-500001J-1D01*
G01*
X352950000Y-181750000D02*
G75*
G03*
X353450000Y-181250000I-1J500001D01*
G01*
X339450000Y-181250000D02*
G75*
G03*
X339950000Y-181750000I500001J1D01*
G01*
X326169250Y-182250000D02*
X326169250Y-168250000D01*
X319669250Y-182750000D02*
X325669250Y-182750000D01*
X326169250Y-168250000D02*
G75*
G03*
X325669250Y-167750000I-500001J-1D01*
G01*
X325669250Y-182750000D02*
G75*
G03*
X326169250Y-182250000I-1J500001D01*
G01*
X319169250Y-182250000D02*
G75*
G03*
X319669250Y-182750000I500001J1D01*
G01*
X295293250Y-168250000D02*
X295293250Y-182250000D01*
X295793250Y-182750000D02*
X301793250Y-182750000D01*
X295793250Y-167750000D02*
G75*
G03*
X295293250Y-168250000I1J-500001D01*
G01*
X301793250Y-182750000D02*
G75*
G03*
X302293250Y-182250000I-1J500001D01*
G01*
X295293250Y-182250000D02*
G75*
G03*
X295793250Y-182750000I500001J1D01*
G01*
X325669250Y-167750000D02*
X295793250Y-167750000D01*
X302793300Y-181750000D02*
X318669300Y-181750000D01*
X268012500Y-168250000D02*
X268012500Y-181250000D01*
X282012500Y-181250000D02*
X282012500Y-168250000D01*
X281512500Y-167750000D02*
X268512500Y-167750000D01*
X268512500Y-181750000D02*
X281512500Y-181750000D01*
X268512500Y-167750000D02*
G75*
G03*
X268012500Y-168250000I1J-500001D01*
G01*
X282012500Y-168250000D02*
G75*
G03*
X281512500Y-167750000I-500001J-1D01*
G01*
X281512500Y-181750000D02*
G75*
G03*
X282012500Y-181250000I-1J500001D01*
G01*
X268012500Y-181250000D02*
G75*
G03*
X268512500Y-181750000I500001J1D01*
G01*
X248962500Y-168250000D02*
X248962500Y-181250000D01*
X262962500Y-181250000D02*
X262962500Y-168250000D01*
X262462500Y-167750000D02*
X249462500Y-167750000D01*
X249462500Y-181750000D02*
X262462500Y-181750000D01*
X249462500Y-167750000D02*
G75*
G03*
X248962500Y-168250000I1J-500001D01*
G01*
X262962500Y-168250000D02*
G75*
G03*
X262462500Y-167750000I-500001J-1D01*
G01*
X262462500Y-181750000D02*
G75*
G03*
X262962500Y-181250000I-1J500001D01*
G01*
X248962500Y-181250000D02*
G75*
G03*
X249462500Y-181750000I500001J1D01*
G01*
X229912500Y-168250000D02*
X229912500Y-181250000D01*
X243912500Y-181250000D02*
X243912500Y-168250000D01*
X243412500Y-167750000D02*
X230412500Y-167750000D01*
X230412500Y-181750000D02*
X243412500Y-181750000D01*
X230412500Y-167750000D02*
G75*
G03*
X229912500Y-168250000I1J-500001D01*
G01*
X243912500Y-168250000D02*
G75*
G03*
X243412500Y-167750000I-500001J-1D01*
G01*
X243412500Y-181750000D02*
G75*
G03*
X243912500Y-181250000I-1J500001D01*
G01*
X229912500Y-181250000D02*
G75*
G03*
X230412500Y-181750000I500001J1D01*
G01*
X210862500Y-168250000D02*
X210862500Y-181250000D01*
X224862500Y-181250000D02*
X224862500Y-168250000D01*
X224362500Y-167750000D02*
X211362500Y-167750000D01*
X211362500Y-181750000D02*
X224362500Y-181750000D01*
X211362500Y-167750000D02*
G75*
G03*
X210862500Y-168250000I1J-500001D01*
G01*
X224862500Y-168250000D02*
G75*
G03*
X224362500Y-167750000I-500001J-1D01*
G01*
X224362500Y-181750000D02*
G75*
G03*
X224862500Y-181250000I-1J500001D01*
G01*
X210862500Y-181250000D02*
G75*
G03*
X211362500Y-181750000I500001J1D01*
G01*
X191812500Y-168250000D02*
X191812500Y-181250000D01*
X205812500Y-181250000D02*
X205812500Y-168250000D01*
X205312500Y-167750000D02*
X192312500Y-167750000D01*
X192312500Y-181750000D02*
X205312500Y-181750000D01*
X192312500Y-167750000D02*
G75*
G03*
X191812500Y-168250000I1J-500001D01*
G01*
X205812500Y-168250000D02*
G75*
G03*
X205312500Y-167750000I-500001J-1D01*
G01*
X205312500Y-181750000D02*
G75*
G03*
X205812500Y-181250000I-1J500001D01*
G01*
X191812500Y-181250000D02*
G75*
G03*
X192312500Y-181750000I500001J1D01*
G01*
X172762500Y-168250000D02*
X172762500Y-181250000D01*
X186762500Y-181250000D02*
X186762500Y-168250000D01*
X186262500Y-167750000D02*
X173262500Y-167750000D01*
X173262500Y-181750000D02*
X186262500Y-181750000D01*
X173262500Y-167750000D02*
G75*
G03*
X172762500Y-168250000I1J-500001D01*
G01*
X186762500Y-168250000D02*
G75*
G03*
X186262500Y-167750000I-500001J-1D01*
G01*
X186262500Y-181750000D02*
G75*
G03*
X186762500Y-181250000I-1J500001D01*
G01*
X172762500Y-181250000D02*
G75*
G03*
X173262500Y-181750000I500001J1D01*
G01*
X153712500Y-168250000D02*
X153712500Y-181250000D01*
X167712500Y-181250000D02*
X167712500Y-168250000D01*
X167212500Y-167750000D02*
X154212500Y-167750000D01*
X154212500Y-181750000D02*
X167212500Y-181750000D01*
X154212500Y-167750000D02*
G75*
G03*
X153712500Y-168250000I1J-500001D01*
G01*
X167712500Y-168250000D02*
G75*
G03*
X167212500Y-167750000I-500001J-1D01*
G01*
X167212500Y-181750000D02*
G75*
G03*
X167712500Y-181250000I-1J500001D01*
G01*
X153712500Y-181250000D02*
G75*
G03*
X154212500Y-181750000I500001J1D01*
G01*
X134662500Y-168250000D02*
X134662500Y-181250000D01*
X148662500Y-181250000D02*
X148662500Y-168250000D01*
X148162500Y-167750000D02*
X135162500Y-167750000D01*
X135162500Y-181750000D02*
X148162500Y-181750000D01*
X135162500Y-167750000D02*
G75*
G03*
X134662500Y-168250000I1J-500001D01*
G01*
X148662500Y-168250000D02*
G75*
G03*
X148162500Y-167750000I-500001J-1D01*
G01*
X148162500Y-181750000D02*
G75*
G03*
X148662500Y-181250000I-1J500001D01*
G01*
X134662500Y-181250000D02*
G75*
G03*
X135162500Y-181750000I500001J1D01*
G01*
X115612500Y-168250000D02*
X115612500Y-181250000D01*
X129612500Y-181250000D02*
X129612500Y-168250000D01*
X129112500Y-167750000D02*
X116112500Y-167750000D01*
X116112500Y-181750000D02*
X129112500Y-181750000D01*
X116112500Y-167750000D02*
G75*
G03*
X115612500Y-168250000I1J-500001D01*
G01*
X129612500Y-168250000D02*
G75*
G03*
X129112500Y-167750000I-500001J-1D01*
G01*
X129112500Y-181750000D02*
G75*
G03*
X129612500Y-181250000I-1J500001D01*
G01*
X115612500Y-181250000D02*
G75*
G03*
X116112500Y-181750000I500001J1D01*
G01*
X96562500Y-168250000D02*
X96562500Y-181250000D01*
X110562500Y-181250000D02*
X110562500Y-168250000D01*
X110062500Y-167750000D02*
X97062500Y-167750000D01*
X97062500Y-181750000D02*
X110062500Y-181750000D01*
X97062500Y-167750000D02*
G75*
G03*
X96562500Y-168250000I1J-500001D01*
G01*
X110562500Y-168250000D02*
G75*
G03*
X110062500Y-167750000I-500001J-1D01*
G01*
X110062500Y-181750000D02*
G75*
G03*
X110562500Y-181250000I-1J500001D01*
G01*
X96562500Y-181250000D02*
G75*
G03*
X97062500Y-181750000I500001J1D01*
G01*
X91512500Y-181250000D02*
X91512500Y-168250000D01*
X88544250Y-181750000D02*
X91012500Y-181750000D01*
X91512500Y-168250000D02*
G75*
G03*
X91012500Y-167750000I-500001J-1D01*
G01*
X91012500Y-181750000D02*
G75*
G03*
X91512500Y-181250000I-1J500001D01*
G01*
X56081250Y-168250000D02*
X56081250Y-181250000D01*
X56581250Y-167750000D02*
G75*
G03*
X56081250Y-168250000I1J-500001D01*
G01*
X56081250Y-181250000D02*
G75*
G03*
X56581250Y-181750000I500001J1D01*
G01*
X81544250Y-182750000D02*
X87544250Y-182750000D01*
X87544250Y-182750000D02*
G75*
G03*
X88044250Y-182250000I-1J500001D01*
G01*
X81044250Y-182250000D02*
G75*
G03*
X81544250Y-182750000I500001J1D01*
G01*
X57668250Y-182750000D02*
X63668250Y-182750000D01*
X63668250Y-182750000D02*
G75*
G03*
X64168250Y-182250000I-1J500001D01*
G01*
X57168250Y-182250000D02*
G75*
G03*
X57668250Y-182750000I500001J1D01*
G01*
X358500000Y-149200000D02*
X358500000Y-162200000D01*
X372500000Y-162200000D02*
X372500000Y-149200000D01*
X372000000Y-148700000D02*
X359000000Y-148700000D01*
X359000000Y-162700000D02*
X372000000Y-162700000D01*
X359000000Y-148700000D02*
G75*
G03*
X358500000Y-149200000I1J-500001D01*
G01*
X372500000Y-149200000D02*
G75*
G03*
X372000000Y-148700000I-500001J-1D01*
G01*
X372000000Y-162700000D02*
G75*
G03*
X372500000Y-162200000I-1J500001D01*
G01*
X358500000Y-162200000D02*
G75*
G03*
X359000000Y-162700000I500001J1D01*
G01*
X339450000Y-149200000D02*
X339450000Y-162200000D01*
X353450000Y-162200000D02*
X353450000Y-149200000D01*
X352950000Y-148700000D02*
X339950000Y-148700000D01*
X339950000Y-162700000D02*
X352950000Y-162700000D01*
X339950000Y-148700000D02*
G75*
G03*
X339450000Y-149200000I1J-500001D01*
G01*
X353450000Y-149200000D02*
G75*
G03*
X352950000Y-148700000I-500001J-1D01*
G01*
X352950000Y-162700000D02*
G75*
G03*
X353450000Y-162200000I-1J500001D01*
G01*
X339450000Y-162200000D02*
G75*
G03*
X339950000Y-162700000I500001J1D01*
G01*
X296587500Y-149200000D02*
X296587500Y-162200000D01*
X297087500Y-162700000D02*
X299555750Y-162700000D01*
X297087500Y-148700000D02*
G75*
G03*
X296587500Y-149200000I1J-500001D01*
G01*
X296587500Y-162200000D02*
G75*
G03*
X297087500Y-162700000I500001J1D01*
G01*
X330931750Y-163200000D02*
X330931750Y-162113000D01*
X324431750Y-163700000D02*
X330431750Y-163700000D01*
X330431750Y-163700000D02*
G75*
G03*
X330931750Y-163200000I-1J500001D01*
G01*
X323931750Y-163200000D02*
G75*
G03*
X324431750Y-163700000I500001J1D01*
G01*
X300555750Y-163700000D02*
X306555750Y-163700000D01*
X306555750Y-163700000D02*
G75*
G03*
X307055750Y-163200000I-1J500001D01*
G01*
X300055750Y-163200000D02*
G75*
G03*
X300555750Y-163700000I500001J1D01*
G01*
X277537500Y-149200000D02*
X277537500Y-162200000D01*
X291537500Y-162200000D02*
X291537500Y-149200000D01*
X291037500Y-148700000D02*
X278037500Y-148700000D01*
X278037500Y-162700000D02*
X291037500Y-162700000D01*
X278037500Y-148700000D02*
G75*
G03*
X277537500Y-149200000I1J-500001D01*
G01*
X291537500Y-149200000D02*
G75*
G03*
X291037500Y-148700000I-500001J-1D01*
G01*
X291037500Y-162700000D02*
G75*
G03*
X291537500Y-162200000I-1J500001D01*
G01*
X277537500Y-162200000D02*
G75*
G03*
X278037500Y-162700000I500001J1D01*
G01*
X258487500Y-149200000D02*
X258487500Y-162200000D01*
X272487500Y-162200000D02*
X272487500Y-149200000D01*
X271987500Y-148700000D02*
X258987500Y-148700000D01*
X258987500Y-162700000D02*
X271987500Y-162700000D01*
X258987500Y-148700000D02*
G75*
G03*
X258487500Y-149200000I1J-500001D01*
G01*
X272487500Y-149200000D02*
G75*
G03*
X271987500Y-148700000I-500001J-1D01*
G01*
X271987500Y-162700000D02*
G75*
G03*
X272487500Y-162200000I-1J500001D01*
G01*
X258487500Y-162200000D02*
G75*
G03*
X258987500Y-162700000I500001J1D01*
G01*
X239437500Y-149200000D02*
X239437500Y-162200000D01*
X253437500Y-162200000D02*
X253437500Y-149200000D01*
X252937500Y-148700000D02*
X239937500Y-148700000D01*
X239937500Y-162700000D02*
X252937500Y-162700000D01*
X239937500Y-148700000D02*
G75*
G03*
X239437500Y-149200000I1J-500001D01*
G01*
X253437500Y-149200000D02*
G75*
G03*
X252937500Y-148700000I-500001J-1D01*
G01*
X252937500Y-162700000D02*
G75*
G03*
X253437500Y-162200000I-1J500001D01*
G01*
X239437500Y-162200000D02*
G75*
G03*
X239937500Y-162700000I500001J1D01*
G01*
X220387500Y-149200000D02*
X220387500Y-162200000D01*
X234387500Y-162200000D02*
X234387500Y-149200000D01*
X233887500Y-148700000D02*
X220887500Y-148700000D01*
X220887500Y-162700000D02*
X233887500Y-162700000D01*
X220887500Y-148700000D02*
G75*
G03*
X220387500Y-149200000I1J-500001D01*
G01*
X234387500Y-149200000D02*
G75*
G03*
X233887500Y-148700000I-500001J-1D01*
G01*
X233887500Y-162700000D02*
G75*
G03*
X234387500Y-162200000I-1J500001D01*
G01*
X220387500Y-162200000D02*
G75*
G03*
X220887500Y-162700000I500001J1D01*
G01*
X201337500Y-149200000D02*
X201337500Y-162200000D01*
X215337500Y-162200000D02*
X215337500Y-149200000D01*
X214837500Y-148700000D02*
X201837500Y-148700000D01*
X201837500Y-162700000D02*
X214837500Y-162700000D01*
X201837500Y-148700000D02*
G75*
G03*
X201337500Y-149200000I1J-500001D01*
G01*
X215337500Y-149200000D02*
G75*
G03*
X214837500Y-148700000I-500001J-1D01*
G01*
X214837500Y-162700000D02*
G75*
G03*
X215337500Y-162200000I-1J500001D01*
G01*
X201337500Y-162200000D02*
G75*
G03*
X201837500Y-162700000I500001J1D01*
G01*
X182287500Y-149200000D02*
X182287500Y-162200000D01*
X196287500Y-162200000D02*
X196287500Y-149200000D01*
X195787500Y-148700000D02*
X182787500Y-148700000D01*
X182787500Y-162700000D02*
X195787500Y-162700000D01*
X182787500Y-148700000D02*
G75*
G03*
X182287500Y-149200000I1J-500001D01*
G01*
X196287500Y-149200000D02*
G75*
G03*
X195787500Y-148700000I-500001J-1D01*
G01*
X195787500Y-162700000D02*
G75*
G03*
X196287500Y-162200000I-1J500001D01*
G01*
X182287500Y-162200000D02*
G75*
G03*
X182787500Y-162700000I500001J1D01*
G01*
X163237500Y-149200000D02*
X163237500Y-162200000D01*
X177237500Y-162200000D02*
X177237500Y-149200000D01*
X176737500Y-148700000D02*
X163737500Y-148700000D01*
X163737500Y-162700000D02*
X176737500Y-162700000D01*
X163737500Y-148700000D02*
G75*
G03*
X163237500Y-149200000I1J-500001D01*
G01*
X177237500Y-149200000D02*
G75*
G03*
X176737500Y-148700000I-500001J-1D01*
G01*
X176737500Y-162700000D02*
G75*
G03*
X177237500Y-162200000I-1J500001D01*
G01*
X163237500Y-162200000D02*
G75*
G03*
X163737500Y-162700000I500001J1D01*
G01*
X144187500Y-149200000D02*
X144187500Y-162200000D01*
X158187500Y-162200000D02*
X158187500Y-149200000D01*
X157687500Y-148700000D02*
X144687500Y-148700000D01*
X144687500Y-162700000D02*
X157687500Y-162700000D01*
X144687500Y-148700000D02*
G75*
G03*
X144187500Y-149200000I1J-500001D01*
G01*
X158187500Y-149200000D02*
G75*
G03*
X157687500Y-148700000I-500001J-1D01*
G01*
X157687500Y-162700000D02*
G75*
G03*
X158187500Y-162200000I-1J500001D01*
G01*
X144187500Y-162200000D02*
G75*
G03*
X144687500Y-162700000I500001J1D01*
G01*
X125137500Y-149200000D02*
X125137500Y-162200000D01*
X139137500Y-162200000D02*
X139137500Y-149200000D01*
X138637500Y-148700000D02*
X125637500Y-148700000D01*
X125637500Y-162700000D02*
X138637500Y-162700000D01*
X125637500Y-148700000D02*
G75*
G03*
X125137500Y-149200000I1J-500001D01*
G01*
X139137500Y-149200000D02*
G75*
G03*
X138637500Y-148700000I-500001J-1D01*
G01*
X138637500Y-162700000D02*
G75*
G03*
X139137500Y-162200000I-1J500001D01*
G01*
X125137500Y-162200000D02*
G75*
G03*
X125637500Y-162700000I500001J1D01*
G01*
X106087500Y-149200000D02*
X106087500Y-162200000D01*
X120087500Y-162200000D02*
X120087500Y-149200000D01*
X119587500Y-148700000D02*
X106587500Y-148700000D01*
X106587500Y-162700000D02*
X119587500Y-162700000D01*
X106587500Y-148700000D02*
G75*
G03*
X106087500Y-149200000I1J-500001D01*
G01*
X120087500Y-149200000D02*
G75*
G03*
X119587500Y-148700000I-500001J-1D01*
G01*
X119587500Y-162700000D02*
G75*
G03*
X120087500Y-162200000I-1J500001D01*
G01*
X106087500Y-162200000D02*
G75*
G03*
X106587500Y-162700000I500001J1D01*
G01*
X87037500Y-149200000D02*
X87037500Y-162200000D01*
X101037500Y-162200000D02*
X101037500Y-149200000D01*
X100537500Y-148700000D02*
X87537500Y-148700000D01*
X87537500Y-162700000D02*
X100537500Y-162700000D01*
X87537500Y-148700000D02*
G75*
G03*
X87037500Y-149200000I1J-500001D01*
G01*
X101037500Y-149200000D02*
G75*
G03*
X100537500Y-148700000I-500001J-1D01*
G01*
X100537500Y-162700000D02*
G75*
G03*
X101037500Y-162200000I-1J500001D01*
G01*
X87037500Y-162200000D02*
G75*
G03*
X87537500Y-162700000I500001J1D01*
G01*
X56081250Y-149200000D02*
X56081250Y-162200000D01*
X56581250Y-148700000D02*
G75*
G03*
X56081250Y-149200000I1J-500001D01*
G01*
X56081250Y-162200000D02*
G75*
G03*
X56581250Y-162700000I500001J1D01*
G01*
X74843750Y-162200000D02*
X74843750Y-149200000D01*
X74843750Y-149200000D02*
G75*
G03*
X74343750Y-148700000I-500001J-1D01*
G01*
X74343750Y-162700000D02*
G75*
G03*
X74843750Y-162200000I-1J500001D01*
G01*
X331431750Y-161613000D02*
X331518750Y-161613000D01*
X331518750Y-161613000D02*
G75*
G03*
X332018750Y-161113000I-1J500001D01*
G01*
X331518750Y-130737000D02*
X330137500Y-130737000D01*
X332018750Y-131237000D02*
G75*
G03*
X331518750Y-130737000I-500001J-1D01*
G01*
X318018750Y-144150000D02*
X318018800Y-148200000D01*
X332018750Y-161113000D02*
X332018750Y-131237000D01*
X315637500Y-130150000D02*
X315637500Y-143150000D01*
X329637500Y-130237000D02*
X329637500Y-130150000D01*
X329137500Y-129650000D02*
X316137500Y-129650000D01*
X316137500Y-143650000D02*
X317518750Y-143650000D01*
X316137500Y-129650000D02*
G75*
G03*
X315637500Y-130150000I1J-500001D01*
G01*
X329637500Y-130150000D02*
G75*
G03*
X329137500Y-129650000I-500001J-1D01*
G01*
X315637500Y-143150000D02*
G75*
G03*
X316137500Y-143650000I500001J1D01*
G01*
X291825000Y-130150000D02*
X291825000Y-143150000D01*
X305825000Y-143150000D02*
X305825000Y-130150000D01*
X305325000Y-129650000D02*
X292325000Y-129650000D01*
X292325000Y-143650000D02*
X305325000Y-143650000D01*
X292325000Y-129650000D02*
G75*
G03*
X291825000Y-130150000I1J-500001D01*
G01*
X305825000Y-130150000D02*
G75*
G03*
X305325000Y-129650000I-500001J-1D01*
G01*
X305325000Y-143650000D02*
G75*
G03*
X305825000Y-143150000I-1J500001D01*
G01*
X291825000Y-143150000D02*
G75*
G03*
X292325000Y-143650000I500001J1D01*
G01*
X272775000Y-130150000D02*
X272775000Y-143150000D01*
X286775000Y-143150000D02*
X286775000Y-130150000D01*
X286275000Y-129650000D02*
X273275000Y-129650000D01*
X273275000Y-143650000D02*
X286275000Y-143650000D01*
X273275000Y-129650000D02*
G75*
G03*
X272775000Y-130150000I1J-500001D01*
G01*
X286775000Y-130150000D02*
G75*
G03*
X286275000Y-129650000I-500001J-1D01*
G01*
X286275000Y-143650000D02*
G75*
G03*
X286775000Y-143150000I-1J500001D01*
G01*
X272775000Y-143150000D02*
G75*
G03*
X273275000Y-143650000I500001J1D01*
G01*
X253725000Y-130150000D02*
X253725000Y-143150000D01*
X267725000Y-143150000D02*
X267725000Y-130150000D01*
X267225000Y-129650000D02*
X254225000Y-129650000D01*
X254225000Y-143650000D02*
X267225000Y-143650000D01*
X254225000Y-129650000D02*
G75*
G03*
X253725000Y-130150000I1J-500001D01*
G01*
X267725000Y-130150000D02*
G75*
G03*
X267225000Y-129650000I-500001J-1D01*
G01*
X267225000Y-143650000D02*
G75*
G03*
X267725000Y-143150000I-1J500001D01*
G01*
X253725000Y-143150000D02*
G75*
G03*
X254225000Y-143650000I500001J1D01*
G01*
X234675000Y-130150000D02*
X234675000Y-143150000D01*
X248675000Y-143150000D02*
X248675000Y-130150000D01*
X248175000Y-129650000D02*
X235175000Y-129650000D01*
X235175000Y-143650000D02*
X248175000Y-143650000D01*
X235175000Y-129650000D02*
G75*
G03*
X234675000Y-130150000I1J-500001D01*
G01*
X248675000Y-130150000D02*
G75*
G03*
X248175000Y-129650000I-500001J-1D01*
G01*
X248175000Y-143650000D02*
G75*
G03*
X248675000Y-143150000I-1J500001D01*
G01*
X234675000Y-143150000D02*
G75*
G03*
X235175000Y-143650000I500001J1D01*
G01*
X215625000Y-130150000D02*
X215625000Y-143150000D01*
X229625000Y-143150000D02*
X229625000Y-130150000D01*
X229125000Y-129650000D02*
X216125000Y-129650000D01*
X216125000Y-143650000D02*
X229125000Y-143650000D01*
X216125000Y-129650000D02*
G75*
G03*
X215625000Y-130150000I1J-500001D01*
G01*
X229625000Y-130150000D02*
G75*
G03*
X229125000Y-129650000I-500001J-1D01*
G01*
X229125000Y-143650000D02*
G75*
G03*
X229625000Y-143150000I-1J500001D01*
G01*
X215625000Y-143150000D02*
G75*
G03*
X216125000Y-143650000I500001J1D01*
G01*
X196575000Y-130150000D02*
X196575000Y-143150000D01*
X210575000Y-143150000D02*
X210575000Y-130150000D01*
X210075000Y-129650000D02*
X197075000Y-129650000D01*
X197075000Y-143650000D02*
X210075000Y-143650000D01*
X197075000Y-129650000D02*
G75*
G03*
X196575000Y-130150000I1J-500001D01*
G01*
X210575000Y-130150000D02*
G75*
G03*
X210075000Y-129650000I-500001J-1D01*
G01*
X210075000Y-143650000D02*
G75*
G03*
X210575000Y-143150000I-1J500001D01*
G01*
X196575000Y-143150000D02*
G75*
G03*
X197075000Y-143650000I500001J1D01*
G01*
X177525000Y-130150000D02*
X177525000Y-143150000D01*
X191525000Y-143150000D02*
X191525000Y-130150000D01*
X191025000Y-129650000D02*
X178025000Y-129650000D01*
X178025000Y-143650000D02*
X191025000Y-143650000D01*
X178025000Y-129650000D02*
G75*
G03*
X177525000Y-130150000I1J-500001D01*
G01*
X191525000Y-130150000D02*
G75*
G03*
X191025000Y-129650000I-500001J-1D01*
G01*
X191025000Y-143650000D02*
G75*
G03*
X191525000Y-143150000I-1J500001D01*
G01*
X177525000Y-143150000D02*
G75*
G03*
X178025000Y-143650000I500001J1D01*
G01*
X158475000Y-130150000D02*
X158475000Y-143150000D01*
X172475000Y-143150000D02*
X172475000Y-130150000D01*
X171975000Y-129650000D02*
X158975000Y-129650000D01*
X158975000Y-143650000D02*
X171975000Y-143650000D01*
X158975000Y-129650000D02*
G75*
G03*
X158475000Y-130150000I1J-500001D01*
G01*
X172475000Y-130150000D02*
G75*
G03*
X171975000Y-129650000I-500001J-1D01*
G01*
X171975000Y-143650000D02*
G75*
G03*
X172475000Y-143150000I-1J500001D01*
G01*
X158475000Y-143150000D02*
G75*
G03*
X158975000Y-143650000I500001J1D01*
G01*
X139425000Y-130150000D02*
X139425000Y-143150000D01*
X153425000Y-143150000D02*
X153425000Y-130150000D01*
X152925000Y-129650000D02*
X139925000Y-129650000D01*
X139925000Y-143650000D02*
X152925000Y-143650000D01*
X139925000Y-129650000D02*
G75*
G03*
X139425000Y-130150000I1J-500001D01*
G01*
X153425000Y-130150000D02*
G75*
G03*
X152925000Y-129650000I-500001J-1D01*
G01*
X152925000Y-143650000D02*
G75*
G03*
X153425000Y-143150000I-1J500001D01*
G01*
X139425000Y-143150000D02*
G75*
G03*
X139925000Y-143650000I500001J1D01*
G01*
X120375000Y-130150000D02*
X120375000Y-143150000D01*
X134375000Y-143150000D02*
X134375000Y-130150000D01*
X133875000Y-129650000D02*
X120875000Y-129650000D01*
X120875000Y-143650000D02*
X133875000Y-143650000D01*
X120875000Y-129650000D02*
G75*
G03*
X120375000Y-130150000I1J-500001D01*
G01*
X134375000Y-130150000D02*
G75*
G03*
X133875000Y-129650000I-500001J-1D01*
G01*
X133875000Y-143650000D02*
G75*
G03*
X134375000Y-143150000I-1J500001D01*
G01*
X120375000Y-143150000D02*
G75*
G03*
X120875000Y-143650000I500001J1D01*
G01*
X101325000Y-130150000D02*
X101325000Y-143150000D01*
X115325000Y-143150000D02*
X115325000Y-130150000D01*
X114825000Y-129650000D02*
X101825000Y-129650000D01*
X101825000Y-143650000D02*
X114825000Y-143650000D01*
X101825000Y-129650000D02*
G75*
G03*
X101325000Y-130150000I1J-500001D01*
G01*
X115325000Y-130150000D02*
G75*
G03*
X114825000Y-129650000I-500001J-1D01*
G01*
X114825000Y-143650000D02*
G75*
G03*
X115325000Y-143150000I-1J500001D01*
G01*
X101325000Y-143150000D02*
G75*
G03*
X101825000Y-143650000I500001J1D01*
G01*
X82275000Y-130150000D02*
X82275000Y-143150000D01*
X96275000Y-143150000D02*
X96275000Y-130150000D01*
X95775000Y-129650000D02*
X82775000Y-129650000D01*
X82775000Y-143650000D02*
X95775000Y-143650000D01*
X82775000Y-129650000D02*
G75*
G03*
X82275000Y-130150000I1J-500001D01*
G01*
X96275000Y-130150000D02*
G75*
G03*
X95775000Y-129650000I-500001J-1D01*
G01*
X95775000Y-143650000D02*
G75*
G03*
X96275000Y-143150000I-1J500001D01*
G01*
X82275000Y-143150000D02*
G75*
G03*
X82775000Y-143650000I500001J1D01*
G01*
X58462500Y-130150000D02*
X58462500Y-143150000D01*
X72462500Y-143150000D02*
X72462500Y-130150000D01*
X71962500Y-129650000D02*
X58962500Y-129650000D01*
X58962500Y-143650000D02*
X71962500Y-143650000D01*
X58962500Y-129650000D02*
G75*
G03*
X58462500Y-130150000I1J-500001D01*
G01*
X72462500Y-130150000D02*
G75*
G03*
X71962500Y-129650000I-500001J-1D01*
G01*
X71962500Y-143650000D02*
G75*
G03*
X72462500Y-143150000I-1J500001D01*
G01*
X58462500Y-143150000D02*
G75*
G03*
X58962500Y-143650000I500001J1D01*
G01*
X333313000Y-125100000D02*
X333313000Y-111100000D01*
X326813000Y-125600000D02*
X332813000Y-125600000D01*
X333313000Y-111100000D02*
G75*
G03*
X332813000Y-110600000I-500001J-1D01*
G01*
X332813000Y-125600000D02*
G75*
G03*
X333313000Y-125100000I-1J500001D01*
G01*
X326313000Y-125100000D02*
G75*
G03*
X326813000Y-125600000I500001J1D01*
G01*
X302437000Y-111100000D02*
X302437000Y-125100000D01*
X302937000Y-125600000D02*
X308937000Y-125600000D01*
X302937000Y-110600000D02*
G75*
G03*
X302437000Y-111100000I1J-500001D01*
G01*
X308937000Y-125600000D02*
G75*
G03*
X309437000Y-125100000I-1J500001D01*
G01*
X302437000Y-125100000D02*
G75*
G03*
X302937000Y-125600000I500001J1D01*
G01*
X332813000Y-110600000D02*
X302937000Y-110600000D01*
X309937000Y-124600000D02*
X325813000Y-124600000D01*
X282300000Y-111100000D02*
X282300000Y-124100000D01*
X296300000Y-124100000D02*
X296300000Y-111100000D01*
X295800000Y-110600000D02*
X282800000Y-110600000D01*
X282800000Y-124600000D02*
X295800000Y-124600000D01*
X282800000Y-110600000D02*
G75*
G03*
X282300000Y-111100000I1J-500001D01*
G01*
X296300000Y-111100000D02*
G75*
G03*
X295800000Y-110600000I-500001J-1D01*
G01*
X295800000Y-124600000D02*
G75*
G03*
X296300000Y-124100000I-1J500001D01*
G01*
X282300000Y-124100000D02*
G75*
G03*
X282800000Y-124600000I500001J1D01*
G01*
X263250000Y-111100000D02*
X263250000Y-124100000D01*
X277250000Y-124100000D02*
X277250000Y-111100000D01*
X276750000Y-110600000D02*
X263750000Y-110600000D01*
X263750000Y-124600000D02*
X276750000Y-124600000D01*
X263750000Y-110600000D02*
G75*
G03*
X263250000Y-111100000I1J-500001D01*
G01*
X277250000Y-111100000D02*
G75*
G03*
X276750000Y-110600000I-500001J-1D01*
G01*
X276750000Y-124600000D02*
G75*
G03*
X277250000Y-124100000I-1J500001D01*
G01*
X263250000Y-124100000D02*
G75*
G03*
X263750000Y-124600000I500001J1D01*
G01*
X244200000Y-111100000D02*
X244200000Y-124100000D01*
X258200000Y-124100000D02*
X258200000Y-111100000D01*
X257700000Y-110600000D02*
X244700000Y-110600000D01*
X244700000Y-124600000D02*
X257700000Y-124600000D01*
X244700000Y-110600000D02*
G75*
G03*
X244200000Y-111100000I1J-500001D01*
G01*
X258200000Y-111100000D02*
G75*
G03*
X257700000Y-110600000I-500001J-1D01*
G01*
X257700000Y-124600000D02*
G75*
G03*
X258200000Y-124100000I-1J500001D01*
G01*
X244200000Y-124100000D02*
G75*
G03*
X244700000Y-124600000I500001J1D01*
G01*
X225150000Y-111100000D02*
X225150000Y-124100000D01*
X239150000Y-124100000D02*
X239150000Y-111100000D01*
X238650000Y-110600000D02*
X225650000Y-110600000D01*
X225650000Y-124600000D02*
X238650000Y-124600000D01*
X225650000Y-110600000D02*
G75*
G03*
X225150000Y-111100000I1J-500001D01*
G01*
X239150000Y-111100000D02*
G75*
G03*
X238650000Y-110600000I-500001J-1D01*
G01*
X238650000Y-124600000D02*
G75*
G03*
X239150000Y-124100000I-1J500001D01*
G01*
X225150000Y-124100000D02*
G75*
G03*
X225650000Y-124600000I500001J1D01*
G01*
X206100000Y-111100000D02*
X206100000Y-124100000D01*
X220100000Y-124100000D02*
X220100000Y-111100000D01*
X219600000Y-110600000D02*
X206600000Y-110600000D01*
X206600000Y-124600000D02*
X219600000Y-124600000D01*
X206600000Y-110600000D02*
G75*
G03*
X206100000Y-111100000I1J-500001D01*
G01*
X220100000Y-111100000D02*
G75*
G03*
X219600000Y-110600000I-500001J-1D01*
G01*
X219600000Y-124600000D02*
G75*
G03*
X220100000Y-124100000I-1J500001D01*
G01*
X206100000Y-124100000D02*
G75*
G03*
X206600000Y-124600000I500001J1D01*
G01*
X187050000Y-111100000D02*
X187050000Y-124100000D01*
X201050000Y-124100000D02*
X201050000Y-111100000D01*
X200550000Y-110600000D02*
X187550000Y-110600000D01*
X187550000Y-124600000D02*
X200550000Y-124600000D01*
X187550000Y-110600000D02*
G75*
G03*
X187050000Y-111100000I1J-500001D01*
G01*
X201050000Y-111100000D02*
G75*
G03*
X200550000Y-110600000I-500001J-1D01*
G01*
X200550000Y-124600000D02*
G75*
G03*
X201050000Y-124100000I-1J500001D01*
G01*
X187050000Y-124100000D02*
G75*
G03*
X187550000Y-124600000I500001J1D01*
G01*
X168000000Y-111100000D02*
X168000000Y-124100000D01*
X182000000Y-124100000D02*
X182000000Y-111100000D01*
X181500000Y-110600000D02*
X168500000Y-110600000D01*
X168500000Y-124600000D02*
X181500000Y-124600000D01*
X168500000Y-110600000D02*
G75*
G03*
X168000000Y-111100000I1J-500001D01*
G01*
X182000000Y-111100000D02*
G75*
G03*
X181500000Y-110600000I-500001J-1D01*
G01*
X181500000Y-124600000D02*
G75*
G03*
X182000000Y-124100000I-1J500001D01*
G01*
X168000000Y-124100000D02*
G75*
G03*
X168500000Y-124600000I500001J1D01*
G01*
X148950000Y-111100000D02*
X148950000Y-124100000D01*
X162950000Y-124100000D02*
X162950000Y-111100000D01*
X162450000Y-110600000D02*
X149450000Y-110600000D01*
X149450000Y-124600000D02*
X162450000Y-124600000D01*
X149450000Y-110600000D02*
G75*
G03*
X148950000Y-111100000I1J-500001D01*
G01*
X162950000Y-111100000D02*
G75*
G03*
X162450000Y-110600000I-500001J-1D01*
G01*
X162450000Y-124600000D02*
G75*
G03*
X162950000Y-124100000I-1J500001D01*
G01*
X148950000Y-124100000D02*
G75*
G03*
X149450000Y-124600000I500001J1D01*
G01*
X129900000Y-111100000D02*
X129900000Y-124100000D01*
X143900000Y-124100000D02*
X143900000Y-111100000D01*
X143400000Y-110600000D02*
X130400000Y-110600000D01*
X130400000Y-124600000D02*
X143400000Y-124600000D01*
X130400000Y-110600000D02*
G75*
G03*
X129900000Y-111100000I1J-500001D01*
G01*
X143900000Y-111100000D02*
G75*
G03*
X143400000Y-110600000I-500001J-1D01*
G01*
X143400000Y-124600000D02*
G75*
G03*
X143900000Y-124100000I-1J500001D01*
G01*
X129900000Y-124100000D02*
G75*
G03*
X130400000Y-124600000I500001J1D01*
G01*
X110850000Y-111100000D02*
X110850000Y-124100000D01*
X124850000Y-124100000D02*
X124850000Y-111100000D01*
X124350000Y-110600000D02*
X111350000Y-110600000D01*
X111350000Y-124600000D02*
X124350000Y-124600000D01*
X111350000Y-110600000D02*
G75*
G03*
X110850000Y-111100000I1J-500001D01*
G01*
X124850000Y-111100000D02*
G75*
G03*
X124350000Y-110600000I-500001J-1D01*
G01*
X124350000Y-124600000D02*
G75*
G03*
X124850000Y-124100000I-1J500001D01*
G01*
X110850000Y-124100000D02*
G75*
G03*
X111350000Y-124600000I500001J1D01*
G01*
X91800000Y-111100000D02*
X91800000Y-124100000D01*
X105800000Y-124100000D02*
X105800000Y-111100000D01*
X105300000Y-110600000D02*
X92300000Y-110600000D01*
X92300000Y-124600000D02*
X105300000Y-124600000D01*
X92300000Y-110600000D02*
G75*
G03*
X91800000Y-111100000I1J-500001D01*
G01*
X105800000Y-111100000D02*
G75*
G03*
X105300000Y-110600000I-500001J-1D01*
G01*
X105300000Y-124600000D02*
G75*
G03*
X105800000Y-124100000I-1J500001D01*
G01*
X91800000Y-124100000D02*
G75*
G03*
X92300000Y-124600000I500001J1D01*
G01*
X72750000Y-111100000D02*
X72750000Y-124100000D01*
X86750000Y-124100000D02*
X86750000Y-111100000D01*
X86250000Y-110600000D02*
X73250000Y-110600000D01*
X73250000Y-124600000D02*
X86250000Y-124600000D01*
X73250000Y-110600000D02*
G75*
G03*
X72750000Y-111100000I1J-500001D01*
G01*
X86750000Y-111100000D02*
G75*
G03*
X86250000Y-110600000I-500001J-1D01*
G01*
X86250000Y-124600000D02*
G75*
G03*
X86750000Y-124100000I-1J500001D01*
G01*
X72750000Y-124100000D02*
G75*
G03*
X73250000Y-124600000I500001J1D01*
G01*
X53700000Y-111100000D02*
X53700000Y-124100000D01*
X67700000Y-124100000D02*
X67700000Y-111100000D01*
X67200000Y-110600000D02*
X54200000Y-110600000D01*
X54200000Y-124600000D02*
X67200000Y-124600000D01*
X54200000Y-110600000D02*
G75*
G03*
X53700000Y-111100000I1J-500001D01*
G01*
X67700000Y-111100000D02*
G75*
G03*
X67200000Y-110600000I-500001J-1D01*
G01*
X67200000Y-124600000D02*
G75*
G03*
X67700000Y-124100000I-1J500001D01*
G01*
X53700000Y-124100000D02*
G75*
G03*
X54200000Y-124600000I500001J1D01*
G01*
M02*
