%TF.GenerationSoftware,KiCad,Pcbnew,(5.1.12)-1*%
%TF.CreationDate,2022-01-10T12:04:38-05:00*%
%TF.ProjectId,GanJing 65 rev 2 solder,47616e4a-696e-4672-9036-352072657620,2*%
%TF.SameCoordinates,Original*%
%TF.FileFunction,Soldermask,Bot*%
%TF.FilePolarity,Negative*%
%FSLAX46Y46*%
G04 Gerber Fmt 4.6, Leading zero omitted, Abs format (unit mm)*
G04 Created by KiCad (PCBNEW (5.1.12)-1) date 2022-01-10 12:04:38*
%MOMM*%
%LPD*%
G01*
G04 APERTURE LIST*
%ADD10C,4.000000*%
%ADD11C,1.700000*%
%ADD12C,3.050000*%
%ADD13C,2.200000*%
%ADD14C,3.987800*%
%ADD15C,1.750000*%
%ADD16C,3.048000*%
%ADD17C,2.250000*%
%ADD18O,1.600000X2.000000*%
%ADD19C,1.752600*%
%ADD20R,1.752600X1.752600*%
%ADD21C,2.000000*%
%ADD22R,2.000000X2.000000*%
%ADD23R,2.000000X3.200000*%
%ADD24O,1.600000X1.600000*%
%ADD25R,1.600000X1.600000*%
G04 APERTURE END LIST*
D10*
%TO.C,MX43*%
X314325000Y-142875000D03*
D11*
X319405000Y-142875000D03*
X309245000Y-142875000D03*
D12*
X326225000Y-135875000D03*
D10*
X326225000Y-151115000D03*
D12*
X302425000Y-135875000D03*
D10*
X302425000Y-151115000D03*
D13*
X316865000Y-137795000D03*
X310515000Y-140335000D03*
%TD*%
%TO.C,MX30*%
X62865000Y-140335000D03*
D11*
X71755000Y-142875000D03*
D13*
X69215000Y-137795000D03*
D10*
X66675000Y-142875000D03*
D11*
X61595000Y-142875000D03*
%TD*%
D10*
%TO.C,MX70*%
X61912500Y-142875000D03*
D13*
X58102500Y-140335000D03*
D11*
X56832500Y-142875000D03*
X66992500Y-142875000D03*
D13*
X64452500Y-137795000D03*
%TD*%
D14*
%TO.C,MX75*%
X323850000Y-133350000D03*
D15*
X328930000Y-133350000D03*
D16*
X330835000Y-145288000D03*
D14*
X315595000Y-145288000D03*
D17*
X326390000Y-128270000D03*
D14*
X315595000Y-121412000D03*
D17*
X320040000Y-130810000D03*
D16*
X330835000Y-121412000D03*
D15*
X318770000Y-133350000D03*
%TD*%
D18*
%TO.C,DS1*%
X358616250Y-131250000D03*
X353536250Y-131250000D03*
X350996250Y-131250000D03*
X356076250Y-131250000D03*
%TD*%
D19*
%TO.C,U1*%
X347186250Y-104210000D03*
X357346250Y-127070000D03*
D20*
X347186250Y-99130000D03*
D19*
X362426250Y-121990000D03*
X362426250Y-99130000D03*
X347186250Y-106750000D03*
X362426250Y-127070000D03*
X347186250Y-116910000D03*
X352266250Y-127070000D03*
X347186250Y-101670000D03*
X349726250Y-127070000D03*
X362426250Y-119450000D03*
X347186250Y-109290000D03*
X362426250Y-111830000D03*
X362426250Y-109290000D03*
X347186250Y-124530000D03*
X362426250Y-106750000D03*
X362426250Y-104210000D03*
X347186250Y-127070000D03*
X359886250Y-127070000D03*
X347186250Y-119450000D03*
X347186250Y-111830000D03*
X347186250Y-114370000D03*
X362426250Y-114370000D03*
X354806250Y-127070000D03*
X347186250Y-121990000D03*
X362426250Y-124530000D03*
X362426250Y-116910000D03*
X362426250Y-101670000D03*
%TD*%
D10*
%TO.C,MX76*%
X364331250Y-142875000D03*
D13*
X359251250Y-142875000D03*
X366871250Y-137795000D03*
X360521250Y-140335000D03*
X369411250Y-142875000D03*
%TD*%
D21*
%TO.C,SW1*%
X366831250Y-136875000D03*
X366831250Y-151375000D03*
D22*
X361831250Y-151375000D03*
D21*
X364331250Y-151375000D03*
X361831250Y-136875000D03*
D23*
X369931250Y-143875000D03*
X358731250Y-143875000D03*
%TD*%
D10*
%TO.C,MX74*%
X226212500Y-172735000D03*
X214312500Y-180975000D03*
D11*
X219392500Y-180975000D03*
D10*
X202412500Y-172735000D03*
D13*
X210502500Y-178435000D03*
D12*
X226212500Y-187975000D03*
D11*
X209232500Y-180975000D03*
D13*
X216852500Y-175895000D03*
D12*
X202412500Y-187975000D03*
%TD*%
D13*
%TO.C,MX73*%
X172402500Y-178435000D03*
D11*
X181292500Y-180975000D03*
D10*
X176212500Y-180975000D03*
D11*
X171132500Y-180975000D03*
D13*
X178752500Y-175895000D03*
%TD*%
D10*
%TO.C,MX72*%
X154775000Y-172735000D03*
D13*
X145415000Y-175895000D03*
D10*
X142875000Y-180975000D03*
D12*
X154775000Y-187975000D03*
D11*
X137795000Y-180975000D03*
D13*
X139065000Y-178435000D03*
D11*
X147955000Y-180975000D03*
D10*
X130975000Y-172735000D03*
D12*
X130975000Y-187975000D03*
%TD*%
D13*
%TO.C,MX71*%
X58102500Y-159385000D03*
D11*
X66992500Y-161925000D03*
D10*
X61912500Y-161925000D03*
D11*
X56832500Y-161925000D03*
D13*
X64452500Y-156845000D03*
%TD*%
D11*
%TO.C,MX69*%
X369411250Y-180975000D03*
D13*
X360521250Y-178435000D03*
X366871250Y-175895000D03*
D11*
X359251250Y-180975000D03*
D10*
X364331250Y-180975000D03*
%TD*%
D11*
%TO.C,MX68*%
X350361250Y-180975000D03*
D13*
X341471250Y-178435000D03*
X347821250Y-175895000D03*
D11*
X340201250Y-180975000D03*
D10*
X345281250Y-180975000D03*
%TD*%
D11*
%TO.C,MX67*%
X331311250Y-180975000D03*
D13*
X322421250Y-178435000D03*
X328771250Y-175895000D03*
D11*
X321151250Y-180975000D03*
D10*
X326231250Y-180975000D03*
%TD*%
D11*
%TO.C,MX66*%
X312261250Y-180975000D03*
D13*
X303371250Y-178435000D03*
X309721250Y-175895000D03*
D11*
X302101250Y-180975000D03*
D10*
X307181250Y-180975000D03*
%TD*%
D11*
%TO.C,MX65*%
X293211250Y-180975000D03*
D13*
X284321250Y-178435000D03*
X290671250Y-175895000D03*
D11*
X283051250Y-180975000D03*
D10*
X288131250Y-180975000D03*
%TD*%
D11*
%TO.C,MX64*%
X274161250Y-180975000D03*
D13*
X265271250Y-178435000D03*
X271621250Y-175895000D03*
D11*
X264001250Y-180975000D03*
D10*
X269081250Y-180975000D03*
%TD*%
D11*
%TO.C,MX63*%
X255111250Y-180975000D03*
D13*
X246221250Y-178435000D03*
X252571250Y-175895000D03*
D11*
X244951250Y-180975000D03*
D10*
X250031250Y-180975000D03*
%TD*%
%TO.C,MX62*%
X180975000Y-180975000D03*
D11*
X175895000Y-180975000D03*
D13*
X177165000Y-178435000D03*
X183515000Y-175895000D03*
D11*
X186055000Y-180975000D03*
D14*
X230974900Y-172720000D03*
D16*
X230974900Y-187960000D03*
D14*
X130975100Y-172720000D03*
D16*
X130975100Y-187960000D03*
%TD*%
D13*
%TO.C,MX61*%
X105727500Y-178435000D03*
D11*
X114617500Y-180975000D03*
D10*
X109537500Y-180975000D03*
D11*
X104457500Y-180975000D03*
D13*
X112077500Y-175895000D03*
%TD*%
%TO.C,MX60*%
X81915000Y-178435000D03*
D11*
X90805000Y-180975000D03*
D10*
X85725000Y-180975000D03*
D11*
X80645000Y-180975000D03*
D13*
X88265000Y-175895000D03*
%TD*%
%TO.C,MX59*%
X58102500Y-178435000D03*
D11*
X66992500Y-180975000D03*
D10*
X61912500Y-180975000D03*
D11*
X56832500Y-180975000D03*
D13*
X64452500Y-175895000D03*
%TD*%
D11*
%TO.C,MX58*%
X369411250Y-161925000D03*
D13*
X360521250Y-159385000D03*
X366871250Y-156845000D03*
D11*
X359251250Y-161925000D03*
D10*
X364331250Y-161925000D03*
%TD*%
%TO.C,MX57*%
X297662500Y-170165000D03*
D12*
X321462500Y-154925000D03*
D13*
X312102500Y-156845000D03*
D11*
X304482500Y-161925000D03*
D12*
X297662500Y-154925000D03*
D10*
X321462500Y-170165000D03*
D11*
X314642500Y-161925000D03*
D10*
X309562500Y-161925000D03*
D13*
X305752500Y-159385000D03*
%TD*%
D11*
%TO.C,MX56*%
X278923750Y-161925000D03*
D13*
X270033750Y-159385000D03*
X276383750Y-156845000D03*
D11*
X268763750Y-161925000D03*
D10*
X273843750Y-161925000D03*
%TD*%
D11*
%TO.C,MX55*%
X259873750Y-161925000D03*
D13*
X250983750Y-159385000D03*
X257333750Y-156845000D03*
D11*
X249713750Y-161925000D03*
D10*
X254793750Y-161925000D03*
%TD*%
D11*
%TO.C,MX54*%
X240823750Y-161925000D03*
D13*
X231933750Y-159385000D03*
X238283750Y-156845000D03*
D11*
X230663750Y-161925000D03*
D10*
X235743750Y-161925000D03*
%TD*%
D11*
%TO.C,MX53*%
X221773750Y-161925000D03*
D13*
X212883750Y-159385000D03*
X219233750Y-156845000D03*
D11*
X211613750Y-161925000D03*
D10*
X216693750Y-161925000D03*
%TD*%
D11*
%TO.C,MX52*%
X202723750Y-161925000D03*
D13*
X193833750Y-159385000D03*
X200183750Y-156845000D03*
D11*
X192563750Y-161925000D03*
D10*
X197643750Y-161925000D03*
%TD*%
D11*
%TO.C,MX51*%
X183673750Y-161925000D03*
D13*
X174783750Y-159385000D03*
X181133750Y-156845000D03*
D11*
X173513750Y-161925000D03*
D10*
X178593750Y-161925000D03*
%TD*%
D11*
%TO.C,MX50*%
X164623750Y-161925000D03*
D13*
X155733750Y-159385000D03*
X162083750Y-156845000D03*
D11*
X154463750Y-161925000D03*
D10*
X159543750Y-161925000D03*
%TD*%
D11*
%TO.C,MX49*%
X145573750Y-161925000D03*
D13*
X136683750Y-159385000D03*
X143033750Y-156845000D03*
D11*
X135413750Y-161925000D03*
D10*
X140493750Y-161925000D03*
%TD*%
D11*
%TO.C,MX48*%
X126523750Y-161925000D03*
D13*
X117633750Y-159385000D03*
X123983750Y-156845000D03*
D11*
X116363750Y-161925000D03*
D10*
X121443750Y-161925000D03*
%TD*%
D11*
%TO.C,MX47*%
X107473750Y-161925000D03*
D13*
X98583750Y-159385000D03*
X104933750Y-156845000D03*
D11*
X97313750Y-161925000D03*
D10*
X102393750Y-161925000D03*
%TD*%
D11*
%TO.C,MX46*%
X88423750Y-161925000D03*
D13*
X79533750Y-159385000D03*
X85883750Y-156845000D03*
D11*
X78263750Y-161925000D03*
D10*
X83343750Y-161925000D03*
%TD*%
D13*
%TO.C,MX45*%
X67627500Y-159385000D03*
X73977500Y-156845000D03*
D10*
X59537500Y-170165000D03*
D12*
X59537500Y-154925000D03*
D10*
X83337500Y-170165000D03*
D12*
X83337500Y-154925000D03*
D11*
X66357500Y-161925000D03*
X76517500Y-161925000D03*
D10*
X71437500Y-161925000D03*
%TD*%
D11*
%TO.C,MX44*%
X350361250Y-161925000D03*
D13*
X341471250Y-159385000D03*
X347821250Y-156845000D03*
D11*
X340201250Y-161925000D03*
D10*
X345281250Y-161925000D03*
%TD*%
D11*
%TO.C,MX42*%
X307498750Y-142875000D03*
D13*
X298608750Y-140335000D03*
X304958750Y-137795000D03*
D11*
X297338750Y-142875000D03*
D10*
X302418750Y-142875000D03*
%TD*%
D11*
%TO.C,MX41*%
X288448750Y-142875000D03*
D13*
X279558750Y-140335000D03*
X285908750Y-137795000D03*
D11*
X278288750Y-142875000D03*
D10*
X283368750Y-142875000D03*
%TD*%
D11*
%TO.C,MX40*%
X269398750Y-142875000D03*
D13*
X260508750Y-140335000D03*
X266858750Y-137795000D03*
D11*
X259238750Y-142875000D03*
D10*
X264318750Y-142875000D03*
%TD*%
D11*
%TO.C,MX39*%
X250348750Y-142875000D03*
D13*
X241458750Y-140335000D03*
X247808750Y-137795000D03*
D11*
X240188750Y-142875000D03*
D10*
X245268750Y-142875000D03*
%TD*%
D11*
%TO.C,MX38*%
X231298750Y-142875000D03*
D13*
X222408750Y-140335000D03*
X228758750Y-137795000D03*
D11*
X221138750Y-142875000D03*
D10*
X226218750Y-142875000D03*
%TD*%
D11*
%TO.C,MX37*%
X212248750Y-142875000D03*
D13*
X203358750Y-140335000D03*
X209708750Y-137795000D03*
D11*
X202088750Y-142875000D03*
D10*
X207168750Y-142875000D03*
%TD*%
D11*
%TO.C,MX36*%
X193198750Y-142875000D03*
D13*
X184308750Y-140335000D03*
X190658750Y-137795000D03*
D11*
X183038750Y-142875000D03*
D10*
X188118750Y-142875000D03*
%TD*%
D11*
%TO.C,MX35*%
X174148750Y-142875000D03*
D13*
X165258750Y-140335000D03*
X171608750Y-137795000D03*
D11*
X163988750Y-142875000D03*
D10*
X169068750Y-142875000D03*
%TD*%
D11*
%TO.C,MX34*%
X155098750Y-142875000D03*
D13*
X146208750Y-140335000D03*
X152558750Y-137795000D03*
D11*
X144938750Y-142875000D03*
D10*
X150018750Y-142875000D03*
%TD*%
D11*
%TO.C,MX33*%
X136048750Y-142875000D03*
D13*
X127158750Y-140335000D03*
X133508750Y-137795000D03*
D11*
X125888750Y-142875000D03*
D10*
X130968750Y-142875000D03*
%TD*%
D11*
%TO.C,MX32*%
X116998750Y-142875000D03*
D13*
X108108750Y-140335000D03*
X114458750Y-137795000D03*
D11*
X106838750Y-142875000D03*
D10*
X111918750Y-142875000D03*
%TD*%
D11*
%TO.C,MX31*%
X97948750Y-142875000D03*
D13*
X89058750Y-140335000D03*
X95408750Y-137795000D03*
D11*
X87788750Y-142875000D03*
D10*
X92868750Y-142875000D03*
%TD*%
D11*
%TO.C,MX29*%
X350361250Y-142875000D03*
D13*
X341471250Y-140335000D03*
X347821250Y-137795000D03*
D11*
X340201250Y-142875000D03*
D10*
X345281250Y-142875000D03*
%TD*%
D13*
%TO.C,MX28*%
X324008750Y-118745000D03*
D10*
X321468750Y-123825000D03*
D13*
X317658750Y-121285000D03*
D11*
X316388750Y-123825000D03*
X326548750Y-123825000D03*
%TD*%
%TO.C,MX27*%
X302736250Y-123825000D03*
D13*
X293846250Y-121285000D03*
X300196250Y-118745000D03*
D11*
X292576250Y-123825000D03*
D10*
X297656250Y-123825000D03*
%TD*%
D11*
%TO.C,MX26*%
X283686250Y-123825000D03*
D13*
X274796250Y-121285000D03*
X281146250Y-118745000D03*
D11*
X273526250Y-123825000D03*
D10*
X278606250Y-123825000D03*
%TD*%
D11*
%TO.C,MX25*%
X264636250Y-123825000D03*
D13*
X255746250Y-121285000D03*
X262096250Y-118745000D03*
D11*
X254476250Y-123825000D03*
D10*
X259556250Y-123825000D03*
%TD*%
D11*
%TO.C,MX24*%
X245586250Y-123825000D03*
D13*
X236696250Y-121285000D03*
X243046250Y-118745000D03*
D11*
X235426250Y-123825000D03*
D10*
X240506250Y-123825000D03*
%TD*%
D11*
%TO.C,MX23*%
X226536250Y-123825000D03*
D13*
X217646250Y-121285000D03*
X223996250Y-118745000D03*
D11*
X216376250Y-123825000D03*
D10*
X221456250Y-123825000D03*
%TD*%
D11*
%TO.C,MX22*%
X207486250Y-123825000D03*
D13*
X198596250Y-121285000D03*
X204946250Y-118745000D03*
D11*
X197326250Y-123825000D03*
D10*
X202406250Y-123825000D03*
%TD*%
D11*
%TO.C,MX21*%
X188436250Y-123825000D03*
D13*
X179546250Y-121285000D03*
X185896250Y-118745000D03*
D11*
X178276250Y-123825000D03*
D10*
X183356250Y-123825000D03*
%TD*%
D11*
%TO.C,MX20*%
X169386250Y-123825000D03*
D13*
X160496250Y-121285000D03*
X166846250Y-118745000D03*
D11*
X159226250Y-123825000D03*
D10*
X164306250Y-123825000D03*
%TD*%
D11*
%TO.C,MX19*%
X150336250Y-123825000D03*
D13*
X141446250Y-121285000D03*
X147796250Y-118745000D03*
D11*
X140176250Y-123825000D03*
D10*
X145256250Y-123825000D03*
%TD*%
D11*
%TO.C,MX18*%
X131286250Y-123825000D03*
D13*
X122396250Y-121285000D03*
X128746250Y-118745000D03*
D11*
X121126250Y-123825000D03*
D10*
X126206250Y-123825000D03*
%TD*%
D11*
%TO.C,MX17*%
X112236250Y-123825000D03*
D13*
X103346250Y-121285000D03*
X109696250Y-118745000D03*
D11*
X102076250Y-123825000D03*
D10*
X107156250Y-123825000D03*
%TD*%
D11*
%TO.C,MX16*%
X93186250Y-123825000D03*
D13*
X84296250Y-121285000D03*
X90646250Y-118745000D03*
D11*
X83026250Y-123825000D03*
D10*
X88106250Y-123825000D03*
%TD*%
D13*
%TO.C,MX15*%
X66833750Y-118745000D03*
D10*
X64293750Y-123825000D03*
D13*
X60483750Y-121285000D03*
D11*
X59213750Y-123825000D03*
X69373750Y-123825000D03*
%TD*%
D13*
%TO.C,MX14*%
X319246250Y-99695000D03*
D10*
X304806250Y-113015000D03*
D11*
X311626250Y-104775000D03*
D12*
X304806250Y-97775000D03*
D10*
X316706250Y-104775000D03*
D12*
X328606250Y-97775000D03*
D10*
X328606250Y-113015000D03*
D11*
X321786250Y-104775000D03*
D13*
X312896250Y-102235000D03*
%TD*%
D11*
%TO.C,MX13*%
X293211250Y-104775000D03*
D13*
X284321250Y-102235000D03*
X290671250Y-99695000D03*
D11*
X283051250Y-104775000D03*
D10*
X288131250Y-104775000D03*
%TD*%
D11*
%TO.C,MX12*%
X274161250Y-104775000D03*
D13*
X265271250Y-102235000D03*
X271621250Y-99695000D03*
D11*
X264001250Y-104775000D03*
D10*
X269081250Y-104775000D03*
%TD*%
D11*
%TO.C,MX11*%
X255111250Y-104775000D03*
D13*
X246221250Y-102235000D03*
X252571250Y-99695000D03*
D11*
X244951250Y-104775000D03*
D10*
X250031250Y-104775000D03*
%TD*%
D11*
%TO.C,MX10*%
X236061250Y-104775000D03*
D13*
X227171250Y-102235000D03*
X233521250Y-99695000D03*
D11*
X225901250Y-104775000D03*
D10*
X230981250Y-104775000D03*
%TD*%
D11*
%TO.C,MX9*%
X217011250Y-104775000D03*
D13*
X208121250Y-102235000D03*
X214471250Y-99695000D03*
D11*
X206851250Y-104775000D03*
D10*
X211931250Y-104775000D03*
%TD*%
D11*
%TO.C,MX8*%
X197961250Y-104775000D03*
D13*
X189071250Y-102235000D03*
X195421250Y-99695000D03*
D11*
X187801250Y-104775000D03*
D10*
X192881250Y-104775000D03*
%TD*%
D11*
%TO.C,MX7*%
X178911250Y-104775000D03*
D13*
X170021250Y-102235000D03*
X176371250Y-99695000D03*
D11*
X168751250Y-104775000D03*
D10*
X173831250Y-104775000D03*
%TD*%
D11*
%TO.C,MX6*%
X159861250Y-104775000D03*
D13*
X150971250Y-102235000D03*
X157321250Y-99695000D03*
D11*
X149701250Y-104775000D03*
D10*
X154781250Y-104775000D03*
%TD*%
D11*
%TO.C,MX5*%
X140811250Y-104775000D03*
D13*
X131921250Y-102235000D03*
X138271250Y-99695000D03*
D11*
X130651250Y-104775000D03*
D10*
X135731250Y-104775000D03*
%TD*%
D11*
%TO.C,MX4*%
X121761250Y-104775000D03*
D13*
X112871250Y-102235000D03*
X119221250Y-99695000D03*
D11*
X111601250Y-104775000D03*
D10*
X116681250Y-104775000D03*
%TD*%
D11*
%TO.C,MX3*%
X102711250Y-104775000D03*
D13*
X93821250Y-102235000D03*
X100171250Y-99695000D03*
D11*
X92551250Y-104775000D03*
D10*
X97631250Y-104775000D03*
%TD*%
D11*
%TO.C,MX2*%
X83661250Y-104775000D03*
D13*
X74771250Y-102235000D03*
X81121250Y-99695000D03*
D11*
X73501250Y-104775000D03*
D10*
X78581250Y-104775000D03*
%TD*%
D11*
%TO.C,MX1*%
X64611250Y-104775000D03*
D13*
X55721250Y-102235000D03*
X62071250Y-99695000D03*
D11*
X54451250Y-104775000D03*
D10*
X59531250Y-104775000D03*
%TD*%
D24*
%TO.C,D70*%
X354806250Y-143033750D03*
D25*
X354806250Y-137953750D03*
%TD*%
D24*
%TO.C,D69*%
X354806250Y-178752500D03*
D25*
X354806250Y-173672500D03*
%TD*%
D24*
%TO.C,D68*%
X335756250Y-178752500D03*
D25*
X335756250Y-173672500D03*
%TD*%
D24*
%TO.C,D67*%
X316706250Y-178752500D03*
D25*
X316706250Y-173672500D03*
%TD*%
D24*
%TO.C,D66*%
X297656250Y-181133750D03*
D25*
X297656250Y-176053750D03*
%TD*%
D24*
%TO.C,D65*%
X278606250Y-178752500D03*
D25*
X278606250Y-173672500D03*
%TD*%
D24*
%TO.C,D64*%
X259556250Y-178752500D03*
D25*
X259556250Y-173672500D03*
%TD*%
D24*
%TO.C,D63*%
X240506250Y-178752500D03*
D25*
X240506250Y-173672500D03*
%TD*%
D24*
%TO.C,D62*%
X166687500Y-178752500D03*
D25*
X166687500Y-173672500D03*
%TD*%
D24*
%TO.C,D61*%
X97631250Y-178752500D03*
D25*
X97631250Y-173672500D03*
%TD*%
D24*
%TO.C,D60*%
X76200000Y-178752500D03*
D25*
X76200000Y-173672500D03*
%TD*%
D24*
%TO.C,D59*%
X52387500Y-178752500D03*
D25*
X52387500Y-173672500D03*
%TD*%
D24*
%TO.C,D58*%
X354806250Y-162083750D03*
D25*
X354806250Y-157003750D03*
%TD*%
D24*
%TO.C,D57*%
X292893750Y-159702500D03*
D25*
X292893750Y-154622500D03*
%TD*%
D24*
%TO.C,D56*%
X264318750Y-159702500D03*
D25*
X264318750Y-154622500D03*
%TD*%
D24*
%TO.C,D55*%
X245268750Y-159702500D03*
D25*
X245268750Y-154622500D03*
%TD*%
D24*
%TO.C,D54*%
X226218750Y-159702500D03*
D25*
X226218750Y-154622500D03*
%TD*%
D24*
%TO.C,D53*%
X207168750Y-159702500D03*
D25*
X207168750Y-154622500D03*
%TD*%
D24*
%TO.C,D52*%
X188118750Y-159702500D03*
D25*
X188118750Y-154622500D03*
%TD*%
D24*
%TO.C,D51*%
X169068750Y-159702500D03*
D25*
X169068750Y-154622500D03*
%TD*%
D24*
%TO.C,D50*%
X150018750Y-159702500D03*
D25*
X150018750Y-154622500D03*
%TD*%
D24*
%TO.C,D49*%
X130968750Y-159702500D03*
D25*
X130968750Y-154622500D03*
%TD*%
D24*
%TO.C,D48*%
X111918750Y-159702500D03*
D25*
X111918750Y-154622500D03*
%TD*%
D24*
%TO.C,D47*%
X92868750Y-159702500D03*
D25*
X92868750Y-154622500D03*
%TD*%
D24*
%TO.C,D46*%
X78581250Y-152558750D03*
D25*
X78581250Y-147478750D03*
%TD*%
D24*
%TO.C,D45*%
X52387500Y-159702500D03*
D25*
X52387500Y-154622500D03*
%TD*%
D24*
%TO.C,D44*%
X335756250Y-162083750D03*
D25*
X335756250Y-157003750D03*
%TD*%
D24*
%TO.C,D43*%
X309562500Y-133508750D03*
D25*
X309562500Y-128428750D03*
%TD*%
D24*
%TO.C,D42*%
X292893750Y-140652500D03*
D25*
X292893750Y-135572500D03*
%TD*%
D24*
%TO.C,D41*%
X273843750Y-140652500D03*
D25*
X273843750Y-135572500D03*
%TD*%
D24*
%TO.C,D40*%
X254793750Y-140652500D03*
D25*
X254793750Y-135572500D03*
%TD*%
D24*
%TO.C,D39*%
X235743750Y-140652500D03*
D25*
X235743750Y-135572500D03*
%TD*%
D24*
%TO.C,D38*%
X216693750Y-140652500D03*
D25*
X216693750Y-135572500D03*
%TD*%
D24*
%TO.C,D37*%
X197643750Y-140652500D03*
D25*
X197643750Y-135572500D03*
%TD*%
D24*
%TO.C,D36*%
X178593750Y-140652500D03*
D25*
X178593750Y-135572500D03*
%TD*%
D24*
%TO.C,D35*%
X159543750Y-140652500D03*
D25*
X159543750Y-135572500D03*
%TD*%
D24*
%TO.C,D34*%
X140493750Y-140652500D03*
D25*
X140493750Y-135572500D03*
%TD*%
D24*
%TO.C,D33*%
X121443750Y-140652500D03*
D25*
X121443750Y-135572500D03*
%TD*%
D24*
%TO.C,D32*%
X102393750Y-140652500D03*
D25*
X102393750Y-135572500D03*
%TD*%
D24*
%TO.C,D31*%
X83343750Y-140652500D03*
D25*
X83343750Y-135572500D03*
%TD*%
D24*
%TO.C,D30*%
X52387500Y-140652500D03*
D25*
X52387500Y-135572500D03*
%TD*%
D24*
%TO.C,D29*%
X335756250Y-143033750D03*
D25*
X335756250Y-137953750D03*
%TD*%
D24*
%TO.C,D28*%
X309562500Y-121602500D03*
D25*
X309562500Y-116522500D03*
%TD*%
D24*
%TO.C,D27*%
X288131250Y-121602500D03*
D25*
X288131250Y-116522500D03*
%TD*%
D24*
%TO.C,D26*%
X269081250Y-121602500D03*
D25*
X269081250Y-116522500D03*
%TD*%
D24*
%TO.C,D25*%
X250031250Y-121602500D03*
D25*
X250031250Y-116522500D03*
%TD*%
D24*
%TO.C,D24*%
X230981250Y-121602500D03*
D25*
X230981250Y-116522500D03*
%TD*%
D24*
%TO.C,D23*%
X211931250Y-121602500D03*
D25*
X211931250Y-116522500D03*
%TD*%
D24*
%TO.C,D22*%
X192881250Y-121602500D03*
D25*
X192881250Y-116522500D03*
%TD*%
D24*
%TO.C,D21*%
X173831250Y-121602500D03*
D25*
X173831250Y-116522500D03*
%TD*%
D24*
%TO.C,D20*%
X154781250Y-121602500D03*
D25*
X154781250Y-116522500D03*
%TD*%
D24*
%TO.C,D19*%
X135731250Y-121602500D03*
D25*
X135731250Y-116522500D03*
%TD*%
D24*
%TO.C,D18*%
X116681250Y-121602500D03*
D25*
X116681250Y-116522500D03*
%TD*%
D24*
%TO.C,D17*%
X97631250Y-121602500D03*
D25*
X97631250Y-116522500D03*
%TD*%
D24*
%TO.C,D16*%
X78581250Y-121602500D03*
D25*
X78581250Y-116522500D03*
%TD*%
D24*
%TO.C,D15*%
X52387500Y-121602500D03*
D25*
X52387500Y-116522500D03*
%TD*%
D24*
%TO.C,D14*%
X333375000Y-104933750D03*
D25*
X333375000Y-99853750D03*
%TD*%
D24*
%TO.C,D13*%
X297656250Y-104933750D03*
D25*
X297656250Y-99853750D03*
%TD*%
D24*
%TO.C,D12*%
X278606250Y-104933750D03*
D25*
X278606250Y-99853750D03*
%TD*%
D24*
%TO.C,D11*%
X259556250Y-104933750D03*
D25*
X259556250Y-99853750D03*
%TD*%
D24*
%TO.C,D10*%
X240506250Y-104933750D03*
D25*
X240506250Y-99853750D03*
%TD*%
D24*
%TO.C,D9*%
X221456250Y-104933750D03*
D25*
X221456250Y-99853750D03*
%TD*%
D24*
%TO.C,D8*%
X202406250Y-104933750D03*
D25*
X202406250Y-99853750D03*
%TD*%
D24*
%TO.C,D7*%
X183356250Y-104933750D03*
D25*
X183356250Y-99853750D03*
%TD*%
D24*
%TO.C,D6*%
X164306250Y-104933750D03*
D25*
X164306250Y-99853750D03*
%TD*%
D24*
%TO.C,D5*%
X145256250Y-104933750D03*
D25*
X145256250Y-99853750D03*
%TD*%
D24*
%TO.C,D4*%
X126206250Y-104933750D03*
D25*
X126206250Y-99853750D03*
%TD*%
D24*
%TO.C,D3*%
X107156250Y-104933750D03*
D25*
X107156250Y-99853750D03*
%TD*%
D24*
%TO.C,D2*%
X88106250Y-104933750D03*
D25*
X88106250Y-99853750D03*
%TD*%
D24*
%TO.C,D1*%
X69056250Y-104933750D03*
D25*
X69056250Y-99853750D03*
%TD*%
M02*
