%TF.GenerationSoftware,KiCad,Pcbnew,(6.0.1)*%
%TF.CreationDate,2022-05-15T16:15:33-04:00*%
%TF.ProjectId,GanJing 65 rev 2 solder,47616e4a-696e-4672-9036-352072657620,2*%
%TF.SameCoordinates,Original*%
%TF.FileFunction,Plated,1,2,PTH,Drill*%
%TF.FilePolarity,Positive*%
%FSLAX46Y46*%
G04 Gerber Fmt 4.6, Leading zero omitted, Abs format (unit mm)*
G04 Created by KiCad (PCBNEW (6.0.1)) date 2022-05-15 16:15:33*
%MOMM*%
%LPD*%
G01*
G04 APERTURE LIST*
%TA.AperFunction,ViaDrill*%
%ADD10C,0.400000*%
%TD*%
%TA.AperFunction,ComponentDrill*%
%ADD11C,0.800000*%
%TD*%
%TA.AperFunction,ComponentDrill*%
%ADD12C,1.000000*%
%TD*%
%TA.AperFunction,ComponentDrill*%
%ADD13C,1.470000*%
%TD*%
%TA.AperFunction,ComponentDrill*%
%ADD14C,1.500000*%
%TD*%
G04 APERTURE END LIST*
D10*
X59531250Y-111918750D03*
X61912500Y-185737500D03*
X62606250Y-107510700D03*
X64293750Y-130968750D03*
X64293750Y-147637500D03*
X66675000Y-166687500D03*
X78581250Y-111918750D03*
X78581250Y-166687500D03*
X81606250Y-108300000D03*
X83343750Y-130968750D03*
X85725000Y-185737500D03*
X90606250Y-102400000D03*
X92868750Y-147637500D03*
X97631250Y-111918750D03*
X100706250Y-108700000D03*
X102393750Y-130968750D03*
X102393750Y-166687500D03*
X109537500Y-185737500D03*
X109606250Y-102400000D03*
X111918750Y-147637500D03*
X116681250Y-111918750D03*
X119706250Y-109200000D03*
X121443750Y-130968750D03*
X121443750Y-166687500D03*
X128706250Y-102400000D03*
X130968750Y-147637500D03*
X135731250Y-111918750D03*
X138112500Y-185737500D03*
X138706250Y-109600000D03*
X140493750Y-130968750D03*
X140493750Y-166687500D03*
X147637500Y-185737500D03*
X147806250Y-102400000D03*
X150018750Y-147637500D03*
X154781250Y-111918750D03*
X158153750Y-110052500D03*
X159543750Y-130968750D03*
X159543750Y-166687500D03*
X166806250Y-102400000D03*
X169068750Y-147637500D03*
X171450000Y-185737500D03*
X173831250Y-111918750D03*
X177628750Y-110477500D03*
X178593750Y-130968750D03*
X178593750Y-166687500D03*
X185737500Y-185737500D03*
X185906250Y-102400000D03*
X188118750Y-147637500D03*
X192881250Y-111918750D03*
X197153750Y-110952500D03*
X197643750Y-130968750D03*
X197643750Y-166687500D03*
X204906250Y-102400000D03*
X207168750Y-147637500D03*
X209550000Y-185737500D03*
X211931250Y-114300000D03*
X216628750Y-111377500D03*
X216693750Y-130968750D03*
X216693750Y-166687500D03*
X219075000Y-185737500D03*
X224006250Y-102400000D03*
X226218750Y-147637500D03*
X230981250Y-114300000D03*
X235743750Y-130968750D03*
X235743750Y-166687500D03*
X236153750Y-111852500D03*
X243006250Y-102400000D03*
X245268750Y-147637500D03*
X250031250Y-114300000D03*
X250031250Y-185737500D03*
X254793750Y-130968750D03*
X254793750Y-166687500D03*
X255628750Y-112277500D03*
X262106250Y-102400000D03*
X264318750Y-147637500D03*
X269081250Y-114300000D03*
X269081250Y-185737500D03*
X273843750Y-130968750D03*
X273843750Y-166687500D03*
X275153750Y-112752500D03*
X281106250Y-102400000D03*
X283368750Y-147637500D03*
X288131250Y-114300000D03*
X288131250Y-185737500D03*
X292893750Y-130968750D03*
X292893750Y-166687500D03*
X295106250Y-106300000D03*
X295275000Y-147637500D03*
X307181250Y-185737500D03*
X309562500Y-147637500D03*
X309562500Y-166687500D03*
X314325000Y-130968750D03*
X316706250Y-114300000D03*
X321468750Y-147637500D03*
X323806250Y-103500000D03*
X326231250Y-185737500D03*
X328612500Y-166687500D03*
X333375000Y-130968750D03*
X340518750Y-104775000D03*
X340518750Y-130968750D03*
X341406250Y-110600000D03*
X342506250Y-113000000D03*
X342900000Y-147637500D03*
X345281250Y-166687500D03*
X345281250Y-185737500D03*
X345406250Y-115600000D03*
X348706250Y-131400000D03*
X352306250Y-122600000D03*
X353606250Y-105100000D03*
X354806250Y-122600000D03*
X356906250Y-110800000D03*
X358106250Y-110800000D03*
X360106250Y-118500000D03*
X364331250Y-166687500D03*
X364331250Y-185737500D03*
D11*
%TO.C,D16*%
X52387500Y-116522500D03*
X52387500Y-121602500D03*
%TO.C,D31*%
X52387500Y-135572500D03*
X52387500Y-140652500D03*
%TO.C,D46*%
X52387500Y-154622500D03*
X52387500Y-159702500D03*
%TO.C,D61*%
X52387500Y-173672500D03*
X52387500Y-178752500D03*
%TO.C,D1*%
X69056250Y-99853750D03*
X69056250Y-104933750D03*
%TO.C,D62*%
X76200000Y-173672500D03*
X76200000Y-178752500D03*
%TO.C,D17*%
X78581250Y-116522500D03*
X78581250Y-121602500D03*
%TO.C,D47*%
X78581250Y-147478750D03*
X78581250Y-152558750D03*
%TO.C,D32*%
X83343750Y-135572500D03*
X83343750Y-140652500D03*
%TO.C,D2*%
X88106250Y-99853750D03*
X88106250Y-104933750D03*
%TO.C,D48*%
X92868750Y-154622500D03*
X92868750Y-159702500D03*
%TO.C,D18*%
X97631250Y-116522500D03*
X97631250Y-121602500D03*
%TO.C,D63*%
X97631250Y-173672500D03*
X97631250Y-178752500D03*
%TO.C,D33*%
X102393750Y-135572500D03*
X102393750Y-140652500D03*
%TO.C,D3*%
X107156250Y-99853750D03*
X107156250Y-104933750D03*
%TO.C,D49*%
X111918750Y-154622500D03*
X111918750Y-159702500D03*
%TO.C,D19*%
X116681250Y-116522500D03*
X116681250Y-121602500D03*
%TO.C,D34*%
X121443750Y-135572500D03*
X121443750Y-140652500D03*
%TO.C,D64*%
X123825000Y-173672500D03*
X123825000Y-178752500D03*
%TO.C,D4*%
X126206250Y-99853750D03*
X126206250Y-104933750D03*
%TO.C,D50*%
X130968750Y-154622500D03*
X130968750Y-159702500D03*
%TO.C,D20*%
X135731250Y-116522500D03*
X135731250Y-121602500D03*
%TO.C,D35*%
X140493750Y-135572500D03*
X140493750Y-140652500D03*
%TO.C,D5*%
X145256250Y-99853750D03*
X145256250Y-104933750D03*
%TO.C,D51*%
X150018750Y-154622500D03*
X150018750Y-159702500D03*
%TO.C,D21*%
X154781250Y-116522500D03*
X154781250Y-121602500D03*
%TO.C,D36*%
X159543750Y-135572500D03*
X159543750Y-140652500D03*
%TO.C,D65*%
X161925000Y-173672500D03*
X161925000Y-178752500D03*
%TO.C,D6*%
X164306250Y-99853750D03*
X164306250Y-104933750D03*
%TO.C,D66*%
X166687500Y-173672500D03*
X166687500Y-178752500D03*
%TO.C,D52*%
X169068750Y-154622500D03*
X169068750Y-159702500D03*
%TO.C,D22*%
X173831250Y-116522500D03*
X173831250Y-121602500D03*
%TO.C,D37*%
X178593750Y-135572500D03*
X178593750Y-140652500D03*
%TO.C,D7*%
X183356250Y-99853750D03*
X183356250Y-104933750D03*
%TO.C,D53*%
X188118750Y-154622500D03*
X188118750Y-159702500D03*
%TO.C,D23*%
X192881250Y-116522500D03*
X192881250Y-121602500D03*
%TO.C,D67*%
X195262500Y-173672500D03*
X195262500Y-178752500D03*
%TO.C,D38*%
X197643750Y-135572500D03*
X197643750Y-140652500D03*
%TO.C,D8*%
X202406250Y-99853750D03*
X202406250Y-104933750D03*
%TO.C,D54*%
X207168750Y-154622500D03*
X207168750Y-159702500D03*
%TO.C,D24*%
X211931250Y-116522500D03*
X211931250Y-121602500D03*
%TO.C,D39*%
X216693750Y-135572500D03*
X216693750Y-140652500D03*
%TO.C,D9*%
X221456250Y-99853750D03*
X221456250Y-104933750D03*
%TO.C,D55*%
X226218750Y-154622500D03*
X226218750Y-159702500D03*
%TO.C,D25*%
X230981250Y-116522500D03*
X230981250Y-121602500D03*
%TO.C,D40*%
X235743750Y-135572500D03*
X235743750Y-140652500D03*
%TO.C,D10*%
X240506250Y-99853750D03*
X240506250Y-104933750D03*
%TO.C,D68*%
X240506250Y-173672500D03*
X240506250Y-178752500D03*
%TO.C,D56*%
X245268750Y-154622500D03*
X245268750Y-159702500D03*
%TO.C,D26*%
X250031250Y-116522500D03*
X250031250Y-121602500D03*
%TO.C,D41*%
X254793750Y-135572500D03*
X254793750Y-140652500D03*
%TO.C,D11*%
X259556250Y-99853750D03*
X259556250Y-104933750D03*
%TO.C,D69*%
X259556250Y-173672500D03*
X259556250Y-178752500D03*
%TO.C,D57*%
X264318750Y-154622500D03*
X264318750Y-159702500D03*
%TO.C,D27*%
X269081250Y-116522500D03*
X269081250Y-121602500D03*
%TO.C,D42*%
X273843750Y-135572500D03*
X273843750Y-140652500D03*
%TO.C,D12*%
X278606250Y-99853750D03*
X278606250Y-104933750D03*
%TO.C,D70*%
X278606250Y-173672500D03*
X278606250Y-178752500D03*
%TO.C,D59*%
X285750000Y-154622500D03*
X285750000Y-159702500D03*
%TO.C,D28*%
X288131250Y-116522500D03*
X288131250Y-121602500D03*
%TO.C,D58*%
X290512500Y-154622500D03*
X290512500Y-159702500D03*
%TO.C,D43*%
X292893750Y-135572500D03*
X292893750Y-140652500D03*
%TO.C,D13*%
X297656250Y-99853750D03*
X297656250Y-104933750D03*
%TO.C,D71*%
X297656250Y-176053750D03*
X297656250Y-181133750D03*
%TO.C,D29*%
X309562500Y-116522500D03*
X309562500Y-121602500D03*
%TO.C,D44*%
X309562500Y-128428750D03*
X309562500Y-133508750D03*
%TO.C,D72*%
X316706250Y-173672500D03*
X316706250Y-178752500D03*
%TO.C,D14*%
X333375000Y-99853750D03*
X333375000Y-104933750D03*
%TO.C,D30*%
X335756250Y-137953750D03*
X335756250Y-143033750D03*
%TO.C,D45*%
X335756250Y-157003750D03*
X335756250Y-162083750D03*
%TO.C,D73*%
X335756250Y-173672500D03*
X335756250Y-178752500D03*
%TO.C,D15*%
X354806250Y-137953750D03*
X354806250Y-143033750D03*
%TO.C,D60*%
X354806250Y-157003750D03*
X354806250Y-162083750D03*
%TO.C,D74*%
X354806250Y-173672500D03*
X354806250Y-178752500D03*
D12*
%TO.C,U1*%
X347186250Y-99130000D03*
X347186250Y-101670000D03*
X347186250Y-104210000D03*
X347186250Y-106750000D03*
X347186250Y-109290000D03*
X347186250Y-111830000D03*
X347186250Y-114370000D03*
X347186250Y-116910000D03*
X347186250Y-119450000D03*
X347186250Y-121990000D03*
X347186250Y-124530000D03*
X347186250Y-127070000D03*
X349726250Y-127070000D03*
%TO.C,DS1*%
X350996250Y-131250000D03*
%TO.C,U1*%
X352266250Y-127070000D03*
%TO.C,DS1*%
X353536250Y-131250000D03*
%TO.C,U1*%
X354806250Y-127070000D03*
%TO.C,DS1*%
X356076250Y-131250000D03*
%TO.C,U1*%
X357346250Y-127070000D03*
%TO.C,DS1*%
X358616250Y-131250000D03*
%TO.C,U1*%
X359886250Y-127070000D03*
%TO.C,SW1*%
X361831250Y-136875000D03*
X361831250Y-151375000D03*
%TO.C,U1*%
X362426250Y-99130000D03*
X362426250Y-101670000D03*
X362426250Y-104210000D03*
X362426250Y-106750000D03*
X362426250Y-109290000D03*
X362426250Y-111830000D03*
X362426250Y-114370000D03*
X362426250Y-116910000D03*
X362426250Y-119450000D03*
X362426250Y-121990000D03*
X362426250Y-124530000D03*
X362426250Y-127070000D03*
%TO.C,SW1*%
X364331250Y-151375000D03*
X366831250Y-136875000D03*
X366831250Y-151375000D03*
D13*
%TO.C,MX76*%
X319915000Y-130810000D03*
X326265000Y-128270000D03*
D14*
%TO.C,MX1*%
X55721250Y-102235000D03*
%TO.C,MX75*%
X58102500Y-140335000D03*
%TO.C,MX77*%
X58102500Y-159385000D03*
%TO.C,MX61*%
X58102500Y-178435000D03*
%TO.C,MX16*%
X60483750Y-121285000D03*
%TO.C,MX1*%
X62071250Y-99695000D03*
%TO.C,MX31*%
X62865000Y-140335000D03*
%TO.C,MX75*%
X64452500Y-137795000D03*
%TO.C,MX77*%
X64452500Y-156845000D03*
%TO.C,MX61*%
X64452500Y-175895000D03*
%TO.C,MX16*%
X66833750Y-118745000D03*
%TO.C,MX46*%
X67627500Y-159385000D03*
%TO.C,MX31*%
X69215000Y-137795000D03*
%TO.C,MX46*%
X73977500Y-156845000D03*
%TO.C,MX2*%
X74771250Y-102235000D03*
%TO.C,MX47*%
X79533750Y-159385000D03*
%TO.C,MX2*%
X81121250Y-99695000D03*
%TO.C,MX62*%
X81915000Y-178435000D03*
%TO.C,MX17*%
X84296250Y-121285000D03*
%TO.C,MX47*%
X85883750Y-156845000D03*
%TO.C,MX62*%
X88265000Y-175895000D03*
%TO.C,MX32*%
X89058750Y-140335000D03*
%TO.C,MX17*%
X90646250Y-118745000D03*
%TO.C,MX3*%
X93821250Y-102235000D03*
%TO.C,MX32*%
X95408750Y-137795000D03*
%TO.C,MX48*%
X98583750Y-159385000D03*
%TO.C,MX3*%
X100171250Y-99695000D03*
%TO.C,MX18*%
X103346250Y-121285000D03*
%TO.C,MX48*%
X104933750Y-156845000D03*
%TO.C,MX63*%
X105727500Y-178435000D03*
%TO.C,MX33*%
X108108750Y-140335000D03*
%TO.C,MX18*%
X109696250Y-118745000D03*
%TO.C,MX63*%
X112077500Y-175895000D03*
%TO.C,MX4*%
X112871250Y-102235000D03*
%TO.C,MX33*%
X114458750Y-137795000D03*
%TO.C,MX49*%
X117633750Y-159385000D03*
%TO.C,MX4*%
X119221250Y-99695000D03*
%TO.C,MX19*%
X122396250Y-121285000D03*
%TO.C,MX49*%
X123983750Y-156845000D03*
%TO.C,MX34*%
X127158750Y-140335000D03*
%TO.C,MX19*%
X128746250Y-118745000D03*
%TO.C,MX5*%
X131921250Y-102235000D03*
%TO.C,MX34*%
X133508750Y-137795000D03*
%TO.C,MX50*%
X136683750Y-159385000D03*
%TO.C,MX5*%
X138271250Y-99695000D03*
%TO.C,MX64*%
X139065000Y-178435000D03*
%TO.C,MX20*%
X141446250Y-121285000D03*
%TO.C,MX50*%
X143033750Y-156845000D03*
%TO.C,MX64*%
X145415000Y-175895000D03*
%TO.C,MX35*%
X146208750Y-140335000D03*
%TO.C,MX20*%
X147796250Y-118745000D03*
%TO.C,MX6*%
X150971250Y-102235000D03*
%TO.C,MX35*%
X152558750Y-137795000D03*
%TO.C,MX51*%
X155733750Y-159385000D03*
%TO.C,MX6*%
X157321250Y-99695000D03*
%TO.C,MX21*%
X160496250Y-121285000D03*
%TO.C,MX51*%
X162083750Y-156845000D03*
%TO.C,MX36*%
X165258750Y-140335000D03*
%TO.C,MX21*%
X166846250Y-118745000D03*
%TO.C,MX7*%
X170021250Y-102235000D03*
%TO.C,MX36*%
X171608750Y-137795000D03*
%TO.C,MX65*%
X172402500Y-178435000D03*
%TO.C,MX52*%
X174783750Y-159385000D03*
%TO.C,MX7*%
X176371250Y-99695000D03*
%TO.C,MX66*%
X177165000Y-178435000D03*
%TO.C,MX65*%
X178752500Y-175895000D03*
%TO.C,MX22*%
X179546250Y-121285000D03*
%TO.C,MX52*%
X181133750Y-156845000D03*
%TO.C,MX66*%
X183515000Y-175895000D03*
%TO.C,MX37*%
X184308750Y-140335000D03*
%TO.C,MX22*%
X185896250Y-118745000D03*
%TO.C,MX8*%
X189071250Y-102235000D03*
%TO.C,MX37*%
X190658750Y-137795000D03*
%TO.C,MX53*%
X193833750Y-159385000D03*
%TO.C,MX8*%
X195421250Y-99695000D03*
%TO.C,MX23*%
X198596250Y-121285000D03*
%TO.C,MX53*%
X200183750Y-156845000D03*
%TO.C,MX38*%
X203358750Y-140335000D03*
%TO.C,MX23*%
X204946250Y-118745000D03*
%TO.C,MX9*%
X208121250Y-102235000D03*
%TO.C,MX38*%
X209708750Y-137795000D03*
%TO.C,MX67*%
X210502500Y-178435000D03*
%TO.C,MX54*%
X212883750Y-159385000D03*
%TO.C,MX9*%
X214471250Y-99695000D03*
%TO.C,MX67*%
X216852500Y-175895000D03*
%TO.C,MX24*%
X217646250Y-121285000D03*
%TO.C,MX54*%
X219233750Y-156845000D03*
%TO.C,MX39*%
X222408750Y-140335000D03*
%TO.C,MX24*%
X223996250Y-118745000D03*
%TO.C,MX10*%
X227171250Y-102235000D03*
%TO.C,MX39*%
X228758750Y-137795000D03*
%TO.C,MX55*%
X231933750Y-159385000D03*
%TO.C,MX10*%
X233521250Y-99695000D03*
%TO.C,MX25*%
X236696250Y-121285000D03*
%TO.C,MX55*%
X238283750Y-156845000D03*
%TO.C,MX40*%
X241458750Y-140335000D03*
%TO.C,MX25*%
X243046250Y-118745000D03*
%TO.C,MX11*%
X246221250Y-102235000D03*
%TO.C,MX68*%
X246221250Y-178435000D03*
%TO.C,MX40*%
X247808750Y-137795000D03*
%TO.C,MX56*%
X250983750Y-159385000D03*
%TO.C,MX11*%
X252571250Y-99695000D03*
%TO.C,MX68*%
X252571250Y-175895000D03*
%TO.C,MX26*%
X255746250Y-121285000D03*
%TO.C,MX56*%
X257333750Y-156845000D03*
%TO.C,MX41*%
X260508750Y-140335000D03*
%TO.C,MX26*%
X262096250Y-118745000D03*
%TO.C,MX12*%
X265271250Y-102235000D03*
%TO.C,MX69*%
X265271250Y-178435000D03*
%TO.C,MX41*%
X266858750Y-137795000D03*
%TO.C,MX57*%
X270033750Y-159385000D03*
%TO.C,MX12*%
X271621250Y-99695000D03*
%TO.C,MX69*%
X271621250Y-175895000D03*
%TO.C,MX27*%
X274796250Y-121285000D03*
%TO.C,MX57*%
X276383750Y-156845000D03*
%TO.C,MX42*%
X279558750Y-140335000D03*
%TO.C,MX27*%
X281146250Y-118745000D03*
%TO.C,MX13*%
X284321250Y-102235000D03*
%TO.C,MX70*%
X284321250Y-178435000D03*
%TO.C,MX42*%
X285908750Y-137795000D03*
%TO.C,MX13*%
X290671250Y-99695000D03*
%TO.C,MX70*%
X290671250Y-175895000D03*
%TO.C,MX28*%
X293846250Y-121285000D03*
%TO.C,MX78*%
X296227500Y-159385000D03*
%TO.C,MX43*%
X298608750Y-140335000D03*
%TO.C,MX28*%
X300196250Y-118745000D03*
%TO.C,MX78*%
X302577500Y-156845000D03*
%TO.C,MX71*%
X303371250Y-178435000D03*
%TO.C,MX43*%
X304958750Y-137795000D03*
%TO.C,MX58*%
X305752500Y-159385000D03*
%TO.C,MX71*%
X309721250Y-175895000D03*
%TO.C,MX44*%
X310515000Y-140335000D03*
%TO.C,MX58*%
X312102500Y-156845000D03*
%TO.C,MX14*%
X312896250Y-102235000D03*
%TO.C,MX44*%
X316865000Y-137795000D03*
%TO.C,MX29*%
X317658750Y-121285000D03*
%TO.C,MX14*%
X319246250Y-99695000D03*
%TO.C,MX59*%
X322421250Y-159385000D03*
%TO.C,MX72*%
X322421250Y-178435000D03*
%TO.C,MX29*%
X324008750Y-118745000D03*
%TO.C,MX59*%
X328771250Y-156845000D03*
%TO.C,MX72*%
X328771250Y-175895000D03*
%TO.C,MX30*%
X341471250Y-140335000D03*
%TO.C,MX45*%
X341471250Y-159385000D03*
%TO.C,MX73*%
X341471250Y-178435000D03*
%TO.C,MX30*%
X347821250Y-137795000D03*
%TO.C,MX45*%
X347821250Y-156845000D03*
%TO.C,MX73*%
X347821250Y-175895000D03*
%TO.C,MX15*%
X360510000Y-140320000D03*
%TO.C,MX60*%
X360521250Y-159385000D03*
%TO.C,MX74*%
X360521250Y-178435000D03*
%TO.C,MX15*%
X366860000Y-137780000D03*
%TO.C,MX60*%
X366871250Y-156845000D03*
%TO.C,MX74*%
X366871250Y-175895000D03*
M02*
