M48
; DRILL file {KiCad (5.1.12)-1} date 12/21/21 00:20:08
; FORMAT={-:-/ absolute / inch / decimal}
; #@! TF.CreationDate,2021-12-21T00:20:08-05:00
; #@! TF.GenerationSoftware,Kicad,Pcbnew,(5.1.12)-1
; #@! TF.FileFunction,Plated,1,2,PTH
FMAT,2
INCH
T1C0.0157
T2C0.0315
T3C0.0394
T4C0.0430
T5C0.0579
T6C0.0591
%
G90
G05
T1
X2.3438Y-4.4062
X2.4375Y-7.3125
X2.4648Y-4.2327
X2.5312Y-5.1562
X2.5312Y-5.8125
X2.625Y-6.5625
X3.0938Y-4.4062
X3.0938Y-6.5625
X3.2128Y-4.2638
X3.2812Y-5.1562
X3.375Y-7.3125
X3.5672Y-4.0315
X3.6562Y-5.8125
X3.8438Y-4.4062
X3.9648Y-4.2795
X4.0312Y-5.1562
X4.0312Y-6.5625
X4.3125Y-7.3125
X4.3152Y-4.0315
X4.4062Y-5.8125
X4.5938Y-4.4062
X4.7128Y-4.2992
X4.7812Y-5.1562
X4.7812Y-6.5625
X5.0672Y-4.0315
X5.1562Y-5.8125
X5.3438Y-4.4062
X5.4375Y-7.3125
X5.4609Y-4.315
X5.5312Y-5.1562
X5.5312Y-6.5625
X5.8125Y-7.3125
X5.8191Y-4.0315
X5.9062Y-5.8125
X6.0938Y-4.4062
X6.2265Y-4.3328
X6.2812Y-5.1562
X6.2812Y-6.5625
X6.5672Y-4.0315
X6.6562Y-5.8125
X6.75Y-7.3125
X6.8438Y-4.4062
X6.9933Y-4.3495
X7.0312Y-5.1562
X7.0312Y-6.5625
X7.3125Y-7.3125
X7.3191Y-4.0315
X7.4062Y-5.8125
X7.5938Y-4.4062
X7.762Y-4.3682
X7.7812Y-5.1562
X7.7812Y-6.5625
X8.0672Y-4.0315
X8.1562Y-5.8125
X8.25Y-7.3125
X8.3438Y-4.5
X8.5287Y-4.3849
X8.5312Y-5.1562
X8.5312Y-6.5625
X8.625Y-7.3125
X8.8191Y-4.0315
X8.9062Y-5.8125
X9.0938Y-4.5
X9.2812Y-5.1562
X9.2812Y-6.5625
X9.2974Y-4.4036
X9.5672Y-4.0315
X9.6562Y-5.8125
X9.8438Y-4.5
X9.8438Y-7.3125
X10.0312Y-5.1562
X10.0312Y-6.5625
X10.0641Y-4.4204
X10.3191Y-4.0315
X10.4062Y-5.8125
X10.5938Y-4.5
X10.5938Y-7.3125
X10.7812Y-5.1562
X10.7812Y-6.5625
X10.8328Y-4.4391
X11.0672Y-4.0315
X11.1562Y-5.8125
X11.3438Y-4.5
X11.3438Y-7.3125
X11.5312Y-5.1562
X11.5312Y-6.5625
X11.6184Y-4.185
X11.625Y-5.8125
X11.7156Y-5.1531
X12.0002Y-3.9764
X12.0938Y-7.3125
X12.1875Y-5.8125
X12.1875Y-6.5625
X12.375Y-5.1562
X12.4688Y-4.5
X12.6562Y-5.8125
X12.7483Y-4.0748
X12.8438Y-7.3125
X12.9375Y-6.5625
X13.125Y-5.1562
X13.4062Y-4.125
X13.4062Y-5.1562
X13.4412Y-4.3543
X13.4845Y-4.4488
X13.5Y-5.8125
X13.5938Y-6.5625
X13.5938Y-7.3125
X13.5987Y-4.5512
X13.7286Y-5.1732
X13.8703Y-4.8268
X13.9215Y-4.1378
X13.9688Y-4.8268
X14.0514Y-4.3622
X14.0987Y-4.3622
X14.1774Y-4.6654
X14.3438Y-6.5625
X14.3438Y-7.3125
T2
X2.0625Y-4.5875
X2.0625Y-4.7875
X2.0625Y-5.3375
X2.0625Y-5.5375
X2.0625Y-6.0875
X2.0625Y-6.2875
X2.0625Y-6.8375
X2.0625Y-7.0375
X2.7188Y-3.9312
X2.7188Y-4.1312
X3.0Y-6.8375
X3.0Y-7.0375
X3.0938Y-4.5875
X3.0938Y-4.7875
X3.0938Y-5.8062
X3.0938Y-6.0062
X3.2812Y-5.3375
X3.2812Y-5.5375
X3.4688Y-3.9312
X3.4688Y-4.1312
X3.6562Y-6.0875
X3.6562Y-6.2875
X3.8438Y-4.5875
X3.8438Y-4.7875
X3.8438Y-6.8375
X3.8438Y-7.0375
X4.0312Y-5.3375
X4.0312Y-5.5375
X4.2188Y-3.9312
X4.2188Y-4.1312
X4.4062Y-6.0875
X4.4062Y-6.2875
X4.5938Y-4.5875
X4.5938Y-4.7875
X4.7812Y-5.3375
X4.7812Y-5.5375
X4.9688Y-3.9312
X4.9688Y-4.1312
X5.1562Y-6.0875
X5.1562Y-6.2875
X5.3438Y-4.5875
X5.3438Y-4.7875
X5.5312Y-5.3375
X5.5312Y-5.5375
X5.7188Y-3.9312
X5.7188Y-4.1312
X5.9062Y-6.0875
X5.9062Y-6.2875
X6.0938Y-4.5875
X6.0938Y-4.7875
X6.2812Y-5.3375
X6.2812Y-5.5375
X6.4688Y-3.9312
X6.4688Y-4.1312
X6.5625Y-6.8375
X6.5625Y-7.0375
X6.6562Y-6.0875
X6.6562Y-6.2875
X6.8438Y-4.5875
X6.8438Y-4.7875
X7.0312Y-5.3375
X7.0312Y-5.5375
X7.2188Y-3.9312
X7.2188Y-4.1312
X7.4062Y-6.0875
X7.4062Y-6.2875
X7.5938Y-4.5875
X7.5938Y-4.7875
X7.7812Y-5.3375
X7.7812Y-5.5375
X7.9688Y-3.9312
X7.9688Y-4.1312
X8.1562Y-6.0875
X8.1562Y-6.2875
X8.3438Y-4.5875
X8.3438Y-4.7875
X8.5312Y-5.3375
X8.5312Y-5.5375
X8.7188Y-3.9312
X8.7188Y-4.1312
X8.9062Y-6.0875
X8.9062Y-6.2875
X9.0938Y-4.5875
X9.0938Y-4.7875
X9.2812Y-5.3375
X9.2812Y-5.5375
X9.4688Y-3.9312
X9.4688Y-4.1312
X9.4688Y-6.8375
X9.4688Y-7.0375
X9.6562Y-6.0875
X9.6562Y-6.2875
X9.8438Y-4.5875
X9.8438Y-4.7875
X10.0312Y-5.3375
X10.0312Y-5.5375
X10.2188Y-3.9312
X10.2188Y-4.1312
X10.2188Y-6.8375
X10.2188Y-7.0375
X10.4062Y-6.0875
X10.4062Y-6.2875
X10.5938Y-4.5875
X10.5938Y-4.7875
X10.7812Y-5.3375
X10.7812Y-5.5375
X10.9688Y-3.9312
X10.9688Y-4.1312
X10.9688Y-6.8375
X10.9688Y-7.0375
X11.3438Y-4.5875
X11.3438Y-4.7875
X11.5312Y-5.3375
X11.5312Y-5.5375
X11.5312Y-6.0875
X11.5312Y-6.2875
X11.7188Y-3.9312
X11.7188Y-4.1312
X11.7188Y-6.9312
X11.7188Y-7.1312
X12.1875Y-4.5875
X12.1875Y-4.7875
X12.1875Y-5.0562
X12.1875Y-5.2562
X12.4688Y-6.8375
X12.4688Y-7.0375
X13.125Y-3.9312
X13.125Y-4.1312
X13.2188Y-5.4312
X13.2188Y-5.6312
X13.2188Y-6.1812
X13.2188Y-6.3812
X13.2188Y-6.8375
X13.2188Y-7.0375
X13.9688Y-5.4312
X13.9688Y-5.6312
X13.9688Y-6.1812
X13.9688Y-6.3812
X13.9688Y-6.8375
X13.9688Y-7.0375
T3
X13.8187Y-5.1673
X13.9187Y-5.1673
X14.0187Y-5.1673
X14.1188Y-5.1673
X14.2453Y-5.3494
X14.2453Y-5.9203
X14.3438Y-5.9203
X14.4422Y-5.3494
X14.4422Y-5.9203
T4
X13.6687Y-3.9028
X13.6687Y-4.0028
X13.6687Y-4.1028
X13.6687Y-4.2028
X13.6687Y-4.3028
X13.6687Y-4.4028
X13.6687Y-4.5028
X13.6687Y-4.6028
X13.6687Y-4.7028
X13.6687Y-4.8028
X13.6687Y-4.9028
X13.6687Y-5.0028
X13.7687Y-5.0028
X13.8688Y-5.0028
X13.9688Y-5.0028
X14.0687Y-5.0028
X14.1687Y-5.0028
X14.2687Y-3.9028
X14.2687Y-4.0028
X14.2687Y-4.1028
X14.2687Y-4.2028
X14.2687Y-4.3028
X14.2687Y-4.4028
X14.2687Y-4.5028
X14.2687Y-4.6028
X14.2687Y-4.7028
X14.2687Y-4.8028
X14.2687Y-4.9028
X14.2687Y-5.0028
T5
X12.6Y-5.15
X12.85Y-5.05
T6
X2.1938Y-4.025
X2.2875Y-5.525
X2.2875Y-6.275
X2.2875Y-7.025
X2.3813Y-4.775
X2.4438Y-3.925
X2.475Y-5.525
X2.5375Y-5.425
X2.5375Y-6.175
X2.5375Y-6.925
X2.6313Y-4.675
X2.6625Y-6.275
X2.725Y-5.425
X2.9125Y-6.175
X2.9438Y-4.025
X3.1313Y-6.275
X3.1938Y-3.925
X3.225Y-7.025
X3.3188Y-4.775
X3.3813Y-6.175
X3.475Y-6.925
X3.5063Y-5.525
X3.5688Y-4.675
X3.6938Y-4.025
X3.7563Y-5.425
X3.8813Y-6.275
X3.9438Y-3.925
X4.0687Y-4.775
X4.1312Y-6.175
X4.1625Y-7.025
X4.2562Y-5.525
X4.3187Y-4.675
X4.4125Y-6.925
X4.4437Y-4.025
X4.5062Y-5.425
X4.6312Y-6.275
X4.6937Y-3.925
X4.8187Y-4.775
X4.8812Y-6.175
X5.0062Y-5.525
X5.0687Y-4.675
X5.1937Y-4.025
X5.2562Y-5.425
X5.3812Y-6.275
X5.4437Y-3.925
X5.475Y-7.025
X5.5687Y-4.775
X5.6312Y-6.175
X5.725Y-6.925
X5.7562Y-5.525
X5.8187Y-4.675
X5.9437Y-4.025
X6.0062Y-5.425
X6.1312Y-6.275
X6.1937Y-3.925
X6.3187Y-4.775
X6.3812Y-6.175
X6.5062Y-5.525
X6.5687Y-4.675
X6.6937Y-4.025
X6.7562Y-5.425
X6.7875Y-7.025
X6.8812Y-6.275
X6.9437Y-3.925
X6.975Y-7.025
X7.0375Y-6.925
X7.0687Y-4.775
X7.1312Y-6.175
X7.225Y-6.925
X7.2562Y-5.525
X7.3187Y-4.675
X7.4437Y-4.025
X7.5062Y-5.425
X7.6312Y-6.275
X7.6937Y-3.925
X7.8187Y-4.775
X7.8812Y-6.175
X8.0062Y-5.525
X8.0687Y-4.675
X8.1937Y-4.025
X8.2562Y-5.425
X8.2875Y-7.025
X8.3812Y-6.275
X8.4437Y-3.925
X8.5375Y-6.925
X8.5687Y-4.775
X8.6312Y-6.175
X8.7562Y-5.525
X8.8187Y-4.675
X8.9437Y-4.025
X9.0062Y-5.425
X9.1312Y-6.275
X9.1937Y-3.925
X9.3187Y-4.775
X9.3812Y-6.175
X9.5062Y-5.525
X9.5687Y-4.675
X9.6937Y-4.025
X9.6937Y-7.025
X9.7562Y-5.425
X9.8812Y-6.275
X9.9437Y-3.925
X9.9437Y-6.925
X10.0687Y-4.775
X10.1312Y-6.175
X10.2562Y-5.525
X10.3187Y-4.675
X10.4437Y-4.025
X10.4437Y-7.025
X10.5062Y-5.425
X10.6312Y-6.275
X10.6937Y-3.925
X10.6937Y-6.925
X10.8187Y-4.775
X10.8812Y-6.175
X11.0062Y-5.525
X11.0687Y-4.675
X11.1937Y-4.025
X11.1937Y-7.025
X11.2562Y-5.425
X11.4437Y-3.925
X11.4437Y-6.925
X11.5687Y-4.775
X11.7562Y-5.525
X11.8187Y-4.675
X11.9437Y-7.025
X12.0062Y-5.425
X12.0375Y-6.275
X12.1937Y-6.925
X12.225Y-5.525
X12.2875Y-6.175
X12.3187Y-4.025
X12.475Y-5.425
X12.5062Y-4.775
X12.5687Y-3.925
X12.6937Y-7.025
X12.7562Y-4.675
X12.9437Y-6.925
X13.4437Y-5.525
X13.4437Y-6.275
X13.4437Y-7.025
X13.6937Y-5.425
X13.6937Y-6.175
X13.6937Y-6.925
X14.1937Y-5.525
X14.1937Y-6.275
X14.1937Y-7.025
X14.4437Y-5.425
X14.4437Y-6.175
X14.4437Y-6.925
T0
M30
