G04 #@! TF.GenerationSoftware,KiCad,Pcbnew,(5.1.7)-1*
G04 #@! TF.CreationDate,2021-05-31T13:23:32-04:00*
G04 #@! TF.ProjectId,discipline-pcb,64697363-6970-46c6-996e-652d7063622e,rev?*
G04 #@! TF.SameCoordinates,Original*
G04 #@! TF.FileFunction,Legend,Top*
G04 #@! TF.FilePolarity,Positive*
%FSLAX46Y46*%
G04 Gerber Fmt 4.6, Leading zero omitted, Abs format (unit mm)*
G04 Created by KiCad (PCBNEW (5.1.7)-1) date 2021-05-31 13:23:32*
%MOMM*%
%LPD*%
G01*
G04 APERTURE LIST*
%ADD10C,0.150000*%
%ADD11C,0.120000*%
%ADD12C,0.203200*%
G04 APERTURE END LIST*
D10*
X282916200Y-79695762D02*
X283516200Y-79695762D01*
X282916200Y-80595762D01*
X283516200Y-80595762D01*
X284201914Y-80552905D02*
X284116200Y-80595762D01*
X283944771Y-80595762D01*
X283859057Y-80552905D01*
X283816200Y-80467191D01*
X283816200Y-80124334D01*
X283859057Y-80038620D01*
X283944771Y-79995762D01*
X284116200Y-79995762D01*
X284201914Y-80038620D01*
X284244771Y-80124334D01*
X284244771Y-80210048D01*
X283816200Y-80295762D01*
X284630485Y-79995762D02*
X284630485Y-80595762D01*
X284630485Y-80081477D02*
X284673342Y-80038620D01*
X284759057Y-79995762D01*
X284887628Y-79995762D01*
X284973342Y-80038620D01*
X285016200Y-80124334D01*
X285016200Y-80595762D01*
X285787628Y-80552905D02*
X285701914Y-80595762D01*
X285530485Y-80595762D01*
X285444771Y-80552905D01*
X285401914Y-80467191D01*
X285401914Y-80124334D01*
X285444771Y-80038620D01*
X285530485Y-79995762D01*
X285701914Y-79995762D01*
X285787628Y-80038620D01*
X285830485Y-80124334D01*
X285830485Y-80210048D01*
X285401914Y-80295762D01*
X286216200Y-80595762D02*
X286216200Y-79995762D01*
X286216200Y-80167191D02*
X286259057Y-80081477D01*
X286301914Y-80038620D01*
X286387628Y-79995762D01*
X286473342Y-79995762D01*
D11*
X285400010Y-75514666D02*
X285644982Y-75252196D01*
X286734918Y-75251812D02*
X286979890Y-74989342D01*
X282517900Y-75514282D02*
X282762872Y-75251812D01*
X283865246Y-75251812D02*
X284110218Y-74989342D01*
D10*
X228199557Y-66516574D02*
X227866223Y-66040384D01*
X227628128Y-66516574D02*
X227628128Y-65516574D01*
X228009080Y-65516574D01*
X228104318Y-65564194D01*
X228151938Y-65611813D01*
X228199557Y-65707051D01*
X228199557Y-65849908D01*
X228151938Y-65945146D01*
X228104318Y-65992765D01*
X228009080Y-66040384D01*
X227628128Y-66040384D01*
X228628128Y-65992765D02*
X228961461Y-65992765D01*
X229104318Y-66516574D02*
X228628128Y-66516574D01*
X228628128Y-65516574D01*
X229104318Y-65516574D01*
X229485271Y-66468955D02*
X229628128Y-66516574D01*
X229866223Y-66516574D01*
X229961461Y-66468955D01*
X230009080Y-66421336D01*
X230056699Y-66326098D01*
X230056699Y-66230860D01*
X230009080Y-66135622D01*
X229961461Y-66088003D01*
X229866223Y-66040384D01*
X229675747Y-65992765D01*
X229580509Y-65945146D01*
X229532890Y-65897527D01*
X229485271Y-65802289D01*
X229485271Y-65707051D01*
X229532890Y-65611813D01*
X229580509Y-65564194D01*
X229675747Y-65516574D01*
X229913842Y-65516574D01*
X230056699Y-65564194D01*
X230485271Y-65992765D02*
X230818604Y-65992765D01*
X230961461Y-66516574D02*
X230485271Y-66516574D01*
X230485271Y-65516574D01*
X230961461Y-65516574D01*
X231247176Y-65516574D02*
X231818604Y-65516574D01*
X231532890Y-66516574D02*
X231532890Y-65516574D01*
X283095546Y-65441000D02*
X283095546Y-64441000D01*
X283476498Y-64441000D01*
X283571736Y-64488620D01*
X283619355Y-64536239D01*
X283666974Y-64631477D01*
X283666974Y-64774334D01*
X283619355Y-64869572D01*
X283571736Y-64917191D01*
X283476498Y-64964810D01*
X283095546Y-64964810D01*
X284286022Y-64441000D02*
X284476498Y-64441000D01*
X284571736Y-64488620D01*
X284666974Y-64583858D01*
X284714593Y-64774334D01*
X284714593Y-65107667D01*
X284666974Y-65298143D01*
X284571736Y-65393381D01*
X284476498Y-65441000D01*
X284286022Y-65441000D01*
X284190784Y-65393381D01*
X284095546Y-65298143D01*
X284047927Y-65107667D01*
X284047927Y-64774334D01*
X284095546Y-64583858D01*
X284190784Y-64488620D01*
X284286022Y-64441000D01*
X285047927Y-64441000D02*
X285286022Y-65441000D01*
X285476498Y-64726715D01*
X285666974Y-65441000D01*
X285905070Y-64441000D01*
X286286022Y-64917191D02*
X286619355Y-64917191D01*
X286762212Y-65441000D02*
X286286022Y-65441000D01*
X286286022Y-64441000D01*
X286762212Y-64441000D01*
X287762212Y-65441000D02*
X287428879Y-64964810D01*
X287190784Y-65441000D02*
X287190784Y-64441000D01*
X287571736Y-64441000D01*
X287666974Y-64488620D01*
X287714593Y-64536239D01*
X287762212Y-64631477D01*
X287762212Y-64774334D01*
X287714593Y-64869572D01*
X287666974Y-64917191D01*
X287571736Y-64964810D01*
X287190784Y-64964810D01*
X249414796Y-64566827D02*
X249319558Y-64519207D01*
X249176701Y-64519207D01*
X249033843Y-64566827D01*
X248938605Y-64662065D01*
X248890986Y-64757303D01*
X248843367Y-64947779D01*
X248843367Y-65090636D01*
X248890986Y-65281112D01*
X248938605Y-65376350D01*
X249033843Y-65471588D01*
X249176701Y-65519207D01*
X249271939Y-65519207D01*
X249414796Y-65471588D01*
X249462415Y-65423969D01*
X249462415Y-65090636D01*
X249271939Y-65090636D01*
X249890986Y-65519207D02*
X249890986Y-64519207D01*
X250462415Y-65519207D01*
X250462415Y-64519207D01*
X250938605Y-65519207D02*
X250938605Y-64519207D01*
X251176701Y-64519207D01*
X251319558Y-64566827D01*
X251414796Y-64662065D01*
X251462415Y-64757303D01*
X251510034Y-64947779D01*
X251510034Y-65090636D01*
X251462415Y-65281112D01*
X251414796Y-65376350D01*
X251319558Y-65471588D01*
X251176701Y-65519207D01*
X250938605Y-65519207D01*
X291861554Y-70192989D02*
X291480601Y-70192989D01*
X291442506Y-70573942D01*
X291480601Y-70535846D01*
X291556792Y-70497751D01*
X291747268Y-70497751D01*
X291823458Y-70535846D01*
X291861554Y-70573942D01*
X291899649Y-70650132D01*
X291899649Y-70840608D01*
X291861554Y-70916799D01*
X291823458Y-70954894D01*
X291747268Y-70992989D01*
X291556792Y-70992989D01*
X291480601Y-70954894D01*
X291442506Y-70916799D01*
X292242506Y-70916799D02*
X292280601Y-70954894D01*
X292242506Y-70992989D01*
X292204411Y-70954894D01*
X292242506Y-70916799D01*
X292242506Y-70992989D01*
X293042506Y-70992989D02*
X292585363Y-70992989D01*
X292813935Y-70992989D02*
X292813935Y-70192989D01*
X292737744Y-70307275D01*
X292661554Y-70383465D01*
X292585363Y-70421561D01*
X293385363Y-70992989D02*
X293385363Y-70192989D01*
X293461554Y-70688227D02*
X293690125Y-70992989D01*
X293690125Y-70459656D02*
X293385363Y-70764418D01*
X291861554Y-67639536D02*
X291480601Y-67639536D01*
X291442506Y-68020489D01*
X291480601Y-67982393D01*
X291556792Y-67944298D01*
X291747268Y-67944298D01*
X291823458Y-67982393D01*
X291861554Y-68020489D01*
X291899649Y-68096679D01*
X291899649Y-68287155D01*
X291861554Y-68363346D01*
X291823458Y-68401441D01*
X291747268Y-68439536D01*
X291556792Y-68439536D01*
X291480601Y-68401441D01*
X291442506Y-68363346D01*
X292242506Y-68363346D02*
X292280601Y-68401441D01*
X292242506Y-68439536D01*
X292204411Y-68401441D01*
X292242506Y-68363346D01*
X292242506Y-68439536D01*
X293042506Y-68439536D02*
X292585363Y-68439536D01*
X292813935Y-68439536D02*
X292813935Y-67639536D01*
X292737744Y-67753822D01*
X292661554Y-67830012D01*
X292585363Y-67868108D01*
X293385363Y-68439536D02*
X293385363Y-67639536D01*
X293461554Y-68134774D02*
X293690125Y-68439536D01*
X293690125Y-67906203D02*
X293385363Y-68210965D01*
X277548468Y-60291022D02*
X277548468Y-61561022D01*
X282023468Y-57781022D02*
X282028468Y-58541022D01*
X282023468Y-57781022D02*
X273073468Y-57781022D01*
X273068468Y-58541022D02*
X273073468Y-57781022D01*
X282023468Y-66951022D02*
X273073468Y-66951022D01*
X282173468Y-60291022D02*
X272923468Y-60291022D01*
D12*
X256563830Y-59080870D02*
X256563830Y-64160870D01*
X248943830Y-64160870D02*
X248943830Y-59080870D01*
X256563830Y-64160870D02*
X248943830Y-64160870D01*
X248943830Y-59080870D02*
X256563830Y-59080870D01*
D11*
X65517200Y-58177620D02*
X75296200Y-58177620D01*
X75296200Y-58177620D02*
X75296200Y-60590620D01*
X75296200Y-60590620D02*
X65517200Y-60590620D01*
X65517200Y-58177620D02*
X65517200Y-60590620D01*
X320701062Y-77646416D02*
X325241062Y-77646416D01*
X320701062Y-79786416D02*
X325241062Y-79786416D01*
X320701062Y-77646416D02*
X320701062Y-77661416D01*
X320701062Y-79771416D02*
X320701062Y-79786416D01*
X325241062Y-77646416D02*
X325241062Y-77661416D01*
X325241062Y-79771416D02*
X325241062Y-79786416D01*
X325355530Y-57818620D02*
X329895530Y-57818620D01*
X325355530Y-59958620D02*
X329895530Y-59958620D01*
X325355530Y-57818620D02*
X325355530Y-57833620D01*
X325355530Y-59943620D02*
X325355530Y-59958620D01*
X329895530Y-57818620D02*
X329895530Y-57833620D01*
X329895530Y-59943620D02*
X329895530Y-59958620D01*
X283082676Y-71724667D02*
X283482676Y-71724667D01*
X283282676Y-71924667D02*
X283282676Y-71524667D01*
X284107676Y-67573866D02*
X284847676Y-67573866D01*
X283940676Y-67613866D02*
X285014676Y-67613866D01*
X283813676Y-67653866D02*
X285141676Y-67653866D01*
X283709676Y-67693866D02*
X285245676Y-67693866D01*
X283618676Y-67733866D02*
X285336676Y-67733866D01*
X283537676Y-67773866D02*
X285417676Y-67773866D01*
X283464676Y-67813866D02*
X285490676Y-67813866D01*
X283397676Y-67853866D02*
X285557676Y-67853866D01*
X283335676Y-67893866D02*
X285619676Y-67893866D01*
X283277676Y-67933866D02*
X285677676Y-67933866D01*
X283223676Y-67973866D02*
X285731676Y-67973866D01*
X283173676Y-68013866D02*
X285781676Y-68013866D01*
X283126676Y-68053866D02*
X285828676Y-68053866D01*
X285317676Y-68093866D02*
X285873676Y-68093866D01*
X283081676Y-68093866D02*
X283637676Y-68093866D01*
X285317676Y-68133866D02*
X285915676Y-68133866D01*
X283039676Y-68133866D02*
X283637676Y-68133866D01*
X285317676Y-68173866D02*
X285955676Y-68173866D01*
X282999676Y-68173866D02*
X283637676Y-68173866D01*
X285317676Y-68213866D02*
X285993676Y-68213866D01*
X282961676Y-68213866D02*
X283637676Y-68213866D01*
X285317676Y-68253866D02*
X286029676Y-68253866D01*
X282925676Y-68253866D02*
X283637676Y-68253866D01*
X285317676Y-68293866D02*
X286064676Y-68293866D01*
X282890676Y-68293866D02*
X283637676Y-68293866D01*
X285317676Y-68333866D02*
X286096676Y-68333866D01*
X282858676Y-68333866D02*
X283637676Y-68333866D01*
X285317676Y-68373866D02*
X286127676Y-68373866D01*
X282827676Y-68373866D02*
X283637676Y-68373866D01*
X285317676Y-68413866D02*
X286157676Y-68413866D01*
X282797676Y-68413866D02*
X283637676Y-68413866D01*
X285317676Y-68453866D02*
X286185676Y-68453866D01*
X282769676Y-68453866D02*
X283637676Y-68453866D01*
X285317676Y-68493866D02*
X286212676Y-68493866D01*
X282742676Y-68493866D02*
X283637676Y-68493866D01*
X285317676Y-68533866D02*
X286237676Y-68533866D01*
X282717676Y-68533866D02*
X283637676Y-68533866D01*
X285317676Y-68573866D02*
X286262676Y-68573866D01*
X282692676Y-68573866D02*
X283637676Y-68573866D01*
X285317676Y-68613866D02*
X286285676Y-68613866D01*
X282669676Y-68613866D02*
X283637676Y-68613866D01*
X285317676Y-68653866D02*
X286307676Y-68653866D01*
X282647676Y-68653866D02*
X283637676Y-68653866D01*
X285317676Y-68693866D02*
X286328676Y-68693866D01*
X282626676Y-68693866D02*
X283637676Y-68693866D01*
X285317676Y-68733866D02*
X286347676Y-68733866D01*
X282607676Y-68733866D02*
X283637676Y-68733866D01*
X285317676Y-68773866D02*
X286366676Y-68773866D01*
X282588676Y-68773866D02*
X283637676Y-68773866D01*
X285317676Y-68813866D02*
X286384676Y-68813866D01*
X282570676Y-68813866D02*
X283637676Y-68813866D01*
X285317676Y-68853866D02*
X286401676Y-68853866D01*
X282553676Y-68853866D02*
X283637676Y-68853866D01*
X285317676Y-68893866D02*
X286417676Y-68893866D01*
X282537676Y-68893866D02*
X283637676Y-68893866D01*
X285317676Y-68933866D02*
X286431676Y-68933866D01*
X282523676Y-68933866D02*
X283637676Y-68933866D01*
X285317676Y-68974866D02*
X286445676Y-68974866D01*
X282509676Y-68974866D02*
X283637676Y-68974866D01*
X285317676Y-69014866D02*
X286459676Y-69014866D01*
X282495676Y-69014866D02*
X283637676Y-69014866D01*
X285317676Y-69054866D02*
X286471676Y-69054866D01*
X282483676Y-69054866D02*
X283637676Y-69054866D01*
X285317676Y-69094866D02*
X286482676Y-69094866D01*
X282472676Y-69094866D02*
X283637676Y-69094866D01*
X285317676Y-69134866D02*
X286493676Y-69134866D01*
X282461676Y-69134866D02*
X283637676Y-69134866D01*
X285317676Y-69174866D02*
X286502676Y-69174866D01*
X282452676Y-69174866D02*
X283637676Y-69174866D01*
X285317676Y-69214866D02*
X286511676Y-69214866D01*
X282443676Y-69214866D02*
X283637676Y-69214866D01*
X285317676Y-69254866D02*
X286519676Y-69254866D01*
X282435676Y-69254866D02*
X283637676Y-69254866D01*
X285317676Y-69294866D02*
X286527676Y-69294866D01*
X282427676Y-69294866D02*
X283637676Y-69294866D01*
X285317676Y-69334866D02*
X286533676Y-69334866D01*
X282421676Y-69334866D02*
X283637676Y-69334866D01*
X285317676Y-69374866D02*
X286539676Y-69374866D01*
X282415676Y-69374866D02*
X283637676Y-69374866D01*
X285317676Y-69414866D02*
X286544676Y-69414866D01*
X282410676Y-69414866D02*
X283637676Y-69414866D01*
X285317676Y-69454866D02*
X286548676Y-69454866D01*
X282406676Y-69454866D02*
X283637676Y-69454866D01*
X285317676Y-69494866D02*
X286551676Y-69494866D01*
X282403676Y-69494866D02*
X283637676Y-69494866D01*
X285317676Y-69534866D02*
X286554676Y-69534866D01*
X282400676Y-69534866D02*
X283637676Y-69534866D01*
X282398676Y-69574866D02*
X283637676Y-69574866D01*
X285317676Y-69574866D02*
X286556676Y-69574866D01*
X282397676Y-69614866D02*
X283637676Y-69614866D01*
X285317676Y-69614866D02*
X286557676Y-69614866D01*
X282397676Y-69654866D02*
X283637676Y-69654866D01*
X285317676Y-69654866D02*
X286557676Y-69654866D01*
X286597676Y-69654866D02*
G75*
G03*
X286597676Y-69654866I-2120000J0D01*
G01*
X326760238Y-81385040D02*
X326760238Y-80127040D01*
X328600238Y-81385040D02*
X328600238Y-80127040D01*
X340986112Y-81385040D02*
X340986112Y-80127040D01*
X342826112Y-81385040D02*
X342826112Y-80127040D01*
X294486316Y-79058982D02*
X290646316Y-79058982D01*
X294486316Y-77218982D02*
X290646316Y-77218982D01*
X294486316Y-76565517D02*
X290646316Y-76565517D01*
X294486316Y-74725517D02*
X290646316Y-74725517D01*
X294486316Y-74072052D02*
X290646316Y-74072052D01*
X294486316Y-72232052D02*
X290646316Y-72232052D01*
X290646316Y-69660211D02*
X294486316Y-69660211D01*
X290646316Y-71500211D02*
X294486316Y-71500211D01*
X290646316Y-67140499D02*
X294486316Y-67140499D01*
X290646316Y-68980499D02*
X294486316Y-68980499D01*
X290646316Y-64647034D02*
X294486316Y-64647034D01*
X290646316Y-66487034D02*
X294486316Y-66487034D01*
X294486316Y-63993204D02*
X290646316Y-63993204D01*
X294486316Y-62153204D02*
X290646316Y-62153204D01*
X298423430Y-62309182D02*
X298423430Y-67769182D01*
X349343430Y-62309182D02*
X298423430Y-62309182D01*
X349343430Y-75229182D02*
X349343430Y-62309182D01*
X298423430Y-75229182D02*
X349343430Y-75229182D01*
X298423430Y-69769182D02*
X298423430Y-75229182D01*
X298423430Y-67769182D02*
G75*
G02*
X298423430Y-69769182I0J-1000000D01*
G01*
X338011644Y-77731240D02*
X331611644Y-77731240D01*
X338011644Y-82781240D02*
X331611644Y-82781240D01*
X338011644Y-77731240D02*
G75*
G02*
X338011644Y-82781240I0J-2525000D01*
G01*
X331611644Y-77731240D02*
G75*
G03*
X331611644Y-82781240I0J-2525000D01*
G01*
X283837716Y-60734830D02*
X283837716Y-60890830D01*
X283837716Y-63050830D02*
X283837716Y-63206830D01*
X286438846Y-63050667D02*
G75*
G02*
X284356755Y-63050830I-1041130J1079837D01*
G01*
X286438846Y-60890993D02*
G75*
G03*
X284356755Y-60890830I-1041130J-1079837D01*
G01*
X287070051Y-63049438D02*
G75*
G02*
X283837716Y-63206346I-1672335J1078608D01*
G01*
X287070051Y-60892222D02*
G75*
G03*
X283837716Y-60735314I-1672335J-1078608D01*
G01*
X239485732Y-65336074D02*
X243985732Y-65336074D01*
X238235732Y-61336074D02*
X238235732Y-62836074D01*
X243985732Y-58836074D02*
X239485732Y-58836074D01*
X245235732Y-62836074D02*
X245235732Y-61336074D01*
X227485732Y-65336074D02*
X231985732Y-65336074D01*
X226235732Y-61336074D02*
X226235732Y-62836074D01*
X231985732Y-58836074D02*
X227485732Y-58836074D01*
X233235732Y-62836074D02*
X233235732Y-61336074D01*
X63070284Y-69565612D02*
X64150284Y-69565612D01*
X63070284Y-70615612D02*
X64150284Y-70615612D01*
X63600284Y-69675612D02*
X63070284Y-70585612D01*
X63610284Y-69665612D02*
X64150284Y-70615612D01*
X62600284Y-68535612D02*
X64600284Y-68535612D01*
X63610284Y-68275612D02*
X63610284Y-69555612D01*
X63610284Y-71735612D02*
X63610284Y-70615612D01*
X62600284Y-71525612D02*
X64590284Y-71525612D01*
X64600284Y-68535612D02*
X64590284Y-71525612D01*
X62600284Y-68545612D02*
X62600284Y-71515612D01*
X72578673Y-74526199D02*
X73658673Y-74526199D01*
X72578673Y-75576199D02*
X73658673Y-75576199D01*
X73108673Y-74636199D02*
X72578673Y-75546199D01*
X73118673Y-74626199D02*
X73658673Y-75576199D01*
X72108673Y-73496199D02*
X74108673Y-73496199D01*
X73118673Y-73236199D02*
X73118673Y-74516199D01*
X73118673Y-76696199D02*
X73118673Y-75576199D01*
X72108673Y-76486199D02*
X74098673Y-76486199D01*
X74108673Y-73496199D02*
X74098673Y-76486199D01*
X72108673Y-73506199D02*
X72108673Y-76476199D01*
X85256525Y-74526199D02*
X86336525Y-74526199D01*
X85256525Y-75576199D02*
X86336525Y-75576199D01*
X85786525Y-74636199D02*
X85256525Y-75546199D01*
X85796525Y-74626199D02*
X86336525Y-75576199D01*
X84786525Y-73496199D02*
X86786525Y-73496199D01*
X85796525Y-73236199D02*
X85796525Y-74516199D01*
X85796525Y-76696199D02*
X85796525Y-75576199D01*
X84786525Y-76486199D02*
X86776525Y-76486199D01*
X86786525Y-73496199D02*
X86776525Y-76486199D01*
X84786525Y-73506199D02*
X84786525Y-76476199D01*
X88425988Y-69565612D02*
X89505988Y-69565612D01*
X88425988Y-70615612D02*
X89505988Y-70615612D01*
X88955988Y-69675612D02*
X88425988Y-70585612D01*
X88965988Y-69665612D02*
X89505988Y-70615612D01*
X87955988Y-68535612D02*
X89955988Y-68535612D01*
X88965988Y-68275612D02*
X88965988Y-69555612D01*
X88965988Y-71735612D02*
X88965988Y-70615612D01*
X87955988Y-71525612D02*
X89945988Y-71525612D01*
X89955988Y-68535612D02*
X89945988Y-71525612D01*
X87955988Y-68545612D02*
X87955988Y-71515612D01*
X101103840Y-69565612D02*
X102183840Y-69565612D01*
X101103840Y-70615612D02*
X102183840Y-70615612D01*
X101633840Y-69675612D02*
X101103840Y-70585612D01*
X101643840Y-69665612D02*
X102183840Y-70615612D01*
X100633840Y-68535612D02*
X102633840Y-68535612D01*
X101643840Y-68275612D02*
X101643840Y-69555612D01*
X101643840Y-71735612D02*
X101643840Y-70615612D01*
X100633840Y-71525612D02*
X102623840Y-71525612D01*
X102633840Y-68535612D02*
X102623840Y-71525612D01*
X100633840Y-68545612D02*
X100633840Y-71515612D01*
X113781692Y-69565612D02*
X114861692Y-69565612D01*
X113781692Y-70615612D02*
X114861692Y-70615612D01*
X114311692Y-69675612D02*
X113781692Y-70585612D01*
X114321692Y-69665612D02*
X114861692Y-70615612D01*
X113311692Y-68535612D02*
X115311692Y-68535612D01*
X114321692Y-68275612D02*
X114321692Y-69555612D01*
X114321692Y-71735612D02*
X114321692Y-70615612D01*
X113311692Y-71525612D02*
X115301692Y-71525612D01*
X115311692Y-68535612D02*
X115301692Y-71525612D01*
X113311692Y-68545612D02*
X113311692Y-71515612D01*
X126459544Y-69565612D02*
X127539544Y-69565612D01*
X126459544Y-70615612D02*
X127539544Y-70615612D01*
X126989544Y-69675612D02*
X126459544Y-70585612D01*
X126999544Y-69665612D02*
X127539544Y-70615612D01*
X125989544Y-68535612D02*
X127989544Y-68535612D01*
X126999544Y-68275612D02*
X126999544Y-69555612D01*
X126999544Y-71735612D02*
X126999544Y-70615612D01*
X125989544Y-71525612D02*
X127979544Y-71525612D01*
X127989544Y-68535612D02*
X127979544Y-71525612D01*
X125989544Y-68545612D02*
X125989544Y-71515612D01*
X139137396Y-69565612D02*
X140217396Y-69565612D01*
X139137396Y-70615612D02*
X140217396Y-70615612D01*
X139667396Y-69675612D02*
X139137396Y-70585612D01*
X139677396Y-69665612D02*
X140217396Y-70615612D01*
X138667396Y-68535612D02*
X140667396Y-68535612D01*
X139677396Y-68275612D02*
X139677396Y-69555612D01*
X139677396Y-71735612D02*
X139677396Y-70615612D01*
X138667396Y-71525612D02*
X140657396Y-71525612D01*
X140667396Y-68535612D02*
X140657396Y-71525612D01*
X138667396Y-68545612D02*
X138667396Y-71515612D01*
X151815248Y-69565612D02*
X152895248Y-69565612D01*
X151815248Y-70615612D02*
X152895248Y-70615612D01*
X152345248Y-69675612D02*
X151815248Y-70585612D01*
X152355248Y-69665612D02*
X152895248Y-70615612D01*
X151345248Y-68535612D02*
X153345248Y-68535612D01*
X152355248Y-68275612D02*
X152355248Y-69555612D01*
X152355248Y-71735612D02*
X152355248Y-70615612D01*
X151345248Y-71525612D02*
X153335248Y-71525612D01*
X153345248Y-68535612D02*
X153335248Y-71525612D01*
X151345248Y-68545612D02*
X151345248Y-71515612D01*
X164493100Y-69565612D02*
X165573100Y-69565612D01*
X164493100Y-70615612D02*
X165573100Y-70615612D01*
X165023100Y-69675612D02*
X164493100Y-70585612D01*
X165033100Y-69665612D02*
X165573100Y-70615612D01*
X164023100Y-68535612D02*
X166023100Y-68535612D01*
X165033100Y-68275612D02*
X165033100Y-69555612D01*
X165033100Y-71735612D02*
X165033100Y-70615612D01*
X164023100Y-71525612D02*
X166013100Y-71525612D01*
X166023100Y-68535612D02*
X166013100Y-71525612D01*
X164023100Y-68545612D02*
X164023100Y-71515612D01*
X177170952Y-69565612D02*
X178250952Y-69565612D01*
X177170952Y-70615612D02*
X178250952Y-70615612D01*
X177700952Y-69675612D02*
X177170952Y-70585612D01*
X177710952Y-69665612D02*
X178250952Y-70615612D01*
X176700952Y-68535612D02*
X178700952Y-68535612D01*
X177710952Y-68275612D02*
X177710952Y-69555612D01*
X177710952Y-71735612D02*
X177710952Y-70615612D01*
X176700952Y-71525612D02*
X178690952Y-71525612D01*
X178700952Y-68535612D02*
X178690952Y-71525612D01*
X176700952Y-68545612D02*
X176700952Y-71515612D01*
X189848804Y-69565612D02*
X190928804Y-69565612D01*
X189848804Y-70615612D02*
X190928804Y-70615612D01*
X190378804Y-69675612D02*
X189848804Y-70585612D01*
X190388804Y-69665612D02*
X190928804Y-70615612D01*
X189378804Y-68535612D02*
X191378804Y-68535612D01*
X190388804Y-68275612D02*
X190388804Y-69555612D01*
X190388804Y-71735612D02*
X190388804Y-70615612D01*
X189378804Y-71525612D02*
X191368804Y-71525612D01*
X191378804Y-68535612D02*
X191368804Y-71525612D01*
X189378804Y-68545612D02*
X189378804Y-71515612D01*
X202526656Y-69565612D02*
X203606656Y-69565612D01*
X202526656Y-70615612D02*
X203606656Y-70615612D01*
X203056656Y-69675612D02*
X202526656Y-70585612D01*
X203066656Y-69665612D02*
X203606656Y-70615612D01*
X202056656Y-68535612D02*
X204056656Y-68535612D01*
X203066656Y-68275612D02*
X203066656Y-69555612D01*
X203066656Y-71735612D02*
X203066656Y-70615612D01*
X202056656Y-71525612D02*
X204046656Y-71525612D01*
X204056656Y-68535612D02*
X204046656Y-71525612D01*
X202056656Y-68545612D02*
X202056656Y-71515612D01*
X215204508Y-69565612D02*
X216284508Y-69565612D01*
X215204508Y-70615612D02*
X216284508Y-70615612D01*
X215734508Y-69675612D02*
X215204508Y-70585612D01*
X215744508Y-69665612D02*
X216284508Y-70615612D01*
X214734508Y-68535612D02*
X216734508Y-68535612D01*
X215744508Y-68275612D02*
X215744508Y-69555612D01*
X215744508Y-71735612D02*
X215744508Y-70615612D01*
X214734508Y-71525612D02*
X216724508Y-71525612D01*
X216734508Y-68535612D02*
X216724508Y-71525612D01*
X214734508Y-68545612D02*
X214734508Y-71515612D01*
X227812376Y-69565612D02*
X228892376Y-69565612D01*
X227812376Y-70615612D02*
X228892376Y-70615612D01*
X228342376Y-69675612D02*
X227812376Y-70585612D01*
X228352376Y-69665612D02*
X228892376Y-70615612D01*
X227342376Y-68535612D02*
X229342376Y-68535612D01*
X228352376Y-68275612D02*
X228352376Y-69555612D01*
X228352376Y-71735612D02*
X228352376Y-70615612D01*
X227342376Y-71525612D02*
X229332376Y-71525612D01*
X229342376Y-68535612D02*
X229332376Y-71525612D01*
X227342376Y-68545612D02*
X227342376Y-71515612D01*
X275011929Y-74526199D02*
X276091929Y-74526199D01*
X275011929Y-75576199D02*
X276091929Y-75576199D01*
X275541929Y-74636199D02*
X275011929Y-75546199D01*
X275551929Y-74626199D02*
X276091929Y-75576199D01*
X274541929Y-73496199D02*
X276541929Y-73496199D01*
X275551929Y-73236199D02*
X275551929Y-74516199D01*
X275551929Y-76696199D02*
X275551929Y-75576199D01*
X274541929Y-76486199D02*
X276531929Y-76486199D01*
X276541929Y-73496199D02*
X276531929Y-76486199D01*
X274541929Y-73506199D02*
X274541929Y-76476199D01*
X66239747Y-71219141D02*
X67319747Y-71219141D01*
X66239747Y-72269141D02*
X67319747Y-72269141D01*
X66769747Y-71329141D02*
X66239747Y-72239141D01*
X66779747Y-71319141D02*
X67319747Y-72269141D01*
X65769747Y-70189141D02*
X67769747Y-70189141D01*
X66779747Y-69929141D02*
X66779747Y-71209141D01*
X66779747Y-73389141D02*
X66779747Y-72269141D01*
X65769747Y-73179141D02*
X67759747Y-73179141D01*
X67769747Y-70189141D02*
X67759747Y-73179141D01*
X65769747Y-70199141D02*
X65769747Y-73169141D01*
X82087062Y-72872670D02*
X83167062Y-72872670D01*
X82087062Y-73922670D02*
X83167062Y-73922670D01*
X82617062Y-72982670D02*
X82087062Y-73892670D01*
X82627062Y-72972670D02*
X83167062Y-73922670D01*
X81617062Y-71842670D02*
X83617062Y-71842670D01*
X82627062Y-71582670D02*
X82627062Y-72862670D01*
X82627062Y-75042670D02*
X82627062Y-73922670D01*
X81617062Y-74832670D02*
X83607062Y-74832670D01*
X83617062Y-71842670D02*
X83607062Y-74832670D01*
X81617062Y-71852670D02*
X81617062Y-74822670D01*
X91595451Y-71219141D02*
X92675451Y-71219141D01*
X91595451Y-72269141D02*
X92675451Y-72269141D01*
X92125451Y-71329141D02*
X91595451Y-72239141D01*
X92135451Y-71319141D02*
X92675451Y-72269141D01*
X91125451Y-70189141D02*
X93125451Y-70189141D01*
X92135451Y-69929141D02*
X92135451Y-71209141D01*
X92135451Y-73389141D02*
X92135451Y-72269141D01*
X91125451Y-73179141D02*
X93115451Y-73179141D01*
X93125451Y-70189141D02*
X93115451Y-73179141D01*
X91125451Y-70199141D02*
X91125451Y-73169141D01*
X104273303Y-71219141D02*
X105353303Y-71219141D01*
X104273303Y-72269141D02*
X105353303Y-72269141D01*
X104803303Y-71329141D02*
X104273303Y-72239141D01*
X104813303Y-71319141D02*
X105353303Y-72269141D01*
X103803303Y-70189141D02*
X105803303Y-70189141D01*
X104813303Y-69929141D02*
X104813303Y-71209141D01*
X104813303Y-73389141D02*
X104813303Y-72269141D01*
X103803303Y-73179141D02*
X105793303Y-73179141D01*
X105803303Y-70189141D02*
X105793303Y-73179141D01*
X103803303Y-70199141D02*
X103803303Y-73169141D01*
X116951155Y-71219141D02*
X118031155Y-71219141D01*
X116951155Y-72269141D02*
X118031155Y-72269141D01*
X117481155Y-71329141D02*
X116951155Y-72239141D01*
X117491155Y-71319141D02*
X118031155Y-72269141D01*
X116481155Y-70189141D02*
X118481155Y-70189141D01*
X117491155Y-69929141D02*
X117491155Y-71209141D01*
X117491155Y-73389141D02*
X117491155Y-72269141D01*
X116481155Y-73179141D02*
X118471155Y-73179141D01*
X118481155Y-70189141D02*
X118471155Y-73179141D01*
X116481155Y-70199141D02*
X116481155Y-73169141D01*
X129629007Y-71219141D02*
X130709007Y-71219141D01*
X129629007Y-72269141D02*
X130709007Y-72269141D01*
X130159007Y-71329141D02*
X129629007Y-72239141D01*
X130169007Y-71319141D02*
X130709007Y-72269141D01*
X129159007Y-70189141D02*
X131159007Y-70189141D01*
X130169007Y-69929141D02*
X130169007Y-71209141D01*
X130169007Y-73389141D02*
X130169007Y-72269141D01*
X129159007Y-73179141D02*
X131149007Y-73179141D01*
X131159007Y-70189141D02*
X131149007Y-73179141D01*
X129159007Y-70199141D02*
X129159007Y-73169141D01*
X142306859Y-71219141D02*
X143386859Y-71219141D01*
X142306859Y-72269141D02*
X143386859Y-72269141D01*
X142836859Y-71329141D02*
X142306859Y-72239141D01*
X142846859Y-71319141D02*
X143386859Y-72269141D01*
X141836859Y-70189141D02*
X143836859Y-70189141D01*
X142846859Y-69929141D02*
X142846859Y-71209141D01*
X142846859Y-73389141D02*
X142846859Y-72269141D01*
X141836859Y-73179141D02*
X143826859Y-73179141D01*
X143836859Y-70189141D02*
X143826859Y-73179141D01*
X141836859Y-70199141D02*
X141836859Y-73169141D01*
X154984711Y-71219141D02*
X156064711Y-71219141D01*
X154984711Y-72269141D02*
X156064711Y-72269141D01*
X155514711Y-71329141D02*
X154984711Y-72239141D01*
X155524711Y-71319141D02*
X156064711Y-72269141D01*
X154514711Y-70189141D02*
X156514711Y-70189141D01*
X155524711Y-69929141D02*
X155524711Y-71209141D01*
X155524711Y-73389141D02*
X155524711Y-72269141D01*
X154514711Y-73179141D02*
X156504711Y-73179141D01*
X156514711Y-70189141D02*
X156504711Y-73179141D01*
X154514711Y-70199141D02*
X154514711Y-73169141D01*
X167662563Y-71219141D02*
X168742563Y-71219141D01*
X167662563Y-72269141D02*
X168742563Y-72269141D01*
X168192563Y-71329141D02*
X167662563Y-72239141D01*
X168202563Y-71319141D02*
X168742563Y-72269141D01*
X167192563Y-70189141D02*
X169192563Y-70189141D01*
X168202563Y-69929141D02*
X168202563Y-71209141D01*
X168202563Y-73389141D02*
X168202563Y-72269141D01*
X167192563Y-73179141D02*
X169182563Y-73179141D01*
X169192563Y-70189141D02*
X169182563Y-73179141D01*
X167192563Y-70199141D02*
X167192563Y-73169141D01*
X180340415Y-71219141D02*
X181420415Y-71219141D01*
X180340415Y-72269141D02*
X181420415Y-72269141D01*
X180870415Y-71329141D02*
X180340415Y-72239141D01*
X180880415Y-71319141D02*
X181420415Y-72269141D01*
X179870415Y-70189141D02*
X181870415Y-70189141D01*
X180880415Y-69929141D02*
X180880415Y-71209141D01*
X180880415Y-73389141D02*
X180880415Y-72269141D01*
X179870415Y-73179141D02*
X181860415Y-73179141D01*
X181870415Y-70189141D02*
X181860415Y-73179141D01*
X179870415Y-70199141D02*
X179870415Y-73169141D01*
X193018267Y-71219141D02*
X194098267Y-71219141D01*
X193018267Y-72269141D02*
X194098267Y-72269141D01*
X193548267Y-71329141D02*
X193018267Y-72239141D01*
X193558267Y-71319141D02*
X194098267Y-72269141D01*
X192548267Y-70189141D02*
X194548267Y-70189141D01*
X193558267Y-69929141D02*
X193558267Y-71209141D01*
X193558267Y-73389141D02*
X193558267Y-72269141D01*
X192548267Y-73179141D02*
X194538267Y-73179141D01*
X194548267Y-70189141D02*
X194538267Y-73179141D01*
X192548267Y-70199141D02*
X192548267Y-73169141D01*
X205696119Y-71219141D02*
X206776119Y-71219141D01*
X205696119Y-72269141D02*
X206776119Y-72269141D01*
X206226119Y-71329141D02*
X205696119Y-72239141D01*
X206236119Y-71319141D02*
X206776119Y-72269141D01*
X205226119Y-70189141D02*
X207226119Y-70189141D01*
X206236119Y-69929141D02*
X206236119Y-71209141D01*
X206236119Y-73389141D02*
X206236119Y-72269141D01*
X205226119Y-73179141D02*
X207216119Y-73179141D01*
X207226119Y-70189141D02*
X207216119Y-73179141D01*
X205226119Y-70199141D02*
X205226119Y-73169141D01*
X218356475Y-71219141D02*
X219436475Y-71219141D01*
X218356475Y-72269141D02*
X219436475Y-72269141D01*
X218886475Y-71329141D02*
X218356475Y-72239141D01*
X218896475Y-71319141D02*
X219436475Y-72269141D01*
X217886475Y-70189141D02*
X219886475Y-70189141D01*
X218896475Y-69929141D02*
X218896475Y-71209141D01*
X218896475Y-73389141D02*
X218896475Y-72269141D01*
X217886475Y-73179141D02*
X219876475Y-73179141D01*
X219886475Y-70189141D02*
X219876475Y-73179141D01*
X217886475Y-70199141D02*
X217886475Y-73169141D01*
X230963149Y-71219141D02*
X232043149Y-71219141D01*
X230963149Y-72269141D02*
X232043149Y-72269141D01*
X231493149Y-71329141D02*
X230963149Y-72239141D01*
X231503149Y-71319141D02*
X232043149Y-72269141D01*
X230493149Y-70189141D02*
X232493149Y-70189141D01*
X231503149Y-69929141D02*
X231503149Y-71209141D01*
X231503149Y-73389141D02*
X231503149Y-72269141D01*
X230493149Y-73179141D02*
X232483149Y-73179141D01*
X232493149Y-70189141D02*
X232483149Y-73179141D01*
X230493149Y-70199141D02*
X230493149Y-73169141D01*
X271923205Y-72872670D02*
X273003205Y-72872670D01*
X271923205Y-73922670D02*
X273003205Y-73922670D01*
X272453205Y-72982670D02*
X271923205Y-73892670D01*
X272463205Y-72972670D02*
X273003205Y-73922670D01*
X271453205Y-71842670D02*
X273453205Y-71842670D01*
X272463205Y-71582670D02*
X272463205Y-72862670D01*
X272463205Y-75042670D02*
X272463205Y-73922670D01*
X271453205Y-74832670D02*
X273443205Y-74832670D01*
X273453205Y-71842670D02*
X273443205Y-74832670D01*
X271453205Y-71852670D02*
X271453205Y-74822670D01*
X69409210Y-72872670D02*
X70489210Y-72872670D01*
X69409210Y-73922670D02*
X70489210Y-73922670D01*
X69939210Y-72982670D02*
X69409210Y-73892670D01*
X69949210Y-72972670D02*
X70489210Y-73922670D01*
X68939210Y-71842670D02*
X70939210Y-71842670D01*
X69949210Y-71582670D02*
X69949210Y-72862670D01*
X69949210Y-75042670D02*
X69949210Y-73922670D01*
X68939210Y-74832670D02*
X70929210Y-74832670D01*
X70939210Y-71842670D02*
X70929210Y-74832670D01*
X68939210Y-71852670D02*
X68939210Y-74822670D01*
X78917599Y-71219141D02*
X79997599Y-71219141D01*
X78917599Y-72269141D02*
X79997599Y-72269141D01*
X79447599Y-71329141D02*
X78917599Y-72239141D01*
X79457599Y-71319141D02*
X79997599Y-72269141D01*
X78447599Y-70189141D02*
X80447599Y-70189141D01*
X79457599Y-69929141D02*
X79457599Y-71209141D01*
X79457599Y-73389141D02*
X79457599Y-72269141D01*
X78447599Y-73179141D02*
X80437599Y-73179141D01*
X80447599Y-70189141D02*
X80437599Y-73179141D01*
X78447599Y-70199141D02*
X78447599Y-73169141D01*
X94764914Y-72872670D02*
X95844914Y-72872670D01*
X94764914Y-73922670D02*
X95844914Y-73922670D01*
X95294914Y-72982670D02*
X94764914Y-73892670D01*
X95304914Y-72972670D02*
X95844914Y-73922670D01*
X94294914Y-71842670D02*
X96294914Y-71842670D01*
X95304914Y-71582670D02*
X95304914Y-72862670D01*
X95304914Y-75042670D02*
X95304914Y-73922670D01*
X94294914Y-74832670D02*
X96284914Y-74832670D01*
X96294914Y-71842670D02*
X96284914Y-74832670D01*
X94294914Y-71852670D02*
X94294914Y-74822670D01*
X107442766Y-72872670D02*
X108522766Y-72872670D01*
X107442766Y-73922670D02*
X108522766Y-73922670D01*
X107972766Y-72982670D02*
X107442766Y-73892670D01*
X107982766Y-72972670D02*
X108522766Y-73922670D01*
X106972766Y-71842670D02*
X108972766Y-71842670D01*
X107982766Y-71582670D02*
X107982766Y-72862670D01*
X107982766Y-75042670D02*
X107982766Y-73922670D01*
X106972766Y-74832670D02*
X108962766Y-74832670D01*
X108972766Y-71842670D02*
X108962766Y-74832670D01*
X106972766Y-71852670D02*
X106972766Y-74822670D01*
X120120618Y-72872670D02*
X121200618Y-72872670D01*
X120120618Y-73922670D02*
X121200618Y-73922670D01*
X120650618Y-72982670D02*
X120120618Y-73892670D01*
X120660618Y-72972670D02*
X121200618Y-73922670D01*
X119650618Y-71842670D02*
X121650618Y-71842670D01*
X120660618Y-71582670D02*
X120660618Y-72862670D01*
X120660618Y-75042670D02*
X120660618Y-73922670D01*
X119650618Y-74832670D02*
X121640618Y-74832670D01*
X121650618Y-71842670D02*
X121640618Y-74832670D01*
X119650618Y-71852670D02*
X119650618Y-74822670D01*
X132798470Y-72872670D02*
X133878470Y-72872670D01*
X132798470Y-73922670D02*
X133878470Y-73922670D01*
X133328470Y-72982670D02*
X132798470Y-73892670D01*
X133338470Y-72972670D02*
X133878470Y-73922670D01*
X132328470Y-71842670D02*
X134328470Y-71842670D01*
X133338470Y-71582670D02*
X133338470Y-72862670D01*
X133338470Y-75042670D02*
X133338470Y-73922670D01*
X132328470Y-74832670D02*
X134318470Y-74832670D01*
X134328470Y-71842670D02*
X134318470Y-74832670D01*
X132328470Y-71852670D02*
X132328470Y-74822670D01*
X145476322Y-72872670D02*
X146556322Y-72872670D01*
X145476322Y-73922670D02*
X146556322Y-73922670D01*
X146006322Y-72982670D02*
X145476322Y-73892670D01*
X146016322Y-72972670D02*
X146556322Y-73922670D01*
X145006322Y-71842670D02*
X147006322Y-71842670D01*
X146016322Y-71582670D02*
X146016322Y-72862670D01*
X146016322Y-75042670D02*
X146016322Y-73922670D01*
X145006322Y-74832670D02*
X146996322Y-74832670D01*
X147006322Y-71842670D02*
X146996322Y-74832670D01*
X145006322Y-71852670D02*
X145006322Y-74822670D01*
X158154174Y-72872670D02*
X159234174Y-72872670D01*
X158154174Y-73922670D02*
X159234174Y-73922670D01*
X158684174Y-72982670D02*
X158154174Y-73892670D01*
X158694174Y-72972670D02*
X159234174Y-73922670D01*
X157684174Y-71842670D02*
X159684174Y-71842670D01*
X158694174Y-71582670D02*
X158694174Y-72862670D01*
X158694174Y-75042670D02*
X158694174Y-73922670D01*
X157684174Y-74832670D02*
X159674174Y-74832670D01*
X159684174Y-71842670D02*
X159674174Y-74832670D01*
X157684174Y-71852670D02*
X157684174Y-74822670D01*
X170832026Y-72872670D02*
X171912026Y-72872670D01*
X170832026Y-73922670D02*
X171912026Y-73922670D01*
X171362026Y-72982670D02*
X170832026Y-73892670D01*
X171372026Y-72972670D02*
X171912026Y-73922670D01*
X170362026Y-71842670D02*
X172362026Y-71842670D01*
X171372026Y-71582670D02*
X171372026Y-72862670D01*
X171372026Y-75042670D02*
X171372026Y-73922670D01*
X170362026Y-74832670D02*
X172352026Y-74832670D01*
X172362026Y-71842670D02*
X172352026Y-74832670D01*
X170362026Y-71852670D02*
X170362026Y-74822670D01*
X183509878Y-72872670D02*
X184589878Y-72872670D01*
X183509878Y-73922670D02*
X184589878Y-73922670D01*
X184039878Y-72982670D02*
X183509878Y-73892670D01*
X184049878Y-72972670D02*
X184589878Y-73922670D01*
X183039878Y-71842670D02*
X185039878Y-71842670D01*
X184049878Y-71582670D02*
X184049878Y-72862670D01*
X184049878Y-75042670D02*
X184049878Y-73922670D01*
X183039878Y-74832670D02*
X185029878Y-74832670D01*
X185039878Y-71842670D02*
X185029878Y-74832670D01*
X183039878Y-71852670D02*
X183039878Y-74822670D01*
X196187730Y-72872670D02*
X197267730Y-72872670D01*
X196187730Y-73922670D02*
X197267730Y-73922670D01*
X196717730Y-72982670D02*
X196187730Y-73892670D01*
X196727730Y-72972670D02*
X197267730Y-73922670D01*
X195717730Y-71842670D02*
X197717730Y-71842670D01*
X196727730Y-71582670D02*
X196727730Y-72862670D01*
X196727730Y-75042670D02*
X196727730Y-73922670D01*
X195717730Y-74832670D02*
X197707730Y-74832670D01*
X197717730Y-71842670D02*
X197707730Y-74832670D01*
X195717730Y-71852670D02*
X195717730Y-74822670D01*
X208865582Y-72872670D02*
X209945582Y-72872670D01*
X208865582Y-73922670D02*
X209945582Y-73922670D01*
X209395582Y-72982670D02*
X208865582Y-73892670D01*
X209405582Y-72972670D02*
X209945582Y-73922670D01*
X208395582Y-71842670D02*
X210395582Y-71842670D01*
X209405582Y-71582670D02*
X209405582Y-72862670D01*
X209405582Y-75042670D02*
X209405582Y-73922670D01*
X208395582Y-74832670D02*
X210385582Y-74832670D01*
X210395582Y-71842670D02*
X210385582Y-74832670D01*
X208395582Y-71852670D02*
X208395582Y-74822670D01*
X234113922Y-72872670D02*
X235193922Y-72872670D01*
X234113922Y-73922670D02*
X235193922Y-73922670D01*
X234643922Y-72982670D02*
X234113922Y-73892670D01*
X234653922Y-72972670D02*
X235193922Y-73922670D01*
X233643922Y-71842670D02*
X235643922Y-71842670D01*
X234653922Y-71582670D02*
X234653922Y-72862670D01*
X234653922Y-75042670D02*
X234653922Y-73922670D01*
X233643922Y-74832670D02*
X235633922Y-74832670D01*
X235643922Y-71842670D02*
X235633922Y-74832670D01*
X233643922Y-71852670D02*
X233643922Y-74822670D01*
X268834481Y-71219141D02*
X269914481Y-71219141D01*
X268834481Y-72269141D02*
X269914481Y-72269141D01*
X269364481Y-71329141D02*
X268834481Y-72239141D01*
X269374481Y-71319141D02*
X269914481Y-72269141D01*
X268364481Y-70189141D02*
X270364481Y-70189141D01*
X269374481Y-69929141D02*
X269374481Y-71209141D01*
X269374481Y-73389141D02*
X269374481Y-72269141D01*
X268364481Y-73179141D02*
X270354481Y-73179141D01*
X270364481Y-70189141D02*
X270354481Y-73179141D01*
X268364481Y-70199141D02*
X268364481Y-73169141D01*
X97934377Y-74526199D02*
X99014377Y-74526199D01*
X97934377Y-75576199D02*
X99014377Y-75576199D01*
X98464377Y-74636199D02*
X97934377Y-75546199D01*
X98474377Y-74626199D02*
X99014377Y-75576199D01*
X97464377Y-73496199D02*
X99464377Y-73496199D01*
X98474377Y-73236199D02*
X98474377Y-74516199D01*
X98474377Y-76696199D02*
X98474377Y-75576199D01*
X97464377Y-76486199D02*
X99454377Y-76486199D01*
X99464377Y-73496199D02*
X99454377Y-76486199D01*
X97464377Y-73506199D02*
X97464377Y-76476199D01*
X110612229Y-74526199D02*
X111692229Y-74526199D01*
X110612229Y-75576199D02*
X111692229Y-75576199D01*
X111142229Y-74636199D02*
X110612229Y-75546199D01*
X111152229Y-74626199D02*
X111692229Y-75576199D01*
X110142229Y-73496199D02*
X112142229Y-73496199D01*
X111152229Y-73236199D02*
X111152229Y-74516199D01*
X111152229Y-76696199D02*
X111152229Y-75576199D01*
X110142229Y-76486199D02*
X112132229Y-76486199D01*
X112142229Y-73496199D02*
X112132229Y-76486199D01*
X110142229Y-73506199D02*
X110142229Y-76476199D01*
X123290081Y-74526199D02*
X124370081Y-74526199D01*
X123290081Y-75576199D02*
X124370081Y-75576199D01*
X123820081Y-74636199D02*
X123290081Y-75546199D01*
X123830081Y-74626199D02*
X124370081Y-75576199D01*
X122820081Y-73496199D02*
X124820081Y-73496199D01*
X123830081Y-73236199D02*
X123830081Y-74516199D01*
X123830081Y-76696199D02*
X123830081Y-75576199D01*
X122820081Y-76486199D02*
X124810081Y-76486199D01*
X124820081Y-73496199D02*
X124810081Y-76486199D01*
X122820081Y-73506199D02*
X122820081Y-76476199D01*
X135967933Y-74526199D02*
X137047933Y-74526199D01*
X135967933Y-75576199D02*
X137047933Y-75576199D01*
X136497933Y-74636199D02*
X135967933Y-75546199D01*
X136507933Y-74626199D02*
X137047933Y-75576199D01*
X135497933Y-73496199D02*
X137497933Y-73496199D01*
X136507933Y-73236199D02*
X136507933Y-74516199D01*
X136507933Y-76696199D02*
X136507933Y-75576199D01*
X135497933Y-76486199D02*
X137487933Y-76486199D01*
X137497933Y-73496199D02*
X137487933Y-76486199D01*
X135497933Y-73506199D02*
X135497933Y-76476199D01*
X148645785Y-74526199D02*
X149725785Y-74526199D01*
X148645785Y-75576199D02*
X149725785Y-75576199D01*
X149175785Y-74636199D02*
X148645785Y-75546199D01*
X149185785Y-74626199D02*
X149725785Y-75576199D01*
X148175785Y-73496199D02*
X150175785Y-73496199D01*
X149185785Y-73236199D02*
X149185785Y-74516199D01*
X149185785Y-76696199D02*
X149185785Y-75576199D01*
X148175785Y-76486199D02*
X150165785Y-76486199D01*
X150175785Y-73496199D02*
X150165785Y-76486199D01*
X148175785Y-73506199D02*
X148175785Y-76476199D01*
X161323637Y-74526199D02*
X162403637Y-74526199D01*
X161323637Y-75576199D02*
X162403637Y-75576199D01*
X161853637Y-74636199D02*
X161323637Y-75546199D01*
X161863637Y-74626199D02*
X162403637Y-75576199D01*
X160853637Y-73496199D02*
X162853637Y-73496199D01*
X161863637Y-73236199D02*
X161863637Y-74516199D01*
X161863637Y-76696199D02*
X161863637Y-75576199D01*
X160853637Y-76486199D02*
X162843637Y-76486199D01*
X162853637Y-73496199D02*
X162843637Y-76486199D01*
X160853637Y-73506199D02*
X160853637Y-76476199D01*
X174001489Y-74526199D02*
X175081489Y-74526199D01*
X174001489Y-75576199D02*
X175081489Y-75576199D01*
X174531489Y-74636199D02*
X174001489Y-75546199D01*
X174541489Y-74626199D02*
X175081489Y-75576199D01*
X173531489Y-73496199D02*
X175531489Y-73496199D01*
X174541489Y-73236199D02*
X174541489Y-74516199D01*
X174541489Y-76696199D02*
X174541489Y-75576199D01*
X173531489Y-76486199D02*
X175521489Y-76486199D01*
X175531489Y-73496199D02*
X175521489Y-76486199D01*
X173531489Y-73506199D02*
X173531489Y-76476199D01*
X186679341Y-74526199D02*
X187759341Y-74526199D01*
X186679341Y-75576199D02*
X187759341Y-75576199D01*
X187209341Y-74636199D02*
X186679341Y-75546199D01*
X187219341Y-74626199D02*
X187759341Y-75576199D01*
X186209341Y-73496199D02*
X188209341Y-73496199D01*
X187219341Y-73236199D02*
X187219341Y-74516199D01*
X187219341Y-76696199D02*
X187219341Y-75576199D01*
X186209341Y-76486199D02*
X188199341Y-76486199D01*
X188209341Y-73496199D02*
X188199341Y-76486199D01*
X186209341Y-73506199D02*
X186209341Y-76476199D01*
X199357193Y-74526199D02*
X200437193Y-74526199D01*
X199357193Y-75576199D02*
X200437193Y-75576199D01*
X199887193Y-74636199D02*
X199357193Y-75546199D01*
X199897193Y-74626199D02*
X200437193Y-75576199D01*
X198887193Y-73496199D02*
X200887193Y-73496199D01*
X199897193Y-73236199D02*
X199897193Y-74516199D01*
X199897193Y-76696199D02*
X199897193Y-75576199D01*
X198887193Y-76486199D02*
X200877193Y-76486199D01*
X200887193Y-73496199D02*
X200877193Y-76486199D01*
X198887193Y-73506199D02*
X198887193Y-76476199D01*
X212035045Y-74526199D02*
X213115045Y-74526199D01*
X212035045Y-75576199D02*
X213115045Y-75576199D01*
X212565045Y-74636199D02*
X212035045Y-75546199D01*
X212575045Y-74626199D02*
X213115045Y-75576199D01*
X211565045Y-73496199D02*
X213565045Y-73496199D01*
X212575045Y-73236199D02*
X212575045Y-74516199D01*
X212575045Y-76696199D02*
X212575045Y-75576199D01*
X211565045Y-76486199D02*
X213555045Y-76486199D01*
X213565045Y-73496199D02*
X213555045Y-76486199D01*
X211565045Y-73506199D02*
X211565045Y-76476199D01*
X221508442Y-72872670D02*
X222588442Y-72872670D01*
X221508442Y-73922670D02*
X222588442Y-73922670D01*
X222038442Y-72982670D02*
X221508442Y-73892670D01*
X222048442Y-72972670D02*
X222588442Y-73922670D01*
X221038442Y-71842670D02*
X223038442Y-71842670D01*
X222048442Y-71582670D02*
X222048442Y-72862670D01*
X222048442Y-75042670D02*
X222048442Y-73922670D01*
X221038442Y-74832670D02*
X223028442Y-74832670D01*
X223038442Y-71842670D02*
X223028442Y-74832670D01*
X221038442Y-71852670D02*
X221038442Y-74822670D01*
X237264695Y-74526199D02*
X238344695Y-74526199D01*
X237264695Y-75576199D02*
X238344695Y-75576199D01*
X237794695Y-74636199D02*
X237264695Y-75546199D01*
X237804695Y-74626199D02*
X238344695Y-75576199D01*
X236794695Y-73496199D02*
X238794695Y-73496199D01*
X237804695Y-73236199D02*
X237804695Y-74516199D01*
X237804695Y-76696199D02*
X237804695Y-75576199D01*
X236794695Y-76486199D02*
X238784695Y-76486199D01*
X238794695Y-73496199D02*
X238784695Y-76486199D01*
X236794695Y-73506199D02*
X236794695Y-76476199D01*
X265559606Y-69565612D02*
X266639606Y-69565612D01*
X265559606Y-70615612D02*
X266639606Y-70615612D01*
X266089606Y-69675612D02*
X265559606Y-70585612D01*
X266099606Y-69665612D02*
X266639606Y-70615612D01*
X265089606Y-68535612D02*
X267089606Y-68535612D01*
X266099606Y-68275612D02*
X266099606Y-69555612D01*
X266099606Y-71735612D02*
X266099606Y-70615612D01*
X265089606Y-71525612D02*
X267079606Y-71525612D01*
X267089606Y-68535612D02*
X267079606Y-71525612D01*
X265089606Y-68545612D02*
X265089606Y-71515612D01*
X259258058Y-72872670D02*
X260338058Y-72872670D01*
X259258058Y-73922670D02*
X260338058Y-73922670D01*
X259788058Y-72982670D02*
X259258058Y-73892670D01*
X259798058Y-72972670D02*
X260338058Y-73922670D01*
X258788058Y-71842670D02*
X260788058Y-71842670D01*
X259798058Y-71582670D02*
X259798058Y-72862670D01*
X259798058Y-75042670D02*
X259798058Y-73922670D01*
X258788058Y-74832670D02*
X260778058Y-74832670D01*
X260788058Y-71842670D02*
X260778058Y-74832670D01*
X258788058Y-71852670D02*
X258788058Y-74822670D01*
X75748136Y-69565612D02*
X76828136Y-69565612D01*
X75748136Y-70615612D02*
X76828136Y-70615612D01*
X76278136Y-69675612D02*
X75748136Y-70585612D01*
X76288136Y-69665612D02*
X76828136Y-70615612D01*
X75278136Y-68535612D02*
X77278136Y-68535612D01*
X76288136Y-68275612D02*
X76288136Y-69555612D01*
X76288136Y-71735612D02*
X76288136Y-70615612D01*
X75278136Y-71525612D02*
X77268136Y-71525612D01*
X77278136Y-68535612D02*
X77268136Y-71525612D01*
X75278136Y-68545612D02*
X75278136Y-71515612D01*
X256107284Y-71219141D02*
X257187284Y-71219141D01*
X256107284Y-72269141D02*
X257187284Y-72269141D01*
X256637284Y-71329141D02*
X256107284Y-72239141D01*
X256647284Y-71319141D02*
X257187284Y-72269141D01*
X255637284Y-70189141D02*
X257637284Y-70189141D01*
X256647284Y-69929141D02*
X256647284Y-71209141D01*
X256647284Y-73389141D02*
X256647284Y-72269141D01*
X255637284Y-73179141D02*
X257627284Y-73179141D01*
X257637284Y-70189141D02*
X257627284Y-73179141D01*
X255637284Y-70199141D02*
X255637284Y-73169141D01*
X252956511Y-69565612D02*
X254036511Y-69565612D01*
X252956511Y-70615612D02*
X254036511Y-70615612D01*
X253486511Y-69675612D02*
X252956511Y-70585612D01*
X253496511Y-69665612D02*
X254036511Y-70615612D01*
X252486511Y-68535612D02*
X254486511Y-68535612D01*
X253496511Y-68275612D02*
X253496511Y-69555612D01*
X253496511Y-71735612D02*
X253496511Y-70615612D01*
X252486511Y-71525612D02*
X254476511Y-71525612D01*
X254486511Y-68535612D02*
X254476511Y-71525612D01*
X252486511Y-68545612D02*
X252486511Y-71515612D01*
X249805738Y-74526199D02*
X250885738Y-74526199D01*
X249805738Y-75576199D02*
X250885738Y-75576199D01*
X250335738Y-74636199D02*
X249805738Y-75546199D01*
X250345738Y-74626199D02*
X250885738Y-75576199D01*
X249335738Y-73496199D02*
X251335738Y-73496199D01*
X250345738Y-73236199D02*
X250345738Y-74516199D01*
X250345738Y-76696199D02*
X250345738Y-75576199D01*
X249335738Y-76486199D02*
X251325738Y-76486199D01*
X251335738Y-73496199D02*
X251325738Y-76486199D01*
X249335738Y-73506199D02*
X249335738Y-76476199D01*
X224660409Y-74526199D02*
X225740409Y-74526199D01*
X224660409Y-75576199D02*
X225740409Y-75576199D01*
X225190409Y-74636199D02*
X224660409Y-75546199D01*
X225200409Y-74626199D02*
X225740409Y-75576199D01*
X224190409Y-73496199D02*
X226190409Y-73496199D01*
X225200409Y-73236199D02*
X225200409Y-74516199D01*
X225200409Y-76696199D02*
X225200409Y-75576199D01*
X224190409Y-76486199D02*
X226180409Y-76486199D01*
X226190409Y-73496199D02*
X226180409Y-76486199D01*
X224190409Y-73506199D02*
X224190409Y-76476199D01*
X243566241Y-71219141D02*
X244646241Y-71219141D01*
X243566241Y-72269141D02*
X244646241Y-72269141D01*
X244096241Y-71329141D02*
X243566241Y-72239141D01*
X244106241Y-71319141D02*
X244646241Y-72269141D01*
X243096241Y-70189141D02*
X245096241Y-70189141D01*
X244106241Y-69929141D02*
X244106241Y-71209141D01*
X244106241Y-73389141D02*
X244106241Y-72269141D01*
X243096241Y-73179141D02*
X245086241Y-73179141D01*
X245096241Y-70189141D02*
X245086241Y-73179141D01*
X243096241Y-70199141D02*
X243096241Y-73169141D01*
X240415468Y-69565612D02*
X241495468Y-69565612D01*
X240415468Y-70615612D02*
X241495468Y-70615612D01*
X240945468Y-69675612D02*
X240415468Y-70585612D01*
X240955468Y-69665612D02*
X241495468Y-70615612D01*
X239945468Y-68535612D02*
X241945468Y-68535612D01*
X240955468Y-68275612D02*
X240955468Y-69555612D01*
X240955468Y-71735612D02*
X240955468Y-70615612D01*
X239945468Y-71525612D02*
X241935468Y-71525612D01*
X241945468Y-68535612D02*
X241935468Y-71525612D01*
X239945468Y-68545612D02*
X239945468Y-71515612D01*
X262408832Y-74526199D02*
X263488832Y-74526199D01*
X262408832Y-75576199D02*
X263488832Y-75576199D01*
X262938832Y-74636199D02*
X262408832Y-75546199D01*
X262948832Y-74626199D02*
X263488832Y-75576199D01*
X261938832Y-73496199D02*
X263938832Y-73496199D01*
X262948832Y-73236199D02*
X262948832Y-74516199D01*
X262948832Y-76696199D02*
X262948832Y-75576199D01*
X261938832Y-76486199D02*
X263928832Y-76486199D01*
X263938832Y-73496199D02*
X263928832Y-76486199D01*
X261938832Y-73506199D02*
X261938832Y-76476199D01*
X246654965Y-72872670D02*
X247734965Y-72872670D01*
X246654965Y-73922670D02*
X247734965Y-73922670D01*
X247184965Y-72982670D02*
X246654965Y-73892670D01*
X247194965Y-72972670D02*
X247734965Y-73922670D01*
X246184965Y-71842670D02*
X248184965Y-71842670D01*
X247194965Y-71582670D02*
X247194965Y-72862670D01*
X247194965Y-75042670D02*
X247194965Y-73922670D01*
X246184965Y-74832670D02*
X248174965Y-74832670D01*
X248184965Y-71842670D02*
X248174965Y-74832670D01*
X246184965Y-71852670D02*
X246184965Y-74822670D01*
X285644982Y-75252196D02*
X286724982Y-75252196D01*
X285644982Y-76302196D02*
X286724982Y-76302196D01*
X286174982Y-75362196D02*
X285644982Y-76272196D01*
X286184982Y-75352196D02*
X286724982Y-76302196D01*
X285174982Y-74222196D02*
X287174982Y-74222196D01*
X286184982Y-73962196D02*
X286184982Y-75242196D01*
X286184982Y-77422196D02*
X286184982Y-76302196D01*
X285174982Y-77212196D02*
X287164982Y-77212196D01*
X287174982Y-74222196D02*
X287164982Y-77212196D01*
X285174982Y-74232196D02*
X285174982Y-77202196D01*
X282775310Y-75252196D02*
X283855310Y-75252196D01*
X282775310Y-76302196D02*
X283855310Y-76302196D01*
X283305310Y-75362196D02*
X282775310Y-76272196D01*
X283315310Y-75352196D02*
X283855310Y-76302196D01*
X282305310Y-74222196D02*
X284305310Y-74222196D01*
X283315310Y-73962196D02*
X283315310Y-75242196D01*
X283315310Y-77422196D02*
X283315310Y-76302196D01*
X282305310Y-77212196D02*
X284295310Y-77212196D01*
X284305310Y-74222196D02*
X284295310Y-77212196D01*
X282305310Y-74232196D02*
X282305310Y-77202196D01*
D10*
X275827870Y-58606032D02*
X275827870Y-59415556D01*
X275875489Y-59510794D01*
X275923108Y-59558413D01*
X276018346Y-59606032D01*
X276208823Y-59606032D01*
X276304061Y-59558413D01*
X276351680Y-59510794D01*
X276399299Y-59415556D01*
X276399299Y-58606032D01*
X276827870Y-59558413D02*
X276970727Y-59606032D01*
X277208823Y-59606032D01*
X277304061Y-59558413D01*
X277351680Y-59510794D01*
X277399299Y-59415556D01*
X277399299Y-59320318D01*
X277351680Y-59225080D01*
X277304061Y-59177461D01*
X277208823Y-59129842D01*
X277018346Y-59082223D01*
X276923108Y-59034604D01*
X276875489Y-58986985D01*
X276827870Y-58891747D01*
X276827870Y-58796509D01*
X276875489Y-58701271D01*
X276923108Y-58653652D01*
X277018346Y-58606032D01*
X277256442Y-58606032D01*
X277399299Y-58653652D01*
X278161204Y-59082223D02*
X278304061Y-59129842D01*
X278351680Y-59177461D01*
X278399299Y-59272699D01*
X278399299Y-59415556D01*
X278351680Y-59510794D01*
X278304061Y-59558413D01*
X278208823Y-59606032D01*
X277827870Y-59606032D01*
X277827870Y-58606032D01*
X278161204Y-58606032D01*
X278256442Y-58653652D01*
X278304061Y-58701271D01*
X278351680Y-58796509D01*
X278351680Y-58891747D01*
X278304061Y-58986985D01*
X278256442Y-59034604D01*
X278161204Y-59082223D01*
X277827870Y-59082223D01*
X279351680Y-59606032D02*
X278780251Y-59606032D01*
X279065966Y-59606032D02*
X279065966Y-58606032D01*
X278970727Y-58748890D01*
X278875489Y-58844128D01*
X278780251Y-58891747D01*
X67249533Y-62619381D02*
X67392390Y-62667000D01*
X67630485Y-62667000D01*
X67725723Y-62619381D01*
X67773342Y-62571762D01*
X67820961Y-62476524D01*
X67820961Y-62381286D01*
X67773342Y-62286048D01*
X67725723Y-62238429D01*
X67630485Y-62190810D01*
X67440009Y-62143191D01*
X67344771Y-62095572D01*
X67297152Y-62047953D01*
X67249533Y-61952715D01*
X67249533Y-61857477D01*
X67297152Y-61762239D01*
X67344771Y-61714620D01*
X67440009Y-61667000D01*
X67678104Y-61667000D01*
X67820961Y-61714620D01*
X68201914Y-62619381D02*
X68344771Y-62667000D01*
X68582866Y-62667000D01*
X68678104Y-62619381D01*
X68725723Y-62571762D01*
X68773342Y-62476524D01*
X68773342Y-62381286D01*
X68725723Y-62286048D01*
X68678104Y-62238429D01*
X68582866Y-62190810D01*
X68392390Y-62143191D01*
X68297152Y-62095572D01*
X68249533Y-62047953D01*
X68201914Y-61952715D01*
X68201914Y-61857477D01*
X68249533Y-61762239D01*
X68297152Y-61714620D01*
X68392390Y-61667000D01*
X68630485Y-61667000D01*
X68773342Y-61714620D01*
X69201914Y-62667000D02*
X69201914Y-61667000D01*
X69440009Y-61667000D01*
X69582866Y-61714620D01*
X69678104Y-61809858D01*
X69725723Y-61905096D01*
X69773342Y-62095572D01*
X69773342Y-62238429D01*
X69725723Y-62428905D01*
X69678104Y-62524143D01*
X69582866Y-62619381D01*
X69440009Y-62667000D01*
X69201914Y-62667000D01*
X70725723Y-62667000D02*
X70154295Y-62667000D01*
X70440009Y-62667000D02*
X70440009Y-61667000D01*
X70344771Y-61809858D01*
X70249533Y-61905096D01*
X70154295Y-61952715D01*
X71059057Y-61667000D02*
X71678104Y-61667000D01*
X71344771Y-62047953D01*
X71487628Y-62047953D01*
X71582866Y-62095572D01*
X71630485Y-62143191D01*
X71678104Y-62238429D01*
X71678104Y-62476524D01*
X71630485Y-62571762D01*
X71582866Y-62619381D01*
X71487628Y-62667000D01*
X71201914Y-62667000D01*
X71106676Y-62619381D01*
X71059057Y-62571762D01*
X72297152Y-61667000D02*
X72392390Y-61667000D01*
X72487628Y-61714620D01*
X72535247Y-61762239D01*
X72582866Y-61857477D01*
X72630485Y-62047953D01*
X72630485Y-62286048D01*
X72582866Y-62476524D01*
X72535247Y-62571762D01*
X72487628Y-62619381D01*
X72392390Y-62667000D01*
X72297152Y-62667000D01*
X72201914Y-62619381D01*
X72154295Y-62571762D01*
X72106676Y-62476524D01*
X72059057Y-62286048D01*
X72059057Y-62047953D01*
X72106676Y-61857477D01*
X72154295Y-61762239D01*
X72201914Y-61714620D01*
X72297152Y-61667000D01*
X73487628Y-61667000D02*
X73297152Y-61667000D01*
X73201914Y-61714620D01*
X73154295Y-61762239D01*
X73059057Y-61905096D01*
X73011438Y-62095572D01*
X73011438Y-62476524D01*
X73059057Y-62571762D01*
X73106676Y-62619381D01*
X73201914Y-62667000D01*
X73392390Y-62667000D01*
X73487628Y-62619381D01*
X73535247Y-62571762D01*
X73582866Y-62476524D01*
X73582866Y-62238429D01*
X73535247Y-62143191D01*
X73487628Y-62095572D01*
X73392390Y-62047953D01*
X73201914Y-62047953D01*
X73106676Y-62095572D01*
X73059057Y-62143191D01*
X73011438Y-62238429D01*
X321801914Y-78141000D02*
X321897152Y-78141000D01*
X321992390Y-78188620D01*
X322040009Y-78236239D01*
X322087628Y-78331477D01*
X322135247Y-78521953D01*
X322135247Y-78760048D01*
X322087628Y-78950524D01*
X322040009Y-79045762D01*
X321992390Y-79093381D01*
X321897152Y-79141000D01*
X321801914Y-79141000D01*
X321706676Y-79093381D01*
X321659057Y-79045762D01*
X321611438Y-78950524D01*
X321563819Y-78760048D01*
X321563819Y-78521953D01*
X321611438Y-78331477D01*
X321659057Y-78236239D01*
X321706676Y-78188620D01*
X321801914Y-78141000D01*
X322563819Y-79045762D02*
X322611438Y-79093381D01*
X322563819Y-79141000D01*
X322516200Y-79093381D01*
X322563819Y-79045762D01*
X322563819Y-79141000D01*
X323563819Y-79141000D02*
X322992390Y-79141000D01*
X323278104Y-79141000D02*
X323278104Y-78141000D01*
X323182866Y-78283858D01*
X323087628Y-78379096D01*
X322992390Y-78426715D01*
X324420961Y-78474334D02*
X324420961Y-79141000D01*
X323992390Y-78474334D02*
X323992390Y-78998143D01*
X324040009Y-79093381D01*
X324135247Y-79141000D01*
X324278104Y-79141000D01*
X324373342Y-79093381D01*
X324420961Y-79045762D01*
X326401914Y-58303442D02*
X326497152Y-58303442D01*
X326592390Y-58351062D01*
X326640009Y-58398681D01*
X326687628Y-58493919D01*
X326735247Y-58684395D01*
X326735247Y-58922490D01*
X326687628Y-59112966D01*
X326640009Y-59208204D01*
X326592390Y-59255823D01*
X326497152Y-59303442D01*
X326401914Y-59303442D01*
X326306676Y-59255823D01*
X326259057Y-59208204D01*
X326211438Y-59112966D01*
X326163819Y-58922490D01*
X326163819Y-58684395D01*
X326211438Y-58493919D01*
X326259057Y-58398681D01*
X326306676Y-58351062D01*
X326401914Y-58303442D01*
X327163819Y-59208204D02*
X327211438Y-59255823D01*
X327163819Y-59303442D01*
X327116200Y-59255823D01*
X327163819Y-59208204D01*
X327163819Y-59303442D01*
X328163819Y-59303442D02*
X327592390Y-59303442D01*
X327878104Y-59303442D02*
X327878104Y-58303442D01*
X327782866Y-58446300D01*
X327687628Y-58541538D01*
X327592390Y-58589157D01*
X329020961Y-58636776D02*
X329020961Y-59303442D01*
X328592390Y-58636776D02*
X328592390Y-59160585D01*
X328640009Y-59255823D01*
X328735247Y-59303442D01*
X328878104Y-59303442D01*
X328973342Y-59255823D01*
X329020961Y-59208204D01*
X283540009Y-66474334D02*
X283540009Y-67141000D01*
X283301914Y-66093381D02*
X283063819Y-66807667D01*
X283682866Y-66807667D01*
X284063819Y-67045762D02*
X284111438Y-67093381D01*
X284063819Y-67141000D01*
X284016200Y-67093381D01*
X284063819Y-67045762D01*
X284063819Y-67141000D01*
X284444771Y-66141000D02*
X285111438Y-66141000D01*
X284682866Y-67141000D01*
X285920961Y-66474334D02*
X285920961Y-67141000D01*
X285492390Y-66474334D02*
X285492390Y-66998143D01*
X285540009Y-67093381D01*
X285635247Y-67141000D01*
X285778104Y-67141000D01*
X285873342Y-67093381D01*
X285920961Y-67045762D01*
X326501914Y-83336239D02*
X326549533Y-83288620D01*
X326644771Y-83241000D01*
X326882866Y-83241000D01*
X326978104Y-83288620D01*
X327025723Y-83336239D01*
X327073342Y-83431477D01*
X327073342Y-83526715D01*
X327025723Y-83669572D01*
X326454295Y-84241000D01*
X327073342Y-84241000D01*
X327454295Y-83336239D02*
X327501914Y-83288620D01*
X327597152Y-83241000D01*
X327835247Y-83241000D01*
X327930485Y-83288620D01*
X327978104Y-83336239D01*
X328025723Y-83431477D01*
X328025723Y-83526715D01*
X327978104Y-83669572D01*
X327406676Y-84241000D01*
X328025723Y-84241000D01*
X328454295Y-83574334D02*
X328454295Y-84574334D01*
X328454295Y-83621953D02*
X328549533Y-83574334D01*
X328740009Y-83574334D01*
X328835247Y-83621953D01*
X328882866Y-83669572D01*
X328930485Y-83764810D01*
X328930485Y-84050524D01*
X328882866Y-84145762D01*
X328835247Y-84193381D01*
X328740009Y-84241000D01*
X328549533Y-84241000D01*
X328454295Y-84193381D01*
X340701914Y-83336239D02*
X340749533Y-83288620D01*
X340844771Y-83241000D01*
X341082866Y-83241000D01*
X341178104Y-83288620D01*
X341225723Y-83336239D01*
X341273342Y-83431477D01*
X341273342Y-83526715D01*
X341225723Y-83669572D01*
X340654295Y-84241000D01*
X341273342Y-84241000D01*
X341654295Y-83336239D02*
X341701914Y-83288620D01*
X341797152Y-83241000D01*
X342035247Y-83241000D01*
X342130485Y-83288620D01*
X342178104Y-83336239D01*
X342225723Y-83431477D01*
X342225723Y-83526715D01*
X342178104Y-83669572D01*
X341606676Y-84241000D01*
X342225723Y-84241000D01*
X342654295Y-83574334D02*
X342654295Y-84574334D01*
X342654295Y-83621953D02*
X342749533Y-83574334D01*
X342940009Y-83574334D01*
X343035247Y-83621953D01*
X343082866Y-83669572D01*
X343130485Y-83764810D01*
X343130485Y-84050524D01*
X343082866Y-84145762D01*
X343035247Y-84193381D01*
X342940009Y-84241000D01*
X342749533Y-84241000D01*
X342654295Y-84193381D01*
X291899649Y-78551981D02*
X291442506Y-78551981D01*
X291671077Y-78551981D02*
X291671077Y-77751981D01*
X291594887Y-77866267D01*
X291518696Y-77942457D01*
X291442506Y-77980553D01*
X292242506Y-78475791D02*
X292280601Y-78513886D01*
X292242506Y-78551981D01*
X292204411Y-78513886D01*
X292242506Y-78475791D01*
X292242506Y-78551981D01*
X293004411Y-77751981D02*
X292623458Y-77751981D01*
X292585363Y-78132934D01*
X292623458Y-78094838D01*
X292699649Y-78056743D01*
X292890125Y-78056743D01*
X292966316Y-78094838D01*
X293004411Y-78132934D01*
X293042506Y-78209124D01*
X293042506Y-78399600D01*
X293004411Y-78475791D01*
X292966316Y-78513886D01*
X292890125Y-78551981D01*
X292699649Y-78551981D01*
X292623458Y-78513886D01*
X292585363Y-78475791D01*
X293385363Y-78551981D02*
X293385363Y-77751981D01*
X293461554Y-78247219D02*
X293690125Y-78551981D01*
X293690125Y-78018648D02*
X293385363Y-78323410D01*
X291518696Y-75232317D02*
X292052030Y-75232317D01*
X291709173Y-76032317D01*
X292737744Y-75232317D02*
X292356792Y-75232317D01*
X292318696Y-75613270D01*
X292356792Y-75575174D01*
X292432982Y-75537079D01*
X292623458Y-75537079D01*
X292699649Y-75575174D01*
X292737744Y-75613270D01*
X292775839Y-75689460D01*
X292775839Y-75879936D01*
X292737744Y-75956127D01*
X292699649Y-75994222D01*
X292623458Y-76032317D01*
X292432982Y-76032317D01*
X292356792Y-75994222D01*
X292318696Y-75956127D01*
X293575839Y-76032317D02*
X293309173Y-75651365D01*
X293118696Y-76032317D02*
X293118696Y-75232317D01*
X293423458Y-75232317D01*
X293499649Y-75270413D01*
X293537744Y-75308508D01*
X293575839Y-75384698D01*
X293575839Y-75498984D01*
X293537744Y-75575174D01*
X293499649Y-75613270D01*
X293423458Y-75651365D01*
X293118696Y-75651365D01*
X291518696Y-72765146D02*
X292052030Y-72765146D01*
X291709173Y-73565146D01*
X292737744Y-72765146D02*
X292356792Y-72765146D01*
X292318696Y-73146099D01*
X292356792Y-73108003D01*
X292432982Y-73069908D01*
X292623458Y-73069908D01*
X292699649Y-73108003D01*
X292737744Y-73146099D01*
X292775839Y-73222289D01*
X292775839Y-73412765D01*
X292737744Y-73488956D01*
X292699649Y-73527051D01*
X292623458Y-73565146D01*
X292432982Y-73565146D01*
X292356792Y-73527051D01*
X292318696Y-73488956D01*
X293575839Y-73565146D02*
X293309173Y-73184194D01*
X293118696Y-73565146D02*
X293118696Y-72765146D01*
X293423458Y-72765146D01*
X293499649Y-72803242D01*
X293537744Y-72841337D01*
X293575839Y-72917527D01*
X293575839Y-73031813D01*
X293537744Y-73108003D01*
X293499649Y-73146099D01*
X293423458Y-73184194D01*
X293118696Y-73184194D01*
X291823458Y-65972318D02*
X291366316Y-65972318D01*
X291594887Y-65972318D02*
X291594887Y-65172318D01*
X291518696Y-65286604D01*
X291442506Y-65362794D01*
X291366316Y-65400890D01*
X292166316Y-65896128D02*
X292204411Y-65934223D01*
X292166316Y-65972318D01*
X292128220Y-65934223D01*
X292166316Y-65896128D01*
X292166316Y-65972318D01*
X292928220Y-65172318D02*
X292547268Y-65172318D01*
X292509173Y-65553271D01*
X292547268Y-65515175D01*
X292623458Y-65477080D01*
X292813935Y-65477080D01*
X292890125Y-65515175D01*
X292928220Y-65553271D01*
X292966316Y-65629461D01*
X292966316Y-65819937D01*
X292928220Y-65896128D01*
X292890125Y-65934223D01*
X292813935Y-65972318D01*
X292623458Y-65972318D01*
X292547268Y-65934223D01*
X292509173Y-65896128D01*
X293309173Y-65972318D02*
X293309173Y-65172318D01*
X293766316Y-65972318D02*
X293423458Y-65515175D01*
X293766316Y-65172318D02*
X293309173Y-65629461D01*
X292090125Y-63483772D02*
X291632982Y-63483772D01*
X291861554Y-63483772D02*
X291861554Y-62683772D01*
X291785363Y-62798058D01*
X291709173Y-62874248D01*
X291632982Y-62912344D01*
X292585363Y-62683772D02*
X292661554Y-62683772D01*
X292737744Y-62721868D01*
X292775839Y-62759963D01*
X292813935Y-62836153D01*
X292852030Y-62988534D01*
X292852030Y-63179010D01*
X292813935Y-63331391D01*
X292775839Y-63407582D01*
X292737744Y-63445677D01*
X292661554Y-63483772D01*
X292585363Y-63483772D01*
X292509173Y-63445677D01*
X292471077Y-63407582D01*
X292432982Y-63331391D01*
X292394887Y-63179010D01*
X292394887Y-62988534D01*
X292432982Y-62836153D01*
X292471077Y-62759963D01*
X292509173Y-62721868D01*
X292585363Y-62683772D01*
X293194887Y-63483772D02*
X293194887Y-62683772D01*
X293271077Y-63179010D02*
X293499649Y-63483772D01*
X293499649Y-62950439D02*
X293194887Y-63255201D01*
X318273342Y-69055286D02*
X318749533Y-69055286D01*
X318178104Y-69341000D02*
X318511438Y-68341000D01*
X318844771Y-69341000D01*
X319035247Y-68341000D02*
X319606676Y-68341000D01*
X319320961Y-69341000D02*
X319320961Y-68341000D01*
X319940009Y-69341000D02*
X319940009Y-68674334D01*
X319940009Y-68769572D02*
X319987628Y-68721953D01*
X320082866Y-68674334D01*
X320225723Y-68674334D01*
X320320961Y-68721953D01*
X320368580Y-68817191D01*
X320368580Y-69341000D01*
X320368580Y-68817191D02*
X320416200Y-68721953D01*
X320511438Y-68674334D01*
X320654295Y-68674334D01*
X320749533Y-68721953D01*
X320797152Y-68817191D01*
X320797152Y-69341000D01*
X321654295Y-69293381D02*
X321559057Y-69341000D01*
X321368580Y-69341000D01*
X321273342Y-69293381D01*
X321225723Y-69198143D01*
X321225723Y-68817191D01*
X321273342Y-68721953D01*
X321368580Y-68674334D01*
X321559057Y-68674334D01*
X321654295Y-68721953D01*
X321701914Y-68817191D01*
X321701914Y-68912429D01*
X321225723Y-69007667D01*
X322559057Y-68674334D02*
X322559057Y-69483858D01*
X322511438Y-69579096D01*
X322463819Y-69626715D01*
X322368580Y-69674334D01*
X322225723Y-69674334D01*
X322130485Y-69626715D01*
X322559057Y-69293381D02*
X322463819Y-69341000D01*
X322273342Y-69341000D01*
X322178104Y-69293381D01*
X322130485Y-69245762D01*
X322082866Y-69150524D01*
X322082866Y-68864810D01*
X322130485Y-68769572D01*
X322178104Y-68721953D01*
X322273342Y-68674334D01*
X322463819Y-68674334D01*
X322559057Y-68721953D01*
X323463819Y-69341000D02*
X323463819Y-68817191D01*
X323416200Y-68721953D01*
X323320961Y-68674334D01*
X323130485Y-68674334D01*
X323035247Y-68721953D01*
X323463819Y-69293381D02*
X323368580Y-69341000D01*
X323130485Y-69341000D01*
X323035247Y-69293381D01*
X322987628Y-69198143D01*
X322987628Y-69102905D01*
X323035247Y-69007667D01*
X323130485Y-68960048D01*
X323368580Y-68960048D01*
X323463819Y-68912429D01*
X323844771Y-68341000D02*
X324463819Y-68341000D01*
X324130485Y-68721953D01*
X324273342Y-68721953D01*
X324368580Y-68769572D01*
X324416200Y-68817191D01*
X324463819Y-68912429D01*
X324463819Y-69150524D01*
X324416200Y-69245762D01*
X324368580Y-69293381D01*
X324273342Y-69341000D01*
X323987628Y-69341000D01*
X323892390Y-69293381D01*
X323844771Y-69245762D01*
X324844771Y-68436239D02*
X324892390Y-68388620D01*
X324987628Y-68341000D01*
X325225723Y-68341000D01*
X325320961Y-68388620D01*
X325368580Y-68436239D01*
X325416200Y-68531477D01*
X325416200Y-68626715D01*
X325368580Y-68769572D01*
X324797152Y-69341000D01*
X325416200Y-69341000D01*
X325797152Y-69055286D02*
X326273342Y-69055286D01*
X325701914Y-69341000D02*
X326035247Y-68341000D01*
X326368580Y-69341000D01*
X326701914Y-68960048D02*
X327463819Y-68960048D01*
X327940009Y-69341000D02*
X327940009Y-68341000D01*
X328320961Y-68341000D01*
X328416200Y-68388620D01*
X328463819Y-68436239D01*
X328511438Y-68531477D01*
X328511438Y-68674334D01*
X328463819Y-68769572D01*
X328416200Y-68817191D01*
X328320961Y-68864810D01*
X327940009Y-68864810D01*
X328940009Y-68341000D02*
X328940009Y-69150524D01*
X328987628Y-69245762D01*
X329035247Y-69293381D01*
X329130485Y-69341000D01*
X329320961Y-69341000D01*
X329416200Y-69293381D01*
X329463819Y-69245762D01*
X329511438Y-69150524D01*
X329511438Y-68341000D01*
X333030485Y-84145762D02*
X332982866Y-84193381D01*
X332840009Y-84241000D01*
X332744771Y-84241000D01*
X332601914Y-84193381D01*
X332506676Y-84098143D01*
X332459057Y-84002905D01*
X332411438Y-83812429D01*
X332411438Y-83669572D01*
X332459057Y-83479096D01*
X332506676Y-83383858D01*
X332601914Y-83288620D01*
X332744771Y-83241000D01*
X332840009Y-83241000D01*
X332982866Y-83288620D01*
X333030485Y-83336239D01*
X333459057Y-84241000D02*
X333459057Y-83574334D01*
X333459057Y-83764810D02*
X333506676Y-83669572D01*
X333554295Y-83621953D01*
X333649533Y-83574334D01*
X333744771Y-83574334D01*
X333982866Y-83574334D02*
X334220961Y-84241000D01*
X334459057Y-83574334D02*
X334220961Y-84241000D01*
X334125723Y-84479096D01*
X334078104Y-84526715D01*
X333982866Y-84574334D01*
X334792390Y-84193381D02*
X334887628Y-84241000D01*
X335078104Y-84241000D01*
X335173342Y-84193381D01*
X335220961Y-84098143D01*
X335220961Y-84050524D01*
X335173342Y-83955286D01*
X335078104Y-83907667D01*
X334935247Y-83907667D01*
X334840009Y-83860048D01*
X334792390Y-83764810D01*
X334792390Y-83717191D01*
X334840009Y-83621953D01*
X334935247Y-83574334D01*
X335078104Y-83574334D01*
X335173342Y-83621953D01*
X335506676Y-83574334D02*
X335887628Y-83574334D01*
X335649533Y-83241000D02*
X335649533Y-84098143D01*
X335697152Y-84193381D01*
X335792390Y-84241000D01*
X335887628Y-84241000D01*
X336649533Y-84241000D02*
X336649533Y-83717191D01*
X336601914Y-83621953D01*
X336506676Y-83574334D01*
X336316200Y-83574334D01*
X336220961Y-83621953D01*
X336649533Y-84193381D02*
X336554295Y-84241000D01*
X336316200Y-84241000D01*
X336220961Y-84193381D01*
X336173342Y-84098143D01*
X336173342Y-84002905D01*
X336220961Y-83907667D01*
X336316200Y-83860048D01*
X336554295Y-83860048D01*
X336649533Y-83812429D01*
X337268580Y-84241000D02*
X337173342Y-84193381D01*
X337125723Y-84098143D01*
X337125723Y-83241000D01*
X270006185Y-63023695D02*
X270006185Y-63357028D01*
X270529994Y-63357028D02*
X269529994Y-63357028D01*
X269529994Y-62880838D01*
X269863328Y-62071314D02*
X270529994Y-62071314D01*
X269863328Y-62499885D02*
X270387137Y-62499885D01*
X270482375Y-62452266D01*
X270529994Y-62357028D01*
X270529994Y-62214171D01*
X270482375Y-62118933D01*
X270434756Y-62071314D01*
X270482375Y-61642742D02*
X270529994Y-61547504D01*
X270529994Y-61357028D01*
X270482375Y-61261790D01*
X270387137Y-61214171D01*
X270339518Y-61214171D01*
X270244280Y-61261790D01*
X270196661Y-61357028D01*
X270196661Y-61499885D01*
X270149042Y-61595123D01*
X270053804Y-61642742D01*
X270006185Y-61642742D01*
X269910947Y-61595123D01*
X269863328Y-61499885D01*
X269863328Y-61357028D01*
X269910947Y-61261790D01*
X270482375Y-60404647D02*
X270529994Y-60499885D01*
X270529994Y-60690361D01*
X270482375Y-60785599D01*
X270387137Y-60833218D01*
X270006185Y-60833218D01*
X269910947Y-60785599D01*
X269863328Y-60690361D01*
X269863328Y-60499885D01*
X269910947Y-60404647D01*
X270006185Y-60357028D01*
X270101423Y-60357028D01*
X270196661Y-60833218D01*
X240420678Y-65992765D02*
X240563535Y-66040384D01*
X240611154Y-66088003D01*
X240658773Y-66183241D01*
X240658773Y-66326098D01*
X240611154Y-66421336D01*
X240563535Y-66468955D01*
X240468297Y-66516574D01*
X240087344Y-66516574D01*
X240087344Y-65516574D01*
X240420678Y-65516574D01*
X240515916Y-65564194D01*
X240563535Y-65611813D01*
X240611154Y-65707051D01*
X240611154Y-65802289D01*
X240563535Y-65897527D01*
X240515916Y-65945146D01*
X240420678Y-65992765D01*
X240087344Y-65992765D01*
X241277821Y-65516574D02*
X241468297Y-65516574D01*
X241563535Y-65564194D01*
X241658773Y-65659432D01*
X241706392Y-65849908D01*
X241706392Y-66183241D01*
X241658773Y-66373717D01*
X241563535Y-66468955D01*
X241468297Y-66516574D01*
X241277821Y-66516574D01*
X241182582Y-66468955D01*
X241087344Y-66373717D01*
X241039725Y-66183241D01*
X241039725Y-65849908D01*
X241087344Y-65659432D01*
X241182582Y-65564194D01*
X241277821Y-65516574D01*
X242325440Y-65516574D02*
X242515916Y-65516574D01*
X242611154Y-65564194D01*
X242706392Y-65659432D01*
X242754011Y-65849908D01*
X242754011Y-66183241D01*
X242706392Y-66373717D01*
X242611154Y-66468955D01*
X242515916Y-66516574D01*
X242325440Y-66516574D01*
X242230201Y-66468955D01*
X242134963Y-66373717D01*
X242087344Y-66183241D01*
X242087344Y-65849908D01*
X242134963Y-65659432D01*
X242230201Y-65564194D01*
X242325440Y-65516574D01*
X243039725Y-65516574D02*
X243611154Y-65516574D01*
X243325440Y-66516574D02*
X243325440Y-65516574D01*
X63009807Y-75337516D02*
X63009807Y-74537516D01*
X63200284Y-74537516D01*
X63314569Y-74575612D01*
X63390760Y-74651802D01*
X63428855Y-74727992D01*
X63466950Y-74880373D01*
X63466950Y-74994659D01*
X63428855Y-75147040D01*
X63390760Y-75223231D01*
X63314569Y-75299421D01*
X63200284Y-75337516D01*
X63009807Y-75337516D01*
X64228855Y-75337516D02*
X63771712Y-75337516D01*
X64000284Y-75337516D02*
X64000284Y-74537516D01*
X63924093Y-74651802D01*
X63847903Y-74727992D01*
X63771712Y-74766088D01*
X72137244Y-80298103D02*
X72137244Y-79498103D01*
X72327720Y-79498103D01*
X72442006Y-79536199D01*
X72518196Y-79612389D01*
X72556292Y-79688579D01*
X72594387Y-79840960D01*
X72594387Y-79955246D01*
X72556292Y-80107627D01*
X72518196Y-80183818D01*
X72442006Y-80260008D01*
X72327720Y-80298103D01*
X72137244Y-80298103D01*
X73280101Y-79764770D02*
X73280101Y-80298103D01*
X73089625Y-79460008D02*
X72899149Y-80031437D01*
X73394387Y-80031437D01*
X74080101Y-79498103D02*
X73699149Y-79498103D01*
X73661053Y-79879056D01*
X73699149Y-79840960D01*
X73775339Y-79802865D01*
X73965815Y-79802865D01*
X74042006Y-79840960D01*
X74080101Y-79879056D01*
X74118196Y-79955246D01*
X74118196Y-80145722D01*
X74080101Y-80221913D01*
X74042006Y-80260008D01*
X73965815Y-80298103D01*
X73775339Y-80298103D01*
X73699149Y-80260008D01*
X73661053Y-80221913D01*
X85196048Y-80298103D02*
X85196048Y-79498103D01*
X85386525Y-79498103D01*
X85500810Y-79536199D01*
X85577001Y-79612389D01*
X85615096Y-79688579D01*
X85653191Y-79840960D01*
X85653191Y-79955246D01*
X85615096Y-80107627D01*
X85577001Y-80183818D01*
X85500810Y-80260008D01*
X85386525Y-80298103D01*
X85196048Y-80298103D01*
X85957953Y-79574294D02*
X85996048Y-79536199D01*
X86072239Y-79498103D01*
X86262715Y-79498103D01*
X86338905Y-79536199D01*
X86377001Y-79574294D01*
X86415096Y-79650484D01*
X86415096Y-79726675D01*
X86377001Y-79840960D01*
X85919858Y-80298103D01*
X86415096Y-80298103D01*
X88365511Y-75337516D02*
X88365511Y-74537516D01*
X88555988Y-74537516D01*
X88670273Y-74575612D01*
X88746464Y-74651802D01*
X88784559Y-74727992D01*
X88822654Y-74880373D01*
X88822654Y-74994659D01*
X88784559Y-75147040D01*
X88746464Y-75223231D01*
X88670273Y-75299421D01*
X88555988Y-75337516D01*
X88365511Y-75337516D01*
X89089321Y-74537516D02*
X89584559Y-74537516D01*
X89317892Y-74842278D01*
X89432178Y-74842278D01*
X89508368Y-74880373D01*
X89546464Y-74918469D01*
X89584559Y-74994659D01*
X89584559Y-75185135D01*
X89546464Y-75261326D01*
X89508368Y-75299421D01*
X89432178Y-75337516D01*
X89203607Y-75337516D01*
X89127416Y-75299421D01*
X89089321Y-75261326D01*
X101043363Y-75337516D02*
X101043363Y-74537516D01*
X101233840Y-74537516D01*
X101348125Y-74575612D01*
X101424316Y-74651802D01*
X101462411Y-74727992D01*
X101500506Y-74880373D01*
X101500506Y-74994659D01*
X101462411Y-75147040D01*
X101424316Y-75223231D01*
X101348125Y-75299421D01*
X101233840Y-75337516D01*
X101043363Y-75337516D01*
X102186220Y-74804183D02*
X102186220Y-75337516D01*
X101995744Y-74499421D02*
X101805268Y-75070850D01*
X102300506Y-75070850D01*
X113721215Y-75337516D02*
X113721215Y-74537516D01*
X113911692Y-74537516D01*
X114025977Y-74575612D01*
X114102168Y-74651802D01*
X114140263Y-74727992D01*
X114178358Y-74880373D01*
X114178358Y-74994659D01*
X114140263Y-75147040D01*
X114102168Y-75223231D01*
X114025977Y-75299421D01*
X113911692Y-75337516D01*
X113721215Y-75337516D01*
X114902168Y-74537516D02*
X114521215Y-74537516D01*
X114483120Y-74918469D01*
X114521215Y-74880373D01*
X114597406Y-74842278D01*
X114787882Y-74842278D01*
X114864072Y-74880373D01*
X114902168Y-74918469D01*
X114940263Y-74994659D01*
X114940263Y-75185135D01*
X114902168Y-75261326D01*
X114864072Y-75299421D01*
X114787882Y-75337516D01*
X114597406Y-75337516D01*
X114521215Y-75299421D01*
X114483120Y-75261326D01*
X126399067Y-75337516D02*
X126399067Y-74537516D01*
X126589544Y-74537516D01*
X126703829Y-74575612D01*
X126780020Y-74651802D01*
X126818115Y-74727992D01*
X126856210Y-74880373D01*
X126856210Y-74994659D01*
X126818115Y-75147040D01*
X126780020Y-75223231D01*
X126703829Y-75299421D01*
X126589544Y-75337516D01*
X126399067Y-75337516D01*
X127541924Y-74537516D02*
X127389544Y-74537516D01*
X127313353Y-74575612D01*
X127275258Y-74613707D01*
X127199067Y-74727992D01*
X127160972Y-74880373D01*
X127160972Y-75185135D01*
X127199067Y-75261326D01*
X127237163Y-75299421D01*
X127313353Y-75337516D01*
X127465734Y-75337516D01*
X127541924Y-75299421D01*
X127580020Y-75261326D01*
X127618115Y-75185135D01*
X127618115Y-74994659D01*
X127580020Y-74918469D01*
X127541924Y-74880373D01*
X127465734Y-74842278D01*
X127313353Y-74842278D01*
X127237163Y-74880373D01*
X127199067Y-74918469D01*
X127160972Y-74994659D01*
X139076919Y-75337516D02*
X139076919Y-74537516D01*
X139267396Y-74537516D01*
X139381681Y-74575612D01*
X139457872Y-74651802D01*
X139495967Y-74727992D01*
X139534062Y-74880373D01*
X139534062Y-74994659D01*
X139495967Y-75147040D01*
X139457872Y-75223231D01*
X139381681Y-75299421D01*
X139267396Y-75337516D01*
X139076919Y-75337516D01*
X139800729Y-74537516D02*
X140334062Y-74537516D01*
X139991205Y-75337516D01*
X151754771Y-75337516D02*
X151754771Y-74537516D01*
X151945248Y-74537516D01*
X152059533Y-74575612D01*
X152135724Y-74651802D01*
X152173819Y-74727992D01*
X152211914Y-74880373D01*
X152211914Y-74994659D01*
X152173819Y-75147040D01*
X152135724Y-75223231D01*
X152059533Y-75299421D01*
X151945248Y-75337516D01*
X151754771Y-75337516D01*
X152669057Y-74880373D02*
X152592867Y-74842278D01*
X152554771Y-74804183D01*
X152516676Y-74727992D01*
X152516676Y-74689897D01*
X152554771Y-74613707D01*
X152592867Y-74575612D01*
X152669057Y-74537516D01*
X152821438Y-74537516D01*
X152897628Y-74575612D01*
X152935724Y-74613707D01*
X152973819Y-74689897D01*
X152973819Y-74727992D01*
X152935724Y-74804183D01*
X152897628Y-74842278D01*
X152821438Y-74880373D01*
X152669057Y-74880373D01*
X152592867Y-74918469D01*
X152554771Y-74956564D01*
X152516676Y-75032754D01*
X152516676Y-75185135D01*
X152554771Y-75261326D01*
X152592867Y-75299421D01*
X152669057Y-75337516D01*
X152821438Y-75337516D01*
X152897628Y-75299421D01*
X152935724Y-75261326D01*
X152973819Y-75185135D01*
X152973819Y-75032754D01*
X152935724Y-74956564D01*
X152897628Y-74918469D01*
X152821438Y-74880373D01*
X164432623Y-75337516D02*
X164432623Y-74537516D01*
X164623100Y-74537516D01*
X164737385Y-74575612D01*
X164813576Y-74651802D01*
X164851671Y-74727992D01*
X164889766Y-74880373D01*
X164889766Y-74994659D01*
X164851671Y-75147040D01*
X164813576Y-75223231D01*
X164737385Y-75299421D01*
X164623100Y-75337516D01*
X164432623Y-75337516D01*
X165270719Y-75337516D02*
X165423100Y-75337516D01*
X165499290Y-75299421D01*
X165537385Y-75261326D01*
X165613576Y-75147040D01*
X165651671Y-74994659D01*
X165651671Y-74689897D01*
X165613576Y-74613707D01*
X165575480Y-74575612D01*
X165499290Y-74537516D01*
X165346909Y-74537516D01*
X165270719Y-74575612D01*
X165232623Y-74613707D01*
X165194528Y-74689897D01*
X165194528Y-74880373D01*
X165232623Y-74956564D01*
X165270719Y-74994659D01*
X165346909Y-75032754D01*
X165499290Y-75032754D01*
X165575480Y-74994659D01*
X165613576Y-74956564D01*
X165651671Y-74880373D01*
X176729523Y-75337516D02*
X176729523Y-74537516D01*
X176919999Y-74537516D01*
X177034285Y-74575612D01*
X177110475Y-74651802D01*
X177148571Y-74727992D01*
X177186666Y-74880373D01*
X177186666Y-74994659D01*
X177148571Y-75147040D01*
X177110475Y-75223231D01*
X177034285Y-75299421D01*
X176919999Y-75337516D01*
X176729523Y-75337516D01*
X177948571Y-75337516D02*
X177491428Y-75337516D01*
X177719999Y-75337516D02*
X177719999Y-74537516D01*
X177643809Y-74651802D01*
X177567618Y-74727992D01*
X177491428Y-74766088D01*
X178443809Y-74537516D02*
X178519999Y-74537516D01*
X178596190Y-74575612D01*
X178634285Y-74613707D01*
X178672380Y-74689897D01*
X178710475Y-74842278D01*
X178710475Y-75032754D01*
X178672380Y-75185135D01*
X178634285Y-75261326D01*
X178596190Y-75299421D01*
X178519999Y-75337516D01*
X178443809Y-75337516D01*
X178367618Y-75299421D01*
X178329523Y-75261326D01*
X178291428Y-75185135D01*
X178253332Y-75032754D01*
X178253332Y-74842278D01*
X178291428Y-74689897D01*
X178329523Y-74613707D01*
X178367618Y-74575612D01*
X178443809Y-74537516D01*
X189407375Y-75337516D02*
X189407375Y-74537516D01*
X189597851Y-74537516D01*
X189712137Y-74575612D01*
X189788327Y-74651802D01*
X189826423Y-74727992D01*
X189864518Y-74880373D01*
X189864518Y-74994659D01*
X189826423Y-75147040D01*
X189788327Y-75223231D01*
X189712137Y-75299421D01*
X189597851Y-75337516D01*
X189407375Y-75337516D01*
X190626423Y-75337516D02*
X190169280Y-75337516D01*
X190397851Y-75337516D02*
X190397851Y-74537516D01*
X190321661Y-74651802D01*
X190245470Y-74727992D01*
X190169280Y-74766088D01*
X191388327Y-75337516D02*
X190931184Y-75337516D01*
X191159756Y-75337516D02*
X191159756Y-74537516D01*
X191083565Y-74651802D01*
X191007375Y-74727992D01*
X190931184Y-74766088D01*
X202085227Y-75337516D02*
X202085227Y-74537516D01*
X202275703Y-74537516D01*
X202389989Y-74575612D01*
X202466179Y-74651802D01*
X202504275Y-74727992D01*
X202542370Y-74880373D01*
X202542370Y-74994659D01*
X202504275Y-75147040D01*
X202466179Y-75223231D01*
X202389989Y-75299421D01*
X202275703Y-75337516D01*
X202085227Y-75337516D01*
X203304275Y-75337516D02*
X202847132Y-75337516D01*
X203075703Y-75337516D02*
X203075703Y-74537516D01*
X202999513Y-74651802D01*
X202923322Y-74727992D01*
X202847132Y-74766088D01*
X203609036Y-74613707D02*
X203647132Y-74575612D01*
X203723322Y-74537516D01*
X203913798Y-74537516D01*
X203989989Y-74575612D01*
X204028084Y-74613707D01*
X204066179Y-74689897D01*
X204066179Y-74766088D01*
X204028084Y-74880373D01*
X203570941Y-75337516D01*
X204066179Y-75337516D01*
X214763079Y-75337516D02*
X214763079Y-74537516D01*
X214953555Y-74537516D01*
X215067841Y-74575612D01*
X215144031Y-74651802D01*
X215182127Y-74727992D01*
X215220222Y-74880373D01*
X215220222Y-74994659D01*
X215182127Y-75147040D01*
X215144031Y-75223231D01*
X215067841Y-75299421D01*
X214953555Y-75337516D01*
X214763079Y-75337516D01*
X215982127Y-75337516D02*
X215524984Y-75337516D01*
X215753555Y-75337516D02*
X215753555Y-74537516D01*
X215677365Y-74651802D01*
X215601174Y-74727992D01*
X215524984Y-74766088D01*
X216248793Y-74537516D02*
X216744031Y-74537516D01*
X216477365Y-74842278D01*
X216591650Y-74842278D01*
X216667841Y-74880373D01*
X216705936Y-74918469D01*
X216744031Y-74994659D01*
X216744031Y-75185135D01*
X216705936Y-75261326D01*
X216667841Y-75299421D01*
X216591650Y-75337516D01*
X216363079Y-75337516D01*
X216286888Y-75299421D01*
X216248793Y-75261326D01*
X227370947Y-75337516D02*
X227370947Y-74537516D01*
X227561423Y-74537516D01*
X227675709Y-74575612D01*
X227751899Y-74651802D01*
X227789995Y-74727992D01*
X227828090Y-74880373D01*
X227828090Y-74994659D01*
X227789995Y-75147040D01*
X227751899Y-75223231D01*
X227675709Y-75299421D01*
X227561423Y-75337516D01*
X227370947Y-75337516D01*
X228589995Y-75337516D02*
X228132852Y-75337516D01*
X228361423Y-75337516D02*
X228361423Y-74537516D01*
X228285233Y-74651802D01*
X228209042Y-74727992D01*
X228132852Y-74766088D01*
X229275709Y-74804183D02*
X229275709Y-75337516D01*
X229085233Y-74499421D02*
X228894756Y-75070850D01*
X229389995Y-75070850D01*
X274570500Y-80298103D02*
X274570500Y-79498103D01*
X274760976Y-79498103D01*
X274875262Y-79536199D01*
X274951452Y-79612389D01*
X274989548Y-79688579D01*
X275027643Y-79840960D01*
X275027643Y-79955246D01*
X274989548Y-80107627D01*
X274951452Y-80183818D01*
X274875262Y-80260008D01*
X274760976Y-80298103D01*
X274570500Y-80298103D01*
X275789548Y-80298103D02*
X275332405Y-80298103D01*
X275560976Y-80298103D02*
X275560976Y-79498103D01*
X275484786Y-79612389D01*
X275408595Y-79688579D01*
X275332405Y-79726675D01*
X276513357Y-79498103D02*
X276132405Y-79498103D01*
X276094309Y-79879056D01*
X276132405Y-79840960D01*
X276208595Y-79802865D01*
X276399071Y-79802865D01*
X276475262Y-79840960D01*
X276513357Y-79879056D01*
X276551452Y-79955246D01*
X276551452Y-80145722D01*
X276513357Y-80221913D01*
X276475262Y-80260008D01*
X276399071Y-80298103D01*
X276208595Y-80298103D01*
X276132405Y-80260008D01*
X276094309Y-80221913D01*
X65798318Y-76991045D02*
X65798318Y-76191045D01*
X65988794Y-76191045D01*
X66103080Y-76229141D01*
X66179270Y-76305331D01*
X66217366Y-76381521D01*
X66255461Y-76533902D01*
X66255461Y-76648188D01*
X66217366Y-76800569D01*
X66179270Y-76876760D01*
X66103080Y-76952950D01*
X65988794Y-76991045D01*
X65798318Y-76991045D01*
X67017366Y-76991045D02*
X66560223Y-76991045D01*
X66788794Y-76991045D02*
X66788794Y-76191045D01*
X66712604Y-76305331D01*
X66636413Y-76381521D01*
X66560223Y-76419617D01*
X67703080Y-76191045D02*
X67550699Y-76191045D01*
X67474508Y-76229141D01*
X67436413Y-76267236D01*
X67360223Y-76381521D01*
X67322127Y-76533902D01*
X67322127Y-76838664D01*
X67360223Y-76914855D01*
X67398318Y-76952950D01*
X67474508Y-76991045D01*
X67626889Y-76991045D01*
X67703080Y-76952950D01*
X67741175Y-76914855D01*
X67779270Y-76838664D01*
X67779270Y-76648188D01*
X67741175Y-76571998D01*
X67703080Y-76533902D01*
X67626889Y-76495807D01*
X67474508Y-76495807D01*
X67398318Y-76533902D01*
X67360223Y-76571998D01*
X67322127Y-76648188D01*
X81645633Y-78644574D02*
X81645633Y-77844574D01*
X81836109Y-77844574D01*
X81950395Y-77882670D01*
X82026585Y-77958860D01*
X82064681Y-78035050D01*
X82102776Y-78187431D01*
X82102776Y-78301717D01*
X82064681Y-78454098D01*
X82026585Y-78530289D01*
X81950395Y-78606479D01*
X81836109Y-78644574D01*
X81645633Y-78644574D01*
X82864681Y-78644574D02*
X82407538Y-78644574D01*
X82636109Y-78644574D02*
X82636109Y-77844574D01*
X82559919Y-77958860D01*
X82483728Y-78035050D01*
X82407538Y-78073146D01*
X83131347Y-77844574D02*
X83664681Y-77844574D01*
X83321823Y-78644574D01*
X91154022Y-76991045D02*
X91154022Y-76191045D01*
X91344498Y-76191045D01*
X91458784Y-76229141D01*
X91534974Y-76305331D01*
X91573070Y-76381521D01*
X91611165Y-76533902D01*
X91611165Y-76648188D01*
X91573070Y-76800569D01*
X91534974Y-76876760D01*
X91458784Y-76952950D01*
X91344498Y-76991045D01*
X91154022Y-76991045D01*
X92373070Y-76991045D02*
X91915927Y-76991045D01*
X92144498Y-76991045D02*
X92144498Y-76191045D01*
X92068308Y-76305331D01*
X91992117Y-76381521D01*
X91915927Y-76419617D01*
X92830212Y-76533902D02*
X92754022Y-76495807D01*
X92715927Y-76457712D01*
X92677831Y-76381521D01*
X92677831Y-76343426D01*
X92715927Y-76267236D01*
X92754022Y-76229141D01*
X92830212Y-76191045D01*
X92982593Y-76191045D01*
X93058784Y-76229141D01*
X93096879Y-76267236D01*
X93134974Y-76343426D01*
X93134974Y-76381521D01*
X93096879Y-76457712D01*
X93058784Y-76495807D01*
X92982593Y-76533902D01*
X92830212Y-76533902D01*
X92754022Y-76571998D01*
X92715927Y-76610093D01*
X92677831Y-76686283D01*
X92677831Y-76838664D01*
X92715927Y-76914855D01*
X92754022Y-76952950D01*
X92830212Y-76991045D01*
X92982593Y-76991045D01*
X93058784Y-76952950D01*
X93096879Y-76914855D01*
X93134974Y-76838664D01*
X93134974Y-76686283D01*
X93096879Y-76610093D01*
X93058784Y-76571998D01*
X92982593Y-76533902D01*
X103831874Y-76991045D02*
X103831874Y-76191045D01*
X104022350Y-76191045D01*
X104136636Y-76229141D01*
X104212826Y-76305331D01*
X104250922Y-76381521D01*
X104289017Y-76533902D01*
X104289017Y-76648188D01*
X104250922Y-76800569D01*
X104212826Y-76876760D01*
X104136636Y-76952950D01*
X104022350Y-76991045D01*
X103831874Y-76991045D01*
X105050922Y-76991045D02*
X104593779Y-76991045D01*
X104822350Y-76991045D02*
X104822350Y-76191045D01*
X104746160Y-76305331D01*
X104669969Y-76381521D01*
X104593779Y-76419617D01*
X105431874Y-76991045D02*
X105584255Y-76991045D01*
X105660445Y-76952950D01*
X105698541Y-76914855D01*
X105774731Y-76800569D01*
X105812826Y-76648188D01*
X105812826Y-76343426D01*
X105774731Y-76267236D01*
X105736636Y-76229141D01*
X105660445Y-76191045D01*
X105508064Y-76191045D01*
X105431874Y-76229141D01*
X105393779Y-76267236D01*
X105355683Y-76343426D01*
X105355683Y-76533902D01*
X105393779Y-76610093D01*
X105431874Y-76648188D01*
X105508064Y-76686283D01*
X105660445Y-76686283D01*
X105736636Y-76648188D01*
X105774731Y-76610093D01*
X105812826Y-76533902D01*
X116509726Y-76991045D02*
X116509726Y-76191045D01*
X116700202Y-76191045D01*
X116814488Y-76229141D01*
X116890678Y-76305331D01*
X116928774Y-76381521D01*
X116966869Y-76533902D01*
X116966869Y-76648188D01*
X116928774Y-76800569D01*
X116890678Y-76876760D01*
X116814488Y-76952950D01*
X116700202Y-76991045D01*
X116509726Y-76991045D01*
X117271631Y-76267236D02*
X117309726Y-76229141D01*
X117385916Y-76191045D01*
X117576393Y-76191045D01*
X117652583Y-76229141D01*
X117690678Y-76267236D01*
X117728774Y-76343426D01*
X117728774Y-76419617D01*
X117690678Y-76533902D01*
X117233535Y-76991045D01*
X117728774Y-76991045D01*
X118224012Y-76191045D02*
X118300202Y-76191045D01*
X118376393Y-76229141D01*
X118414488Y-76267236D01*
X118452583Y-76343426D01*
X118490678Y-76495807D01*
X118490678Y-76686283D01*
X118452583Y-76838664D01*
X118414488Y-76914855D01*
X118376393Y-76952950D01*
X118300202Y-76991045D01*
X118224012Y-76991045D01*
X118147821Y-76952950D01*
X118109726Y-76914855D01*
X118071631Y-76838664D01*
X118033535Y-76686283D01*
X118033535Y-76495807D01*
X118071631Y-76343426D01*
X118109726Y-76267236D01*
X118147821Y-76229141D01*
X118224012Y-76191045D01*
X129187578Y-76991045D02*
X129187578Y-76191045D01*
X129378054Y-76191045D01*
X129492340Y-76229141D01*
X129568530Y-76305331D01*
X129606626Y-76381521D01*
X129644721Y-76533902D01*
X129644721Y-76648188D01*
X129606626Y-76800569D01*
X129568530Y-76876760D01*
X129492340Y-76952950D01*
X129378054Y-76991045D01*
X129187578Y-76991045D01*
X129949483Y-76267236D02*
X129987578Y-76229141D01*
X130063768Y-76191045D01*
X130254245Y-76191045D01*
X130330435Y-76229141D01*
X130368530Y-76267236D01*
X130406626Y-76343426D01*
X130406626Y-76419617D01*
X130368530Y-76533902D01*
X129911387Y-76991045D01*
X130406626Y-76991045D01*
X131168530Y-76991045D02*
X130711387Y-76991045D01*
X130939959Y-76991045D02*
X130939959Y-76191045D01*
X130863768Y-76305331D01*
X130787578Y-76381521D01*
X130711387Y-76419617D01*
X141865430Y-76991045D02*
X141865430Y-76191045D01*
X142055906Y-76191045D01*
X142170192Y-76229141D01*
X142246382Y-76305331D01*
X142284478Y-76381521D01*
X142322573Y-76533902D01*
X142322573Y-76648188D01*
X142284478Y-76800569D01*
X142246382Y-76876760D01*
X142170192Y-76952950D01*
X142055906Y-76991045D01*
X141865430Y-76991045D01*
X142627335Y-76267236D02*
X142665430Y-76229141D01*
X142741620Y-76191045D01*
X142932097Y-76191045D01*
X143008287Y-76229141D01*
X143046382Y-76267236D01*
X143084478Y-76343426D01*
X143084478Y-76419617D01*
X143046382Y-76533902D01*
X142589239Y-76991045D01*
X143084478Y-76991045D01*
X143389239Y-76267236D02*
X143427335Y-76229141D01*
X143503525Y-76191045D01*
X143694001Y-76191045D01*
X143770192Y-76229141D01*
X143808287Y-76267236D01*
X143846382Y-76343426D01*
X143846382Y-76419617D01*
X143808287Y-76533902D01*
X143351144Y-76991045D01*
X143846382Y-76991045D01*
X154543282Y-76991045D02*
X154543282Y-76191045D01*
X154733758Y-76191045D01*
X154848044Y-76229141D01*
X154924234Y-76305331D01*
X154962330Y-76381521D01*
X155000425Y-76533902D01*
X155000425Y-76648188D01*
X154962330Y-76800569D01*
X154924234Y-76876760D01*
X154848044Y-76952950D01*
X154733758Y-76991045D01*
X154543282Y-76991045D01*
X155305187Y-76267236D02*
X155343282Y-76229141D01*
X155419472Y-76191045D01*
X155609949Y-76191045D01*
X155686139Y-76229141D01*
X155724234Y-76267236D01*
X155762330Y-76343426D01*
X155762330Y-76419617D01*
X155724234Y-76533902D01*
X155267091Y-76991045D01*
X155762330Y-76991045D01*
X156028996Y-76191045D02*
X156524234Y-76191045D01*
X156257568Y-76495807D01*
X156371853Y-76495807D01*
X156448044Y-76533902D01*
X156486139Y-76571998D01*
X156524234Y-76648188D01*
X156524234Y-76838664D01*
X156486139Y-76914855D01*
X156448044Y-76952950D01*
X156371853Y-76991045D01*
X156143282Y-76991045D01*
X156067091Y-76952950D01*
X156028996Y-76914855D01*
X167221134Y-76991045D02*
X167221134Y-76191045D01*
X167411610Y-76191045D01*
X167525896Y-76229141D01*
X167602086Y-76305331D01*
X167640182Y-76381521D01*
X167678277Y-76533902D01*
X167678277Y-76648188D01*
X167640182Y-76800569D01*
X167602086Y-76876760D01*
X167525896Y-76952950D01*
X167411610Y-76991045D01*
X167221134Y-76991045D01*
X167983039Y-76267236D02*
X168021134Y-76229141D01*
X168097324Y-76191045D01*
X168287801Y-76191045D01*
X168363991Y-76229141D01*
X168402086Y-76267236D01*
X168440182Y-76343426D01*
X168440182Y-76419617D01*
X168402086Y-76533902D01*
X167944943Y-76991045D01*
X168440182Y-76991045D01*
X169125896Y-76457712D02*
X169125896Y-76991045D01*
X168935420Y-76152950D02*
X168744943Y-76724379D01*
X169240182Y-76724379D01*
X179898986Y-76991045D02*
X179898986Y-76191045D01*
X180089462Y-76191045D01*
X180203748Y-76229141D01*
X180279938Y-76305331D01*
X180318034Y-76381521D01*
X180356129Y-76533902D01*
X180356129Y-76648188D01*
X180318034Y-76800569D01*
X180279938Y-76876760D01*
X180203748Y-76952950D01*
X180089462Y-76991045D01*
X179898986Y-76991045D01*
X180660891Y-76267236D02*
X180698986Y-76229141D01*
X180775176Y-76191045D01*
X180965653Y-76191045D01*
X181041843Y-76229141D01*
X181079938Y-76267236D01*
X181118034Y-76343426D01*
X181118034Y-76419617D01*
X181079938Y-76533902D01*
X180622795Y-76991045D01*
X181118034Y-76991045D01*
X181841843Y-76191045D02*
X181460891Y-76191045D01*
X181422795Y-76571998D01*
X181460891Y-76533902D01*
X181537081Y-76495807D01*
X181727557Y-76495807D01*
X181803748Y-76533902D01*
X181841843Y-76571998D01*
X181879938Y-76648188D01*
X181879938Y-76838664D01*
X181841843Y-76914855D01*
X181803748Y-76952950D01*
X181727557Y-76991045D01*
X181537081Y-76991045D01*
X181460891Y-76952950D01*
X181422795Y-76914855D01*
X192576838Y-76991045D02*
X192576838Y-76191045D01*
X192767314Y-76191045D01*
X192881600Y-76229141D01*
X192957790Y-76305331D01*
X192995886Y-76381521D01*
X193033981Y-76533902D01*
X193033981Y-76648188D01*
X192995886Y-76800569D01*
X192957790Y-76876760D01*
X192881600Y-76952950D01*
X192767314Y-76991045D01*
X192576838Y-76991045D01*
X193338743Y-76267236D02*
X193376838Y-76229141D01*
X193453028Y-76191045D01*
X193643505Y-76191045D01*
X193719695Y-76229141D01*
X193757790Y-76267236D01*
X193795886Y-76343426D01*
X193795886Y-76419617D01*
X193757790Y-76533902D01*
X193300647Y-76991045D01*
X193795886Y-76991045D01*
X194481600Y-76191045D02*
X194329219Y-76191045D01*
X194253028Y-76229141D01*
X194214933Y-76267236D01*
X194138743Y-76381521D01*
X194100647Y-76533902D01*
X194100647Y-76838664D01*
X194138743Y-76914855D01*
X194176838Y-76952950D01*
X194253028Y-76991045D01*
X194405409Y-76991045D01*
X194481600Y-76952950D01*
X194519695Y-76914855D01*
X194557790Y-76838664D01*
X194557790Y-76648188D01*
X194519695Y-76571998D01*
X194481600Y-76533902D01*
X194405409Y-76495807D01*
X194253028Y-76495807D01*
X194176838Y-76533902D01*
X194138743Y-76571998D01*
X194100647Y-76648188D01*
X205254690Y-76991045D02*
X205254690Y-76191045D01*
X205445166Y-76191045D01*
X205559452Y-76229141D01*
X205635642Y-76305331D01*
X205673738Y-76381521D01*
X205711833Y-76533902D01*
X205711833Y-76648188D01*
X205673738Y-76800569D01*
X205635642Y-76876760D01*
X205559452Y-76952950D01*
X205445166Y-76991045D01*
X205254690Y-76991045D01*
X206016595Y-76267236D02*
X206054690Y-76229141D01*
X206130880Y-76191045D01*
X206321357Y-76191045D01*
X206397547Y-76229141D01*
X206435642Y-76267236D01*
X206473738Y-76343426D01*
X206473738Y-76419617D01*
X206435642Y-76533902D01*
X205978499Y-76991045D01*
X206473738Y-76991045D01*
X206740404Y-76191045D02*
X207273738Y-76191045D01*
X206930880Y-76991045D01*
X217915046Y-76991045D02*
X217915046Y-76191045D01*
X218105522Y-76191045D01*
X218219808Y-76229141D01*
X218295998Y-76305331D01*
X218334094Y-76381521D01*
X218372189Y-76533902D01*
X218372189Y-76648188D01*
X218334094Y-76800569D01*
X218295998Y-76876760D01*
X218219808Y-76952950D01*
X218105522Y-76991045D01*
X217915046Y-76991045D01*
X218676951Y-76267236D02*
X218715046Y-76229141D01*
X218791236Y-76191045D01*
X218981713Y-76191045D01*
X219057903Y-76229141D01*
X219095998Y-76267236D01*
X219134094Y-76343426D01*
X219134094Y-76419617D01*
X219095998Y-76533902D01*
X218638855Y-76991045D01*
X219134094Y-76991045D01*
X219591236Y-76533902D02*
X219515046Y-76495807D01*
X219476951Y-76457712D01*
X219438855Y-76381521D01*
X219438855Y-76343426D01*
X219476951Y-76267236D01*
X219515046Y-76229141D01*
X219591236Y-76191045D01*
X219743617Y-76191045D01*
X219819808Y-76229141D01*
X219857903Y-76267236D01*
X219895998Y-76343426D01*
X219895998Y-76381521D01*
X219857903Y-76457712D01*
X219819808Y-76495807D01*
X219743617Y-76533902D01*
X219591236Y-76533902D01*
X219515046Y-76571998D01*
X219476951Y-76610093D01*
X219438855Y-76686283D01*
X219438855Y-76838664D01*
X219476951Y-76914855D01*
X219515046Y-76952950D01*
X219591236Y-76991045D01*
X219743617Y-76991045D01*
X219819808Y-76952950D01*
X219857903Y-76914855D01*
X219895998Y-76838664D01*
X219895998Y-76686283D01*
X219857903Y-76610093D01*
X219819808Y-76571998D01*
X219743617Y-76533902D01*
X230521720Y-76991045D02*
X230521720Y-76191045D01*
X230712196Y-76191045D01*
X230826482Y-76229141D01*
X230902672Y-76305331D01*
X230940768Y-76381521D01*
X230978863Y-76533902D01*
X230978863Y-76648188D01*
X230940768Y-76800569D01*
X230902672Y-76876760D01*
X230826482Y-76952950D01*
X230712196Y-76991045D01*
X230521720Y-76991045D01*
X231283625Y-76267236D02*
X231321720Y-76229141D01*
X231397910Y-76191045D01*
X231588387Y-76191045D01*
X231664577Y-76229141D01*
X231702672Y-76267236D01*
X231740768Y-76343426D01*
X231740768Y-76419617D01*
X231702672Y-76533902D01*
X231245529Y-76991045D01*
X231740768Y-76991045D01*
X232121720Y-76991045D02*
X232274101Y-76991045D01*
X232350291Y-76952950D01*
X232388387Y-76914855D01*
X232464577Y-76800569D01*
X232502672Y-76648188D01*
X232502672Y-76343426D01*
X232464577Y-76267236D01*
X232426482Y-76229141D01*
X232350291Y-76191045D01*
X232197910Y-76191045D01*
X232121720Y-76229141D01*
X232083625Y-76267236D01*
X232045529Y-76343426D01*
X232045529Y-76533902D01*
X232083625Y-76610093D01*
X232121720Y-76648188D01*
X232197910Y-76686283D01*
X232350291Y-76686283D01*
X232426482Y-76648188D01*
X232464577Y-76610093D01*
X232502672Y-76533902D01*
X271481776Y-78644574D02*
X271481776Y-77844574D01*
X271672252Y-77844574D01*
X271786538Y-77882670D01*
X271862728Y-77958860D01*
X271900824Y-78035050D01*
X271938919Y-78187431D01*
X271938919Y-78301717D01*
X271900824Y-78454098D01*
X271862728Y-78530289D01*
X271786538Y-78606479D01*
X271672252Y-78644574D01*
X271481776Y-78644574D01*
X272205585Y-77844574D02*
X272700824Y-77844574D01*
X272434157Y-78149336D01*
X272548443Y-78149336D01*
X272624633Y-78187431D01*
X272662728Y-78225527D01*
X272700824Y-78301717D01*
X272700824Y-78492193D01*
X272662728Y-78568384D01*
X272624633Y-78606479D01*
X272548443Y-78644574D01*
X272319871Y-78644574D01*
X272243681Y-78606479D01*
X272205585Y-78568384D01*
X273196062Y-77844574D02*
X273272252Y-77844574D01*
X273348443Y-77882670D01*
X273386538Y-77920765D01*
X273424633Y-77996955D01*
X273462728Y-78149336D01*
X273462728Y-78339812D01*
X273424633Y-78492193D01*
X273386538Y-78568384D01*
X273348443Y-78606479D01*
X273272252Y-78644574D01*
X273196062Y-78644574D01*
X273119871Y-78606479D01*
X273081776Y-78568384D01*
X273043681Y-78492193D01*
X273005585Y-78339812D01*
X273005585Y-78149336D01*
X273043681Y-77996955D01*
X273081776Y-77920765D01*
X273119871Y-77882670D01*
X273196062Y-77844574D01*
X68967781Y-78644574D02*
X68967781Y-77844574D01*
X69158257Y-77844574D01*
X69272543Y-77882670D01*
X69348733Y-77958860D01*
X69386829Y-78035050D01*
X69424924Y-78187431D01*
X69424924Y-78301717D01*
X69386829Y-78454098D01*
X69348733Y-78530289D01*
X69272543Y-78606479D01*
X69158257Y-78644574D01*
X68967781Y-78644574D01*
X69691590Y-77844574D02*
X70186829Y-77844574D01*
X69920162Y-78149336D01*
X70034448Y-78149336D01*
X70110638Y-78187431D01*
X70148733Y-78225527D01*
X70186829Y-78301717D01*
X70186829Y-78492193D01*
X70148733Y-78568384D01*
X70110638Y-78606479D01*
X70034448Y-78644574D01*
X69805876Y-78644574D01*
X69729686Y-78606479D01*
X69691590Y-78568384D01*
X70948733Y-78644574D02*
X70491590Y-78644574D01*
X70720162Y-78644574D02*
X70720162Y-77844574D01*
X70643971Y-77958860D01*
X70567781Y-78035050D01*
X70491590Y-78073146D01*
X78476170Y-76991045D02*
X78476170Y-76191045D01*
X78666646Y-76191045D01*
X78780932Y-76229141D01*
X78857122Y-76305331D01*
X78895218Y-76381521D01*
X78933313Y-76533902D01*
X78933313Y-76648188D01*
X78895218Y-76800569D01*
X78857122Y-76876760D01*
X78780932Y-76952950D01*
X78666646Y-76991045D01*
X78476170Y-76991045D01*
X79199979Y-76191045D02*
X79695218Y-76191045D01*
X79428551Y-76495807D01*
X79542837Y-76495807D01*
X79619027Y-76533902D01*
X79657122Y-76571998D01*
X79695218Y-76648188D01*
X79695218Y-76838664D01*
X79657122Y-76914855D01*
X79619027Y-76952950D01*
X79542837Y-76991045D01*
X79314265Y-76991045D01*
X79238075Y-76952950D01*
X79199979Y-76914855D01*
X79999979Y-76267236D02*
X80038075Y-76229141D01*
X80114265Y-76191045D01*
X80304741Y-76191045D01*
X80380932Y-76229141D01*
X80419027Y-76267236D01*
X80457122Y-76343426D01*
X80457122Y-76419617D01*
X80419027Y-76533902D01*
X79961884Y-76991045D01*
X80457122Y-76991045D01*
X94323485Y-78644574D02*
X94323485Y-77844574D01*
X94513961Y-77844574D01*
X94628247Y-77882670D01*
X94704437Y-77958860D01*
X94742533Y-78035050D01*
X94780628Y-78187431D01*
X94780628Y-78301717D01*
X94742533Y-78454098D01*
X94704437Y-78530289D01*
X94628247Y-78606479D01*
X94513961Y-78644574D01*
X94323485Y-78644574D01*
X95047294Y-77844574D02*
X95542533Y-77844574D01*
X95275866Y-78149336D01*
X95390152Y-78149336D01*
X95466342Y-78187431D01*
X95504437Y-78225527D01*
X95542533Y-78301717D01*
X95542533Y-78492193D01*
X95504437Y-78568384D01*
X95466342Y-78606479D01*
X95390152Y-78644574D01*
X95161580Y-78644574D01*
X95085390Y-78606479D01*
X95047294Y-78568384D01*
X95809199Y-77844574D02*
X96304437Y-77844574D01*
X96037771Y-78149336D01*
X96152056Y-78149336D01*
X96228247Y-78187431D01*
X96266342Y-78225527D01*
X96304437Y-78301717D01*
X96304437Y-78492193D01*
X96266342Y-78568384D01*
X96228247Y-78606479D01*
X96152056Y-78644574D01*
X95923485Y-78644574D01*
X95847294Y-78606479D01*
X95809199Y-78568384D01*
X107001337Y-78644574D02*
X107001337Y-77844574D01*
X107191813Y-77844574D01*
X107306099Y-77882670D01*
X107382289Y-77958860D01*
X107420385Y-78035050D01*
X107458480Y-78187431D01*
X107458480Y-78301717D01*
X107420385Y-78454098D01*
X107382289Y-78530289D01*
X107306099Y-78606479D01*
X107191813Y-78644574D01*
X107001337Y-78644574D01*
X107725146Y-77844574D02*
X108220385Y-77844574D01*
X107953718Y-78149336D01*
X108068004Y-78149336D01*
X108144194Y-78187431D01*
X108182289Y-78225527D01*
X108220385Y-78301717D01*
X108220385Y-78492193D01*
X108182289Y-78568384D01*
X108144194Y-78606479D01*
X108068004Y-78644574D01*
X107839432Y-78644574D01*
X107763242Y-78606479D01*
X107725146Y-78568384D01*
X108906099Y-78111241D02*
X108906099Y-78644574D01*
X108715623Y-77806479D02*
X108525146Y-78377908D01*
X109020385Y-78377908D01*
X119679189Y-78644574D02*
X119679189Y-77844574D01*
X119869665Y-77844574D01*
X119983951Y-77882670D01*
X120060141Y-77958860D01*
X120098237Y-78035050D01*
X120136332Y-78187431D01*
X120136332Y-78301717D01*
X120098237Y-78454098D01*
X120060141Y-78530289D01*
X119983951Y-78606479D01*
X119869665Y-78644574D01*
X119679189Y-78644574D01*
X120402998Y-77844574D02*
X120898237Y-77844574D01*
X120631570Y-78149336D01*
X120745856Y-78149336D01*
X120822046Y-78187431D01*
X120860141Y-78225527D01*
X120898237Y-78301717D01*
X120898237Y-78492193D01*
X120860141Y-78568384D01*
X120822046Y-78606479D01*
X120745856Y-78644574D01*
X120517284Y-78644574D01*
X120441094Y-78606479D01*
X120402998Y-78568384D01*
X121622046Y-77844574D02*
X121241094Y-77844574D01*
X121202998Y-78225527D01*
X121241094Y-78187431D01*
X121317284Y-78149336D01*
X121507760Y-78149336D01*
X121583951Y-78187431D01*
X121622046Y-78225527D01*
X121660141Y-78301717D01*
X121660141Y-78492193D01*
X121622046Y-78568384D01*
X121583951Y-78606479D01*
X121507760Y-78644574D01*
X121317284Y-78644574D01*
X121241094Y-78606479D01*
X121202998Y-78568384D01*
X132357041Y-78644574D02*
X132357041Y-77844574D01*
X132547517Y-77844574D01*
X132661803Y-77882670D01*
X132737993Y-77958860D01*
X132776089Y-78035050D01*
X132814184Y-78187431D01*
X132814184Y-78301717D01*
X132776089Y-78454098D01*
X132737993Y-78530289D01*
X132661803Y-78606479D01*
X132547517Y-78644574D01*
X132357041Y-78644574D01*
X133080850Y-77844574D02*
X133576089Y-77844574D01*
X133309422Y-78149336D01*
X133423708Y-78149336D01*
X133499898Y-78187431D01*
X133537993Y-78225527D01*
X133576089Y-78301717D01*
X133576089Y-78492193D01*
X133537993Y-78568384D01*
X133499898Y-78606479D01*
X133423708Y-78644574D01*
X133195136Y-78644574D01*
X133118946Y-78606479D01*
X133080850Y-78568384D01*
X134261803Y-77844574D02*
X134109422Y-77844574D01*
X134033231Y-77882670D01*
X133995136Y-77920765D01*
X133918946Y-78035050D01*
X133880850Y-78187431D01*
X133880850Y-78492193D01*
X133918946Y-78568384D01*
X133957041Y-78606479D01*
X134033231Y-78644574D01*
X134185612Y-78644574D01*
X134261803Y-78606479D01*
X134299898Y-78568384D01*
X134337993Y-78492193D01*
X134337993Y-78301717D01*
X134299898Y-78225527D01*
X134261803Y-78187431D01*
X134185612Y-78149336D01*
X134033231Y-78149336D01*
X133957041Y-78187431D01*
X133918946Y-78225527D01*
X133880850Y-78301717D01*
X145034893Y-78644574D02*
X145034893Y-77844574D01*
X145225369Y-77844574D01*
X145339655Y-77882670D01*
X145415845Y-77958860D01*
X145453941Y-78035050D01*
X145492036Y-78187431D01*
X145492036Y-78301717D01*
X145453941Y-78454098D01*
X145415845Y-78530289D01*
X145339655Y-78606479D01*
X145225369Y-78644574D01*
X145034893Y-78644574D01*
X145758702Y-77844574D02*
X146253941Y-77844574D01*
X145987274Y-78149336D01*
X146101560Y-78149336D01*
X146177750Y-78187431D01*
X146215845Y-78225527D01*
X146253941Y-78301717D01*
X146253941Y-78492193D01*
X146215845Y-78568384D01*
X146177750Y-78606479D01*
X146101560Y-78644574D01*
X145872988Y-78644574D01*
X145796798Y-78606479D01*
X145758702Y-78568384D01*
X146520607Y-77844574D02*
X147053941Y-77844574D01*
X146711083Y-78644574D01*
X157712745Y-78644574D02*
X157712745Y-77844574D01*
X157903221Y-77844574D01*
X158017507Y-77882670D01*
X158093697Y-77958860D01*
X158131793Y-78035050D01*
X158169888Y-78187431D01*
X158169888Y-78301717D01*
X158131793Y-78454098D01*
X158093697Y-78530289D01*
X158017507Y-78606479D01*
X157903221Y-78644574D01*
X157712745Y-78644574D01*
X158436554Y-77844574D02*
X158931793Y-77844574D01*
X158665126Y-78149336D01*
X158779412Y-78149336D01*
X158855602Y-78187431D01*
X158893697Y-78225527D01*
X158931793Y-78301717D01*
X158931793Y-78492193D01*
X158893697Y-78568384D01*
X158855602Y-78606479D01*
X158779412Y-78644574D01*
X158550840Y-78644574D01*
X158474650Y-78606479D01*
X158436554Y-78568384D01*
X159388935Y-78187431D02*
X159312745Y-78149336D01*
X159274650Y-78111241D01*
X159236554Y-78035050D01*
X159236554Y-77996955D01*
X159274650Y-77920765D01*
X159312745Y-77882670D01*
X159388935Y-77844574D01*
X159541316Y-77844574D01*
X159617507Y-77882670D01*
X159655602Y-77920765D01*
X159693697Y-77996955D01*
X159693697Y-78035050D01*
X159655602Y-78111241D01*
X159617507Y-78149336D01*
X159541316Y-78187431D01*
X159388935Y-78187431D01*
X159312745Y-78225527D01*
X159274650Y-78263622D01*
X159236554Y-78339812D01*
X159236554Y-78492193D01*
X159274650Y-78568384D01*
X159312745Y-78606479D01*
X159388935Y-78644574D01*
X159541316Y-78644574D01*
X159617507Y-78606479D01*
X159655602Y-78568384D01*
X159693697Y-78492193D01*
X159693697Y-78339812D01*
X159655602Y-78263622D01*
X159617507Y-78225527D01*
X159541316Y-78187431D01*
X170390597Y-78644574D02*
X170390597Y-77844574D01*
X170581073Y-77844574D01*
X170695359Y-77882670D01*
X170771549Y-77958860D01*
X170809645Y-78035050D01*
X170847740Y-78187431D01*
X170847740Y-78301717D01*
X170809645Y-78454098D01*
X170771549Y-78530289D01*
X170695359Y-78606479D01*
X170581073Y-78644574D01*
X170390597Y-78644574D01*
X171114406Y-77844574D02*
X171609645Y-77844574D01*
X171342978Y-78149336D01*
X171457264Y-78149336D01*
X171533454Y-78187431D01*
X171571549Y-78225527D01*
X171609645Y-78301717D01*
X171609645Y-78492193D01*
X171571549Y-78568384D01*
X171533454Y-78606479D01*
X171457264Y-78644574D01*
X171228692Y-78644574D01*
X171152502Y-78606479D01*
X171114406Y-78568384D01*
X171990597Y-78644574D02*
X172142978Y-78644574D01*
X172219168Y-78606479D01*
X172257264Y-78568384D01*
X172333454Y-78454098D01*
X172371549Y-78301717D01*
X172371549Y-77996955D01*
X172333454Y-77920765D01*
X172295359Y-77882670D01*
X172219168Y-77844574D01*
X172066787Y-77844574D01*
X171990597Y-77882670D01*
X171952502Y-77920765D01*
X171914406Y-77996955D01*
X171914406Y-78187431D01*
X171952502Y-78263622D01*
X171990597Y-78301717D01*
X172066787Y-78339812D01*
X172219168Y-78339812D01*
X172295359Y-78301717D01*
X172333454Y-78263622D01*
X172371549Y-78187431D01*
X183068449Y-78644574D02*
X183068449Y-77844574D01*
X183258925Y-77844574D01*
X183373211Y-77882670D01*
X183449401Y-77958860D01*
X183487497Y-78035050D01*
X183525592Y-78187431D01*
X183525592Y-78301717D01*
X183487497Y-78454098D01*
X183449401Y-78530289D01*
X183373211Y-78606479D01*
X183258925Y-78644574D01*
X183068449Y-78644574D01*
X184211306Y-78111241D02*
X184211306Y-78644574D01*
X184020830Y-77806479D02*
X183830354Y-78377908D01*
X184325592Y-78377908D01*
X184782735Y-77844574D02*
X184858925Y-77844574D01*
X184935116Y-77882670D01*
X184973211Y-77920765D01*
X185011306Y-77996955D01*
X185049401Y-78149336D01*
X185049401Y-78339812D01*
X185011306Y-78492193D01*
X184973211Y-78568384D01*
X184935116Y-78606479D01*
X184858925Y-78644574D01*
X184782735Y-78644574D01*
X184706544Y-78606479D01*
X184668449Y-78568384D01*
X184630354Y-78492193D01*
X184592258Y-78339812D01*
X184592258Y-78149336D01*
X184630354Y-77996955D01*
X184668449Y-77920765D01*
X184706544Y-77882670D01*
X184782735Y-77844574D01*
X195746301Y-78644574D02*
X195746301Y-77844574D01*
X195936777Y-77844574D01*
X196051063Y-77882670D01*
X196127253Y-77958860D01*
X196165349Y-78035050D01*
X196203444Y-78187431D01*
X196203444Y-78301717D01*
X196165349Y-78454098D01*
X196127253Y-78530289D01*
X196051063Y-78606479D01*
X195936777Y-78644574D01*
X195746301Y-78644574D01*
X196889158Y-78111241D02*
X196889158Y-78644574D01*
X196698682Y-77806479D02*
X196508206Y-78377908D01*
X197003444Y-78377908D01*
X197727253Y-78644574D02*
X197270110Y-78644574D01*
X197498682Y-78644574D02*
X197498682Y-77844574D01*
X197422491Y-77958860D01*
X197346301Y-78035050D01*
X197270110Y-78073146D01*
X208424153Y-78644574D02*
X208424153Y-77844574D01*
X208614629Y-77844574D01*
X208728915Y-77882670D01*
X208805105Y-77958860D01*
X208843201Y-78035050D01*
X208881296Y-78187431D01*
X208881296Y-78301717D01*
X208843201Y-78454098D01*
X208805105Y-78530289D01*
X208728915Y-78606479D01*
X208614629Y-78644574D01*
X208424153Y-78644574D01*
X209567010Y-78111241D02*
X209567010Y-78644574D01*
X209376534Y-77806479D02*
X209186058Y-78377908D01*
X209681296Y-78377908D01*
X209947962Y-77920765D02*
X209986058Y-77882670D01*
X210062248Y-77844574D01*
X210252724Y-77844574D01*
X210328915Y-77882670D01*
X210367010Y-77920765D01*
X210405105Y-77996955D01*
X210405105Y-78073146D01*
X210367010Y-78187431D01*
X209909867Y-78644574D01*
X210405105Y-78644574D01*
X233672493Y-78644574D02*
X233672493Y-77844574D01*
X233862969Y-77844574D01*
X233977255Y-77882670D01*
X234053445Y-77958860D01*
X234091541Y-78035050D01*
X234129636Y-78187431D01*
X234129636Y-78301717D01*
X234091541Y-78454098D01*
X234053445Y-78530289D01*
X233977255Y-78606479D01*
X233862969Y-78644574D01*
X233672493Y-78644574D01*
X234815350Y-78111241D02*
X234815350Y-78644574D01*
X234624874Y-77806479D02*
X234434398Y-78377908D01*
X234929636Y-78377908D01*
X235158207Y-77844574D02*
X235653445Y-77844574D01*
X235386779Y-78149336D01*
X235501064Y-78149336D01*
X235577255Y-78187431D01*
X235615350Y-78225527D01*
X235653445Y-78301717D01*
X235653445Y-78492193D01*
X235615350Y-78568384D01*
X235577255Y-78606479D01*
X235501064Y-78644574D01*
X235272493Y-78644574D01*
X235196302Y-78606479D01*
X235158207Y-78568384D01*
X268393052Y-76991045D02*
X268393052Y-76191045D01*
X268583528Y-76191045D01*
X268697814Y-76229141D01*
X268774004Y-76305331D01*
X268812100Y-76381521D01*
X268850195Y-76533902D01*
X268850195Y-76648188D01*
X268812100Y-76800569D01*
X268774004Y-76876760D01*
X268697814Y-76952950D01*
X268583528Y-76991045D01*
X268393052Y-76991045D01*
X269535909Y-76457712D02*
X269535909Y-76991045D01*
X269345433Y-76152950D02*
X269154957Y-76724379D01*
X269650195Y-76724379D01*
X270297814Y-76457712D02*
X270297814Y-76991045D01*
X270107338Y-76152950D02*
X269916861Y-76724379D01*
X270412100Y-76724379D01*
X97492948Y-80298103D02*
X97492948Y-79498103D01*
X97683424Y-79498103D01*
X97797710Y-79536199D01*
X97873900Y-79612389D01*
X97911996Y-79688579D01*
X97950091Y-79840960D01*
X97950091Y-79955246D01*
X97911996Y-80107627D01*
X97873900Y-80183818D01*
X97797710Y-80260008D01*
X97683424Y-80298103D01*
X97492948Y-80298103D01*
X98635805Y-79764770D02*
X98635805Y-80298103D01*
X98445329Y-79460008D02*
X98254853Y-80031437D01*
X98750091Y-80031437D01*
X99397710Y-79498103D02*
X99245329Y-79498103D01*
X99169138Y-79536199D01*
X99131043Y-79574294D01*
X99054853Y-79688579D01*
X99016757Y-79840960D01*
X99016757Y-80145722D01*
X99054853Y-80221913D01*
X99092948Y-80260008D01*
X99169138Y-80298103D01*
X99321519Y-80298103D01*
X99397710Y-80260008D01*
X99435805Y-80221913D01*
X99473900Y-80145722D01*
X99473900Y-79955246D01*
X99435805Y-79879056D01*
X99397710Y-79840960D01*
X99321519Y-79802865D01*
X99169138Y-79802865D01*
X99092948Y-79840960D01*
X99054853Y-79879056D01*
X99016757Y-79955246D01*
X110170800Y-80298103D02*
X110170800Y-79498103D01*
X110361276Y-79498103D01*
X110475562Y-79536199D01*
X110551752Y-79612389D01*
X110589848Y-79688579D01*
X110627943Y-79840960D01*
X110627943Y-79955246D01*
X110589848Y-80107627D01*
X110551752Y-80183818D01*
X110475562Y-80260008D01*
X110361276Y-80298103D01*
X110170800Y-80298103D01*
X111313657Y-79764770D02*
X111313657Y-80298103D01*
X111123181Y-79460008D02*
X110932705Y-80031437D01*
X111427943Y-80031437D01*
X111656514Y-79498103D02*
X112189848Y-79498103D01*
X111846990Y-80298103D01*
X122848652Y-80298103D02*
X122848652Y-79498103D01*
X123039128Y-79498103D01*
X123153414Y-79536199D01*
X123229604Y-79612389D01*
X123267700Y-79688579D01*
X123305795Y-79840960D01*
X123305795Y-79955246D01*
X123267700Y-80107627D01*
X123229604Y-80183818D01*
X123153414Y-80260008D01*
X123039128Y-80298103D01*
X122848652Y-80298103D01*
X123991509Y-79764770D02*
X123991509Y-80298103D01*
X123801033Y-79460008D02*
X123610557Y-80031437D01*
X124105795Y-80031437D01*
X124524842Y-79840960D02*
X124448652Y-79802865D01*
X124410557Y-79764770D01*
X124372461Y-79688579D01*
X124372461Y-79650484D01*
X124410557Y-79574294D01*
X124448652Y-79536199D01*
X124524842Y-79498103D01*
X124677223Y-79498103D01*
X124753414Y-79536199D01*
X124791509Y-79574294D01*
X124829604Y-79650484D01*
X124829604Y-79688579D01*
X124791509Y-79764770D01*
X124753414Y-79802865D01*
X124677223Y-79840960D01*
X124524842Y-79840960D01*
X124448652Y-79879056D01*
X124410557Y-79917151D01*
X124372461Y-79993341D01*
X124372461Y-80145722D01*
X124410557Y-80221913D01*
X124448652Y-80260008D01*
X124524842Y-80298103D01*
X124677223Y-80298103D01*
X124753414Y-80260008D01*
X124791509Y-80221913D01*
X124829604Y-80145722D01*
X124829604Y-79993341D01*
X124791509Y-79917151D01*
X124753414Y-79879056D01*
X124677223Y-79840960D01*
X135526504Y-80298103D02*
X135526504Y-79498103D01*
X135716980Y-79498103D01*
X135831266Y-79536199D01*
X135907456Y-79612389D01*
X135945552Y-79688579D01*
X135983647Y-79840960D01*
X135983647Y-79955246D01*
X135945552Y-80107627D01*
X135907456Y-80183818D01*
X135831266Y-80260008D01*
X135716980Y-80298103D01*
X135526504Y-80298103D01*
X136669361Y-79764770D02*
X136669361Y-80298103D01*
X136478885Y-79460008D02*
X136288409Y-80031437D01*
X136783647Y-80031437D01*
X137126504Y-80298103D02*
X137278885Y-80298103D01*
X137355075Y-80260008D01*
X137393171Y-80221913D01*
X137469361Y-80107627D01*
X137507456Y-79955246D01*
X137507456Y-79650484D01*
X137469361Y-79574294D01*
X137431266Y-79536199D01*
X137355075Y-79498103D01*
X137202694Y-79498103D01*
X137126504Y-79536199D01*
X137088409Y-79574294D01*
X137050313Y-79650484D01*
X137050313Y-79840960D01*
X137088409Y-79917151D01*
X137126504Y-79955246D01*
X137202694Y-79993341D01*
X137355075Y-79993341D01*
X137431266Y-79955246D01*
X137469361Y-79917151D01*
X137507456Y-79840960D01*
X148204356Y-80298103D02*
X148204356Y-79498103D01*
X148394832Y-79498103D01*
X148509118Y-79536199D01*
X148585308Y-79612389D01*
X148623404Y-79688579D01*
X148661499Y-79840960D01*
X148661499Y-79955246D01*
X148623404Y-80107627D01*
X148585308Y-80183818D01*
X148509118Y-80260008D01*
X148394832Y-80298103D01*
X148204356Y-80298103D01*
X149385308Y-79498103D02*
X149004356Y-79498103D01*
X148966261Y-79879056D01*
X149004356Y-79840960D01*
X149080546Y-79802865D01*
X149271023Y-79802865D01*
X149347213Y-79840960D01*
X149385308Y-79879056D01*
X149423404Y-79955246D01*
X149423404Y-80145722D01*
X149385308Y-80221913D01*
X149347213Y-80260008D01*
X149271023Y-80298103D01*
X149080546Y-80298103D01*
X149004356Y-80260008D01*
X148966261Y-80221913D01*
X149918642Y-79498103D02*
X149994832Y-79498103D01*
X150071023Y-79536199D01*
X150109118Y-79574294D01*
X150147213Y-79650484D01*
X150185308Y-79802865D01*
X150185308Y-79993341D01*
X150147213Y-80145722D01*
X150109118Y-80221913D01*
X150071023Y-80260008D01*
X149994832Y-80298103D01*
X149918642Y-80298103D01*
X149842451Y-80260008D01*
X149804356Y-80221913D01*
X149766261Y-80145722D01*
X149728165Y-79993341D01*
X149728165Y-79802865D01*
X149766261Y-79650484D01*
X149804356Y-79574294D01*
X149842451Y-79536199D01*
X149918642Y-79498103D01*
X160882208Y-80298103D02*
X160882208Y-79498103D01*
X161072684Y-79498103D01*
X161186970Y-79536199D01*
X161263160Y-79612389D01*
X161301256Y-79688579D01*
X161339351Y-79840960D01*
X161339351Y-79955246D01*
X161301256Y-80107627D01*
X161263160Y-80183818D01*
X161186970Y-80260008D01*
X161072684Y-80298103D01*
X160882208Y-80298103D01*
X162063160Y-79498103D02*
X161682208Y-79498103D01*
X161644113Y-79879056D01*
X161682208Y-79840960D01*
X161758398Y-79802865D01*
X161948875Y-79802865D01*
X162025065Y-79840960D01*
X162063160Y-79879056D01*
X162101256Y-79955246D01*
X162101256Y-80145722D01*
X162063160Y-80221913D01*
X162025065Y-80260008D01*
X161948875Y-80298103D01*
X161758398Y-80298103D01*
X161682208Y-80260008D01*
X161644113Y-80221913D01*
X162863160Y-80298103D02*
X162406017Y-80298103D01*
X162634589Y-80298103D02*
X162634589Y-79498103D01*
X162558398Y-79612389D01*
X162482208Y-79688579D01*
X162406017Y-79726675D01*
X173560060Y-80298103D02*
X173560060Y-79498103D01*
X173750536Y-79498103D01*
X173864822Y-79536199D01*
X173941012Y-79612389D01*
X173979108Y-79688579D01*
X174017203Y-79840960D01*
X174017203Y-79955246D01*
X173979108Y-80107627D01*
X173941012Y-80183818D01*
X173864822Y-80260008D01*
X173750536Y-80298103D01*
X173560060Y-80298103D01*
X174741012Y-79498103D02*
X174360060Y-79498103D01*
X174321965Y-79879056D01*
X174360060Y-79840960D01*
X174436250Y-79802865D01*
X174626727Y-79802865D01*
X174702917Y-79840960D01*
X174741012Y-79879056D01*
X174779108Y-79955246D01*
X174779108Y-80145722D01*
X174741012Y-80221913D01*
X174702917Y-80260008D01*
X174626727Y-80298103D01*
X174436250Y-80298103D01*
X174360060Y-80260008D01*
X174321965Y-80221913D01*
X175083869Y-79574294D02*
X175121965Y-79536199D01*
X175198155Y-79498103D01*
X175388631Y-79498103D01*
X175464822Y-79536199D01*
X175502917Y-79574294D01*
X175541012Y-79650484D01*
X175541012Y-79726675D01*
X175502917Y-79840960D01*
X175045774Y-80298103D01*
X175541012Y-80298103D01*
X186237912Y-80298103D02*
X186237912Y-79498103D01*
X186428388Y-79498103D01*
X186542674Y-79536199D01*
X186618864Y-79612389D01*
X186656960Y-79688579D01*
X186695055Y-79840960D01*
X186695055Y-79955246D01*
X186656960Y-80107627D01*
X186618864Y-80183818D01*
X186542674Y-80260008D01*
X186428388Y-80298103D01*
X186237912Y-80298103D01*
X187418864Y-79498103D02*
X187037912Y-79498103D01*
X186999817Y-79879056D01*
X187037912Y-79840960D01*
X187114102Y-79802865D01*
X187304579Y-79802865D01*
X187380769Y-79840960D01*
X187418864Y-79879056D01*
X187456960Y-79955246D01*
X187456960Y-80145722D01*
X187418864Y-80221913D01*
X187380769Y-80260008D01*
X187304579Y-80298103D01*
X187114102Y-80298103D01*
X187037912Y-80260008D01*
X186999817Y-80221913D01*
X187723626Y-79498103D02*
X188218864Y-79498103D01*
X187952198Y-79802865D01*
X188066483Y-79802865D01*
X188142674Y-79840960D01*
X188180769Y-79879056D01*
X188218864Y-79955246D01*
X188218864Y-80145722D01*
X188180769Y-80221913D01*
X188142674Y-80260008D01*
X188066483Y-80298103D01*
X187837912Y-80298103D01*
X187761721Y-80260008D01*
X187723626Y-80221913D01*
X198915764Y-80298103D02*
X198915764Y-79498103D01*
X199106240Y-79498103D01*
X199220526Y-79536199D01*
X199296716Y-79612389D01*
X199334812Y-79688579D01*
X199372907Y-79840960D01*
X199372907Y-79955246D01*
X199334812Y-80107627D01*
X199296716Y-80183818D01*
X199220526Y-80260008D01*
X199106240Y-80298103D01*
X198915764Y-80298103D01*
X200096716Y-79498103D02*
X199715764Y-79498103D01*
X199677669Y-79879056D01*
X199715764Y-79840960D01*
X199791954Y-79802865D01*
X199982431Y-79802865D01*
X200058621Y-79840960D01*
X200096716Y-79879056D01*
X200134812Y-79955246D01*
X200134812Y-80145722D01*
X200096716Y-80221913D01*
X200058621Y-80260008D01*
X199982431Y-80298103D01*
X199791954Y-80298103D01*
X199715764Y-80260008D01*
X199677669Y-80221913D01*
X200820526Y-79764770D02*
X200820526Y-80298103D01*
X200630050Y-79460008D02*
X200439573Y-80031437D01*
X200934812Y-80031437D01*
X211593616Y-80298103D02*
X211593616Y-79498103D01*
X211784092Y-79498103D01*
X211898378Y-79536199D01*
X211974568Y-79612389D01*
X212012664Y-79688579D01*
X212050759Y-79840960D01*
X212050759Y-79955246D01*
X212012664Y-80107627D01*
X211974568Y-80183818D01*
X211898378Y-80260008D01*
X211784092Y-80298103D01*
X211593616Y-80298103D01*
X212774568Y-79498103D02*
X212393616Y-79498103D01*
X212355521Y-79879056D01*
X212393616Y-79840960D01*
X212469806Y-79802865D01*
X212660283Y-79802865D01*
X212736473Y-79840960D01*
X212774568Y-79879056D01*
X212812664Y-79955246D01*
X212812664Y-80145722D01*
X212774568Y-80221913D01*
X212736473Y-80260008D01*
X212660283Y-80298103D01*
X212469806Y-80298103D01*
X212393616Y-80260008D01*
X212355521Y-80221913D01*
X213536473Y-79498103D02*
X213155521Y-79498103D01*
X213117425Y-79879056D01*
X213155521Y-79840960D01*
X213231711Y-79802865D01*
X213422187Y-79802865D01*
X213498378Y-79840960D01*
X213536473Y-79879056D01*
X213574568Y-79955246D01*
X213574568Y-80145722D01*
X213536473Y-80221913D01*
X213498378Y-80260008D01*
X213422187Y-80298103D01*
X213231711Y-80298103D01*
X213155521Y-80260008D01*
X213117425Y-80221913D01*
X221067013Y-78644574D02*
X221067013Y-77844574D01*
X221257489Y-77844574D01*
X221371775Y-77882670D01*
X221447965Y-77958860D01*
X221486061Y-78035050D01*
X221524156Y-78187431D01*
X221524156Y-78301717D01*
X221486061Y-78454098D01*
X221447965Y-78530289D01*
X221371775Y-78606479D01*
X221257489Y-78644574D01*
X221067013Y-78644574D01*
X222247965Y-77844574D02*
X221867013Y-77844574D01*
X221828918Y-78225527D01*
X221867013Y-78187431D01*
X221943203Y-78149336D01*
X222133680Y-78149336D01*
X222209870Y-78187431D01*
X222247965Y-78225527D01*
X222286061Y-78301717D01*
X222286061Y-78492193D01*
X222247965Y-78568384D01*
X222209870Y-78606479D01*
X222133680Y-78644574D01*
X221943203Y-78644574D01*
X221867013Y-78606479D01*
X221828918Y-78568384D01*
X222971775Y-77844574D02*
X222819394Y-77844574D01*
X222743203Y-77882670D01*
X222705108Y-77920765D01*
X222628918Y-78035050D01*
X222590822Y-78187431D01*
X222590822Y-78492193D01*
X222628918Y-78568384D01*
X222667013Y-78606479D01*
X222743203Y-78644574D01*
X222895584Y-78644574D01*
X222971775Y-78606479D01*
X223009870Y-78568384D01*
X223047965Y-78492193D01*
X223047965Y-78301717D01*
X223009870Y-78225527D01*
X222971775Y-78187431D01*
X222895584Y-78149336D01*
X222743203Y-78149336D01*
X222667013Y-78187431D01*
X222628918Y-78225527D01*
X222590822Y-78301717D01*
X236823266Y-80298103D02*
X236823266Y-79498103D01*
X237013742Y-79498103D01*
X237128028Y-79536199D01*
X237204218Y-79612389D01*
X237242314Y-79688579D01*
X237280409Y-79840960D01*
X237280409Y-79955246D01*
X237242314Y-80107627D01*
X237204218Y-80183818D01*
X237128028Y-80260008D01*
X237013742Y-80298103D01*
X236823266Y-80298103D01*
X238004218Y-79498103D02*
X237623266Y-79498103D01*
X237585171Y-79879056D01*
X237623266Y-79840960D01*
X237699456Y-79802865D01*
X237889933Y-79802865D01*
X237966123Y-79840960D01*
X238004218Y-79879056D01*
X238042314Y-79955246D01*
X238042314Y-80145722D01*
X238004218Y-80221913D01*
X237966123Y-80260008D01*
X237889933Y-80298103D01*
X237699456Y-80298103D01*
X237623266Y-80260008D01*
X237585171Y-80221913D01*
X238308980Y-79498103D02*
X238842314Y-79498103D01*
X238499456Y-80298103D01*
X265118177Y-75337516D02*
X265118177Y-74537516D01*
X265308653Y-74537516D01*
X265422939Y-74575612D01*
X265499129Y-74651802D01*
X265537225Y-74727992D01*
X265575320Y-74880373D01*
X265575320Y-74994659D01*
X265537225Y-75147040D01*
X265499129Y-75223231D01*
X265422939Y-75299421D01*
X265308653Y-75337516D01*
X265118177Y-75337516D01*
X266299129Y-74537516D02*
X265918177Y-74537516D01*
X265880082Y-74918469D01*
X265918177Y-74880373D01*
X265994367Y-74842278D01*
X266184844Y-74842278D01*
X266261034Y-74880373D01*
X266299129Y-74918469D01*
X266337225Y-74994659D01*
X266337225Y-75185135D01*
X266299129Y-75261326D01*
X266261034Y-75299421D01*
X266184844Y-75337516D01*
X265994367Y-75337516D01*
X265918177Y-75299421D01*
X265880082Y-75261326D01*
X266794367Y-74880373D02*
X266718177Y-74842278D01*
X266680082Y-74804183D01*
X266641986Y-74727992D01*
X266641986Y-74689897D01*
X266680082Y-74613707D01*
X266718177Y-74575612D01*
X266794367Y-74537516D01*
X266946748Y-74537516D01*
X267022939Y-74575612D01*
X267061034Y-74613707D01*
X267099129Y-74689897D01*
X267099129Y-74727992D01*
X267061034Y-74804183D01*
X267022939Y-74842278D01*
X266946748Y-74880373D01*
X266794367Y-74880373D01*
X266718177Y-74918469D01*
X266680082Y-74956564D01*
X266641986Y-75032754D01*
X266641986Y-75185135D01*
X266680082Y-75261326D01*
X266718177Y-75299421D01*
X266794367Y-75337516D01*
X266946748Y-75337516D01*
X267022939Y-75299421D01*
X267061034Y-75261326D01*
X267099129Y-75185135D01*
X267099129Y-75032754D01*
X267061034Y-74956564D01*
X267022939Y-74918469D01*
X266946748Y-74880373D01*
X258816629Y-78644574D02*
X258816629Y-77844574D01*
X259007105Y-77844574D01*
X259121391Y-77882670D01*
X259197581Y-77958860D01*
X259235677Y-78035050D01*
X259273772Y-78187431D01*
X259273772Y-78301717D01*
X259235677Y-78454098D01*
X259197581Y-78530289D01*
X259121391Y-78606479D01*
X259007105Y-78644574D01*
X258816629Y-78644574D01*
X259997581Y-77844574D02*
X259616629Y-77844574D01*
X259578534Y-78225527D01*
X259616629Y-78187431D01*
X259692819Y-78149336D01*
X259883296Y-78149336D01*
X259959486Y-78187431D01*
X259997581Y-78225527D01*
X260035677Y-78301717D01*
X260035677Y-78492193D01*
X259997581Y-78568384D01*
X259959486Y-78606479D01*
X259883296Y-78644574D01*
X259692819Y-78644574D01*
X259616629Y-78606479D01*
X259578534Y-78568384D01*
X260416629Y-78644574D02*
X260569010Y-78644574D01*
X260645200Y-78606479D01*
X260683296Y-78568384D01*
X260759486Y-78454098D01*
X260797581Y-78301717D01*
X260797581Y-77996955D01*
X260759486Y-77920765D01*
X260721391Y-77882670D01*
X260645200Y-77844574D01*
X260492819Y-77844574D01*
X260416629Y-77882670D01*
X260378534Y-77920765D01*
X260340438Y-77996955D01*
X260340438Y-78187431D01*
X260378534Y-78263622D01*
X260416629Y-78301717D01*
X260492819Y-78339812D01*
X260645200Y-78339812D01*
X260721391Y-78301717D01*
X260759486Y-78263622D01*
X260797581Y-78187431D01*
X75306707Y-75337516D02*
X75306707Y-74537516D01*
X75497183Y-74537516D01*
X75611469Y-74575612D01*
X75687659Y-74651802D01*
X75725755Y-74727992D01*
X75763850Y-74880373D01*
X75763850Y-74994659D01*
X75725755Y-75147040D01*
X75687659Y-75223231D01*
X75611469Y-75299421D01*
X75497183Y-75337516D01*
X75306707Y-75337516D01*
X76449564Y-74537516D02*
X76297183Y-74537516D01*
X76220993Y-74575612D01*
X76182897Y-74613707D01*
X76106707Y-74727992D01*
X76068612Y-74880373D01*
X76068612Y-75185135D01*
X76106707Y-75261326D01*
X76144802Y-75299421D01*
X76220993Y-75337516D01*
X76373374Y-75337516D01*
X76449564Y-75299421D01*
X76487659Y-75261326D01*
X76525755Y-75185135D01*
X76525755Y-74994659D01*
X76487659Y-74918469D01*
X76449564Y-74880373D01*
X76373374Y-74842278D01*
X76220993Y-74842278D01*
X76144802Y-74880373D01*
X76106707Y-74918469D01*
X76068612Y-74994659D01*
X77020993Y-74537516D02*
X77097183Y-74537516D01*
X77173374Y-74575612D01*
X77211469Y-74613707D01*
X77249564Y-74689897D01*
X77287659Y-74842278D01*
X77287659Y-75032754D01*
X77249564Y-75185135D01*
X77211469Y-75261326D01*
X77173374Y-75299421D01*
X77097183Y-75337516D01*
X77020993Y-75337516D01*
X76944802Y-75299421D01*
X76906707Y-75261326D01*
X76868612Y-75185135D01*
X76830516Y-75032754D01*
X76830516Y-74842278D01*
X76868612Y-74689897D01*
X76906707Y-74613707D01*
X76944802Y-74575612D01*
X77020993Y-74537516D01*
X255665855Y-76991045D02*
X255665855Y-76191045D01*
X255856331Y-76191045D01*
X255970617Y-76229141D01*
X256046807Y-76305331D01*
X256084903Y-76381521D01*
X256122998Y-76533902D01*
X256122998Y-76648188D01*
X256084903Y-76800569D01*
X256046807Y-76876760D01*
X255970617Y-76952950D01*
X255856331Y-76991045D01*
X255665855Y-76991045D01*
X256808712Y-76191045D02*
X256656331Y-76191045D01*
X256580141Y-76229141D01*
X256542045Y-76267236D01*
X256465855Y-76381521D01*
X256427760Y-76533902D01*
X256427760Y-76838664D01*
X256465855Y-76914855D01*
X256503950Y-76952950D01*
X256580141Y-76991045D01*
X256732522Y-76991045D01*
X256808712Y-76952950D01*
X256846807Y-76914855D01*
X256884903Y-76838664D01*
X256884903Y-76648188D01*
X256846807Y-76571998D01*
X256808712Y-76533902D01*
X256732522Y-76495807D01*
X256580141Y-76495807D01*
X256503950Y-76533902D01*
X256465855Y-76571998D01*
X256427760Y-76648188D01*
X257646807Y-76991045D02*
X257189664Y-76991045D01*
X257418236Y-76991045D02*
X257418236Y-76191045D01*
X257342045Y-76305331D01*
X257265855Y-76381521D01*
X257189664Y-76419617D01*
X252515082Y-75337516D02*
X252515082Y-74537516D01*
X252705558Y-74537516D01*
X252819844Y-74575612D01*
X252896034Y-74651802D01*
X252934130Y-74727992D01*
X252972225Y-74880373D01*
X252972225Y-74994659D01*
X252934130Y-75147040D01*
X252896034Y-75223231D01*
X252819844Y-75299421D01*
X252705558Y-75337516D01*
X252515082Y-75337516D01*
X253657939Y-74537516D02*
X253505558Y-74537516D01*
X253429368Y-74575612D01*
X253391272Y-74613707D01*
X253315082Y-74727992D01*
X253276987Y-74880373D01*
X253276987Y-75185135D01*
X253315082Y-75261326D01*
X253353177Y-75299421D01*
X253429368Y-75337516D01*
X253581749Y-75337516D01*
X253657939Y-75299421D01*
X253696034Y-75261326D01*
X253734130Y-75185135D01*
X253734130Y-74994659D01*
X253696034Y-74918469D01*
X253657939Y-74880373D01*
X253581749Y-74842278D01*
X253429368Y-74842278D01*
X253353177Y-74880373D01*
X253315082Y-74918469D01*
X253276987Y-74994659D01*
X254038891Y-74613707D02*
X254076987Y-74575612D01*
X254153177Y-74537516D01*
X254343653Y-74537516D01*
X254419844Y-74575612D01*
X254457939Y-74613707D01*
X254496034Y-74689897D01*
X254496034Y-74766088D01*
X254457939Y-74880373D01*
X254000796Y-75337516D01*
X254496034Y-75337516D01*
X249364309Y-80298103D02*
X249364309Y-79498103D01*
X249554785Y-79498103D01*
X249669071Y-79536199D01*
X249745261Y-79612389D01*
X249783357Y-79688579D01*
X249821452Y-79840960D01*
X249821452Y-79955246D01*
X249783357Y-80107627D01*
X249745261Y-80183818D01*
X249669071Y-80260008D01*
X249554785Y-80298103D01*
X249364309Y-80298103D01*
X250507166Y-79498103D02*
X250354785Y-79498103D01*
X250278595Y-79536199D01*
X250240499Y-79574294D01*
X250164309Y-79688579D01*
X250126214Y-79840960D01*
X250126214Y-80145722D01*
X250164309Y-80221913D01*
X250202404Y-80260008D01*
X250278595Y-80298103D01*
X250430976Y-80298103D01*
X250507166Y-80260008D01*
X250545261Y-80221913D01*
X250583357Y-80145722D01*
X250583357Y-79955246D01*
X250545261Y-79879056D01*
X250507166Y-79840960D01*
X250430976Y-79802865D01*
X250278595Y-79802865D01*
X250202404Y-79840960D01*
X250164309Y-79879056D01*
X250126214Y-79955246D01*
X250850023Y-79498103D02*
X251345261Y-79498103D01*
X251078595Y-79802865D01*
X251192880Y-79802865D01*
X251269071Y-79840960D01*
X251307166Y-79879056D01*
X251345261Y-79955246D01*
X251345261Y-80145722D01*
X251307166Y-80221913D01*
X251269071Y-80260008D01*
X251192880Y-80298103D01*
X250964309Y-80298103D01*
X250888118Y-80260008D01*
X250850023Y-80221913D01*
X224218980Y-80298103D02*
X224218980Y-79498103D01*
X224409456Y-79498103D01*
X224523742Y-79536199D01*
X224599932Y-79612389D01*
X224638028Y-79688579D01*
X224676123Y-79840960D01*
X224676123Y-79955246D01*
X224638028Y-80107627D01*
X224599932Y-80183818D01*
X224523742Y-80260008D01*
X224409456Y-80298103D01*
X224218980Y-80298103D01*
X225361837Y-79498103D02*
X225209456Y-79498103D01*
X225133266Y-79536199D01*
X225095170Y-79574294D01*
X225018980Y-79688579D01*
X224980885Y-79840960D01*
X224980885Y-80145722D01*
X225018980Y-80221913D01*
X225057075Y-80260008D01*
X225133266Y-80298103D01*
X225285647Y-80298103D01*
X225361837Y-80260008D01*
X225399932Y-80221913D01*
X225438028Y-80145722D01*
X225438028Y-79955246D01*
X225399932Y-79879056D01*
X225361837Y-79840960D01*
X225285647Y-79802865D01*
X225133266Y-79802865D01*
X225057075Y-79840960D01*
X225018980Y-79879056D01*
X224980885Y-79955246D01*
X226123742Y-79764770D02*
X226123742Y-80298103D01*
X225933266Y-79460008D02*
X225742789Y-80031437D01*
X226238028Y-80031437D01*
X243124812Y-76991045D02*
X243124812Y-76191045D01*
X243315288Y-76191045D01*
X243429574Y-76229141D01*
X243505764Y-76305331D01*
X243543860Y-76381521D01*
X243581955Y-76533902D01*
X243581955Y-76648188D01*
X243543860Y-76800569D01*
X243505764Y-76876760D01*
X243429574Y-76952950D01*
X243315288Y-76991045D01*
X243124812Y-76991045D01*
X244267669Y-76191045D02*
X244115288Y-76191045D01*
X244039098Y-76229141D01*
X244001002Y-76267236D01*
X243924812Y-76381521D01*
X243886717Y-76533902D01*
X243886717Y-76838664D01*
X243924812Y-76914855D01*
X243962907Y-76952950D01*
X244039098Y-76991045D01*
X244191479Y-76991045D01*
X244267669Y-76952950D01*
X244305764Y-76914855D01*
X244343860Y-76838664D01*
X244343860Y-76648188D01*
X244305764Y-76571998D01*
X244267669Y-76533902D01*
X244191479Y-76495807D01*
X244039098Y-76495807D01*
X243962907Y-76533902D01*
X243924812Y-76571998D01*
X243886717Y-76648188D01*
X245067669Y-76191045D02*
X244686717Y-76191045D01*
X244648621Y-76571998D01*
X244686717Y-76533902D01*
X244762907Y-76495807D01*
X244953383Y-76495807D01*
X245029574Y-76533902D01*
X245067669Y-76571998D01*
X245105764Y-76648188D01*
X245105764Y-76838664D01*
X245067669Y-76914855D01*
X245029574Y-76952950D01*
X244953383Y-76991045D01*
X244762907Y-76991045D01*
X244686717Y-76952950D01*
X244648621Y-76914855D01*
X239974039Y-75337516D02*
X239974039Y-74537516D01*
X240164515Y-74537516D01*
X240278801Y-74575612D01*
X240354991Y-74651802D01*
X240393087Y-74727992D01*
X240431182Y-74880373D01*
X240431182Y-74994659D01*
X240393087Y-75147040D01*
X240354991Y-75223231D01*
X240278801Y-75299421D01*
X240164515Y-75337516D01*
X239974039Y-75337516D01*
X241116896Y-74537516D02*
X240964515Y-74537516D01*
X240888325Y-74575612D01*
X240850229Y-74613707D01*
X240774039Y-74727992D01*
X240735944Y-74880373D01*
X240735944Y-75185135D01*
X240774039Y-75261326D01*
X240812134Y-75299421D01*
X240888325Y-75337516D01*
X241040706Y-75337516D01*
X241116896Y-75299421D01*
X241154991Y-75261326D01*
X241193087Y-75185135D01*
X241193087Y-74994659D01*
X241154991Y-74918469D01*
X241116896Y-74880373D01*
X241040706Y-74842278D01*
X240888325Y-74842278D01*
X240812134Y-74880373D01*
X240774039Y-74918469D01*
X240735944Y-74994659D01*
X241878801Y-74537516D02*
X241726420Y-74537516D01*
X241650229Y-74575612D01*
X241612134Y-74613707D01*
X241535944Y-74727992D01*
X241497848Y-74880373D01*
X241497848Y-75185135D01*
X241535944Y-75261326D01*
X241574039Y-75299421D01*
X241650229Y-75337516D01*
X241802610Y-75337516D01*
X241878801Y-75299421D01*
X241916896Y-75261326D01*
X241954991Y-75185135D01*
X241954991Y-74994659D01*
X241916896Y-74918469D01*
X241878801Y-74880373D01*
X241802610Y-74842278D01*
X241650229Y-74842278D01*
X241574039Y-74880373D01*
X241535944Y-74918469D01*
X241497848Y-74994659D01*
X261967403Y-80298103D02*
X261967403Y-79498103D01*
X262157879Y-79498103D01*
X262272165Y-79536199D01*
X262348355Y-79612389D01*
X262386451Y-79688579D01*
X262424546Y-79840960D01*
X262424546Y-79955246D01*
X262386451Y-80107627D01*
X262348355Y-80183818D01*
X262272165Y-80260008D01*
X262157879Y-80298103D01*
X261967403Y-80298103D01*
X263110260Y-79498103D02*
X262957879Y-79498103D01*
X262881689Y-79536199D01*
X262843593Y-79574294D01*
X262767403Y-79688579D01*
X262729308Y-79840960D01*
X262729308Y-80145722D01*
X262767403Y-80221913D01*
X262805498Y-80260008D01*
X262881689Y-80298103D01*
X263034070Y-80298103D01*
X263110260Y-80260008D01*
X263148355Y-80221913D01*
X263186451Y-80145722D01*
X263186451Y-79955246D01*
X263148355Y-79879056D01*
X263110260Y-79840960D01*
X263034070Y-79802865D01*
X262881689Y-79802865D01*
X262805498Y-79840960D01*
X262767403Y-79879056D01*
X262729308Y-79955246D01*
X263453117Y-79498103D02*
X263986451Y-79498103D01*
X263643593Y-80298103D01*
X246213536Y-78644574D02*
X246213536Y-77844574D01*
X246404012Y-77844574D01*
X246518298Y-77882670D01*
X246594488Y-77958860D01*
X246632584Y-78035050D01*
X246670679Y-78187431D01*
X246670679Y-78301717D01*
X246632584Y-78454098D01*
X246594488Y-78530289D01*
X246518298Y-78606479D01*
X246404012Y-78644574D01*
X246213536Y-78644574D01*
X247356393Y-77844574D02*
X247204012Y-77844574D01*
X247127822Y-77882670D01*
X247089726Y-77920765D01*
X247013536Y-78035050D01*
X246975441Y-78187431D01*
X246975441Y-78492193D01*
X247013536Y-78568384D01*
X247051631Y-78606479D01*
X247127822Y-78644574D01*
X247280203Y-78644574D01*
X247356393Y-78606479D01*
X247394488Y-78568384D01*
X247432584Y-78492193D01*
X247432584Y-78301717D01*
X247394488Y-78225527D01*
X247356393Y-78187431D01*
X247280203Y-78149336D01*
X247127822Y-78149336D01*
X247051631Y-78187431D01*
X247013536Y-78225527D01*
X246975441Y-78301717D01*
X247889726Y-78187431D02*
X247813536Y-78149336D01*
X247775441Y-78111241D01*
X247737345Y-78035050D01*
X247737345Y-77996955D01*
X247775441Y-77920765D01*
X247813536Y-77882670D01*
X247889726Y-77844574D01*
X248042107Y-77844574D01*
X248118298Y-77882670D01*
X248156393Y-77920765D01*
X248194488Y-77996955D01*
X248194488Y-78035050D01*
X248156393Y-78111241D01*
X248118298Y-78149336D01*
X248042107Y-78187431D01*
X247889726Y-78187431D01*
X247813536Y-78225527D01*
X247775441Y-78263622D01*
X247737345Y-78339812D01*
X247737345Y-78492193D01*
X247775441Y-78568384D01*
X247813536Y-78606479D01*
X247889726Y-78644574D01*
X248042107Y-78644574D01*
X248118298Y-78606479D01*
X248156393Y-78568384D01*
X248194488Y-78492193D01*
X248194488Y-78339812D01*
X248156393Y-78263622D01*
X248118298Y-78225527D01*
X248042107Y-78187431D01*
M02*
