M48
; DRILL file {KiCad (5.1.12)-1} date 12/05/21 01:00:01
; FORMAT={-:-/ absolute / inch / decimal}
; #@! TF.CreationDate,2021-12-05T01:00:01-05:00
; #@! TF.GenerationSoftware,Kicad,Pcbnew,(5.1.12)-1
; #@! TF.FileFunction,NonPlated,1,2,NPTH
FMAT,2
INCH
T1C0.0591
T2C0.0669
T3C0.0689
T4C0.1200
T5C0.1201
T6C0.1570
T7C0.1575
%
G90
G05
T2
X2.1437Y-4.125
X2.2375Y-5.625
X2.2375Y-6.375
X2.2375Y-7.125
X2.3312Y-4.875
X2.425Y-5.625
X2.5437Y-4.125
X2.6125Y-6.375
X2.6375Y-5.625
X2.6375Y-6.375
X2.6375Y-7.125
X2.7312Y-4.875
X2.825Y-5.625
X2.8937Y-4.125
X3.0125Y-6.375
X3.0812Y-6.375
X3.175Y-7.125
X3.2687Y-4.875
X3.2937Y-4.125
X3.4562Y-5.625
X3.4812Y-6.375
X3.575Y-7.125
X3.6437Y-4.125
X3.6687Y-4.875
X3.8312Y-6.375
X3.8562Y-5.625
X4.0187Y-4.875
X4.0438Y-4.125
X4.1125Y-7.125
X4.2062Y-5.625
X4.2313Y-6.375
X4.3937Y-4.125
X4.4188Y-4.875
X4.5125Y-7.125
X4.5812Y-6.375
X4.6063Y-5.625
X4.7687Y-4.875
X4.7938Y-4.125
X4.9562Y-5.625
X4.9813Y-6.375
X5.1437Y-4.125
X5.1688Y-4.875
X5.3312Y-6.375
X5.3563Y-5.625
X5.425Y-7.125
X5.5187Y-4.875
X5.5438Y-4.125
X5.7062Y-5.625
X5.7313Y-6.375
X5.825Y-7.125
X5.8937Y-4.125
X5.9188Y-4.875
X6.0812Y-6.375
X6.1063Y-5.625
X6.2687Y-4.875
X6.2938Y-4.125
X6.4562Y-5.625
X6.4813Y-6.375
X6.6437Y-4.125
X6.6688Y-4.875
X6.7375Y-7.125
X6.8312Y-6.375
X6.8563Y-5.625
X6.925Y-7.125
X7.0187Y-4.875
X7.0438Y-4.125
X7.1375Y-7.125
X7.2062Y-5.625
X7.2313Y-6.375
X7.325Y-7.125
X7.3937Y-4.125
X7.4188Y-4.875
X7.5812Y-6.375
X7.6063Y-5.625
X7.7687Y-4.875
X7.7938Y-4.125
X7.9562Y-5.625
X7.9813Y-6.375
X8.1437Y-4.125
X8.1687Y-4.875
X8.2375Y-7.125
X8.3312Y-6.375
X8.3562Y-5.625
X8.5187Y-4.875
X8.5437Y-4.125
X8.6375Y-7.125
X8.7062Y-5.625
X8.7312Y-6.375
X8.8937Y-4.125
X8.9187Y-4.875
X9.0812Y-6.375
X9.1062Y-5.625
X9.2687Y-4.875
X9.2937Y-4.125
X9.4562Y-5.625
X9.4812Y-6.375
X9.6437Y-4.125
X9.6437Y-7.125
X9.6687Y-4.875
X9.8312Y-6.375
X9.8562Y-5.625
X10.0187Y-4.875
X10.0437Y-4.125
X10.0437Y-7.125
X10.2062Y-5.625
X10.2312Y-6.375
X10.3937Y-4.125
X10.3937Y-7.125
X10.4187Y-4.875
X10.5812Y-6.375
X10.6062Y-5.625
X10.7687Y-4.875
X10.7937Y-4.125
X10.7937Y-7.125
X10.9562Y-5.625
X10.9812Y-6.375
X11.1437Y-4.125
X11.1437Y-7.125
X11.1687Y-4.875
X11.3562Y-5.625
X11.5187Y-4.875
X11.5437Y-4.125
X11.5437Y-7.125
X11.7062Y-5.625
X11.8937Y-7.125
X11.9187Y-4.875
X11.9875Y-6.375
X12.1062Y-5.625
X12.175Y-5.625
X12.2687Y-4.125
X12.2937Y-7.125
X12.3875Y-6.375
X12.4562Y-4.875
X12.575Y-5.625
X12.6437Y-7.125
X12.6687Y-4.125
X12.8562Y-4.875
X13.0437Y-7.125
X13.3937Y-5.625
X13.3937Y-6.375
X13.3937Y-7.125
X13.7937Y-5.625
X13.7937Y-6.375
X13.7937Y-7.125
X14.1437Y-5.625
X14.1437Y-6.375
X14.1437Y-7.125
X14.5437Y-5.625
X14.5437Y-6.375
X14.5437Y-7.125
T3
X12.55Y-5.25
X12.95Y-5.25
T4
X5.1565Y-7.4
X9.0935Y-7.4
X13.025Y-4.78
X13.025Y-5.72
T5
X2.344Y-6.0994
X3.281Y-6.0994
X5.1565Y-7.4006
X6.0935Y-7.4006
X7.969Y-7.4006
X8.906Y-7.4006
X11.719Y-6.0994
X11.9065Y-5.3494
X12.0002Y-3.8494
X12.656Y-6.0994
X12.8435Y-5.3494
X12.9373Y-3.8494
T6
X5.1565Y-6.8
X9.0935Y-6.8
X12.425Y-4.78
X12.425Y-5.72
X12.75Y-5.25
T7
X2.3438Y-4.125
X2.344Y-6.6994
X2.4375Y-5.625
X2.4375Y-6.375
X2.4375Y-7.125
X2.5312Y-4.875
X2.625Y-5.625
X2.8125Y-6.375
X3.0938Y-4.125
X3.281Y-6.6994
X3.2812Y-6.375
X3.375Y-7.125
X3.4688Y-4.875
X3.6562Y-5.625
X3.8438Y-4.125
X4.0312Y-6.375
X4.2188Y-4.875
X4.3125Y-7.125
X4.4062Y-5.625
X4.5938Y-4.125
X4.7812Y-6.375
X4.9688Y-4.875
X5.1562Y-5.625
X5.1565Y-6.8006
X5.3438Y-4.125
X5.5312Y-6.375
X5.625Y-7.125
X5.7188Y-4.875
X5.9062Y-5.625
X6.0935Y-6.8006
X6.0938Y-4.125
X6.2812Y-6.375
X6.4688Y-4.875
X6.6562Y-5.625
X6.8438Y-4.125
X6.9375Y-7.125
X7.0312Y-6.375
X7.125Y-7.125
X7.2188Y-4.875
X7.4062Y-5.625
X7.5938Y-4.125
X7.7812Y-6.375
X7.9688Y-4.875
X7.969Y-6.8006
X8.1562Y-5.625
X8.3438Y-4.125
X8.4375Y-7.125
X8.5312Y-6.375
X8.7188Y-4.875
X8.906Y-6.8006
X8.9062Y-5.625
X9.0938Y-4.125
X9.2812Y-6.375
X9.4688Y-4.875
X9.6562Y-5.625
X9.8438Y-4.125
X9.8438Y-7.125
X10.0312Y-6.375
X10.2188Y-4.875
X10.4062Y-5.625
X10.5938Y-4.125
X10.5938Y-7.125
X10.7812Y-6.375
X10.9688Y-4.875
X11.1562Y-5.625
X11.3438Y-4.125
X11.3438Y-7.125
X11.7188Y-4.875
X11.719Y-6.6994
X11.9062Y-5.625
X11.9065Y-5.9494
X12.0002Y-4.4494
X12.0938Y-7.125
X12.1875Y-6.375
X12.375Y-5.625
X12.4688Y-4.125
X12.656Y-6.6994
X12.6562Y-4.875
X12.8435Y-5.9494
X12.8438Y-7.125
X12.9373Y-4.4494
X13.5938Y-5.625
X13.5938Y-6.375
X13.5938Y-7.125
X14.3438Y-5.625
X14.3438Y-6.375
X14.3438Y-7.125
T1
G00X14.1233Y-5.6506
M15
G01X14.1233Y-5.5994
M16
G05
G00X14.5642Y-5.6506
M15
G01X14.5642Y-5.5994
M16
G05
T0
M30
