%TF.GenerationSoftware,KiCad,Pcbnew,(5.1.12)-1*%
%TF.CreationDate,2021-12-04T22:37:35-05:00*%
%TF.ProjectId,GanJing 65 rev 2,47616e4a-696e-4672-9036-352072657620,2*%
%TF.SameCoordinates,Original*%
%TF.FileFunction,Soldermask,Top*%
%TF.FilePolarity,Negative*%
%FSLAX46Y46*%
G04 Gerber Fmt 4.6, Leading zero omitted, Abs format (unit mm)*
G04 Created by KiCad (PCBNEW (5.1.12)-1) date 2021-12-04 22:37:35*
%MOMM*%
%LPD*%
G01*
G04 APERTURE LIST*
%ADD10C,0.150000*%
%ADD11O,1.600000X2.000000*%
%ADD12C,1.750000*%
%ADD13C,3.048000*%
%ADD14C,2.250000*%
%ADD15C,3.987800*%
%ADD16C,1.752600*%
%ADD17R,1.752600X1.752600*%
%ADD18C,4.000000*%
%ADD19C,1.700000*%
%ADD20C,2.200000*%
%ADD21C,2.000000*%
%ADD22R,2.000000X2.000000*%
%ADD23R,2.000000X3.200000*%
%ADD24C,3.050000*%
%ADD25O,1.600000X1.600000*%
%ADD26R,1.600000X1.600000*%
G04 APERTURE END LIST*
D10*
X353235714Y-188571130D02*
X353235714Y-187571130D01*
X353473809Y-187571130D01*
X353616666Y-187618750D01*
X353711904Y-187713988D01*
X353759523Y-187809226D01*
X353807142Y-187999702D01*
X353807142Y-188142559D01*
X353759523Y-188333035D01*
X353711904Y-188428273D01*
X353616666Y-188523511D01*
X353473809Y-188571130D01*
X353235714Y-188571130D01*
X354616666Y-188523511D02*
X354521428Y-188571130D01*
X354330952Y-188571130D01*
X354235714Y-188523511D01*
X354188095Y-188428273D01*
X354188095Y-188047321D01*
X354235714Y-187952083D01*
X354330952Y-187904464D01*
X354521428Y-187904464D01*
X354616666Y-187952083D01*
X354664285Y-188047321D01*
X354664285Y-188142559D01*
X354188095Y-188237797D01*
X355045238Y-188523511D02*
X355140476Y-188571130D01*
X355330952Y-188571130D01*
X355426190Y-188523511D01*
X355473809Y-188428273D01*
X355473809Y-188380654D01*
X355426190Y-188285416D01*
X355330952Y-188237797D01*
X355188095Y-188237797D01*
X355092857Y-188190178D01*
X355045238Y-188094940D01*
X355045238Y-188047321D01*
X355092857Y-187952083D01*
X355188095Y-187904464D01*
X355330952Y-187904464D01*
X355426190Y-187952083D01*
X355902380Y-188571130D02*
X355902380Y-187904464D01*
X355902380Y-187571130D02*
X355854761Y-187618750D01*
X355902380Y-187666369D01*
X355950000Y-187618750D01*
X355902380Y-187571130D01*
X355902380Y-187666369D01*
X356807142Y-187904464D02*
X356807142Y-188713988D01*
X356759523Y-188809226D01*
X356711904Y-188856845D01*
X356616666Y-188904464D01*
X356473809Y-188904464D01*
X356378571Y-188856845D01*
X356807142Y-188523511D02*
X356711904Y-188571130D01*
X356521428Y-188571130D01*
X356426190Y-188523511D01*
X356378571Y-188475892D01*
X356330952Y-188380654D01*
X356330952Y-188094940D01*
X356378571Y-187999702D01*
X356426190Y-187952083D01*
X356521428Y-187904464D01*
X356711904Y-187904464D01*
X356807142Y-187952083D01*
X357283333Y-187904464D02*
X357283333Y-188571130D01*
X357283333Y-187999702D02*
X357330952Y-187952083D01*
X357426190Y-187904464D01*
X357569047Y-187904464D01*
X357664285Y-187952083D01*
X357711904Y-188047321D01*
X357711904Y-188571130D01*
X358569047Y-188523511D02*
X358473809Y-188571130D01*
X358283333Y-188571130D01*
X358188095Y-188523511D01*
X358140476Y-188428273D01*
X358140476Y-188047321D01*
X358188095Y-187952083D01*
X358283333Y-187904464D01*
X358473809Y-187904464D01*
X358569047Y-187952083D01*
X358616666Y-188047321D01*
X358616666Y-188142559D01*
X358140476Y-188237797D01*
X359473809Y-188571130D02*
X359473809Y-187571130D01*
X359473809Y-188523511D02*
X359378571Y-188571130D01*
X359188095Y-188571130D01*
X359092857Y-188523511D01*
X359045238Y-188475892D01*
X358997619Y-188380654D01*
X358997619Y-188094940D01*
X359045238Y-187999702D01*
X359092857Y-187952083D01*
X359188095Y-187904464D01*
X359378571Y-187904464D01*
X359473809Y-187952083D01*
X360711904Y-188571130D02*
X360711904Y-187571130D01*
X360711904Y-187952083D02*
X360807142Y-187904464D01*
X360997619Y-187904464D01*
X361092857Y-187952083D01*
X361140476Y-187999702D01*
X361188095Y-188094940D01*
X361188095Y-188380654D01*
X361140476Y-188475892D01*
X361092857Y-188523511D01*
X360997619Y-188571130D01*
X360807142Y-188571130D01*
X360711904Y-188523511D01*
X361521428Y-187904464D02*
X361759523Y-188571130D01*
X361997619Y-187904464D02*
X361759523Y-188571130D01*
X361664285Y-188809226D01*
X361616666Y-188856845D01*
X361521428Y-188904464D01*
X363140476Y-188571130D02*
X363140476Y-187571130D01*
X363473809Y-188285416D01*
X363807142Y-187571130D01*
X363807142Y-188571130D01*
X364283333Y-188571130D02*
X364283333Y-187904464D01*
X364283333Y-187571130D02*
X364235714Y-187618750D01*
X364283333Y-187666369D01*
X364330952Y-187618750D01*
X364283333Y-187571130D01*
X364283333Y-187666369D01*
X364759523Y-187904464D02*
X364759523Y-188571130D01*
X364759523Y-187999702D02*
X364807142Y-187952083D01*
X364902380Y-187904464D01*
X365045238Y-187904464D01*
X365140476Y-187952083D01*
X365188095Y-188047321D01*
X365188095Y-188571130D01*
X366092857Y-187904464D02*
X366092857Y-188713988D01*
X366045238Y-188809226D01*
X365997619Y-188856845D01*
X365902380Y-188904464D01*
X365759523Y-188904464D01*
X365664285Y-188856845D01*
X366092857Y-188523511D02*
X365997619Y-188571130D01*
X365807142Y-188571130D01*
X365711904Y-188523511D01*
X365664285Y-188475892D01*
X365616666Y-188380654D01*
X365616666Y-188094940D01*
X365664285Y-187999702D01*
X365711904Y-187952083D01*
X365807142Y-187904464D01*
X365997619Y-187904464D01*
X366092857Y-187952083D01*
X366473809Y-187904464D02*
X366997619Y-187904464D01*
X366473809Y-188571130D01*
X366997619Y-188571130D01*
X367759523Y-188523511D02*
X367664285Y-188571130D01*
X367473809Y-188571130D01*
X367378571Y-188523511D01*
X367330952Y-188428273D01*
X367330952Y-188047321D01*
X367378571Y-187952083D01*
X367473809Y-187904464D01*
X367664285Y-187904464D01*
X367759523Y-187952083D01*
X367807142Y-188047321D01*
X367807142Y-188142559D01*
X367330952Y-188237797D01*
X369283333Y-187571130D02*
X369283333Y-188285416D01*
X369235714Y-188428273D01*
X369140476Y-188523511D01*
X368997619Y-188571130D01*
X368902380Y-188571130D01*
X369759523Y-188571130D02*
X369759523Y-187904464D01*
X369759523Y-187571130D02*
X369711904Y-187618750D01*
X369759523Y-187666369D01*
X369807142Y-187618750D01*
X369759523Y-187571130D01*
X369759523Y-187666369D01*
X370235714Y-187904464D02*
X370235714Y-188571130D01*
X370235714Y-187999702D02*
X370283333Y-187952083D01*
X370378571Y-187904464D01*
X370521428Y-187904464D01*
X370616666Y-187952083D01*
X370664285Y-188047321D01*
X370664285Y-188571130D01*
%TO.C,MX58*%
X320540476Y-140946130D02*
X320540476Y-139946130D01*
X320969047Y-140898511D02*
X321111904Y-140946130D01*
X321350000Y-140946130D01*
X321445238Y-140898511D01*
X321492857Y-140850892D01*
X321540476Y-140755654D01*
X321540476Y-140660416D01*
X321492857Y-140565178D01*
X321445238Y-140517559D01*
X321350000Y-140469940D01*
X321159523Y-140422321D01*
X321064285Y-140374702D01*
X321016666Y-140327083D01*
X320969047Y-140231845D01*
X320969047Y-140136607D01*
X321016666Y-140041369D01*
X321064285Y-139993750D01*
X321159523Y-139946130D01*
X321397619Y-139946130D01*
X321540476Y-139993750D01*
X322159523Y-139946130D02*
X322350000Y-139946130D01*
X322445238Y-139993750D01*
X322540476Y-140088988D01*
X322588095Y-140279464D01*
X322588095Y-140612797D01*
X322540476Y-140803273D01*
X322445238Y-140898511D01*
X322350000Y-140946130D01*
X322159523Y-140946130D01*
X322064285Y-140898511D01*
X321969047Y-140803273D01*
X321921428Y-140612797D01*
X321921428Y-140279464D01*
X321969047Y-140088988D01*
X322064285Y-139993750D01*
X322159523Y-139946130D01*
X323778571Y-140422321D02*
X324111904Y-140422321D01*
X324254761Y-140946130D02*
X323778571Y-140946130D01*
X323778571Y-139946130D01*
X324254761Y-139946130D01*
X324683333Y-140279464D02*
X324683333Y-140946130D01*
X324683333Y-140374702D02*
X324730952Y-140327083D01*
X324826190Y-140279464D01*
X324969047Y-140279464D01*
X325064285Y-140327083D01*
X325111904Y-140422321D01*
X325111904Y-140946130D01*
X325445238Y-140279464D02*
X325826190Y-140279464D01*
X325588095Y-139946130D02*
X325588095Y-140803273D01*
X325635714Y-140898511D01*
X325730952Y-140946130D01*
X325826190Y-140946130D01*
X326540476Y-140898511D02*
X326445238Y-140946130D01*
X326254761Y-140946130D01*
X326159523Y-140898511D01*
X326111904Y-140803273D01*
X326111904Y-140422321D01*
X326159523Y-140327083D01*
X326254761Y-140279464D01*
X326445238Y-140279464D01*
X326540476Y-140327083D01*
X326588095Y-140422321D01*
X326588095Y-140517559D01*
X326111904Y-140612797D01*
X327016666Y-140946130D02*
X327016666Y-140279464D01*
X327016666Y-140469940D02*
X327064285Y-140374702D01*
X327111904Y-140327083D01*
X327207142Y-140279464D01*
X327302380Y-140279464D01*
%TO.C,MX75*%
X212383928Y-185285119D02*
X212431547Y-185237500D01*
X212526785Y-185189880D01*
X212764880Y-185189880D01*
X212860119Y-185237500D01*
X212907738Y-185285119D01*
X212955357Y-185380357D01*
X212955357Y-185475595D01*
X212907738Y-185618452D01*
X212336309Y-186189880D01*
X212955357Y-186189880D01*
X213383928Y-186094642D02*
X213431547Y-186142261D01*
X213383928Y-186189880D01*
X213336309Y-186142261D01*
X213383928Y-186094642D01*
X213383928Y-186189880D01*
X213764880Y-185189880D02*
X214431547Y-185189880D01*
X214002976Y-186189880D01*
X215288690Y-185189880D02*
X214812500Y-185189880D01*
X214764880Y-185666071D01*
X214812500Y-185618452D01*
X214907738Y-185570833D01*
X215145833Y-185570833D01*
X215241071Y-185618452D01*
X215288690Y-185666071D01*
X215336309Y-185761309D01*
X215336309Y-185999404D01*
X215288690Y-186094642D01*
X215241071Y-186142261D01*
X215145833Y-186189880D01*
X214907738Y-186189880D01*
X214812500Y-186142261D01*
X214764880Y-186094642D01*
X216193452Y-185523214D02*
X216193452Y-186189880D01*
X215764880Y-185523214D02*
X215764880Y-186047023D01*
X215812500Y-186142261D01*
X215907738Y-186189880D01*
X216050595Y-186189880D01*
X216145833Y-186142261D01*
X216193452Y-186094642D01*
%TO.C,MX74*%
X175426785Y-185189880D02*
X176093452Y-185189880D01*
X175664880Y-186189880D01*
X176902976Y-185523214D02*
X176902976Y-186189880D01*
X176474404Y-185523214D02*
X176474404Y-186047023D01*
X176522023Y-186142261D01*
X176617261Y-186189880D01*
X176760119Y-186189880D01*
X176855357Y-186142261D01*
X176902976Y-186094642D01*
%TO.C,MX73*%
X140946428Y-185285119D02*
X140994047Y-185237500D01*
X141089285Y-185189880D01*
X141327380Y-185189880D01*
X141422619Y-185237500D01*
X141470238Y-185285119D01*
X141517857Y-185380357D01*
X141517857Y-185475595D01*
X141470238Y-185618452D01*
X140898809Y-186189880D01*
X141517857Y-186189880D01*
X141946428Y-186094642D02*
X141994047Y-186142261D01*
X141946428Y-186189880D01*
X141898809Y-186142261D01*
X141946428Y-186094642D01*
X141946428Y-186189880D01*
X142375000Y-185285119D02*
X142422619Y-185237500D01*
X142517857Y-185189880D01*
X142755952Y-185189880D01*
X142851190Y-185237500D01*
X142898809Y-185285119D01*
X142946428Y-185380357D01*
X142946428Y-185475595D01*
X142898809Y-185618452D01*
X142327380Y-186189880D01*
X142946428Y-186189880D01*
X143851190Y-185189880D02*
X143375000Y-185189880D01*
X143327380Y-185666071D01*
X143375000Y-185618452D01*
X143470238Y-185570833D01*
X143708333Y-185570833D01*
X143803571Y-185618452D01*
X143851190Y-185666071D01*
X143898809Y-185761309D01*
X143898809Y-185999404D01*
X143851190Y-186094642D01*
X143803571Y-186142261D01*
X143708333Y-186189880D01*
X143470238Y-186189880D01*
X143375000Y-186142261D01*
X143327380Y-186094642D01*
X144755952Y-185523214D02*
X144755952Y-186189880D01*
X144327380Y-185523214D02*
X144327380Y-186047023D01*
X144375000Y-186142261D01*
X144470238Y-186189880D01*
X144613095Y-186189880D01*
X144708333Y-186142261D01*
X144755952Y-186094642D01*
%TO.C,MX72*%
X58793452Y-167139880D02*
X58793452Y-166139880D01*
X59222023Y-167092261D02*
X59364880Y-167139880D01*
X59602976Y-167139880D01*
X59698214Y-167092261D01*
X59745833Y-167044642D01*
X59793452Y-166949404D01*
X59793452Y-166854166D01*
X59745833Y-166758928D01*
X59698214Y-166711309D01*
X59602976Y-166663690D01*
X59412500Y-166616071D01*
X59317261Y-166568452D01*
X59269642Y-166520833D01*
X59222023Y-166425595D01*
X59222023Y-166330357D01*
X59269642Y-166235119D01*
X59317261Y-166187500D01*
X59412500Y-166139880D01*
X59650595Y-166139880D01*
X59793452Y-166187500D01*
X60412500Y-166139880D02*
X60602976Y-166139880D01*
X60698214Y-166187500D01*
X60793452Y-166282738D01*
X60841071Y-166473214D01*
X60841071Y-166806547D01*
X60793452Y-166997023D01*
X60698214Y-167092261D01*
X60602976Y-167139880D01*
X60412500Y-167139880D01*
X60317261Y-167092261D01*
X60222023Y-166997023D01*
X60174404Y-166806547D01*
X60174404Y-166473214D01*
X60222023Y-166282738D01*
X60317261Y-166187500D01*
X60412500Y-166139880D01*
X61983928Y-167092261D02*
X62126785Y-167139880D01*
X62364880Y-167139880D01*
X62460119Y-167092261D01*
X62507738Y-167044642D01*
X62555357Y-166949404D01*
X62555357Y-166854166D01*
X62507738Y-166758928D01*
X62460119Y-166711309D01*
X62364880Y-166663690D01*
X62174404Y-166616071D01*
X62079166Y-166568452D01*
X62031547Y-166520833D01*
X61983928Y-166425595D01*
X61983928Y-166330357D01*
X62031547Y-166235119D01*
X62079166Y-166187500D01*
X62174404Y-166139880D01*
X62412500Y-166139880D01*
X62555357Y-166187500D01*
X62983928Y-167139880D02*
X62983928Y-166139880D01*
X63412500Y-167139880D02*
X63412500Y-166616071D01*
X63364880Y-166520833D01*
X63269642Y-166473214D01*
X63126785Y-166473214D01*
X63031547Y-166520833D01*
X62983928Y-166568452D01*
X63888690Y-167139880D02*
X63888690Y-166473214D01*
X63888690Y-166139880D02*
X63841071Y-166187500D01*
X63888690Y-166235119D01*
X63936309Y-166187500D01*
X63888690Y-166139880D01*
X63888690Y-166235119D01*
X64222023Y-166473214D02*
X64602976Y-166473214D01*
X64364880Y-167139880D02*
X64364880Y-166282738D01*
X64412500Y-166187500D01*
X64507738Y-166139880D01*
X64602976Y-166139880D01*
X64793452Y-166473214D02*
X65174404Y-166473214D01*
X64936309Y-166139880D02*
X64936309Y-166997023D01*
X64983928Y-167092261D01*
X65079166Y-167139880D01*
X65174404Y-167139880D01*
%TO.C,MX71*%
X56745535Y-148042261D02*
X56888392Y-148089880D01*
X57126488Y-148089880D01*
X57221726Y-148042261D01*
X57269345Y-147994642D01*
X57316964Y-147899404D01*
X57316964Y-147804166D01*
X57269345Y-147708928D01*
X57221726Y-147661309D01*
X57126488Y-147613690D01*
X56936011Y-147566071D01*
X56840773Y-147518452D01*
X56793154Y-147470833D01*
X56745535Y-147375595D01*
X56745535Y-147280357D01*
X56793154Y-147185119D01*
X56840773Y-147137500D01*
X56936011Y-147089880D01*
X57174107Y-147089880D01*
X57316964Y-147137500D01*
X57602678Y-147423214D02*
X57983630Y-147423214D01*
X57745535Y-147089880D02*
X57745535Y-147947023D01*
X57793154Y-148042261D01*
X57888392Y-148089880D01*
X57983630Y-148089880D01*
X58697916Y-148042261D02*
X58602678Y-148089880D01*
X58412202Y-148089880D01*
X58316964Y-148042261D01*
X58269345Y-147947023D01*
X58269345Y-147566071D01*
X58316964Y-147470833D01*
X58412202Y-147423214D01*
X58602678Y-147423214D01*
X58697916Y-147470833D01*
X58745535Y-147566071D01*
X58745535Y-147661309D01*
X58269345Y-147756547D01*
X59174107Y-147423214D02*
X59174107Y-148423214D01*
X59174107Y-147470833D02*
X59269345Y-147423214D01*
X59459821Y-147423214D01*
X59555059Y-147470833D01*
X59602678Y-147518452D01*
X59650297Y-147613690D01*
X59650297Y-147899404D01*
X59602678Y-147994642D01*
X59555059Y-148042261D01*
X59459821Y-148089880D01*
X59269345Y-148089880D01*
X59174107Y-148042261D01*
X60078869Y-147423214D02*
X60078869Y-148423214D01*
X60078869Y-147470833D02*
X60174107Y-147423214D01*
X60364583Y-147423214D01*
X60459821Y-147470833D01*
X60507440Y-147518452D01*
X60555059Y-147613690D01*
X60555059Y-147899404D01*
X60507440Y-147994642D01*
X60459821Y-148042261D01*
X60364583Y-148089880D01*
X60174107Y-148089880D01*
X60078869Y-148042261D01*
X61364583Y-148042261D02*
X61269345Y-148089880D01*
X61078869Y-148089880D01*
X60983630Y-148042261D01*
X60936011Y-147947023D01*
X60936011Y-147566071D01*
X60983630Y-147470833D01*
X61078869Y-147423214D01*
X61269345Y-147423214D01*
X61364583Y-147470833D01*
X61412202Y-147566071D01*
X61412202Y-147661309D01*
X60936011Y-147756547D01*
X62269345Y-148089880D02*
X62269345Y-147089880D01*
X62269345Y-148042261D02*
X62174107Y-148089880D01*
X61983630Y-148089880D01*
X61888392Y-148042261D01*
X61840773Y-147994642D01*
X61793154Y-147899404D01*
X61793154Y-147613690D01*
X61840773Y-147518452D01*
X61888392Y-147470833D01*
X61983630Y-147423214D01*
X62174107Y-147423214D01*
X62269345Y-147470833D01*
%TO.C,MX63*%
X179522619Y-185189880D02*
X179332142Y-185189880D01*
X179236904Y-185237500D01*
X179189285Y-185285119D01*
X179094047Y-185427976D01*
X179046428Y-185618452D01*
X179046428Y-185999404D01*
X179094047Y-186094642D01*
X179141666Y-186142261D01*
X179236904Y-186189880D01*
X179427380Y-186189880D01*
X179522619Y-186142261D01*
X179570238Y-186094642D01*
X179617857Y-185999404D01*
X179617857Y-185761309D01*
X179570238Y-185666071D01*
X179522619Y-185618452D01*
X179427380Y-185570833D01*
X179236904Y-185570833D01*
X179141666Y-185618452D01*
X179094047Y-185666071D01*
X179046428Y-185761309D01*
X180046428Y-186094642D02*
X180094047Y-186142261D01*
X180046428Y-186189880D01*
X179998809Y-186142261D01*
X180046428Y-186094642D01*
X180046428Y-186189880D01*
X180475000Y-185285119D02*
X180522619Y-185237500D01*
X180617857Y-185189880D01*
X180855952Y-185189880D01*
X180951190Y-185237500D01*
X180998809Y-185285119D01*
X181046428Y-185380357D01*
X181046428Y-185475595D01*
X180998809Y-185618452D01*
X180427380Y-186189880D01*
X181046428Y-186189880D01*
X181951190Y-185189880D02*
X181475000Y-185189880D01*
X181427380Y-185666071D01*
X181475000Y-185618452D01*
X181570238Y-185570833D01*
X181808333Y-185570833D01*
X181903571Y-185618452D01*
X181951190Y-185666071D01*
X181998809Y-185761309D01*
X181998809Y-185999404D01*
X181951190Y-186094642D01*
X181903571Y-186142261D01*
X181808333Y-186189880D01*
X181570238Y-186189880D01*
X181475000Y-186142261D01*
X181427380Y-186094642D01*
X182855952Y-185523214D02*
X182855952Y-186189880D01*
X182427380Y-185523214D02*
X182427380Y-186047023D01*
X182475000Y-186142261D01*
X182570238Y-186189880D01*
X182713095Y-186189880D01*
X182808333Y-186142261D01*
X182855952Y-186094642D01*
%TO.C,MX46*%
X81629464Y-167139880D02*
X81629464Y-166139880D01*
X82058035Y-167092261D02*
X82200892Y-167139880D01*
X82438988Y-167139880D01*
X82534226Y-167092261D01*
X82581845Y-167044642D01*
X82629464Y-166949404D01*
X82629464Y-166854166D01*
X82581845Y-166758928D01*
X82534226Y-166711309D01*
X82438988Y-166663690D01*
X82248511Y-166616071D01*
X82153273Y-166568452D01*
X82105654Y-166520833D01*
X82058035Y-166425595D01*
X82058035Y-166330357D01*
X82105654Y-166235119D01*
X82153273Y-166187500D01*
X82248511Y-166139880D01*
X82486607Y-166139880D01*
X82629464Y-166187500D01*
X83248511Y-166139880D02*
X83438988Y-166139880D01*
X83534226Y-166187500D01*
X83629464Y-166282738D01*
X83677083Y-166473214D01*
X83677083Y-166806547D01*
X83629464Y-166997023D01*
X83534226Y-167092261D01*
X83438988Y-167139880D01*
X83248511Y-167139880D01*
X83153273Y-167092261D01*
X83058035Y-166997023D01*
X83010416Y-166806547D01*
X83010416Y-166473214D01*
X83058035Y-166282738D01*
X83153273Y-166187500D01*
X83248511Y-166139880D01*
X84534226Y-166044642D02*
X85391369Y-167330357D01*
%TO.C,MX45*%
X69889880Y-167092261D02*
X70032738Y-167139880D01*
X70270833Y-167139880D01*
X70366071Y-167092261D01*
X70413690Y-167044642D01*
X70461309Y-166949404D01*
X70461309Y-166854166D01*
X70413690Y-166758928D01*
X70366071Y-166711309D01*
X70270833Y-166663690D01*
X70080357Y-166616071D01*
X69985119Y-166568452D01*
X69937500Y-166520833D01*
X69889880Y-166425595D01*
X69889880Y-166330357D01*
X69937500Y-166235119D01*
X69985119Y-166187500D01*
X70080357Y-166139880D01*
X70318452Y-166139880D01*
X70461309Y-166187500D01*
X70889880Y-167139880D02*
X70889880Y-166139880D01*
X71318452Y-167139880D02*
X71318452Y-166616071D01*
X71270833Y-166520833D01*
X71175595Y-166473214D01*
X71032738Y-166473214D01*
X70937500Y-166520833D01*
X70889880Y-166568452D01*
X71794642Y-167139880D02*
X71794642Y-166473214D01*
X71794642Y-166139880D02*
X71747023Y-166187500D01*
X71794642Y-166235119D01*
X71842261Y-166187500D01*
X71794642Y-166139880D01*
X71794642Y-166235119D01*
X72127976Y-166473214D02*
X72508928Y-166473214D01*
X72270833Y-167139880D02*
X72270833Y-166282738D01*
X72318452Y-166187500D01*
X72413690Y-166139880D01*
X72508928Y-166139880D01*
X72699404Y-166473214D02*
X73080357Y-166473214D01*
X72842261Y-166139880D02*
X72842261Y-166997023D01*
X72889880Y-167092261D01*
X72985119Y-167139880D01*
X73080357Y-167139880D01*
%TO.C,MX43*%
X312634523Y-149947321D02*
X312967857Y-149947321D01*
X313110714Y-150471130D02*
X312634523Y-150471130D01*
X312634523Y-149471130D01*
X313110714Y-149471130D01*
X313539285Y-149804464D02*
X313539285Y-150471130D01*
X313539285Y-149899702D02*
X313586904Y-149852083D01*
X313682142Y-149804464D01*
X313825000Y-149804464D01*
X313920238Y-149852083D01*
X313967857Y-149947321D01*
X313967857Y-150471130D01*
X314301190Y-149804464D02*
X314682142Y-149804464D01*
X314444047Y-149471130D02*
X314444047Y-150328273D01*
X314491666Y-150423511D01*
X314586904Y-150471130D01*
X314682142Y-150471130D01*
X315396428Y-150423511D02*
X315301190Y-150471130D01*
X315110714Y-150471130D01*
X315015476Y-150423511D01*
X314967857Y-150328273D01*
X314967857Y-149947321D01*
X315015476Y-149852083D01*
X315110714Y-149804464D01*
X315301190Y-149804464D01*
X315396428Y-149852083D01*
X315444047Y-149947321D01*
X315444047Y-150042559D01*
X314967857Y-150137797D01*
X315872619Y-150471130D02*
X315872619Y-149804464D01*
X315872619Y-149994940D02*
X315920238Y-149899702D01*
X315967857Y-149852083D01*
X316063095Y-149804464D01*
X316158333Y-149804464D01*
%TO.C,MX42*%
X300537797Y-148089880D02*
X300537797Y-147089880D01*
X300966369Y-148042261D02*
X301109226Y-148089880D01*
X301347321Y-148089880D01*
X301442559Y-148042261D01*
X301490178Y-147994642D01*
X301537797Y-147899404D01*
X301537797Y-147804166D01*
X301490178Y-147708928D01*
X301442559Y-147661309D01*
X301347321Y-147613690D01*
X301156845Y-147566071D01*
X301061607Y-147518452D01*
X301013988Y-147470833D01*
X300966369Y-147375595D01*
X300966369Y-147280357D01*
X301013988Y-147185119D01*
X301061607Y-147137500D01*
X301156845Y-147089880D01*
X301394940Y-147089880D01*
X301537797Y-147137500D01*
X302156845Y-147089880D02*
X302347321Y-147089880D01*
X302442559Y-147137500D01*
X302537797Y-147232738D01*
X302585416Y-147423214D01*
X302585416Y-147756547D01*
X302537797Y-147947023D01*
X302442559Y-148042261D01*
X302347321Y-148089880D01*
X302156845Y-148089880D01*
X302061607Y-148042261D01*
X301966369Y-147947023D01*
X301918750Y-147756547D01*
X301918750Y-147423214D01*
X301966369Y-147232738D01*
X302061607Y-147137500D01*
X302156845Y-147089880D01*
X303728273Y-147423214D02*
X304442559Y-147423214D01*
X304013988Y-146994642D02*
X303728273Y-148280357D01*
X304347321Y-147851785D02*
X303633035Y-147851785D01*
X304061607Y-148280357D02*
X304347321Y-146994642D01*
%TO.C,MX30*%
X65913392Y-148042261D02*
X66056250Y-148089880D01*
X66294345Y-148089880D01*
X66389583Y-148042261D01*
X66437202Y-147994642D01*
X66484821Y-147899404D01*
X66484821Y-147804166D01*
X66437202Y-147708928D01*
X66389583Y-147661309D01*
X66294345Y-147613690D01*
X66103869Y-147566071D01*
X66008630Y-147518452D01*
X65961011Y-147470833D01*
X65913392Y-147375595D01*
X65913392Y-147280357D01*
X65961011Y-147185119D01*
X66008630Y-147137500D01*
X66103869Y-147089880D01*
X66341964Y-147089880D01*
X66484821Y-147137500D01*
X66770535Y-147423214D02*
X67151488Y-147423214D01*
X66913392Y-147089880D02*
X66913392Y-147947023D01*
X66961011Y-148042261D01*
X67056250Y-148089880D01*
X67151488Y-148089880D01*
X67913392Y-148089880D02*
X67913392Y-147566071D01*
X67865773Y-147470833D01*
X67770535Y-147423214D01*
X67580059Y-147423214D01*
X67484821Y-147470833D01*
X67913392Y-148042261D02*
X67818154Y-148089880D01*
X67580059Y-148089880D01*
X67484821Y-148042261D01*
X67437202Y-147947023D01*
X67437202Y-147851785D01*
X67484821Y-147756547D01*
X67580059Y-147708928D01*
X67818154Y-147708928D01*
X67913392Y-147661309D01*
X68389583Y-147423214D02*
X68389583Y-148089880D01*
X68389583Y-147518452D02*
X68437202Y-147470833D01*
X68532440Y-147423214D01*
X68675297Y-147423214D01*
X68770535Y-147470833D01*
X68818154Y-147566071D01*
X68818154Y-148089880D01*
X69722916Y-148089880D02*
X69722916Y-147089880D01*
X69722916Y-148042261D02*
X69627678Y-148089880D01*
X69437202Y-148089880D01*
X69341964Y-148042261D01*
X69294345Y-147994642D01*
X69246726Y-147899404D01*
X69246726Y-147613690D01*
X69294345Y-147518452D01*
X69341964Y-147470833D01*
X69437202Y-147423214D01*
X69627678Y-147423214D01*
X69722916Y-147470833D01*
X70627678Y-148089880D02*
X70627678Y-147566071D01*
X70580059Y-147470833D01*
X70484821Y-147423214D01*
X70294345Y-147423214D01*
X70199107Y-147470833D01*
X70627678Y-148042261D02*
X70532440Y-148089880D01*
X70294345Y-148089880D01*
X70199107Y-148042261D01*
X70151488Y-147947023D01*
X70151488Y-147851785D01*
X70199107Y-147756547D01*
X70294345Y-147708928D01*
X70532440Y-147708928D01*
X70627678Y-147661309D01*
X71103869Y-148089880D02*
X71103869Y-147423214D01*
X71103869Y-147613690D02*
X71151488Y-147518452D01*
X71199107Y-147470833D01*
X71294345Y-147423214D01*
X71389583Y-147423214D01*
X72151488Y-148089880D02*
X72151488Y-147089880D01*
X72151488Y-148042261D02*
X72056250Y-148089880D01*
X71865773Y-148089880D01*
X71770535Y-148042261D01*
X71722916Y-147994642D01*
X71675297Y-147899404D01*
X71675297Y-147613690D01*
X71722916Y-147518452D01*
X71770535Y-147470833D01*
X71865773Y-147423214D01*
X72056250Y-147423214D01*
X72151488Y-147470833D01*
%TD*%
D11*
%TO.C,DS1*%
X358616250Y-131250000D03*
X353536250Y-131250000D03*
X350996250Y-131250000D03*
X356076250Y-131250000D03*
%TD*%
D12*
%TO.C,MX58*%
X318770000Y-133350000D03*
D13*
X330835000Y-121412000D03*
D14*
X320040000Y-130810000D03*
D15*
X315595000Y-121412000D03*
D14*
X326390000Y-128270000D03*
D15*
X315595000Y-145288000D03*
D13*
X330835000Y-145288000D03*
D12*
X328930000Y-133350000D03*
D15*
X323850000Y-133350000D03*
%TD*%
D16*
%TO.C,U1*%
X347186250Y-104210000D03*
X357346250Y-127070000D03*
D17*
X347186250Y-99130000D03*
D16*
X362426250Y-121990000D03*
X362426250Y-99130000D03*
X347186250Y-106750000D03*
X362426250Y-127070000D03*
X347186250Y-116910000D03*
X352266250Y-127070000D03*
X347186250Y-101670000D03*
X349726250Y-127070000D03*
X362426250Y-119450000D03*
X347186250Y-109290000D03*
X362426250Y-111830000D03*
X362426250Y-109290000D03*
X347186250Y-124530000D03*
X362426250Y-106750000D03*
X362426250Y-104210000D03*
X347186250Y-127070000D03*
X359886250Y-127070000D03*
X347186250Y-119450000D03*
X347186250Y-111830000D03*
X347186250Y-114370000D03*
X362426250Y-114370000D03*
X354806250Y-127070000D03*
X347186250Y-121990000D03*
X362426250Y-124530000D03*
X362426250Y-116910000D03*
X362426250Y-101670000D03*
%TD*%
D18*
%TO.C,MX76*%
X364331250Y-142875000D03*
D19*
X359251250Y-142875000D03*
D20*
X366871250Y-137795000D03*
X360521250Y-140335000D03*
D19*
X369411250Y-142875000D03*
%TD*%
D21*
%TO.C,SW1*%
X366831250Y-135875000D03*
X366831250Y-150375000D03*
D22*
X361831250Y-150375000D03*
D21*
X364331250Y-150375000D03*
X361831250Y-135875000D03*
D23*
X369931250Y-142875000D03*
X358731250Y-142875000D03*
%TD*%
D18*
%TO.C,MX75*%
X226212500Y-172735000D03*
X214312500Y-180975000D03*
D19*
X219392500Y-180975000D03*
D18*
X202412500Y-172735000D03*
D20*
X210502500Y-178435000D03*
D24*
X226212500Y-187975000D03*
D19*
X209232500Y-180975000D03*
D20*
X216852500Y-175895000D03*
D24*
X202412500Y-187975000D03*
%TD*%
D20*
%TO.C,MX74*%
X172402500Y-178435000D03*
D19*
X181292500Y-180975000D03*
D18*
X176212500Y-180975000D03*
D19*
X171132500Y-180975000D03*
D20*
X178752500Y-175895000D03*
%TD*%
D18*
%TO.C,MX73*%
X154775000Y-172735000D03*
D20*
X145415000Y-175895000D03*
D18*
X142875000Y-180975000D03*
D24*
X154775000Y-187975000D03*
D19*
X137795000Y-180975000D03*
D20*
X139065000Y-178435000D03*
D19*
X147955000Y-180975000D03*
D18*
X130975000Y-172735000D03*
D24*
X130975000Y-187975000D03*
%TD*%
D20*
%TO.C,MX72*%
X58102500Y-159385000D03*
D19*
X66992500Y-161925000D03*
D18*
X61912500Y-161925000D03*
D19*
X56832500Y-161925000D03*
D20*
X64452500Y-156845000D03*
%TD*%
%TO.C,MX71*%
X64452500Y-137795000D03*
D19*
X66992500Y-142875000D03*
X56832500Y-142875000D03*
D20*
X58102500Y-140335000D03*
D18*
X61912500Y-142875000D03*
%TD*%
D19*
%TO.C,MX70*%
X369411250Y-180975000D03*
D20*
X360521250Y-178435000D03*
X366871250Y-175895000D03*
D19*
X359251250Y-180975000D03*
D18*
X364331250Y-180975000D03*
%TD*%
D19*
%TO.C,MX69*%
X350361250Y-180975000D03*
D20*
X341471250Y-178435000D03*
X347821250Y-175895000D03*
D19*
X340201250Y-180975000D03*
D18*
X345281250Y-180975000D03*
%TD*%
D19*
%TO.C,MX68*%
X331311250Y-180975000D03*
D20*
X322421250Y-178435000D03*
X328771250Y-175895000D03*
D19*
X321151250Y-180975000D03*
D18*
X326231250Y-180975000D03*
%TD*%
D19*
%TO.C,MX67*%
X312261250Y-180975000D03*
D20*
X303371250Y-178435000D03*
X309721250Y-175895000D03*
D19*
X302101250Y-180975000D03*
D18*
X307181250Y-180975000D03*
%TD*%
D19*
%TO.C,MX66*%
X293211250Y-180975000D03*
D20*
X284321250Y-178435000D03*
X290671250Y-175895000D03*
D19*
X283051250Y-180975000D03*
D18*
X288131250Y-180975000D03*
%TD*%
D19*
%TO.C,MX65*%
X274161250Y-180975000D03*
D20*
X265271250Y-178435000D03*
X271621250Y-175895000D03*
D19*
X264001250Y-180975000D03*
D18*
X269081250Y-180975000D03*
%TD*%
D19*
%TO.C,MX64*%
X255111250Y-180975000D03*
D20*
X246221250Y-178435000D03*
X252571250Y-175895000D03*
D19*
X244951250Y-180975000D03*
D18*
X250031250Y-180975000D03*
%TD*%
%TO.C,MX63*%
X180975000Y-180975000D03*
D19*
X175895000Y-180975000D03*
D20*
X177165000Y-178435000D03*
X183515000Y-175895000D03*
D19*
X186055000Y-180975000D03*
D15*
X230974900Y-172720000D03*
D13*
X230974900Y-187960000D03*
D15*
X130975100Y-172720000D03*
D13*
X130975100Y-187960000D03*
%TD*%
D20*
%TO.C,MX62*%
X105727500Y-178435000D03*
D19*
X114617500Y-180975000D03*
D18*
X109537500Y-180975000D03*
D19*
X104457500Y-180975000D03*
D20*
X112077500Y-175895000D03*
%TD*%
%TO.C,MX61*%
X81915000Y-178435000D03*
D19*
X90805000Y-180975000D03*
D18*
X85725000Y-180975000D03*
D19*
X80645000Y-180975000D03*
D20*
X88265000Y-175895000D03*
%TD*%
%TO.C,MX60*%
X58102500Y-178435000D03*
D19*
X66992500Y-180975000D03*
D18*
X61912500Y-180975000D03*
D19*
X56832500Y-180975000D03*
D20*
X64452500Y-175895000D03*
%TD*%
D19*
%TO.C,MX59*%
X369411250Y-161925000D03*
D20*
X360521250Y-159385000D03*
X366871250Y-156845000D03*
D19*
X359251250Y-161925000D03*
D18*
X364331250Y-161925000D03*
%TD*%
%TO.C,MX57*%
X297662500Y-170165000D03*
D24*
X321462500Y-154925000D03*
D20*
X312102500Y-156845000D03*
D19*
X304482500Y-161925000D03*
D24*
X297662500Y-154925000D03*
D18*
X321462500Y-170165000D03*
D19*
X314642500Y-161925000D03*
D18*
X309562500Y-161925000D03*
D20*
X305752500Y-159385000D03*
%TD*%
D19*
%TO.C,MX56*%
X278923750Y-161925000D03*
D20*
X270033750Y-159385000D03*
X276383750Y-156845000D03*
D19*
X268763750Y-161925000D03*
D18*
X273843750Y-161925000D03*
%TD*%
D19*
%TO.C,MX55*%
X259873750Y-161925000D03*
D20*
X250983750Y-159385000D03*
X257333750Y-156845000D03*
D19*
X249713750Y-161925000D03*
D18*
X254793750Y-161925000D03*
%TD*%
D19*
%TO.C,MX54*%
X240823750Y-161925000D03*
D20*
X231933750Y-159385000D03*
X238283750Y-156845000D03*
D19*
X230663750Y-161925000D03*
D18*
X235743750Y-161925000D03*
%TD*%
D19*
%TO.C,MX53*%
X221773750Y-161925000D03*
D20*
X212883750Y-159385000D03*
X219233750Y-156845000D03*
D19*
X211613750Y-161925000D03*
D18*
X216693750Y-161925000D03*
%TD*%
D19*
%TO.C,MX52*%
X202723750Y-161925000D03*
D20*
X193833750Y-159385000D03*
X200183750Y-156845000D03*
D19*
X192563750Y-161925000D03*
D18*
X197643750Y-161925000D03*
%TD*%
D19*
%TO.C,MX51*%
X183673750Y-161925000D03*
D20*
X174783750Y-159385000D03*
X181133750Y-156845000D03*
D19*
X173513750Y-161925000D03*
D18*
X178593750Y-161925000D03*
%TD*%
D19*
%TO.C,MX50*%
X164623750Y-161925000D03*
D20*
X155733750Y-159385000D03*
X162083750Y-156845000D03*
D19*
X154463750Y-161925000D03*
D18*
X159543750Y-161925000D03*
%TD*%
D19*
%TO.C,MX49*%
X145573750Y-161925000D03*
D20*
X136683750Y-159385000D03*
X143033750Y-156845000D03*
D19*
X135413750Y-161925000D03*
D18*
X140493750Y-161925000D03*
%TD*%
D19*
%TO.C,MX48*%
X126523750Y-161925000D03*
D20*
X117633750Y-159385000D03*
X123983750Y-156845000D03*
D19*
X116363750Y-161925000D03*
D18*
X121443750Y-161925000D03*
%TD*%
D19*
%TO.C,MX47*%
X107473750Y-161925000D03*
D20*
X98583750Y-159385000D03*
X104933750Y-156845000D03*
D19*
X97313750Y-161925000D03*
D18*
X102393750Y-161925000D03*
%TD*%
D19*
%TO.C,MX46*%
X88423750Y-161925000D03*
D20*
X79533750Y-159385000D03*
X85883750Y-156845000D03*
D19*
X78263750Y-161925000D03*
D18*
X83343750Y-161925000D03*
%TD*%
D20*
%TO.C,MX45*%
X67627500Y-159385000D03*
X73977500Y-156845000D03*
D18*
X59537500Y-170165000D03*
D24*
X59537500Y-154925000D03*
D18*
X83337500Y-170165000D03*
D24*
X83337500Y-154925000D03*
D19*
X66357500Y-161925000D03*
X76517500Y-161925000D03*
D18*
X71437500Y-161925000D03*
%TD*%
D19*
%TO.C,MX44*%
X350361250Y-161925000D03*
D20*
X341471250Y-159385000D03*
X347821250Y-156845000D03*
D19*
X340201250Y-161925000D03*
D18*
X345281250Y-161925000D03*
%TD*%
D20*
%TO.C,MX43*%
X310515000Y-140335000D03*
X316865000Y-137795000D03*
D18*
X302425000Y-151115000D03*
D24*
X302425000Y-135875000D03*
D18*
X326225000Y-151115000D03*
D24*
X326225000Y-135875000D03*
D19*
X309245000Y-142875000D03*
X319405000Y-142875000D03*
D18*
X314325000Y-142875000D03*
%TD*%
D19*
%TO.C,MX42*%
X307498750Y-142875000D03*
D20*
X298608750Y-140335000D03*
X304958750Y-137795000D03*
D19*
X297338750Y-142875000D03*
D18*
X302418750Y-142875000D03*
%TD*%
D19*
%TO.C,MX41*%
X288448750Y-142875000D03*
D20*
X279558750Y-140335000D03*
X285908750Y-137795000D03*
D19*
X278288750Y-142875000D03*
D18*
X283368750Y-142875000D03*
%TD*%
D19*
%TO.C,MX40*%
X269398750Y-142875000D03*
D20*
X260508750Y-140335000D03*
X266858750Y-137795000D03*
D19*
X259238750Y-142875000D03*
D18*
X264318750Y-142875000D03*
%TD*%
D19*
%TO.C,MX39*%
X250348750Y-142875000D03*
D20*
X241458750Y-140335000D03*
X247808750Y-137795000D03*
D19*
X240188750Y-142875000D03*
D18*
X245268750Y-142875000D03*
%TD*%
D19*
%TO.C,MX38*%
X231298750Y-142875000D03*
D20*
X222408750Y-140335000D03*
X228758750Y-137795000D03*
D19*
X221138750Y-142875000D03*
D18*
X226218750Y-142875000D03*
%TD*%
D19*
%TO.C,MX37*%
X212248750Y-142875000D03*
D20*
X203358750Y-140335000D03*
X209708750Y-137795000D03*
D19*
X202088750Y-142875000D03*
D18*
X207168750Y-142875000D03*
%TD*%
D19*
%TO.C,MX36*%
X193198750Y-142875000D03*
D20*
X184308750Y-140335000D03*
X190658750Y-137795000D03*
D19*
X183038750Y-142875000D03*
D18*
X188118750Y-142875000D03*
%TD*%
D19*
%TO.C,MX35*%
X174148750Y-142875000D03*
D20*
X165258750Y-140335000D03*
X171608750Y-137795000D03*
D19*
X163988750Y-142875000D03*
D18*
X169068750Y-142875000D03*
%TD*%
D19*
%TO.C,MX34*%
X155098750Y-142875000D03*
D20*
X146208750Y-140335000D03*
X152558750Y-137795000D03*
D19*
X144938750Y-142875000D03*
D18*
X150018750Y-142875000D03*
%TD*%
D19*
%TO.C,MX33*%
X136048750Y-142875000D03*
D20*
X127158750Y-140335000D03*
X133508750Y-137795000D03*
D19*
X125888750Y-142875000D03*
D18*
X130968750Y-142875000D03*
%TD*%
D19*
%TO.C,MX32*%
X116998750Y-142875000D03*
D20*
X108108750Y-140335000D03*
X114458750Y-137795000D03*
D19*
X106838750Y-142875000D03*
D18*
X111918750Y-142875000D03*
%TD*%
D19*
%TO.C,MX31*%
X97948750Y-142875000D03*
D20*
X89058750Y-140335000D03*
X95408750Y-137795000D03*
D19*
X87788750Y-142875000D03*
D18*
X92868750Y-142875000D03*
%TD*%
D19*
%TO.C,MX30*%
X61595000Y-142875000D03*
D18*
X66675000Y-142875000D03*
D20*
X69215000Y-137795000D03*
D19*
X71755000Y-142875000D03*
D20*
X62865000Y-140335000D03*
%TD*%
D19*
%TO.C,MX29*%
X350361250Y-142875000D03*
D20*
X341471250Y-140335000D03*
X347821250Y-137795000D03*
D19*
X340201250Y-142875000D03*
D18*
X345281250Y-142875000D03*
%TD*%
D20*
%TO.C,MX28*%
X324008750Y-118745000D03*
D18*
X321468750Y-123825000D03*
D20*
X317658750Y-121285000D03*
D19*
X316388750Y-123825000D03*
X326548750Y-123825000D03*
%TD*%
%TO.C,MX27*%
X302736250Y-123825000D03*
D20*
X293846250Y-121285000D03*
X300196250Y-118745000D03*
D19*
X292576250Y-123825000D03*
D18*
X297656250Y-123825000D03*
%TD*%
D19*
%TO.C,MX26*%
X283686250Y-123825000D03*
D20*
X274796250Y-121285000D03*
X281146250Y-118745000D03*
D19*
X273526250Y-123825000D03*
D18*
X278606250Y-123825000D03*
%TD*%
D19*
%TO.C,MX25*%
X264636250Y-123825000D03*
D20*
X255746250Y-121285000D03*
X262096250Y-118745000D03*
D19*
X254476250Y-123825000D03*
D18*
X259556250Y-123825000D03*
%TD*%
D19*
%TO.C,MX24*%
X245586250Y-123825000D03*
D20*
X236696250Y-121285000D03*
X243046250Y-118745000D03*
D19*
X235426250Y-123825000D03*
D18*
X240506250Y-123825000D03*
%TD*%
D19*
%TO.C,MX23*%
X226536250Y-123825000D03*
D20*
X217646250Y-121285000D03*
X223996250Y-118745000D03*
D19*
X216376250Y-123825000D03*
D18*
X221456250Y-123825000D03*
%TD*%
D19*
%TO.C,MX22*%
X207486250Y-123825000D03*
D20*
X198596250Y-121285000D03*
X204946250Y-118745000D03*
D19*
X197326250Y-123825000D03*
D18*
X202406250Y-123825000D03*
%TD*%
D19*
%TO.C,MX21*%
X188436250Y-123825000D03*
D20*
X179546250Y-121285000D03*
X185896250Y-118745000D03*
D19*
X178276250Y-123825000D03*
D18*
X183356250Y-123825000D03*
%TD*%
D19*
%TO.C,MX20*%
X169386250Y-123825000D03*
D20*
X160496250Y-121285000D03*
X166846250Y-118745000D03*
D19*
X159226250Y-123825000D03*
D18*
X164306250Y-123825000D03*
%TD*%
D19*
%TO.C,MX19*%
X150336250Y-123825000D03*
D20*
X141446250Y-121285000D03*
X147796250Y-118745000D03*
D19*
X140176250Y-123825000D03*
D18*
X145256250Y-123825000D03*
%TD*%
D19*
%TO.C,MX18*%
X131286250Y-123825000D03*
D20*
X122396250Y-121285000D03*
X128746250Y-118745000D03*
D19*
X121126250Y-123825000D03*
D18*
X126206250Y-123825000D03*
%TD*%
D19*
%TO.C,MX17*%
X112236250Y-123825000D03*
D20*
X103346250Y-121285000D03*
X109696250Y-118745000D03*
D19*
X102076250Y-123825000D03*
D18*
X107156250Y-123825000D03*
%TD*%
D19*
%TO.C,MX16*%
X93186250Y-123825000D03*
D20*
X84296250Y-121285000D03*
X90646250Y-118745000D03*
D19*
X83026250Y-123825000D03*
D18*
X88106250Y-123825000D03*
%TD*%
D20*
%TO.C,MX15*%
X66833750Y-118745000D03*
D18*
X64293750Y-123825000D03*
D20*
X60483750Y-121285000D03*
D19*
X59213750Y-123825000D03*
X69373750Y-123825000D03*
%TD*%
D20*
%TO.C,MX14*%
X319246250Y-99695000D03*
D18*
X304806250Y-113015000D03*
D19*
X311626250Y-104775000D03*
D24*
X304806250Y-97775000D03*
D18*
X316706250Y-104775000D03*
D24*
X328606250Y-97775000D03*
D18*
X328606250Y-113015000D03*
D19*
X321786250Y-104775000D03*
D20*
X312896250Y-102235000D03*
%TD*%
D19*
%TO.C,MX13*%
X293211250Y-104775000D03*
D20*
X284321250Y-102235000D03*
X290671250Y-99695000D03*
D19*
X283051250Y-104775000D03*
D18*
X288131250Y-104775000D03*
%TD*%
D19*
%TO.C,MX12*%
X274161250Y-104775000D03*
D20*
X265271250Y-102235000D03*
X271621250Y-99695000D03*
D19*
X264001250Y-104775000D03*
D18*
X269081250Y-104775000D03*
%TD*%
D19*
%TO.C,MX11*%
X255111250Y-104775000D03*
D20*
X246221250Y-102235000D03*
X252571250Y-99695000D03*
D19*
X244951250Y-104775000D03*
D18*
X250031250Y-104775000D03*
%TD*%
D19*
%TO.C,MX10*%
X236061250Y-104775000D03*
D20*
X227171250Y-102235000D03*
X233521250Y-99695000D03*
D19*
X225901250Y-104775000D03*
D18*
X230981250Y-104775000D03*
%TD*%
D19*
%TO.C,MX9*%
X217011250Y-104775000D03*
D20*
X208121250Y-102235000D03*
X214471250Y-99695000D03*
D19*
X206851250Y-104775000D03*
D18*
X211931250Y-104775000D03*
%TD*%
D19*
%TO.C,MX8*%
X197961250Y-104775000D03*
D20*
X189071250Y-102235000D03*
X195421250Y-99695000D03*
D19*
X187801250Y-104775000D03*
D18*
X192881250Y-104775000D03*
%TD*%
D19*
%TO.C,MX7*%
X178911250Y-104775000D03*
D20*
X170021250Y-102235000D03*
X176371250Y-99695000D03*
D19*
X168751250Y-104775000D03*
D18*
X173831250Y-104775000D03*
%TD*%
D19*
%TO.C,MX6*%
X159861250Y-104775000D03*
D20*
X150971250Y-102235000D03*
X157321250Y-99695000D03*
D19*
X149701250Y-104775000D03*
D18*
X154781250Y-104775000D03*
%TD*%
D19*
%TO.C,MX5*%
X140811250Y-104775000D03*
D20*
X131921250Y-102235000D03*
X138271250Y-99695000D03*
D19*
X130651250Y-104775000D03*
D18*
X135731250Y-104775000D03*
%TD*%
D19*
%TO.C,MX4*%
X121761250Y-104775000D03*
D20*
X112871250Y-102235000D03*
X119221250Y-99695000D03*
D19*
X111601250Y-104775000D03*
D18*
X116681250Y-104775000D03*
%TD*%
D19*
%TO.C,MX3*%
X102711250Y-104775000D03*
D20*
X93821250Y-102235000D03*
X100171250Y-99695000D03*
D19*
X92551250Y-104775000D03*
D18*
X97631250Y-104775000D03*
%TD*%
D19*
%TO.C,MX2*%
X83661250Y-104775000D03*
D20*
X74771250Y-102235000D03*
X81121250Y-99695000D03*
D19*
X73501250Y-104775000D03*
D18*
X78581250Y-104775000D03*
%TD*%
D19*
%TO.C,MX1*%
X64611250Y-104775000D03*
D20*
X55721250Y-102235000D03*
X62071250Y-99695000D03*
D19*
X54451250Y-104775000D03*
D18*
X59531250Y-104775000D03*
%TD*%
D25*
%TO.C,D71*%
X354806250Y-143033750D03*
D26*
X354806250Y-137953750D03*
%TD*%
D25*
%TO.C,D70*%
X354806250Y-178752500D03*
D26*
X354806250Y-173672500D03*
%TD*%
D25*
%TO.C,D69*%
X335756250Y-178752500D03*
D26*
X335756250Y-173672500D03*
%TD*%
D25*
%TO.C,D68*%
X316706250Y-178752500D03*
D26*
X316706250Y-173672500D03*
%TD*%
D25*
%TO.C,D67*%
X297656250Y-181133750D03*
D26*
X297656250Y-176053750D03*
%TD*%
D25*
%TO.C,D66*%
X278606250Y-178752500D03*
D26*
X278606250Y-173672500D03*
%TD*%
D25*
%TO.C,D65*%
X259556250Y-178752500D03*
D26*
X259556250Y-173672500D03*
%TD*%
D25*
%TO.C,D64*%
X240506250Y-178752500D03*
D26*
X240506250Y-173672500D03*
%TD*%
D25*
%TO.C,D63*%
X166687500Y-178752500D03*
D26*
X166687500Y-173672500D03*
%TD*%
D25*
%TO.C,D62*%
X97631250Y-178752500D03*
D26*
X97631250Y-173672500D03*
%TD*%
D25*
%TO.C,D61*%
X76200000Y-178752500D03*
D26*
X76200000Y-173672500D03*
%TD*%
D25*
%TO.C,D60*%
X52387500Y-178752500D03*
D26*
X52387500Y-173672500D03*
%TD*%
D25*
%TO.C,D59*%
X354806250Y-162083750D03*
D26*
X354806250Y-157003750D03*
%TD*%
D25*
%TO.C,D58*%
X309562500Y-133508750D03*
D26*
X309562500Y-128428750D03*
%TD*%
D25*
%TO.C,D57*%
X292893750Y-159702500D03*
D26*
X292893750Y-154622500D03*
%TD*%
D25*
%TO.C,D56*%
X264318750Y-159702500D03*
D26*
X264318750Y-154622500D03*
%TD*%
D25*
%TO.C,D55*%
X245268750Y-159702500D03*
D26*
X245268750Y-154622500D03*
%TD*%
D25*
%TO.C,D54*%
X226218750Y-159702500D03*
D26*
X226218750Y-154622500D03*
%TD*%
D25*
%TO.C,D53*%
X207168750Y-159702500D03*
D26*
X207168750Y-154622500D03*
%TD*%
D25*
%TO.C,D52*%
X188118750Y-159702500D03*
D26*
X188118750Y-154622500D03*
%TD*%
D25*
%TO.C,D51*%
X169068750Y-159702500D03*
D26*
X169068750Y-154622500D03*
%TD*%
D25*
%TO.C,D50*%
X150018750Y-159702500D03*
D26*
X150018750Y-154622500D03*
%TD*%
D25*
%TO.C,D49*%
X130968750Y-159702500D03*
D26*
X130968750Y-154622500D03*
%TD*%
D25*
%TO.C,D48*%
X111918750Y-159702500D03*
D26*
X111918750Y-154622500D03*
%TD*%
D25*
%TO.C,D47*%
X92868750Y-159702500D03*
D26*
X92868750Y-154622500D03*
%TD*%
D25*
%TO.C,D46*%
X78581250Y-152558750D03*
D26*
X78581250Y-147478750D03*
%TD*%
D25*
%TO.C,D45*%
X52387500Y-159702500D03*
D26*
X52387500Y-154622500D03*
%TD*%
D25*
%TO.C,D44*%
X335756250Y-162083750D03*
D26*
X335756250Y-157003750D03*
%TD*%
D25*
%TO.C,D43*%
X335756250Y-152558750D03*
D26*
X335756250Y-147478750D03*
%TD*%
D25*
%TO.C,D42*%
X292893750Y-140652500D03*
D26*
X292893750Y-135572500D03*
%TD*%
D25*
%TO.C,D41*%
X273843750Y-140652500D03*
D26*
X273843750Y-135572500D03*
%TD*%
D25*
%TO.C,D40*%
X254793750Y-140652500D03*
D26*
X254793750Y-135572500D03*
%TD*%
D25*
%TO.C,D39*%
X235743750Y-140652500D03*
D26*
X235743750Y-135572500D03*
%TD*%
D25*
%TO.C,D38*%
X216693750Y-140652500D03*
D26*
X216693750Y-135572500D03*
%TD*%
D25*
%TO.C,D37*%
X197643750Y-140652500D03*
D26*
X197643750Y-135572500D03*
%TD*%
D25*
%TO.C,D36*%
X178593750Y-140652500D03*
D26*
X178593750Y-135572500D03*
%TD*%
D25*
%TO.C,D35*%
X159543750Y-140652500D03*
D26*
X159543750Y-135572500D03*
%TD*%
D25*
%TO.C,D34*%
X140493750Y-140652500D03*
D26*
X140493750Y-135572500D03*
%TD*%
D25*
%TO.C,D33*%
X121443750Y-140652500D03*
D26*
X121443750Y-135572500D03*
%TD*%
D25*
%TO.C,D32*%
X102393750Y-140652500D03*
D26*
X102393750Y-135572500D03*
%TD*%
D25*
%TO.C,D31*%
X83343750Y-140652500D03*
D26*
X83343750Y-135572500D03*
%TD*%
D25*
%TO.C,D30*%
X52387500Y-140652500D03*
D26*
X52387500Y-135572500D03*
%TD*%
D25*
%TO.C,D29*%
X335756250Y-143033750D03*
D26*
X335756250Y-137953750D03*
%TD*%
D25*
%TO.C,D28*%
X309562500Y-121602500D03*
D26*
X309562500Y-116522500D03*
%TD*%
D25*
%TO.C,D27*%
X288131250Y-121602500D03*
D26*
X288131250Y-116522500D03*
%TD*%
D25*
%TO.C,D26*%
X269081250Y-121602500D03*
D26*
X269081250Y-116522500D03*
%TD*%
D25*
%TO.C,D25*%
X250031250Y-121602500D03*
D26*
X250031250Y-116522500D03*
%TD*%
D25*
%TO.C,D24*%
X230981250Y-121602500D03*
D26*
X230981250Y-116522500D03*
%TD*%
D25*
%TO.C,D23*%
X211931250Y-121602500D03*
D26*
X211931250Y-116522500D03*
%TD*%
D25*
%TO.C,D22*%
X192881250Y-121602500D03*
D26*
X192881250Y-116522500D03*
%TD*%
D25*
%TO.C,D21*%
X173831250Y-121602500D03*
D26*
X173831250Y-116522500D03*
%TD*%
D25*
%TO.C,D20*%
X154781250Y-121602500D03*
D26*
X154781250Y-116522500D03*
%TD*%
D25*
%TO.C,D19*%
X135731250Y-121602500D03*
D26*
X135731250Y-116522500D03*
%TD*%
D25*
%TO.C,D18*%
X116681250Y-121602500D03*
D26*
X116681250Y-116522500D03*
%TD*%
D25*
%TO.C,D17*%
X97631250Y-121602500D03*
D26*
X97631250Y-116522500D03*
%TD*%
D25*
%TO.C,D16*%
X78581250Y-121602500D03*
D26*
X78581250Y-116522500D03*
%TD*%
D25*
%TO.C,D15*%
X52387500Y-121602500D03*
D26*
X52387500Y-116522500D03*
%TD*%
D25*
%TO.C,D14*%
X333375000Y-104933750D03*
D26*
X333375000Y-99853750D03*
%TD*%
D25*
%TO.C,D13*%
X297656250Y-104933750D03*
D26*
X297656250Y-99853750D03*
%TD*%
D25*
%TO.C,D12*%
X278606250Y-104933750D03*
D26*
X278606250Y-99853750D03*
%TD*%
D25*
%TO.C,D11*%
X259556250Y-104933750D03*
D26*
X259556250Y-99853750D03*
%TD*%
D25*
%TO.C,D10*%
X240506250Y-104933750D03*
D26*
X240506250Y-99853750D03*
%TD*%
D25*
%TO.C,D9*%
X221456250Y-104933750D03*
D26*
X221456250Y-99853750D03*
%TD*%
D25*
%TO.C,D8*%
X202406250Y-104933750D03*
D26*
X202406250Y-99853750D03*
%TD*%
D25*
%TO.C,D7*%
X183356250Y-104933750D03*
D26*
X183356250Y-99853750D03*
%TD*%
D25*
%TO.C,D6*%
X164306250Y-104933750D03*
D26*
X164306250Y-99853750D03*
%TD*%
D25*
%TO.C,D5*%
X145256250Y-104933750D03*
D26*
X145256250Y-99853750D03*
%TD*%
D25*
%TO.C,D4*%
X126206250Y-104933750D03*
D26*
X126206250Y-99853750D03*
%TD*%
D25*
%TO.C,D3*%
X107156250Y-104933750D03*
D26*
X107156250Y-99853750D03*
%TD*%
D25*
%TO.C,D2*%
X88106250Y-104933750D03*
D26*
X88106250Y-99853750D03*
%TD*%
D25*
%TO.C,D1*%
X69056250Y-104933750D03*
D26*
X69056250Y-99853750D03*
%TD*%
M02*
