%TF.GenerationSoftware,KiCad,Pcbnew,(5.1.12)-1*%
%TF.CreationDate,2021-12-04T22:19:43-05:00*%
%TF.ProjectId,GanJing 65 rev 2,47616e4a-696e-4672-9036-352072657620,2*%
%TF.SameCoordinates,Original*%
%TF.FileFunction,Legend,Top*%
%TF.FilePolarity,Positive*%
%FSLAX46Y46*%
G04 Gerber Fmt 4.6, Leading zero omitted, Abs format (unit mm)*
G04 Created by KiCad (PCBNEW (5.1.12)-1) date 2021-12-04 22:19:43*
%MOMM*%
%LPD*%
G01*
G04 APERTURE LIST*
%ADD10C,0.120000*%
%ADD11C,0.150000*%
G04 APERTURE END LIST*
D10*
%TO.C,DS1*%
X359806250Y-132461000D02*
X349806250Y-132461000D01*
X349806250Y-132461000D02*
X349806250Y-130048000D01*
X359806250Y-132461000D02*
X359806250Y-130048000D01*
X349806250Y-130048000D02*
X359806250Y-130048000D01*
%TO.C,D71*%
X354276250Y-140043750D02*
X355336250Y-140043750D01*
X354806250Y-140143750D02*
X355336250Y-141093750D01*
X353806250Y-139013750D02*
X355806250Y-139013750D01*
X354806250Y-138753750D02*
X354806250Y-140043750D01*
X354276250Y-141093750D02*
X355336250Y-141093750D01*
X354806250Y-140143750D02*
X354276250Y-141093750D01*
X353806250Y-142003750D02*
X355806250Y-142003750D01*
X355806250Y-139013750D02*
X355806250Y-142003750D01*
X353806250Y-139023750D02*
X353806250Y-141993750D01*
X354806250Y-142233750D02*
X354806250Y-141093750D01*
%TO.C,D70*%
X354276250Y-175762500D02*
X355336250Y-175762500D01*
X354806250Y-175862500D02*
X355336250Y-176812500D01*
X353806250Y-174732500D02*
X355806250Y-174732500D01*
X354806250Y-174472500D02*
X354806250Y-175762500D01*
X354276250Y-176812500D02*
X355336250Y-176812500D01*
X354806250Y-175862500D02*
X354276250Y-176812500D01*
X353806250Y-177722500D02*
X355806250Y-177722500D01*
X355806250Y-174732500D02*
X355806250Y-177722500D01*
X353806250Y-174742500D02*
X353806250Y-177712500D01*
X354806250Y-177952500D02*
X354806250Y-176812500D01*
%TO.C,D69*%
X335226250Y-175762500D02*
X336286250Y-175762500D01*
X335756250Y-175862500D02*
X336286250Y-176812500D01*
X334756250Y-174732500D02*
X336756250Y-174732500D01*
X335756250Y-174472500D02*
X335756250Y-175762500D01*
X335226250Y-176812500D02*
X336286250Y-176812500D01*
X335756250Y-175862500D02*
X335226250Y-176812500D01*
X334756250Y-177722500D02*
X336756250Y-177722500D01*
X336756250Y-174732500D02*
X336756250Y-177722500D01*
X334756250Y-174742500D02*
X334756250Y-177712500D01*
X335756250Y-177952500D02*
X335756250Y-176812500D01*
%TO.C,D68*%
X316176250Y-175762500D02*
X317236250Y-175762500D01*
X316706250Y-175862500D02*
X317236250Y-176812500D01*
X315706250Y-174732500D02*
X317706250Y-174732500D01*
X316706250Y-174472500D02*
X316706250Y-175762500D01*
X316176250Y-176812500D02*
X317236250Y-176812500D01*
X316706250Y-175862500D02*
X316176250Y-176812500D01*
X315706250Y-177722500D02*
X317706250Y-177722500D01*
X317706250Y-174732500D02*
X317706250Y-177722500D01*
X315706250Y-174742500D02*
X315706250Y-177712500D01*
X316706250Y-177952500D02*
X316706250Y-176812500D01*
%TO.C,D67*%
X297126250Y-178143750D02*
X298186250Y-178143750D01*
X297656250Y-178243750D02*
X298186250Y-179193750D01*
X296656250Y-177113750D02*
X298656250Y-177113750D01*
X297656250Y-176853750D02*
X297656250Y-178143750D01*
X297126250Y-179193750D02*
X298186250Y-179193750D01*
X297656250Y-178243750D02*
X297126250Y-179193750D01*
X296656250Y-180103750D02*
X298656250Y-180103750D01*
X298656250Y-177113750D02*
X298656250Y-180103750D01*
X296656250Y-177123750D02*
X296656250Y-180093750D01*
X297656250Y-180333750D02*
X297656250Y-179193750D01*
%TO.C,D66*%
X278076250Y-175762500D02*
X279136250Y-175762500D01*
X278606250Y-175862500D02*
X279136250Y-176812500D01*
X277606250Y-174732500D02*
X279606250Y-174732500D01*
X278606250Y-174472500D02*
X278606250Y-175762500D01*
X278076250Y-176812500D02*
X279136250Y-176812500D01*
X278606250Y-175862500D02*
X278076250Y-176812500D01*
X277606250Y-177722500D02*
X279606250Y-177722500D01*
X279606250Y-174732500D02*
X279606250Y-177722500D01*
X277606250Y-174742500D02*
X277606250Y-177712500D01*
X278606250Y-177952500D02*
X278606250Y-176812500D01*
%TO.C,D65*%
X259026250Y-175762500D02*
X260086250Y-175762500D01*
X259556250Y-175862500D02*
X260086250Y-176812500D01*
X258556250Y-174732500D02*
X260556250Y-174732500D01*
X259556250Y-174472500D02*
X259556250Y-175762500D01*
X259026250Y-176812500D02*
X260086250Y-176812500D01*
X259556250Y-175862500D02*
X259026250Y-176812500D01*
X258556250Y-177722500D02*
X260556250Y-177722500D01*
X260556250Y-174732500D02*
X260556250Y-177722500D01*
X258556250Y-174742500D02*
X258556250Y-177712500D01*
X259556250Y-177952500D02*
X259556250Y-176812500D01*
%TO.C,D64*%
X239976250Y-175762500D02*
X241036250Y-175762500D01*
X240506250Y-175862500D02*
X241036250Y-176812500D01*
X239506250Y-174732500D02*
X241506250Y-174732500D01*
X240506250Y-174472500D02*
X240506250Y-175762500D01*
X239976250Y-176812500D02*
X241036250Y-176812500D01*
X240506250Y-175862500D02*
X239976250Y-176812500D01*
X239506250Y-177722500D02*
X241506250Y-177722500D01*
X241506250Y-174732500D02*
X241506250Y-177722500D01*
X239506250Y-174742500D02*
X239506250Y-177712500D01*
X240506250Y-177952500D02*
X240506250Y-176812500D01*
%TO.C,D63*%
X166157500Y-175762500D02*
X167217500Y-175762500D01*
X166687500Y-175862500D02*
X167217500Y-176812500D01*
X165687500Y-174732500D02*
X167687500Y-174732500D01*
X166687500Y-174472500D02*
X166687500Y-175762500D01*
X166157500Y-176812500D02*
X167217500Y-176812500D01*
X166687500Y-175862500D02*
X166157500Y-176812500D01*
X165687500Y-177722500D02*
X167687500Y-177722500D01*
X167687500Y-174732500D02*
X167687500Y-177722500D01*
X165687500Y-174742500D02*
X165687500Y-177712500D01*
X166687500Y-177952500D02*
X166687500Y-176812500D01*
%TO.C,D62*%
X97101250Y-175762500D02*
X98161250Y-175762500D01*
X97631250Y-175862500D02*
X98161250Y-176812500D01*
X96631250Y-174732500D02*
X98631250Y-174732500D01*
X97631250Y-174472500D02*
X97631250Y-175762500D01*
X97101250Y-176812500D02*
X98161250Y-176812500D01*
X97631250Y-175862500D02*
X97101250Y-176812500D01*
X96631250Y-177722500D02*
X98631250Y-177722500D01*
X98631250Y-174732500D02*
X98631250Y-177722500D01*
X96631250Y-174742500D02*
X96631250Y-177712500D01*
X97631250Y-177952500D02*
X97631250Y-176812500D01*
%TO.C,D61*%
X75670000Y-175762500D02*
X76730000Y-175762500D01*
X76200000Y-175862500D02*
X76730000Y-176812500D01*
X75200000Y-174732500D02*
X77200000Y-174732500D01*
X76200000Y-174472500D02*
X76200000Y-175762500D01*
X75670000Y-176812500D02*
X76730000Y-176812500D01*
X76200000Y-175862500D02*
X75670000Y-176812500D01*
X75200000Y-177722500D02*
X77200000Y-177722500D01*
X77200000Y-174732500D02*
X77200000Y-177722500D01*
X75200000Y-174742500D02*
X75200000Y-177712500D01*
X76200000Y-177952500D02*
X76200000Y-176812500D01*
%TO.C,D60*%
X51857500Y-175762500D02*
X52917500Y-175762500D01*
X52387500Y-175862500D02*
X52917500Y-176812500D01*
X51387500Y-174732500D02*
X53387500Y-174732500D01*
X52387500Y-174472500D02*
X52387500Y-175762500D01*
X51857500Y-176812500D02*
X52917500Y-176812500D01*
X52387500Y-175862500D02*
X51857500Y-176812500D01*
X51387500Y-177722500D02*
X53387500Y-177722500D01*
X53387500Y-174732500D02*
X53387500Y-177722500D01*
X51387500Y-174742500D02*
X51387500Y-177712500D01*
X52387500Y-177952500D02*
X52387500Y-176812500D01*
%TO.C,D59*%
X354276250Y-159093750D02*
X355336250Y-159093750D01*
X354806250Y-159193750D02*
X355336250Y-160143750D01*
X353806250Y-158063750D02*
X355806250Y-158063750D01*
X354806250Y-157803750D02*
X354806250Y-159093750D01*
X354276250Y-160143750D02*
X355336250Y-160143750D01*
X354806250Y-159193750D02*
X354276250Y-160143750D01*
X353806250Y-161053750D02*
X355806250Y-161053750D01*
X355806250Y-158063750D02*
X355806250Y-161053750D01*
X353806250Y-158073750D02*
X353806250Y-161043750D01*
X354806250Y-161283750D02*
X354806250Y-160143750D01*
%TO.C,D58*%
X309032500Y-130518750D02*
X310092500Y-130518750D01*
X309562500Y-130618750D02*
X310092500Y-131568750D01*
X308562500Y-129488750D02*
X310562500Y-129488750D01*
X309562500Y-129228750D02*
X309562500Y-130518750D01*
X309032500Y-131568750D02*
X310092500Y-131568750D01*
X309562500Y-130618750D02*
X309032500Y-131568750D01*
X308562500Y-132478750D02*
X310562500Y-132478750D01*
X310562500Y-129488750D02*
X310562500Y-132478750D01*
X308562500Y-129498750D02*
X308562500Y-132468750D01*
X309562500Y-132708750D02*
X309562500Y-131568750D01*
%TO.C,D57*%
X292363750Y-156712500D02*
X293423750Y-156712500D01*
X292893750Y-156812500D02*
X293423750Y-157762500D01*
X291893750Y-155682500D02*
X293893750Y-155682500D01*
X292893750Y-155422500D02*
X292893750Y-156712500D01*
X292363750Y-157762500D02*
X293423750Y-157762500D01*
X292893750Y-156812500D02*
X292363750Y-157762500D01*
X291893750Y-158672500D02*
X293893750Y-158672500D01*
X293893750Y-155682500D02*
X293893750Y-158672500D01*
X291893750Y-155692500D02*
X291893750Y-158662500D01*
X292893750Y-158902500D02*
X292893750Y-157762500D01*
%TO.C,D56*%
X263788750Y-156712500D02*
X264848750Y-156712500D01*
X264318750Y-156812500D02*
X264848750Y-157762500D01*
X263318750Y-155682500D02*
X265318750Y-155682500D01*
X264318750Y-155422500D02*
X264318750Y-156712500D01*
X263788750Y-157762500D02*
X264848750Y-157762500D01*
X264318750Y-156812500D02*
X263788750Y-157762500D01*
X263318750Y-158672500D02*
X265318750Y-158672500D01*
X265318750Y-155682500D02*
X265318750Y-158672500D01*
X263318750Y-155692500D02*
X263318750Y-158662500D01*
X264318750Y-158902500D02*
X264318750Y-157762500D01*
%TO.C,D55*%
X244738750Y-156712500D02*
X245798750Y-156712500D01*
X245268750Y-156812500D02*
X245798750Y-157762500D01*
X244268750Y-155682500D02*
X246268750Y-155682500D01*
X245268750Y-155422500D02*
X245268750Y-156712500D01*
X244738750Y-157762500D02*
X245798750Y-157762500D01*
X245268750Y-156812500D02*
X244738750Y-157762500D01*
X244268750Y-158672500D02*
X246268750Y-158672500D01*
X246268750Y-155682500D02*
X246268750Y-158672500D01*
X244268750Y-155692500D02*
X244268750Y-158662500D01*
X245268750Y-158902500D02*
X245268750Y-157762500D01*
%TO.C,D54*%
X225688750Y-156712500D02*
X226748750Y-156712500D01*
X226218750Y-156812500D02*
X226748750Y-157762500D01*
X225218750Y-155682500D02*
X227218750Y-155682500D01*
X226218750Y-155422500D02*
X226218750Y-156712500D01*
X225688750Y-157762500D02*
X226748750Y-157762500D01*
X226218750Y-156812500D02*
X225688750Y-157762500D01*
X225218750Y-158672500D02*
X227218750Y-158672500D01*
X227218750Y-155682500D02*
X227218750Y-158672500D01*
X225218750Y-155692500D02*
X225218750Y-158662500D01*
X226218750Y-158902500D02*
X226218750Y-157762500D01*
%TO.C,D53*%
X206638750Y-156712500D02*
X207698750Y-156712500D01*
X207168750Y-156812500D02*
X207698750Y-157762500D01*
X206168750Y-155682500D02*
X208168750Y-155682500D01*
X207168750Y-155422500D02*
X207168750Y-156712500D01*
X206638750Y-157762500D02*
X207698750Y-157762500D01*
X207168750Y-156812500D02*
X206638750Y-157762500D01*
X206168750Y-158672500D02*
X208168750Y-158672500D01*
X208168750Y-155682500D02*
X208168750Y-158672500D01*
X206168750Y-155692500D02*
X206168750Y-158662500D01*
X207168750Y-158902500D02*
X207168750Y-157762500D01*
%TO.C,D52*%
X187588750Y-156712500D02*
X188648750Y-156712500D01*
X188118750Y-156812500D02*
X188648750Y-157762500D01*
X187118750Y-155682500D02*
X189118750Y-155682500D01*
X188118750Y-155422500D02*
X188118750Y-156712500D01*
X187588750Y-157762500D02*
X188648750Y-157762500D01*
X188118750Y-156812500D02*
X187588750Y-157762500D01*
X187118750Y-158672500D02*
X189118750Y-158672500D01*
X189118750Y-155682500D02*
X189118750Y-158672500D01*
X187118750Y-155692500D02*
X187118750Y-158662500D01*
X188118750Y-158902500D02*
X188118750Y-157762500D01*
%TO.C,D51*%
X168538750Y-156712500D02*
X169598750Y-156712500D01*
X169068750Y-156812500D02*
X169598750Y-157762500D01*
X168068750Y-155682500D02*
X170068750Y-155682500D01*
X169068750Y-155422500D02*
X169068750Y-156712500D01*
X168538750Y-157762500D02*
X169598750Y-157762500D01*
X169068750Y-156812500D02*
X168538750Y-157762500D01*
X168068750Y-158672500D02*
X170068750Y-158672500D01*
X170068750Y-155682500D02*
X170068750Y-158672500D01*
X168068750Y-155692500D02*
X168068750Y-158662500D01*
X169068750Y-158902500D02*
X169068750Y-157762500D01*
%TO.C,D50*%
X149488750Y-156712500D02*
X150548750Y-156712500D01*
X150018750Y-156812500D02*
X150548750Y-157762500D01*
X149018750Y-155682500D02*
X151018750Y-155682500D01*
X150018750Y-155422500D02*
X150018750Y-156712500D01*
X149488750Y-157762500D02*
X150548750Y-157762500D01*
X150018750Y-156812500D02*
X149488750Y-157762500D01*
X149018750Y-158672500D02*
X151018750Y-158672500D01*
X151018750Y-155682500D02*
X151018750Y-158672500D01*
X149018750Y-155692500D02*
X149018750Y-158662500D01*
X150018750Y-158902500D02*
X150018750Y-157762500D01*
%TO.C,D49*%
X130438750Y-156712500D02*
X131498750Y-156712500D01*
X130968750Y-156812500D02*
X131498750Y-157762500D01*
X129968750Y-155682500D02*
X131968750Y-155682500D01*
X130968750Y-155422500D02*
X130968750Y-156712500D01*
X130438750Y-157762500D02*
X131498750Y-157762500D01*
X130968750Y-156812500D02*
X130438750Y-157762500D01*
X129968750Y-158672500D02*
X131968750Y-158672500D01*
X131968750Y-155682500D02*
X131968750Y-158672500D01*
X129968750Y-155692500D02*
X129968750Y-158662500D01*
X130968750Y-158902500D02*
X130968750Y-157762500D01*
%TO.C,D48*%
X111388750Y-156712500D02*
X112448750Y-156712500D01*
X111918750Y-156812500D02*
X112448750Y-157762500D01*
X110918750Y-155682500D02*
X112918750Y-155682500D01*
X111918750Y-155422500D02*
X111918750Y-156712500D01*
X111388750Y-157762500D02*
X112448750Y-157762500D01*
X111918750Y-156812500D02*
X111388750Y-157762500D01*
X110918750Y-158672500D02*
X112918750Y-158672500D01*
X112918750Y-155682500D02*
X112918750Y-158672500D01*
X110918750Y-155692500D02*
X110918750Y-158662500D01*
X111918750Y-158902500D02*
X111918750Y-157762500D01*
%TO.C,D47*%
X92338750Y-156712500D02*
X93398750Y-156712500D01*
X92868750Y-156812500D02*
X93398750Y-157762500D01*
X91868750Y-155682500D02*
X93868750Y-155682500D01*
X92868750Y-155422500D02*
X92868750Y-156712500D01*
X92338750Y-157762500D02*
X93398750Y-157762500D01*
X92868750Y-156812500D02*
X92338750Y-157762500D01*
X91868750Y-158672500D02*
X93868750Y-158672500D01*
X93868750Y-155682500D02*
X93868750Y-158672500D01*
X91868750Y-155692500D02*
X91868750Y-158662500D01*
X92868750Y-158902500D02*
X92868750Y-157762500D01*
%TO.C,D46*%
X78051250Y-149568750D02*
X79111250Y-149568750D01*
X78581250Y-149668750D02*
X79111250Y-150618750D01*
X77581250Y-148538750D02*
X79581250Y-148538750D01*
X78581250Y-148278750D02*
X78581250Y-149568750D01*
X78051250Y-150618750D02*
X79111250Y-150618750D01*
X78581250Y-149668750D02*
X78051250Y-150618750D01*
X77581250Y-151528750D02*
X79581250Y-151528750D01*
X79581250Y-148538750D02*
X79581250Y-151528750D01*
X77581250Y-148548750D02*
X77581250Y-151518750D01*
X78581250Y-151758750D02*
X78581250Y-150618750D01*
%TO.C,D45*%
X51857500Y-156712500D02*
X52917500Y-156712500D01*
X52387500Y-156812500D02*
X52917500Y-157762500D01*
X51387500Y-155682500D02*
X53387500Y-155682500D01*
X52387500Y-155422500D02*
X52387500Y-156712500D01*
X51857500Y-157762500D02*
X52917500Y-157762500D01*
X52387500Y-156812500D02*
X51857500Y-157762500D01*
X51387500Y-158672500D02*
X53387500Y-158672500D01*
X53387500Y-155682500D02*
X53387500Y-158672500D01*
X51387500Y-155692500D02*
X51387500Y-158662500D01*
X52387500Y-158902500D02*
X52387500Y-157762500D01*
%TO.C,D44*%
X335226250Y-159093750D02*
X336286250Y-159093750D01*
X335756250Y-159193750D02*
X336286250Y-160143750D01*
X334756250Y-158063750D02*
X336756250Y-158063750D01*
X335756250Y-157803750D02*
X335756250Y-159093750D01*
X335226250Y-160143750D02*
X336286250Y-160143750D01*
X335756250Y-159193750D02*
X335226250Y-160143750D01*
X334756250Y-161053750D02*
X336756250Y-161053750D01*
X336756250Y-158063750D02*
X336756250Y-161053750D01*
X334756250Y-158073750D02*
X334756250Y-161043750D01*
X335756250Y-161283750D02*
X335756250Y-160143750D01*
%TO.C,D43*%
X335226250Y-149568750D02*
X336286250Y-149568750D01*
X335756250Y-149668750D02*
X336286250Y-150618750D01*
X334756250Y-148538750D02*
X336756250Y-148538750D01*
X335756250Y-148278750D02*
X335756250Y-149568750D01*
X335226250Y-150618750D02*
X336286250Y-150618750D01*
X335756250Y-149668750D02*
X335226250Y-150618750D01*
X334756250Y-151528750D02*
X336756250Y-151528750D01*
X336756250Y-148538750D02*
X336756250Y-151528750D01*
X334756250Y-148548750D02*
X334756250Y-151518750D01*
X335756250Y-151758750D02*
X335756250Y-150618750D01*
%TO.C,D42*%
X292363750Y-137662500D02*
X293423750Y-137662500D01*
X292893750Y-137762500D02*
X293423750Y-138712500D01*
X291893750Y-136632500D02*
X293893750Y-136632500D01*
X292893750Y-136372500D02*
X292893750Y-137662500D01*
X292363750Y-138712500D02*
X293423750Y-138712500D01*
X292893750Y-137762500D02*
X292363750Y-138712500D01*
X291893750Y-139622500D02*
X293893750Y-139622500D01*
X293893750Y-136632500D02*
X293893750Y-139622500D01*
X291893750Y-136642500D02*
X291893750Y-139612500D01*
X292893750Y-139852500D02*
X292893750Y-138712500D01*
%TO.C,D41*%
X273313750Y-137662500D02*
X274373750Y-137662500D01*
X273843750Y-137762500D02*
X274373750Y-138712500D01*
X272843750Y-136632500D02*
X274843750Y-136632500D01*
X273843750Y-136372500D02*
X273843750Y-137662500D01*
X273313750Y-138712500D02*
X274373750Y-138712500D01*
X273843750Y-137762500D02*
X273313750Y-138712500D01*
X272843750Y-139622500D02*
X274843750Y-139622500D01*
X274843750Y-136632500D02*
X274843750Y-139622500D01*
X272843750Y-136642500D02*
X272843750Y-139612500D01*
X273843750Y-139852500D02*
X273843750Y-138712500D01*
%TO.C,D40*%
X254263750Y-137662500D02*
X255323750Y-137662500D01*
X254793750Y-137762500D02*
X255323750Y-138712500D01*
X253793750Y-136632500D02*
X255793750Y-136632500D01*
X254793750Y-136372500D02*
X254793750Y-137662500D01*
X254263750Y-138712500D02*
X255323750Y-138712500D01*
X254793750Y-137762500D02*
X254263750Y-138712500D01*
X253793750Y-139622500D02*
X255793750Y-139622500D01*
X255793750Y-136632500D02*
X255793750Y-139622500D01*
X253793750Y-136642500D02*
X253793750Y-139612500D01*
X254793750Y-139852500D02*
X254793750Y-138712500D01*
%TO.C,D39*%
X235213750Y-137662500D02*
X236273750Y-137662500D01*
X235743750Y-137762500D02*
X236273750Y-138712500D01*
X234743750Y-136632500D02*
X236743750Y-136632500D01*
X235743750Y-136372500D02*
X235743750Y-137662500D01*
X235213750Y-138712500D02*
X236273750Y-138712500D01*
X235743750Y-137762500D02*
X235213750Y-138712500D01*
X234743750Y-139622500D02*
X236743750Y-139622500D01*
X236743750Y-136632500D02*
X236743750Y-139622500D01*
X234743750Y-136642500D02*
X234743750Y-139612500D01*
X235743750Y-139852500D02*
X235743750Y-138712500D01*
%TO.C,D38*%
X216163750Y-137662500D02*
X217223750Y-137662500D01*
X216693750Y-137762500D02*
X217223750Y-138712500D01*
X215693750Y-136632500D02*
X217693750Y-136632500D01*
X216693750Y-136372500D02*
X216693750Y-137662500D01*
X216163750Y-138712500D02*
X217223750Y-138712500D01*
X216693750Y-137762500D02*
X216163750Y-138712500D01*
X215693750Y-139622500D02*
X217693750Y-139622500D01*
X217693750Y-136632500D02*
X217693750Y-139622500D01*
X215693750Y-136642500D02*
X215693750Y-139612500D01*
X216693750Y-139852500D02*
X216693750Y-138712500D01*
%TO.C,D37*%
X197113750Y-137662500D02*
X198173750Y-137662500D01*
X197643750Y-137762500D02*
X198173750Y-138712500D01*
X196643750Y-136632500D02*
X198643750Y-136632500D01*
X197643750Y-136372500D02*
X197643750Y-137662500D01*
X197113750Y-138712500D02*
X198173750Y-138712500D01*
X197643750Y-137762500D02*
X197113750Y-138712500D01*
X196643750Y-139622500D02*
X198643750Y-139622500D01*
X198643750Y-136632500D02*
X198643750Y-139622500D01*
X196643750Y-136642500D02*
X196643750Y-139612500D01*
X197643750Y-139852500D02*
X197643750Y-138712500D01*
%TO.C,D36*%
X178063750Y-137662500D02*
X179123750Y-137662500D01*
X178593750Y-137762500D02*
X179123750Y-138712500D01*
X177593750Y-136632500D02*
X179593750Y-136632500D01*
X178593750Y-136372500D02*
X178593750Y-137662500D01*
X178063750Y-138712500D02*
X179123750Y-138712500D01*
X178593750Y-137762500D02*
X178063750Y-138712500D01*
X177593750Y-139622500D02*
X179593750Y-139622500D01*
X179593750Y-136632500D02*
X179593750Y-139622500D01*
X177593750Y-136642500D02*
X177593750Y-139612500D01*
X178593750Y-139852500D02*
X178593750Y-138712500D01*
%TO.C,D35*%
X159013750Y-137662500D02*
X160073750Y-137662500D01*
X159543750Y-137762500D02*
X160073750Y-138712500D01*
X158543750Y-136632500D02*
X160543750Y-136632500D01*
X159543750Y-136372500D02*
X159543750Y-137662500D01*
X159013750Y-138712500D02*
X160073750Y-138712500D01*
X159543750Y-137762500D02*
X159013750Y-138712500D01*
X158543750Y-139622500D02*
X160543750Y-139622500D01*
X160543750Y-136632500D02*
X160543750Y-139622500D01*
X158543750Y-136642500D02*
X158543750Y-139612500D01*
X159543750Y-139852500D02*
X159543750Y-138712500D01*
%TO.C,D34*%
X139963750Y-137662500D02*
X141023750Y-137662500D01*
X140493750Y-137762500D02*
X141023750Y-138712500D01*
X139493750Y-136632500D02*
X141493750Y-136632500D01*
X140493750Y-136372500D02*
X140493750Y-137662500D01*
X139963750Y-138712500D02*
X141023750Y-138712500D01*
X140493750Y-137762500D02*
X139963750Y-138712500D01*
X139493750Y-139622500D02*
X141493750Y-139622500D01*
X141493750Y-136632500D02*
X141493750Y-139622500D01*
X139493750Y-136642500D02*
X139493750Y-139612500D01*
X140493750Y-139852500D02*
X140493750Y-138712500D01*
%TO.C,D33*%
X120913750Y-137662500D02*
X121973750Y-137662500D01*
X121443750Y-137762500D02*
X121973750Y-138712500D01*
X120443750Y-136632500D02*
X122443750Y-136632500D01*
X121443750Y-136372500D02*
X121443750Y-137662500D01*
X120913750Y-138712500D02*
X121973750Y-138712500D01*
X121443750Y-137762500D02*
X120913750Y-138712500D01*
X120443750Y-139622500D02*
X122443750Y-139622500D01*
X122443750Y-136632500D02*
X122443750Y-139622500D01*
X120443750Y-136642500D02*
X120443750Y-139612500D01*
X121443750Y-139852500D02*
X121443750Y-138712500D01*
%TO.C,D32*%
X101863750Y-137662500D02*
X102923750Y-137662500D01*
X102393750Y-137762500D02*
X102923750Y-138712500D01*
X101393750Y-136632500D02*
X103393750Y-136632500D01*
X102393750Y-136372500D02*
X102393750Y-137662500D01*
X101863750Y-138712500D02*
X102923750Y-138712500D01*
X102393750Y-137762500D02*
X101863750Y-138712500D01*
X101393750Y-139622500D02*
X103393750Y-139622500D01*
X103393750Y-136632500D02*
X103393750Y-139622500D01*
X101393750Y-136642500D02*
X101393750Y-139612500D01*
X102393750Y-139852500D02*
X102393750Y-138712500D01*
%TO.C,D31*%
X82813750Y-137662500D02*
X83873750Y-137662500D01*
X83343750Y-137762500D02*
X83873750Y-138712500D01*
X82343750Y-136632500D02*
X84343750Y-136632500D01*
X83343750Y-136372500D02*
X83343750Y-137662500D01*
X82813750Y-138712500D02*
X83873750Y-138712500D01*
X83343750Y-137762500D02*
X82813750Y-138712500D01*
X82343750Y-139622500D02*
X84343750Y-139622500D01*
X84343750Y-136632500D02*
X84343750Y-139622500D01*
X82343750Y-136642500D02*
X82343750Y-139612500D01*
X83343750Y-139852500D02*
X83343750Y-138712500D01*
%TO.C,D30*%
X51857500Y-137662500D02*
X52917500Y-137662500D01*
X52387500Y-137762500D02*
X52917500Y-138712500D01*
X51387500Y-136632500D02*
X53387500Y-136632500D01*
X52387500Y-136372500D02*
X52387500Y-137662500D01*
X51857500Y-138712500D02*
X52917500Y-138712500D01*
X52387500Y-137762500D02*
X51857500Y-138712500D01*
X51387500Y-139622500D02*
X53387500Y-139622500D01*
X53387500Y-136632500D02*
X53387500Y-139622500D01*
X51387500Y-136642500D02*
X51387500Y-139612500D01*
X52387500Y-139852500D02*
X52387500Y-138712500D01*
%TO.C,D29*%
X335226250Y-140043750D02*
X336286250Y-140043750D01*
X335756250Y-140143750D02*
X336286250Y-141093750D01*
X334756250Y-139013750D02*
X336756250Y-139013750D01*
X335756250Y-138753750D02*
X335756250Y-140043750D01*
X335226250Y-141093750D02*
X336286250Y-141093750D01*
X335756250Y-140143750D02*
X335226250Y-141093750D01*
X334756250Y-142003750D02*
X336756250Y-142003750D01*
X336756250Y-139013750D02*
X336756250Y-142003750D01*
X334756250Y-139023750D02*
X334756250Y-141993750D01*
X335756250Y-142233750D02*
X335756250Y-141093750D01*
%TO.C,D28*%
X309032500Y-118612500D02*
X310092500Y-118612500D01*
X309562500Y-118712500D02*
X310092500Y-119662500D01*
X308562500Y-117582500D02*
X310562500Y-117582500D01*
X309562500Y-117322500D02*
X309562500Y-118612500D01*
X309032500Y-119662500D02*
X310092500Y-119662500D01*
X309562500Y-118712500D02*
X309032500Y-119662500D01*
X308562500Y-120572500D02*
X310562500Y-120572500D01*
X310562500Y-117582500D02*
X310562500Y-120572500D01*
X308562500Y-117592500D02*
X308562500Y-120562500D01*
X309562500Y-120802500D02*
X309562500Y-119662500D01*
%TO.C,D27*%
X287601250Y-118612500D02*
X288661250Y-118612500D01*
X288131250Y-118712500D02*
X288661250Y-119662500D01*
X287131250Y-117582500D02*
X289131250Y-117582500D01*
X288131250Y-117322500D02*
X288131250Y-118612500D01*
X287601250Y-119662500D02*
X288661250Y-119662500D01*
X288131250Y-118712500D02*
X287601250Y-119662500D01*
X287131250Y-120572500D02*
X289131250Y-120572500D01*
X289131250Y-117582500D02*
X289131250Y-120572500D01*
X287131250Y-117592500D02*
X287131250Y-120562500D01*
X288131250Y-120802500D02*
X288131250Y-119662500D01*
%TO.C,D26*%
X268551250Y-118612500D02*
X269611250Y-118612500D01*
X269081250Y-118712500D02*
X269611250Y-119662500D01*
X268081250Y-117582500D02*
X270081250Y-117582500D01*
X269081250Y-117322500D02*
X269081250Y-118612500D01*
X268551250Y-119662500D02*
X269611250Y-119662500D01*
X269081250Y-118712500D02*
X268551250Y-119662500D01*
X268081250Y-120572500D02*
X270081250Y-120572500D01*
X270081250Y-117582500D02*
X270081250Y-120572500D01*
X268081250Y-117592500D02*
X268081250Y-120562500D01*
X269081250Y-120802500D02*
X269081250Y-119662500D01*
%TO.C,D25*%
X249501250Y-118612500D02*
X250561250Y-118612500D01*
X250031250Y-118712500D02*
X250561250Y-119662500D01*
X249031250Y-117582500D02*
X251031250Y-117582500D01*
X250031250Y-117322500D02*
X250031250Y-118612500D01*
X249501250Y-119662500D02*
X250561250Y-119662500D01*
X250031250Y-118712500D02*
X249501250Y-119662500D01*
X249031250Y-120572500D02*
X251031250Y-120572500D01*
X251031250Y-117582500D02*
X251031250Y-120572500D01*
X249031250Y-117592500D02*
X249031250Y-120562500D01*
X250031250Y-120802500D02*
X250031250Y-119662500D01*
%TO.C,D24*%
X230451250Y-118612500D02*
X231511250Y-118612500D01*
X230981250Y-118712500D02*
X231511250Y-119662500D01*
X229981250Y-117582500D02*
X231981250Y-117582500D01*
X230981250Y-117322500D02*
X230981250Y-118612500D01*
X230451250Y-119662500D02*
X231511250Y-119662500D01*
X230981250Y-118712500D02*
X230451250Y-119662500D01*
X229981250Y-120572500D02*
X231981250Y-120572500D01*
X231981250Y-117582500D02*
X231981250Y-120572500D01*
X229981250Y-117592500D02*
X229981250Y-120562500D01*
X230981250Y-120802500D02*
X230981250Y-119662500D01*
%TO.C,D23*%
X211401250Y-118612500D02*
X212461250Y-118612500D01*
X211931250Y-118712500D02*
X212461250Y-119662500D01*
X210931250Y-117582500D02*
X212931250Y-117582500D01*
X211931250Y-117322500D02*
X211931250Y-118612500D01*
X211401250Y-119662500D02*
X212461250Y-119662500D01*
X211931250Y-118712500D02*
X211401250Y-119662500D01*
X210931250Y-120572500D02*
X212931250Y-120572500D01*
X212931250Y-117582500D02*
X212931250Y-120572500D01*
X210931250Y-117592500D02*
X210931250Y-120562500D01*
X211931250Y-120802500D02*
X211931250Y-119662500D01*
%TO.C,D22*%
X192351250Y-118612500D02*
X193411250Y-118612500D01*
X192881250Y-118712500D02*
X193411250Y-119662500D01*
X191881250Y-117582500D02*
X193881250Y-117582500D01*
X192881250Y-117322500D02*
X192881250Y-118612500D01*
X192351250Y-119662500D02*
X193411250Y-119662500D01*
X192881250Y-118712500D02*
X192351250Y-119662500D01*
X191881250Y-120572500D02*
X193881250Y-120572500D01*
X193881250Y-117582500D02*
X193881250Y-120572500D01*
X191881250Y-117592500D02*
X191881250Y-120562500D01*
X192881250Y-120802500D02*
X192881250Y-119662500D01*
%TO.C,D21*%
X173301250Y-118612500D02*
X174361250Y-118612500D01*
X173831250Y-118712500D02*
X174361250Y-119662500D01*
X172831250Y-117582500D02*
X174831250Y-117582500D01*
X173831250Y-117322500D02*
X173831250Y-118612500D01*
X173301250Y-119662500D02*
X174361250Y-119662500D01*
X173831250Y-118712500D02*
X173301250Y-119662500D01*
X172831250Y-120572500D02*
X174831250Y-120572500D01*
X174831250Y-117582500D02*
X174831250Y-120572500D01*
X172831250Y-117592500D02*
X172831250Y-120562500D01*
X173831250Y-120802500D02*
X173831250Y-119662500D01*
%TO.C,D20*%
X154251250Y-118612500D02*
X155311250Y-118612500D01*
X154781250Y-118712500D02*
X155311250Y-119662500D01*
X153781250Y-117582500D02*
X155781250Y-117582500D01*
X154781250Y-117322500D02*
X154781250Y-118612500D01*
X154251250Y-119662500D02*
X155311250Y-119662500D01*
X154781250Y-118712500D02*
X154251250Y-119662500D01*
X153781250Y-120572500D02*
X155781250Y-120572500D01*
X155781250Y-117582500D02*
X155781250Y-120572500D01*
X153781250Y-117592500D02*
X153781250Y-120562500D01*
X154781250Y-120802500D02*
X154781250Y-119662500D01*
%TO.C,D19*%
X135201250Y-118612500D02*
X136261250Y-118612500D01*
X135731250Y-118712500D02*
X136261250Y-119662500D01*
X134731250Y-117582500D02*
X136731250Y-117582500D01*
X135731250Y-117322500D02*
X135731250Y-118612500D01*
X135201250Y-119662500D02*
X136261250Y-119662500D01*
X135731250Y-118712500D02*
X135201250Y-119662500D01*
X134731250Y-120572500D02*
X136731250Y-120572500D01*
X136731250Y-117582500D02*
X136731250Y-120572500D01*
X134731250Y-117592500D02*
X134731250Y-120562500D01*
X135731250Y-120802500D02*
X135731250Y-119662500D01*
%TO.C,D18*%
X116151250Y-118612500D02*
X117211250Y-118612500D01*
X116681250Y-118712500D02*
X117211250Y-119662500D01*
X115681250Y-117582500D02*
X117681250Y-117582500D01*
X116681250Y-117322500D02*
X116681250Y-118612500D01*
X116151250Y-119662500D02*
X117211250Y-119662500D01*
X116681250Y-118712500D02*
X116151250Y-119662500D01*
X115681250Y-120572500D02*
X117681250Y-120572500D01*
X117681250Y-117582500D02*
X117681250Y-120572500D01*
X115681250Y-117592500D02*
X115681250Y-120562500D01*
X116681250Y-120802500D02*
X116681250Y-119662500D01*
%TO.C,D17*%
X97101250Y-118612500D02*
X98161250Y-118612500D01*
X97631250Y-118712500D02*
X98161250Y-119662500D01*
X96631250Y-117582500D02*
X98631250Y-117582500D01*
X97631250Y-117322500D02*
X97631250Y-118612500D01*
X97101250Y-119662500D02*
X98161250Y-119662500D01*
X97631250Y-118712500D02*
X97101250Y-119662500D01*
X96631250Y-120572500D02*
X98631250Y-120572500D01*
X98631250Y-117582500D02*
X98631250Y-120572500D01*
X96631250Y-117592500D02*
X96631250Y-120562500D01*
X97631250Y-120802500D02*
X97631250Y-119662500D01*
%TO.C,D16*%
X78051250Y-118612500D02*
X79111250Y-118612500D01*
X78581250Y-118712500D02*
X79111250Y-119662500D01*
X77581250Y-117582500D02*
X79581250Y-117582500D01*
X78581250Y-117322500D02*
X78581250Y-118612500D01*
X78051250Y-119662500D02*
X79111250Y-119662500D01*
X78581250Y-118712500D02*
X78051250Y-119662500D01*
X77581250Y-120572500D02*
X79581250Y-120572500D01*
X79581250Y-117582500D02*
X79581250Y-120572500D01*
X77581250Y-117592500D02*
X77581250Y-120562500D01*
X78581250Y-120802500D02*
X78581250Y-119662500D01*
%TO.C,D15*%
X51857500Y-118612500D02*
X52917500Y-118612500D01*
X52387500Y-118712500D02*
X52917500Y-119662500D01*
X51387500Y-117582500D02*
X53387500Y-117582500D01*
X52387500Y-117322500D02*
X52387500Y-118612500D01*
X51857500Y-119662500D02*
X52917500Y-119662500D01*
X52387500Y-118712500D02*
X51857500Y-119662500D01*
X51387500Y-120572500D02*
X53387500Y-120572500D01*
X53387500Y-117582500D02*
X53387500Y-120572500D01*
X51387500Y-117592500D02*
X51387500Y-120562500D01*
X52387500Y-120802500D02*
X52387500Y-119662500D01*
%TO.C,D14*%
X332845000Y-101943750D02*
X333905000Y-101943750D01*
X333375000Y-102043750D02*
X333905000Y-102993750D01*
X332375000Y-100913750D02*
X334375000Y-100913750D01*
X333375000Y-100653750D02*
X333375000Y-101943750D01*
X332845000Y-102993750D02*
X333905000Y-102993750D01*
X333375000Y-102043750D02*
X332845000Y-102993750D01*
X332375000Y-103903750D02*
X334375000Y-103903750D01*
X334375000Y-100913750D02*
X334375000Y-103903750D01*
X332375000Y-100923750D02*
X332375000Y-103893750D01*
X333375000Y-104133750D02*
X333375000Y-102993750D01*
%TO.C,D13*%
X297126250Y-101943750D02*
X298186250Y-101943750D01*
X297656250Y-102043750D02*
X298186250Y-102993750D01*
X296656250Y-100913750D02*
X298656250Y-100913750D01*
X297656250Y-100653750D02*
X297656250Y-101943750D01*
X297126250Y-102993750D02*
X298186250Y-102993750D01*
X297656250Y-102043750D02*
X297126250Y-102993750D01*
X296656250Y-103903750D02*
X298656250Y-103903750D01*
X298656250Y-100913750D02*
X298656250Y-103903750D01*
X296656250Y-100923750D02*
X296656250Y-103893750D01*
X297656250Y-104133750D02*
X297656250Y-102993750D01*
%TO.C,D12*%
X278076250Y-101943750D02*
X279136250Y-101943750D01*
X278606250Y-102043750D02*
X279136250Y-102993750D01*
X277606250Y-100913750D02*
X279606250Y-100913750D01*
X278606250Y-100653750D02*
X278606250Y-101943750D01*
X278076250Y-102993750D02*
X279136250Y-102993750D01*
X278606250Y-102043750D02*
X278076250Y-102993750D01*
X277606250Y-103903750D02*
X279606250Y-103903750D01*
X279606250Y-100913750D02*
X279606250Y-103903750D01*
X277606250Y-100923750D02*
X277606250Y-103893750D01*
X278606250Y-104133750D02*
X278606250Y-102993750D01*
%TO.C,D11*%
X259026250Y-101943750D02*
X260086250Y-101943750D01*
X259556250Y-102043750D02*
X260086250Y-102993750D01*
X258556250Y-100913750D02*
X260556250Y-100913750D01*
X259556250Y-100653750D02*
X259556250Y-101943750D01*
X259026250Y-102993750D02*
X260086250Y-102993750D01*
X259556250Y-102043750D02*
X259026250Y-102993750D01*
X258556250Y-103903750D02*
X260556250Y-103903750D01*
X260556250Y-100913750D02*
X260556250Y-103903750D01*
X258556250Y-100923750D02*
X258556250Y-103893750D01*
X259556250Y-104133750D02*
X259556250Y-102993750D01*
%TO.C,D10*%
X239976250Y-101943750D02*
X241036250Y-101943750D01*
X240506250Y-102043750D02*
X241036250Y-102993750D01*
X239506250Y-100913750D02*
X241506250Y-100913750D01*
X240506250Y-100653750D02*
X240506250Y-101943750D01*
X239976250Y-102993750D02*
X241036250Y-102993750D01*
X240506250Y-102043750D02*
X239976250Y-102993750D01*
X239506250Y-103903750D02*
X241506250Y-103903750D01*
X241506250Y-100913750D02*
X241506250Y-103903750D01*
X239506250Y-100923750D02*
X239506250Y-103893750D01*
X240506250Y-104133750D02*
X240506250Y-102993750D01*
%TO.C,D9*%
X220926250Y-101943750D02*
X221986250Y-101943750D01*
X221456250Y-102043750D02*
X221986250Y-102993750D01*
X220456250Y-100913750D02*
X222456250Y-100913750D01*
X221456250Y-100653750D02*
X221456250Y-101943750D01*
X220926250Y-102993750D02*
X221986250Y-102993750D01*
X221456250Y-102043750D02*
X220926250Y-102993750D01*
X220456250Y-103903750D02*
X222456250Y-103903750D01*
X222456250Y-100913750D02*
X222456250Y-103903750D01*
X220456250Y-100923750D02*
X220456250Y-103893750D01*
X221456250Y-104133750D02*
X221456250Y-102993750D01*
%TO.C,D8*%
X201876250Y-101943750D02*
X202936250Y-101943750D01*
X202406250Y-102043750D02*
X202936250Y-102993750D01*
X201406250Y-100913750D02*
X203406250Y-100913750D01*
X202406250Y-100653750D02*
X202406250Y-101943750D01*
X201876250Y-102993750D02*
X202936250Y-102993750D01*
X202406250Y-102043750D02*
X201876250Y-102993750D01*
X201406250Y-103903750D02*
X203406250Y-103903750D01*
X203406250Y-100913750D02*
X203406250Y-103903750D01*
X201406250Y-100923750D02*
X201406250Y-103893750D01*
X202406250Y-104133750D02*
X202406250Y-102993750D01*
%TO.C,D7*%
X182826250Y-101943750D02*
X183886250Y-101943750D01*
X183356250Y-102043750D02*
X183886250Y-102993750D01*
X182356250Y-100913750D02*
X184356250Y-100913750D01*
X183356250Y-100653750D02*
X183356250Y-101943750D01*
X182826250Y-102993750D02*
X183886250Y-102993750D01*
X183356250Y-102043750D02*
X182826250Y-102993750D01*
X182356250Y-103903750D02*
X184356250Y-103903750D01*
X184356250Y-100913750D02*
X184356250Y-103903750D01*
X182356250Y-100923750D02*
X182356250Y-103893750D01*
X183356250Y-104133750D02*
X183356250Y-102993750D01*
%TO.C,D6*%
X163776250Y-101943750D02*
X164836250Y-101943750D01*
X164306250Y-102043750D02*
X164836250Y-102993750D01*
X163306250Y-100913750D02*
X165306250Y-100913750D01*
X164306250Y-100653750D02*
X164306250Y-101943750D01*
X163776250Y-102993750D02*
X164836250Y-102993750D01*
X164306250Y-102043750D02*
X163776250Y-102993750D01*
X163306250Y-103903750D02*
X165306250Y-103903750D01*
X165306250Y-100913750D02*
X165306250Y-103903750D01*
X163306250Y-100923750D02*
X163306250Y-103893750D01*
X164306250Y-104133750D02*
X164306250Y-102993750D01*
%TO.C,D5*%
X144726250Y-101943750D02*
X145786250Y-101943750D01*
X145256250Y-102043750D02*
X145786250Y-102993750D01*
X144256250Y-100913750D02*
X146256250Y-100913750D01*
X145256250Y-100653750D02*
X145256250Y-101943750D01*
X144726250Y-102993750D02*
X145786250Y-102993750D01*
X145256250Y-102043750D02*
X144726250Y-102993750D01*
X144256250Y-103903750D02*
X146256250Y-103903750D01*
X146256250Y-100913750D02*
X146256250Y-103903750D01*
X144256250Y-100923750D02*
X144256250Y-103893750D01*
X145256250Y-104133750D02*
X145256250Y-102993750D01*
%TO.C,D4*%
X125676250Y-101943750D02*
X126736250Y-101943750D01*
X126206250Y-102043750D02*
X126736250Y-102993750D01*
X125206250Y-100913750D02*
X127206250Y-100913750D01*
X126206250Y-100653750D02*
X126206250Y-101943750D01*
X125676250Y-102993750D02*
X126736250Y-102993750D01*
X126206250Y-102043750D02*
X125676250Y-102993750D01*
X125206250Y-103903750D02*
X127206250Y-103903750D01*
X127206250Y-100913750D02*
X127206250Y-103903750D01*
X125206250Y-100923750D02*
X125206250Y-103893750D01*
X126206250Y-104133750D02*
X126206250Y-102993750D01*
%TO.C,D3*%
X106626250Y-101943750D02*
X107686250Y-101943750D01*
X107156250Y-102043750D02*
X107686250Y-102993750D01*
X106156250Y-100913750D02*
X108156250Y-100913750D01*
X107156250Y-100653750D02*
X107156250Y-101943750D01*
X106626250Y-102993750D02*
X107686250Y-102993750D01*
X107156250Y-102043750D02*
X106626250Y-102993750D01*
X106156250Y-103903750D02*
X108156250Y-103903750D01*
X108156250Y-100913750D02*
X108156250Y-103903750D01*
X106156250Y-100923750D02*
X106156250Y-103893750D01*
X107156250Y-104133750D02*
X107156250Y-102993750D01*
%TO.C,D2*%
X87576250Y-101943750D02*
X88636250Y-101943750D01*
X88106250Y-102043750D02*
X88636250Y-102993750D01*
X87106250Y-100913750D02*
X89106250Y-100913750D01*
X88106250Y-100653750D02*
X88106250Y-101943750D01*
X87576250Y-102993750D02*
X88636250Y-102993750D01*
X88106250Y-102043750D02*
X87576250Y-102993750D01*
X87106250Y-103903750D02*
X89106250Y-103903750D01*
X89106250Y-100913750D02*
X89106250Y-103903750D01*
X87106250Y-100923750D02*
X87106250Y-103893750D01*
X88106250Y-104133750D02*
X88106250Y-102993750D01*
%TO.C,D1*%
X68526250Y-101943750D02*
X69586250Y-101943750D01*
X69056250Y-102043750D02*
X69586250Y-102993750D01*
X68056250Y-100913750D02*
X70056250Y-100913750D01*
X69056250Y-100653750D02*
X69056250Y-101943750D01*
X68526250Y-102993750D02*
X69586250Y-102993750D01*
X69056250Y-102043750D02*
X68526250Y-102993750D01*
X68056250Y-103903750D02*
X70056250Y-103903750D01*
X70056250Y-100913750D02*
X70056250Y-103903750D01*
X68056250Y-100923750D02*
X68056250Y-103893750D01*
X69056250Y-104133750D02*
X69056250Y-102993750D01*
%TO.C,U1*%
D11*
X354044345Y-110012380D02*
X354044345Y-110821904D01*
X354091964Y-110917142D01*
X354139583Y-110964761D01*
X354234821Y-111012380D01*
X354425297Y-111012380D01*
X354520535Y-110964761D01*
X354568154Y-110917142D01*
X354615773Y-110821904D01*
X354615773Y-110012380D01*
X355615773Y-111012380D02*
X355044345Y-111012380D01*
X355330059Y-111012380D02*
X355330059Y-110012380D01*
X355234821Y-110155238D01*
X355139583Y-110250476D01*
X355044345Y-110298095D01*
X352258630Y-113028571D02*
X352591964Y-113028571D01*
X352734821Y-113552380D02*
X352258630Y-113552380D01*
X352258630Y-112552380D01*
X352734821Y-112552380D01*
X353306250Y-113552380D02*
X353211011Y-113504761D01*
X353163392Y-113409523D01*
X353163392Y-112552380D01*
X353687202Y-113552380D02*
X353687202Y-112885714D01*
X353687202Y-112552380D02*
X353639583Y-112600000D01*
X353687202Y-112647619D01*
X353734821Y-112600000D01*
X353687202Y-112552380D01*
X353687202Y-112647619D01*
X354020535Y-112885714D02*
X354401488Y-112885714D01*
X354163392Y-112552380D02*
X354163392Y-113409523D01*
X354211011Y-113504761D01*
X354306250Y-113552380D01*
X354401488Y-113552380D01*
X355115773Y-113504761D02*
X355020535Y-113552380D01*
X354830059Y-113552380D01*
X354734821Y-113504761D01*
X354687202Y-113409523D01*
X354687202Y-113028571D01*
X354734821Y-112933333D01*
X354830059Y-112885714D01*
X355020535Y-112885714D01*
X355115773Y-112933333D01*
X355163392Y-113028571D01*
X355163392Y-113123809D01*
X354687202Y-113219047D01*
X355591964Y-113171428D02*
X356353869Y-113171428D01*
X357401488Y-113457142D02*
X357353869Y-113504761D01*
X357211011Y-113552380D01*
X357115773Y-113552380D01*
X356972916Y-113504761D01*
X356877678Y-113409523D01*
X356830059Y-113314285D01*
X356782440Y-113123809D01*
X356782440Y-112980952D01*
X356830059Y-112790476D01*
X356877678Y-112695238D01*
X356972916Y-112600000D01*
X357115773Y-112552380D01*
X357211011Y-112552380D01*
X357353869Y-112600000D01*
X357401488Y-112647619D01*
%TO.C,DS1*%
X353591964Y-134252380D02*
X353591964Y-133252380D01*
X353830059Y-133252380D01*
X353972916Y-133300000D01*
X354068154Y-133395238D01*
X354115773Y-133490476D01*
X354163392Y-133680952D01*
X354163392Y-133823809D01*
X354115773Y-134014285D01*
X354068154Y-134109523D01*
X353972916Y-134204761D01*
X353830059Y-134252380D01*
X353591964Y-134252380D01*
X354544345Y-134204761D02*
X354687202Y-134252380D01*
X354925297Y-134252380D01*
X355020535Y-134204761D01*
X355068154Y-134157142D01*
X355115773Y-134061904D01*
X355115773Y-133966666D01*
X355068154Y-133871428D01*
X355020535Y-133823809D01*
X354925297Y-133776190D01*
X354734821Y-133728571D01*
X354639583Y-133680952D01*
X354591964Y-133633333D01*
X354544345Y-133538095D01*
X354544345Y-133442857D01*
X354591964Y-133347619D01*
X354639583Y-133300000D01*
X354734821Y-133252380D01*
X354972916Y-133252380D01*
X355115773Y-133300000D01*
X356068154Y-134252380D02*
X355496726Y-134252380D01*
X355782440Y-134252380D02*
X355782440Y-133252380D01*
X355687202Y-133395238D01*
X355591964Y-133490476D01*
X355496726Y-133538095D01*
%TO.C,D71*%
X353591964Y-135866130D02*
X353591964Y-134866130D01*
X353830059Y-134866130D01*
X353972916Y-134913750D01*
X354068154Y-135008988D01*
X354115773Y-135104226D01*
X354163392Y-135294702D01*
X354163392Y-135437559D01*
X354115773Y-135628035D01*
X354068154Y-135723273D01*
X353972916Y-135818511D01*
X353830059Y-135866130D01*
X353591964Y-135866130D01*
X354496726Y-134866130D02*
X355163392Y-134866130D01*
X354734821Y-135866130D01*
X356068154Y-135866130D02*
X355496726Y-135866130D01*
X355782440Y-135866130D02*
X355782440Y-134866130D01*
X355687202Y-135008988D01*
X355591964Y-135104226D01*
X355496726Y-135151845D01*
%TO.C,D70*%
X353591964Y-171584880D02*
X353591964Y-170584880D01*
X353830059Y-170584880D01*
X353972916Y-170632500D01*
X354068154Y-170727738D01*
X354115773Y-170822976D01*
X354163392Y-171013452D01*
X354163392Y-171156309D01*
X354115773Y-171346785D01*
X354068154Y-171442023D01*
X353972916Y-171537261D01*
X353830059Y-171584880D01*
X353591964Y-171584880D01*
X354496726Y-170584880D02*
X355163392Y-170584880D01*
X354734821Y-171584880D01*
X355734821Y-170584880D02*
X355830059Y-170584880D01*
X355925297Y-170632500D01*
X355972916Y-170680119D01*
X356020535Y-170775357D01*
X356068154Y-170965833D01*
X356068154Y-171203928D01*
X356020535Y-171394404D01*
X355972916Y-171489642D01*
X355925297Y-171537261D01*
X355830059Y-171584880D01*
X355734821Y-171584880D01*
X355639583Y-171537261D01*
X355591964Y-171489642D01*
X355544345Y-171394404D01*
X355496726Y-171203928D01*
X355496726Y-170965833D01*
X355544345Y-170775357D01*
X355591964Y-170680119D01*
X355639583Y-170632500D01*
X355734821Y-170584880D01*
%TO.C,D69*%
X334541964Y-171584880D02*
X334541964Y-170584880D01*
X334780059Y-170584880D01*
X334922916Y-170632500D01*
X335018154Y-170727738D01*
X335065773Y-170822976D01*
X335113392Y-171013452D01*
X335113392Y-171156309D01*
X335065773Y-171346785D01*
X335018154Y-171442023D01*
X334922916Y-171537261D01*
X334780059Y-171584880D01*
X334541964Y-171584880D01*
X335970535Y-170584880D02*
X335780059Y-170584880D01*
X335684821Y-170632500D01*
X335637202Y-170680119D01*
X335541964Y-170822976D01*
X335494345Y-171013452D01*
X335494345Y-171394404D01*
X335541964Y-171489642D01*
X335589583Y-171537261D01*
X335684821Y-171584880D01*
X335875297Y-171584880D01*
X335970535Y-171537261D01*
X336018154Y-171489642D01*
X336065773Y-171394404D01*
X336065773Y-171156309D01*
X336018154Y-171061071D01*
X335970535Y-171013452D01*
X335875297Y-170965833D01*
X335684821Y-170965833D01*
X335589583Y-171013452D01*
X335541964Y-171061071D01*
X335494345Y-171156309D01*
X336541964Y-171584880D02*
X336732440Y-171584880D01*
X336827678Y-171537261D01*
X336875297Y-171489642D01*
X336970535Y-171346785D01*
X337018154Y-171156309D01*
X337018154Y-170775357D01*
X336970535Y-170680119D01*
X336922916Y-170632500D01*
X336827678Y-170584880D01*
X336637202Y-170584880D01*
X336541964Y-170632500D01*
X336494345Y-170680119D01*
X336446726Y-170775357D01*
X336446726Y-171013452D01*
X336494345Y-171108690D01*
X336541964Y-171156309D01*
X336637202Y-171203928D01*
X336827678Y-171203928D01*
X336922916Y-171156309D01*
X336970535Y-171108690D01*
X337018154Y-171013452D01*
%TO.C,D68*%
X315491964Y-171584880D02*
X315491964Y-170584880D01*
X315730059Y-170584880D01*
X315872916Y-170632500D01*
X315968154Y-170727738D01*
X316015773Y-170822976D01*
X316063392Y-171013452D01*
X316063392Y-171156309D01*
X316015773Y-171346785D01*
X315968154Y-171442023D01*
X315872916Y-171537261D01*
X315730059Y-171584880D01*
X315491964Y-171584880D01*
X316920535Y-170584880D02*
X316730059Y-170584880D01*
X316634821Y-170632500D01*
X316587202Y-170680119D01*
X316491964Y-170822976D01*
X316444345Y-171013452D01*
X316444345Y-171394404D01*
X316491964Y-171489642D01*
X316539583Y-171537261D01*
X316634821Y-171584880D01*
X316825297Y-171584880D01*
X316920535Y-171537261D01*
X316968154Y-171489642D01*
X317015773Y-171394404D01*
X317015773Y-171156309D01*
X316968154Y-171061071D01*
X316920535Y-171013452D01*
X316825297Y-170965833D01*
X316634821Y-170965833D01*
X316539583Y-171013452D01*
X316491964Y-171061071D01*
X316444345Y-171156309D01*
X317587202Y-171013452D02*
X317491964Y-170965833D01*
X317444345Y-170918214D01*
X317396726Y-170822976D01*
X317396726Y-170775357D01*
X317444345Y-170680119D01*
X317491964Y-170632500D01*
X317587202Y-170584880D01*
X317777678Y-170584880D01*
X317872916Y-170632500D01*
X317920535Y-170680119D01*
X317968154Y-170775357D01*
X317968154Y-170822976D01*
X317920535Y-170918214D01*
X317872916Y-170965833D01*
X317777678Y-171013452D01*
X317587202Y-171013452D01*
X317491964Y-171061071D01*
X317444345Y-171108690D01*
X317396726Y-171203928D01*
X317396726Y-171394404D01*
X317444345Y-171489642D01*
X317491964Y-171537261D01*
X317587202Y-171584880D01*
X317777678Y-171584880D01*
X317872916Y-171537261D01*
X317920535Y-171489642D01*
X317968154Y-171394404D01*
X317968154Y-171203928D01*
X317920535Y-171108690D01*
X317872916Y-171061071D01*
X317777678Y-171013452D01*
%TO.C,D67*%
X296441964Y-173966130D02*
X296441964Y-172966130D01*
X296680059Y-172966130D01*
X296822916Y-173013750D01*
X296918154Y-173108988D01*
X296965773Y-173204226D01*
X297013392Y-173394702D01*
X297013392Y-173537559D01*
X296965773Y-173728035D01*
X296918154Y-173823273D01*
X296822916Y-173918511D01*
X296680059Y-173966130D01*
X296441964Y-173966130D01*
X297870535Y-172966130D02*
X297680059Y-172966130D01*
X297584821Y-173013750D01*
X297537202Y-173061369D01*
X297441964Y-173204226D01*
X297394345Y-173394702D01*
X297394345Y-173775654D01*
X297441964Y-173870892D01*
X297489583Y-173918511D01*
X297584821Y-173966130D01*
X297775297Y-173966130D01*
X297870535Y-173918511D01*
X297918154Y-173870892D01*
X297965773Y-173775654D01*
X297965773Y-173537559D01*
X297918154Y-173442321D01*
X297870535Y-173394702D01*
X297775297Y-173347083D01*
X297584821Y-173347083D01*
X297489583Y-173394702D01*
X297441964Y-173442321D01*
X297394345Y-173537559D01*
X298299107Y-172966130D02*
X298965773Y-172966130D01*
X298537202Y-173966130D01*
%TO.C,D66*%
X277391964Y-171584880D02*
X277391964Y-170584880D01*
X277630059Y-170584880D01*
X277772916Y-170632500D01*
X277868154Y-170727738D01*
X277915773Y-170822976D01*
X277963392Y-171013452D01*
X277963392Y-171156309D01*
X277915773Y-171346785D01*
X277868154Y-171442023D01*
X277772916Y-171537261D01*
X277630059Y-171584880D01*
X277391964Y-171584880D01*
X278820535Y-170584880D02*
X278630059Y-170584880D01*
X278534821Y-170632500D01*
X278487202Y-170680119D01*
X278391964Y-170822976D01*
X278344345Y-171013452D01*
X278344345Y-171394404D01*
X278391964Y-171489642D01*
X278439583Y-171537261D01*
X278534821Y-171584880D01*
X278725297Y-171584880D01*
X278820535Y-171537261D01*
X278868154Y-171489642D01*
X278915773Y-171394404D01*
X278915773Y-171156309D01*
X278868154Y-171061071D01*
X278820535Y-171013452D01*
X278725297Y-170965833D01*
X278534821Y-170965833D01*
X278439583Y-171013452D01*
X278391964Y-171061071D01*
X278344345Y-171156309D01*
X279772916Y-170584880D02*
X279582440Y-170584880D01*
X279487202Y-170632500D01*
X279439583Y-170680119D01*
X279344345Y-170822976D01*
X279296726Y-171013452D01*
X279296726Y-171394404D01*
X279344345Y-171489642D01*
X279391964Y-171537261D01*
X279487202Y-171584880D01*
X279677678Y-171584880D01*
X279772916Y-171537261D01*
X279820535Y-171489642D01*
X279868154Y-171394404D01*
X279868154Y-171156309D01*
X279820535Y-171061071D01*
X279772916Y-171013452D01*
X279677678Y-170965833D01*
X279487202Y-170965833D01*
X279391964Y-171013452D01*
X279344345Y-171061071D01*
X279296726Y-171156309D01*
%TO.C,D65*%
X258341964Y-171584880D02*
X258341964Y-170584880D01*
X258580059Y-170584880D01*
X258722916Y-170632500D01*
X258818154Y-170727738D01*
X258865773Y-170822976D01*
X258913392Y-171013452D01*
X258913392Y-171156309D01*
X258865773Y-171346785D01*
X258818154Y-171442023D01*
X258722916Y-171537261D01*
X258580059Y-171584880D01*
X258341964Y-171584880D01*
X259770535Y-170584880D02*
X259580059Y-170584880D01*
X259484821Y-170632500D01*
X259437202Y-170680119D01*
X259341964Y-170822976D01*
X259294345Y-171013452D01*
X259294345Y-171394404D01*
X259341964Y-171489642D01*
X259389583Y-171537261D01*
X259484821Y-171584880D01*
X259675297Y-171584880D01*
X259770535Y-171537261D01*
X259818154Y-171489642D01*
X259865773Y-171394404D01*
X259865773Y-171156309D01*
X259818154Y-171061071D01*
X259770535Y-171013452D01*
X259675297Y-170965833D01*
X259484821Y-170965833D01*
X259389583Y-171013452D01*
X259341964Y-171061071D01*
X259294345Y-171156309D01*
X260770535Y-170584880D02*
X260294345Y-170584880D01*
X260246726Y-171061071D01*
X260294345Y-171013452D01*
X260389583Y-170965833D01*
X260627678Y-170965833D01*
X260722916Y-171013452D01*
X260770535Y-171061071D01*
X260818154Y-171156309D01*
X260818154Y-171394404D01*
X260770535Y-171489642D01*
X260722916Y-171537261D01*
X260627678Y-171584880D01*
X260389583Y-171584880D01*
X260294345Y-171537261D01*
X260246726Y-171489642D01*
%TO.C,D64*%
X239291964Y-171584880D02*
X239291964Y-170584880D01*
X239530059Y-170584880D01*
X239672916Y-170632500D01*
X239768154Y-170727738D01*
X239815773Y-170822976D01*
X239863392Y-171013452D01*
X239863392Y-171156309D01*
X239815773Y-171346785D01*
X239768154Y-171442023D01*
X239672916Y-171537261D01*
X239530059Y-171584880D01*
X239291964Y-171584880D01*
X240720535Y-170584880D02*
X240530059Y-170584880D01*
X240434821Y-170632500D01*
X240387202Y-170680119D01*
X240291964Y-170822976D01*
X240244345Y-171013452D01*
X240244345Y-171394404D01*
X240291964Y-171489642D01*
X240339583Y-171537261D01*
X240434821Y-171584880D01*
X240625297Y-171584880D01*
X240720535Y-171537261D01*
X240768154Y-171489642D01*
X240815773Y-171394404D01*
X240815773Y-171156309D01*
X240768154Y-171061071D01*
X240720535Y-171013452D01*
X240625297Y-170965833D01*
X240434821Y-170965833D01*
X240339583Y-171013452D01*
X240291964Y-171061071D01*
X240244345Y-171156309D01*
X241672916Y-170918214D02*
X241672916Y-171584880D01*
X241434821Y-170537261D02*
X241196726Y-171251547D01*
X241815773Y-171251547D01*
%TO.C,D63*%
X165473214Y-171584880D02*
X165473214Y-170584880D01*
X165711309Y-170584880D01*
X165854166Y-170632500D01*
X165949404Y-170727738D01*
X165997023Y-170822976D01*
X166044642Y-171013452D01*
X166044642Y-171156309D01*
X165997023Y-171346785D01*
X165949404Y-171442023D01*
X165854166Y-171537261D01*
X165711309Y-171584880D01*
X165473214Y-171584880D01*
X166901785Y-170584880D02*
X166711309Y-170584880D01*
X166616071Y-170632500D01*
X166568452Y-170680119D01*
X166473214Y-170822976D01*
X166425595Y-171013452D01*
X166425595Y-171394404D01*
X166473214Y-171489642D01*
X166520833Y-171537261D01*
X166616071Y-171584880D01*
X166806547Y-171584880D01*
X166901785Y-171537261D01*
X166949404Y-171489642D01*
X166997023Y-171394404D01*
X166997023Y-171156309D01*
X166949404Y-171061071D01*
X166901785Y-171013452D01*
X166806547Y-170965833D01*
X166616071Y-170965833D01*
X166520833Y-171013452D01*
X166473214Y-171061071D01*
X166425595Y-171156309D01*
X167330357Y-170584880D02*
X167949404Y-170584880D01*
X167616071Y-170965833D01*
X167758928Y-170965833D01*
X167854166Y-171013452D01*
X167901785Y-171061071D01*
X167949404Y-171156309D01*
X167949404Y-171394404D01*
X167901785Y-171489642D01*
X167854166Y-171537261D01*
X167758928Y-171584880D01*
X167473214Y-171584880D01*
X167377976Y-171537261D01*
X167330357Y-171489642D01*
%TO.C,D62*%
X96416964Y-171584880D02*
X96416964Y-170584880D01*
X96655059Y-170584880D01*
X96797916Y-170632500D01*
X96893154Y-170727738D01*
X96940773Y-170822976D01*
X96988392Y-171013452D01*
X96988392Y-171156309D01*
X96940773Y-171346785D01*
X96893154Y-171442023D01*
X96797916Y-171537261D01*
X96655059Y-171584880D01*
X96416964Y-171584880D01*
X97845535Y-170584880D02*
X97655059Y-170584880D01*
X97559821Y-170632500D01*
X97512202Y-170680119D01*
X97416964Y-170822976D01*
X97369345Y-171013452D01*
X97369345Y-171394404D01*
X97416964Y-171489642D01*
X97464583Y-171537261D01*
X97559821Y-171584880D01*
X97750297Y-171584880D01*
X97845535Y-171537261D01*
X97893154Y-171489642D01*
X97940773Y-171394404D01*
X97940773Y-171156309D01*
X97893154Y-171061071D01*
X97845535Y-171013452D01*
X97750297Y-170965833D01*
X97559821Y-170965833D01*
X97464583Y-171013452D01*
X97416964Y-171061071D01*
X97369345Y-171156309D01*
X98321726Y-170680119D02*
X98369345Y-170632500D01*
X98464583Y-170584880D01*
X98702678Y-170584880D01*
X98797916Y-170632500D01*
X98845535Y-170680119D01*
X98893154Y-170775357D01*
X98893154Y-170870595D01*
X98845535Y-171013452D01*
X98274107Y-171584880D01*
X98893154Y-171584880D01*
%TO.C,D61*%
X74985714Y-171584880D02*
X74985714Y-170584880D01*
X75223809Y-170584880D01*
X75366666Y-170632500D01*
X75461904Y-170727738D01*
X75509523Y-170822976D01*
X75557142Y-171013452D01*
X75557142Y-171156309D01*
X75509523Y-171346785D01*
X75461904Y-171442023D01*
X75366666Y-171537261D01*
X75223809Y-171584880D01*
X74985714Y-171584880D01*
X76414285Y-170584880D02*
X76223809Y-170584880D01*
X76128571Y-170632500D01*
X76080952Y-170680119D01*
X75985714Y-170822976D01*
X75938095Y-171013452D01*
X75938095Y-171394404D01*
X75985714Y-171489642D01*
X76033333Y-171537261D01*
X76128571Y-171584880D01*
X76319047Y-171584880D01*
X76414285Y-171537261D01*
X76461904Y-171489642D01*
X76509523Y-171394404D01*
X76509523Y-171156309D01*
X76461904Y-171061071D01*
X76414285Y-171013452D01*
X76319047Y-170965833D01*
X76128571Y-170965833D01*
X76033333Y-171013452D01*
X75985714Y-171061071D01*
X75938095Y-171156309D01*
X77461904Y-171584880D02*
X76890476Y-171584880D01*
X77176190Y-171584880D02*
X77176190Y-170584880D01*
X77080952Y-170727738D01*
X76985714Y-170822976D01*
X76890476Y-170870595D01*
%TO.C,D60*%
X51173214Y-171584880D02*
X51173214Y-170584880D01*
X51411309Y-170584880D01*
X51554166Y-170632500D01*
X51649404Y-170727738D01*
X51697023Y-170822976D01*
X51744642Y-171013452D01*
X51744642Y-171156309D01*
X51697023Y-171346785D01*
X51649404Y-171442023D01*
X51554166Y-171537261D01*
X51411309Y-171584880D01*
X51173214Y-171584880D01*
X52601785Y-170584880D02*
X52411309Y-170584880D01*
X52316071Y-170632500D01*
X52268452Y-170680119D01*
X52173214Y-170822976D01*
X52125595Y-171013452D01*
X52125595Y-171394404D01*
X52173214Y-171489642D01*
X52220833Y-171537261D01*
X52316071Y-171584880D01*
X52506547Y-171584880D01*
X52601785Y-171537261D01*
X52649404Y-171489642D01*
X52697023Y-171394404D01*
X52697023Y-171156309D01*
X52649404Y-171061071D01*
X52601785Y-171013452D01*
X52506547Y-170965833D01*
X52316071Y-170965833D01*
X52220833Y-171013452D01*
X52173214Y-171061071D01*
X52125595Y-171156309D01*
X53316071Y-170584880D02*
X53411309Y-170584880D01*
X53506547Y-170632500D01*
X53554166Y-170680119D01*
X53601785Y-170775357D01*
X53649404Y-170965833D01*
X53649404Y-171203928D01*
X53601785Y-171394404D01*
X53554166Y-171489642D01*
X53506547Y-171537261D01*
X53411309Y-171584880D01*
X53316071Y-171584880D01*
X53220833Y-171537261D01*
X53173214Y-171489642D01*
X53125595Y-171394404D01*
X53077976Y-171203928D01*
X53077976Y-170965833D01*
X53125595Y-170775357D01*
X53173214Y-170680119D01*
X53220833Y-170632500D01*
X53316071Y-170584880D01*
%TO.C,D59*%
X353591964Y-154916130D02*
X353591964Y-153916130D01*
X353830059Y-153916130D01*
X353972916Y-153963750D01*
X354068154Y-154058988D01*
X354115773Y-154154226D01*
X354163392Y-154344702D01*
X354163392Y-154487559D01*
X354115773Y-154678035D01*
X354068154Y-154773273D01*
X353972916Y-154868511D01*
X353830059Y-154916130D01*
X353591964Y-154916130D01*
X355068154Y-153916130D02*
X354591964Y-153916130D01*
X354544345Y-154392321D01*
X354591964Y-154344702D01*
X354687202Y-154297083D01*
X354925297Y-154297083D01*
X355020535Y-154344702D01*
X355068154Y-154392321D01*
X355115773Y-154487559D01*
X355115773Y-154725654D01*
X355068154Y-154820892D01*
X355020535Y-154868511D01*
X354925297Y-154916130D01*
X354687202Y-154916130D01*
X354591964Y-154868511D01*
X354544345Y-154820892D01*
X355591964Y-154916130D02*
X355782440Y-154916130D01*
X355877678Y-154868511D01*
X355925297Y-154820892D01*
X356020535Y-154678035D01*
X356068154Y-154487559D01*
X356068154Y-154106607D01*
X356020535Y-154011369D01*
X355972916Y-153963750D01*
X355877678Y-153916130D01*
X355687202Y-153916130D01*
X355591964Y-153963750D01*
X355544345Y-154011369D01*
X355496726Y-154106607D01*
X355496726Y-154344702D01*
X355544345Y-154439940D01*
X355591964Y-154487559D01*
X355687202Y-154535178D01*
X355877678Y-154535178D01*
X355972916Y-154487559D01*
X356020535Y-154439940D01*
X356068154Y-154344702D01*
%TO.C,D58*%
X308348214Y-126341130D02*
X308348214Y-125341130D01*
X308586309Y-125341130D01*
X308729166Y-125388750D01*
X308824404Y-125483988D01*
X308872023Y-125579226D01*
X308919642Y-125769702D01*
X308919642Y-125912559D01*
X308872023Y-126103035D01*
X308824404Y-126198273D01*
X308729166Y-126293511D01*
X308586309Y-126341130D01*
X308348214Y-126341130D01*
X309824404Y-125341130D02*
X309348214Y-125341130D01*
X309300595Y-125817321D01*
X309348214Y-125769702D01*
X309443452Y-125722083D01*
X309681547Y-125722083D01*
X309776785Y-125769702D01*
X309824404Y-125817321D01*
X309872023Y-125912559D01*
X309872023Y-126150654D01*
X309824404Y-126245892D01*
X309776785Y-126293511D01*
X309681547Y-126341130D01*
X309443452Y-126341130D01*
X309348214Y-126293511D01*
X309300595Y-126245892D01*
X310443452Y-125769702D02*
X310348214Y-125722083D01*
X310300595Y-125674464D01*
X310252976Y-125579226D01*
X310252976Y-125531607D01*
X310300595Y-125436369D01*
X310348214Y-125388750D01*
X310443452Y-125341130D01*
X310633928Y-125341130D01*
X310729166Y-125388750D01*
X310776785Y-125436369D01*
X310824404Y-125531607D01*
X310824404Y-125579226D01*
X310776785Y-125674464D01*
X310729166Y-125722083D01*
X310633928Y-125769702D01*
X310443452Y-125769702D01*
X310348214Y-125817321D01*
X310300595Y-125864940D01*
X310252976Y-125960178D01*
X310252976Y-126150654D01*
X310300595Y-126245892D01*
X310348214Y-126293511D01*
X310443452Y-126341130D01*
X310633928Y-126341130D01*
X310729166Y-126293511D01*
X310776785Y-126245892D01*
X310824404Y-126150654D01*
X310824404Y-125960178D01*
X310776785Y-125864940D01*
X310729166Y-125817321D01*
X310633928Y-125769702D01*
%TO.C,D57*%
X291679464Y-152534880D02*
X291679464Y-151534880D01*
X291917559Y-151534880D01*
X292060416Y-151582500D01*
X292155654Y-151677738D01*
X292203273Y-151772976D01*
X292250892Y-151963452D01*
X292250892Y-152106309D01*
X292203273Y-152296785D01*
X292155654Y-152392023D01*
X292060416Y-152487261D01*
X291917559Y-152534880D01*
X291679464Y-152534880D01*
X293155654Y-151534880D02*
X292679464Y-151534880D01*
X292631845Y-152011071D01*
X292679464Y-151963452D01*
X292774702Y-151915833D01*
X293012797Y-151915833D01*
X293108035Y-151963452D01*
X293155654Y-152011071D01*
X293203273Y-152106309D01*
X293203273Y-152344404D01*
X293155654Y-152439642D01*
X293108035Y-152487261D01*
X293012797Y-152534880D01*
X292774702Y-152534880D01*
X292679464Y-152487261D01*
X292631845Y-152439642D01*
X293536607Y-151534880D02*
X294203273Y-151534880D01*
X293774702Y-152534880D01*
%TO.C,D56*%
X263104464Y-152534880D02*
X263104464Y-151534880D01*
X263342559Y-151534880D01*
X263485416Y-151582500D01*
X263580654Y-151677738D01*
X263628273Y-151772976D01*
X263675892Y-151963452D01*
X263675892Y-152106309D01*
X263628273Y-152296785D01*
X263580654Y-152392023D01*
X263485416Y-152487261D01*
X263342559Y-152534880D01*
X263104464Y-152534880D01*
X264580654Y-151534880D02*
X264104464Y-151534880D01*
X264056845Y-152011071D01*
X264104464Y-151963452D01*
X264199702Y-151915833D01*
X264437797Y-151915833D01*
X264533035Y-151963452D01*
X264580654Y-152011071D01*
X264628273Y-152106309D01*
X264628273Y-152344404D01*
X264580654Y-152439642D01*
X264533035Y-152487261D01*
X264437797Y-152534880D01*
X264199702Y-152534880D01*
X264104464Y-152487261D01*
X264056845Y-152439642D01*
X265485416Y-151534880D02*
X265294940Y-151534880D01*
X265199702Y-151582500D01*
X265152083Y-151630119D01*
X265056845Y-151772976D01*
X265009226Y-151963452D01*
X265009226Y-152344404D01*
X265056845Y-152439642D01*
X265104464Y-152487261D01*
X265199702Y-152534880D01*
X265390178Y-152534880D01*
X265485416Y-152487261D01*
X265533035Y-152439642D01*
X265580654Y-152344404D01*
X265580654Y-152106309D01*
X265533035Y-152011071D01*
X265485416Y-151963452D01*
X265390178Y-151915833D01*
X265199702Y-151915833D01*
X265104464Y-151963452D01*
X265056845Y-152011071D01*
X265009226Y-152106309D01*
%TO.C,D55*%
X244054464Y-152534880D02*
X244054464Y-151534880D01*
X244292559Y-151534880D01*
X244435416Y-151582500D01*
X244530654Y-151677738D01*
X244578273Y-151772976D01*
X244625892Y-151963452D01*
X244625892Y-152106309D01*
X244578273Y-152296785D01*
X244530654Y-152392023D01*
X244435416Y-152487261D01*
X244292559Y-152534880D01*
X244054464Y-152534880D01*
X245530654Y-151534880D02*
X245054464Y-151534880D01*
X245006845Y-152011071D01*
X245054464Y-151963452D01*
X245149702Y-151915833D01*
X245387797Y-151915833D01*
X245483035Y-151963452D01*
X245530654Y-152011071D01*
X245578273Y-152106309D01*
X245578273Y-152344404D01*
X245530654Y-152439642D01*
X245483035Y-152487261D01*
X245387797Y-152534880D01*
X245149702Y-152534880D01*
X245054464Y-152487261D01*
X245006845Y-152439642D01*
X246483035Y-151534880D02*
X246006845Y-151534880D01*
X245959226Y-152011071D01*
X246006845Y-151963452D01*
X246102083Y-151915833D01*
X246340178Y-151915833D01*
X246435416Y-151963452D01*
X246483035Y-152011071D01*
X246530654Y-152106309D01*
X246530654Y-152344404D01*
X246483035Y-152439642D01*
X246435416Y-152487261D01*
X246340178Y-152534880D01*
X246102083Y-152534880D01*
X246006845Y-152487261D01*
X245959226Y-152439642D01*
%TO.C,D54*%
X225004464Y-152534880D02*
X225004464Y-151534880D01*
X225242559Y-151534880D01*
X225385416Y-151582500D01*
X225480654Y-151677738D01*
X225528273Y-151772976D01*
X225575892Y-151963452D01*
X225575892Y-152106309D01*
X225528273Y-152296785D01*
X225480654Y-152392023D01*
X225385416Y-152487261D01*
X225242559Y-152534880D01*
X225004464Y-152534880D01*
X226480654Y-151534880D02*
X226004464Y-151534880D01*
X225956845Y-152011071D01*
X226004464Y-151963452D01*
X226099702Y-151915833D01*
X226337797Y-151915833D01*
X226433035Y-151963452D01*
X226480654Y-152011071D01*
X226528273Y-152106309D01*
X226528273Y-152344404D01*
X226480654Y-152439642D01*
X226433035Y-152487261D01*
X226337797Y-152534880D01*
X226099702Y-152534880D01*
X226004464Y-152487261D01*
X225956845Y-152439642D01*
X227385416Y-151868214D02*
X227385416Y-152534880D01*
X227147321Y-151487261D02*
X226909226Y-152201547D01*
X227528273Y-152201547D01*
%TO.C,D53*%
X205954464Y-152534880D02*
X205954464Y-151534880D01*
X206192559Y-151534880D01*
X206335416Y-151582500D01*
X206430654Y-151677738D01*
X206478273Y-151772976D01*
X206525892Y-151963452D01*
X206525892Y-152106309D01*
X206478273Y-152296785D01*
X206430654Y-152392023D01*
X206335416Y-152487261D01*
X206192559Y-152534880D01*
X205954464Y-152534880D01*
X207430654Y-151534880D02*
X206954464Y-151534880D01*
X206906845Y-152011071D01*
X206954464Y-151963452D01*
X207049702Y-151915833D01*
X207287797Y-151915833D01*
X207383035Y-151963452D01*
X207430654Y-152011071D01*
X207478273Y-152106309D01*
X207478273Y-152344404D01*
X207430654Y-152439642D01*
X207383035Y-152487261D01*
X207287797Y-152534880D01*
X207049702Y-152534880D01*
X206954464Y-152487261D01*
X206906845Y-152439642D01*
X207811607Y-151534880D02*
X208430654Y-151534880D01*
X208097321Y-151915833D01*
X208240178Y-151915833D01*
X208335416Y-151963452D01*
X208383035Y-152011071D01*
X208430654Y-152106309D01*
X208430654Y-152344404D01*
X208383035Y-152439642D01*
X208335416Y-152487261D01*
X208240178Y-152534880D01*
X207954464Y-152534880D01*
X207859226Y-152487261D01*
X207811607Y-152439642D01*
%TO.C,D52*%
X186904464Y-152534880D02*
X186904464Y-151534880D01*
X187142559Y-151534880D01*
X187285416Y-151582500D01*
X187380654Y-151677738D01*
X187428273Y-151772976D01*
X187475892Y-151963452D01*
X187475892Y-152106309D01*
X187428273Y-152296785D01*
X187380654Y-152392023D01*
X187285416Y-152487261D01*
X187142559Y-152534880D01*
X186904464Y-152534880D01*
X188380654Y-151534880D02*
X187904464Y-151534880D01*
X187856845Y-152011071D01*
X187904464Y-151963452D01*
X187999702Y-151915833D01*
X188237797Y-151915833D01*
X188333035Y-151963452D01*
X188380654Y-152011071D01*
X188428273Y-152106309D01*
X188428273Y-152344404D01*
X188380654Y-152439642D01*
X188333035Y-152487261D01*
X188237797Y-152534880D01*
X187999702Y-152534880D01*
X187904464Y-152487261D01*
X187856845Y-152439642D01*
X188809226Y-151630119D02*
X188856845Y-151582500D01*
X188952083Y-151534880D01*
X189190178Y-151534880D01*
X189285416Y-151582500D01*
X189333035Y-151630119D01*
X189380654Y-151725357D01*
X189380654Y-151820595D01*
X189333035Y-151963452D01*
X188761607Y-152534880D01*
X189380654Y-152534880D01*
%TO.C,D51*%
X167854464Y-152534880D02*
X167854464Y-151534880D01*
X168092559Y-151534880D01*
X168235416Y-151582500D01*
X168330654Y-151677738D01*
X168378273Y-151772976D01*
X168425892Y-151963452D01*
X168425892Y-152106309D01*
X168378273Y-152296785D01*
X168330654Y-152392023D01*
X168235416Y-152487261D01*
X168092559Y-152534880D01*
X167854464Y-152534880D01*
X169330654Y-151534880D02*
X168854464Y-151534880D01*
X168806845Y-152011071D01*
X168854464Y-151963452D01*
X168949702Y-151915833D01*
X169187797Y-151915833D01*
X169283035Y-151963452D01*
X169330654Y-152011071D01*
X169378273Y-152106309D01*
X169378273Y-152344404D01*
X169330654Y-152439642D01*
X169283035Y-152487261D01*
X169187797Y-152534880D01*
X168949702Y-152534880D01*
X168854464Y-152487261D01*
X168806845Y-152439642D01*
X170330654Y-152534880D02*
X169759226Y-152534880D01*
X170044940Y-152534880D02*
X170044940Y-151534880D01*
X169949702Y-151677738D01*
X169854464Y-151772976D01*
X169759226Y-151820595D01*
%TO.C,D50*%
X148804464Y-152534880D02*
X148804464Y-151534880D01*
X149042559Y-151534880D01*
X149185416Y-151582500D01*
X149280654Y-151677738D01*
X149328273Y-151772976D01*
X149375892Y-151963452D01*
X149375892Y-152106309D01*
X149328273Y-152296785D01*
X149280654Y-152392023D01*
X149185416Y-152487261D01*
X149042559Y-152534880D01*
X148804464Y-152534880D01*
X150280654Y-151534880D02*
X149804464Y-151534880D01*
X149756845Y-152011071D01*
X149804464Y-151963452D01*
X149899702Y-151915833D01*
X150137797Y-151915833D01*
X150233035Y-151963452D01*
X150280654Y-152011071D01*
X150328273Y-152106309D01*
X150328273Y-152344404D01*
X150280654Y-152439642D01*
X150233035Y-152487261D01*
X150137797Y-152534880D01*
X149899702Y-152534880D01*
X149804464Y-152487261D01*
X149756845Y-152439642D01*
X150947321Y-151534880D02*
X151042559Y-151534880D01*
X151137797Y-151582500D01*
X151185416Y-151630119D01*
X151233035Y-151725357D01*
X151280654Y-151915833D01*
X151280654Y-152153928D01*
X151233035Y-152344404D01*
X151185416Y-152439642D01*
X151137797Y-152487261D01*
X151042559Y-152534880D01*
X150947321Y-152534880D01*
X150852083Y-152487261D01*
X150804464Y-152439642D01*
X150756845Y-152344404D01*
X150709226Y-152153928D01*
X150709226Y-151915833D01*
X150756845Y-151725357D01*
X150804464Y-151630119D01*
X150852083Y-151582500D01*
X150947321Y-151534880D01*
%TO.C,D49*%
X129754464Y-152534880D02*
X129754464Y-151534880D01*
X129992559Y-151534880D01*
X130135416Y-151582500D01*
X130230654Y-151677738D01*
X130278273Y-151772976D01*
X130325892Y-151963452D01*
X130325892Y-152106309D01*
X130278273Y-152296785D01*
X130230654Y-152392023D01*
X130135416Y-152487261D01*
X129992559Y-152534880D01*
X129754464Y-152534880D01*
X131183035Y-151868214D02*
X131183035Y-152534880D01*
X130944940Y-151487261D02*
X130706845Y-152201547D01*
X131325892Y-152201547D01*
X131754464Y-152534880D02*
X131944940Y-152534880D01*
X132040178Y-152487261D01*
X132087797Y-152439642D01*
X132183035Y-152296785D01*
X132230654Y-152106309D01*
X132230654Y-151725357D01*
X132183035Y-151630119D01*
X132135416Y-151582500D01*
X132040178Y-151534880D01*
X131849702Y-151534880D01*
X131754464Y-151582500D01*
X131706845Y-151630119D01*
X131659226Y-151725357D01*
X131659226Y-151963452D01*
X131706845Y-152058690D01*
X131754464Y-152106309D01*
X131849702Y-152153928D01*
X132040178Y-152153928D01*
X132135416Y-152106309D01*
X132183035Y-152058690D01*
X132230654Y-151963452D01*
%TO.C,D48*%
X110704464Y-152534880D02*
X110704464Y-151534880D01*
X110942559Y-151534880D01*
X111085416Y-151582500D01*
X111180654Y-151677738D01*
X111228273Y-151772976D01*
X111275892Y-151963452D01*
X111275892Y-152106309D01*
X111228273Y-152296785D01*
X111180654Y-152392023D01*
X111085416Y-152487261D01*
X110942559Y-152534880D01*
X110704464Y-152534880D01*
X112133035Y-151868214D02*
X112133035Y-152534880D01*
X111894940Y-151487261D02*
X111656845Y-152201547D01*
X112275892Y-152201547D01*
X112799702Y-151963452D02*
X112704464Y-151915833D01*
X112656845Y-151868214D01*
X112609226Y-151772976D01*
X112609226Y-151725357D01*
X112656845Y-151630119D01*
X112704464Y-151582500D01*
X112799702Y-151534880D01*
X112990178Y-151534880D01*
X113085416Y-151582500D01*
X113133035Y-151630119D01*
X113180654Y-151725357D01*
X113180654Y-151772976D01*
X113133035Y-151868214D01*
X113085416Y-151915833D01*
X112990178Y-151963452D01*
X112799702Y-151963452D01*
X112704464Y-152011071D01*
X112656845Y-152058690D01*
X112609226Y-152153928D01*
X112609226Y-152344404D01*
X112656845Y-152439642D01*
X112704464Y-152487261D01*
X112799702Y-152534880D01*
X112990178Y-152534880D01*
X113085416Y-152487261D01*
X113133035Y-152439642D01*
X113180654Y-152344404D01*
X113180654Y-152153928D01*
X113133035Y-152058690D01*
X113085416Y-152011071D01*
X112990178Y-151963452D01*
%TO.C,D47*%
X91654464Y-152534880D02*
X91654464Y-151534880D01*
X91892559Y-151534880D01*
X92035416Y-151582500D01*
X92130654Y-151677738D01*
X92178273Y-151772976D01*
X92225892Y-151963452D01*
X92225892Y-152106309D01*
X92178273Y-152296785D01*
X92130654Y-152392023D01*
X92035416Y-152487261D01*
X91892559Y-152534880D01*
X91654464Y-152534880D01*
X93083035Y-151868214D02*
X93083035Y-152534880D01*
X92844940Y-151487261D02*
X92606845Y-152201547D01*
X93225892Y-152201547D01*
X93511607Y-151534880D02*
X94178273Y-151534880D01*
X93749702Y-152534880D01*
%TO.C,D46*%
X77366964Y-145391130D02*
X77366964Y-144391130D01*
X77605059Y-144391130D01*
X77747916Y-144438750D01*
X77843154Y-144533988D01*
X77890773Y-144629226D01*
X77938392Y-144819702D01*
X77938392Y-144962559D01*
X77890773Y-145153035D01*
X77843154Y-145248273D01*
X77747916Y-145343511D01*
X77605059Y-145391130D01*
X77366964Y-145391130D01*
X78795535Y-144724464D02*
X78795535Y-145391130D01*
X78557440Y-144343511D02*
X78319345Y-145057797D01*
X78938392Y-145057797D01*
X79747916Y-144391130D02*
X79557440Y-144391130D01*
X79462202Y-144438750D01*
X79414583Y-144486369D01*
X79319345Y-144629226D01*
X79271726Y-144819702D01*
X79271726Y-145200654D01*
X79319345Y-145295892D01*
X79366964Y-145343511D01*
X79462202Y-145391130D01*
X79652678Y-145391130D01*
X79747916Y-145343511D01*
X79795535Y-145295892D01*
X79843154Y-145200654D01*
X79843154Y-144962559D01*
X79795535Y-144867321D01*
X79747916Y-144819702D01*
X79652678Y-144772083D01*
X79462202Y-144772083D01*
X79366964Y-144819702D01*
X79319345Y-144867321D01*
X79271726Y-144962559D01*
%TO.C,D45*%
X51173214Y-152534880D02*
X51173214Y-151534880D01*
X51411309Y-151534880D01*
X51554166Y-151582500D01*
X51649404Y-151677738D01*
X51697023Y-151772976D01*
X51744642Y-151963452D01*
X51744642Y-152106309D01*
X51697023Y-152296785D01*
X51649404Y-152392023D01*
X51554166Y-152487261D01*
X51411309Y-152534880D01*
X51173214Y-152534880D01*
X52601785Y-151868214D02*
X52601785Y-152534880D01*
X52363690Y-151487261D02*
X52125595Y-152201547D01*
X52744642Y-152201547D01*
X53601785Y-151534880D02*
X53125595Y-151534880D01*
X53077976Y-152011071D01*
X53125595Y-151963452D01*
X53220833Y-151915833D01*
X53458928Y-151915833D01*
X53554166Y-151963452D01*
X53601785Y-152011071D01*
X53649404Y-152106309D01*
X53649404Y-152344404D01*
X53601785Y-152439642D01*
X53554166Y-152487261D01*
X53458928Y-152534880D01*
X53220833Y-152534880D01*
X53125595Y-152487261D01*
X53077976Y-152439642D01*
%TO.C,D44*%
X334541964Y-154916130D02*
X334541964Y-153916130D01*
X334780059Y-153916130D01*
X334922916Y-153963750D01*
X335018154Y-154058988D01*
X335065773Y-154154226D01*
X335113392Y-154344702D01*
X335113392Y-154487559D01*
X335065773Y-154678035D01*
X335018154Y-154773273D01*
X334922916Y-154868511D01*
X334780059Y-154916130D01*
X334541964Y-154916130D01*
X335970535Y-154249464D02*
X335970535Y-154916130D01*
X335732440Y-153868511D02*
X335494345Y-154582797D01*
X336113392Y-154582797D01*
X336922916Y-154249464D02*
X336922916Y-154916130D01*
X336684821Y-153868511D02*
X336446726Y-154582797D01*
X337065773Y-154582797D01*
%TO.C,D43*%
X334541964Y-145391130D02*
X334541964Y-144391130D01*
X334780059Y-144391130D01*
X334922916Y-144438750D01*
X335018154Y-144533988D01*
X335065773Y-144629226D01*
X335113392Y-144819702D01*
X335113392Y-144962559D01*
X335065773Y-145153035D01*
X335018154Y-145248273D01*
X334922916Y-145343511D01*
X334780059Y-145391130D01*
X334541964Y-145391130D01*
X335970535Y-144724464D02*
X335970535Y-145391130D01*
X335732440Y-144343511D02*
X335494345Y-145057797D01*
X336113392Y-145057797D01*
X336399107Y-144391130D02*
X337018154Y-144391130D01*
X336684821Y-144772083D01*
X336827678Y-144772083D01*
X336922916Y-144819702D01*
X336970535Y-144867321D01*
X337018154Y-144962559D01*
X337018154Y-145200654D01*
X336970535Y-145295892D01*
X336922916Y-145343511D01*
X336827678Y-145391130D01*
X336541964Y-145391130D01*
X336446726Y-145343511D01*
X336399107Y-145295892D01*
%TO.C,D42*%
X291679464Y-133484880D02*
X291679464Y-132484880D01*
X291917559Y-132484880D01*
X292060416Y-132532500D01*
X292155654Y-132627738D01*
X292203273Y-132722976D01*
X292250892Y-132913452D01*
X292250892Y-133056309D01*
X292203273Y-133246785D01*
X292155654Y-133342023D01*
X292060416Y-133437261D01*
X291917559Y-133484880D01*
X291679464Y-133484880D01*
X293108035Y-132818214D02*
X293108035Y-133484880D01*
X292869940Y-132437261D02*
X292631845Y-133151547D01*
X293250892Y-133151547D01*
X293584226Y-132580119D02*
X293631845Y-132532500D01*
X293727083Y-132484880D01*
X293965178Y-132484880D01*
X294060416Y-132532500D01*
X294108035Y-132580119D01*
X294155654Y-132675357D01*
X294155654Y-132770595D01*
X294108035Y-132913452D01*
X293536607Y-133484880D01*
X294155654Y-133484880D01*
%TO.C,D41*%
X272629464Y-133484880D02*
X272629464Y-132484880D01*
X272867559Y-132484880D01*
X273010416Y-132532500D01*
X273105654Y-132627738D01*
X273153273Y-132722976D01*
X273200892Y-132913452D01*
X273200892Y-133056309D01*
X273153273Y-133246785D01*
X273105654Y-133342023D01*
X273010416Y-133437261D01*
X272867559Y-133484880D01*
X272629464Y-133484880D01*
X274058035Y-132818214D02*
X274058035Y-133484880D01*
X273819940Y-132437261D02*
X273581845Y-133151547D01*
X274200892Y-133151547D01*
X275105654Y-133484880D02*
X274534226Y-133484880D01*
X274819940Y-133484880D02*
X274819940Y-132484880D01*
X274724702Y-132627738D01*
X274629464Y-132722976D01*
X274534226Y-132770595D01*
%TO.C,D40*%
X253579464Y-133484880D02*
X253579464Y-132484880D01*
X253817559Y-132484880D01*
X253960416Y-132532500D01*
X254055654Y-132627738D01*
X254103273Y-132722976D01*
X254150892Y-132913452D01*
X254150892Y-133056309D01*
X254103273Y-133246785D01*
X254055654Y-133342023D01*
X253960416Y-133437261D01*
X253817559Y-133484880D01*
X253579464Y-133484880D01*
X255008035Y-132818214D02*
X255008035Y-133484880D01*
X254769940Y-132437261D02*
X254531845Y-133151547D01*
X255150892Y-133151547D01*
X255722321Y-132484880D02*
X255817559Y-132484880D01*
X255912797Y-132532500D01*
X255960416Y-132580119D01*
X256008035Y-132675357D01*
X256055654Y-132865833D01*
X256055654Y-133103928D01*
X256008035Y-133294404D01*
X255960416Y-133389642D01*
X255912797Y-133437261D01*
X255817559Y-133484880D01*
X255722321Y-133484880D01*
X255627083Y-133437261D01*
X255579464Y-133389642D01*
X255531845Y-133294404D01*
X255484226Y-133103928D01*
X255484226Y-132865833D01*
X255531845Y-132675357D01*
X255579464Y-132580119D01*
X255627083Y-132532500D01*
X255722321Y-132484880D01*
%TO.C,D39*%
X234529464Y-133484880D02*
X234529464Y-132484880D01*
X234767559Y-132484880D01*
X234910416Y-132532500D01*
X235005654Y-132627738D01*
X235053273Y-132722976D01*
X235100892Y-132913452D01*
X235100892Y-133056309D01*
X235053273Y-133246785D01*
X235005654Y-133342023D01*
X234910416Y-133437261D01*
X234767559Y-133484880D01*
X234529464Y-133484880D01*
X235434226Y-132484880D02*
X236053273Y-132484880D01*
X235719940Y-132865833D01*
X235862797Y-132865833D01*
X235958035Y-132913452D01*
X236005654Y-132961071D01*
X236053273Y-133056309D01*
X236053273Y-133294404D01*
X236005654Y-133389642D01*
X235958035Y-133437261D01*
X235862797Y-133484880D01*
X235577083Y-133484880D01*
X235481845Y-133437261D01*
X235434226Y-133389642D01*
X236529464Y-133484880D02*
X236719940Y-133484880D01*
X236815178Y-133437261D01*
X236862797Y-133389642D01*
X236958035Y-133246785D01*
X237005654Y-133056309D01*
X237005654Y-132675357D01*
X236958035Y-132580119D01*
X236910416Y-132532500D01*
X236815178Y-132484880D01*
X236624702Y-132484880D01*
X236529464Y-132532500D01*
X236481845Y-132580119D01*
X236434226Y-132675357D01*
X236434226Y-132913452D01*
X236481845Y-133008690D01*
X236529464Y-133056309D01*
X236624702Y-133103928D01*
X236815178Y-133103928D01*
X236910416Y-133056309D01*
X236958035Y-133008690D01*
X237005654Y-132913452D01*
%TO.C,D38*%
X215479464Y-133484880D02*
X215479464Y-132484880D01*
X215717559Y-132484880D01*
X215860416Y-132532500D01*
X215955654Y-132627738D01*
X216003273Y-132722976D01*
X216050892Y-132913452D01*
X216050892Y-133056309D01*
X216003273Y-133246785D01*
X215955654Y-133342023D01*
X215860416Y-133437261D01*
X215717559Y-133484880D01*
X215479464Y-133484880D01*
X216384226Y-132484880D02*
X217003273Y-132484880D01*
X216669940Y-132865833D01*
X216812797Y-132865833D01*
X216908035Y-132913452D01*
X216955654Y-132961071D01*
X217003273Y-133056309D01*
X217003273Y-133294404D01*
X216955654Y-133389642D01*
X216908035Y-133437261D01*
X216812797Y-133484880D01*
X216527083Y-133484880D01*
X216431845Y-133437261D01*
X216384226Y-133389642D01*
X217574702Y-132913452D02*
X217479464Y-132865833D01*
X217431845Y-132818214D01*
X217384226Y-132722976D01*
X217384226Y-132675357D01*
X217431845Y-132580119D01*
X217479464Y-132532500D01*
X217574702Y-132484880D01*
X217765178Y-132484880D01*
X217860416Y-132532500D01*
X217908035Y-132580119D01*
X217955654Y-132675357D01*
X217955654Y-132722976D01*
X217908035Y-132818214D01*
X217860416Y-132865833D01*
X217765178Y-132913452D01*
X217574702Y-132913452D01*
X217479464Y-132961071D01*
X217431845Y-133008690D01*
X217384226Y-133103928D01*
X217384226Y-133294404D01*
X217431845Y-133389642D01*
X217479464Y-133437261D01*
X217574702Y-133484880D01*
X217765178Y-133484880D01*
X217860416Y-133437261D01*
X217908035Y-133389642D01*
X217955654Y-133294404D01*
X217955654Y-133103928D01*
X217908035Y-133008690D01*
X217860416Y-132961071D01*
X217765178Y-132913452D01*
%TO.C,D37*%
X196429464Y-133484880D02*
X196429464Y-132484880D01*
X196667559Y-132484880D01*
X196810416Y-132532500D01*
X196905654Y-132627738D01*
X196953273Y-132722976D01*
X197000892Y-132913452D01*
X197000892Y-133056309D01*
X196953273Y-133246785D01*
X196905654Y-133342023D01*
X196810416Y-133437261D01*
X196667559Y-133484880D01*
X196429464Y-133484880D01*
X197334226Y-132484880D02*
X197953273Y-132484880D01*
X197619940Y-132865833D01*
X197762797Y-132865833D01*
X197858035Y-132913452D01*
X197905654Y-132961071D01*
X197953273Y-133056309D01*
X197953273Y-133294404D01*
X197905654Y-133389642D01*
X197858035Y-133437261D01*
X197762797Y-133484880D01*
X197477083Y-133484880D01*
X197381845Y-133437261D01*
X197334226Y-133389642D01*
X198286607Y-132484880D02*
X198953273Y-132484880D01*
X198524702Y-133484880D01*
%TO.C,D36*%
X177379464Y-133484880D02*
X177379464Y-132484880D01*
X177617559Y-132484880D01*
X177760416Y-132532500D01*
X177855654Y-132627738D01*
X177903273Y-132722976D01*
X177950892Y-132913452D01*
X177950892Y-133056309D01*
X177903273Y-133246785D01*
X177855654Y-133342023D01*
X177760416Y-133437261D01*
X177617559Y-133484880D01*
X177379464Y-133484880D01*
X178284226Y-132484880D02*
X178903273Y-132484880D01*
X178569940Y-132865833D01*
X178712797Y-132865833D01*
X178808035Y-132913452D01*
X178855654Y-132961071D01*
X178903273Y-133056309D01*
X178903273Y-133294404D01*
X178855654Y-133389642D01*
X178808035Y-133437261D01*
X178712797Y-133484880D01*
X178427083Y-133484880D01*
X178331845Y-133437261D01*
X178284226Y-133389642D01*
X179760416Y-132484880D02*
X179569940Y-132484880D01*
X179474702Y-132532500D01*
X179427083Y-132580119D01*
X179331845Y-132722976D01*
X179284226Y-132913452D01*
X179284226Y-133294404D01*
X179331845Y-133389642D01*
X179379464Y-133437261D01*
X179474702Y-133484880D01*
X179665178Y-133484880D01*
X179760416Y-133437261D01*
X179808035Y-133389642D01*
X179855654Y-133294404D01*
X179855654Y-133056309D01*
X179808035Y-132961071D01*
X179760416Y-132913452D01*
X179665178Y-132865833D01*
X179474702Y-132865833D01*
X179379464Y-132913452D01*
X179331845Y-132961071D01*
X179284226Y-133056309D01*
%TO.C,D35*%
X158329464Y-133484880D02*
X158329464Y-132484880D01*
X158567559Y-132484880D01*
X158710416Y-132532500D01*
X158805654Y-132627738D01*
X158853273Y-132722976D01*
X158900892Y-132913452D01*
X158900892Y-133056309D01*
X158853273Y-133246785D01*
X158805654Y-133342023D01*
X158710416Y-133437261D01*
X158567559Y-133484880D01*
X158329464Y-133484880D01*
X159234226Y-132484880D02*
X159853273Y-132484880D01*
X159519940Y-132865833D01*
X159662797Y-132865833D01*
X159758035Y-132913452D01*
X159805654Y-132961071D01*
X159853273Y-133056309D01*
X159853273Y-133294404D01*
X159805654Y-133389642D01*
X159758035Y-133437261D01*
X159662797Y-133484880D01*
X159377083Y-133484880D01*
X159281845Y-133437261D01*
X159234226Y-133389642D01*
X160758035Y-132484880D02*
X160281845Y-132484880D01*
X160234226Y-132961071D01*
X160281845Y-132913452D01*
X160377083Y-132865833D01*
X160615178Y-132865833D01*
X160710416Y-132913452D01*
X160758035Y-132961071D01*
X160805654Y-133056309D01*
X160805654Y-133294404D01*
X160758035Y-133389642D01*
X160710416Y-133437261D01*
X160615178Y-133484880D01*
X160377083Y-133484880D01*
X160281845Y-133437261D01*
X160234226Y-133389642D01*
%TO.C,D34*%
X139279464Y-133484880D02*
X139279464Y-132484880D01*
X139517559Y-132484880D01*
X139660416Y-132532500D01*
X139755654Y-132627738D01*
X139803273Y-132722976D01*
X139850892Y-132913452D01*
X139850892Y-133056309D01*
X139803273Y-133246785D01*
X139755654Y-133342023D01*
X139660416Y-133437261D01*
X139517559Y-133484880D01*
X139279464Y-133484880D01*
X140184226Y-132484880D02*
X140803273Y-132484880D01*
X140469940Y-132865833D01*
X140612797Y-132865833D01*
X140708035Y-132913452D01*
X140755654Y-132961071D01*
X140803273Y-133056309D01*
X140803273Y-133294404D01*
X140755654Y-133389642D01*
X140708035Y-133437261D01*
X140612797Y-133484880D01*
X140327083Y-133484880D01*
X140231845Y-133437261D01*
X140184226Y-133389642D01*
X141660416Y-132818214D02*
X141660416Y-133484880D01*
X141422321Y-132437261D02*
X141184226Y-133151547D01*
X141803273Y-133151547D01*
%TO.C,D33*%
X120229464Y-133484880D02*
X120229464Y-132484880D01*
X120467559Y-132484880D01*
X120610416Y-132532500D01*
X120705654Y-132627738D01*
X120753273Y-132722976D01*
X120800892Y-132913452D01*
X120800892Y-133056309D01*
X120753273Y-133246785D01*
X120705654Y-133342023D01*
X120610416Y-133437261D01*
X120467559Y-133484880D01*
X120229464Y-133484880D01*
X121134226Y-132484880D02*
X121753273Y-132484880D01*
X121419940Y-132865833D01*
X121562797Y-132865833D01*
X121658035Y-132913452D01*
X121705654Y-132961071D01*
X121753273Y-133056309D01*
X121753273Y-133294404D01*
X121705654Y-133389642D01*
X121658035Y-133437261D01*
X121562797Y-133484880D01*
X121277083Y-133484880D01*
X121181845Y-133437261D01*
X121134226Y-133389642D01*
X122086607Y-132484880D02*
X122705654Y-132484880D01*
X122372321Y-132865833D01*
X122515178Y-132865833D01*
X122610416Y-132913452D01*
X122658035Y-132961071D01*
X122705654Y-133056309D01*
X122705654Y-133294404D01*
X122658035Y-133389642D01*
X122610416Y-133437261D01*
X122515178Y-133484880D01*
X122229464Y-133484880D01*
X122134226Y-133437261D01*
X122086607Y-133389642D01*
%TO.C,D32*%
X101179464Y-133484880D02*
X101179464Y-132484880D01*
X101417559Y-132484880D01*
X101560416Y-132532500D01*
X101655654Y-132627738D01*
X101703273Y-132722976D01*
X101750892Y-132913452D01*
X101750892Y-133056309D01*
X101703273Y-133246785D01*
X101655654Y-133342023D01*
X101560416Y-133437261D01*
X101417559Y-133484880D01*
X101179464Y-133484880D01*
X102084226Y-132484880D02*
X102703273Y-132484880D01*
X102369940Y-132865833D01*
X102512797Y-132865833D01*
X102608035Y-132913452D01*
X102655654Y-132961071D01*
X102703273Y-133056309D01*
X102703273Y-133294404D01*
X102655654Y-133389642D01*
X102608035Y-133437261D01*
X102512797Y-133484880D01*
X102227083Y-133484880D01*
X102131845Y-133437261D01*
X102084226Y-133389642D01*
X103084226Y-132580119D02*
X103131845Y-132532500D01*
X103227083Y-132484880D01*
X103465178Y-132484880D01*
X103560416Y-132532500D01*
X103608035Y-132580119D01*
X103655654Y-132675357D01*
X103655654Y-132770595D01*
X103608035Y-132913452D01*
X103036607Y-133484880D01*
X103655654Y-133484880D01*
%TO.C,D31*%
X82129464Y-133484880D02*
X82129464Y-132484880D01*
X82367559Y-132484880D01*
X82510416Y-132532500D01*
X82605654Y-132627738D01*
X82653273Y-132722976D01*
X82700892Y-132913452D01*
X82700892Y-133056309D01*
X82653273Y-133246785D01*
X82605654Y-133342023D01*
X82510416Y-133437261D01*
X82367559Y-133484880D01*
X82129464Y-133484880D01*
X83034226Y-132484880D02*
X83653273Y-132484880D01*
X83319940Y-132865833D01*
X83462797Y-132865833D01*
X83558035Y-132913452D01*
X83605654Y-132961071D01*
X83653273Y-133056309D01*
X83653273Y-133294404D01*
X83605654Y-133389642D01*
X83558035Y-133437261D01*
X83462797Y-133484880D01*
X83177083Y-133484880D01*
X83081845Y-133437261D01*
X83034226Y-133389642D01*
X84605654Y-133484880D02*
X84034226Y-133484880D01*
X84319940Y-133484880D02*
X84319940Y-132484880D01*
X84224702Y-132627738D01*
X84129464Y-132722976D01*
X84034226Y-132770595D01*
%TO.C,D30*%
X51173214Y-133484880D02*
X51173214Y-132484880D01*
X51411309Y-132484880D01*
X51554166Y-132532500D01*
X51649404Y-132627738D01*
X51697023Y-132722976D01*
X51744642Y-132913452D01*
X51744642Y-133056309D01*
X51697023Y-133246785D01*
X51649404Y-133342023D01*
X51554166Y-133437261D01*
X51411309Y-133484880D01*
X51173214Y-133484880D01*
X52077976Y-132484880D02*
X52697023Y-132484880D01*
X52363690Y-132865833D01*
X52506547Y-132865833D01*
X52601785Y-132913452D01*
X52649404Y-132961071D01*
X52697023Y-133056309D01*
X52697023Y-133294404D01*
X52649404Y-133389642D01*
X52601785Y-133437261D01*
X52506547Y-133484880D01*
X52220833Y-133484880D01*
X52125595Y-133437261D01*
X52077976Y-133389642D01*
X53316071Y-132484880D02*
X53411309Y-132484880D01*
X53506547Y-132532500D01*
X53554166Y-132580119D01*
X53601785Y-132675357D01*
X53649404Y-132865833D01*
X53649404Y-133103928D01*
X53601785Y-133294404D01*
X53554166Y-133389642D01*
X53506547Y-133437261D01*
X53411309Y-133484880D01*
X53316071Y-133484880D01*
X53220833Y-133437261D01*
X53173214Y-133389642D01*
X53125595Y-133294404D01*
X53077976Y-133103928D01*
X53077976Y-132865833D01*
X53125595Y-132675357D01*
X53173214Y-132580119D01*
X53220833Y-132532500D01*
X53316071Y-132484880D01*
%TO.C,D29*%
X334541964Y-135866130D02*
X334541964Y-134866130D01*
X334780059Y-134866130D01*
X334922916Y-134913750D01*
X335018154Y-135008988D01*
X335065773Y-135104226D01*
X335113392Y-135294702D01*
X335113392Y-135437559D01*
X335065773Y-135628035D01*
X335018154Y-135723273D01*
X334922916Y-135818511D01*
X334780059Y-135866130D01*
X334541964Y-135866130D01*
X335494345Y-134961369D02*
X335541964Y-134913750D01*
X335637202Y-134866130D01*
X335875297Y-134866130D01*
X335970535Y-134913750D01*
X336018154Y-134961369D01*
X336065773Y-135056607D01*
X336065773Y-135151845D01*
X336018154Y-135294702D01*
X335446726Y-135866130D01*
X336065773Y-135866130D01*
X336541964Y-135866130D02*
X336732440Y-135866130D01*
X336827678Y-135818511D01*
X336875297Y-135770892D01*
X336970535Y-135628035D01*
X337018154Y-135437559D01*
X337018154Y-135056607D01*
X336970535Y-134961369D01*
X336922916Y-134913750D01*
X336827678Y-134866130D01*
X336637202Y-134866130D01*
X336541964Y-134913750D01*
X336494345Y-134961369D01*
X336446726Y-135056607D01*
X336446726Y-135294702D01*
X336494345Y-135389940D01*
X336541964Y-135437559D01*
X336637202Y-135485178D01*
X336827678Y-135485178D01*
X336922916Y-135437559D01*
X336970535Y-135389940D01*
X337018154Y-135294702D01*
%TO.C,D28*%
X308348214Y-114434880D02*
X308348214Y-113434880D01*
X308586309Y-113434880D01*
X308729166Y-113482500D01*
X308824404Y-113577738D01*
X308872023Y-113672976D01*
X308919642Y-113863452D01*
X308919642Y-114006309D01*
X308872023Y-114196785D01*
X308824404Y-114292023D01*
X308729166Y-114387261D01*
X308586309Y-114434880D01*
X308348214Y-114434880D01*
X309300595Y-113530119D02*
X309348214Y-113482500D01*
X309443452Y-113434880D01*
X309681547Y-113434880D01*
X309776785Y-113482500D01*
X309824404Y-113530119D01*
X309872023Y-113625357D01*
X309872023Y-113720595D01*
X309824404Y-113863452D01*
X309252976Y-114434880D01*
X309872023Y-114434880D01*
X310443452Y-113863452D02*
X310348214Y-113815833D01*
X310300595Y-113768214D01*
X310252976Y-113672976D01*
X310252976Y-113625357D01*
X310300595Y-113530119D01*
X310348214Y-113482500D01*
X310443452Y-113434880D01*
X310633928Y-113434880D01*
X310729166Y-113482500D01*
X310776785Y-113530119D01*
X310824404Y-113625357D01*
X310824404Y-113672976D01*
X310776785Y-113768214D01*
X310729166Y-113815833D01*
X310633928Y-113863452D01*
X310443452Y-113863452D01*
X310348214Y-113911071D01*
X310300595Y-113958690D01*
X310252976Y-114053928D01*
X310252976Y-114244404D01*
X310300595Y-114339642D01*
X310348214Y-114387261D01*
X310443452Y-114434880D01*
X310633928Y-114434880D01*
X310729166Y-114387261D01*
X310776785Y-114339642D01*
X310824404Y-114244404D01*
X310824404Y-114053928D01*
X310776785Y-113958690D01*
X310729166Y-113911071D01*
X310633928Y-113863452D01*
%TO.C,D27*%
X286916964Y-114434880D02*
X286916964Y-113434880D01*
X287155059Y-113434880D01*
X287297916Y-113482500D01*
X287393154Y-113577738D01*
X287440773Y-113672976D01*
X287488392Y-113863452D01*
X287488392Y-114006309D01*
X287440773Y-114196785D01*
X287393154Y-114292023D01*
X287297916Y-114387261D01*
X287155059Y-114434880D01*
X286916964Y-114434880D01*
X287869345Y-113530119D02*
X287916964Y-113482500D01*
X288012202Y-113434880D01*
X288250297Y-113434880D01*
X288345535Y-113482500D01*
X288393154Y-113530119D01*
X288440773Y-113625357D01*
X288440773Y-113720595D01*
X288393154Y-113863452D01*
X287821726Y-114434880D01*
X288440773Y-114434880D01*
X288774107Y-113434880D02*
X289440773Y-113434880D01*
X289012202Y-114434880D01*
%TO.C,D26*%
X267866964Y-114434880D02*
X267866964Y-113434880D01*
X268105059Y-113434880D01*
X268247916Y-113482500D01*
X268343154Y-113577738D01*
X268390773Y-113672976D01*
X268438392Y-113863452D01*
X268438392Y-114006309D01*
X268390773Y-114196785D01*
X268343154Y-114292023D01*
X268247916Y-114387261D01*
X268105059Y-114434880D01*
X267866964Y-114434880D01*
X268819345Y-113530119D02*
X268866964Y-113482500D01*
X268962202Y-113434880D01*
X269200297Y-113434880D01*
X269295535Y-113482500D01*
X269343154Y-113530119D01*
X269390773Y-113625357D01*
X269390773Y-113720595D01*
X269343154Y-113863452D01*
X268771726Y-114434880D01*
X269390773Y-114434880D01*
X270247916Y-113434880D02*
X270057440Y-113434880D01*
X269962202Y-113482500D01*
X269914583Y-113530119D01*
X269819345Y-113672976D01*
X269771726Y-113863452D01*
X269771726Y-114244404D01*
X269819345Y-114339642D01*
X269866964Y-114387261D01*
X269962202Y-114434880D01*
X270152678Y-114434880D01*
X270247916Y-114387261D01*
X270295535Y-114339642D01*
X270343154Y-114244404D01*
X270343154Y-114006309D01*
X270295535Y-113911071D01*
X270247916Y-113863452D01*
X270152678Y-113815833D01*
X269962202Y-113815833D01*
X269866964Y-113863452D01*
X269819345Y-113911071D01*
X269771726Y-114006309D01*
%TO.C,D25*%
X248816964Y-114434880D02*
X248816964Y-113434880D01*
X249055059Y-113434880D01*
X249197916Y-113482500D01*
X249293154Y-113577738D01*
X249340773Y-113672976D01*
X249388392Y-113863452D01*
X249388392Y-114006309D01*
X249340773Y-114196785D01*
X249293154Y-114292023D01*
X249197916Y-114387261D01*
X249055059Y-114434880D01*
X248816964Y-114434880D01*
X249769345Y-113530119D02*
X249816964Y-113482500D01*
X249912202Y-113434880D01*
X250150297Y-113434880D01*
X250245535Y-113482500D01*
X250293154Y-113530119D01*
X250340773Y-113625357D01*
X250340773Y-113720595D01*
X250293154Y-113863452D01*
X249721726Y-114434880D01*
X250340773Y-114434880D01*
X251245535Y-113434880D02*
X250769345Y-113434880D01*
X250721726Y-113911071D01*
X250769345Y-113863452D01*
X250864583Y-113815833D01*
X251102678Y-113815833D01*
X251197916Y-113863452D01*
X251245535Y-113911071D01*
X251293154Y-114006309D01*
X251293154Y-114244404D01*
X251245535Y-114339642D01*
X251197916Y-114387261D01*
X251102678Y-114434880D01*
X250864583Y-114434880D01*
X250769345Y-114387261D01*
X250721726Y-114339642D01*
%TO.C,D24*%
X229766964Y-114434880D02*
X229766964Y-113434880D01*
X230005059Y-113434880D01*
X230147916Y-113482500D01*
X230243154Y-113577738D01*
X230290773Y-113672976D01*
X230338392Y-113863452D01*
X230338392Y-114006309D01*
X230290773Y-114196785D01*
X230243154Y-114292023D01*
X230147916Y-114387261D01*
X230005059Y-114434880D01*
X229766964Y-114434880D01*
X230719345Y-113530119D02*
X230766964Y-113482500D01*
X230862202Y-113434880D01*
X231100297Y-113434880D01*
X231195535Y-113482500D01*
X231243154Y-113530119D01*
X231290773Y-113625357D01*
X231290773Y-113720595D01*
X231243154Y-113863452D01*
X230671726Y-114434880D01*
X231290773Y-114434880D01*
X232147916Y-113768214D02*
X232147916Y-114434880D01*
X231909821Y-113387261D02*
X231671726Y-114101547D01*
X232290773Y-114101547D01*
%TO.C,D23*%
X210716964Y-114434880D02*
X210716964Y-113434880D01*
X210955059Y-113434880D01*
X211097916Y-113482500D01*
X211193154Y-113577738D01*
X211240773Y-113672976D01*
X211288392Y-113863452D01*
X211288392Y-114006309D01*
X211240773Y-114196785D01*
X211193154Y-114292023D01*
X211097916Y-114387261D01*
X210955059Y-114434880D01*
X210716964Y-114434880D01*
X211669345Y-113530119D02*
X211716964Y-113482500D01*
X211812202Y-113434880D01*
X212050297Y-113434880D01*
X212145535Y-113482500D01*
X212193154Y-113530119D01*
X212240773Y-113625357D01*
X212240773Y-113720595D01*
X212193154Y-113863452D01*
X211621726Y-114434880D01*
X212240773Y-114434880D01*
X212574107Y-113434880D02*
X213193154Y-113434880D01*
X212859821Y-113815833D01*
X213002678Y-113815833D01*
X213097916Y-113863452D01*
X213145535Y-113911071D01*
X213193154Y-114006309D01*
X213193154Y-114244404D01*
X213145535Y-114339642D01*
X213097916Y-114387261D01*
X213002678Y-114434880D01*
X212716964Y-114434880D01*
X212621726Y-114387261D01*
X212574107Y-114339642D01*
%TO.C,D22*%
X191666964Y-114434880D02*
X191666964Y-113434880D01*
X191905059Y-113434880D01*
X192047916Y-113482500D01*
X192143154Y-113577738D01*
X192190773Y-113672976D01*
X192238392Y-113863452D01*
X192238392Y-114006309D01*
X192190773Y-114196785D01*
X192143154Y-114292023D01*
X192047916Y-114387261D01*
X191905059Y-114434880D01*
X191666964Y-114434880D01*
X192619345Y-113530119D02*
X192666964Y-113482500D01*
X192762202Y-113434880D01*
X193000297Y-113434880D01*
X193095535Y-113482500D01*
X193143154Y-113530119D01*
X193190773Y-113625357D01*
X193190773Y-113720595D01*
X193143154Y-113863452D01*
X192571726Y-114434880D01*
X193190773Y-114434880D01*
X193571726Y-113530119D02*
X193619345Y-113482500D01*
X193714583Y-113434880D01*
X193952678Y-113434880D01*
X194047916Y-113482500D01*
X194095535Y-113530119D01*
X194143154Y-113625357D01*
X194143154Y-113720595D01*
X194095535Y-113863452D01*
X193524107Y-114434880D01*
X194143154Y-114434880D01*
%TO.C,D21*%
X172616964Y-114434880D02*
X172616964Y-113434880D01*
X172855059Y-113434880D01*
X172997916Y-113482500D01*
X173093154Y-113577738D01*
X173140773Y-113672976D01*
X173188392Y-113863452D01*
X173188392Y-114006309D01*
X173140773Y-114196785D01*
X173093154Y-114292023D01*
X172997916Y-114387261D01*
X172855059Y-114434880D01*
X172616964Y-114434880D01*
X173569345Y-113530119D02*
X173616964Y-113482500D01*
X173712202Y-113434880D01*
X173950297Y-113434880D01*
X174045535Y-113482500D01*
X174093154Y-113530119D01*
X174140773Y-113625357D01*
X174140773Y-113720595D01*
X174093154Y-113863452D01*
X173521726Y-114434880D01*
X174140773Y-114434880D01*
X175093154Y-114434880D02*
X174521726Y-114434880D01*
X174807440Y-114434880D02*
X174807440Y-113434880D01*
X174712202Y-113577738D01*
X174616964Y-113672976D01*
X174521726Y-113720595D01*
%TO.C,D20*%
X153566964Y-114434880D02*
X153566964Y-113434880D01*
X153805059Y-113434880D01*
X153947916Y-113482500D01*
X154043154Y-113577738D01*
X154090773Y-113672976D01*
X154138392Y-113863452D01*
X154138392Y-114006309D01*
X154090773Y-114196785D01*
X154043154Y-114292023D01*
X153947916Y-114387261D01*
X153805059Y-114434880D01*
X153566964Y-114434880D01*
X154519345Y-113530119D02*
X154566964Y-113482500D01*
X154662202Y-113434880D01*
X154900297Y-113434880D01*
X154995535Y-113482500D01*
X155043154Y-113530119D01*
X155090773Y-113625357D01*
X155090773Y-113720595D01*
X155043154Y-113863452D01*
X154471726Y-114434880D01*
X155090773Y-114434880D01*
X155709821Y-113434880D02*
X155805059Y-113434880D01*
X155900297Y-113482500D01*
X155947916Y-113530119D01*
X155995535Y-113625357D01*
X156043154Y-113815833D01*
X156043154Y-114053928D01*
X155995535Y-114244404D01*
X155947916Y-114339642D01*
X155900297Y-114387261D01*
X155805059Y-114434880D01*
X155709821Y-114434880D01*
X155614583Y-114387261D01*
X155566964Y-114339642D01*
X155519345Y-114244404D01*
X155471726Y-114053928D01*
X155471726Y-113815833D01*
X155519345Y-113625357D01*
X155566964Y-113530119D01*
X155614583Y-113482500D01*
X155709821Y-113434880D01*
%TO.C,D19*%
X134516964Y-114434880D02*
X134516964Y-113434880D01*
X134755059Y-113434880D01*
X134897916Y-113482500D01*
X134993154Y-113577738D01*
X135040773Y-113672976D01*
X135088392Y-113863452D01*
X135088392Y-114006309D01*
X135040773Y-114196785D01*
X134993154Y-114292023D01*
X134897916Y-114387261D01*
X134755059Y-114434880D01*
X134516964Y-114434880D01*
X136040773Y-114434880D02*
X135469345Y-114434880D01*
X135755059Y-114434880D02*
X135755059Y-113434880D01*
X135659821Y-113577738D01*
X135564583Y-113672976D01*
X135469345Y-113720595D01*
X136516964Y-114434880D02*
X136707440Y-114434880D01*
X136802678Y-114387261D01*
X136850297Y-114339642D01*
X136945535Y-114196785D01*
X136993154Y-114006309D01*
X136993154Y-113625357D01*
X136945535Y-113530119D01*
X136897916Y-113482500D01*
X136802678Y-113434880D01*
X136612202Y-113434880D01*
X136516964Y-113482500D01*
X136469345Y-113530119D01*
X136421726Y-113625357D01*
X136421726Y-113863452D01*
X136469345Y-113958690D01*
X136516964Y-114006309D01*
X136612202Y-114053928D01*
X136802678Y-114053928D01*
X136897916Y-114006309D01*
X136945535Y-113958690D01*
X136993154Y-113863452D01*
%TO.C,D18*%
X115466964Y-114434880D02*
X115466964Y-113434880D01*
X115705059Y-113434880D01*
X115847916Y-113482500D01*
X115943154Y-113577738D01*
X115990773Y-113672976D01*
X116038392Y-113863452D01*
X116038392Y-114006309D01*
X115990773Y-114196785D01*
X115943154Y-114292023D01*
X115847916Y-114387261D01*
X115705059Y-114434880D01*
X115466964Y-114434880D01*
X116990773Y-114434880D02*
X116419345Y-114434880D01*
X116705059Y-114434880D02*
X116705059Y-113434880D01*
X116609821Y-113577738D01*
X116514583Y-113672976D01*
X116419345Y-113720595D01*
X117562202Y-113863452D02*
X117466964Y-113815833D01*
X117419345Y-113768214D01*
X117371726Y-113672976D01*
X117371726Y-113625357D01*
X117419345Y-113530119D01*
X117466964Y-113482500D01*
X117562202Y-113434880D01*
X117752678Y-113434880D01*
X117847916Y-113482500D01*
X117895535Y-113530119D01*
X117943154Y-113625357D01*
X117943154Y-113672976D01*
X117895535Y-113768214D01*
X117847916Y-113815833D01*
X117752678Y-113863452D01*
X117562202Y-113863452D01*
X117466964Y-113911071D01*
X117419345Y-113958690D01*
X117371726Y-114053928D01*
X117371726Y-114244404D01*
X117419345Y-114339642D01*
X117466964Y-114387261D01*
X117562202Y-114434880D01*
X117752678Y-114434880D01*
X117847916Y-114387261D01*
X117895535Y-114339642D01*
X117943154Y-114244404D01*
X117943154Y-114053928D01*
X117895535Y-113958690D01*
X117847916Y-113911071D01*
X117752678Y-113863452D01*
%TO.C,D17*%
X96416964Y-114434880D02*
X96416964Y-113434880D01*
X96655059Y-113434880D01*
X96797916Y-113482500D01*
X96893154Y-113577738D01*
X96940773Y-113672976D01*
X96988392Y-113863452D01*
X96988392Y-114006309D01*
X96940773Y-114196785D01*
X96893154Y-114292023D01*
X96797916Y-114387261D01*
X96655059Y-114434880D01*
X96416964Y-114434880D01*
X97940773Y-114434880D02*
X97369345Y-114434880D01*
X97655059Y-114434880D02*
X97655059Y-113434880D01*
X97559821Y-113577738D01*
X97464583Y-113672976D01*
X97369345Y-113720595D01*
X98274107Y-113434880D02*
X98940773Y-113434880D01*
X98512202Y-114434880D01*
%TO.C,D16*%
X77366964Y-114434880D02*
X77366964Y-113434880D01*
X77605059Y-113434880D01*
X77747916Y-113482500D01*
X77843154Y-113577738D01*
X77890773Y-113672976D01*
X77938392Y-113863452D01*
X77938392Y-114006309D01*
X77890773Y-114196785D01*
X77843154Y-114292023D01*
X77747916Y-114387261D01*
X77605059Y-114434880D01*
X77366964Y-114434880D01*
X78890773Y-114434880D02*
X78319345Y-114434880D01*
X78605059Y-114434880D02*
X78605059Y-113434880D01*
X78509821Y-113577738D01*
X78414583Y-113672976D01*
X78319345Y-113720595D01*
X79747916Y-113434880D02*
X79557440Y-113434880D01*
X79462202Y-113482500D01*
X79414583Y-113530119D01*
X79319345Y-113672976D01*
X79271726Y-113863452D01*
X79271726Y-114244404D01*
X79319345Y-114339642D01*
X79366964Y-114387261D01*
X79462202Y-114434880D01*
X79652678Y-114434880D01*
X79747916Y-114387261D01*
X79795535Y-114339642D01*
X79843154Y-114244404D01*
X79843154Y-114006309D01*
X79795535Y-113911071D01*
X79747916Y-113863452D01*
X79652678Y-113815833D01*
X79462202Y-113815833D01*
X79366964Y-113863452D01*
X79319345Y-113911071D01*
X79271726Y-114006309D01*
%TO.C,D15*%
X51173214Y-114434880D02*
X51173214Y-113434880D01*
X51411309Y-113434880D01*
X51554166Y-113482500D01*
X51649404Y-113577738D01*
X51697023Y-113672976D01*
X51744642Y-113863452D01*
X51744642Y-114006309D01*
X51697023Y-114196785D01*
X51649404Y-114292023D01*
X51554166Y-114387261D01*
X51411309Y-114434880D01*
X51173214Y-114434880D01*
X52697023Y-114434880D02*
X52125595Y-114434880D01*
X52411309Y-114434880D02*
X52411309Y-113434880D01*
X52316071Y-113577738D01*
X52220833Y-113672976D01*
X52125595Y-113720595D01*
X53601785Y-113434880D02*
X53125595Y-113434880D01*
X53077976Y-113911071D01*
X53125595Y-113863452D01*
X53220833Y-113815833D01*
X53458928Y-113815833D01*
X53554166Y-113863452D01*
X53601785Y-113911071D01*
X53649404Y-114006309D01*
X53649404Y-114244404D01*
X53601785Y-114339642D01*
X53554166Y-114387261D01*
X53458928Y-114434880D01*
X53220833Y-114434880D01*
X53125595Y-114387261D01*
X53077976Y-114339642D01*
%TO.C,D14*%
X332160714Y-97766130D02*
X332160714Y-96766130D01*
X332398809Y-96766130D01*
X332541666Y-96813750D01*
X332636904Y-96908988D01*
X332684523Y-97004226D01*
X332732142Y-97194702D01*
X332732142Y-97337559D01*
X332684523Y-97528035D01*
X332636904Y-97623273D01*
X332541666Y-97718511D01*
X332398809Y-97766130D01*
X332160714Y-97766130D01*
X333684523Y-97766130D02*
X333113095Y-97766130D01*
X333398809Y-97766130D02*
X333398809Y-96766130D01*
X333303571Y-96908988D01*
X333208333Y-97004226D01*
X333113095Y-97051845D01*
X334541666Y-97099464D02*
X334541666Y-97766130D01*
X334303571Y-96718511D02*
X334065476Y-97432797D01*
X334684523Y-97432797D01*
%TO.C,D13*%
X296441964Y-97766130D02*
X296441964Y-96766130D01*
X296680059Y-96766130D01*
X296822916Y-96813750D01*
X296918154Y-96908988D01*
X296965773Y-97004226D01*
X297013392Y-97194702D01*
X297013392Y-97337559D01*
X296965773Y-97528035D01*
X296918154Y-97623273D01*
X296822916Y-97718511D01*
X296680059Y-97766130D01*
X296441964Y-97766130D01*
X297965773Y-97766130D02*
X297394345Y-97766130D01*
X297680059Y-97766130D02*
X297680059Y-96766130D01*
X297584821Y-96908988D01*
X297489583Y-97004226D01*
X297394345Y-97051845D01*
X298299107Y-96766130D02*
X298918154Y-96766130D01*
X298584821Y-97147083D01*
X298727678Y-97147083D01*
X298822916Y-97194702D01*
X298870535Y-97242321D01*
X298918154Y-97337559D01*
X298918154Y-97575654D01*
X298870535Y-97670892D01*
X298822916Y-97718511D01*
X298727678Y-97766130D01*
X298441964Y-97766130D01*
X298346726Y-97718511D01*
X298299107Y-97670892D01*
%TO.C,D12*%
X277391964Y-97766130D02*
X277391964Y-96766130D01*
X277630059Y-96766130D01*
X277772916Y-96813750D01*
X277868154Y-96908988D01*
X277915773Y-97004226D01*
X277963392Y-97194702D01*
X277963392Y-97337559D01*
X277915773Y-97528035D01*
X277868154Y-97623273D01*
X277772916Y-97718511D01*
X277630059Y-97766130D01*
X277391964Y-97766130D01*
X278915773Y-97766130D02*
X278344345Y-97766130D01*
X278630059Y-97766130D02*
X278630059Y-96766130D01*
X278534821Y-96908988D01*
X278439583Y-97004226D01*
X278344345Y-97051845D01*
X279296726Y-96861369D02*
X279344345Y-96813750D01*
X279439583Y-96766130D01*
X279677678Y-96766130D01*
X279772916Y-96813750D01*
X279820535Y-96861369D01*
X279868154Y-96956607D01*
X279868154Y-97051845D01*
X279820535Y-97194702D01*
X279249107Y-97766130D01*
X279868154Y-97766130D01*
%TO.C,D11*%
X258341964Y-97766130D02*
X258341964Y-96766130D01*
X258580059Y-96766130D01*
X258722916Y-96813750D01*
X258818154Y-96908988D01*
X258865773Y-97004226D01*
X258913392Y-97194702D01*
X258913392Y-97337559D01*
X258865773Y-97528035D01*
X258818154Y-97623273D01*
X258722916Y-97718511D01*
X258580059Y-97766130D01*
X258341964Y-97766130D01*
X259865773Y-97766130D02*
X259294345Y-97766130D01*
X259580059Y-97766130D02*
X259580059Y-96766130D01*
X259484821Y-96908988D01*
X259389583Y-97004226D01*
X259294345Y-97051845D01*
X260818154Y-97766130D02*
X260246726Y-97766130D01*
X260532440Y-97766130D02*
X260532440Y-96766130D01*
X260437202Y-96908988D01*
X260341964Y-97004226D01*
X260246726Y-97051845D01*
%TO.C,D10*%
X239291964Y-97766130D02*
X239291964Y-96766130D01*
X239530059Y-96766130D01*
X239672916Y-96813750D01*
X239768154Y-96908988D01*
X239815773Y-97004226D01*
X239863392Y-97194702D01*
X239863392Y-97337559D01*
X239815773Y-97528035D01*
X239768154Y-97623273D01*
X239672916Y-97718511D01*
X239530059Y-97766130D01*
X239291964Y-97766130D01*
X240815773Y-97766130D02*
X240244345Y-97766130D01*
X240530059Y-97766130D02*
X240530059Y-96766130D01*
X240434821Y-96908988D01*
X240339583Y-97004226D01*
X240244345Y-97051845D01*
X241434821Y-96766130D02*
X241530059Y-96766130D01*
X241625297Y-96813750D01*
X241672916Y-96861369D01*
X241720535Y-96956607D01*
X241768154Y-97147083D01*
X241768154Y-97385178D01*
X241720535Y-97575654D01*
X241672916Y-97670892D01*
X241625297Y-97718511D01*
X241530059Y-97766130D01*
X241434821Y-97766130D01*
X241339583Y-97718511D01*
X241291964Y-97670892D01*
X241244345Y-97575654D01*
X241196726Y-97385178D01*
X241196726Y-97147083D01*
X241244345Y-96956607D01*
X241291964Y-96861369D01*
X241339583Y-96813750D01*
X241434821Y-96766130D01*
%TO.C,D9*%
X220718154Y-97766130D02*
X220718154Y-96766130D01*
X220956250Y-96766130D01*
X221099107Y-96813750D01*
X221194345Y-96908988D01*
X221241964Y-97004226D01*
X221289583Y-97194702D01*
X221289583Y-97337559D01*
X221241964Y-97528035D01*
X221194345Y-97623273D01*
X221099107Y-97718511D01*
X220956250Y-97766130D01*
X220718154Y-97766130D01*
X221765773Y-97766130D02*
X221956250Y-97766130D01*
X222051488Y-97718511D01*
X222099107Y-97670892D01*
X222194345Y-97528035D01*
X222241964Y-97337559D01*
X222241964Y-96956607D01*
X222194345Y-96861369D01*
X222146726Y-96813750D01*
X222051488Y-96766130D01*
X221861011Y-96766130D01*
X221765773Y-96813750D01*
X221718154Y-96861369D01*
X221670535Y-96956607D01*
X221670535Y-97194702D01*
X221718154Y-97289940D01*
X221765773Y-97337559D01*
X221861011Y-97385178D01*
X222051488Y-97385178D01*
X222146726Y-97337559D01*
X222194345Y-97289940D01*
X222241964Y-97194702D01*
%TO.C,D8*%
X201668154Y-97766130D02*
X201668154Y-96766130D01*
X201906250Y-96766130D01*
X202049107Y-96813750D01*
X202144345Y-96908988D01*
X202191964Y-97004226D01*
X202239583Y-97194702D01*
X202239583Y-97337559D01*
X202191964Y-97528035D01*
X202144345Y-97623273D01*
X202049107Y-97718511D01*
X201906250Y-97766130D01*
X201668154Y-97766130D01*
X202811011Y-97194702D02*
X202715773Y-97147083D01*
X202668154Y-97099464D01*
X202620535Y-97004226D01*
X202620535Y-96956607D01*
X202668154Y-96861369D01*
X202715773Y-96813750D01*
X202811011Y-96766130D01*
X203001488Y-96766130D01*
X203096726Y-96813750D01*
X203144345Y-96861369D01*
X203191964Y-96956607D01*
X203191964Y-97004226D01*
X203144345Y-97099464D01*
X203096726Y-97147083D01*
X203001488Y-97194702D01*
X202811011Y-97194702D01*
X202715773Y-97242321D01*
X202668154Y-97289940D01*
X202620535Y-97385178D01*
X202620535Y-97575654D01*
X202668154Y-97670892D01*
X202715773Y-97718511D01*
X202811011Y-97766130D01*
X203001488Y-97766130D01*
X203096726Y-97718511D01*
X203144345Y-97670892D01*
X203191964Y-97575654D01*
X203191964Y-97385178D01*
X203144345Y-97289940D01*
X203096726Y-97242321D01*
X203001488Y-97194702D01*
%TO.C,D7*%
X182618154Y-97766130D02*
X182618154Y-96766130D01*
X182856250Y-96766130D01*
X182999107Y-96813750D01*
X183094345Y-96908988D01*
X183141964Y-97004226D01*
X183189583Y-97194702D01*
X183189583Y-97337559D01*
X183141964Y-97528035D01*
X183094345Y-97623273D01*
X182999107Y-97718511D01*
X182856250Y-97766130D01*
X182618154Y-97766130D01*
X183522916Y-96766130D02*
X184189583Y-96766130D01*
X183761011Y-97766130D01*
%TO.C,D6*%
X163568154Y-97766130D02*
X163568154Y-96766130D01*
X163806250Y-96766130D01*
X163949107Y-96813750D01*
X164044345Y-96908988D01*
X164091964Y-97004226D01*
X164139583Y-97194702D01*
X164139583Y-97337559D01*
X164091964Y-97528035D01*
X164044345Y-97623273D01*
X163949107Y-97718511D01*
X163806250Y-97766130D01*
X163568154Y-97766130D01*
X164996726Y-96766130D02*
X164806250Y-96766130D01*
X164711011Y-96813750D01*
X164663392Y-96861369D01*
X164568154Y-97004226D01*
X164520535Y-97194702D01*
X164520535Y-97575654D01*
X164568154Y-97670892D01*
X164615773Y-97718511D01*
X164711011Y-97766130D01*
X164901488Y-97766130D01*
X164996726Y-97718511D01*
X165044345Y-97670892D01*
X165091964Y-97575654D01*
X165091964Y-97337559D01*
X165044345Y-97242321D01*
X164996726Y-97194702D01*
X164901488Y-97147083D01*
X164711011Y-97147083D01*
X164615773Y-97194702D01*
X164568154Y-97242321D01*
X164520535Y-97337559D01*
%TO.C,D5*%
X144518154Y-97766130D02*
X144518154Y-96766130D01*
X144756250Y-96766130D01*
X144899107Y-96813750D01*
X144994345Y-96908988D01*
X145041964Y-97004226D01*
X145089583Y-97194702D01*
X145089583Y-97337559D01*
X145041964Y-97528035D01*
X144994345Y-97623273D01*
X144899107Y-97718511D01*
X144756250Y-97766130D01*
X144518154Y-97766130D01*
X145994345Y-96766130D02*
X145518154Y-96766130D01*
X145470535Y-97242321D01*
X145518154Y-97194702D01*
X145613392Y-97147083D01*
X145851488Y-97147083D01*
X145946726Y-97194702D01*
X145994345Y-97242321D01*
X146041964Y-97337559D01*
X146041964Y-97575654D01*
X145994345Y-97670892D01*
X145946726Y-97718511D01*
X145851488Y-97766130D01*
X145613392Y-97766130D01*
X145518154Y-97718511D01*
X145470535Y-97670892D01*
%TO.C,D4*%
X125468154Y-97766130D02*
X125468154Y-96766130D01*
X125706250Y-96766130D01*
X125849107Y-96813750D01*
X125944345Y-96908988D01*
X125991964Y-97004226D01*
X126039583Y-97194702D01*
X126039583Y-97337559D01*
X125991964Y-97528035D01*
X125944345Y-97623273D01*
X125849107Y-97718511D01*
X125706250Y-97766130D01*
X125468154Y-97766130D01*
X126896726Y-97099464D02*
X126896726Y-97766130D01*
X126658630Y-96718511D02*
X126420535Y-97432797D01*
X127039583Y-97432797D01*
%TO.C,D3*%
X106418154Y-97766130D02*
X106418154Y-96766130D01*
X106656250Y-96766130D01*
X106799107Y-96813750D01*
X106894345Y-96908988D01*
X106941964Y-97004226D01*
X106989583Y-97194702D01*
X106989583Y-97337559D01*
X106941964Y-97528035D01*
X106894345Y-97623273D01*
X106799107Y-97718511D01*
X106656250Y-97766130D01*
X106418154Y-97766130D01*
X107322916Y-96766130D02*
X107941964Y-96766130D01*
X107608630Y-97147083D01*
X107751488Y-97147083D01*
X107846726Y-97194702D01*
X107894345Y-97242321D01*
X107941964Y-97337559D01*
X107941964Y-97575654D01*
X107894345Y-97670892D01*
X107846726Y-97718511D01*
X107751488Y-97766130D01*
X107465773Y-97766130D01*
X107370535Y-97718511D01*
X107322916Y-97670892D01*
%TO.C,D2*%
X87368154Y-97766130D02*
X87368154Y-96766130D01*
X87606250Y-96766130D01*
X87749107Y-96813750D01*
X87844345Y-96908988D01*
X87891964Y-97004226D01*
X87939583Y-97194702D01*
X87939583Y-97337559D01*
X87891964Y-97528035D01*
X87844345Y-97623273D01*
X87749107Y-97718511D01*
X87606250Y-97766130D01*
X87368154Y-97766130D01*
X88320535Y-96861369D02*
X88368154Y-96813750D01*
X88463392Y-96766130D01*
X88701488Y-96766130D01*
X88796726Y-96813750D01*
X88844345Y-96861369D01*
X88891964Y-96956607D01*
X88891964Y-97051845D01*
X88844345Y-97194702D01*
X88272916Y-97766130D01*
X88891964Y-97766130D01*
%TO.C,D1*%
X68318154Y-97766130D02*
X68318154Y-96766130D01*
X68556250Y-96766130D01*
X68699107Y-96813750D01*
X68794345Y-96908988D01*
X68841964Y-97004226D01*
X68889583Y-97194702D01*
X68889583Y-97337559D01*
X68841964Y-97528035D01*
X68794345Y-97623273D01*
X68699107Y-97718511D01*
X68556250Y-97766130D01*
X68318154Y-97766130D01*
X69841964Y-97766130D02*
X69270535Y-97766130D01*
X69556250Y-97766130D02*
X69556250Y-96766130D01*
X69461011Y-96908988D01*
X69365773Y-97004226D01*
X69270535Y-97051845D01*
%TD*%
M02*
