  0
SECTION
  2
HEADER
  9
$ACADVER
  1
AC1032
  9
$ACADMAINTVER
 90
      202
  9
$DWGCODEPAGE
  3
ANSI_1252
  9
$LASTSAVEDBY
  1
Salmata Barrie
  9
$REQUIREDVERSIONS
160
                 0
  9
$INSBASE
 10
0.0
 20
0.0
 30
0.0
  9
$EXTMIN
 10
-29.60725000000002
 20
-140.0004624152246
 30
0.0
  9
$EXTMAX
 10
357.5053709643958
 20
132.386473264229
 30
0.0
  9
$LIMMIN
 10
0.0
 20
0.0
  9
$LIMMAX
 10
12.0
 20
9.0
  9
$ORTHOMODE
 70
     0
  9
$REGENMODE
 70
     1
  9
$FILLMODE
 70
     1
  9
$QTEXTMODE
 70
     0
  9
$MIRRTEXT
 70
     0
  9
$LTSCALE
 40
1.0
  9
$ATTMODE
 70
     1
  9
$TEXTSIZE
 40
0.2
  9
$TRACEWID
 40
0.05
  9
$TEXTSTYLE
  7
Standard
  9
$CLAYER
  8
0
  9
$CELTYPE
  6
CONTINUOUS
  9
$CECOLOR
 62
   256
  9
$CELTSCALE
 40
1.0
  9
$DISPSILH
 70
     0
  9
$DIMSCALE
 40
1.0
  9
$DIMASZ
 40
0.18
  9
$DIMEXO
 40
0.0625
  9
$DIMDLI
 40
0.38
  9
$DIMRND
 40
0.0
  9
$DIMDLE
 40
0.0
  9
$DIMEXE
 40
0.18
  9
$DIMTP
 40
0.0
  9
$DIMTM
 40
0.0
  9
$DIMTXT
 40
0.18
  9
$DIMCEN
 40
0.09
  9
$DIMTSZ
 40
0.0
  9
$DIMTOL
 70
     0
  9
$DIMLIM
 70
     0
  9
$DIMTIH
 70
     1
  9
$DIMTOH
 70
     1
  9
$DIMSE1
 70
     0
  9
$DIMSE2
 70
     0
  9
$DIMTAD
 70
     0
  9
$DIMZIN
 70
     0
  9
$DIMBLK
  1

  9
$DIMASO
 70
     1
  9
$DIMSHO
 70
     1
  9
$DIMPOST
  1

  9
$DIMAPOST
  1

  9
$DIMALT
 70
     0
  9
$DIMALTD
 70
     2
  9
$DIMALTF
 40
25.4
  9
$DIMLFAC
 40
1.0
  9
$DIMTOFL
 70
     0
  9
$DIMTVP
 40
0.0
  9
$DIMTIX
 70
     0
  9
$DIMSOXD
 70
     0
  9
$DIMSAH
 70
     0
  9
$DIMBLK1
  1

  9
$DIMBLK2
  1

  9
$DIMSTYLE
  2
Standard
  9
$DIMCLRD
 70
     0
  9
$DIMCLRE
 70
     0
  9
$DIMCLRT
 70
     0
  9
$DIMTFAC
 40
1.0
  9
$DIMGAP
 40
0.09
  9
$DIMJUST
 70
     0
  9
$DIMSD1
 70
     0
  9
$DIMSD2
 70
     0
  9
$DIMTOLJ
 70
     1
  9
$DIMTZIN
 70
     0
  9
$DIMALTZ
 70
     0
  9
$DIMALTTZ
 70
     0
  9
$DIMUPT
 70
     0
  9
$DIMDEC
 70
     4
  9
$DIMTDEC
 70
     4
  9
$DIMALTU
 70
     2
  9
$DIMALTTD
 70
     2
  9
$DIMTXSTY
  7
Standard
  9
$DIMAUNIT
 70
     0
  9
$DIMADEC
 70
     0
  9
$DIMALTRND
 40
0.0
  9
$DIMAZIN
 70
     0
  9
$DIMDSEP
 70
    46
  9
$DIMATFIT
 70
     3
  9
$DIMFRAC
 70
     0
  9
$DIMLDRBLK
  1

  9
$DIMLUNIT
 70
     2
  9
$DIMLWD
 70
    -2
  9
$DIMLWE
 70
    -2
  9
$DIMTMOVE
 70
     0
  9
$DIMFXL
 40
1.0
  9
$DIMFXLON
 70
     0
  9
$DIMJOGANG
 40
0.7853981633974483
  9
$DIMTFILL
 70
     0
  9
$DIMTFILLCLR
 70
     0
  9
$DIMARCSYM
 70
     0
  9
$DIMLTYPE
  6

  9
$DIMLTEX1
  6

  9
$DIMLTEX2
  6

  9
$DIMTXTDIRECTION
 70
     0
  9
$LUNITS
 70
     2
  9
$LUPREC
 70
     4
  9
$SKETCHINC
 40
0.1
  9
$FILLETRAD
 40
0.0
  9
$AUNITS
 70
     0
  9
$AUPREC
 70
     0
  9
$MENU
  1
.
  9
$ELEVATION
 40
0.0
  9
$PELEVATION
 40
0.0
  9
$THICKNESS
 40
0.0
  9
$LIMCHECK
 70
     0
  9
$CHAMFERA
 40
0.0
  9
$CHAMFERB
 40
0.0
  9
$CHAMFERC
 40
0.0
  9
$CHAMFERD
 40
0.0
  9
$SKPOLY
 70
     0
  9
$TDCREATE
 40
2459571.641423611
  9
$TDUCREATE
 40
2459571.849756944
  9
$TDUPDATE
 40
2459619.809953704
  9
$TDUUPDATE
 40
2459620.018287037
  9
$TDINDWG
 40
1.7507754630
  9
$TDUSRTIMER
 40
1.7507754630
  9
$USRTIMER
 70
     1
  9
$ANGBASE
 50
0.0
  9
$ANGDIR
 70
     0
  9
$PDMODE
 70
     0
  9
$PDSIZE
 40
0.0
  9
$PLINEWID
 40
0.0
  9
$SPLFRAME
 70
     0
  9
$SPLINETYPE
 70
     6
  9
$SPLINESEGS
 70
     8
  9
$HANDSEED
  5
8DD
  9
$SURFTAB1
 70
     6
  9
$SURFTAB2
 70
     6
  9
$SURFTYPE
 70
     6
  9
$SURFU
 70
     6
  9
$SURFV
 70
     6
  9
$UCSBASE
  2

  9
$UCSNAME
  2

  9
$UCSORG
 10
0.0
 20
0.0
 30
0.0
  9
$UCSXDIR
 10
1.0
 20
0.0
 30
0.0
  9
$UCSYDIR
 10
0.0
 20
1.0
 30
0.0
  9
$UCSORTHOREF
  2

  9
$UCSORTHOVIEW
 70
     0
  9
$UCSORGTOP
 10
0.0
 20
0.0
 30
0.0
  9
$UCSORGBOTTOM
 10
0.0
 20
0.0
 30
0.0
  9
$UCSORGLEFT
 10
0.0
 20
0.0
 30
0.0
  9
$UCSORGRIGHT
 10
0.0
 20
0.0
 30
0.0
  9
$UCSORGFRONT
 10
0.0
 20
0.0
 30
0.0
  9
$UCSORGBACK
 10
0.0
 20
0.0
 30
0.0
  9
$PUCSBASE
  2

  9
$PUCSNAME
  2

  9
$PUCSORG
 10
0.0
 20
0.0
 30
0.0
  9
$PUCSXDIR
 10
1.0
 20
0.0
 30
0.0
  9
$PUCSYDIR
 10
0.0
 20
1.0
 30
0.0
  9
$PUCSORTHOREF
  2

  9
$PUCSORTHOVIEW
 70
     0
  9
$PUCSORGTOP
 10
0.0
 20
0.0
 30
0.0
  9
$PUCSORGBOTTOM
 10
0.0
 20
0.0
 30
0.0
  9
$PUCSORGLEFT
 10
0.0
 20
0.0
 30
0.0
  9
$PUCSORGRIGHT
 10
0.0
 20
0.0
 30
0.0
  9
$PUCSORGFRONT
 10
0.0
 20
0.0
 30
0.0
  9
$PUCSORGBACK
 10
0.0
 20
0.0
 30
0.0
  9
$USERI1
 70
     0
  9
$USERI2
 70
     0
  9
$USERI3
 70
     0
  9
$USERI4
 70
     0
  9
$USERI5
 70
     0
  9
$USERR1
 40
0.0
  9
$USERR2
 40
0.0
  9
$USERR3
 40
0.0
  9
$USERR4
 40
0.0
  9
$USERR5
 40
0.0
  9
$WORLDVIEW
 70
     1
  9
$SHADEDGE
 70
     3
  9
$SHADEDIF
 70
    70
  9
$TILEMODE
 70
     1
  9
$MAXACTVP
 70
    64
  9
$PINSBASE
 10
0.0
 20
0.0
 30
0.0
  9
$PLIMCHECK
 70
     0
  9
$PEXTMIN
 10
1.066666610597625
 20
0.8166666875674033
 30
0.0
  9
$PEXTMAX
 10
9.599999495378627
 20
7.350000188106625
 30
0.0
  9
$PLIMMIN
 10
-0.1666668268639272
 20
-0.166666657905879
  9
$PLIMMAX
 10
10.83333293284018
 20
8.333333702537958
  9
$UNITMODE
 70
     0
  9
$VISRETAIN
 70
     1
  9
$PLINEGEN
 70
     0
  9
$PSLTSCALE
 70
     1
  9
$TREEDEPTH
 70
  3020
  9
$CMLSTYLE
  2
Standard
  9
$CMLJUST
 70
     0
  9
$CMLSCALE
 40
1.0
  9
$PROXYGRAPHICS
 70
     1
  9
$MEASUREMENT
 70
     0
  9
$CELWEIGHT
370
    -1
  9
$ENDCAPS
280
     0
  9
$JOINSTYLE
280
     0
  9
$LWDISPLAY
290
     0
  9
$INSUNITS
 70
     4
  9
$HYPERLINKBASE
  1

  9
$STYLESHEET
  1

  9
$XEDIT
290
     1
  9
$CEPSNTYPE
380
     0
  9
$PSTYLEMODE
290
     1
  9
$FINGERPRINTGUID
  2
{7BD2C4E6-E758-AD4B-BBE0-EE7C76F4FE2F}
  9
$VERSIONGUID
  2
{689317AB-5F7C-094A-8F6B-942B6CABF45A}
  9
$EXTNAMES
290
     1
  9
$PSVPSCALE
 40
0.0
  9
$OLESTARTUP
290
     0
  9
$SORTENTS
280
   127
  9
$INDEXCTL
280
     0
  9
$HIDETEXT
280
     0
  9
$XCLIPFRAME
280
     2
  9
$HALOGAP
280
     0
  9
$OBSCOLOR
 70
   257
  9
$OBSLTYPE
280
     0
  9
$INTERSECTIONDISPLAY
280
     0
  9
$INTERSECTIONCOLOR
 70
   257
  9
$DIMASSOC
280
     1
  9
$PROJECTNAME
  1

  9
$CAMERADISPLAY
290
     0
  9
$LENSLENGTH
 40
50.0
  9
$CAMERAHEIGHT
 40
0.0
  9
$STEPSPERSEC
 40
2.0
  9
$STEPSIZE
 40
6.0
  9
$3DDWFPREC
 40
2.0
  9
$PSOLWIDTH
 40
0.25
  9
$PSOLHEIGHT
 40
4.0
  9
$LOFTANG1
 40
1.570796326794896
  9
$LOFTANG2
 40
1.570796326794896
  9
$LOFTMAG1
 40
0.0
  9
$LOFTMAG2
 40
0.0
  9
$LOFTPARAM
 70
     7
  9
$LOFTNORMALS
280
     1
  9
$LATITUDE
 40
37.795
  9
$LONGITUDE
 40
-122.394
  9
$NORTHDIRECTION
 40
0.0
  9
$TIMEZONE
 70
 -8000
  9
$LIGHTGLYPHDISPLAY
280
     1
  9
$TILEMODELIGHTSYNCH
280
     1
  9
$CMATERIAL
347
11
  9
$SOLIDHIST
280
     0
  9
$SHOWHIST
280
     1
  9
$DWFFRAME
280
     2
  9
$DGNFRAME
280
     0
  9
$REALWORLDSCALE
290
     1
  9
$INTERFERECOLOR
 62
     1
  9
$INTERFEREOBJVS
345
33
  9
$INTERFEREVPVS
346
30
  9
$CSHADOW
280
     0
  9
$SHADOWPLANELOCATION
 40
0.0
  0
ENDSEC
  0
SECTION
  2
CLASSES
  0
CLASS
  1
ACDBDICTIONARYWDFLT
  2
AcDbDictionaryWithDefault
  3
ObjectDBX Classes
 90
        0
 91
        1
280
     0
281
     0
  0
CLASS
  1
MATERIAL
  2
AcDbMaterial
  3
ObjectDBX Classes
 90
     1153
 91
        3
280
     0
281
     0
  0
CLASS
  1
VISUALSTYLE
  2
AcDbVisualStyle
  3
ObjectDBX Classes
 90
     4095
 91
       24
280
     0
281
     0
  0
CLASS
  1
SCALE
  2
AcDbScale
  3
ObjectDBX Classes
 90
     1153
 91
       17
280
     0
281
     0
  0
CLASS
  1
TABLESTYLE
  2
AcDbTableStyle
  3
ObjectDBX Classes
 90
     4095
 91
        1
280
     0
281
     0
  0
CLASS
  1
MLEADERSTYLE
  2
AcDbMLeaderStyle
  3
ACDB_MLEADERSTYLE_CLASS
 90
     4095
 91
        1
280
     0
281
     0
  0
CLASS
  1
ACDBSECTIONVIEWSTYLE
  2
AcDbSectionViewStyle
  3
ObjectDBX Classes
 90
     1025
 91
        1
280
     0
281
     0
  0
CLASS
  1
ACDBDETAILVIEWSTYLE
  2
AcDbDetailViewStyle
  3
ObjectDBX Classes
 90
     1025
 91
        1
280
     0
281
     0
  0
CLASS
  1
DICTIONARYVAR
  2
AcDbDictionaryVar
  3
ObjectDBX Classes
 90
        0
 91
        9
280
     0
281
     0
  0
CLASS
  1
CELLSTYLEMAP
  2
AcDbCellStyleMap
  3
ObjectDBX Classes
 90
     1152
 91
        1
280
     0
281
     0
  0
ENDSEC
  0
SECTION
  2
TABLES
  0
TABLE
  2
VPORT
  5
8
330
0
100
AcDbSymbolTable
 70
     1
  0
VPORT
  5
74
330
8
100
AcDbSymbolTableRecord
100
AcDbViewportTableRecord
  2
*Active
 70
     0
 10
0.0
 20
0.0
 11
1.0
 21
1.0
 12
162.4091494189244
 22
-36.35469527859226
 13
0.0
 23
0.0
 14
1.0
 24
1.0
 15
0.0
 25
0.0
 16
0.0
 26
0.0
 36
1.0
 17
0.0
 27
0.0
 37
0.0
 40
186.5537419639484
 41
1.891178895300906
 42
50.0
 43
0.0
 44
0.0
 50
0.0
 51
0.0
 71
     0
 72
   100
 73
     1
 74
     1
 75
     0
 76
     0
 77
     0
 78
     0
281
     0
 65
     1
110
0.0
120
0.0
130
0.0
111
1.0
121
0.0
131
0.0
112
0.0
122
1.0
132
0.0
 79
     0
146
0.0
348
2F
 60
     3
 61
     5
292
     1
282
     1
141
0.0
142
0.0
 63
   250
421
  3355443
1001
ACAD_NAV_VCDISPLAY
1070
     3
  0
ENDTAB
  0
TABLE
  2
LTYPE
  5
5
330
0
100
AcDbSymbolTable
 70
     3
  0
LTYPE
  5
5A
330
5
100
AcDbSymbolTableRecord
100
AcDbLinetypeTableRecord
  2
ByBlock
 70
     0
  3

 72
    65
 73
     0
 40
0.0
  0
LTYPE
  5
5B
330
5
100
AcDbSymbolTableRecord
100
AcDbLinetypeTableRecord
  2
ByLayer
 70
     0
  3

 72
    65
 73
     0
 40
0.0
  0
LTYPE
  5
5C
330
5
100
AcDbSymbolTableRecord
100
AcDbLinetypeTableRecord
  2
CONTINUOUS
 70
     0
  3
______
 72
    65
 73
     0
 40
0.0
  0
ENDTAB
  0
TABLE
  2
LAYER
  5
2
102
{ACAD_XDICTIONARY
360
39B
102
}
330
0
100
AcDbSymbolTable
 70
     1
  0
LAYER
  5
54
102
{ACAD_XDICTIONARY
360
386
102
}
330
2
100
AcDbSymbolTableRecord
100
AcDbLayerTableRecord
  2
0
 70
     0
 62
     7
  6
CONTINUOUS
370
    -3
390
F
347
21
348
0
  0
ENDTAB
  0
TABLE
  2
STYLE
  5
3
330
0
100
AcDbSymbolTable
 70
     2
  0
STYLE
  5
55
330
3
100
AcDbSymbolTableRecord
100
AcDbTextStyleTableRecord
  2
Standard
 70
     0
 40
0.0
 41
1.0
 50
0.0
 71
     0
 42
0.2
  3
txt
  4

  0
STYLE
  5
59
330
3
100
AcDbSymbolTableRecord
100
AcDbTextStyleTableRecord
  2
Annotative
 70
     0
 40
0.0
 41
1.0
 50
0.0
 71
     0
 42
0.2
  3
txt
  4

1001
AcadAnnotative
1000
AnnotativeData
1002
{
1070
     1
1070
     1
1002
}
  0
ENDTAB
  0
TABLE
  2
VIEW
  5
6
330
0
100
AcDbSymbolTable
 70
     9
  0
ENDTAB
  0
TABLE
  2
UCS
  5
7
330
0
100
AcDbSymbolTable
 70
     0
  0
ENDTAB
  0
TABLE
  2
APPID
  5
9
330
0
100
AcDbSymbolTable
 70
     6
  0
APPID
  5
56
330
9
100
AcDbSymbolTableRecord
100
AcDbRegAppTableRecord
  2
ACAD
 70
     0
  0
APPID
  5
5D
330
9
100
AcDbSymbolTableRecord
100
AcDbRegAppTableRecord
  2
AcadAnnotative
 70
     0
  0
APPID
  5
355
330
9
100
AcDbSymbolTableRecord
100
AcDbRegAppTableRecord
  2
ACAD_EXEMPT_FROM_CAD_STANDARDS
 70
     0
  0
APPID
  5
35C
330
9
100
AcDbSymbolTableRecord
100
AcDbRegAppTableRecord
  2
ACAD_NAV_VCDISPLAY
 70
     0
  0
APPID
  5
429
330
9
100
AcDbSymbolTableRecord
100
AcDbRegAppTableRecord
  2
ACAD_DSTYLE_DIMRADIAL_EXTENSION
 70
     0
  0
APPID
  5
552
330
9
100
AcDbSymbolTableRecord
100
AcDbRegAppTableRecord
  2
ACAD_PSEXT
 70
     0
  0
ENDTAB
  0
TABLE
  2
DIMSTYLE
  5
A
330
0
100
AcDbSymbolTable
 70
     4
100
AcDbDimStyleTable
 71
     1
340
57
  0
DIMSTYLE
105
57
330
A
100
AcDbSymbolTableRecord
100
AcDbDimStyleTableRecord
  2
Standard
 70
     0
340
55
  0
DIMSTYLE
105
58
330
A
100
AcDbSymbolTableRecord
100
AcDbDimStyleTableRecord
  2
Annotative
 70
     0
340
55
1001
AcadAnnotative
1000
AnnotativeData
1002
{
1070
     1
1070
     1
1002
}
  0
ENDTAB
  0
TABLE
  2
BLOCK_RECORD
  5
1
330
0
100
AcDbSymbolTable
 70
     9
  0
BLOCK_RECORD
  5
6F
330
1
100
AcDbSymbolTableRecord
100
AcDbBlockTableRecord
  2
*Model_Space
340
72
 70
     0
280
     1
281
     0
  0
BLOCK_RECORD
  5
6B
330
1
100
AcDbSymbolTableRecord
100
AcDbBlockTableRecord
  2
*Paper_Space
340
6E
 70
     0
280
     1
281
     0
  0
BLOCK_RECORD
  5
3C3
330
1
100
AcDbSymbolTableRecord
100
AcDbBlockTableRecord
  2
A$C7d2ef15b
340
0
 70
     4
280
     1
281
     0
  0
BLOCK_RECORD
  5
3D3
330
1
100
AcDbSymbolTableRecord
100
AcDbBlockTableRecord
  2
A$C25a841cb
340
0
 70
     4
280
     1
281
     0
  0
BLOCK_RECORD
  5
3D7
330
1
100
AcDbSymbolTableRecord
100
AcDbBlockTableRecord
  2
A$C683d63a3
340
0
 70
     4
280
     1
281
     0
  0
BLOCK_RECORD
  5
3F2
330
1
100
AcDbSymbolTableRecord
100
AcDbBlockTableRecord
  2
A$C51d9751c
340
0
 70
     4
280
     1
281
     0
  0
BLOCK_RECORD
  5
5EC
330
1
100
AcDbSymbolTableRecord
100
AcDbBlockTableRecord
  2
A$Cfd3da02f
340
0
 70
     4
280
     1
281
     0
  0
BLOCK_RECORD
  5
664
330
1
100
AcDbSymbolTableRecord
100
AcDbBlockTableRecord
  2
A$C97f239af
340
0
 70
     4
280
     1
281
     0
  0
ENDTAB
  0
ENDSEC
  0
SECTION
  2
BLOCKS
  0
BLOCK
  5
70
330
6F
100
AcDbEntity
  8
0
100
AcDbBlockBegin
  2
*Model_Space
 70
     0
 10
0.0
 20
0.0
 30
0.0
  3
*Model_Space
  1

  0
ENDBLK
  5
71
330
6F
100
AcDbEntity
  8
0
100
AcDbBlockEnd
  0
BLOCK
  5
6C
330
6B
100
AcDbEntity
 67
     1
  8
0
100
AcDbBlockBegin
  2
*Paper_Space
 70
     0
 10
0.0
 20
0.0
 30
0.0
  3
*Paper_Space
  1

  0
ENDBLK
  5
6D
330
6B
100
AcDbEntity
 67
     1
  8
0
100
AcDbBlockEnd
  0
BLOCK
  5
3C5
330
3C3
100
AcDbEntity
  8
0
100
AcDbBlockBegin
  2
A$C7d2ef15b
 70
     0
 10
0.0
 20
0.0
 30
0.0
  3
A$C7d2ef15b
  1

  0
ARC
  5
3C4
330
3C3
100
AcDbEntity
  8
0
100
AcDbCircle
 10
0.5
 20
0.0
 30
0.0
 40
0.5
100
AcDbArc
 50
90.0
 51
180.0
  0
ENDBLK
  5
3C6
330
3C3
100
AcDbEntity
  8
0
100
AcDbBlockEnd
  0
BLOCK
  5
3D5
330
3D3
100
AcDbEntity
  8
0
100
AcDbBlockBegin
  2
A$C25a841cb
 70
     0
 10
0.0
 20
0.0
 30
0.0
  3
A$C25a841cb
  1

  0
ARC
  5
3D4
330
3D3
100
AcDbEntity
  8
0
100
AcDbCircle
 10
0.0
 20
0.0
 30
0.0
 40
0.5
100
AcDbArc
 50
0.0
 51
90.0
  0
ENDBLK
  5
3D6
330
3D3
100
AcDbEntity
  8
0
100
AcDbBlockEnd
  0
BLOCK
  5
3D9
330
3D7
100
AcDbEntity
  8
0
100
AcDbBlockBegin
  2
A$C683d63a3
 70
     0
 10
0.0
 20
0.0
 30
0.0
  3
A$C683d63a3
  1

  0
ARC
  5
3D8
330
3D7
100
AcDbEntity
  8
0
100
AcDbCircle
 10
0.0
 20
0.0
 30
0.0
 40
0.5
100
AcDbArc
 50
0.0
 51
90.0
  0
ENDBLK
  5
3DA
330
3D7
100
AcDbEntity
  8
0
100
AcDbBlockEnd
  0
BLOCK
  5
3F5
330
3F2
100
AcDbEntity
  8
0
100
AcDbBlockBegin
  2
A$C51d9751c
 70
     0
 10
0.0
 20
0.0
 30
0.0
  3
A$C51d9751c
  1

  0
LINE
  5
3F3
330
3F2
100
AcDbEntity
  8
0
  6
Continuous
100
AcDbLine
 10
-295.6954080169174
 20
14.82081752093916
 30
0.0
 11
-10.49540801691745
 21
14.82081752093916
 31
0.0
  0
ARC
  5
3F4
330
3F2
100
AcDbEntity
  8
0
100
AcDbCircle
 10
28.10459198308257
 20
14.32081752093916
 30
0.0
 40
0.5
100
AcDbArc
 50
0.0
 51
90.0
  0
ENDBLK
  5
3F6
330
3F2
100
AcDbEntity
  8
0
100
AcDbBlockEnd
  0
BLOCK
  5
5EF
330
5EC
100
AcDbEntity
  8
0
100
AcDbBlockBegin
  2
A$Cfd3da02f
 70
     0
 10
0.0
 20
0.0
 30
0.0
  3
A$Cfd3da02f
  1

  0
ARC
  5
5ED
330
5EC
100
AcDbEntity
  8
0
  6
Continuous
370
     0
100
AcDbCircle
 10
3.0
 20
1.5
 30
0.0
 40
1.5
100
AcDbArc
 50
180.0
 51
270.0
  0
ARC
  5
5EE
330
5EC
100
AcDbEntity
  8
0
  6
Continuous
370
     0
100
AcDbCircle
 10
0.0
 20
1.5
 30
0.0
 40
1.5
100
AcDbArc
 50
0.0
 51
90.0
  0
ENDBLK
  5
5F0
330
5EC
100
AcDbEntity
  8
0
100
AcDbBlockEnd
  0
BLOCK
  5
667
330
664
100
AcDbEntity
  8
0
100
AcDbBlockBegin
  2
A$C97f239af
 70
     0
 10
0.0
 20
0.0
 30
0.0
  3
A$C97f239af
  1

  0
ARC
  5
665
330
664
100
AcDbEntity
  8
0
  6
Continuous
370
     0
100
AcDbCircle
 10
4.0
 20
1.999999999999999
 30
0.0
 40
2.0
100
AcDbArc
 50
90.0
 51
180.0
  0
ARC
  5
666
330
664
100
AcDbEntity
  8
0
  6
Continuous
370
     0
100
AcDbCircle
 10
0.0
 20
2.0
 30
0.0
 40
2.0
100
AcDbArc
 50
270.0
 51
0.0
  0
ENDBLK
  5
668
330
664
100
AcDbEntity
  8
0
100
AcDbBlockEnd
  0
ENDSEC
  0
SECTION
  2
ENTITIES
  0
ARC
  5
75
330
6F
100
AcDbEntity
  8
0
370
     0
100
AcDbCircle
 10
3.024999999999999
 20
-16.025
 30
0.0
 40
0.5
100
AcDbArc
 50
180.0
 51
270.0
  0
ARC
  5
76
330
6F
100
AcDbEntity
  8
0
370
     0
100
AcDbCircle
 10
16.025
 20
-16.025
 30
0.0
 40
0.5
100
AcDbArc
 50
270.0
 51
0.0
  0
ARC
  5
77
330
6F
100
AcDbEntity
  8
0
370
     0
100
AcDbCircle
 10
16.025
 20
-3.024999999999999
 30
0.0
 40
0.5
100
AcDbArc
 50
0.0
 51
90.0
  0
ARC
  5
78
330
6F
100
AcDbEntity
  8
0
370
     0
100
AcDbCircle
 10
3.024999999999999
 20
-3.024999999999999
 30
0.0
 40
0.5
100
AcDbArc
 50
90.0
 51
180.0
  0
LINE
  5
79
330
6F
100
AcDbEntity
  8
0
370
     0
100
AcDbLine
 10
3.024999999999999
 20
-16.525
 30
0.0
 11
16.025
 21
-16.525
 31
0.0
  0
LINE
  5
7A
330
6F
100
AcDbEntity
  8
0
370
     0
100
AcDbLine
 10
16.025
 20
-2.524999999999999
 30
0.0
 11
3.024999999999999
 21
-2.524999999999999
 31
0.0
  0
LINE
  5
7B
330
6F
100
AcDbEntity
  8
0
370
     0
100
AcDbLine
 10
16.525
 20
-16.025
 30
0.0
 11
16.525
 21
-3.024999999999999
 31
0.0
  0
LINE
  5
7C
330
6F
100
AcDbEntity
  8
0
370
     0
100
AcDbLine
 10
2.524999999999999
 20
-3.024999999999999
 30
0.0
 11
2.524999999999999
 21
-16.025
 31
0.0
  0
ARC
  5
7D
330
6F
100
AcDbEntity
  8
0
370
     0
100
AcDbCircle
 10
22.075
 20
-16.025
 30
0.0
 40
0.5
100
AcDbArc
 50
180.0
 51
270.0
  0
ARC
  5
7E
330
6F
100
AcDbEntity
  8
0
370
     0
100
AcDbCircle
 10
35.075
 20
-16.025
 30
0.0
 40
0.5
100
AcDbArc
 50
270.0
 51
0.0
  0
ARC
  5
7F
330
6F
100
AcDbEntity
  8
0
370
     0
100
AcDbCircle
 10
35.075
 20
-3.024999999999999
 30
0.0
 40
0.5
100
AcDbArc
 50
0.0
 51
90.0
  0
ARC
  5
80
330
6F
100
AcDbEntity
  8
0
370
     0
100
AcDbCircle
 10
22.075
 20
-3.024999999999999
 30
0.0
 40
0.5
100
AcDbArc
 50
90.0
 51
180.0
  0
LINE
  5
81
330
6F
100
AcDbEntity
  8
0
370
     0
100
AcDbLine
 10
22.075
 20
-16.525
 30
0.0
 11
35.075
 21
-16.525
 31
0.0
  0
LINE
  5
82
330
6F
100
AcDbEntity
  8
0
370
     0
100
AcDbLine
 10
35.075
 20
-2.524999999999999
 30
0.0
 11
22.075
 21
-2.524999999999999
 31
0.0
  0
LINE
  5
83
330
6F
100
AcDbEntity
  8
0
370
     0
100
AcDbLine
 10
35.575
 20
-16.025
 30
0.0
 11
35.575
 21
-3.024999999999999
 31
0.0
  0
LINE
  5
84
330
6F
100
AcDbEntity
  8
0
370
     0
100
AcDbLine
 10
21.575
 20
-3.024999999999999
 30
0.0
 11
21.575
 21
-16.025
 31
0.0
  0
ARC
  5
85
330
6F
100
AcDbEntity
  8
0
370
     0
100
AcDbCircle
 10
41.12499999999999
 20
-16.025
 30
0.0
 40
0.5
100
AcDbArc
 50
180.0
 51
270.0
  0
ARC
  5
86
330
6F
100
AcDbEntity
  8
0
370
     0
100
AcDbCircle
 10
54.125
 20
-16.025
 30
0.0
 40
0.5
100
AcDbArc
 50
270.0
 51
0.0
  0
ARC
  5
87
330
6F
100
AcDbEntity
  8
0
370
     0
100
AcDbCircle
 10
54.125
 20
-3.024999999999999
 30
0.0
 40
0.5
100
AcDbArc
 50
0.0
 51
90.0
  0
ARC
  5
88
330
6F
100
AcDbEntity
  8
0
370
     0
100
AcDbCircle
 10
41.12499999999999
 20
-3.024999999999999
 30
0.0
 40
0.5
100
AcDbArc
 50
90.0
 51
180.0
  0
LINE
  5
89
330
6F
100
AcDbEntity
  8
0
370
     0
100
AcDbLine
 10
41.12499999999999
 20
-16.525
 30
0.0
 11
54.125
 21
-16.525
 31
0.0
  0
LINE
  5
8A
330
6F
100
AcDbEntity
  8
0
370
     0
100
AcDbLine
 10
54.125
 20
-2.524999999999999
 30
0.0
 11
41.12499999999999
 21
-2.524999999999999
 31
0.0
  0
LINE
  5
8B
330
6F
100
AcDbEntity
  8
0
370
     0
100
AcDbLine
 10
54.625
 20
-16.025
 30
0.0
 11
54.625
 21
-3.024999999999999
 31
0.0
  0
LINE
  5
8C
330
6F
100
AcDbEntity
  8
0
370
     0
100
AcDbLine
 10
40.625
 20
-3.024999999999999
 30
0.0
 11
40.625
 21
-16.025
 31
0.0
  0
ARC
  5
8D
330
6F
100
AcDbEntity
  8
0
370
     0
100
AcDbCircle
 10
60.175
 20
-16.025
 30
0.0
 40
0.5
100
AcDbArc
 50
180.0
 51
270.0
  0
ARC
  5
8E
330
6F
100
AcDbEntity
  8
0
370
     0
100
AcDbCircle
 10
73.17499999999999
 20
-16.025
 30
0.0
 40
0.5
100
AcDbArc
 50
270.0
 51
0.0
  0
ARC
  5
8F
330
6F
100
AcDbEntity
  8
0
370
     0
100
AcDbCircle
 10
73.17499999999999
 20
-3.024999999999999
 30
0.0
 40
0.5
100
AcDbArc
 50
0.0
 51
90.0
  0
ARC
  5
90
330
6F
100
AcDbEntity
  8
0
370
     0
100
AcDbCircle
 10
60.175
 20
-3.024999999999999
 30
0.0
 40
0.5
100
AcDbArc
 50
90.0
 51
180.0
  0
LINE
  5
91
330
6F
100
AcDbEntity
  8
0
370
     0
100
AcDbLine
 10
60.175
 20
-16.525
 30
0.0
 11
73.17499999999999
 21
-16.525
 31
0.0
  0
LINE
  5
92
330
6F
100
AcDbEntity
  8
0
370
     0
100
AcDbLine
 10
73.17499999999999
 20
-2.524999999999999
 30
0.0
 11
60.175
 21
-2.524999999999999
 31
0.0
  0
LINE
  5
93
330
6F
100
AcDbEntity
  8
0
370
     0
100
AcDbLine
 10
73.67499999999998
 20
-16.025
 30
0.0
 11
73.67499999999998
 21
-3.024999999999999
 31
0.0
  0
LINE
  5
94
330
6F
100
AcDbEntity
  8
0
370
     0
100
AcDbLine
 10
59.675
 20
-3.024999999999999
 30
0.0
 11
59.675
 21
-16.025
 31
0.0
  0
ARC
  5
95
330
6F
100
AcDbEntity
  8
0
370
     0
100
AcDbCircle
 10
79.22499999999998
 20
-16.025
 30
0.0
 40
0.5
100
AcDbArc
 50
180.0
 51
270.0
  0
ARC
  5
96
330
6F
100
AcDbEntity
  8
0
370
     0
100
AcDbCircle
 10
92.225
 20
-16.025
 30
0.0
 40
0.5
100
AcDbArc
 50
270.0
 51
0.0
  0
ARC
  5
97
330
6F
100
AcDbEntity
  8
0
370
     0
100
AcDbCircle
 10
92.225
 20
-3.024999999999999
 30
0.0
 40
0.5
100
AcDbArc
 50
0.0
 51
90.0
  0
ARC
  5
98
330
6F
100
AcDbEntity
  8
0
370
     0
100
AcDbCircle
 10
79.22499999999998
 20
-3.024999999999999
 30
0.0
 40
0.5
100
AcDbArc
 50
90.0
 51
180.0
  0
LINE
  5
99
330
6F
100
AcDbEntity
  8
0
370
     0
100
AcDbLine
 10
79.22499999999998
 20
-16.525
 30
0.0
 11
92.225
 21
-16.525
 31
0.0
  0
LINE
  5
9A
330
6F
100
AcDbEntity
  8
0
370
     0
100
AcDbLine
 10
92.225
 20
-2.524999999999999
 30
0.0
 11
79.22499999999998
 21
-2.524999999999999
 31
0.0
  0
LINE
  5
9B
330
6F
100
AcDbEntity
  8
0
370
     0
100
AcDbLine
 10
92.72499999999999
 20
-16.025
 30
0.0
 11
92.72499999999999
 21
-3.024999999999999
 31
0.0
  0
LINE
  5
9C
330
6F
100
AcDbEntity
  8
0
370
     0
100
AcDbLine
 10
78.72499999999998
 20
-3.024999999999999
 30
0.0
 11
78.72499999999998
 21
-16.025
 31
0.0
  0
ARC
  5
9D
330
6F
100
AcDbEntity
  8
0
370
     0
100
AcDbCircle
 10
98.275
 20
-16.025
 30
0.0
 40
0.5
100
AcDbArc
 50
180.0
 51
270.0
  0
ARC
  5
9E
330
6F
100
AcDbEntity
  8
0
370
     0
100
AcDbCircle
 10
111.275
 20
-16.025
 30
0.0
 40
0.5
100
AcDbArc
 50
270.0
 51
0.0
  0
ARC
  5
9F
330
6F
100
AcDbEntity
  8
0
370
     0
100
AcDbCircle
 10
111.275
 20
-3.024999999999999
 30
0.0
 40
0.5
100
AcDbArc
 50
0.0
 51
90.0
  0
ARC
  5
A0
330
6F
100
AcDbEntity
  8
0
370
     0
100
AcDbCircle
 10
98.275
 20
-3.024999999999999
 30
0.0
 40
0.5
100
AcDbArc
 50
90.0
 51
180.0
  0
LINE
  5
A1
330
6F
100
AcDbEntity
  8
0
370
     0
100
AcDbLine
 10
98.275
 20
-16.525
 30
0.0
 11
111.275
 21
-16.525
 31
0.0
  0
LINE
  5
A2
330
6F
100
AcDbEntity
  8
0
370
     0
100
AcDbLine
 10
111.275
 20
-2.524999999999999
 30
0.0
 11
98.275
 21
-2.524999999999999
 31
0.0
  0
LINE
  5
A3
330
6F
100
AcDbEntity
  8
0
370
     0
100
AcDbLine
 10
111.775
 20
-16.025
 30
0.0
 11
111.775
 21
-3.024999999999999
 31
0.0
  0
LINE
  5
A4
330
6F
100
AcDbEntity
  8
0
370
     0
100
AcDbLine
 10
97.77500000000001
 20
-3.024999999999999
 30
0.0
 11
97.77500000000001
 21
-16.025
 31
0.0
  0
ARC
  5
A5
330
6F
100
AcDbEntity
  8
0
370
     0
100
AcDbCircle
 10
117.325
 20
-16.025
 30
0.0
 40
0.5
100
AcDbArc
 50
180.0
 51
270.0
  0
ARC
  5
A6
330
6F
100
AcDbEntity
  8
0
370
     0
100
AcDbCircle
 10
130.325
 20
-16.025
 30
0.0
 40
0.5
100
AcDbArc
 50
270.0
 51
0.0
  0
ARC
  5
A7
330
6F
100
AcDbEntity
  8
0
370
     0
100
AcDbCircle
 10
130.325
 20
-3.024999999999999
 30
0.0
 40
0.5
100
AcDbArc
 50
0.0
 51
90.0
  0
ARC
  5
A8
330
6F
100
AcDbEntity
  8
0
370
     0
100
AcDbCircle
 10
117.325
 20
-3.024999999999999
 30
0.0
 40
0.5
100
AcDbArc
 50
90.0
 51
180.0
  0
LINE
  5
A9
330
6F
100
AcDbEntity
  8
0
370
     0
100
AcDbLine
 10
117.325
 20
-16.525
 30
0.0
 11
130.325
 21
-16.525
 31
0.0
  0
LINE
  5
AA
330
6F
100
AcDbEntity
  8
0
370
     0
100
AcDbLine
 10
130.325
 20
-2.524999999999999
 30
0.0
 11
117.325
 21
-2.524999999999999
 31
0.0
  0
LINE
  5
AB
330
6F
100
AcDbEntity
  8
0
370
     0
100
AcDbLine
 10
130.825
 20
-16.025
 30
0.0
 11
130.825
 21
-3.024999999999999
 31
0.0
  0
LINE
  5
AC
330
6F
100
AcDbEntity
  8
0
370
     0
100
AcDbLine
 10
116.825
 20
-3.024999999999999
 30
0.0
 11
116.825
 21
-16.025
 31
0.0
  0
ARC
  5
AD
330
6F
100
AcDbEntity
  8
0
370
     0
100
AcDbCircle
 10
136.375
 20
-16.025
 30
0.0
 40
0.5
100
AcDbArc
 50
180.0
 51
270.0
  0
ARC
  5
AE
330
6F
100
AcDbEntity
  8
0
370
     0
100
AcDbCircle
 10
149.375
 20
-16.025
 30
0.0
 40
0.5
100
AcDbArc
 50
270.0
 51
0.0
  0
ARC
  5
AF
330
6F
100
AcDbEntity
  8
0
370
     0
100
AcDbCircle
 10
149.375
 20
-3.024999999999999
 30
0.0
 40
0.5
100
AcDbArc
 50
0.0
 51
90.0
  0
ARC
  5
B0
330
6F
100
AcDbEntity
  8
0
370
     0
100
AcDbCircle
 10
136.375
 20
-3.024999999999999
 30
0.0
 40
0.5
100
AcDbArc
 50
90.0
 51
180.0
  0
LINE
  5
B1
330
6F
100
AcDbEntity
  8
0
370
     0
100
AcDbLine
 10
136.375
 20
-16.525
 30
0.0
 11
149.375
 21
-16.525
 31
0.0
  0
LINE
  5
B2
330
6F
100
AcDbEntity
  8
0
370
     0
100
AcDbLine
 10
149.375
 20
-2.524999999999999
 30
0.0
 11
136.375
 21
-2.524999999999999
 31
0.0
  0
LINE
  5
B3
330
6F
100
AcDbEntity
  8
0
370
     0
100
AcDbLine
 10
149.875
 20
-16.025
 30
0.0
 11
149.875
 21
-3.024999999999999
 31
0.0
  0
LINE
  5
B4
330
6F
100
AcDbEntity
  8
0
370
     0
100
AcDbLine
 10
135.875
 20
-3.024999999999999
 30
0.0
 11
135.875
 21
-16.025
 31
0.0
  0
ARC
  5
B5
330
6F
100
AcDbEntity
  8
0
370
     0
100
AcDbCircle
 10
155.425
 20
-16.025
 30
0.0
 40
0.5
100
AcDbArc
 50
180.0
 51
270.0
  0
ARC
  5
B6
330
6F
100
AcDbEntity
  8
0
370
     0
100
AcDbCircle
 10
168.425
 20
-16.025
 30
0.0
 40
0.5
100
AcDbArc
 50
270.0
 51
0.0
  0
ARC
  5
B7
330
6F
100
AcDbEntity
  8
0
370
     0
100
AcDbCircle
 10
168.425
 20
-3.024999999999999
 30
0.0
 40
0.5
100
AcDbArc
 50
0.0
 51
90.0
  0
ARC
  5
B8
330
6F
100
AcDbEntity
  8
0
370
     0
100
AcDbCircle
 10
155.425
 20
-3.024999999999999
 30
0.0
 40
0.5
100
AcDbArc
 50
90.0
 51
180.0
  0
LINE
  5
B9
330
6F
100
AcDbEntity
  8
0
370
     0
100
AcDbLine
 10
155.425
 20
-16.525
 30
0.0
 11
168.425
 21
-16.525
 31
0.0
  0
LINE
  5
BA
330
6F
100
AcDbEntity
  8
0
370
     0
100
AcDbLine
 10
168.425
 20
-2.524999999999999
 30
0.0
 11
155.425
 21
-2.524999999999999
 31
0.0
  0
LINE
  5
BB
330
6F
100
AcDbEntity
  8
0
370
     0
100
AcDbLine
 10
168.925
 20
-16.025
 30
0.0
 11
168.925
 21
-3.024999999999999
 31
0.0
  0
LINE
  5
BC
330
6F
100
AcDbEntity
  8
0
370
     0
100
AcDbLine
 10
154.925
 20
-3.024999999999999
 30
0.0
 11
154.925
 21
-16.025
 31
0.0
  0
ARC
  5
BD
330
6F
100
AcDbEntity
  8
0
370
     0
100
AcDbCircle
 10
174.475
 20
-16.025
 30
0.0
 40
0.5
100
AcDbArc
 50
180.0
 51
270.0
  0
ARC
  5
BE
330
6F
100
AcDbEntity
  8
0
370
     0
100
AcDbCircle
 10
187.475
 20
-16.025
 30
0.0
 40
0.5
100
AcDbArc
 50
270.0
 51
0.0
  0
ARC
  5
BF
330
6F
100
AcDbEntity
  8
0
370
     0
100
AcDbCircle
 10
187.475
 20
-3.024999999999999
 30
0.0
 40
0.5
100
AcDbArc
 50
0.0
 51
90.0
  0
ARC
  5
C0
330
6F
100
AcDbEntity
  8
0
370
     0
100
AcDbCircle
 10
174.475
 20
-3.024999999999999
 30
0.0
 40
0.5
100
AcDbArc
 50
90.0
 51
180.0
  0
LINE
  5
C1
330
6F
100
AcDbEntity
  8
0
370
     0
100
AcDbLine
 10
174.475
 20
-16.525
 30
0.0
 11
187.475
 21
-16.525
 31
0.0
  0
LINE
  5
C2
330
6F
100
AcDbEntity
  8
0
370
     0
100
AcDbLine
 10
187.475
 20
-2.524999999999999
 30
0.0
 11
174.475
 21
-2.524999999999999
 31
0.0
  0
LINE
  5
C3
330
6F
100
AcDbEntity
  8
0
370
     0
100
AcDbLine
 10
187.975
 20
-16.025
 30
0.0
 11
187.975
 21
-3.024999999999999
 31
0.0
  0
LINE
  5
C4
330
6F
100
AcDbEntity
  8
0
370
     0
100
AcDbLine
 10
173.975
 20
-3.024999999999999
 30
0.0
 11
173.975
 21
-16.025
 31
0.0
  0
ARC
  5
C5
330
6F
100
AcDbEntity
  8
0
370
     0
100
AcDbCircle
 10
193.525
 20
-16.025
 30
0.0
 40
0.5
100
AcDbArc
 50
180.0
 51
270.0
  0
ARC
  5
C6
330
6F
100
AcDbEntity
  8
0
370
     0
100
AcDbCircle
 10
206.525
 20
-16.025
 30
0.0
 40
0.5
100
AcDbArc
 50
270.0
 51
0.0
  0
ARC
  5
C7
330
6F
100
AcDbEntity
  8
0
370
     0
100
AcDbCircle
 10
206.525
 20
-3.024999999999999
 30
0.0
 40
0.5
100
AcDbArc
 50
0.0
 51
90.0
  0
ARC
  5
C8
330
6F
100
AcDbEntity
  8
0
370
     0
100
AcDbCircle
 10
193.525
 20
-3.024999999999999
 30
0.0
 40
0.5
100
AcDbArc
 50
90.0
 51
180.0
  0
LINE
  5
C9
330
6F
100
AcDbEntity
  8
0
370
     0
100
AcDbLine
 10
193.525
 20
-16.525
 30
0.0
 11
206.525
 21
-16.525
 31
0.0
  0
LINE
  5
CA
330
6F
100
AcDbEntity
  8
0
370
     0
100
AcDbLine
 10
206.525
 20
-2.524999999999999
 30
0.0
 11
193.525
 21
-2.524999999999999
 31
0.0
  0
LINE
  5
CB
330
6F
100
AcDbEntity
  8
0
370
     0
100
AcDbLine
 10
207.025
 20
-16.025
 30
0.0
 11
207.025
 21
-3.024999999999999
 31
0.0
  0
LINE
  5
CC
330
6F
100
AcDbEntity
  8
0
370
     0
100
AcDbLine
 10
193.025
 20
-3.024999999999999
 30
0.0
 11
193.025
 21
-16.025
 31
0.0
  0
ARC
  5
CD
330
6F
100
AcDbEntity
  8
0
370
     0
100
AcDbCircle
 10
212.575
 20
-16.025
 30
0.0
 40
0.5
100
AcDbArc
 50
180.0
 51
270.0
  0
ARC
  5
CE
330
6F
100
AcDbEntity
  8
0
370
     0
100
AcDbCircle
 10
225.575
 20
-16.025
 30
0.0
 40
0.5
100
AcDbArc
 50
270.0
 51
0.0
  0
ARC
  5
CF
330
6F
100
AcDbEntity
  8
0
370
     0
100
AcDbCircle
 10
225.575
 20
-3.024999999999999
 30
0.0
 40
0.5
100
AcDbArc
 50
0.0
 51
90.0
  0
ARC
  5
D0
330
6F
100
AcDbEntity
  8
0
370
     0
100
AcDbCircle
 10
212.575
 20
-3.024999999999999
 30
0.0
 40
0.5
100
AcDbArc
 50
90.0
 51
180.0
  0
LINE
  5
D1
330
6F
100
AcDbEntity
  8
0
370
     0
100
AcDbLine
 10
212.575
 20
-16.525
 30
0.0
 11
225.575
 21
-16.525
 31
0.0
  0
LINE
  5
D2
330
6F
100
AcDbEntity
  8
0
370
     0
100
AcDbLine
 10
225.575
 20
-2.524999999999999
 30
0.0
 11
212.575
 21
-2.524999999999999
 31
0.0
  0
LINE
  5
D3
330
6F
100
AcDbEntity
  8
0
370
     0
100
AcDbLine
 10
226.075
 20
-16.025
 30
0.0
 11
226.075
 21
-3.024999999999999
 31
0.0
  0
LINE
  5
D4
330
6F
100
AcDbEntity
  8
0
370
     0
100
AcDbLine
 10
212.075
 20
-3.024999999999999
 30
0.0
 11
212.075
 21
-16.025
 31
0.0
  0
ARC
  5
D5
330
6F
100
AcDbEntity
  8
0
370
     0
100
AcDbCircle
 10
231.625
 20
-16.025
 30
0.0
 40
0.5
100
AcDbArc
 50
180.0
 51
270.0
  0
ARC
  5
D6
330
6F
100
AcDbEntity
  8
0
370
     0
100
AcDbCircle
 10
244.625
 20
-16.025
 30
0.0
 40
0.5
100
AcDbArc
 50
270.0
 51
0.0
  0
ARC
  5
D7
330
6F
100
AcDbEntity
  8
0
370
     0
100
AcDbCircle
 10
244.625
 20
-3.024999999999999
 30
0.0
 40
0.5
100
AcDbArc
 50
0.0
 51
90.0
  0
ARC
  5
D8
330
6F
100
AcDbEntity
  8
0
370
     0
100
AcDbCircle
 10
231.625
 20
-3.024999999999999
 30
0.0
 40
0.5
100
AcDbArc
 50
90.0
 51
180.0
  0
LINE
  5
D9
330
6F
100
AcDbEntity
  8
0
370
     0
100
AcDbLine
 10
231.625
 20
-16.525
 30
0.0
 11
244.625
 21
-16.525
 31
0.0
  0
LINE
  5
DA
330
6F
100
AcDbEntity
  8
0
370
     0
100
AcDbLine
 10
244.625
 20
-2.524999999999999
 30
0.0
 11
231.625
 21
-2.524999999999999
 31
0.0
  0
LINE
  5
DB
330
6F
100
AcDbEntity
  8
0
370
     0
100
AcDbLine
 10
245.125
 20
-16.025
 30
0.0
 11
245.125
 21
-3.024999999999999
 31
0.0
  0
LINE
  5
DC
330
6F
100
AcDbEntity
  8
0
370
     0
100
AcDbLine
 10
231.125
 20
-3.024999999999999
 30
0.0
 11
231.125
 21
-16.025
 31
0.0
  0
LINE
  5
E1
330
6F
100
AcDbEntity
  8
0
370
     0
100
AcDbLine
 10
258.762
 20
-16.525
 30
0.0
 11
274.638
 21
-16.525
 31
0.0
  0
LINE
  5
E2
330
6F
100
AcDbEntity
  8
0
370
     0
100
AcDbLine
 10
281.638
 20
-2.524999999999999
 30
0.0
 11
251.762
 21
-2.524999999999999
 31
0.0
  0
ARC
  5
E5
330
6F
100
AcDbEntity
  8
0
370
     0
100
AcDbCircle
 10
251.762
 20
-17.025
 30
0.0
 40
0.5
100
AcDbArc
 50
180.0
 51
270.0
  0
ARC
  5
E6
330
6F
100
AcDbEntity
  8
0
370
     0
100
AcDbCircle
 10
257.762
 20
-17.025
 30
0.0
 40
0.5
100
AcDbArc
 50
270.0
 51
0.0
  0
ARC
  5
E8
330
6F
100
AcDbEntity
  8
0
370
     0
100
AcDbCircle
 10
251.762
 20
-3.024999999999999
 30
0.0
 40
0.5
100
AcDbArc
 50
90.0
 51
180.0
  0
LINE
  5
E9
330
6F
100
AcDbEntity
  8
0
370
     0
100
AcDbLine
 10
251.762
 20
-17.525
 30
0.0
 11
257.762
 21
-17.525
 31
0.0
  0
LINE
  5
EC
330
6F
100
AcDbEntity
  8
0
370
     0
100
AcDbLine
 10
251.262
 20
-3.024999999999999
 30
0.0
 11
251.262
 21
-17.025
 31
0.0
  0
ARC
  5
ED
330
6F
100
AcDbEntity
  8
0
370
     0
100
AcDbCircle
 10
275.638
 20
-17.025
 30
0.0
 40
0.5
100
AcDbArc
 50
180.0
 51
270.0
  0
ARC
  5
EE
330
6F
100
AcDbEntity
  8
0
370
     0
100
AcDbCircle
 10
281.638
 20
-17.025
 30
0.0
 40
0.5
100
AcDbArc
 50
270.0
 51
0.0
  0
ARC
  5
EF
330
6F
100
AcDbEntity
  8
0
370
     0
100
AcDbCircle
 10
281.638
 20
-3.024999999999999
 30
0.0
 40
0.5
100
AcDbArc
 50
0.0
 51
90.0
  0
LINE
  5
F1
330
6F
100
AcDbEntity
  8
0
370
     0
100
AcDbLine
 10
275.638
 20
-17.525
 30
0.0
 11
281.638
 21
-17.525
 31
0.0
  0
LINE
  5
F3
330
6F
100
AcDbEntity
  8
0
370
     0
100
AcDbLine
 10
282.138
 20
-17.025
 30
0.0
 11
282.138
 21
-3.024999999999999
 31
0.0
  0
ARC
  5
F5
330
6F
100
AcDbEntity
  8
0
370
     0
100
AcDbCircle
 10
7.787499999999997
 20
-35.075
 30
0.0
 40
0.5
100
AcDbArc
 50
180.0
 51
270.0
  0
ARC
  5
F6
330
6F
100
AcDbEntity
  8
0
370
     0
100
AcDbCircle
 10
20.7875
 20
-35.075
 30
0.0
 40
0.5
100
AcDbArc
 50
270.0
 51
0.0
  0
ARC
  5
F7
330
6F
100
AcDbEntity
  8
0
370
     0
100
AcDbCircle
 10
20.7875
 20
-22.075
 30
0.0
 40
0.5
100
AcDbArc
 50
0.0
 51
90.0
  0
ARC
  5
F8
330
6F
100
AcDbEntity
  8
0
370
     0
100
AcDbCircle
 10
7.787499999999997
 20
-22.075
 30
0.0
 40
0.5
100
AcDbArc
 50
90.0
 51
180.0
  0
LINE
  5
F9
330
6F
100
AcDbEntity
  8
0
370
     0
100
AcDbLine
 10
7.787499999999997
 20
-35.575
 30
0.0
 11
20.7875
 21
-35.575
 31
0.0
  0
LINE
  5
FA
330
6F
100
AcDbEntity
  8
0
370
     0
100
AcDbLine
 10
20.7875
 20
-21.575
 30
0.0
 11
7.787499999999997
 21
-21.575
 31
0.0
  0
LINE
  5
FB
330
6F
100
AcDbEntity
  8
0
370
     0
100
AcDbLine
 10
21.2875
 20
-35.075
 30
0.0
 11
21.2875
 21
-22.075
 31
0.0
  0
LINE
  5
FC
330
6F
100
AcDbEntity
  8
0
370
     0
100
AcDbLine
 10
7.287499999999997
 20
-22.075
 30
0.0
 11
7.287499999999997
 21
-35.075
 31
0.0
  0
ARC
  5
10D
330
6F
100
AcDbEntity
  8
0
370
     0
100
AcDbCircle
 10
31.6
 20
-35.075
 30
0.0
 40
0.5
100
AcDbArc
 50
180.0
 51
270.0
  0
ARC
  5
10E
330
6F
100
AcDbEntity
  8
0
370
     0
100
AcDbCircle
 10
44.59999999999999
 20
-35.075
 30
0.0
 40
0.5
100
AcDbArc
 50
270.0
 51
0.0
  0
ARC
  5
10F
330
6F
100
AcDbEntity
  8
0
370
     0
100
AcDbCircle
 10
44.59999999999999
 20
-22.075
 30
0.0
 40
0.5
100
AcDbArc
 50
0.0
 51
90.0
  0
ARC
  5
110
330
6F
100
AcDbEntity
  8
0
370
     0
100
AcDbCircle
 10
31.6
 20
-22.075
 30
0.0
 40
0.5
100
AcDbArc
 50
90.0
 51
180.0
  0
LINE
  5
111
330
6F
100
AcDbEntity
  8
0
370
     0
100
AcDbLine
 10
31.6
 20
-35.575
 30
0.0
 11
44.59999999999999
 21
-35.575
 31
0.0
  0
LINE
  5
112
330
6F
100
AcDbEntity
  8
0
370
     0
100
AcDbLine
 10
44.59999999999999
 20
-21.575
 30
0.0
 11
31.6
 21
-21.575
 31
0.0
  0
LINE
  5
113
330
6F
100
AcDbEntity
  8
0
370
     0
100
AcDbLine
 10
45.1
 20
-35.075
 30
0.0
 11
45.1
 21
-22.075
 31
0.0
  0
LINE
  5
114
330
6F
100
AcDbEntity
  8
0
370
     0
100
AcDbLine
 10
31.1
 20
-22.075
 30
0.0
 11
31.1
 21
-35.075
 31
0.0
  0
ARC
  5
115
330
6F
100
AcDbEntity
  8
0
370
     0
100
AcDbCircle
 10
50.65
 20
-35.075
 30
0.0
 40
0.5
100
AcDbArc
 50
180.0
 51
270.0
  0
ARC
  5
116
330
6F
100
AcDbEntity
  8
0
370
     0
100
AcDbCircle
 10
63.65
 20
-35.075
 30
0.0
 40
0.5
100
AcDbArc
 50
270.0
 51
0.0
  0
ARC
  5
117
330
6F
100
AcDbEntity
  8
0
370
     0
100
AcDbCircle
 10
63.65
 20
-22.075
 30
0.0
 40
0.5
100
AcDbArc
 50
0.0
 51
90.0
  0
ARC
  5
118
330
6F
100
AcDbEntity
  8
0
370
     0
100
AcDbCircle
 10
50.65
 20
-22.075
 30
0.0
 40
0.5
100
AcDbArc
 50
90.0
 51
180.0
  0
LINE
  5
119
330
6F
100
AcDbEntity
  8
0
370
     0
100
AcDbLine
 10
50.65
 20
-35.575
 30
0.0
 11
63.65
 21
-35.575
 31
0.0
  0
LINE
  5
11A
330
6F
100
AcDbEntity
  8
0
370
     0
100
AcDbLine
 10
63.65
 20
-21.575
 30
0.0
 11
50.65
 21
-21.575
 31
0.0
  0
LINE
  5
11B
330
6F
100
AcDbEntity
  8
0
370
     0
100
AcDbLine
 10
64.15
 20
-35.075
 30
0.0
 11
64.15
 21
-22.075
 31
0.0
  0
LINE
  5
11C
330
6F
100
AcDbEntity
  8
0
370
     0
100
AcDbLine
 10
50.15
 20
-22.075
 30
0.0
 11
50.15
 21
-35.075
 31
0.0
  0
ARC
  5
11D
330
6F
100
AcDbEntity
  8
0
370
     0
100
AcDbCircle
 10
69.7
 20
-35.075
 30
0.0
 40
0.5
100
AcDbArc
 50
180.0
 51
270.0
  0
ARC
  5
11E
330
6F
100
AcDbEntity
  8
0
370
     0
100
AcDbCircle
 10
82.70000000000001
 20
-35.075
 30
0.0
 40
0.5
100
AcDbArc
 50
270.0
 51
0.0
  0
ARC
  5
11F
330
6F
100
AcDbEntity
  8
0
370
     0
100
AcDbCircle
 10
82.70000000000001
 20
-22.075
 30
0.0
 40
0.5
100
AcDbArc
 50
0.0
 51
90.0
  0
ARC
  5
120
330
6F
100
AcDbEntity
  8
0
370
     0
100
AcDbCircle
 10
69.7
 20
-22.075
 30
0.0
 40
0.5
100
AcDbArc
 50
90.0
 51
180.0
  0
LINE
  5
121
330
6F
100
AcDbEntity
  8
0
370
     0
100
AcDbLine
 10
69.7
 20
-35.575
 30
0.0
 11
82.70000000000001
 21
-35.575
 31
0.0
  0
LINE
  5
122
330
6F
100
AcDbEntity
  8
0
370
     0
100
AcDbLine
 10
82.70000000000001
 20
-21.575
 30
0.0
 11
69.7
 21
-21.575
 31
0.0
  0
LINE
  5
123
330
6F
100
AcDbEntity
  8
0
370
     0
100
AcDbLine
 10
83.2
 20
-35.075
 30
0.0
 11
83.2
 21
-22.075
 31
0.0
  0
LINE
  5
124
330
6F
100
AcDbEntity
  8
0
370
     0
100
AcDbLine
 10
69.2
 20
-22.075
 30
0.0
 11
69.2
 21
-35.075
 31
0.0
  0
ARC
  5
125
330
6F
100
AcDbEntity
  8
0
370
     0
100
AcDbCircle
 10
88.75
 20
-35.075
 30
0.0
 40
0.5
100
AcDbArc
 50
180.0
 51
270.0
  0
ARC
  5
126
330
6F
100
AcDbEntity
  8
0
370
     0
100
AcDbCircle
 10
101.75
 20
-35.075
 30
0.0
 40
0.5
100
AcDbArc
 50
270.0
 51
0.0
  0
ARC
  5
127
330
6F
100
AcDbEntity
  8
0
370
     0
100
AcDbCircle
 10
101.75
 20
-22.075
 30
0.0
 40
0.5
100
AcDbArc
 50
0.0
 51
90.0
  0
ARC
  5
128
330
6F
100
AcDbEntity
  8
0
370
     0
100
AcDbCircle
 10
88.75
 20
-22.075
 30
0.0
 40
0.5
100
AcDbArc
 50
90.0
 51
180.0
  0
LINE
  5
129
330
6F
100
AcDbEntity
  8
0
370
     0
100
AcDbLine
 10
88.75
 20
-35.575
 30
0.0
 11
101.75
 21
-35.575
 31
0.0
  0
LINE
  5
12A
330
6F
100
AcDbEntity
  8
0
370
     0
100
AcDbLine
 10
101.75
 20
-21.575
 30
0.0
 11
88.75
 21
-21.575
 31
0.0
  0
LINE
  5
12B
330
6F
100
AcDbEntity
  8
0
370
     0
100
AcDbLine
 10
102.25
 20
-35.075
 30
0.0
 11
102.25
 21
-22.075
 31
0.0
  0
LINE
  5
12C
330
6F
100
AcDbEntity
  8
0
370
     0
100
AcDbLine
 10
88.25000000000001
 20
-22.075
 30
0.0
 11
88.25000000000001
 21
-35.075
 31
0.0
  0
ARC
  5
12D
330
6F
100
AcDbEntity
  8
0
370
     0
100
AcDbCircle
 10
107.8
 20
-35.075
 30
0.0
 40
0.5
100
AcDbArc
 50
180.0
 51
270.0
  0
ARC
  5
12E
330
6F
100
AcDbEntity
  8
0
370
     0
100
AcDbCircle
 10
120.8
 20
-35.075
 30
0.0
 40
0.5
100
AcDbArc
 50
270.0
 51
0.0
  0
ARC
  5
12F
330
6F
100
AcDbEntity
  8
0
370
     0
100
AcDbCircle
 10
120.8
 20
-22.075
 30
0.0
 40
0.5
100
AcDbArc
 50
0.0
 51
90.0
  0
ARC
  5
130
330
6F
100
AcDbEntity
  8
0
370
     0
100
AcDbCircle
 10
107.8
 20
-22.075
 30
0.0
 40
0.5
100
AcDbArc
 50
90.0
 51
180.0
  0
LINE
  5
131
330
6F
100
AcDbEntity
  8
0
370
     0
100
AcDbLine
 10
107.8
 20
-35.575
 30
0.0
 11
120.8
 21
-35.575
 31
0.0
  0
LINE
  5
132
330
6F
100
AcDbEntity
  8
0
370
     0
100
AcDbLine
 10
120.8
 20
-21.575
 30
0.0
 11
107.8
 21
-21.575
 31
0.0
  0
LINE
  5
133
330
6F
100
AcDbEntity
  8
0
370
     0
100
AcDbLine
 10
121.3
 20
-35.075
 30
0.0
 11
121.3
 21
-22.075
 31
0.0
  0
LINE
  5
134
330
6F
100
AcDbEntity
  8
0
370
     0
100
AcDbLine
 10
107.3
 20
-22.075
 30
0.0
 11
107.3
 21
-35.075
 31
0.0
  0
ARC
  5
135
330
6F
100
AcDbEntity
  8
0
370
     0
100
AcDbCircle
 10
126.85
 20
-35.075
 30
0.0
 40
0.5
100
AcDbArc
 50
180.0
 51
270.0
  0
ARC
  5
136
330
6F
100
AcDbEntity
  8
0
370
     0
100
AcDbCircle
 10
139.85
 20
-35.075
 30
0.0
 40
0.5
100
AcDbArc
 50
270.0
 51
0.0
  0
ARC
  5
137
330
6F
100
AcDbEntity
  8
0
370
     0
100
AcDbCircle
 10
139.85
 20
-22.075
 30
0.0
 40
0.5
100
AcDbArc
 50
0.0
 51
90.0
  0
ARC
  5
138
330
6F
100
AcDbEntity
  8
0
370
     0
100
AcDbCircle
 10
126.85
 20
-22.075
 30
0.0
 40
0.5
100
AcDbArc
 50
90.0
 51
180.0
  0
LINE
  5
139
330
6F
100
AcDbEntity
  8
0
370
     0
100
AcDbLine
 10
126.85
 20
-35.575
 30
0.0
 11
139.85
 21
-35.575
 31
0.0
  0
LINE
  5
13A
330
6F
100
AcDbEntity
  8
0
370
     0
100
AcDbLine
 10
139.85
 20
-21.575
 30
0.0
 11
126.85
 21
-21.575
 31
0.0
  0
LINE
  5
13B
330
6F
100
AcDbEntity
  8
0
370
     0
100
AcDbLine
 10
140.35
 20
-35.075
 30
0.0
 11
140.35
 21
-22.075
 31
0.0
  0
LINE
  5
13C
330
6F
100
AcDbEntity
  8
0
370
     0
100
AcDbLine
 10
126.35
 20
-22.075
 30
0.0
 11
126.35
 21
-35.075
 31
0.0
  0
ARC
  5
13D
330
6F
100
AcDbEntity
  8
0
370
     0
100
AcDbCircle
 10
145.9
 20
-35.075
 30
0.0
 40
0.5
100
AcDbArc
 50
180.0
 51
270.0
  0
ARC
  5
13E
330
6F
100
AcDbEntity
  8
0
370
     0
100
AcDbCircle
 10
158.9
 20
-35.075
 30
0.0
 40
0.5
100
AcDbArc
 50
270.0
 51
0.0
  0
ARC
  5
13F
330
6F
100
AcDbEntity
  8
0
370
     0
100
AcDbCircle
 10
158.9
 20
-22.075
 30
0.0
 40
0.5
100
AcDbArc
 50
0.0
 51
90.0
  0
ARC
  5
140
330
6F
100
AcDbEntity
  8
0
370
     0
100
AcDbCircle
 10
145.9
 20
-22.075
 30
0.0
 40
0.5
100
AcDbArc
 50
90.0
 51
180.0
  0
LINE
  5
141
330
6F
100
AcDbEntity
  8
0
370
     0
100
AcDbLine
 10
145.9
 20
-35.575
 30
0.0
 11
158.9
 21
-35.575
 31
0.0
  0
LINE
  5
142
330
6F
100
AcDbEntity
  8
0
370
     0
100
AcDbLine
 10
158.9
 20
-21.575
 30
0.0
 11
145.9
 21
-21.575
 31
0.0
  0
LINE
  5
143
330
6F
100
AcDbEntity
  8
0
370
     0
100
AcDbLine
 10
159.4
 20
-35.075
 30
0.0
 11
159.4
 21
-22.075
 31
0.0
  0
LINE
  5
144
330
6F
100
AcDbEntity
  8
0
370
     0
100
AcDbLine
 10
145.4
 20
-22.075
 30
0.0
 11
145.4
 21
-35.075
 31
0.0
  0
ARC
  5
145
330
6F
100
AcDbEntity
  8
0
370
     0
100
AcDbCircle
 10
164.95
 20
-35.075
 30
0.0
 40
0.5
100
AcDbArc
 50
180.0
 51
270.0
  0
ARC
  5
146
330
6F
100
AcDbEntity
  8
0
370
     0
100
AcDbCircle
 10
177.95
 20
-35.075
 30
0.0
 40
0.5
100
AcDbArc
 50
270.0
 51
0.0
  0
ARC
  5
147
330
6F
100
AcDbEntity
  8
0
370
     0
100
AcDbCircle
 10
177.95
 20
-22.075
 30
0.0
 40
0.5
100
AcDbArc
 50
0.0
 51
90.0
  0
ARC
  5
148
330
6F
100
AcDbEntity
  8
0
370
     0
100
AcDbCircle
 10
164.95
 20
-22.075
 30
0.0
 40
0.5
100
AcDbArc
 50
90.0
 51
180.0
  0
LINE
  5
149
330
6F
100
AcDbEntity
  8
0
370
     0
100
AcDbLine
 10
164.95
 20
-35.575
 30
0.0
 11
177.95
 21
-35.575
 31
0.0
  0
LINE
  5
14A
330
6F
100
AcDbEntity
  8
0
370
     0
100
AcDbLine
 10
177.95
 20
-21.575
 30
0.0
 11
164.95
 21
-21.575
 31
0.0
  0
LINE
  5
14B
330
6F
100
AcDbEntity
  8
0
370
     0
100
AcDbLine
 10
178.45
 20
-35.075
 30
0.0
 11
178.45
 21
-22.075
 31
0.0
  0
LINE
  5
14C
330
6F
100
AcDbEntity
  8
0
370
     0
100
AcDbLine
 10
164.45
 20
-22.075
 30
0.0
 11
164.45
 21
-35.075
 31
0.0
  0
ARC
  5
14D
330
6F
100
AcDbEntity
  8
0
370
     0
100
AcDbCircle
 10
184.0
 20
-35.075
 30
0.0
 40
0.5
100
AcDbArc
 50
180.0
 51
270.0
  0
ARC
  5
14E
330
6F
100
AcDbEntity
  8
0
370
     0
100
AcDbCircle
 10
197.0
 20
-35.075
 30
0.0
 40
0.5
100
AcDbArc
 50
270.0
 51
0.0
  0
ARC
  5
14F
330
6F
100
AcDbEntity
  8
0
370
     0
100
AcDbCircle
 10
197.0
 20
-22.075
 30
0.0
 40
0.5
100
AcDbArc
 50
0.0
 51
90.0
  0
ARC
  5
150
330
6F
100
AcDbEntity
  8
0
370
     0
100
AcDbCircle
 10
184.0
 20
-22.075
 30
0.0
 40
0.5
100
AcDbArc
 50
90.0
 51
180.0
  0
LINE
  5
151
330
6F
100
AcDbEntity
  8
0
370
     0
100
AcDbLine
 10
184.0
 20
-35.575
 30
0.0
 11
197.0
 21
-35.575
 31
0.0
  0
LINE
  5
152
330
6F
100
AcDbEntity
  8
0
370
     0
100
AcDbLine
 10
197.0
 20
-21.575
 30
0.0
 11
184.0
 21
-21.575
 31
0.0
  0
LINE
  5
153
330
6F
100
AcDbEntity
  8
0
370
     0
100
AcDbLine
 10
197.5
 20
-35.075
 30
0.0
 11
197.5
 21
-22.075
 31
0.0
  0
LINE
  5
154
330
6F
100
AcDbEntity
  8
0
370
     0
100
AcDbLine
 10
183.5
 20
-22.075
 30
0.0
 11
183.5
 21
-35.075
 31
0.0
  0
ARC
  5
155
330
6F
100
AcDbEntity
  8
0
370
     0
100
AcDbCircle
 10
203.05
 20
-35.075
 30
0.0
 40
0.5
100
AcDbArc
 50
180.0
 51
270.0
  0
ARC
  5
156
330
6F
100
AcDbEntity
  8
0
370
     0
100
AcDbCircle
 10
216.05
 20
-35.075
 30
0.0
 40
0.5
100
AcDbArc
 50
270.0
 51
0.0
  0
ARC
  5
157
330
6F
100
AcDbEntity
  8
0
370
     0
100
AcDbCircle
 10
216.05
 20
-22.075
 30
0.0
 40
0.5
100
AcDbArc
 50
0.0
 51
90.0
  0
ARC
  5
158
330
6F
100
AcDbEntity
  8
0
370
     0
100
AcDbCircle
 10
203.05
 20
-22.075
 30
0.0
 40
0.5
100
AcDbArc
 50
90.0
 51
180.0
  0
LINE
  5
159
330
6F
100
AcDbEntity
  8
0
370
     0
100
AcDbLine
 10
203.05
 20
-35.575
 30
0.0
 11
216.05
 21
-35.575
 31
0.0
  0
LINE
  5
15A
330
6F
100
AcDbEntity
  8
0
370
     0
100
AcDbLine
 10
216.05
 20
-21.575
 30
0.0
 11
203.05
 21
-21.575
 31
0.0
  0
LINE
  5
15B
330
6F
100
AcDbEntity
  8
0
370
     0
100
AcDbLine
 10
216.55
 20
-35.075
 30
0.0
 11
216.55
 21
-22.075
 31
0.0
  0
LINE
  5
15C
330
6F
100
AcDbEntity
  8
0
370
     0
100
AcDbLine
 10
202.55
 20
-22.075
 30
0.0
 11
202.55
 21
-35.075
 31
0.0
  0
ARC
  5
15D
330
6F
100
AcDbEntity
  8
0
370
     0
100
AcDbCircle
 10
222.1
 20
-35.075
 30
0.0
 40
0.5
100
AcDbArc
 50
180.0
 51
270.0
  0
ARC
  5
15E
330
6F
100
AcDbEntity
  8
0
370
     0
100
AcDbCircle
 10
235.1
 20
-35.075
 30
0.0
 40
0.5
100
AcDbArc
 50
270.0
 51
0.0
  0
ARC
  5
15F
330
6F
100
AcDbEntity
  8
0
370
     0
100
AcDbCircle
 10
235.1
 20
-22.075
 30
0.0
 40
0.5
100
AcDbArc
 50
0.0
 51
90.0
  0
ARC
  5
160
330
6F
100
AcDbEntity
  8
0
370
     0
100
AcDbCircle
 10
222.1
 20
-22.075
 30
0.0
 40
0.5
100
AcDbArc
 50
90.0
 51
180.0
  0
LINE
  5
161
330
6F
100
AcDbEntity
  8
0
370
     0
100
AcDbLine
 10
222.1
 20
-35.575
 30
0.0
 11
235.1
 21
-35.575
 31
0.0
  0
LINE
  5
162
330
6F
100
AcDbEntity
  8
0
370
     0
100
AcDbLine
 10
235.1
 20
-21.575
 30
0.0
 11
222.1
 21
-21.575
 31
0.0
  0
LINE
  5
163
330
6F
100
AcDbEntity
  8
0
370
     0
100
AcDbLine
 10
235.6
 20
-35.075
 30
0.0
 11
235.6
 21
-22.075
 31
0.0
  0
LINE
  5
164
330
6F
100
AcDbEntity
  8
0
370
     0
100
AcDbLine
 10
221.6
 20
-22.075
 30
0.0
 11
221.6
 21
-35.075
 31
0.0
  0
ARC
  5
165
330
6F
100
AcDbEntity
  8
0
370
     0
100
AcDbCircle
 10
241.15
 20
-35.075
 30
0.0
 40
0.5
100
AcDbArc
 50
180.0
 51
270.0
  0
ARC
  5
166
330
6F
100
AcDbEntity
  8
0
370
     0
100
AcDbCircle
 10
254.15
 20
-35.075
 30
0.0
 40
0.5
100
AcDbArc
 50
270.0
 51
0.0
  0
ARC
  5
167
330
6F
100
AcDbEntity
  8
0
370
     0
100
AcDbCircle
 10
254.15
 20
-22.075
 30
0.0
 40
0.5
100
AcDbArc
 50
0.0
 51
90.0
  0
ARC
  5
168
330
6F
100
AcDbEntity
  8
0
370
     0
100
AcDbCircle
 10
241.15
 20
-22.075
 30
0.0
 40
0.5
100
AcDbArc
 50
90.0
 51
180.0
  0
LINE
  5
169
330
6F
100
AcDbEntity
  8
0
370
     0
100
AcDbLine
 10
241.15
 20
-35.575
 30
0.0
 11
254.15
 21
-35.575
 31
0.0
  0
LINE
  5
16A
330
6F
100
AcDbEntity
  8
0
370
     0
100
AcDbLine
 10
254.15
 20
-21.575
 30
0.0
 11
241.15
 21
-21.575
 31
0.0
  0
LINE
  5
16B
330
6F
100
AcDbEntity
  8
0
370
     0
100
AcDbLine
 10
254.65
 20
-35.075
 30
0.0
 11
254.65
 21
-22.075
 31
0.0
  0
LINE
  5
16C
330
6F
100
AcDbEntity
  8
0
370
     0
100
AcDbLine
 10
240.65
 20
-22.075
 30
0.0
 11
240.65
 21
-35.075
 31
0.0
  0
ARC
  5
16D
330
6F
100
AcDbEntity
  8
0
370
     0
100
AcDbCircle
 10
264.9625
 20
-35.075
 30
0.0
 40
0.5
100
AcDbArc
 50
180.0
 51
270.0
  0
ARC
  5
16E
330
6F
100
AcDbEntity
  8
0
370
     0
100
AcDbCircle
 10
277.9625
 20
-22.075
 30
0.0
 40
0.5
100
AcDbArc
 50
0.0
 51
90.0
  0
ARC
  5
16F
330
6F
100
AcDbEntity
  8
0
370
     0
100
AcDbCircle
 10
264.9625
 20
-22.075
 30
0.0
 40
0.5
100
AcDbArc
 50
90.0
 51
180.0
  0
LINE
  5
170
330
6F
100
AcDbEntity
  8
0
370
     0
100
AcDbLine
 10
264.9625
 20
-35.575
 30
0.0
 11
266.34375
 21
-35.575
 31
0.0
  0
LINE
  5
171
330
6F
100
AcDbEntity
  8
0
370
     0
100
AcDbLine
 10
277.9625
 20
-21.575
 30
0.0
 11
264.9625
 21
-21.575
 31
0.0
  0
LINE
  5
173
330
6F
100
AcDbEntity
  8
0
370
     0
100
AcDbLine
 10
278.4625
 20
-22.162
 30
0.0
 11
278.4625
 21
-22.075
 31
0.0
  0
LINE
  5
174
330
6F
100
AcDbEntity
  8
0
370
     0
100
AcDbLine
 10
264.4625
 20
-22.075
 30
0.0
 11
264.4625
 21
-35.075
 31
0.0
  0
LINE
  5
18A
330
6F
100
AcDbEntity
  8
0
370
     0
100
AcDbLine
 10
280.84375
 20
-53.038
 30
0.0
 11
280.84375
 21
-23.162
 31
0.0
  0
LINE
  5
18B
330
6F
100
AcDbEntity
  8
0
370
     0
100
AcDbLine
 10
266.84375
 20
-36.075
 30
0.0
 11
266.8438
 21
-40.125
 31
0.0
  0
ARC
  5
18D
330
6F
100
AcDbEntity
  8
0
370
     0
100
AcDbCircle
 10
280.34375
 20
-23.162
 30
0.0
 40
0.5
100
AcDbArc
 50
0.0
 51
90.0
  0
LINE
  5
190
330
6F
100
AcDbEntity
  8
0
370
     0
100
AcDbLine
 10
280.34375
 20
-22.662
 30
0.0
 11
278.9625
 21
-22.662
 31
0.0
  0
ARC
  5
191
330
6F
100
AcDbEntity
  8
0
370
     0
100
AcDbCircle
 10
280.34375
 20
-53.038
 30
0.0
 40
0.5
100
AcDbArc
 50
270.0
 51
0.0
  0
LINE
  5
195
330
6F
100
AcDbEntity
  8
0
370
     0
100
AcDbLine
 10
280.2567500000001
 20
-53.53799999999999
 30
0.0
 11
280.34375
 21
-53.538
 31
0.0
  0
ARC
  5
198
330
6F
100
AcDbEntity
  8
0
370
     0
100
AcDbCircle
 10
23.16875
 20
-54.125
 30
0.0
 40
0.5
100
AcDbArc
 50
270.0
 51
0.0
  0
ARC
  5
199
330
6F
100
AcDbEntity
  8
0
370
     0
100
AcDbCircle
 10
23.16875
 20
-41.12499999999999
 30
0.0
 40
0.5
100
AcDbArc
 50
0.0
 51
90.0
  0
LINE
  5
19E
330
6F
100
AcDbEntity
  8
0
370
     0
100
AcDbLine
 10
23.66875
 20
-54.125
 30
0.0
 11
23.66875
 21
-41.12499999999999
 31
0.0
  0
ARC
  5
19F
330
6F
100
AcDbEntity
  8
0
370
     0
100
AcDbCircle
 10
5.40625
 20
-54.125
 30
0.0
 40
0.5
100
AcDbArc
 50
180.0
 51
270.0
  0
ARC
  5
1A0
330
6F
100
AcDbEntity
  8
0
370
     0
100
AcDbCircle
 10
5.40625
 20
-41.12499999999999
 30
0.0
 40
0.5
100
AcDbArc
 50
90.0
 51
180.0
  0
LINE
  5
1A3
330
6F
100
AcDbEntity
  8
0
370
     0
100
AcDbLine
 10
4.90625
 20
-41.12499999999999
 30
0.0
 11
4.90625
 21
-54.125
 31
0.0
  0
ARC
  5
1A4
330
6F
100
AcDbEntity
  8
0
370
     0
100
AcDbCircle
 10
36.3625
 20
-54.125
 30
0.0
 40
0.5
100
AcDbArc
 50
180.0
 51
270.0
  0
ARC
  5
1A5
330
6F
100
AcDbEntity
  8
0
370
     0
100
AcDbCircle
 10
49.3625
 20
-54.125
 30
0.0
 40
0.5
100
AcDbArc
 50
270.0
 51
0.0
  0
ARC
  5
1A6
330
6F
100
AcDbEntity
  8
0
370
     0
100
AcDbCircle
 10
49.3625
 20
-41.12499999999999
 30
0.0
 40
0.5
100
AcDbArc
 50
0.0
 51
90.0
  0
ARC
  5
1A7
330
6F
100
AcDbEntity
  8
0
370
     0
100
AcDbCircle
 10
36.3625
 20
-41.12499999999999
 30
0.0
 40
0.5
100
AcDbArc
 50
90.0
 51
180.0
  0
LINE
  5
1A8
330
6F
100
AcDbEntity
  8
0
370
     0
100
AcDbLine
 10
36.3625
 20
-54.625
 30
0.0
 11
49.3625
 21
-54.625
 31
0.0
  0
LINE
  5
1A9
330
6F
100
AcDbEntity
  8
0
370
     0
100
AcDbLine
 10
49.3625
 20
-40.625
 30
0.0
 11
36.3625
 21
-40.625
 31
0.0
  0
LINE
  5
1AA
330
6F
100
AcDbEntity
  8
0
370
     0
100
AcDbLine
 10
49.8625
 20
-54.125
 30
0.0
 11
49.8625
 21
-41.12499999999999
 31
0.0
  0
LINE
  5
1AB
330
6F
100
AcDbEntity
  8
0
370
     0
100
AcDbLine
 10
35.8625
 20
-41.12499999999999
 30
0.0
 11
35.8625
 21
-54.125
 31
0.0
  0
ARC
  5
1AC
330
6F
100
AcDbEntity
  8
0
370
     0
100
AcDbCircle
 10
55.4125
 20
-54.125
 30
0.0
 40
0.5
100
AcDbArc
 50
180.0
 51
270.0
  0
ARC
  5
1AD
330
6F
100
AcDbEntity
  8
0
370
     0
100
AcDbCircle
 10
68.41249999999999
 20
-54.125
 30
0.0
 40
0.5
100
AcDbArc
 50
270.0
 51
0.0
  0
ARC
  5
1AE
330
6F
100
AcDbEntity
  8
0
370
     0
100
AcDbCircle
 10
68.41249999999999
 20
-41.12499999999999
 30
0.0
 40
0.5
100
AcDbArc
 50
0.0
 51
90.0
  0
ARC
  5
1AF
330
6F
100
AcDbEntity
  8
0
370
     0
100
AcDbCircle
 10
55.4125
 20
-41.12499999999999
 30
0.0
 40
0.5
100
AcDbArc
 50
90.0
 51
180.0
  0
LINE
  5
1B0
330
6F
100
AcDbEntity
  8
0
370
     0
100
AcDbLine
 10
55.4125
 20
-54.625
 30
0.0
 11
68.41249999999999
 21
-54.625
 31
0.0
  0
LINE
  5
1B1
330
6F
100
AcDbEntity
  8
0
370
     0
100
AcDbLine
 10
68.41249999999999
 20
-40.625
 30
0.0
 11
55.4125
 21
-40.625
 31
0.0
  0
LINE
  5
1B2
330
6F
100
AcDbEntity
  8
0
370
     0
100
AcDbLine
 10
68.91249999999999
 20
-54.125
 30
0.0
 11
68.91249999999999
 21
-41.12499999999999
 31
0.0
  0
LINE
  5
1B3
330
6F
100
AcDbEntity
  8
0
370
     0
100
AcDbLine
 10
54.9125
 20
-41.12499999999999
 30
0.0
 11
54.9125
 21
-54.125
 31
0.0
  0
ARC
  5
1B4
330
6F
100
AcDbEntity
  8
0
370
     0
100
AcDbCircle
 10
74.4625
 20
-54.125
 30
0.0
 40
0.5
100
AcDbArc
 50
180.0
 51
270.0
  0
ARC
  5
1B5
330
6F
100
AcDbEntity
  8
0
370
     0
100
AcDbCircle
 10
87.46250000000001
 20
-54.125
 30
0.0
 40
0.5
100
AcDbArc
 50
270.0
 51
0.0
  0
ARC
  5
1B6
330
6F
100
AcDbEntity
  8
0
370
     0
100
AcDbCircle
 10
87.46250000000001
 20
-41.12499999999999
 30
0.0
 40
0.5
100
AcDbArc
 50
0.0
 51
90.0
  0
ARC
  5
1B7
330
6F
100
AcDbEntity
  8
0
370
     0
100
AcDbCircle
 10
74.4625
 20
-41.12499999999999
 30
0.0
 40
0.5
100
AcDbArc
 50
90.0
 51
180.0
  0
LINE
  5
1B8
330
6F
100
AcDbEntity
  8
0
370
     0
100
AcDbLine
 10
74.4625
 20
-54.625
 30
0.0
 11
87.46250000000001
 21
-54.625
 31
0.0
  0
LINE
  5
1B9
330
6F
100
AcDbEntity
  8
0
370
     0
100
AcDbLine
 10
87.46250000000001
 20
-40.625
 30
0.0
 11
74.4625
 21
-40.625
 31
0.0
  0
LINE
  5
1BA
330
6F
100
AcDbEntity
  8
0
370
     0
100
AcDbLine
 10
87.9625
 20
-54.125
 30
0.0
 11
87.9625
 21
-41.12499999999999
 31
0.0
  0
LINE
  5
1BB
330
6F
100
AcDbEntity
  8
0
370
     0
100
AcDbLine
 10
73.96250000000001
 20
-41.12499999999999
 30
0.0
 11
73.96250000000001
 21
-54.125
 31
0.0
  0
ARC
  5
1BC
330
6F
100
AcDbEntity
  8
0
370
     0
100
AcDbCircle
 10
93.5125
 20
-54.125
 30
0.0
 40
0.5
100
AcDbArc
 50
180.0
 51
270.0
  0
ARC
  5
1BD
330
6F
100
AcDbEntity
  8
0
370
     0
100
AcDbCircle
 10
106.5125
 20
-54.125
 30
0.0
 40
0.5
100
AcDbArc
 50
270.0
 51
0.0
  0
ARC
  5
1BE
330
6F
100
AcDbEntity
  8
0
370
     0
100
AcDbCircle
 10
106.5125
 20
-41.12499999999999
 30
0.0
 40
0.5
100
AcDbArc
 50
0.0
 51
90.0
  0
ARC
  5
1BF
330
6F
100
AcDbEntity
  8
0
370
     0
100
AcDbCircle
 10
93.5125
 20
-41.12499999999999
 30
0.0
 40
0.5
100
AcDbArc
 50
90.0
 51
180.0
  0
LINE
  5
1C0
330
6F
100
AcDbEntity
  8
0
370
     0
100
AcDbLine
 10
93.5125
 20
-54.625
 30
0.0
 11
106.5125
 21
-54.625
 31
0.0
  0
LINE
  5
1C1
330
6F
100
AcDbEntity
  8
0
370
     0
100
AcDbLine
 10
106.5125
 20
-40.625
 30
0.0
 11
93.5125
 21
-40.625
 31
0.0
  0
LINE
  5
1C2
330
6F
100
AcDbEntity
  8
0
370
     0
100
AcDbLine
 10
107.0125
 20
-54.125
 30
0.0
 11
107.0125
 21
-41.12499999999999
 31
0.0
  0
LINE
  5
1C3
330
6F
100
AcDbEntity
  8
0
370
     0
100
AcDbLine
 10
93.01250000000001
 20
-41.12499999999999
 30
0.0
 11
93.01250000000001
 21
-54.125
 31
0.0
  0
ARC
  5
1C4
330
6F
100
AcDbEntity
  8
0
370
     0
100
AcDbCircle
 10
112.5625
 20
-54.125
 30
0.0
 40
0.5
100
AcDbArc
 50
180.0
 51
270.0
  0
ARC
  5
1C5
330
6F
100
AcDbEntity
  8
0
370
     0
100
AcDbCircle
 10
125.5625
 20
-54.125
 30
0.0
 40
0.5
100
AcDbArc
 50
270.0
 51
0.0
  0
ARC
  5
1C6
330
6F
100
AcDbEntity
  8
0
370
     0
100
AcDbCircle
 10
125.5625
 20
-41.12499999999999
 30
0.0
 40
0.5
100
AcDbArc
 50
0.0
 51
90.0
  0
ARC
  5
1C7
330
6F
100
AcDbEntity
  8
0
370
     0
100
AcDbCircle
 10
112.5625
 20
-41.12499999999999
 30
0.0
 40
0.5
100
AcDbArc
 50
90.0
 51
180.0
  0
LINE
  5
1C8
330
6F
100
AcDbEntity
  8
0
370
     0
100
AcDbLine
 10
112.5625
 20
-54.625
 30
0.0
 11
125.5625
 21
-54.625
 31
0.0
  0
LINE
  5
1C9
330
6F
100
AcDbEntity
  8
0
370
     0
100
AcDbLine
 10
125.5625
 20
-40.625
 30
0.0
 11
112.5625
 21
-40.625
 31
0.0
  0
LINE
  5
1CA
330
6F
100
AcDbEntity
  8
0
370
     0
100
AcDbLine
 10
126.0625
 20
-54.125
 30
0.0
 11
126.0625
 21
-41.12499999999999
 31
0.0
  0
LINE
  5
1CB
330
6F
100
AcDbEntity
  8
0
370
     0
100
AcDbLine
 10
112.0625
 20
-41.12499999999999
 30
0.0
 11
112.0625
 21
-54.125
 31
0.0
  0
ARC
  5
1CC
330
6F
100
AcDbEntity
  8
0
370
     0
100
AcDbCircle
 10
131.6125
 20
-54.125
 30
0.0
 40
0.5
100
AcDbArc
 50
180.0
 51
270.0
  0
ARC
  5
1CD
330
6F
100
AcDbEntity
  8
0
370
     0
100
AcDbCircle
 10
144.6125
 20
-54.125
 30
0.0
 40
0.5
100
AcDbArc
 50
270.0
 51
0.0
  0
ARC
  5
1CE
330
6F
100
AcDbEntity
  8
0
370
     0
100
AcDbCircle
 10
144.6125
 20
-41.12499999999999
 30
0.0
 40
0.5
100
AcDbArc
 50
0.0
 51
90.0
  0
ARC
  5
1CF
330
6F
100
AcDbEntity
  8
0
370
     0
100
AcDbCircle
 10
131.6125
 20
-41.12499999999999
 30
0.0
 40
0.5
100
AcDbArc
 50
90.0
 51
180.0
  0
LINE
  5
1D0
330
6F
100
AcDbEntity
  8
0
370
     0
100
AcDbLine
 10
131.6125
 20
-54.625
 30
0.0
 11
144.6125
 21
-54.625
 31
0.0
  0
LINE
  5
1D1
330
6F
100
AcDbEntity
  8
0
370
     0
100
AcDbLine
 10
144.6125
 20
-40.625
 30
0.0
 11
131.6125
 21
-40.625
 31
0.0
  0
LINE
  5
1D2
330
6F
100
AcDbEntity
  8
0
370
     0
100
AcDbLine
 10
145.1125
 20
-54.125
 30
0.0
 11
145.1125
 21
-41.12499999999999
 31
0.0
  0
LINE
  5
1D3
330
6F
100
AcDbEntity
  8
0
370
     0
100
AcDbLine
 10
131.1125
 20
-41.12499999999999
 30
0.0
 11
131.1125
 21
-54.125
 31
0.0
  0
ARC
  5
1D4
330
6F
100
AcDbEntity
  8
0
370
     0
100
AcDbCircle
 10
150.6625
 20
-54.125
 30
0.0
 40
0.5
100
AcDbArc
 50
180.0
 51
270.0
  0
ARC
  5
1D5
330
6F
100
AcDbEntity
  8
0
370
     0
100
AcDbCircle
 10
163.6625
 20
-54.125
 30
0.0
 40
0.5
100
AcDbArc
 50
270.0
 51
0.0
  0
ARC
  5
1D6
330
6F
100
AcDbEntity
  8
0
370
     0
100
AcDbCircle
 10
163.6625
 20
-41.12499999999999
 30
0.0
 40
0.5
100
AcDbArc
 50
0.0
 51
90.0
  0
ARC
  5
1D7
330
6F
100
AcDbEntity
  8
0
370
     0
100
AcDbCircle
 10
150.6625
 20
-41.12499999999999
 30
0.0
 40
0.5
100
AcDbArc
 50
90.0
 51
180.0
  0
LINE
  5
1D8
330
6F
100
AcDbEntity
  8
0
370
     0
100
AcDbLine
 10
150.6625
 20
-54.625
 30
0.0
 11
163.6625
 21
-54.625
 31
0.0
  0
LINE
  5
1D9
330
6F
100
AcDbEntity
  8
0
370
     0
100
AcDbLine
 10
163.6625
 20
-40.625
 30
0.0
 11
150.6625
 21
-40.625
 31
0.0
  0
LINE
  5
1DA
330
6F
100
AcDbEntity
  8
0
370
     0
100
AcDbLine
 10
164.1625
 20
-54.125
 30
0.0
 11
164.1625
 21
-41.12499999999999
 31
0.0
  0
LINE
  5
1DB
330
6F
100
AcDbEntity
  8
0
370
     0
100
AcDbLine
 10
150.1625
 20
-41.12499999999999
 30
0.0
 11
150.1625
 21
-54.125
 31
0.0
  0
ARC
  5
1DC
330
6F
100
AcDbEntity
  8
0
370
     0
100
AcDbCircle
 10
169.7125
 20
-54.125
 30
0.0
 40
0.5
100
AcDbArc
 50
180.0
 51
270.0
  0
ARC
  5
1DD
330
6F
100
AcDbEntity
  8
0
370
     0
100
AcDbCircle
 10
182.7125
 20
-54.125
 30
0.0
 40
0.5
100
AcDbArc
 50
270.0
 51
0.0
  0
ARC
  5
1DE
330
6F
100
AcDbEntity
  8
0
370
     0
100
AcDbCircle
 10
182.7125
 20
-41.12499999999999
 30
0.0
 40
0.5
100
AcDbArc
 50
0.0
 51
90.0
  0
ARC
  5
1DF
330
6F
100
AcDbEntity
  8
0
370
     0
100
AcDbCircle
 10
169.7125
 20
-41.12499999999999
 30
0.0
 40
0.5
100
AcDbArc
 50
90.0
 51
180.0
  0
LINE
  5
1E0
330
6F
100
AcDbEntity
  8
0
370
     0
100
AcDbLine
 10
169.7125
 20
-54.625
 30
0.0
 11
182.7125
 21
-54.625
 31
0.0
  0
LINE
  5
1E1
330
6F
100
AcDbEntity
  8
0
370
     0
100
AcDbLine
 10
182.7125
 20
-40.625
 30
0.0
 11
169.7125
 21
-40.625
 31
0.0
  0
LINE
  5
1E2
330
6F
100
AcDbEntity
  8
0
370
     0
100
AcDbLine
 10
183.2125
 20
-54.125
 30
0.0
 11
183.2125
 21
-41.12499999999999
 31
0.0
  0
LINE
  5
1E3
330
6F
100
AcDbEntity
  8
0
370
     0
100
AcDbLine
 10
169.2125
 20
-41.12499999999999
 30
0.0
 11
169.2125
 21
-54.125
 31
0.0
  0
ARC
  5
1E4
330
6F
100
AcDbEntity
  8
0
370
     0
100
AcDbCircle
 10
188.7625
 20
-54.125
 30
0.0
 40
0.5
100
AcDbArc
 50
180.0
 51
270.0
  0
ARC
  5
1E5
330
6F
100
AcDbEntity
  8
0
370
     0
100
AcDbCircle
 10
201.7625
 20
-54.125
 30
0.0
 40
0.5
100
AcDbArc
 50
270.0
 51
0.0
  0
ARC
  5
1E6
330
6F
100
AcDbEntity
  8
0
370
     0
100
AcDbCircle
 10
201.7625
 20
-41.12499999999999
 30
0.0
 40
0.5
100
AcDbArc
 50
0.0
 51
90.0
  0
ARC
  5
1E7
330
6F
100
AcDbEntity
  8
0
370
     0
100
AcDbCircle
 10
188.7625
 20
-41.12499999999999
 30
0.0
 40
0.5
100
AcDbArc
 50
90.0
 51
180.0
  0
LINE
  5
1E8
330
6F
100
AcDbEntity
  8
0
370
     0
100
AcDbLine
 10
188.7625
 20
-54.625
 30
0.0
 11
201.7625
 21
-54.625
 31
0.0
  0
LINE
  5
1E9
330
6F
100
AcDbEntity
  8
0
370
     0
100
AcDbLine
 10
201.7625
 20
-40.625
 30
0.0
 11
188.7625
 21
-40.625
 31
0.0
  0
LINE
  5
1EA
330
6F
100
AcDbEntity
  8
0
370
     0
100
AcDbLine
 10
202.2625
 20
-54.125
 30
0.0
 11
202.2625
 21
-41.12499999999999
 31
0.0
  0
LINE
  5
1EB
330
6F
100
AcDbEntity
  8
0
370
     0
100
AcDbLine
 10
188.2625
 20
-41.12499999999999
 30
0.0
 11
188.2625
 21
-54.125
 31
0.0
  0
ARC
  5
1EC
330
6F
100
AcDbEntity
  8
0
370
     0
100
AcDbCircle
 10
207.8125
 20
-54.125
 30
0.0
 40
0.5
100
AcDbArc
 50
180.0
 51
270.0
  0
ARC
  5
1ED
330
6F
100
AcDbEntity
  8
0
370
     0
100
AcDbCircle
 10
220.8125
 20
-54.125
 30
0.0
 40
0.5
100
AcDbArc
 50
270.0
 51
0.0
  0
ARC
  5
1EE
330
6F
100
AcDbEntity
  8
0
370
     0
100
AcDbCircle
 10
220.8125
 20
-41.12499999999999
 30
0.0
 40
0.5
100
AcDbArc
 50
0.0
 51
90.0
  0
ARC
  5
1EF
330
6F
100
AcDbEntity
  8
0
370
     0
100
AcDbCircle
 10
207.8125
 20
-41.12499999999999
 30
0.0
 40
0.5
100
AcDbArc
 50
90.0
 51
180.0
  0
LINE
  5
1F0
330
6F
100
AcDbEntity
  8
0
370
     0
100
AcDbLine
 10
207.8125
 20
-54.625
 30
0.0
 11
220.8125
 21
-54.625
 31
0.0
  0
LINE
  5
1F1
330
6F
100
AcDbEntity
  8
0
370
     0
100
AcDbLine
 10
220.8125
 20
-40.625
 30
0.0
 11
207.8125
 21
-40.625
 31
0.0
  0
LINE
  5
1F2
330
6F
100
AcDbEntity
  8
0
370
     0
100
AcDbLine
 10
221.3125
 20
-54.125
 30
0.0
 11
221.3125
 21
-41.12499999999999
 31
0.0
  0
LINE
  5
1F3
330
6F
100
AcDbEntity
  8
0
370
     0
100
AcDbLine
 10
207.3125
 20
-41.12499999999999
 30
0.0
 11
207.3125
 21
-54.125
 31
0.0
  0
ARC
  5
1F4
330
6F
100
AcDbEntity
  8
0
370
     0
100
AcDbCircle
 10
226.8625
 20
-54.125
 30
0.0
 40
0.5
100
AcDbArc
 50
180.0
 51
270.0
  0
ARC
  5
1F5
330
6F
100
AcDbEntity
  8
0
370
     0
100
AcDbCircle
 10
239.8625
 20
-54.125
 30
0.0
 40
0.5
100
AcDbArc
 50
270.0
 51
0.0
  0
ARC
  5
1F6
330
6F
100
AcDbEntity
  8
0
370
     0
100
AcDbCircle
 10
239.8625
 20
-41.12499999999999
 30
0.0
 40
0.5
100
AcDbArc
 50
0.0
 51
90.0
  0
ARC
  5
1F7
330
6F
100
AcDbEntity
  8
0
370
     0
100
AcDbCircle
 10
226.8625
 20
-41.12499999999999
 30
0.0
 40
0.5
100
AcDbArc
 50
90.0
 51
180.0
  0
LINE
  5
1F8
330
6F
100
AcDbEntity
  8
0
370
     0
100
AcDbLine
 10
226.8625
 20
-54.625
 30
0.0
 11
239.8625
 21
-54.625
 31
0.0
  0
LINE
  5
1F9
330
6F
100
AcDbEntity
  8
0
370
     0
100
AcDbLine
 10
239.8625
 20
-40.625
 30
0.0
 11
226.8625
 21
-40.625
 31
0.0
  0
LINE
  5
1FA
330
6F
100
AcDbEntity
  8
0
370
     0
100
AcDbLine
 10
240.3625
 20
-54.125
 30
0.0
 11
240.3625
 21
-41.12499999999999
 31
0.0
  0
LINE
  5
1FB
330
6F
100
AcDbEntity
  8
0
370
     0
100
AcDbLine
 10
226.3625
 20
-41.12499999999999
 30
0.0
 11
226.3625
 21
-54.125
 31
0.0
  0
ARC
  5
203
330
6F
100
AcDbEntity
  8
0
370
     0
100
AcDbCircle
 10
249.38075
 20
-55.125
 30
0.0
 40
0.5
100
AcDbArc
 50
180.0
 51
270.0
  0
ARC
  5
204
330
6F
100
AcDbEntity
  8
0
370
     0
100
AcDbCircle
 10
255.38075
 20
-55.125
 30
0.0
 40
0.5
100
AcDbArc
 50
270.0
 51
0.0
  0
LINE
  5
205
330
6F
100
AcDbEntity
  8
0
370
     0
100
AcDbLine
 10
249.38075
 20
-55.625
 30
0.0
 11
255.38075
 21
-55.625
 31
0.0
  0
ARC
  5
209
330
6F
100
AcDbEntity
  8
0
370
     0
100
AcDbCircle
 10
273.25675
 20
-55.125
 30
0.0
 40
0.5
100
AcDbArc
 50
180.0
 51
270.0
  0
ARC
  5
20A
330
6F
100
AcDbEntity
  8
0
370
     0
100
AcDbCircle
 10
279.25675
 20
-55.125
 30
0.0
 40
0.5
100
AcDbArc
 50
270.0
 51
0.0
  0
LINE
  5
20B
330
6F
100
AcDbEntity
  8
0
370
     0
100
AcDbLine
 10
273.25675
 20
-55.625
 30
0.0
 11
279.25675
 21
-55.625
 31
0.0
  0
LINE
  5
20C
330
6F
100
AcDbEntity
  8
0
370
     0
100
AcDbLine
 10
279.75675
 20
-55.125
 30
0.0
 11
279.75675
 21
-54.038
 31
0.0
  0
ARC
  5
210
330
6F
100
AcDbEntity
  8
0
370
     0
100
AcDbCircle
 10
245.9125
 20
-54.125
 30
0.0
 40
0.5
100
AcDbArc
 50
180.0
 51
270.0
  0
ARC
  5
211
330
6F
100
AcDbEntity
  8
0
370
     0
100
AcDbCircle
 10
245.9125
 20
-41.12499999999999
 30
0.0
 40
0.5
100
AcDbArc
 50
90.0
 51
180.0
  0
LINE
  5
212
330
6F
100
AcDbEntity
  8
0
370
     0
100
AcDbLine
 10
245.9125
 20
-54.625
 30
0.0
 11
248.38075
 21
-54.625
 31
0.0
  0
LINE
  5
216
330
6F
100
AcDbEntity
  8
0
370
     0
100
AcDbLine
 10
245.4125
 20
-41.12499999999999
 30
0.0
 11
245.4125
 21
-54.125
 31
0.0
  0
ARC
  5
217
330
6F
100
AcDbEntity
  8
0
370
     0
100
AcDbCircle
 10
288.775
 20
-54.125
 30
0.0
 40
0.5
100
AcDbArc
 50
180.0
 51
270.0
  0
ARC
  5
218
330
6F
100
AcDbEntity
  8
0
370
     0
100
AcDbCircle
 10
301.775
 20
-54.125
 30
0.0
 40
0.5
100
AcDbArc
 50
270.0
 51
0.0
  0
ARC
  5
219
330
6F
100
AcDbEntity
  8
0
370
     0
100
AcDbCircle
 10
301.775
 20
-41.12499999999999
 30
0.0
 40
0.5
100
AcDbArc
 50
0.0
 51
90.0
  0
ARC
  5
21A
330
6F
100
AcDbEntity
  8
0
370
     0
100
AcDbCircle
 10
288.775
 20
-41.12499999999999
 30
0.0
 40
0.5
100
AcDbArc
 50
90.0
 51
180.0
  0
LINE
  5
21B
330
6F
100
AcDbEntity
  8
0
370
     0
100
AcDbLine
 10
288.775
 20
-54.625
 30
0.0
 11
301.775
 21
-54.625
 31
0.0
  0
LINE
  5
21C
330
6F
100
AcDbEntity
  8
0
370
     0
100
AcDbLine
 10
301.775
 20
-40.625
 30
0.0
 11
288.775
 21
-40.625
 31
0.0
  0
LINE
  5
21D
330
6F
100
AcDbEntity
  8
0
370
     0
100
AcDbLine
 10
302.275
 20
-54.125
 30
0.0
 11
302.275
 21
-41.12499999999999
 31
0.0
  0
LINE
  5
21E
330
6F
100
AcDbEntity
  8
0
370
     0
100
AcDbLine
 10
288.275
 20
-41.12499999999999
 30
0.0
 11
288.275
 21
-54.125
 31
0.0
  0
ARC
  5
21F
330
6F
100
AcDbEntity
  8
0
370
     0
100
AcDbCircle
 10
307.825
 20
-54.125
 30
0.0
 40
0.5
100
AcDbArc
 50
180.0
 51
270.0
  0
ARC
  5
220
330
6F
100
AcDbEntity
  8
0
370
     0
100
AcDbCircle
 10
320.825
 20
-54.125
 30
0.0
 40
0.5
100
AcDbArc
 50
270.0
 51
0.0
  0
ARC
  5
221
330
6F
100
AcDbEntity
  8
0
370
     0
100
AcDbCircle
 10
320.825
 20
-41.12499999999999
 30
0.0
 40
0.5
100
AcDbArc
 50
0.0
 51
90.0
  0
ARC
  5
222
330
6F
100
AcDbEntity
  8
0
370
     0
100
AcDbCircle
 10
307.825
 20
-41.12499999999999
 30
0.0
 40
0.5
100
AcDbArc
 50
90.0
 51
180.0
  0
LINE
  5
223
330
6F
100
AcDbEntity
  8
0
370
     0
100
AcDbLine
 10
307.825
 20
-54.625
 30
0.0
 11
320.825
 21
-54.625
 31
0.0
  0
LINE
  5
224
330
6F
100
AcDbEntity
  8
0
370
     0
100
AcDbLine
 10
320.825
 20
-40.625
 30
0.0
 11
307.825
 21
-40.625
 31
0.0
  0
LINE
  5
225
330
6F
100
AcDbEntity
  8
0
370
     0
100
AcDbLine
 10
321.325
 20
-54.125
 30
0.0
 11
321.325
 21
-41.12499999999999
 31
0.0
  0
LINE
  5
226
330
6F
100
AcDbEntity
  8
0
370
     0
100
AcDbLine
 10
307.325
 20
-41.12499999999999
 30
0.0
 11
307.325
 21
-54.125
 31
0.0
  0
ARC
  5
22D
330
6F
100
AcDbEntity
  8
0
370
     0
100
AcDbCircle
 10
6.493249999999997
 20
-74.175
 30
0.0
 40
0.5
100
AcDbArc
 50
180.0
 51
270.0
  0
ARC
  5
22E
330
6F
100
AcDbEntity
  8
0
370
     0
100
AcDbCircle
 10
12.49325
 20
-74.175
 30
0.0
 40
0.5
100
AcDbArc
 50
270.0
 51
0.0
  0
LINE
  5
22F
330
6F
100
AcDbEntity
  8
0
370
     0
100
AcDbLine
 10
6.493249999999997
 20
-74.675
 30
0.0
 11
12.49325
 21
-74.675
 31
0.0
  0
ARC
  5
233
330
6F
100
AcDbEntity
  8
0
370
     0
100
AcDbCircle
 10
30.36925
 20
-74.175
 30
0.0
 40
0.5
100
AcDbArc
 50
180.0
 51
270.0
  0
ARC
  5
234
330
6F
100
AcDbEntity
  8
0
370
     0
100
AcDbCircle
 10
36.36925
 20
-74.175
 30
0.0
 40
0.5
100
AcDbArc
 50
270.0
 51
0.0
  0
LINE
  5
235
330
6F
100
AcDbEntity
  8
0
370
     0
100
AcDbLine
 10
30.36925
 20
-74.675
 30
0.0
 11
36.36925
 21
-74.675
 31
0.0
  0
ARC
  5
239
330
6F
100
AcDbEntity
  8
0
370
     0
100
AcDbCircle
 10
5.40625
 20
-73.17499999999999
 30
0.0
 40
0.5
100
AcDbArc
 50
180.0
 51
270.0
  0
ARC
  5
23A
330
6F
100
AcDbEntity
  8
0
370
     0
100
AcDbCircle
 10
5.40625
 20
-60.175
 30
0.0
 40
0.5
100
AcDbArc
 50
90.0
 51
180.0
  0
LINE
  5
23F
330
6F
100
AcDbEntity
  8
0
370
     0
100
AcDbLine
 10
4.90625
 20
-60.175
 30
0.0
 11
4.90625
 21
-73.17499999999999
 31
0.0
  0
ARC
  5
240
330
6F
100
AcDbEntity
  8
0
370
     0
100
AcDbCircle
 10
39.8375
 20
-73.17499999999999
 30
0.0
 40
0.5
100
AcDbArc
 50
270.0
 51
0.0
  0
ARC
  5
241
330
6F
100
AcDbEntity
  8
0
370
     0
100
AcDbCircle
 10
39.8375
 20
-60.175
 30
0.0
 40
0.5
100
AcDbArc
 50
0.0
 51
90.0
  0
LINE
  5
243
330
6F
100
AcDbEntity
  8
0
370
     0
100
AcDbLine
 10
37.36925
 20
-73.67499999999998
 30
0.0
 11
39.8375
 21
-73.67499999999998
 31
0.0
  0
LINE
  5
246
330
6F
100
AcDbEntity
  8
0
370
     0
100
AcDbLine
 10
40.3375
 20
-73.17499999999999
 30
0.0
 11
40.3375
 21
-60.175
 31
0.0
  0
ARC
  5
247
330
6F
100
AcDbEntity
  8
0
370
     0
100
AcDbCircle
 10
45.8875
 20
-73.17499999999999
 30
0.0
 40
0.5
100
AcDbArc
 50
180.0
 51
270.0
  0
ARC
  5
248
330
6F
100
AcDbEntity
  8
0
370
     0
100
AcDbCircle
 10
58.8875
 20
-73.17499999999999
 30
0.0
 40
0.5
100
AcDbArc
 50
270.0
 51
0.0
  0
ARC
  5
249
330
6F
100
AcDbEntity
  8
0
370
     0
100
AcDbCircle
 10
58.8875
 20
-60.175
 30
0.0
 40
0.5
100
AcDbArc
 50
0.0
 51
90.0
  0
ARC
  5
24A
330
6F
100
AcDbEntity
  8
0
370
     0
100
AcDbCircle
 10
45.8875
 20
-60.175
 30
0.0
 40
0.5
100
AcDbArc
 50
90.0
 51
180.0
  0
LINE
  5
24B
330
6F
100
AcDbEntity
  8
0
370
     0
100
AcDbLine
 10
45.8875
 20
-73.67499999999998
 30
0.0
 11
58.8875
 21
-73.67499999999998
 31
0.0
  0
LINE
  5
24C
330
6F
100
AcDbEntity
  8
0
370
     0
100
AcDbLine
 10
58.8875
 20
-59.675
 30
0.0
 11
45.8875
 21
-59.675
 31
0.0
  0
LINE
  5
24D
330
6F
100
AcDbEntity
  8
0
370
     0
100
AcDbLine
 10
59.3875
 20
-73.17499999999999
 30
0.0
 11
59.3875
 21
-60.175
 31
0.0
  0
LINE
  5
24E
330
6F
100
AcDbEntity
  8
0
370
     0
100
AcDbLine
 10
45.3875
 20
-60.175
 30
0.0
 11
45.3875
 21
-73.17499999999999
 31
0.0
  0
ARC
  5
24F
330
6F
100
AcDbEntity
  8
0
370
     0
100
AcDbCircle
 10
64.9375
 20
-73.17499999999999
 30
0.0
 40
0.5
100
AcDbArc
 50
180.0
 51
270.0
  0
ARC
  5
250
330
6F
100
AcDbEntity
  8
0
370
     0
100
AcDbCircle
 10
77.9375
 20
-73.17499999999999
 30
0.0
 40
0.5
100
AcDbArc
 50
270.0
 51
0.0
  0
ARC
  5
251
330
6F
100
AcDbEntity
  8
0
370
     0
100
AcDbCircle
 10
77.9375
 20
-60.175
 30
0.0
 40
0.5
100
AcDbArc
 50
0.0
 51
90.0
  0
ARC
  5
252
330
6F
100
AcDbEntity
  8
0
370
     0
100
AcDbCircle
 10
64.9375
 20
-60.175
 30
0.0
 40
0.5
100
AcDbArc
 50
90.0
 51
180.0
  0
LINE
  5
253
330
6F
100
AcDbEntity
  8
0
370
     0
100
AcDbLine
 10
64.9375
 20
-73.67499999999998
 30
0.0
 11
77.9375
 21
-73.67499999999998
 31
0.0
  0
LINE
  5
254
330
6F
100
AcDbEntity
  8
0
370
     0
100
AcDbLine
 10
77.9375
 20
-59.675
 30
0.0
 11
64.9375
 21
-59.675
 31
0.0
  0
LINE
  5
255
330
6F
100
AcDbEntity
  8
0
370
     0
100
AcDbLine
 10
78.4375
 20
-73.17499999999999
 30
0.0
 11
78.4375
 21
-60.175
 31
0.0
  0
LINE
  5
256
330
6F
100
AcDbEntity
  8
0
370
     0
100
AcDbLine
 10
64.4375
 20
-60.175
 30
0.0
 11
64.4375
 21
-73.17499999999999
 31
0.0
  0
ARC
  5
257
330
6F
100
AcDbEntity
  8
0
370
     0
100
AcDbCircle
 10
83.98749999999997
 20
-73.17499999999999
 30
0.0
 40
0.5
100
AcDbArc
 50
180.0
 51
270.0
  0
ARC
  5
258
330
6F
100
AcDbEntity
  8
0
370
     0
100
AcDbCircle
 10
96.9875
 20
-73.17499999999999
 30
0.0
 40
0.5
100
AcDbArc
 50
270.0
 51
0.0
  0
ARC
  5
259
330
6F
100
AcDbEntity
  8
0
370
     0
100
AcDbCircle
 10
96.9875
 20
-60.175
 30
0.0
 40
0.5
100
AcDbArc
 50
0.0
 51
90.0
  0
ARC
  5
25A
330
6F
100
AcDbEntity
  8
0
370
     0
100
AcDbCircle
 10
83.98749999999997
 20
-60.175
 30
0.0
 40
0.5
100
AcDbArc
 50
90.0
 51
180.0
  0
LINE
  5
25B
330
6F
100
AcDbEntity
  8
0
370
     0
100
AcDbLine
 10
83.98749999999997
 20
-73.67499999999998
 30
0.0
 11
96.9875
 21
-73.67499999999998
 31
0.0
  0
LINE
  5
25C
330
6F
100
AcDbEntity
  8
0
370
     0
100
AcDbLine
 10
96.9875
 20
-59.675
 30
0.0
 11
83.98749999999997
 21
-59.675
 31
0.0
  0
LINE
  5
25D
330
6F
100
AcDbEntity
  8
0
370
     0
100
AcDbLine
 10
97.48750000000001
 20
-73.17499999999999
 30
0.0
 11
97.48750000000001
 21
-60.175
 31
0.0
  0
LINE
  5
25E
330
6F
100
AcDbEntity
  8
0
370
     0
100
AcDbLine
 10
83.4875
 20
-60.175
 30
0.0
 11
83.4875
 21
-73.17499999999999
 31
0.0
  0
ARC
  5
25F
330
6F
100
AcDbEntity
  8
0
370
     0
100
AcDbCircle
 10
103.0375
 20
-73.17499999999999
 30
0.0
 40
0.5
100
AcDbArc
 50
180.0
 51
270.0
  0
ARC
  5
260
330
6F
100
AcDbEntity
  8
0
370
     0
100
AcDbCircle
 10
116.0375
 20
-73.17499999999999
 30
0.0
 40
0.5
100
AcDbArc
 50
270.0
 51
0.0
  0
ARC
  5
261
330
6F
100
AcDbEntity
  8
0
370
     0
100
AcDbCircle
 10
116.0375
 20
-60.175
 30
0.0
 40
0.5
100
AcDbArc
 50
0.0
 51
90.0
  0
ARC
  5
262
330
6F
100
AcDbEntity
  8
0
370
     0
100
AcDbCircle
 10
103.0375
 20
-60.175
 30
0.0
 40
0.5
100
AcDbArc
 50
90.0
 51
180.0
  0
LINE
  5
263
330
6F
100
AcDbEntity
  8
0
370
     0
100
AcDbLine
 10
103.0375
 20
-73.67499999999998
 30
0.0
 11
116.0375
 21
-73.67499999999998
 31
0.0
  0
LINE
  5
264
330
6F
100
AcDbEntity
  8
0
370
     0
100
AcDbLine
 10
116.0375
 20
-59.675
 30
0.0
 11
103.0375
 21
-59.675
 31
0.0
  0
LINE
  5
265
330
6F
100
AcDbEntity
  8
0
370
     0
100
AcDbLine
 10
116.5375
 20
-73.17499999999999
 30
0.0
 11
116.5375
 21
-60.175
 31
0.0
  0
LINE
  5
266
330
6F
100
AcDbEntity
  8
0
370
     0
100
AcDbLine
 10
102.5375
 20
-60.175
 30
0.0
 11
102.5375
 21
-73.17499999999999
 31
0.0
  0
ARC
  5
267
330
6F
100
AcDbEntity
  8
0
370
     0
100
AcDbCircle
 10
122.0875
 20
-73.17499999999999
 30
0.0
 40
0.5
100
AcDbArc
 50
180.0
 51
270.0
  0
ARC
  5
268
330
6F
100
AcDbEntity
  8
0
370
     0
100
AcDbCircle
 10
135.0875
 20
-73.17499999999999
 30
0.0
 40
0.5
100
AcDbArc
 50
270.0
 51
0.0
  0
ARC
  5
269
330
6F
100
AcDbEntity
  8
0
370
     0
100
AcDbCircle
 10
135.0875
 20
-60.175
 30
0.0
 40
0.5
100
AcDbArc
 50
0.0
 51
90.0
  0
ARC
  5
26A
330
6F
100
AcDbEntity
  8
0
370
     0
100
AcDbCircle
 10
122.0875
 20
-60.175
 30
0.0
 40
0.5
100
AcDbArc
 50
90.0
 51
180.0
  0
LINE
  5
26B
330
6F
100
AcDbEntity
  8
0
370
     0
100
AcDbLine
 10
122.0875
 20
-73.67499999999998
 30
0.0
 11
135.0875
 21
-73.67499999999998
 31
0.0
  0
LINE
  5
26C
330
6F
100
AcDbEntity
  8
0
370
     0
100
AcDbLine
 10
135.0875
 20
-59.675
 30
0.0
 11
122.0875
 21
-59.675
 31
0.0
  0
LINE
  5
26D
330
6F
100
AcDbEntity
  8
0
370
     0
100
AcDbLine
 10
135.5875
 20
-73.17499999999999
 30
0.0
 11
135.5875
 21
-60.175
 31
0.0
  0
LINE
  5
26E
330
6F
100
AcDbEntity
  8
0
370
     0
100
AcDbLine
 10
121.5875
 20
-60.175
 30
0.0
 11
121.5875
 21
-73.17499999999999
 31
0.0
  0
ARC
  5
26F
330
6F
100
AcDbEntity
  8
0
370
     0
100
AcDbCircle
 10
141.1375
 20
-73.17499999999999
 30
0.0
 40
0.5
100
AcDbArc
 50
180.0
 51
270.0
  0
ARC
  5
270
330
6F
100
AcDbEntity
  8
0
370
     0
100
AcDbCircle
 10
154.1375
 20
-73.17499999999999
 30
0.0
 40
0.5
100
AcDbArc
 50
270.0
 51
0.0
  0
ARC
  5
271
330
6F
100
AcDbEntity
  8
0
370
     0
100
AcDbCircle
 10
154.1375
 20
-60.175
 30
0.0
 40
0.5
100
AcDbArc
 50
0.0
 51
90.0
  0
ARC
  5
272
330
6F
100
AcDbEntity
  8
0
370
     0
100
AcDbCircle
 10
141.1375
 20
-60.175
 30
0.0
 40
0.5
100
AcDbArc
 50
90.0
 51
180.0
  0
LINE
  5
273
330
6F
100
AcDbEntity
  8
0
370
     0
100
AcDbLine
 10
141.1375
 20
-73.67499999999998
 30
0.0
 11
154.1375
 21
-73.67499999999998
 31
0.0
  0
LINE
  5
274
330
6F
100
AcDbEntity
  8
0
370
     0
100
AcDbLine
 10
154.1375
 20
-59.675
 30
0.0
 11
141.1375
 21
-59.675
 31
0.0
  0
LINE
  5
275
330
6F
100
AcDbEntity
  8
0
370
     0
100
AcDbLine
 10
154.6375
 20
-73.17499999999999
 30
0.0
 11
154.6375
 21
-60.175
 31
0.0
  0
LINE
  5
276
330
6F
100
AcDbEntity
  8
0
370
     0
100
AcDbLine
 10
140.6375
 20
-60.175
 30
0.0
 11
140.6375
 21
-73.17499999999999
 31
0.0
  0
ARC
  5
277
330
6F
100
AcDbEntity
  8
0
370
     0
100
AcDbCircle
 10
160.1875
 20
-73.17499999999999
 30
0.0
 40
0.5
100
AcDbArc
 50
180.0
 51
270.0
  0
ARC
  5
278
330
6F
100
AcDbEntity
  8
0
370
     0
100
AcDbCircle
 10
173.1875
 20
-73.17499999999999
 30
0.0
 40
0.5
100
AcDbArc
 50
270.0
 51
0.0
  0
ARC
  5
279
330
6F
100
AcDbEntity
  8
0
370
     0
100
AcDbCircle
 10
173.1875
 20
-60.175
 30
0.0
 40
0.5
100
AcDbArc
 50
0.0
 51
90.0
  0
ARC
  5
27A
330
6F
100
AcDbEntity
  8
0
370
     0
100
AcDbCircle
 10
160.1875
 20
-60.175
 30
0.0
 40
0.5
100
AcDbArc
 50
90.0
 51
180.0
  0
LINE
  5
27B
330
6F
100
AcDbEntity
  8
0
370
     0
100
AcDbLine
 10
160.1875
 20
-73.67499999999998
 30
0.0
 11
173.1875
 21
-73.67499999999998
 31
0.0
  0
LINE
  5
27C
330
6F
100
AcDbEntity
  8
0
370
     0
100
AcDbLine
 10
173.1875
 20
-59.675
 30
0.0
 11
160.1875
 21
-59.675
 31
0.0
  0
LINE
  5
27D
330
6F
100
AcDbEntity
  8
0
370
     0
100
AcDbLine
 10
173.6875
 20
-73.17499999999999
 30
0.0
 11
173.6875
 21
-60.175
 31
0.0
  0
LINE
  5
27E
330
6F
100
AcDbEntity
  8
0
370
     0
100
AcDbLine
 10
159.6875
 20
-60.175
 30
0.0
 11
159.6875
 21
-73.17499999999999
 31
0.0
  0
ARC
  5
27F
330
6F
100
AcDbEntity
  8
0
370
     0
100
AcDbCircle
 10
179.2375
 20
-73.17499999999999
 30
0.0
 40
0.5
100
AcDbArc
 50
180.0
 51
270.0
  0
ARC
  5
280
330
6F
100
AcDbEntity
  8
0
370
     0
100
AcDbCircle
 10
192.2375
 20
-73.17499999999999
 30
0.0
 40
0.5
100
AcDbArc
 50
270.0
 51
0.0
  0
ARC
  5
281
330
6F
100
AcDbEntity
  8
0
370
     0
100
AcDbCircle
 10
192.2375
 20
-60.175
 30
0.0
 40
0.5
100
AcDbArc
 50
0.0
 51
90.0
  0
ARC
  5
282
330
6F
100
AcDbEntity
  8
0
370
     0
100
AcDbCircle
 10
179.2375
 20
-60.175
 30
0.0
 40
0.5
100
AcDbArc
 50
90.0
 51
180.0
  0
LINE
  5
283
330
6F
100
AcDbEntity
  8
0
370
     0
100
AcDbLine
 10
179.2375
 20
-73.67499999999998
 30
0.0
 11
192.2375
 21
-73.67499999999998
 31
0.0
  0
LINE
  5
284
330
6F
100
AcDbEntity
  8
0
370
     0
100
AcDbLine
 10
192.2375
 20
-59.675
 30
0.0
 11
179.2375
 21
-59.675
 31
0.0
  0
LINE
  5
285
330
6F
100
AcDbEntity
  8
0
370
     0
100
AcDbLine
 10
192.7375
 20
-73.17499999999999
 30
0.0
 11
192.7375
 21
-60.175
 31
0.0
  0
LINE
  5
286
330
6F
100
AcDbEntity
  8
0
370
     0
100
AcDbLine
 10
178.7375
 20
-60.175
 30
0.0
 11
178.7375
 21
-73.17499999999999
 31
0.0
  0
ARC
  5
287
330
6F
100
AcDbEntity
  8
0
370
     0
100
AcDbCircle
 10
198.2875
 20
-73.17499999999999
 30
0.0
 40
0.5
100
AcDbArc
 50
180.0
 51
270.0
  0
ARC
  5
288
330
6F
100
AcDbEntity
  8
0
370
     0
100
AcDbCircle
 10
211.2875
 20
-73.17499999999999
 30
0.0
 40
0.5
100
AcDbArc
 50
270.0
 51
0.0
  0
ARC
  5
289
330
6F
100
AcDbEntity
  8
0
370
     0
100
AcDbCircle
 10
211.2875
 20
-60.175
 30
0.0
 40
0.5
100
AcDbArc
 50
0.0
 51
90.0
  0
ARC
  5
28A
330
6F
100
AcDbEntity
  8
0
370
     0
100
AcDbCircle
 10
198.2875
 20
-60.175
 30
0.0
 40
0.5
100
AcDbArc
 50
90.0
 51
180.0
  0
LINE
  5
28B
330
6F
100
AcDbEntity
  8
0
370
     0
100
AcDbLine
 10
198.2875
 20
-73.67499999999998
 30
0.0
 11
211.2875
 21
-73.67499999999998
 31
0.0
  0
LINE
  5
28C
330
6F
100
AcDbEntity
  8
0
370
     0
100
AcDbLine
 10
211.2875
 20
-59.675
 30
0.0
 11
198.2875
 21
-59.675
 31
0.0
  0
LINE
  5
28D
330
6F
100
AcDbEntity
  8
0
370
     0
100
AcDbLine
 10
211.7875
 20
-73.17499999999999
 30
0.0
 11
211.7875
 21
-60.175
 31
0.0
  0
LINE
  5
28E
330
6F
100
AcDbEntity
  8
0
370
     0
100
AcDbLine
 10
197.7875
 20
-60.175
 30
0.0
 11
197.7875
 21
-73.17499999999999
 31
0.0
  0
ARC
  5
28F
330
6F
100
AcDbEntity
  8
0
370
     0
100
AcDbCircle
 10
217.3375
 20
-73.17499999999999
 30
0.0
 40
0.5
100
AcDbArc
 50
180.0
 51
270.0
  0
ARC
  5
290
330
6F
100
AcDbEntity
  8
0
370
     0
100
AcDbCircle
 10
230.3375
 20
-73.17499999999999
 30
0.0
 40
0.5
100
AcDbArc
 50
270.0
 51
0.0
  0
ARC
  5
291
330
6F
100
AcDbEntity
  8
0
370
     0
100
AcDbCircle
 10
230.3375
 20
-60.175
 30
0.0
 40
0.5
100
AcDbArc
 50
0.0
 51
90.0
  0
ARC
  5
292
330
6F
100
AcDbEntity
  8
0
370
     0
100
AcDbCircle
 10
217.3375
 20
-60.175
 30
0.0
 40
0.5
100
AcDbArc
 50
90.0
 51
180.0
  0
LINE
  5
293
330
6F
100
AcDbEntity
  8
0
370
     0
100
AcDbLine
 10
217.3375
 20
-73.67499999999998
 30
0.0
 11
230.3375
 21
-73.67499999999998
 31
0.0
  0
LINE
  5
294
330
6F
100
AcDbEntity
  8
0
370
     0
100
AcDbLine
 10
230.3375
 20
-59.675
 30
0.0
 11
217.3375
 21
-59.675
 31
0.0
  0
LINE
  5
295
330
6F
100
AcDbEntity
  8
0
370
     0
100
AcDbLine
 10
230.8375
 20
-73.17499999999999
 30
0.0
 11
230.8375
 21
-60.175
 31
0.0
  0
LINE
  5
296
330
6F
100
AcDbEntity
  8
0
370
     0
100
AcDbLine
 10
216.8375
 20
-60.175
 30
0.0
 11
216.8375
 21
-73.17499999999999
 31
0.0
  0
LINE
  5
29B
330
6F
100
AcDbEntity
  8
0
370
     0
100
AcDbLine
 10
251.6183
 20
-73.67499999999999
 30
0.0
 11
267.4943
 21
-73.67499999999999
 31
0.0
  0
LINE
  5
29C
330
6F
100
AcDbEntity
  8
0
370
     0
100
AcDbLine
 10
274.49425
 20
-59.675
 30
0.0
 11
244.61825
 21
-59.675
 31
0.0
  0
ARC
  5
29F
330
6F
100
AcDbEntity
  8
0
370
     0
100
AcDbCircle
 10
244.61825
 20
-74.175
 30
0.0
 40
0.5
100
AcDbArc
 50
180.0
 51
270.0
  0
ARC
  5
2A0
330
6F
100
AcDbEntity
  8
0
370
     0
100
AcDbCircle
 10
250.61825
 20
-74.175
 30
0.0
 40
0.5
100
AcDbArc
 50
270.0
 51
0.0
  0
ARC
  5
2A2
330
6F
100
AcDbEntity
  8
0
370
     0
100
AcDbCircle
 10
244.61825
 20
-60.175
 30
0.0
 40
0.5
100
AcDbArc
 50
90.0
 51
180.0
  0
LINE
  5
2A3
330
6F
100
AcDbEntity
  8
0
370
     0
100
AcDbLine
 10
244.61825
 20
-74.675
 30
0.0
 11
250.61825
 21
-74.675
 31
0.0
  0
LINE
  5
2A6
330
6F
100
AcDbEntity
  8
0
370
     0
100
AcDbLine
 10
244.11825
 20
-60.175
 30
0.0
 11
244.11825
 21
-74.175
 31
0.0
  0
ARC
  5
2A7
330
6F
100
AcDbEntity
  8
0
370
     0
100
AcDbCircle
 10
268.49425
 20
-74.175
 30
0.0
 40
0.5
100
AcDbArc
 50
180.0
 51
270.0
  0
ARC
  5
2A8
330
6F
100
AcDbEntity
  8
0
370
     0
100
AcDbCircle
 10
274.49425
 20
-74.175
 30
0.0
 40
0.5
100
AcDbArc
 50
270.0
 51
0.0
  0
ARC
  5
2A9
330
6F
100
AcDbEntity
  8
0
370
     0
100
AcDbCircle
 10
274.49425
 20
-60.175
 30
0.0
 40
0.5
100
AcDbArc
 50
0.0
 51
90.0
  0
LINE
  5
2AB
330
6F
100
AcDbEntity
  8
0
370
     0
100
AcDbLine
 10
268.49425
 20
-74.675
 30
0.0
 11
274.49425
 21
-74.675
 31
0.0
  0
LINE
  5
2AD
330
6F
100
AcDbEntity
  8
0
370
     0
100
AcDbLine
 10
274.99425
 20
-74.175
 30
0.0
 11
274.99425
 21
-60.175
 31
0.0
  0
ARC
  5
2AF
330
6F
100
AcDbEntity
  8
0
370
     0
100
AcDbCircle
 10
288.775
 20
-73.17499999999999
 30
0.0
 40
0.5
100
AcDbArc
 50
180.0
 51
270.0
  0
ARC
  5
2B0
330
6F
100
AcDbEntity
  8
0
370
     0
100
AcDbCircle
 10
301.775
 20
-73.17499999999999
 30
0.0
 40
0.5
100
AcDbArc
 50
270.0
 51
0.0
  0
ARC
  5
2B1
330
6F
100
AcDbEntity
  8
0
370
     0
100
AcDbCircle
 10
301.775
 20
-60.175
 30
0.0
 40
0.5
100
AcDbArc
 50
0.0
 51
90.0
  0
ARC
  5
2B2
330
6F
100
AcDbEntity
  8
0
370
     0
100
AcDbCircle
 10
288.775
 20
-60.175
 30
0.0
 40
0.5
100
AcDbArc
 50
90.0
 51
180.0
  0
LINE
  5
2B3
330
6F
100
AcDbEntity
  8
0
370
     0
100
AcDbLine
 10
288.775
 20
-73.67499999999998
 30
0.0
 11
301.775
 21
-73.67499999999998
 31
0.0
  0
LINE
  5
2B4
330
6F
100
AcDbEntity
  8
0
370
     0
100
AcDbLine
 10
301.775
 20
-59.675
 30
0.0
 11
288.775
 21
-59.675
 31
0.0
  0
LINE
  5
2B5
330
6F
100
AcDbEntity
  8
0
370
     0
100
AcDbLine
 10
302.275
 20
-73.17499999999999
 30
0.0
 11
302.275
 21
-60.175
 31
0.0
  0
LINE
  5
2B6
330
6F
100
AcDbEntity
  8
0
370
     0
100
AcDbLine
 10
288.275
 20
-60.175
 30
0.0
 11
288.275
 21
-73.17499999999999
 31
0.0
  0
ARC
  5
2B7
330
6F
100
AcDbEntity
  8
0
370
     0
100
AcDbCircle
 10
307.825
 20
-73.17499999999999
 30
0.0
 40
0.5
100
AcDbArc
 50
180.0
 51
270.0
  0
ARC
  5
2B8
330
6F
100
AcDbEntity
  8
0
370
     0
100
AcDbCircle
 10
320.825
 20
-73.17499999999999
 30
0.0
 40
0.5
100
AcDbArc
 50
270.0
 51
0.0
  0
ARC
  5
2B9
330
6F
100
AcDbEntity
  8
0
370
     0
100
AcDbCircle
 10
320.825
 20
-60.175
 30
0.0
 40
0.5
100
AcDbArc
 50
0.0
 51
90.0
  0
ARC
  5
2BA
330
6F
100
AcDbEntity
  8
0
370
     0
100
AcDbCircle
 10
307.825
 20
-60.175
 30
0.0
 40
0.5
100
AcDbArc
 50
90.0
 51
180.0
  0
LINE
  5
2BB
330
6F
100
AcDbEntity
  8
0
370
     0
100
AcDbLine
 10
307.825
 20
-73.67499999999998
 30
0.0
 11
320.825
 21
-73.67499999999998
 31
0.0
  0
LINE
  5
2BC
330
6F
100
AcDbEntity
  8
0
370
     0
100
AcDbLine
 10
320.825
 20
-59.675
 30
0.0
 11
307.825
 21
-59.675
 31
0.0
  0
LINE
  5
2BD
330
6F
100
AcDbEntity
  8
0
370
     0
100
AcDbLine
 10
321.325
 20
-73.17499999999999
 30
0.0
 11
321.325
 21
-60.175
 31
0.0
  0
LINE
  5
2BE
330
6F
100
AcDbEntity
  8
0
370
     0
100
AcDbLine
 10
307.325
 20
-60.175
 30
0.0
 11
307.325
 21
-73.17499999999999
 31
0.0
  0
ARC
  5
2BF
330
6F
100
AcDbEntity
  8
0
370
     0
100
AcDbCircle
 10
5.40625
 20
-92.225
 30
0.0
 40
0.5
100
AcDbArc
 50
180.0
 51
270.0
  0
ARC
  5
2C0
330
6F
100
AcDbEntity
  8
0
370
     0
100
AcDbCircle
 10
18.40625
 20
-92.225
 30
0.0
 40
0.5
100
AcDbArc
 50
270.0
 51
0.0
  0
ARC
  5
2C1
330
6F
100
AcDbEntity
  8
0
370
     0
100
AcDbCircle
 10
18.40625
 20
-79.22499999999998
 30
0.0
 40
0.5
100
AcDbArc
 50
0.0
 51
90.0
  0
ARC
  5
2C2
330
6F
100
AcDbEntity
  8
0
370
     0
100
AcDbCircle
 10
5.40625
 20
-79.22499999999998
 30
0.0
 40
0.5
100
AcDbArc
 50
90.0
 51
180.0
  0
LINE
  5
2C3
330
6F
100
AcDbEntity
  8
0
370
     0
100
AcDbLine
 10
5.40625
 20
-92.72499999999999
 30
0.0
 11
18.40625
 21
-92.72499999999999
 31
0.0
  0
LINE
  5
2C4
330
6F
100
AcDbEntity
  8
0
370
     0
100
AcDbLine
 10
18.40625
 20
-78.72499999999998
 30
0.0
 11
5.40625
 21
-78.72499999999998
 31
0.0
  0
LINE
  5
2C5
330
6F
100
AcDbEntity
  8
0
370
     0
100
AcDbLine
 10
18.90625
 20
-92.225
 30
0.0
 11
18.90625
 21
-79.22499999999998
 31
0.0
  0
LINE
  5
2C6
330
6F
100
AcDbEntity
  8
0
370
     0
100
AcDbLine
 10
4.90625
 20
-79.22499999999998
 30
0.0
 11
4.90625
 21
-92.225
 31
0.0
  0
ARC
  5
2C7
330
6F
100
AcDbEntity
  8
0
370
     0
100
AcDbCircle
 10
29.21875
 20
-92.225
 30
0.0
 40
0.5
100
AcDbArc
 50
180.0
 51
270.0
  0
ARC
  5
2C8
330
6F
100
AcDbEntity
  8
0
370
     0
100
AcDbCircle
 10
42.21874999999999
 20
-92.225
 30
0.0
 40
0.5
100
AcDbArc
 50
270.0
 51
0.0
  0
ARC
  5
2C9
330
6F
100
AcDbEntity
  8
0
370
     0
100
AcDbCircle
 10
42.21874999999999
 20
-79.22499999999998
 30
0.0
 40
0.5
100
AcDbArc
 50
0.0
 51
90.0
  0
ARC
  5
2CA
330
6F
100
AcDbEntity
  8
0
370
     0
100
AcDbCircle
 10
29.21875
 20
-79.22499999999998
 30
0.0
 40
0.5
100
AcDbArc
 50
90.0
 51
180.0
  0
LINE
  5
2CB
330
6F
100
AcDbEntity
  8
0
370
     0
100
AcDbLine
 10
29.21875
 20
-92.72499999999999
 30
0.0
 11
42.21874999999999
 21
-92.72499999999999
 31
0.0
  0
LINE
  5
2CC
330
6F
100
AcDbEntity
  8
0
370
     0
100
AcDbLine
 10
42.21874999999999
 20
-78.72499999999998
 30
0.0
 11
29.21875
 21
-78.72499999999998
 31
0.0
  0
LINE
  5
2CD
330
6F
100
AcDbEntity
  8
0
370
     0
100
AcDbLine
 10
42.71875
 20
-92.225
 30
0.0
 11
42.71875
 21
-79.22499999999998
 31
0.0
  0
LINE
  5
2CE
330
6F
100
AcDbEntity
  8
0
370
     0
100
AcDbLine
 10
28.71875
 20
-79.22499999999998
 30
0.0
 11
28.71875
 21
-92.225
 31
0.0
  0
ARC
  5
2CF
330
6F
100
AcDbEntity
  8
0
370
     0
100
AcDbCircle
 10
53.03125
 20
-92.225
 30
0.0
 40
0.5
100
AcDbArc
 50
180.0
 51
270.0
  0
ARC
  5
2D0
330
6F
100
AcDbEntity
  8
0
370
     0
100
AcDbCircle
 10
66.03125
 20
-92.225
 30
0.0
 40
0.5
100
AcDbArc
 50
270.0
 51
0.0
  0
ARC
  5
2D1
330
6F
100
AcDbEntity
  8
0
370
     0
100
AcDbCircle
 10
66.03125
 20
-79.22499999999998
 30
0.0
 40
0.5
100
AcDbArc
 50
0.0
 51
90.0
  0
ARC
  5
2D2
330
6F
100
AcDbEntity
  8
0
370
     0
100
AcDbCircle
 10
53.03125
 20
-79.22499999999998
 30
0.0
 40
0.5
100
AcDbArc
 50
90.0
 51
180.0
  0
LINE
  5
2D3
330
6F
100
AcDbEntity
  8
0
370
     0
100
AcDbLine
 10
53.03125
 20
-92.72499999999999
 30
0.0
 11
66.03125
 21
-92.72499999999999
 31
0.0
  0
LINE
  5
2D4
330
6F
100
AcDbEntity
  8
0
370
     0
100
AcDbLine
 10
66.03125
 20
-78.72499999999998
 30
0.0
 11
53.03125
 21
-78.72499999999998
 31
0.0
  0
LINE
  5
2D5
330
6F
100
AcDbEntity
  8
0
370
     0
100
AcDbLine
 10
66.53125
 20
-92.225
 30
0.0
 11
66.53125
 21
-79.22499999999998
 31
0.0
  0
LINE
  5
2D6
330
6F
100
AcDbEntity
  8
0
370
     0
100
AcDbLine
 10
52.53125
 20
-79.22499999999998
 30
0.0
 11
52.53125
 21
-92.225
 31
0.0
  0
ARC
  5
31B
330
6F
100
AcDbEntity
  8
0
370
     0
100
AcDbCircle
 10
193.525
 20
-92.225
 30
0.0
 40
0.5
100
AcDbArc
 50
180.0
 51
270.0
  0
ARC
  5
31C
330
6F
100
AcDbEntity
  8
0
370
     0
100
AcDbCircle
 10
206.525
 20
-92.225
 30
0.0
 40
0.5
100
AcDbArc
 50
270.0
 51
0.0
  0
ARC
  5
31D
330
6F
100
AcDbEntity
  8
0
370
     0
100
AcDbCircle
 10
206.525
 20
-79.22499999999998
 30
0.0
 40
0.5
100
AcDbArc
 50
0.0
 51
90.0
  0
ARC
  5
31E
330
6F
100
AcDbEntity
  8
0
370
     0
100
AcDbCircle
 10
193.525
 20
-79.22499999999998
 30
0.0
 40
0.5
100
AcDbArc
 50
90.0
 51
180.0
  0
LINE
  5
31F
330
6F
100
AcDbEntity
  8
0
370
     0
100
AcDbLine
 10
193.525
 20
-92.72499999999999
 30
0.0
 11
206.525
 21
-92.72499999999999
 31
0.0
  0
LINE
  5
320
330
6F
100
AcDbEntity
  8
0
370
     0
100
AcDbLine
 10
206.525
 20
-78.72499999999998
 30
0.0
 11
193.525
 21
-78.72499999999998
 31
0.0
  0
LINE
  5
321
330
6F
100
AcDbEntity
  8
0
370
     0
100
AcDbLine
 10
207.025
 20
-92.225
 30
0.0
 11
207.025
 21
-79.22499999999998
 31
0.0
  0
LINE
  5
322
330
6F
100
AcDbEntity
  8
0
370
     0
100
AcDbLine
 10
193.025
 20
-79.22499999999998
 30
0.0
 11
193.025
 21
-92.225
 31
0.0
  0
ARC
  5
323
330
6F
100
AcDbEntity
  8
0
370
     0
100
AcDbCircle
 10
212.575
 20
-92.225
 30
0.0
 40
0.5
100
AcDbArc
 50
180.0
 51
270.0
  0
ARC
  5
324
330
6F
100
AcDbEntity
  8
0
370
     0
100
AcDbCircle
 10
225.575
 20
-92.225
 30
0.0
 40
0.5
100
AcDbArc
 50
270.0
 51
0.0
  0
ARC
  5
325
330
6F
100
AcDbEntity
  8
0
370
     0
100
AcDbCircle
 10
225.575
 20
-79.22499999999998
 30
0.0
 40
0.5
100
AcDbArc
 50
0.0
 51
90.0
  0
ARC
  5
326
330
6F
100
AcDbEntity
  8
0
370
     0
100
AcDbCircle
 10
212.575
 20
-79.22499999999998
 30
0.0
 40
0.5
100
AcDbArc
 50
90.0
 51
180.0
  0
LINE
  5
327
330
6F
100
AcDbEntity
  8
0
370
     0
100
AcDbLine
 10
212.575
 20
-92.72499999999999
 30
0.0
 11
225.575
 21
-92.72499999999999
 31
0.0
  0
LINE
  5
328
330
6F
100
AcDbEntity
  8
0
370
     0
100
AcDbLine
 10
225.575
 20
-78.72499999999998
 30
0.0
 11
212.575
 21
-78.72499999999998
 31
0.0
  0
LINE
  5
329
330
6F
100
AcDbEntity
  8
0
370
     0
100
AcDbLine
 10
226.075
 20
-92.225
 30
0.0
 11
226.075
 21
-79.22499999999998
 31
0.0
  0
LINE
  5
32A
330
6F
100
AcDbEntity
  8
0
370
     0
100
AcDbLine
 10
212.075
 20
-79.22499999999998
 30
0.0
 11
212.075
 21
-92.225
 31
0.0
  0
ARC
  5
32B
330
6F
100
AcDbEntity
  8
0
370
     0
100
AcDbCircle
 10
231.625
 20
-92.225
 30
0.0
 40
0.5
100
AcDbArc
 50
180.0
 51
270.0
  0
ARC
  5
32C
330
6F
100
AcDbEntity
  8
0
370
     0
100
AcDbCircle
 10
244.625
 20
-92.225
 30
0.0
 40
0.5
100
AcDbArc
 50
270.0
 51
0.0
  0
ARC
  5
32D
330
6F
100
AcDbEntity
  8
0
370
     0
100
AcDbCircle
 10
244.625
 20
-79.22499999999998
 30
0.0
 40
0.5
100
AcDbArc
 50
0.0
 51
90.0
  0
ARC
  5
32E
330
6F
100
AcDbEntity
  8
0
370
     0
100
AcDbCircle
 10
231.625
 20
-79.22499999999998
 30
0.0
 40
0.5
100
AcDbArc
 50
90.0
 51
180.0
  0
LINE
  5
32F
330
6F
100
AcDbEntity
  8
0
370
     0
100
AcDbLine
 10
231.625
 20
-92.72499999999999
 30
0.0
 11
244.625
 21
-92.72499999999999
 31
0.0
  0
LINE
  5
330
330
6F
100
AcDbEntity
  8
0
370
     0
100
AcDbLine
 10
244.625
 20
-78.72499999999998
 30
0.0
 11
231.625
 21
-78.72499999999998
 31
0.0
  0
LINE
  5
331
330
6F
100
AcDbEntity
  8
0
370
     0
100
AcDbLine
 10
245.125
 20
-92.225
 30
0.0
 11
245.125
 21
-79.22499999999998
 31
0.0
  0
LINE
  5
332
330
6F
100
AcDbEntity
  8
0
370
     0
100
AcDbLine
 10
231.125
 20
-79.22499999999998
 30
0.0
 11
231.125
 21
-92.225
 31
0.0
  0
ARC
  5
333
330
6F
100
AcDbEntity
  8
0
370
     0
100
AcDbCircle
 10
250.675
 20
-92.225
 30
0.0
 40
0.5
100
AcDbArc
 50
180.0
 51
270.0
  0
ARC
  5
334
330
6F
100
AcDbEntity
  8
0
370
     0
100
AcDbCircle
 10
263.675
 20
-92.225
 30
0.0
 40
0.5
100
AcDbArc
 50
270.0
 51
0.0
  0
ARC
  5
335
330
6F
100
AcDbEntity
  8
0
370
     0
100
AcDbCircle
 10
263.675
 20
-79.22499999999998
 30
0.0
 40
0.5
100
AcDbArc
 50
0.0
 51
90.0
  0
ARC
  5
336
330
6F
100
AcDbEntity
  8
0
370
     0
100
AcDbCircle
 10
250.675
 20
-79.22499999999998
 30
0.0
 40
0.5
100
AcDbArc
 50
90.0
 51
180.0
  0
LINE
  5
337
330
6F
100
AcDbEntity
  8
0
370
     0
100
AcDbLine
 10
250.675
 20
-92.72499999999999
 30
0.0
 11
263.675
 21
-92.72499999999999
 31
0.0
  0
LINE
  5
338
330
6F
100
AcDbEntity
  8
0
370
     0
100
AcDbLine
 10
263.675
 20
-78.72499999999998
 30
0.0
 11
250.675
 21
-78.72499999999998
 31
0.0
  0
LINE
  5
339
330
6F
100
AcDbEntity
  8
0
370
     0
100
AcDbLine
 10
264.175
 20
-92.225
 30
0.0
 11
264.175
 21
-79.22499999999998
 31
0.0
  0
LINE
  5
33A
330
6F
100
AcDbEntity
  8
0
370
     0
100
AcDbLine
 10
250.175
 20
-79.22499999999998
 30
0.0
 11
250.175
 21
-92.225
 31
0.0
  0
ARC
  5
33B
330
6F
100
AcDbEntity
  8
0
370
     0
100
AcDbCircle
 10
269.725
 20
-92.225
 30
0.0
 40
0.5
100
AcDbArc
 50
180.0
 51
270.0
  0
ARC
  5
33C
330
6F
100
AcDbEntity
  8
0
370
     0
100
AcDbCircle
 10
282.725
 20
-92.225
 30
0.0
 40
0.5
100
AcDbArc
 50
270.0
 51
0.0
  0
ARC
  5
33D
330
6F
100
AcDbEntity
  8
0
370
     0
100
AcDbCircle
 10
282.725
 20
-79.22499999999998
 30
0.0
 40
0.5
100
AcDbArc
 50
0.0
 51
90.0
  0
ARC
  5
33E
330
6F
100
AcDbEntity
  8
0
370
     0
100
AcDbCircle
 10
269.725
 20
-79.22499999999998
 30
0.0
 40
0.5
100
AcDbArc
 50
90.0
 51
180.0
  0
LINE
  5
33F
330
6F
100
AcDbEntity
  8
0
370
     0
100
AcDbLine
 10
269.725
 20
-92.72499999999999
 30
0.0
 11
282.725
 21
-92.72499999999999
 31
0.0
  0
LINE
  5
340
330
6F
100
AcDbEntity
  8
0
370
     0
100
AcDbLine
 10
282.725
 20
-78.72499999999998
 30
0.0
 11
269.725
 21
-78.72499999999998
 31
0.0
  0
LINE
  5
341
330
6F
100
AcDbEntity
  8
0
370
     0
100
AcDbLine
 10
283.225
 20
-92.225
 30
0.0
 11
283.225
 21
-79.22499999999998
 31
0.0
  0
LINE
  5
342
330
6F
100
AcDbEntity
  8
0
370
     0
100
AcDbLine
 10
269.225
 20
-79.22499999999998
 30
0.0
 11
269.225
 21
-92.225
 31
0.0
  0
ARC
  5
343
330
6F
100
AcDbEntity
  8
0
370
     0
100
AcDbCircle
 10
288.775
 20
-92.225
 30
0.0
 40
0.5
100
AcDbArc
 50
180.0
 51
270.0
  0
ARC
  5
344
330
6F
100
AcDbEntity
  8
0
370
     0
100
AcDbCircle
 10
301.775
 20
-92.225
 30
0.0
 40
0.5
100
AcDbArc
 50
270.0
 51
0.0
  0
ARC
  5
345
330
6F
100
AcDbEntity
  8
0
370
     0
100
AcDbCircle
 10
301.775
 20
-79.22499999999998
 30
0.0
 40
0.5
100
AcDbArc
 50
0.0
 51
90.0
  0
ARC
  5
346
330
6F
100
AcDbEntity
  8
0
370
     0
100
AcDbCircle
 10
288.775
 20
-79.22499999999998
 30
0.0
 40
0.5
100
AcDbArc
 50
90.0
 51
180.0
  0
LINE
  5
347
330
6F
100
AcDbEntity
  8
0
370
     0
100
AcDbLine
 10
288.775
 20
-92.72499999999999
 30
0.0
 11
301.775
 21
-92.72499999999999
 31
0.0
  0
LINE
  5
348
330
6F
100
AcDbEntity
  8
0
370
     0
100
AcDbLine
 10
301.775
 20
-78.72499999999998
 30
0.0
 11
288.775
 21
-78.72499999999998
 31
0.0
  0
LINE
  5
349
330
6F
100
AcDbEntity
  8
0
370
     0
100
AcDbLine
 10
302.275
 20
-92.225
 30
0.0
 11
302.275
 21
-79.22499999999998
 31
0.0
  0
LINE
  5
34A
330
6F
100
AcDbEntity
  8
0
370
     0
100
AcDbLine
 10
288.275
 20
-79.22499999999998
 30
0.0
 11
288.275
 21
-92.225
 31
0.0
  0
ARC
  5
34B
330
6F
100
AcDbEntity
  8
0
370
     0
100
AcDbCircle
 10
307.825
 20
-92.225
 30
0.0
 40
0.5
100
AcDbArc
 50
180.0
 51
270.0
  0
ARC
  5
34C
330
6F
100
AcDbEntity
  8
0
370
     0
100
AcDbCircle
 10
320.825
 20
-92.225
 30
0.0
 40
0.5
100
AcDbArc
 50
270.0
 51
0.0
  0
ARC
  5
34D
330
6F
100
AcDbEntity
  8
0
370
     0
100
AcDbCircle
 10
320.825
 20
-79.22499999999998
 30
0.0
 40
0.5
100
AcDbArc
 50
0.0
 51
90.0
  0
ARC
  5
34E
330
6F
100
AcDbEntity
  8
0
370
     0
100
AcDbCircle
 10
307.825
 20
-79.22499999999998
 30
0.0
 40
0.5
100
AcDbArc
 50
90.0
 51
180.0
  0
LINE
  5
34F
330
6F
100
AcDbEntity
  8
0
370
     0
100
AcDbLine
 10
307.825
 20
-92.72499999999999
 30
0.0
 11
320.825
 21
-92.72499999999999
 31
0.0
  0
LINE
  5
350
330
6F
100
AcDbEntity
  8
0
370
     0
100
AcDbLine
 10
320.825
 20
-78.72499999999998
 30
0.0
 11
307.825
 21
-78.72499999999998
 31
0.0
  0
LINE
  5
351
330
6F
100
AcDbEntity
  8
0
370
     0
100
AcDbLine
 10
321.325
 20
-92.225
 30
0.0
 11
321.325
 21
-79.22499999999998
 31
0.0
  0
LINE
  5
352
330
6F
100
AcDbEntity
  8
0
370
     0
100
AcDbLine
 10
307.325
 20
-79.22499999999998
 30
0.0
 11
307.325
 21
-92.225
 31
0.0
  0
LINE
  5
367
330
6F
100
AcDbEntity
  8
0
  6
Continuous
370
     0
100
AcDbLine
 10
5.40625
 20
-40.625
 30
0.0
 11
23.16875
 21
-40.625
 31
0.0
  0
LINE
  5
368
330
6F
100
AcDbEntity
  8
0
  6
Continuous
370
     0
100
AcDbLine
 10
23.16875
 20
-54.625
 30
0.0
 11
5.40625
 21
-54.625
 31
0.0
  0
LINE
  5
369
330
6F
100
AcDbEntity
  8
0
  6
Continuous
370
     0
100
AcDbLine
 10
5.40625
 20
-59.675
 30
0.0
 11
39.8375
 21
-59.675
 31
0.0
  0
LINE
  5
36A
330
6F
100
AcDbEntity
  8
0
  6
Continuous
370
     0
100
AcDbLine
 10
29.36925
 20
-73.67499999999998
 30
0.0
 11
13.49325
 21
-73.67499999999998
 31
0.0
  0
LINE
  5
37C
330
6F
100
AcDbEntity
  8
0
  6
Continuous
370
     0
100
AcDbLine
 10
245.9125
 20
-40.625
 30
0.0
 11
266.3438
 21
-40.625
 31
0.0
  0
LINE
  5
37D
330
6F
100
AcDbEntity
  8
0
  6
Continuous
370
     0
100
AcDbLine
 10
272.25675
 20
-54.625
 30
0.0
 11
256.38075
 21
-54.625
 31
0.0
  0
ARC
  5
3C2
330
6F
100
AcDbEntity
  8
0
370
     0
100
AcDbCircle
 10
0.5
 20
-95.7
 30
0.0
 40
1.0
100
AcDbArc
 50
180.0
 51
270.0
  0
ARC
  5
3CC
330
6F
100
AcDbEntity
  8
0
370
     0
100
AcDbCircle
 10
0.5
 20
-0.5
 30
0.0
 40
1.0
100
AcDbArc
 50
90.0
 51
180.0
  0
ARC
  5
3E0
330
6F
100
AcDbEntity
  8
0
370
     0
100
AcDbCircle
 10
324.3
 20
-95.7
 30
0.0
 40
1.0
100
AcDbArc
 50
270.0
 51
0.0
  0
ARC
  5
3FC
330
6F
100
AcDbEntity
  8
0
370
     0
100
AcDbCircle
 10
285.2
 20
-0.5
 30
0.0
 40
1.0
100
AcDbArc
 50
0.0
 51
90.0
  0
ARC
  5
402
330
6F
100
AcDbEntity
  8
0
370
     0
100
AcDbCircle
 10
324.3
 20
-39.1
 30
0.0
 40
1.0
100
AcDbArc
 50
0.0
 51
90.0
  0
ARC
  5
408
330
6F
100
AcDbEntity
  8
0
370
     0
100
AcDbCircle
 10
286.7
 20
-37.6
 30
0.0
 40
0.5
100
AcDbArc
 50
180.0
 51
270.0
  0
LINE
  5
409
330
6F
100
AcDbEntity
  8
0
  6
Continuous
370
     0
100
AcDbLine
 10
324.3
 20
-38.1
 30
0.0
 11
286.7
 21
-38.1
 31
0.0
  0
LINE
  5
40A
330
6F
100
AcDbEntity
  8
0
  6
Continuous
370
     0
100
AcDbLine
 10
286.2
 20
-0.5
 30
0.0
 11
286.2
 21
-37.6
 31
0.0
  0
LINE
  5
4C0
330
6F
100
AcDbEntity
  8
0
  6
Continuous
370
     0
100
AcDbLine
 10
98.95000000000001
 20
0.5
 30
0.0
 11
129.65
 21
0.5000000000000002
 31
0.0
  0
LINE
  5
4C1
330
6F
100
AcDbEntity
  8
0
  6
Continuous
370
     0
100
AcDbLine
 10
195.15
 20
0.4999999999999992
 30
0.0
 11
225.85
 21
0.5000000000000009
 31
0.0
  0
LINE
  5
4C2
330
6F
100
AcDbEntity
  8
0
  6
Continuous
370
     0
100
AcDbLine
 10
271.35
 20
0.5
 30
0.0
 11
285.2
 21
0.5
 31
0.0
  0
LINE
  5
4C4
330
6F
100
AcDbEntity
  8
0
  6
Continuous
370
     0
100
AcDbLine
 10
325.3
 20
-39.1
 30
0.0
 11
325.3
 21
-95.7
 31
0.0
  0
LINE
  5
4C5
330
6F
100
AcDbEntity
  8
0
  6
Continuous
370
     0
100
AcDbLine
 10
324.3
 20
-96.70000000000001
 30
0.0
 11
291.35
 21
-96.70000000000001
 31
0.0
  0
LINE
  5
4C9
330
6F
100
AcDbEntity
  8
0
  6
Continuous
370
     0
100
AcDbLine
 10
-0.5
 20
-95.7
 30
0.0
 11
-0.5
 21
-0.5
 31
0.0
  0
LINE
  5
4CC
330
6F
100
AcDbEntity
  8
0
  6
Continuous
370
     0
100
AcDbLine
 10
0.5
 20
0.5
 30
0.0
 11
33.45000000000001
 21
0.4999999999999996
 31
0.0
  0
ARC
  5
4DC
330
6F
100
AcDbEntity
  8
0
370
     0
100
AcDbCircle
 10
5.493249999999997
 20
-74.175
 30
0.0
 40
0.5
100
AcDbArc
 50
0.0
 51
90.0
  0
LINE
  5
4DD
330
6F
100
AcDbEntity
  8
0
  6
Continuous
370
     0
100
AcDbLine
 10
5.493249999999997
 20
-73.67499999999998
 30
0.0
 11
5.40625
 21
-73.67499999999998
 31
0.0
  0
ARC
  5
4E3
330
6F
100
AcDbEntity
  8
0
370
     0
100
AcDbCircle
 10
13.49325
 20
-74.175
 30
0.0
 40
0.5
100
AcDbArc
 50
90.0
 51
180.0
  0
ARC
  5
4F0
330
6F
100
AcDbEntity
  8
0
370
     0
100
AcDbCircle
 10
29.36925
 20
-74.175
 30
0.0
 40
0.5
100
AcDbArc
 50
0.0
 51
90.0
  0
ARC
  5
4F1
330
6F
100
AcDbEntity
  8
0
370
     0
100
AcDbCircle
 10
37.36925
 20
-74.175
 30
0.0
 40
0.5
100
AcDbArc
 50
90.0
 51
180.0
  0
ARC
  5
4F8
330
6F
100
AcDbEntity
  8
0
370
     0
100
AcDbCircle
 10
248.38075
 20
-55.125
 30
0.0
 40
0.5
100
AcDbArc
 50
0.0
 51
90.0
  0
ARC
  5
4F9
330
6F
100
AcDbEntity
  8
0
370
     0
100
AcDbCircle
 10
256.38075
 20
-55.125
 30
0.0
 40
0.5
100
AcDbArc
 50
90.0
 51
180.0
  0
ARC
  5
4FF
330
6F
100
AcDbEntity
  8
0
370
     0
100
AcDbCircle
 10
272.25675
 20
-55.125
 30
0.0
 40
0.5
100
AcDbArc
 50
0.0
 51
90.0
  0
ARC
  5
505
330
6F
100
AcDbEntity
  8
0
370
     0
100
AcDbCircle
 10
280.25675
 20
-54.03799999999998
 30
0.0
 40
0.4999999999999858
100
AcDbArc
 50
89.99999999999348
 51
180.0000000000016
  0
ARC
  5
50B
330
6F
100
AcDbEntity
  8
0
370
     0
100
AcDbCircle
 10
266.3438
 20
-40.125
 30
0.0
 40
0.5
100
AcDbArc
 50
270.0
 51
0.0
  0
ARC
  5
511
330
6F
100
AcDbEntity
  8
0
370
     0
100
AcDbCircle
 10
266.34375
 20
-36.075
 30
0.0
 40
0.5
100
AcDbArc
 50
0.0
 51
90.0
  0
ARC
  5
517
330
6F
100
AcDbEntity
  8
0
370
     0
100
AcDbCircle
 10
278.9625
 20
-22.162
 30
0.0
 40
0.5
100
AcDbArc
 50
180.0
 51
270.0
  0
ARC
  5
5A1
330
6F
100
AcDbEntity
  8
0
370
     0
100
AcDbCircle
 10
267.4943
 20
-74.175
 30
0.0
 40
0.5
100
AcDbArc
 50
0.0
 51
90.0
  0
ARC
  5
5A7
330
6F
100
AcDbEntity
  8
0
370
     0
100
AcDbCircle
 10
251.6183
 20
-74.175
 30
0.0
 40
0.5
100
AcDbArc
 50
90.0
 51
180.0
  0
ARC
  5
5AD
330
6F
100
AcDbEntity
  8
0
370
     0
100
AcDbCircle
 10
258.762
 20
-17.025
 30
0.0
 40
0.5
100
AcDbArc
 50
90.0
 51
180.0
  0
ARC
  5
5B3
330
6F
100
AcDbEntity
  8
0
370
     0
100
AcDbCircle
 10
274.638
 20
-17.025
 30
0.0
 40
0.5
100
AcDbArc
 50
0.0
 51
90.0
  0
ARC
  5
5CB
330
6F
100
AcDbEntity
  8
0
  6
Continuous
370
     0
100
AcDbCircle
 10
37.45
 20
3.5
 30
0.0
 40
2.0
100
AcDbArc
 50
90.0
 51
180.0
  0
ARC
  5
5CC
330
6F
100
AcDbEntity
  8
0
  6
Continuous
370
     0
100
AcDbCircle
 10
33.45000000000001
 20
2.5
 30
0.0
 40
2.0
100
AcDbArc
 50
270.0
 51
0.0
  0
ARC
  5
5CD
330
6F
100
AcDbEntity
  8
0
  6
Continuous
370
     0
100
AcDbCircle
 10
98.95000000000001
 20
2.5
 30
0.0
 40
2.0
100
AcDbArc
 50
180.0
 51
270.0
  0
ARC
  5
5CE
330
6F
100
AcDbEntity
  8
0
  6
Continuous
370
     0
100
AcDbCircle
 10
94.95
 20
3.5
 30
0.0
 40
2.0
100
AcDbArc
 50
0.0
 51
90.0
  0
LINE
  5
5CF
330
6F
100
AcDbEntity
  8
0
  6
Continuous
370
     0
100
AcDbLine
 10
37.45
 20
5.5
 30
0.0
 11
94.95
 21
5.5
 31
0.0
  0
LINE
  5
5EB
330
6F
100
AcDbEntity
  8
0
  6
Continuous
370
     0
100
AcDbLine
 10
229.85
 20
5.5
 30
0.0
 11
267.35
 21
5.5
 31
0.0
  0
ARC
  5
62D
330
6F
100
AcDbEntity
  8
0
  6
Continuous
370
     0
100
AcDbCircle
 10
133.65
 20
3.5
 30
0.0
 40
2.0
100
AcDbArc
 50
90.0
 51
180.0
  0
ARC
  5
62E
330
6F
100
AcDbEntity
  8
0
  6
Continuous
370
     0
100
AcDbCircle
 10
129.65
 20
2.5
 30
0.0
 40
2.0
100
AcDbArc
 50
270.0
 51
0.0
  0
ARC
  5
62F
330
6F
100
AcDbEntity
  8
0
  6
Continuous
370
     0
100
AcDbCircle
 10
195.15
 20
2.499999999999999
 30
0.0
 40
2.0
100
AcDbArc
 50
180.0
 51
270.0
  0
ARC
  5
630
330
6F
100
AcDbEntity
  8
0
  6
Continuous
370
     0
100
AcDbCircle
 10
191.15
 20
3.5
 30
0.0
 40
2.0
100
AcDbArc
 50
0.0
 51
90.0
  0
LINE
  5
631
330
6F
100
AcDbEntity
  8
0
  6
Continuous
370
     0
100
AcDbLine
 10
133.65
 20
5.5
 30
0.0
 11
191.15
 21
5.5
 31
0.0
  0
ARC
  5
63B
330
6F
100
AcDbEntity
  8
0
  6
Continuous
370
     0
100
AcDbCircle
 10
191.15
 20
-99.7
 30
0.0
 40
2.0
100
AcDbArc
 50
270.0
 51
0.0
  0
ARC
  5
63C
330
6F
100
AcDbEntity
  8
0
  6
Continuous
370
     0
100
AcDbCircle
 10
195.15
 20
-98.7
 30
0.0
 40
2.0
100
AcDbArc
 50
90.0
 51
180.0
  0
ARC
  5
63D
330
6F
100
AcDbEntity
  8
0
  6
Continuous
370
     0
100
AcDbCircle
 10
129.65
 20
-98.7
 30
0.0
 40
2.0
100
AcDbArc
 50
0.0
 51
90.0
  0
ARC
  5
63E
330
6F
100
AcDbEntity
  8
0
  6
Continuous
370
     0
100
AcDbCircle
 10
133.65
 20
-99.7
 30
0.0
 40
2.0
100
AcDbArc
 50
180.0
 51
270.0
  0
LINE
  5
63F
330
6F
100
AcDbEntity
  8
0
  6
Continuous
370
     0
100
AcDbLine
 10
133.65
 20
-101.7
 30
0.0
 11
191.15
 21
-101.7
 31
0.0
  0
ARC
  5
649
330
6F
100
AcDbEntity
  8
0
  6
Continuous
370
     0
100
AcDbCircle
 10
94.95
 20
-99.7
 30
0.0
 40
2.0
100
AcDbArc
 50
270.0
 51
0.0
  0
ARC
  5
64A
330
6F
100
AcDbEntity
  8
0
  6
Continuous
370
     0
100
AcDbCircle
 10
98.95000000000001
 20
-98.7
 30
0.0
 40
2.0
100
AcDbArc
 50
90.0
 51
180.0
  0
ARC
  5
64B
330
6F
100
AcDbEntity
  8
0
  6
Continuous
370
     0
100
AcDbCircle
 10
33.45000000000003
 20
-98.7
 30
0.0
 40
2.0
100
AcDbArc
 50
0.0
 51
90.0
  0
ARC
  5
64C
330
6F
100
AcDbEntity
  8
0
  6
Continuous
370
     0
100
AcDbCircle
 10
37.45
 20
-99.7
 30
0.0
 40
2.0
100
AcDbArc
 50
180.0
 51
270.0
  0
LINE
  5
64D
330
6F
100
AcDbEntity
  8
0
  6
Continuous
370
     0
100
AcDbLine
 10
37.45
 20
-101.7
 30
0.0
 11
94.95
 21
-101.7
 31
0.0
  0
ARC
  5
657
330
6F
100
AcDbEntity
  8
0
  6
Continuous
370
     0
100
AcDbCircle
 10
287.35
 20
-99.7
 30
0.0
 40
2.0
100
AcDbArc
 50
270.0
 51
0.0
  0
ARC
  5
658
330
6F
100
AcDbEntity
  8
0
  6
Continuous
370
     0
100
AcDbCircle
 10
291.35
 20
-98.7
 30
0.0
 40
2.0
100
AcDbArc
 50
90.0
 51
180.0
  0
ARC
  5
659
330
6F
100
AcDbEntity
  8
0
  6
Continuous
370
     0
100
AcDbCircle
 10
225.85
 20
-98.7
 30
0.0
 40
2.0
100
AcDbArc
 50
0.0
 51
90.0
  0
ARC
  5
65A
330
6F
100
AcDbEntity
  8
0
  6
Continuous
370
     0
100
AcDbCircle
 10
229.85
 20
-99.7
 30
0.0
 40
2.0
100
AcDbArc
 50
180.0
 51
270.0
  0
LINE
  5
65B
330
6F
100
AcDbEntity
  8
0
  6
Continuous
370
     0
100
AcDbLine
 10
229.85
 20
-101.7
 30
0.0
 11
287.35
 21
-101.7
 31
0.0
  0
ARC
  5
662
330
6F
100
AcDbEntity
  8
0
  6
Continuous
370
     0
100
AcDbCircle
 10
271.35
 20
2.5
 30
0.0
 40
2.0
100
AcDbArc
 50
180.0
 51
270.0
  0
ARC
  5
663
330
6F
100
AcDbEntity
  8
0
  6
Continuous
370
     0
100
AcDbCircle
 10
267.35
 20
3.5
 30
0.0
 40
2.0
100
AcDbArc
 50
0.0
 51
90.0
  0
ARC
  5
66A
330
6F
100
AcDbEntity
  8
0
  6
Continuous
370
     0
100
AcDbCircle
 10
229.85
 20
3.5
 30
0.0
 40
2.0
100
AcDbArc
 50
90.0
 51
180.0
  0
ARC
  5
66B
330
6F
100
AcDbEntity
  8
0
  6
Continuous
370
     0
100
AcDbCircle
 10
225.85
 20
2.5
 30
0.0
 40
2.0
100
AcDbArc
 50
270.0
 51
0.0
  0
LINE
  5
671
330
6F
100
AcDbEntity
  8
0
  6
Continuous
370
     0
100
AcDbLine
 10
0.5
 20
-96.70000000000001
 30
0.0
 11
33.45000000000003
 21
-96.70000000000001
 31
0.0
  0
LINE
  5
677
330
6F
100
AcDbEntity
  8
0
  6
Continuous
370
     0
100
AcDbLine
 10
98.95000000000001
 20
-96.70000000000001
 30
0.0
 11
129.65
 21
-96.70000000000001
 31
0.0
  0
LINE
  5
67D
330
6F
100
AcDbEntity
  8
0
  6
Continuous
370
     0
100
AcDbLine
 10
195.15
 20
-96.70000000000001
 30
0.0
 11
225.85
 21
-96.70000000000001
 31
0.0
  0
LINE
  5
6A0
330
6F
100
AcDbEntity
  8
0
  6
Continuous
370
     0
100
AcDbLine
 10
35.45
 20
3.5
 30
0.0
 11
35.45
 21
2.5
 31
0.0
  0
LINE
  5
6A1
330
6F
100
AcDbEntity
  8
0
  6
Continuous
370
     0
100
AcDbLine
 10
96.95
 20
3.5
 30
0.0
 11
96.95
 21
2.5
 31
0.0
  0
LINE
  5
6A2
330
6F
100
AcDbEntity
  8
0
  6
Continuous
370
     0
100
AcDbLine
 10
131.65
 20
3.5
 30
0.0
 11
131.65
 21
2.5
 31
0.0
  0
LINE
  5
6A3
330
6F
100
AcDbEntity
  8
0
  6
Continuous
370
     0
100
AcDbLine
 10
193.15
 20
3.5
 30
0.0
 11
193.15
 21
2.499999999999999
 31
0.0
  0
LINE
  5
6A5
330
6F
100
AcDbEntity
  8
0
  6
Continuous
370
     0
100
AcDbLine
 10
227.85
 20
3.5
 30
0.0
 11
227.85
 21
2.5
 31
0.0
  0
LINE
  5
6A6
330
6F
100
AcDbEntity
  8
0
  6
Continuous
370
     0
100
AcDbLine
 10
269.35
 20
3.5
 30
0.0
 11
269.35
 21
2.5
 31
0.0
  0
LINE
  5
6A7
330
6F
100
AcDbEntity
  8
0
  6
Continuous
370
     0
100
AcDbLine
 10
289.35
 20
-98.7
 30
0.0
 11
289.35
 21
-99.7
 31
0.0
  0
LINE
  5
6A8
330
6F
100
AcDbEntity
  8
0
  6
Continuous
370
     0
100
AcDbLine
 10
227.85
 20
-98.7
 30
0.0
 11
227.85
 21
-99.7
 31
0.0
  0
LINE
  5
6A9
330
6F
100
AcDbEntity
  8
0
  6
Continuous
370
     0
100
AcDbLine
 10
193.15
 20
-98.7
 30
0.0
 11
193.15
 21
-99.7
 31
0.0
  0
LINE
  5
6AA
330
6F
100
AcDbEntity
  8
0
  6
Continuous
370
     0
100
AcDbLine
 10
131.65
 20
-98.7
 30
0.0
 11
131.65
 21
-99.7
 31
0.0
  0
LINE
  5
6AB
330
6F
100
AcDbEntity
  8
0
  6
Continuous
370
     0
100
AcDbLine
 10
96.95
 20
-98.7
 30
0.0
 11
96.95
 21
-99.7
 31
0.0
  0
LINE
  5
6AC
330
6F
100
AcDbEntity
  8
0
  6
Continuous
370
     0
100
AcDbLine
 10
35.45000000000003
 20
-98.7
 30
0.0
 11
35.45
 21
-99.7
 31
0.0
  0
ARC
  5
772
330
6F
100
AcDbEntity
  8
0
370
     0
100
AcDbCircle
 10
77.93074999999999
 20
-92.225
 30
0.0
 40
0.5
100
AcDbArc
 50
180.0
 51
270.0
  0
ARC
  5
773
330
6F
100
AcDbEntity
  8
0
370
     0
100
AcDbCircle
 10
77.93074999999999
 20
-78.22499999999998
 30
0.0
 40
0.5
100
AcDbArc
 50
90.0
 51
180.0
  0
ARC
  5
776
330
6F
100
AcDbEntity
  8
0
370
     0
100
AcDbCircle
 10
183.96875
 20
-92.225
 30
0.0
 40
0.5
100
AcDbArc
 50
270.0
 51
0.0
  0
ARC
  5
777
330
6F
100
AcDbEntity
  8
0
370
     0
100
AcDbCircle
 10
183.96875
 20
-78.22499999999998
 30
0.0
 40
0.5
100
AcDbArc
 50
0.0
 51
90.0
  0
LINE
  5
78C
330
6F
100
AcDbEntity
  8
0
  6
Continuous
370
     0
100
AcDbLine
 10
77.43074999999999
 20
-92.225
 30
0.0
 11
77.43074999999999
 21
-78.22499999999998
 31
0.0
  0
LINE
  5
791
330
6F
100
AcDbEntity
  8
0
  6
Continuous
370
     0
100
AcDbLine
 10
184.46875
 20
-78.22499999999998
 30
0.0
 11
184.46875
 21
-92.225
 31
0.0
  0
ARC
  5
894
330
6F
100
AcDbEntity
  8
0
370
     0
100
AcDbCircle
 10
137.46875
 20
-92.225
 30
0.0
 40
0.5
100
AcDbArc
 50
270.0
 51
0.0
  0
ARC
  5
895
330
6F
100
AcDbEntity
  8
0
370
     0
100
AcDbCircle
 10
137.46875
 20
-79.22499999999998
 30
0.0
 40
0.5
100
AcDbArc
 50
0.0
 51
90.0
  0
LINE
  5
896
330
6F
100
AcDbEntity
  8
0
370
     0
100
AcDbLine
 10
137.96875
 20
-92.225
 30
0.0
 11
137.96875
 21
-79.22499999999998
 31
0.0
  0
ARC
  5
897
330
6F
100
AcDbEntity
  8
0
370
     0
100
AcDbCircle
 10
83.96874999999999
 20
-78.22499999999998
 30
0.0
 40
0.5
100
AcDbArc
 50
0.0
 51
90.0
  0
LINE
  5
898
330
6F
100
AcDbEntity
  8
0
370
     0
100
AcDbLine
 10
83.96874999999999
 20
-77.72499999999998
 30
0.0
 11
77.93074999999999
 21
-77.72499999999998
 31
0.0
  0
LINE
  5
89B
330
6F
100
AcDbEntity
  8
0
370
     0
100
AcDbLine
 10
77.93074999999999
 20
-92.72499999999999
 30
0.0
 11
107.80675
 21
-92.72499999999999
 31
0.0
  0
LINE
  5
89C
330
6F
100
AcDbEntity
  8
0
370
     0
100
AcDbLine
 10
100.8068
 20
-78.72500000000002
 30
0.0
 11
84.96879999999999
 21
-78.72499999999999
 31
0.0
  0
ARC
  5
89F
330
6F
100
AcDbEntity
  8
0
370
     0
100
AcDbCircle
 10
107.80675
 20
-92.225
 30
0.0
 40
0.5
100
AcDbArc
 50
270.0
 51
0.0
  0
ARC
  5
8A0
330
6F
100
AcDbEntity
  8
0
370
     0
100
AcDbCircle
 10
107.80675
 20
-78.22499999999998
 30
0.0
 40
0.5
100
AcDbArc
 50
0.0
 51
90.0
  0
ARC
  5
8A1
330
6F
100
AcDbEntity
  8
0
370
     0
100
AcDbCircle
 10
101.80675
 20
-78.22499999999998
 30
0.0
 40
0.5
100
AcDbArc
 50
90.0
 51
180.0
  0
LINE
  5
8A2
330
6F
100
AcDbEntity
  8
0
370
     0
100
AcDbLine
 10
107.80675
 20
-77.72499999999998
 30
0.0
 11
101.80675
 21
-77.72499999999998
 31
0.0
  0
ARC
  5
8A3
330
6F
100
AcDbEntity
  8
0
370
     0
100
AcDbCircle
 10
119.70625
 20
-92.225
 30
0.0
 40
0.5
100
AcDbArc
 50
180.0
 51
270.0
  0
ARC
  5
8A4
330
6F
100
AcDbEntity
  8
0
370
     0
100
AcDbCircle
 10
119.70625
 20
-79.22499999999998
 30
0.0
 40
0.5
100
AcDbArc
 50
90.0
 51
180.0
  0
LINE
  5
8A5
330
6F
100
AcDbEntity
  8
0
370
     0
100
AcDbLine
 10
119.20625
 20
-79.22499999999998
 30
0.0
 11
119.20625
 21
-92.225
 31
0.0
  0
LINE
  5
8A6
330
6F
100
AcDbEntity
  8
0
370
     0
100
AcDbLine
 10
149.36825
 20
-92.72499999999999
 30
0.0
 11
183.96875
 21
-92.72499999999999
 31
0.0
  0
LINE
  5
8A7
330
6F
100
AcDbEntity
  8
0
370
     0
100
AcDbLine
 10
172.2443
 20
-78.72500000000002
 30
0.0
 11
156.3683
 21
-78.72499999999999
 31
0.0
  0
ARC
  5
8A8
330
6F
100
AcDbEntity
  8
0
370
     0
100
AcDbCircle
 10
149.36825
 20
-92.225
 30
0.0
 40
0.5
100
AcDbArc
 50
180.0
 51
270.0
  0
ARC
  5
8A9
330
6F
100
AcDbEntity
  8
0
370
     0
100
AcDbCircle
 10
155.36825
 20
-78.22499999999998
 30
0.0
 40
0.5
100
AcDbArc
 50
0.0
 51
90.0
  0
ARC
  5
8AA
330
6F
100
AcDbEntity
  8
0
370
     0
100
AcDbCircle
 10
149.36825
 20
-78.22499999999998
 30
0.0
 40
0.5
100
AcDbArc
 50
90.0
 51
180.0
  0
LINE
  5
8AB
330
6F
100
AcDbEntity
  8
0
370
     0
100
AcDbLine
 10
155.36825
 20
-77.72499999999998
 30
0.0
 11
149.36825
 21
-77.72499999999998
 31
0.0
  0
ARC
  5
8AC
330
6F
100
AcDbEntity
  8
0
370
     0
100
AcDbCircle
 10
173.24425
 20
-78.22499999999998
 30
0.0
 40
0.5
100
AcDbArc
 50
90.0
 51
180.0
  0
LINE
  5
8AD
330
6F
100
AcDbEntity
  8
0
  6
Continuous
370
     0
100
AcDbLine
 10
119.70625
 20
-78.72499999999998
 30
0.0
 11
137.46875
 21
-78.72499999999998
 31
0.0
  0
LINE
  5
8AE
330
6F
100
AcDbEntity
  8
0
  6
Continuous
370
     0
100
AcDbLine
 10
137.46875
 20
-92.72499999999999
 30
0.0
 11
119.70625
 21
-92.72499999999999
 31
0.0
  0
LINE
  5
8AF
330
6F
100
AcDbEntity
  8
0
  6
Continuous
370
     0
100
AcDbLine
 10
183.96875
 20
-77.72499999999998
 30
0.0
 11
173.24425
 21
-77.72499999999998
 31
0.0
  0
LINE
  5
8B0
330
6F
100
AcDbEntity
  8
0
  6
Continuous
370
     0
100
AcDbLine
 10
108.30675
 20
-92.225
 30
0.0
 11
108.30675
 21
-78.22499999999998
 31
0.0
  0
LINE
  5
8B1
330
6F
100
AcDbEntity
  8
0
  6
Continuous
370
     0
100
AcDbLine
 10
148.86825
 20
-78.22499999999998
 30
0.0
 11
148.86825
 21
-92.225
 31
0.0
  0
ARC
  5
8B3
330
6F
100
AcDbEntity
  8
0
370
     0
100
AcDbCircle
 10
100.8068
 20
-78.22499999999999
 30
0.0
 40
0.5000000000000285
100
AcDbArc
 50
270.0
 51
359.9999999999968
  0
ARC
  5
8B4
330
6F
100
AcDbEntity
  8
0
370
     0
100
AcDbCircle
 10
84.96879999999999
 20
-78.22499999999999
 30
0.0
 40
0.5
100
AcDbArc
 50
180.0
 51
270.0
  0
ARC
  5
8B5
330
6F
100
AcDbEntity
  8
0
370
     0
100
AcDbCircle
 10
172.2443
 20
-78.22499999999999
 30
0.0
 40
0.5000000000000285
100
AcDbArc
 50
270.0
 51
359.9999999999968
  0
ARC
  5
8B6
330
6F
100
AcDbEntity
  8
0
370
     0
100
AcDbCircle
 10
156.3683
 20
-78.22499999999999
 30
0.0
 40
0.5
100
AcDbArc
 50
180.0
 51
270.0
  0
VIEWPORT
  5
54F
102
{ACAD_XDICTIONARY
360
550
102
}
330
6B
100
AcDbEntity
 67
     1
  8
0
  6
Continuous
348
2F
100
AcDbViewport
 10
6.245772176493067
 20
4.141729609241455
 30
0.0
 40
22.46154178556468
 41
8.993376496527686
 68
     1
 69
     1
 12
6.245772176493067
 22
4.141729609241455
 13
0.0
 23
0.0
 14
0.5
 24
0.5
 15
0.5
 25
0.5
 16
0.0
 26
0.0
 36
1.0
 17
0.0
 27
0.0
 37
0.0
 42
50.0
 43
0.0
 44
0.0
 45
8.993376496527686
 50
0.0
 51
0.0
 72
   100
 90
   819232
  1

281
     0
 71
     1
 74
     0
110
0.0
120
0.0
130
0.0
111
1.0
121
0.0
131
0.0
112
0.0
122
1.0
132
0.0
 79
     0
146
0.0
170
     0
 61
     5
292
     1
282
     1
141
0.0
142
0.0
 63
   250
421
  3355443
  0
VIEWPORT
  5
554
102
{ACAD_XDICTIONARY
360
555
102
}
330
6B
100
AcDbEntity
 67
     1
  8
0
  6
Continuous
348
2F
100
AcDbViewport
 10
5.333333052988126
 20
4.083333437837015
 30
0.0
 40
8.533332884781003
 41
6.533333500539223
 68
     2
 69
     2
 12
162.4
 22
-48.1
 13
0.0
 23
0.0
 14
1.0
 24
1.0
 15
0.0
 25
0.0
 16
0.0
 26
0.0
 36
1.0
 17
0.0
 27
0.0
 37
0.0
 42
50.0
 43
0.0
 44
0.0
 45
254.5698079958453
 50
0.0
 51
0.0
 72
   100
 90
   819232
  1

281
     0
 71
     1
 74
     0
110
0.0
120
0.0
130
0.0
111
1.0
121
0.0
131
0.0
112
0.0
122
1.0
132
0.0
 79
     0
146
0.0
170
     0
 61
     5
292
     1
282
     1
141
0.0
142
0.0
 63
   250
421
  3355443
  0
ENDSEC
  0
SECTION
  2
OBJECTS
  0
DICTIONARY
  5
C
330
0
100
AcDbDictionary
281
     1
  3
ACAD_CIP_PREVIOUS_PRODUCT_INFO
350
354
  3
ACAD_COLOR
350
62
  3
ACAD_DETAILVIEWSTYLE
350
69
  3
ACAD_GROUP
350
D
  3
ACAD_LAYOUT
350
61
  3
ACAD_MATERIAL
350
10
  3
ACAD_MLEADERSTYLE
350
65
  3
ACAD_MLINESTYLE
350
5E
  3
ACAD_PLOTSETTINGS
350
60
  3
ACAD_PLOTSTYLENAME
350
E
  3
ACAD_SCALELIST
350
42
  3
ACAD_SECTIONVIEWSTYLE
350
67
  3
ACAD_TABLESTYLE
350
63
  3
ACAD_VISUALSTYLE
350
29
  3
ACDB_RECOMPOSE_DATA
350
8DC
  3
AcDbVariableDictionary
350
35D
  0
DICTIONARY
  5
39B
330
2
100
AcDbDictionary
280
     1
281
     1
  3
ACAD_LAYERSTATES
360
39C
  0
DICTIONARY
  5
386
330
54
100
AcDbDictionary
280
     1
281
     1
  3
ADSK_XREC_LAYER_RECONCILED
360
387
  0
DICTIONARY
  5
550
330
54F
100
AcDbDictionary
280
     1
281
     1
  3
ASDK_XREC_ANNOTATION_SCALE_INFO
360
551
  0
DICTIONARY
  5
555
330
554
100
AcDbDictionary
280
     1
281
     1
  3
ASDK_XREC_ANNOTATION_SCALE_INFO
360
556
  0
XRECORD
  5
354
102
{ACAD_REACTORS
330
C
102
}
330
C
100
AcDbXrecord
280
     1
300
ACD
300
2022
300

  0
DICTIONARY
  5
62
102
{ACAD_REACTORS
330
C
102
}
330
C
100
AcDbDictionary
281
     1
  0
DICTIONARY
  5
69
102
{ACAD_REACTORS
330
C
102
}
330
C
100
AcDbDictionary
281
     1
  3
Imperial24
350
6A
  0
DICTIONARY
  5
D
102
{ACAD_REACTORS
330
C
102
}
330
C
100
AcDbDictionary
281
     1
  0
DICTIONARY
  5
61
102
{ACAD_REACTORS
330
C
102
}
330
C
100
AcDbDictionary
281
     1
  3
Layout1
350
6E
  3
Model
350
72
  0
DICTIONARY
  5
10
102
{ACAD_REACTORS
330
C
102
}
330
C
100
AcDbDictionary
281
     1
  3
ByBlock
350
19
  3
ByLayer
350
11
  3
Global
350
21
  0
DICTIONARY
  5
65
102
{ACAD_REACTORS
330
C
102
}
330
C
100
AcDbDictionary
281
     1
  3
Standard
350
66
  0
DICTIONARY
  5
5E
102
{ACAD_REACTORS
330
C
102
}
330
C
100
AcDbDictionary
281
     1
  3
Standard
350
5F
  0
DICTIONARY
  5
60
102
{ACAD_REACTORS
330
C
102
}
330
C
100
AcDbDictionary
281
     1
  0
ACDBDICTIONARYWDFLT
  5
E
102
{ACAD_REACTORS
330
C
102
}
330
C
100
AcDbDictionary
281
     1
  3
Normal
350
F
100
AcDbDictionaryWithDefault
340
F
  0
DICTIONARY
  5
42
102
{ACAD_REACTORS
330
C
102
}
330
C
100
AcDbDictionary
281
     1
  3
A0
350
43
  3
A1
350
44
  3
A2
350
45
  3
A3
350
46
  3
A4
350
47
  3
A5
350
48
  3
A6
350
49
  3
A7
350
4A
  3
A8
350
4B
  3
A9
350
4C
  3
B0
350
4D
  3
B1
350
4E
  3
B2
350
4F
  3
B3
350
50
  3
B4
350
51
  3
B5
350
52
  3
B6
350
53
  0
DICTIONARY
  5
67
102
{ACAD_REACTORS
330
C
102
}
330
C
100
AcDbDictionary
281
     1
  3
Imperial24
350
68
  0
DICTIONARY
  5
63
102
{ACAD_REACTORS
330
C
102
}
330
C
100
AcDbDictionary
281
     1
  3
Standard
350
64
  0
DICTIONARY
  5
29
102
{ACAD_REACTORS
330
C
102
}
330
C
100
AcDbDictionary
281
     1
  3
2dWireframe
350
2F
  3
Basic
350
2E
  3
Brighten
350
35
  3
ColorChange
350
39
  3
Conceptual
350
32
  3
Dim
350
34
  3
EdgeColorOff
350
41
  3
Facepattern
350
38
  3
Flat
350
2A
  3
FlatWithEdges
350
2B
  3
Gouraud
350
2C
  3
GouraudWithEdges
350
2D
  3
Hidden
350
31
  3
JitterOff
350
3F
  3
Linepattern
350
37
  3
OverhangOff
350
40
  3
Realistic
350
33
  3
Shaded
350
3E
  3
Shaded with edges
350
3D
  3
Shades of Gray
350
3A
  3
Sketchy
350
3B
  3
Thicken
350
36
  3
Wireframe
350
30
  3
X-Ray
350
3C
  0
XRECORD
  5
8DC
102
{ACAD_REACTORS
330
C
102
}
330
C
100
AcDbXrecord
280
     1
 90
        1
330
64
  0
DICTIONARY
  5
35D
102
{ACAD_REACTORS
330
C
102
}
330
C
100
AcDbDictionary
281
     1
  3
CANNOSCALE
350
363
  3
CMLEADERSTYLE
350
35F
  3
CTABLESTYLE
350
35E
  3
CVIEWDETAILSTYLE
350
360
  3
CVIEWSECTIONSTYLE
350
361
  3
LAYEREVAL
350
365
  3
LAYERNOTIFY
350
366
  3
LIGHTINGUNITS
350
364
  3
MSLTSCALE
350
362
  0
DICTIONARY
  5
39C
102
{ACAD_REACTORS
330
39B
102
}
330
39B
100
AcDbDictionary
281
     1
  0
XRECORD
  5
387
102
{ACAD_REACTORS
330
386
102
}
330
386
100
AcDbXrecord
280
     1
290
     1
  0
XRECORD
  5
551
102
{ACAD_REACTORS
330
550
102
}
330
550
100
AcDbXrecord
280
     1
 90
        1
340
43
  0
XRECORD
  5
556
102
{ACAD_REACTORS
330
555
102
}
330
555
100
AcDbXrecord
280
     1
 90
        1
340
43
  0
ACDBDETAILVIEWSTYLE
  5
6A
102
{ACAD_REACTORS
330
69
102
}
330
69
100
AcDbModelDocViewStyle
 70
     0
  3
Imperial24
290
     0
300
Imperial24
 90
        0
100
AcDbDetailViewStyle
 70
     0
 71
     0
 90
        3
 71
     1
340
55
 62
   256
 40
0.24
340
0
 62
   256
 40
0.24
300

 40
0.36
280
     3
 71
     2
340
5C
 90
       25
 62
   256
 71
     3
340
55
 62
   256
 40
0.24
 90
        1
 40
0.75
 90
        1
300
%<\AcVar ViewType \f "%tc1">% %<\AcVar ViewDetailId>%\PSCALE %<\AcVar ViewScale \f "%sn">%
 71
     4
340
5C
 90
       25
 62
   256
340
5C
 90
       25
 62
   256
280
     0
  0
LAYOUT
  5
6E
102
{ACAD_REACTORS
330
61
102
}
330
61
100
AcDbPlotSettings
  1

  2
HP LaserJet Professional CM1410 Series PCL 6
  4
Letter
  6

 40
4.233333110809326
 41
4.23333740234375
 42
4.23333740234375
 43
4.23333740234375
 44
215.9000091552734
 45
279.3999938964844
 46
0.0
 47
0.0
 48
0.0
 49
0.0
140
0.0
141
0.0
142
1.0
143
1.0
 70
   688
 72
     0
 73
     1
 74
     5
  7

 75
    16
147
1.0
 76
     0
 77
     2
 78
   300
148
0.0
149
0.0
100
AcDbLayout
  1
Layout1
 70
     1
 71
     1
 10
-0.1666668268639272
 20
-0.166666657905879
 11
10.83333293284018
 21
8.333333702537958
 12
0.0
 22
0.0
 32
0.0
 14
1.066666610597625
 24
0.8166666875674033
 34
0.0
 15
9.599999495378627
 25
7.350000188106625
 35
0.0
146
0.0
 13
0.0
 23
0.0
 33
0.0
 16
1.0
 26
0.0
 36
0.0
 17
0.0
 27
1.0
 37
0.0
 76
     0
330
6B
331
54F
1001
ACAD_PSEXT
1000
HP LaserJet Professional CM1410 Series PCL 6
1000
HP LaserJet Professional CM1410 Series PCL 6
1000
HPLaserJetCM1415fnw
1000

1070
     0
  0
LAYOUT
  5
72
102
{ACAD_REACTORS
330
61
102
}
330
61
100
AcDbPlotSettings
  1

  2
HP LaserJet Professional CM1410 Series PCL 6
  4

  6

 40
0.0
 41
0.0
 42
0.0
 43
0.0
 44
0.0
 45
0.0
 46
0.0
 47
0.0
 48
0.0
 49
0.0
140
0.0
141
0.0
142
1.0
143
1.0
 70
  1712
 72
     0
 73
     0
 74
     0
  7

 75
     0
147
1.0
 76
     0
 77
     2
 78
   300
148
0.0
149
0.0
100
AcDbLayout
  1
Model
 70
     1
 71
     0
 10
0.0
 20
0.0
 11
12.0
 21
9.0
 12
0.0
 22
0.0
 32
0.0
 14
0.0
 24
0.0
 34
0.0
 15
0.0
 25
0.0
 35
0.0
146
0.0
 13
0.0
 23
0.0
 33
0.0
 16
1.0
 26
0.0
 36
0.0
 17
0.0
 27
1.0
 37
0.0
 76
     0
330
6F
331
74
  0
MATERIAL
  5
19
102
{ACAD_XDICTIONARY
360
1A
102
}
102
{ACAD_REACTORS
330
10
102
}
330
10
100
AcDbMaterial
  1
ByBlock
 72
     0
 43
0.0208333333333333
 43
0.0
 43
0.0
 43
0.0
 43
0.0
 43
0.0208333333333333
 43
0.0
 43
0.0
 43
0.0
 43
0.0
 43
1.0
 43
0.0
 43
0.0
 43
0.0
 43
0.0
 43
1.0
 77
     0
 47
0.0208333333333333
 47
0.0
 47
0.0
 47
0.0
 47
0.0
 47
0.0208333333333333
 47
0.0
 47
0.0
 47
0.0
 47
0.0
 47
1.0
 47
0.0
 47
0.0
 47
0.0
 47
0.0
 47
1.0
171
     0
 49
0.0208333333333333
 49
0.0
 49
0.0
 49
0.0
 49
0.0
 49
0.0208333333333333
 49
0.0
 49
0.0
 49
0.0
 49
0.0
 49
1.0
 49
0.0
 49
0.0
 49
0.0
 49
0.0
 49
1.0
175
     0
142
0.0208333333333333
142
0.0
142
0.0
142
0.0
142
0.0
142
0.0208333333333333
142
0.0
142
0.0
142
0.0
142
0.0
142
1.0
142
0.0
142
0.0
142
0.0
142
0.0
142
1.0
179
     0
144
0.0208333333333333
144
0.0
144
0.0
144
0.0
144
0.0
144
0.0208333333333333
144
0.0
144
0.0
144
0.0
144
0.0
144
1.0
144
0.0
144
0.0
144
0.0
144
0.0
144
1.0
147
0.0208333333333333
147
0.0
147
0.0
147
0.0
147
0.0
147
0.0208333333333333
147
0.0
147
0.0
147
0.0
147
0.0
147
1.0
147
0.0
147
0.0
147
0.0
147
0.0
147
1.0
  0
MATERIAL
  5
11
102
{ACAD_XDICTIONARY
360
12
102
}
102
{ACAD_REACTORS
330
10
102
}
330
10
100
AcDbMaterial
  1
ByLayer
 72
     0
 43
0.0208333333333333
 43
0.0
 43
0.0
 43
0.0
 43
0.0
 43
0.0208333333333333
 43
0.0
 43
0.0
 43
0.0
 43
0.0
 43
1.0
 43
0.0
 43
0.0
 43
0.0
 43
0.0
 43
1.0
 77
     0
 47
0.0208333333333333
 47
0.0
 47
0.0
 47
0.0
 47
0.0
 47
0.0208333333333333
 47
0.0
 47
0.0
 47
0.0
 47
0.0
 47
1.0
 47
0.0
 47
0.0
 47
0.0
 47
0.0
 47
1.0
171
     0
 49
0.0208333333333333
 49
0.0
 49
0.0
 49
0.0
 49
0.0
 49
0.0208333333333333
 49
0.0
 49
0.0
 49
0.0
 49
0.0
 49
1.0
 49
0.0
 49
0.0
 49
0.0
 49
0.0
 49
1.0
175
     0
142
0.0208333333333333
142
0.0
142
0.0
142
0.0
142
0.0
142
0.0208333333333333
142
0.0
142
0.0
142
0.0
142
0.0
142
1.0
142
0.0
142
0.0
142
0.0
142
0.0
142
1.0
179
     0
144
0.0208333333333333
144
0.0
144
0.0
144
0.0
144
0.0
144
0.0208333333333333
144
0.0
144
0.0
144
0.0
144
0.0
144
1.0
144
0.0
144
0.0
144
0.0
144
0.0
144
1.0
147
0.0208333333333333
147
0.0
147
0.0
147
0.0
147
0.0
147
0.0208333333333333
147
0.0
147
0.0
147
0.0
147
0.0
147
1.0
147
0.0
147
0.0
147
0.0
147
0.0
147
1.0
  0
MATERIAL
  5
21
102
{ACAD_XDICTIONARY
360
22
102
}
102
{ACAD_REACTORS
330
10
102
}
330
10
100
AcDbMaterial
  1
Global
 72
     0
 43
0.0208333333333333
 43
0.0
 43
0.0
 43
0.0
 43
0.0
 43
0.0208333333333333
 43
0.0
 43
0.0
 43
0.0
 43
0.0
 43
1.0
 43
0.0
 43
0.0
 43
0.0
 43
0.0
 43
1.0
 77
     0
 47
0.0208333333333333
 47
0.0
 47
0.0
 47
0.0
 47
0.0
 47
0.0208333333333333
 47
0.0
 47
0.0
 47
0.0
 47
0.0
 47
1.0
 47
0.0
 47
0.0
 47
0.0
 47
0.0
 47
1.0
171
     0
 49
0.0208333333333333
 49
0.0
 49
0.0
 49
0.0
 49
0.0
 49
0.0208333333333333
 49
0.0
 49
0.0
 49
0.0
 49
0.0
 49
1.0
 49
0.0
 49
0.0
 49
0.0
 49
0.0
 49
1.0
175
     0
142
0.0208333333333333
142
0.0
142
0.0
142
0.0
142
0.0
142
0.0208333333333333
142
0.0
142
0.0
142
0.0
142
0.0
142
1.0
142
0.0
142
0.0
142
0.0
142
0.0
142
1.0
179
     0
144
0.0208333333333333
144
0.0
144
0.0
144
0.0
144
0.0
144
0.0208333333333333
144
0.0
144
0.0
144
0.0
144
0.0
144
1.0
144
0.0
144
0.0
144
0.0
144
0.0
144
1.0
147
0.0208333333333333
147
0.0
147
0.0
147
0.0
147
0.0
147
0.0208333333333333
147
0.0
147
0.0
147
0.0
147
0.0
147
1.0
147
0.0
147
0.0
147
0.0
147
0.0
147
1.0
  0
MLEADERSTYLE
  5
66
102
{ACAD_REACTORS
330
65
102
}
330
65
100
AcDbMLeaderStyle
179
     2
170
     2
171
     1
172
     0
 90
        2
 40
0.0
 41
0.0
173
     1
 91
-1056964608
340
5A
 92
       -2
290
     1
 42
0.09
291
     1
 43
0.36
  3
Standard
 44
0.18
300

342
55
174
     1
178
     6
175
     1
176
     0
 93
-1056964608
 45
0.18
292
     0
297
     0
 46
0.18
 94
-1056964608
 47
1.0
 49
1.0
140
1.0
293
     1
141
0.0
294
     1
177
     0
142
1.0
295
     0
296
     0
143
0.125
271
     0
272
     9
273
     9
298
     0
  0
MLINESTYLE
  5
5F
102
{ACAD_REACTORS
330
5E
102
}
330
5E
100
AcDbMlineStyle
  2
STANDARD
 70
     0
  3

 62
   256
 51
90.0
 52
90.0
 71
     2
 49
0.5
 62
   256
  6
BYLAYER
 49
-0.5
 62
   256
  6
BYLAYER
  0
ACDBPLACEHOLDER
  5
F
102
{ACAD_REACTORS
330
E
102
}
330
E
  0
SCALE
  5
43
102
{ACAD_REACTORS
330
42
102
}
330
42
100
AcDbScale
 70
     0
300
1:1
140
1.0
141
1.0
290
     1
  0
SCALE
  5
44
102
{ACAD_REACTORS
330
42
102
}
330
42
100
AcDbScale
 70
     0
300
1/128" = 1'-0"
140
0.0078125
141
12.0
290
     0
  0
SCALE
  5
45
102
{ACAD_REACTORS
330
42
102
}
330
42
100
AcDbScale
 70
     0
300
1/64" = 1'-0"
140
0.015625
141
12.0
290
     0
  0
SCALE
  5
46
102
{ACAD_REACTORS
330
42
102
}
330
42
100
AcDbScale
 70
     0
300
1/32" = 1'-0"
140
0.03125
141
12.0
290
     0
  0
SCALE
  5
47
102
{ACAD_REACTORS
330
42
102
}
330
42
100
AcDbScale
 70
     0
300
1/16" = 1'-0"
140
0.0625
141
12.0
290
     0
  0
SCALE
  5
48
102
{ACAD_REACTORS
330
42
102
}
330
42
100
AcDbScale
 70
     0
300
3/32" = 1'-0"
140
0.09375
141
12.0
290
     0
  0
SCALE
  5
49
102
{ACAD_REACTORS
330
42
102
}
330
42
100
AcDbScale
 70
     0
300
1/8" = 1'-0"
140
0.125
141
12.0
290
     0
  0
SCALE
  5
4A
102
{ACAD_REACTORS
330
42
102
}
330
42
100
AcDbScale
 70
     0
300
3/16" = 1'-0"
140
0.1875
141
12.0
290
     0
  0
SCALE
  5
4B
102
{ACAD_REACTORS
330
42
102
}
330
42
100
AcDbScale
 70
     0
300
1/4" = 1'-0"
140
0.25
141
12.0
290
     0
  0
SCALE
  5
4C
102
{ACAD_REACTORS
330
42
102
}
330
42
100
AcDbScale
 70
     0
300
3/8" = 1'-0"
140
0.375
141
12.0
290
     0
  0
SCALE
  5
4D
102
{ACAD_REACTORS
330
42
102
}
330
42
100
AcDbScale
 70
     0
300
1/2" = 1'-0"
140
0.5
141
12.0
290
     0
  0
SCALE
  5
4E
102
{ACAD_REACTORS
330
42
102
}
330
42
100
AcDbScale
 70
     0
300
3/4" = 1'-0"
140
0.75
141
12.0
290
     0
  0
SCALE
  5
4F
102
{ACAD_REACTORS
330
42
102
}
330
42
100
AcDbScale
 70
     0
300
1" = 1'-0"
140
1.0
141
12.0
290
     0
  0
SCALE
  5
50
102
{ACAD_REACTORS
330
42
102
}
330
42
100
AcDbScale
 70
     0
300
1-1/2" = 1'-0"
140
1.5
141
12.0
290
     0
  0
SCALE
  5
51
102
{ACAD_REACTORS
330
42
102
}
330
42
100
AcDbScale
 70
     0
300
3" = 1'-0"
140
3.0
141
12.0
290
     0
  0
SCALE
  5
52
102
{ACAD_REACTORS
330
42
102
}
330
42
100
AcDbScale
 70
     0
300
6" = 1'-0"
140
6.0
141
12.0
290
     0
  0
SCALE
  5
53
102
{ACAD_REACTORS
330
42
102
}
330
42
100
AcDbScale
 70
     0
300
1'-0" = 1'-0"
140
12.0
141
12.0
290
     0
  0
ACDBSECTIONVIEWSTYLE
  5
68
102
{ACAD_REACTORS
330
67
102
}
330
67
100
AcDbModelDocViewStyle
 70
     0
  3
Imperial24
290
     0
300
Imperial24
 90
        0
100
AcDbSectionViewStyle
 70
     0
 71
     0
 90
       78
 71
     1
340
55
 62
   256
 40
0.24
340
0
340
0
 62
   256
 40
0.24
300
I, O, Q, S, X, Z
 40
0.48
 90
        3
 40
0.18
 90
        1
 71
     2
340
5C
 90
       25
 62
   256
340
5C
 90
       50
 62
   256
 40
0.24
 40
0.0
 40
0.24
 71
     3
340
55
 62
   256
 40
0.24
 90
        1
 40
0.75
 90
        1
300
%<\AcVar ViewType \f "%tc1">% %<\AcVar ViewSectionStartId>%-%<\AcVar ViewSectionEndId>%\PSCALE %<\AcVar ViewScale \f "%sn">%
 71
     4
 62
   256
 62
   257
300
ANSI31
 40
1.0
 90
        0
290
     0
290
     0
 90
        6
 40
0.0
 40
1.570796326794896
 40
0.2617993877991494
 40
1.308996938995747
 40
-0.2617993877991494
 40
1.832595714594044
  0
TABLESTYLE
  5
64
102
{ACAD_XDICTIONARY
360
388
102
}
102
{ACAD_REACTORS
330
63
102
}
330
63
100
AcDbTableStyle
280
     0
  3
Standard
 70
     0
 71
     0
 40
0.06
 41
0.06
280
     0
281
     0
  7
Standard
140
0.18
170
     2
 62
     0
 63
     7
283
     0
 90
      512
 91
        0
  1

274
    -2
284
     1
 64
     0
275
    -2
285
     1
 65
     0
276
    -2
286
     1
 66
     0
277
    -2
287
     1
 67
     0
278
    -2
288
     1
 68
     0
279
    -2
289
     1
 69
     0
  7
Standard
140
0.25
170
     5
 62
     0
 63
     7
283
     0
 90
      512
 91
        0
  1

274
    -2
284
     1
 64
     0
275
    -2
285
     1
 65
     0
276
    -2
286
     1
 66
     0
277
    -2
287
     1
 67
     0
278
    -2
288
     1
 68
     0
279
    -2
289
     1
 69
     0
  7
Standard
140
0.18
170
     5
 62
     0
 63
     7
283
     0
 90
      512
 91
        0
  1

274
    -2
284
     1
 64
     0
275
    -2
285
     1
 65
     0
276
    -2
286
     1
 66
     0
277
    -2
287
     1
 67
     0
278
    -2
288
     1
 68
     0
279
    -2
289
     1
 69
     0
  0
VISUALSTYLE
  5
2F
102
{ACAD_REACTORS
330
29
102
}
330
29
100
AcDbVisualStyle
  2
2dWireframe
 70
     4
177
     3
291
     0
 70
    58
 90
        0
176
     1
 90
        2
176
     1
 90
        0
176
     1
 90
        0
176
     1
 40
0.6
176
     1
 40
30.0
176
     1
 62
     7
420
 16777215
176
     1
 90
        1
176
     1
 90
        4
176
     1
 62
     7
176
     1
 62
   257
176
     1
 90
        1
176
     1
 90
        1
176
     1
 40
1.0
176
     1
 90
        0
176
     1
 62
   257
176
     1
 40
1.0
176
     1
 90
        1
176
     1
 90
        6
176
     1
 90
        2
176
     1
 62
     7
176
     1
 90
        5
176
     1
 90
        0
176
     1
 90
        0
176
     1
290
     0
176
     1
 90
        1
176
     1
 40
0.0
176
     1
 90
        0
176
     1
290
     1
176
     1
290
     1
176
     1
290
     0
176
     1
290
     0
176
     1
290
     0
176
     1
290
     0
176
     1
290
     0
176
     1
290
     0
176
     1
290
     0
176
     1
 90
       50
176
     1
 40
0.0
176
     1
 40
1.0
176
     1
 90
        0
176
     1
 62
    18
176
     1
 90
       50
176
     1
 90
        3
176
     1
 62
     5
420
      255
176
     1
290
     0
176
     1
 90
       50
176
     1
 90
       50
176
     1
 90
       50
176
     1
290
     0
176
     1
 90
       50
176
     1
 62
   256
176
     0
 40
1.0
176
     0
 90
        2
176
     1
  1
strokes_ogs.tif
176
     1
290
     0
176
     1
 40
1.0
176
     1
 40
1.0
176
     1
  0
VISUALSTYLE
  5
2E
102
{ACAD_REACTORS
330
29
102
}
330
29
100
AcDbVisualStyle
  2
Basic
 70
     7
177
     3
291
     1
 70
    58
 90
        1
176
     1
 90
        0
176
     1
 90
        1
176
     1
 90
        0
176
     1
 40
0.6
176
     1
 40
30.0
176
     1
 62
     7
420
 16777215
176
     1
 90
        0
176
     1
 90
        4
176
     1
 62
     7
176
     1
 62
   257
176
     1
 90
        1
176
     1
 90
        1
176
     1
 40
1.0
176
     1
 90
        8
176
     1
 62
     7
176
     1
 40
1.0
176
     1
 90
        1
176
     1
 90
        6
176
     1
 90
        2
176
     1
 62
     7
176
     1
 90
        5
176
     1
 90
        0
176
     1
 90
        0
176
     1
290
     0
176
     1
 90
        1
176
     1
 40
0.0
176
     1
 90
        0
176
     1
290
     0
176
     1
290
     1
176
     1
290
     1
176
     1
290
     0
176
     1
290
     0
176
     1
290
     0
176
     1
290
     0
176
     1
290
     0
176
     1
290
     0
176
     1
 90
       50
176
     1
 40
0.0
176
     1
 40
1.0
176
     1
 90
        0
176
     1
 62
    18
176
     1
 90
       50
176
     1
 90
        3
176
     1
 62
     5
420
      255
176
     1
290
     0
176
     1
 90
       50
176
     1
 90
       50
176
     1
 90
       50
176
     1
290
     0
176
     1
 90
       50
176
     1
 62
   256
176
     0
 40
1.0
176
     0
 90
        2
176
     1
  1
strokes_ogs.tif
176
     1
290
     0
176
     1
 40
1.0
176
     1
 40
1.0
176
     1
  0
VISUALSTYLE
  5
35
102
{ACAD_REACTORS
330
29
102
}
330
29
100
AcDbVisualStyle
  2
Brighten
 70
    12
177
     3
291
     1
 70
    58
 90
        2
176
     1
 90
        2
176
     1
 90
        0
176
     1
 90
        0
176
     1
 40
0.6
176
     1
 40
30.0
176
     1
 62
     7
420
 16777215
176
     1
 90
        1
176
     1
 90
        4
176
     1
 62
     7
176
     1
 62
   257
176
     1
 90
        1
176
     1
 90
        1
176
     1
 40
1.0
176
     1
 90
        8
176
     1
 62
     7
176
     1
 40
1.0
176
     1
 90
        1
176
     1
 90
        6
176
     1
 90
        2
176
     1
 62
     7
176
     1
 90
        5
176
     1
 90
        0
176
     1
 90
        0
176
     1
290
     0
176
     1
 90
        1
176
     1
 40
50.0
176
     1
 90
        0
176
     1
290
     0
176
     1
290
     1
176
     1
290
     1
176
     1
290
     0
176
     1
290
     0
176
     1
290
     0
176
     1
290
     0
176
     1
290
     0
176
     1
290
     0
176
     1
 90
       50
176
     1
 40
0.0
176
     1
 40
1.0
176
     1
 90
        0
176
     1
 62
    18
176
     1
 90
       50
176
     1
 90
        3
176
     1
 62
     5
420
      255
176
     1
290
     0
176
     1
 90
       50
176
     1
 90
       50
176
     1
 90
       50
176
     1
290
     0
176
     1
 90
       50
176
     1
 62
   256
176
     0
 40
1.0
176
     0
 90
        2
176
     1
  1
strokes_ogs.tif
176
     1
290
     0
176
     1
 40
1.0
176
     1
 40
1.0
176
     1
  0
VISUALSTYLE
  5
39
102
{ACAD_REACTORS
330
29
102
}
330
29
100
AcDbVisualStyle
  2
ColorChange
 70
    16
177
     3
291
     1
 70
    58
 90
        2
176
     1
 90
        2
176
     1
 90
        3
176
     1
 90
        0
176
     1
 40
0.6
176
     1
 40
30.0
176
     1
 62
     8
420
  8421504
176
     1
 90
        1
176
     1
 90
        4
176
     1
 62
     7
176
     1
 62
   257
176
     1
 90
        1
176
     1
 90
        1
176
     1
 40
1.0
176
     1
 90
        8
176
     1
 62
     8
420
  8421504
176
     1
 40
1.0
176
     1
 90
        1
176
     1
 90
        6
176
     1
 90
        2
176
     1
 62
     7
176
     1
 90
        5
176
     1
 90
        0
176
     1
 90
        0
176
     1
290
     0
176
     1
 90
        1
176
     1
 40
0.0
176
     1
 90
        0
176
     1
290
     0
176
     1
290
     1
176
     1
290
     1
176
     1
290
     0
176
     1
290
     0
176
     1
290
     0
176
     1
290
     0
176
     1
290
     0
176
     1
290
     0
176
     1
 90
       50
176
     1
 40
0.0
176
     1
 40
1.0
176
     1
 90
        0
176
     1
 62
    18
176
     1
 90
       50
176
     1
 90
        3
176
     1
 62
     5
420
      255
176
     1
290
     0
176
     1
 90
       50
176
     1
 90
       50
176
     1
 90
       50
176
     1
290
     0
176
     1
 90
       50
176
     1
 62
   256
176
     0
 40
1.0
176
     0
 90
        2
176
     1
  1
strokes_ogs.tif
176
     1
290
     0
176
     1
 40
1.0
176
     1
 40
1.0
176
     1
  0
VISUALSTYLE
  5
32
102
{ACAD_REACTORS
330
29
102
}
330
29
100
AcDbVisualStyle
  2
Conceptual
 70
     9
177
     3
291
     0
 70
    58
 90
        3
176
     1
 90
        2
176
     1
 90
        0
176
     1
 90
        0
176
     1
 40
0.6
176
     1
 40
30.0
176
     1
 62
     7
420
 16777215
176
     1
 90
        2
176
     1
 90
        2
176
     1
 62
     7
176
     1
 62
   257
176
     1
 90
        1
176
     1
 90
        1
176
     1
 40
179.0
176
     1
 90
        8
176
     1
 62
     7
176
     1
 40
1.0
176
     1
 90
        1
176
     1
 90
        6
176
     1
 90
        2
176
     1
 62
     7
176
     1
 90
        3
176
     1
 90
        0
176
     1
 90
        0
176
     1
290
     0
176
     1
 90
        1
176
     1
 40
0.0
176
     1
 90
        0
176
     1
290
     0
176
     1
290
     1
176
     1
290
     1
176
     1
290
     0
176
     1
290
     0
176
     1
290
     0
176
     1
290
     0
176
     1
290
     0
176
     1
290
     0
176
     1
 90
       50
176
     1
 40
0.0
176
     1
 40
1.0
176
     1
 90
        0
176
     1
 62
    18
176
     1
 90
       50
176
     1
 90
        3
176
     1
 62
     5
420
      255
176
     1
290
     0
176
     1
 90
       50
176
     1
 90
       50
176
     1
 90
       50
176
     1
290
     0
176
     1
 90
       50
176
     1
 62
   256
176
     0
 40
1.0
176
     0
 90
        2
176
     1
  1
strokes_ogs.tif
176
     1
290
     0
176
     1
 40
1.0
176
     1
 40
1.0
176
     1
  0
VISUALSTYLE
  5
34
102
{ACAD_REACTORS
330
29
102
}
330
29
100
AcDbVisualStyle
  2
Dim
 70
    11
177
     3
291
     1
 70
    58
 90
        2
176
     1
 90
        2
176
     1
 90
        0
176
     1
 90
        0
176
     1
 40
0.6
176
     1
 40
30.0
176
     1
 62
     7
420
 16777215
176
     1
 90
        1
176
     1
 90
        4
176
     1
 62
     7
176
     1
 62
   257
176
     1
 90
        1
176
     1
 90
        1
176
     1
 40
1.0
176
     1
 90
        8
176
     1
 62
     7
176
     1
 40
1.0
176
     1
 90
        1
176
     1
 90
        6
176
     1
 90
        2
176
     1
 62
     7
176
     1
 90
        5
176
     1
 90
        0
176
     1
 90
        0
176
     1
290
     0
176
     1
 90
        1
176
     1
 40
-50.0
176
     1
 90
        0
176
     1
290
     0
176
     1
290
     1
176
     1
290
     1
176
     1
290
     0
176
     1
290
     0
176
     1
290
     0
176
     1
290
     0
176
     1
290
     0
176
     1
290
     0
176
     1
 90
       50
176
     1
 40
0.0
176
     1
 40
1.0
176
     1
 90
        0
176
     1
 62
    18
176
     1
 90
       50
176
     1
 90
        3
176
     1
 62
     5
420
      255
176
     1
290
     0
176
     1
 90
       50
176
     1
 90
       50
176
     1
 90
       50
176
     1
290
     0
176
     1
 90
       50
176
     1
 62
   256
176
     0
 40
1.0
176
     0
 90
        2
176
     1
  1
strokes_ogs.tif
176
     1
290
     0
176
     1
 40
1.0
176
     1
 40
1.0
176
     1
  0
VISUALSTYLE
  5
41
102
{ACAD_REACTORS
330
29
102
}
330
29
100
AcDbVisualStyle
  2
EdgeColorOff
 70
    22
177
     3
291
     1
 70
    58
 90
        2
176
     0
 90
        2
176
     0
 90
        0
176
     0
 90
        0
176
     0
 40
0.6
176
     0
 40
30.0
176
     0
 62
     7
420
 16777215
176
     0
 90
        1
176
     0
 90
        4
176
     0
 62
     7
176
     0
 62
   257
176
     0
 90
        1
176
     0
 90
        1
176
     0
 40
1.0
176
     0
 90
        8
176
     2
 62
     7
176
     0
 40
1.0
176
     0
 90
        1
176
     0
 90
        6
176
     0
 90
        2
176
     0
 62
     7
176
     0
 90
        5
176
     0
 90
        0
176
     0
 90
        0
176
     0
290
     0
176
     0
 90
        1
176
     0
 40
0.0
176
     0
 90
        0
176
     0
290
     0
176
     1
290
     1
176
     1
290
     1
176
     1
290
     0
176
     1
290
     0
176
     1
290
     0
176
     1
290
     0
176
     1
290
     0
176
     1
290
     0
176
     1
 90
       50
176
     0
 40
0.0
176
     0
 40
1.0
176
     0
 90
        0
176
     0
 62
    18
176
     0
 90
       50
176
     0
 90
        3
176
     0
 62
     5
420
      255
176
     0
290
     0
176
     1
 90
       50
176
     0
 90
       50
176
     0
 90
       50
176
     0
290
     0
176
     1
 90
       50
176
     0
 62
   256
176
     0
 40
1.0
176
     0
 90
        2
176
     0
  1
strokes_ogs.tif
176
     0
290
     0
176
     1
 40
1.0
176
     0
 40
1.0
176
     0
  0
VISUALSTYLE
  5
38
102
{ACAD_REACTORS
330
29
102
}
330
29
100
AcDbVisualStyle
  2
Facepattern
 70
    15
177
     3
291
     1
 70
    58
 90
        2
176
     1
 90
        2
176
     1
 90
        0
176
     1
 90
        0
176
     1
 40
0.6
176
     1
 40
30.0
176
     1
 62
     7
420
 16777215
176
     1
 90
        1
176
     1
 90
        4
176
     1
 62
     7
176
     1
 62
   257
176
     1
 90
        1
176
     1
 90
        1
176
     1
 40
1.0
176
     1
 90
        8
176
     1
 62
     7
176
     1
 40
1.0
176
     1
 90
        1
176
     1
 90
        6
176
     1
 90
        2
176
     1
 62
     7
176
     1
 90
        5
176
     1
 90
        0
176
     1
 90
        0
176
     1
290
     0
176
     1
 90
        1
176
     1
 40
0.0
176
     1
 90
        0
176
     1
290
     0
176
     1
290
     1
176
     1
290
     1
176
     1
290
     0
176
     1
290
     0
176
     1
290
     0
176
     1
290
     0
176
     1
290
     0
176
     1
290
     0
176
     1
 90
       50
176
     1
 40
0.0
176
     1
 40
1.0
176
     1
 90
        0
176
     1
 62
    18
176
     1
 90
       50
176
     1
 90
        3
176
     1
 62
     5
420
      255
176
     1
290
     0
176
     1
 90
       50
176
     1
 90
       50
176
     1
 90
       50
176
     1
290
     0
176
     1
 90
       50
176
     1
 62
   256
176
     0
 40
1.0
176
     0
 90
        2
176
     1
  1
strokes_ogs.tif
176
     1
290
     0
176
     1
 40
1.0
176
     1
 40
1.0
176
     1
  0
VISUALSTYLE
  5
2A
102
{ACAD_REACTORS
330
29
102
}
330
29
100
AcDbVisualStyle
  2
Flat
 70
     0
177
     3
291
     1
 70
    58
 90
        2
176
     1
 90
        1
176
     1
 90
        1
176
     1
 90
        2
176
     1
 40
0.6
176
     1
 40
30.0
176
     1
 62
     7
420
 16777215
176
     1
 90
        0
176
     1
 90
        0
176
     1
 62
     7
176
     1
 62
   257
176
     1
 90
        1
176
     1
 90
        1
176
     1
 40
1.0
176
     1
 90
        8
176
     1
 62
     7
176
     1
 40
1.0
176
     1
 90
        1
176
     1
 90
        6
176
     1
 90
        2
176
     1
 62
     7
176
     1
 90
        5
176
     1
 90
        0
176
     1
 90
        0
176
     1
290
     0
176
     1
 90
       13
176
     1
 40
0.0
176
     1
 90
        0
176
     1
290
     0
176
     1
290
     1
176
     1
290
     1
176
     1
290
     0
176
     1
290
     0
176
     1
290
     0
176
     1
290
     0
176
     1
290
     0
176
     1
290
     0
176
     1
 90
       50
176
     1
 40
0.0
176
     1
 40
1.0
176
     1
 90
        0
176
     1
 62
    18
176
     1
 90
       50
176
     1
 90
        3
176
     1
 62
     5
420
      255
176
     1
290
     0
176
     1
 90
       50
176
     1
 90
       50
176
     1
 90
       50
176
     1
290
     0
176
     1
 90
       50
176
     1
 62
   256
176
     0
 40
1.0
176
     0
 90
        2
176
     1
  1
strokes_ogs.tif
176
     1
290
     0
176
     1
 40
1.0
176
     1
 40
1.0
176
     1
  0
VISUALSTYLE
  5
2B
102
{ACAD_REACTORS
330
29
102
}
330
29
100
AcDbVisualStyle
  2
FlatWithEdges
 70
     1
177
     3
291
     1
 70
    58
 90
        2
176
     1
 90
        1
176
     1
 90
        1
176
     1
 90
        2
176
     1
 40
0.6
176
     1
 40
30.0
176
     1
 62
     7
420
 16777215
176
     1
 90
        1
176
     1
 90
        0
176
     1
 62
     7
176
     1
 62
   257
176
     1
 90
        1
176
     1
 90
        1
176
     1
 40
1.0
176
     1
 90
        0
176
     1
 62
   257
176
     1
 40
1.0
176
     1
 90
        1
176
     1
 90
        6
176
     1
 90
        2
176
     1
 62
     7
176
     1
 90
        5
176
     1
 90
        0
176
     1
 90
        0
176
     1
290
     0
176
     1
 90
       13
176
     1
 40
0.0
176
     1
 90
        0
176
     1
290
     0
176
     1
290
     1
176
     1
290
     1
176
     1
290
     0
176
     1
290
     0
176
     1
290
     0
176
     1
290
     0
176
     1
290
     0
176
     1
290
     0
176
     1
 90
       50
176
     1
 40
0.0
176
     1
 40
1.0
176
     1
 90
        0
176
     1
 62
    18
176
     1
 90
       50
176
     1
 90
        3
176
     1
 62
     5
420
      255
176
     1
290
     0
176
     1
 90
       50
176
     1
 90
       50
176
     1
 90
       50
176
     1
290
     0
176
     1
 90
       50
176
     1
 62
   256
176
     0
 40
1.0
176
     0
 90
        2
176
     1
  1
strokes_ogs.tif
176
     1
290
     0
176
     1
 40
1.0
176
     1
 40
1.0
176
     1
  0
VISUALSTYLE
  5
2C
102
{ACAD_REACTORS
330
29
102
}
330
29
100
AcDbVisualStyle
  2
Gouraud
 70
     2
177
     3
291
     1
 70
    58
 90
        2
176
     1
 90
        2
176
     1
 90
        1
176
     1
 90
        2
176
     1
 40
0.6
176
     1
 40
30.0
176
     1
 62
     7
420
 16777215
176
     1
 90
        0
176
     1
 90
        0
176
     1
 62
     7
176
     1
 62
   257
176
     1
 90
        1
176
     1
 90
        1
176
     1
 40
1.0
176
     1
 90
        0
176
     1
 62
     7
176
     1
 40
1.0
176
     1
 90
        1
176
     1
 90
        6
176
     1
 90
        2
176
     1
 62
     7
176
     1
 90
        5
176
     1
 90
        0
176
     1
 90
        0
176
     1
290
     0
176
     1
 90
       13
176
     1
 40
0.0
176
     1
 90
        0
176
     1
290
     0
176
     1
290
     1
176
     1
290
     1
176
     1
290
     0
176
     1
290
     0
176
     1
290
     0
176
     1
290
     0
176
     1
290
     0
176
     1
290
     0
176
     1
 90
       50
176
     1
 40
0.0
176
     1
 40
1.0
176
     1
 90
        0
176
     1
 62
    18
176
     1
 90
       50
176
     1
 90
        3
176
     1
 62
     5
420
      255
176
     1
290
     0
176
     1
 90
       50
176
     1
 90
       50
176
     1
 90
       50
176
     1
290
     0
176
     1
 90
       50
176
     1
 62
   256
176
     0
 40
1.0
176
     0
 90
        2
176
     1
  1
strokes_ogs.tif
176
     1
290
     0
176
     1
 40
1.0
176
     1
 40
1.0
176
     1
  0
VISUALSTYLE
  5
2D
102
{ACAD_REACTORS
330
29
102
}
330
29
100
AcDbVisualStyle
  2
GouraudWithEdges
 70
     3
177
     3
291
     1
 70
    58
 90
        2
176
     1
 90
        2
176
     1
 90
        1
176
     1
 90
        2
176
     1
 40
0.6
176
     1
 40
30.0
176
     1
 62
     7
420
 16777215
176
     1
 90
        1
176
     1
 90
        0
176
     1
 62
     7
176
     1
 62
   257
176
     1
 90
        1
176
     1
 90
        1
176
     1
 40
1.0
176
     1
 90
        0
176
     1
 62
   257
176
     1
 40
1.0
176
     1
 90
        1
176
     1
 90
        6
176
     1
 90
        2
176
     1
 62
     7
176
     1
 90
        5
176
     1
 90
        0
176
     1
 90
        0
176
     1
290
     0
176
     1
 90
       13
176
     1
 40
0.0
176
     1
 90
        0
176
     1
290
     0
176
     1
290
     1
176
     1
290
     1
176
     1
290
     0
176
     1
290
     0
176
     1
290
     0
176
     1
290
     0
176
     1
290
     0
176
     1
290
     0
176
     1
 90
       50
176
     1
 40
0.0
176
     1
 40
1.0
176
     1
 90
        0
176
     1
 62
    18
176
     1
 90
       50
176
     1
 90
        3
176
     1
 62
     5
420
      255
176
     1
290
     0
176
     1
 90
       50
176
     1
 90
       50
176
     1
 90
       50
176
     1
290
     0
176
     1
 90
       50
176
     1
 62
   256
176
     0
 40
1.0
176
     0
 90
        2
176
     1
  1
strokes_ogs.tif
176
     1
290
     0
176
     1
 40
1.0
176
     1
 40
1.0
176
     1
  0
VISUALSTYLE
  5
31
102
{ACAD_REACTORS
330
29
102
}
330
29
100
AcDbVisualStyle
  2
Hidden
 70
     6
177
     3
291
     0
 70
    58
 90
        1
176
     1
 90
        2
176
     1
 90
        2
176
     1
 90
        0
176
     1
 40
0.6
176
     1
 40
30.0
176
     1
 62
     7
420
 16777215
176
     1
 90
        2
176
     1
 90
        2
176
     1
 62
     7
176
     1
 62
   257
176
     1
 90
        2
176
     1
 90
        1
176
     1
 40
40.0
176
     1
 90
        0
176
     1
 62
   257
176
     1
 40
1.0
176
     1
 90
        1
176
     1
 90
        6
176
     1
 90
        2
176
     1
 62
     7
176
     1
 90
        3
176
     1
 90
        0
176
     1
 90
        0
176
     1
290
     0
176
     1
 90
        1
176
     1
 40
0.0
176
     1
 90
        0
176
     1
290
     0
176
     1
290
     1
176
     1
290
     1
176
     1
290
     0
176
     1
290
     0
176
     1
290
     0
176
     1
290
     0
176
     1
290
     0
176
     1
290
     0
176
     1
 90
       50
176
     1
 40
0.0
176
     1
 40
1.0
176
     1
 90
        0
176
     1
 62
    18
176
     1
 90
       50
176
     1
 90
        3
176
     1
 62
     5
420
      255
176
     1
290
     0
176
     1
 90
       50
176
     1
 90
       50
176
     1
 90
       50
176
     1
290
     0
176
     1
 90
       50
176
     1
 62
   256
176
     0
 40
1.0
176
     0
 90
        2
176
     1
  1
strokes_ogs.tif
176
     1
290
     0
176
     1
 40
1.0
176
     1
 40
1.0
176
     1
  0
VISUALSTYLE
  5
3F
102
{ACAD_REACTORS
330
29
102
}
330
29
100
AcDbVisualStyle
  2
JitterOff
 70
    20
177
     3
291
     1
 70
    58
 90
        2
176
     0
 90
        2
176
     0
 90
        0
176
     0
 90
        0
176
     0
 40
0.6
176
     0
 40
30.0
176
     0
 62
     7
420
 16777215
176
     0
 90
        1
176
     0
 90
        4
176
     0
 62
     7
176
     0
 62
   257
176
     0
 90
        1
176
     0
 90
        1
176
     0
 40
1.0
176
     0
 90
       10
176
     2
 62
     7
176
     0
 40
1.0
176
     0
 90
        1
176
     0
 90
        6
176
     0
 90
        2
176
     0
 62
     7
176
     0
 90
        5
176
     0
 90
        0
176
     0
 90
        0
176
     0
290
     0
176
     0
 90
        1
176
     0
 40
0.0
176
     0
 90
        0
176
     0
290
     0
176
     1
290
     1
176
     1
290
     1
176
     1
290
     0
176
     1
290
     0
176
     1
290
     0
176
     1
290
     0
176
     1
290
     0
176
     1
290
     0
176
     1
 90
       50
176
     0
 40
0.0
176
     0
 40
1.0
176
     0
 90
        0
176
     0
 62
    18
176
     0
 90
       50
176
     0
 90
        3
176
     0
 62
     5
420
      255
176
     0
290
     0
176
     1
 90
       50
176
     0
 90
       50
176
     0
 90
       50
176
     0
290
     0
176
     1
 90
       50
176
     0
 62
   256
176
     0
 40
1.0
176
     0
 90
        2
176
     0
  1
strokes_ogs.tif
176
     0
290
     0
176
     1
 40
1.0
176
     0
 40
1.0
176
     0
  0
VISUALSTYLE
  5
37
102
{ACAD_REACTORS
330
29
102
}
330
29
100
AcDbVisualStyle
  2
Linepattern
 70
    14
177
     3
291
     1
 70
    58
 90
        2
176
     1
 90
        2
176
     1
 90
        0
176
     1
 90
        0
176
     1
 40
0.6
176
     1
 40
30.0
176
     1
 62
     7
420
 16777215
176
     1
 90
        1
176
     1
 90
        4
176
     1
 62
     7
176
     1
 62
   257
176
     1
 90
        7
176
     1
 90
        7
176
     1
 40
1.0
176
     1
 90
        8
176
     1
 62
     7
176
     1
 40
1.0
176
     1
 90
        1
176
     1
 90
        6
176
     1
 90
        2
176
     1
 62
     7
176
     1
 90
        5
176
     1
 90
        0
176
     1
 90
        0
176
     1
290
     0
176
     1
 90
        1
176
     1
 40
0.0
176
     1
 90
        0
176
     1
290
     0
176
     1
290
     1
176
     1
290
     1
176
     1
290
     0
176
     1
290
     0
176
     1
290
     0
176
     1
290
     0
176
     1
290
     0
176
     1
290
     0
176
     1
 90
       50
176
     1
 40
0.0
176
     1
 40
1.0
176
     1
 90
        0
176
     1
 62
    18
176
     1
 90
       50
176
     1
 90
        3
176
     1
 62
     5
420
      255
176
     1
290
     0
176
     1
 90
       50
176
     1
 90
       50
176
     1
 90
       50
176
     1
290
     0
176
     1
 90
       50
176
     1
 62
   256
176
     0
 40
1.0
176
     0
 90
        2
176
     1
  1
strokes_ogs.tif
176
     1
290
     0
176
     1
 40
1.0
176
     1
 40
1.0
176
     1
  0
VISUALSTYLE
  5
40
102
{ACAD_REACTORS
330
29
102
}
330
29
100
AcDbVisualStyle
  2
OverhangOff
 70
    21
177
     3
291
     1
 70
    58
 90
        2
176
     0
 90
        2
176
     0
 90
        0
176
     0
 90
        0
176
     0
 40
0.6
176
     0
 40
30.0
176
     0
 62
     7
420
 16777215
176
     0
 90
        1
176
     0
 90
        4
176
     0
 62
     7
176
     0
 62
   257
176
     0
 90
        1
176
     0
 90
        1
176
     0
 40
1.0
176
     0
 90
        9
176
     2
 62
     7
176
     0
 40
1.0
176
     0
 90
        1
176
     0
 90
        6
176
     0
 90
        2
176
     0
 62
     7
176
     0
 90
        5
176
     0
 90
        0
176
     0
 90
        0
176
     0
290
     0
176
     0
 90
        1
176
     0
 40
0.0
176
     0
 90
        0
176
     0
290
     0
176
     1
290
     1
176
     1
290
     1
176
     1
290
     0
176
     1
290
     0
176
     1
290
     0
176
     1
290
     0
176
     1
290
     0
176
     1
290
     0
176
     1
 90
       50
176
     0
 40
0.0
176
     0
 40
1.0
176
     0
 90
        0
176
     0
 62
    18
176
     0
 90
       50
176
     0
 90
        3
176
     0
 62
     5
420
      255
176
     0
290
     0
176
     1
 90
       50
176
     0
 90
       50
176
     0
 90
       50
176
     0
290
     0
176
     1
 90
       50
176
     0
 62
   256
176
     0
 40
1.0
176
     0
 90
        2
176
     0
  1
strokes_ogs.tif
176
     0
290
     0
176
     1
 40
1.0
176
     0
 40
1.0
176
     0
  0
VISUALSTYLE
  5
33
102
{ACAD_REACTORS
330
29
102
}
330
29
100
AcDbVisualStyle
  2
Realistic
 70
     8
177
     3
291
     0
 70
    58
 90
        2
176
     1
 90
        3
176
     1
 90
        0
176
     1
 90
        2
176
     1
 40
0.6
176
     1
 40
30.0
176
     1
 62
     7
420
 16777215
176
     1
 90
        0
176
     1
 90
        0
176
     1
 62
     7
176
     1
 62
   257
176
     1
 90
        1
176
     1
 90
        1
176
     1
 40
1.0
176
     1
 90
        8
176
     1
 62
   257
176
     1
 40
1.0
176
     1
 90
        1
176
     1
 90
        6
176
     1
 90
        2
176
     1
 62
     7
176
     1
 90
        3
176
     1
 90
        0
176
     1
 90
        0
176
     1
290
     0
176
     1
 90
       13
176
     1
 40
0.0
176
     1
 90
        0
176
     1
290
     0
176
     1
290
     1
176
     1
290
     1
176
     1
290
     0
176
     1
290
     0
176
     1
290
     0
176
     1
290
     0
176
     1
290
     0
176
     1
290
     0
176
     1
 90
       50
176
     1
 40
0.0
176
     1
 40
1.0
176
     1
 90
        0
176
     1
 62
    18
176
     1
 90
       50
176
     1
 90
        3
176
     1
 62
     5
420
      255
176
     1
290
     0
176
     1
 90
       50
176
     1
 90
       50
176
     1
 90
       50
176
     1
290
     0
176
     1
 90
       50
176
     1
 62
   256
176
     0
 40
1.0
176
     0
 90
        2
176
     1
  1
strokes_ogs.tif
176
     1
290
     0
176
     1
 40
1.0
176
     1
 40
1.0
176
     1
  0
VISUALSTYLE
  5
3E
102
{ACAD_REACTORS
330
29
102
}
330
29
100
AcDbVisualStyle
  2
Shaded
 70
    27
177
     3
291
     0
 70
    58
 90
        2
176
     1
 90
        2
176
     1
 90
        1
176
     1
 90
        2
176
     1
 40
0.6
176
     1
 40
30.0
176
     1
 62
     7
420
 16777215
176
     1
 90
        0
176
     1
 90
        4
176
     1
 62
     7
176
     1
 62
   257
176
     1
 90
        1
176
     1
 90
        1
176
     1
 40
1.0
176
     1
 90
        8
176
     1
 62
   257
176
     1
 40
1.0
176
     1
 90
        1
176
     1
 90
        6
176
     1
 90
        2
176
     1
 62
     8
420
  7895160
176
     1
 90
        3
176
     1
 90
        0
176
     1
 90
        0
176
     1
290
     0
176
     1
 90
        5
176
     1
 40
0.0
176
     1
 90
        0
176
     1
290
     0
176
     1
290
     1
176
     1
290
     1
176
     1
290
     0
176
     1
290
     0
176
     1
290
     0
176
     1
290
     0
176
     1
290
     0
176
     1
290
     0
176
     1
 90
       50
176
     1
 40
0.0
176
     1
 40
1.0
176
     1
 90
        0
176
     1
 62
    18
176
     1
 90
       50
176
     1
 90
        3
176
     1
 62
     5
420
      255
176
     1
290
     0
176
     1
 90
       50
176
     1
 90
       50
176
     1
 90
       50
176
     1
290
     0
176
     1
 90
       50
176
     1
 62
   256
176
     0
 40
1.0
176
     0
 90
        2
176
     1
  1
strokes_ogs.tif
176
     1
290
     0
176
     1
 40
1.0
176
     1
 40
1.0
176
     1
  0
VISUALSTYLE
  5
3D
102
{ACAD_REACTORS
330
29
102
}
330
29
100
AcDbVisualStyle
  2
Shaded with edges
 70
    26
177
     3
291
     0
 70
    58
 90
        2
176
     1
 90
        2
176
     1
 90
        1
176
     1
 90
        2
176
     1
 40
0.6
176
     1
 40
30.0
176
     1
 62
     7
420
 16777215
176
     1
 90
        1
176
     1
 90
        2
176
     1
 62
     7
176
     1
 62
   257
176
     1
 90
        2
176
     1
 90
        1
176
     1
 40
1.0
176
     1
 90
        8
176
     1
 62
   257
176
     1
 40
1.0
176
     1
 90
        1
176
     1
 90
        6
176
     1
 90
        2
176
     1
 62
     7
176
     1
 90
        3
176
     1
 90
        0
176
     1
 90
        0
176
     1
290
     0
176
     1
 90
        5
176
     1
 40
0.0
176
     1
 90
        0
176
     1
290
     0
176
     1
290
     1
176
     1
290
     1
176
     1
290
     0
176
     1
290
     0
176
     1
290
     0
176
     1
290
     0
176
     1
290
     0
176
     1
290
     0
176
     1
 90
       50
176
     1
 40
0.0
176
     1
 40
1.0
176
     1
 90
        0
176
     1
 62
    18
176
     1
 90
       50
176
     1
 90
        3
176
     1
 62
     5
420
      255
176
     1
290
     0
176
     1
 90
       50
176
     1
 90
       50
176
     1
 90
       50
176
     1
290
     0
176
     1
 90
       50
176
     1
 62
   256
176
     0
 40
1.0
176
     0
 90
        2
176
     1
  1
strokes_ogs.tif
176
     1
290
     0
176
     1
 40
1.0
176
     1
 40
1.0
176
     1
  0
VISUALSTYLE
  5
3A
102
{ACAD_REACTORS
330
29
102
}
330
29
100
AcDbVisualStyle
  2
Shades of Gray
 70
    23
177
     3
291
     0
 70
    58
 90
        2
176
     1
 90
        2
176
     1
 90
        3
176
     1
 90
        0
176
     1
 40
0.6
176
     1
 40
30.0
176
     1
 62
     7
420
 16777215
176
     1
 90
        2
176
     1
 90
        2
176
     1
 62
     7
176
     1
 62
     7
176
     1
 90
        1
176
     1
 90
        1
176
     1
 40
40.0
176
     1
 90
        8
176
     1
 62
     7
176
     1
 40
1.0
176
     1
 90
        1
176
     1
 90
        6
176
     1
 90
        2
176
     1
 62
     7
176
     1
 90
        3
176
     1
 90
        0
176
     1
 90
        0
176
     1
290
     0
176
     1
 90
        1
176
     1
 40
0.0
176
     1
 90
        0
176
     1
290
     0
176
     1
290
     1
176
     1
290
     1
176
     1
290
     0
176
     1
290
     0
176
     1
290
     0
176
     1
290
     0
176
     1
290
     0
176
     1
290
     0
176
     1
 90
       50
176
     1
 40
0.0
176
     1
 40
1.0
176
     1
 90
        0
176
     1
 62
    18
176
     1
 90
       50
176
     1
 90
        3
176
     1
 62
     5
420
      255
176
     1
290
     0
176
     1
 90
       50
176
     1
 90
       50
176
     1
 90
       50
176
     1
290
     0
176
     1
 90
       50
176
     1
 62
   256
176
     0
 40
1.0
176
     0
 90
        2
176
     1
  1
strokes_ogs.tif
176
     1
290
     0
176
     1
 40
1.0
176
     1
 40
1.0
176
     1
  0
VISUALSTYLE
  5
3B
102
{ACAD_REACTORS
330
29
102
}
330
29
100
AcDbVisualStyle
  2
Sketchy
 70
    24
177
     3
291
     0
 70
    58
 90
        1
176
     1
 90
        2
176
     1
 90
        2
176
     1
 90
        0
176
     1
 40
0.6
176
     1
 40
30.0
176
     1
 62
     7
420
 16777215
176
     1
 90
        2
176
     1
 90
        2
176
     1
 62
     7
176
     1
 62
     7
176
     1
 90
        1
176
     1
 90
        1
176
     1
 40
40.0
176
     1
 90
       11
176
     1
 62
     7
176
     1
 40
1.0
176
     1
 90
        1
176
     1
 90
        6
176
     1
 90
        2
176
     1
 62
     7
176
     1
 90
        6
176
     1
 90
        0
176
     1
 90
        0
176
     1
290
     0
176
     1
 90
        1
176
     1
 40
0.0
176
     1
 90
        0
176
     1
290
     0
176
     1
290
     1
176
     1
290
     1
176
     1
290
     0
176
     1
290
     0
176
     1
290
     0
176
     1
290
     0
176
     1
290
     0
176
     1
290
     0
176
     1
 90
       50
176
     1
 40
0.0
176
     1
 40
1.0
176
     1
 90
        0
176
     1
 62
    18
176
     1
 90
       50
176
     1
 90
        3
176
     1
 62
     5
420
      255
176
     1
290
     0
176
     1
 90
       50
176
     1
 90
       50
176
     1
 90
       50
176
     1
290
     0
176
     1
 90
       50
176
     1
 62
   256
176
     0
 40
1.0
176
     0
 90
        2
176
     1
  1
strokes_ogs.tif
176
     1
290
     0
176
     1
 40
1.0
176
     1
 40
1.0
176
     1
  0
VISUALSTYLE
  5
36
102
{ACAD_REACTORS
330
29
102
}
330
29
100
AcDbVisualStyle
  2
Thicken
 70
    13
177
     3
291
     1
 70
    58
 90
        2
176
     1
 90
        2
176
     1
 90
        0
176
     1
 90
        0
176
     1
 40
0.6
176
     1
 40
30.0
176
     1
 62
     7
420
 16777215
176
     1
 90
        1
176
     1
 90
        4
176
     1
 62
     7
176
     1
 62
   257
176
     1
 90
        1
176
     1
 90
        1
176
     1
 40
1.0
176
     1
 90
       12
176
     1
 62
     7
176
     1
 40
1.0
176
     1
 90
        1
176
     1
 90
        6
176
     1
 90
        2
176
     1
 62
     7
176
     1
 90
        5
176
     1
 90
        0
176
     1
 90
        0
176
     1
290
     0
176
     1
 90
        1
176
     1
 40
0.0
176
     1
 90
        0
176
     1
290
     0
176
     1
290
     1
176
     1
290
     1
176
     1
290
     0
176
     1
290
     0
176
     1
290
     0
176
     1
290
     0
176
     1
290
     0
176
     1
290
     0
176
     1
 90
       50
176
     1
 40
0.0
176
     1
 40
1.0
176
     1
 90
        0
176
     1
 62
    18
176
     1
 90
       50
176
     1
 90
        3
176
     1
 62
     5
420
      255
176
     1
290
     0
176
     1
 90
       50
176
     1
 90
       50
176
     1
 90
       50
176
     1
290
     0
176
     1
 90
       50
176
     1
 62
   256
176
     0
 40
1.0
176
     0
 90
        2
176
     1
  1
strokes_ogs.tif
176
     1
290
     0
176
     1
 40
1.0
176
     1
 40
1.0
176
     1
  0
VISUALSTYLE
  5
30
102
{ACAD_REACTORS
330
29
102
}
330
29
100
AcDbVisualStyle
  2
Wireframe
 70
     5
177
     3
291
     0
 70
    58
 90
        0
176
     1
 90
        2
176
     1
 90
        0
176
     1
 90
        0
176
     1
 40
0.6
176
     1
 40
30.0
176
     1
 62
     7
420
 16777215
176
     1
 90
        1
176
     1
 90
        4
176
     1
 62
     7
176
     1
 62
   257
176
     1
 90
        1
176
     1
 90
        1
176
     1
 40
1.0
176
     1
 90
        0
176
     1
 62
   257
176
     1
 40
1.0
176
     1
 90
        1
176
     1
 90
        6
176
     1
 90
        2
176
     1
 62
     7
176
     1
 90
        3
176
     1
 90
        0
176
     1
 90
        0
176
     1
290
     0
176
     1
 90
        1
176
     1
 40
0.0
176
     1
 90
        0
176
     1
290
     0
176
     1
290
     1
176
     1
290
     1
176
     1
290
     0
176
     1
290
     0
176
     1
290
     0
176
     1
290
     0
176
     1
290
     0
176
     1
290
     0
176
     1
 90
       50
176
     1
 40
0.0
176
     1
 40
1.0
176
     1
 90
        0
176
     1
 62
    18
176
     1
 90
       50
176
     1
 90
        3
176
     1
 62
     5
420
      255
176
     1
290
     0
176
     1
 90
       50
176
     1
 90
       50
176
     1
 90
       50
176
     1
290
     0
176
     1
 90
       50
176
     1
 62
   256
176
     0
 40
1.0
176
     0
 90
        2
176
     1
  1
strokes_ogs.tif
176
     1
290
     0
176
     1
 40
1.0
176
     1
 40
1.0
176
     1
  0
VISUALSTYLE
  5
3C
102
{ACAD_REACTORS
330
29
102
}
330
29
100
AcDbVisualStyle
  2
X-Ray
 70
    25
177
     3
291
     0
 70
    58
 90
        2
176
     1
 90
        2
176
     1
 90
        1
176
     1
 90
        1
176
     1
 40
0.5
176
     1
 40
30.0
176
     1
 62
     7
420
 16777215
176
     1
 90
        1
176
     1
 90
        0
176
     1
 62
     7
176
     1
 62
   257
176
     1
 90
        1
176
     1
 90
        1
176
     1
 40
1.0
176
     1
 90
        8
176
     1
 62
     7
176
     1
 40
1.0
176
     1
 90
        1
176
     1
 90
        6
176
     1
 90
        2
176
     1
 62
     7
176
     1
 90
        3
176
     1
 90
        0
176
     1
 90
        0
176
     1
290
     0
176
     1
 90
       13
176
     1
 40
0.0
176
     1
 90
        0
176
     1
290
     0
176
     1
290
     1
176
     1
290
     1
176
     1
290
     0
176
     1
290
     0
176
     1
290
     0
176
     1
290
     0
176
     1
290
     0
176
     1
290
     0
176
     1
 90
       50
176
     1
 40
0.0
176
     1
 40
1.0
176
     1
 90
        0
176
     1
 62
    18
176
     1
 90
       50
176
     1
 90
        3
176
     1
 62
     5
420
      255
176
     1
290
     0
176
     1
 90
       50
176
     1
 90
       50
176
     1
 90
       50
176
     1
290
     0
176
     1
 90
       50
176
     1
 62
   256
176
     0
 40
1.0
176
     0
 90
        2
176
     1
  1
strokes_ogs.tif
176
     1
290
     0
176
     1
 40
1.0
176
     1
 40
1.0
176
     1
  0
DICTIONARYVAR
  5
363
102
{ACAD_REACTORS
330
35D
102
}
330
35D
100
DictionaryVariables
280
     0
  1
1:1
  0
DICTIONARYVAR
  5
35F
102
{ACAD_REACTORS
330
35D
102
}
330
35D
100
DictionaryVariables
280
     0
  1
STANDARD
  0
DICTIONARYVAR
  5
35E
102
{ACAD_REACTORS
330
35D
102
}
330
35D
100
DictionaryVariables
280
     0
  1
STANDARD
  0
DICTIONARYVAR
  5
360
102
{ACAD_REACTORS
330
35D
102
}
330
35D
100
DictionaryVariables
280
     0
  1
Imperial24
  0
DICTIONARYVAR
  5
361
102
{ACAD_REACTORS
330
35D
102
}
330
35D
100
DictionaryVariables
280
     0
  1
Imperial24
  0
DICTIONARYVAR
  5
365
102
{ACAD_REACTORS
330
35D
102
}
330
35D
100
DictionaryVariables
280
     0
  1
1
  0
DICTIONARYVAR
  5
366
102
{ACAD_REACTORS
330
35D
102
}
330
35D
100
DictionaryVariables
280
     0
  1
15
  0
DICTIONARYVAR
  5
364
102
{ACAD_REACTORS
330
35D
102
}
330
35D
100
DictionaryVariables
280
     0
  1
0
  0
DICTIONARYVAR
  5
362
102
{ACAD_REACTORS
330
35D
102
}
330
35D
100
DictionaryVariables
280
     0
  1
0
  0
DICTIONARY
  5
1A
330
19
100
AcDbDictionary
280
     1
281
     1
  3
BUMPTILE
360
1C
  3
DIFFUSETILE
360
1B
  3
OPACITYTILE
360
1F
  3
REFLECTIONTILE
360
1E
  3
REFRACTIONTILE
360
20
  3
SPECULARTILE
360
1D
  0
DICTIONARY
  5
12
330
11
100
AcDbDictionary
280
     1
281
     1
  3
BUMPTILE
360
14
  3
DIFFUSETILE
360
13
  3
OPACITYTILE
360
17
  3
REFLECTIONTILE
360
16
  3
REFRACTIONTILE
360
18
  3
SPECULARTILE
360
15
  0
DICTIONARY
  5
22
330
21
100
AcDbDictionary
280
     1
281
     1
  3
BUMPTILE
360
24
  3
DIFFUSETILE
360
23
  3
OPACITYTILE
360
27
  3
REFLECTIONTILE
360
26
  3
REFRACTIONTILE
360
28
  3
SPECULARTILE
360
25
  0
DICTIONARY
  5
388
330
64
100
AcDbDictionary
280
     1
281
     1
  3
ACAD_ROUNDTRIP_2008_TABLESTYLE_CELLSTYLEMAP
360
8DB
  0
XRECORD
  5
1C
102
{ACAD_REACTORS
330
1A
102
}
330
1A
100
AcDbXrecord
280
     1
270
     1
271
     1
  0
XRECORD
  5
1B
102
{ACAD_REACTORS
330
1A
102
}
330
1A
100
AcDbXrecord
280
     1
270
     1
271
     1
  0
XRECORD
  5
1F
102
{ACAD_REACTORS
330
1A
102
}
330
1A
100
AcDbXrecord
280
     1
270
     1
271
     1
  0
XRECORD
  5
1E
102
{ACAD_REACTORS
330
1A
102
}
330
1A
100
AcDbXrecord
280
     1
270
     1
271
     1
  0
XRECORD
  5
20
102
{ACAD_REACTORS
330
1A
102
}
330
1A
100
AcDbXrecord
280
     1
270
     1
271
     1
  0
XRECORD
  5
1D
102
{ACAD_REACTORS
330
1A
102
}
330
1A
100
AcDbXrecord
280
     1
270
     1
271
     1
  0
XRECORD
  5
14
102
{ACAD_REACTORS
330
12
102
}
330
12
100
AcDbXrecord
280
     1
270
     1
271
     1
  0
XRECORD
  5
13
102
{ACAD_REACTORS
330
12
102
}
330
12
100
AcDbXrecord
280
     1
270
     1
271
     1
  0
XRECORD
  5
17
102
{ACAD_REACTORS
330
12
102
}
330
12
100
AcDbXrecord
280
     1
270
     1
271
     1
  0
XRECORD
  5
16
102
{ACAD_REACTORS
330
12
102
}
330
12
100
AcDbXrecord
280
     1
270
     1
271
     1
  0
XRECORD
  5
18
102
{ACAD_REACTORS
330
12
102
}
330
12
100
AcDbXrecord
280
     1
270
     1
271
     1
  0
XRECORD
  5
15
102
{ACAD_REACTORS
330
12
102
}
330
12
100
AcDbXrecord
280
     1
270
     1
271
     1
  0
XRECORD
  5
24
102
{ACAD_REACTORS
330
22
102
}
330
22
100
AcDbXrecord
280
     1
270
     1
271
     1
  0
XRECORD
  5
23
102
{ACAD_REACTORS
330
22
102
}
330
22
100
AcDbXrecord
280
     1
270
     1
271
     1
  0
XRECORD
  5
27
102
{ACAD_REACTORS
330
22
102
}
330
22
100
AcDbXrecord
280
     1
270
     1
271
     1
  0
XRECORD
  5
26
102
{ACAD_REACTORS
330
22
102
}
330
22
100
AcDbXrecord
280
     1
270
     1
271
     1
  0
XRECORD
  5
28
102
{ACAD_REACTORS
330
22
102
}
330
22
100
AcDbXrecord
280
     1
270
     1
271
     1
  0
XRECORD
  5
25
102
{ACAD_REACTORS
330
22
102
}
330
22
100
AcDbXrecord
280
     1
270
     1
271
     1
  0
CELLSTYLEMAP
  5
8DB
102
{ACAD_REACTORS
330
388
102
}
330
388
100
AcDbCellStyleMap
 90
        3
300
CELLSTYLE
  1
TABLEFORMAT_BEGIN
 90
        5
170
     1
 91
        0
 92
    32768
 62
   257
 93
        1
300
CONTENTFORMAT
  1
CONTENTFORMAT_BEGIN
 90
        0
 91
        0
 92
      512
 93
        0
300

 40
0.0
140
1.0
 94
        5
 62
     0
340
55
144
0.25
309
CONTENTFORMAT_END
171
     1
301
MARGIN
  1
CELLMARGIN_BEGIN
 40
0.06
 40
0.06
 40
0.06
 40
0.06
 40
0.18
 40
0.18
309
CELLMARGIN_END
 94
        6
 95
        1
302
GRIDFORMAT
  1
GRIDFORMAT_BEGIN
 90
        0
 91
        1
 62
     0
 92
       -2
340
0
 93
        0
 40
0.045
309
GRIDFORMAT_END
 95
        2
302
GRIDFORMAT
  1
GRIDFORMAT_BEGIN
 90
        0
 91
        1
 62
     0
 92
       -2
340
0
 93
        0
 40
0.045
309
GRIDFORMAT_END
 95
        4
302
GRIDFORMAT
  1
GRIDFORMAT_BEGIN
 90
        0
 91
        1
 62
     0
 92
       -2
340
0
 93
        0
 40
0.045
309
GRIDFORMAT_END
 95
        8
302
GRIDFORMAT
  1
GRIDFORMAT_BEGIN
 90
        0
 91
        1
 62
     0
 92
       -2
340
0
 93
        0
 40
0.045
309
GRIDFORMAT_END
 95
       16
302
GRIDFORMAT
  1
GRIDFORMAT_BEGIN
 90
        0
 91
        1
 62
     0
 92
       -2
340
0
 93
        0
 40
0.045
309
GRIDFORMAT_END
 95
       32
302
GRIDFORMAT
  1
GRIDFORMAT_BEGIN
 90
        0
 91
        1
 62
     0
 92
       -2
340
0
 93
        0
 40
0.045
309
GRIDFORMAT_END
309
TABLEFORMAT_END
  1
CELLSTYLE_BEGIN
 90
        1
 91
        1
300
_TITLE
309
CELLSTYLE_END
300
CELLSTYLE
  1
TABLEFORMAT_BEGIN
 90
        5
170
     1
 91
        0
 92
        0
 62
   257
 93
        1
300
CONTENTFORMAT
  1
CONTENTFORMAT_BEGIN
 90
        0
 91
        0
 92
      512
 93
        0
300

 40
0.0
140
1.0
 94
        5
 62
     0
340
55
144
0.18
309
CONTENTFORMAT_END
171
     1
301
MARGIN
  1
CELLMARGIN_BEGIN
 40
0.06
 40
0.06
 40
0.06
 40
0.06
 40
0.18
 40
0.18
309
CELLMARGIN_END
 94
        6
 95
        1
302
GRIDFORMAT
  1
GRIDFORMAT_BEGIN
 90
        0
 91
        1
 62
     0
 92
       -2
340
0
 93
        0
 40
0.045
309
GRIDFORMAT_END
 95
        2
302
GRIDFORMAT
  1
GRIDFORMAT_BEGIN
 90
        0
 91
        1
 62
     0
 92
       -2
340
0
 93
        0
 40
0.045
309
GRIDFORMAT_END
 95
        4
302
GRIDFORMAT
  1
GRIDFORMAT_BEGIN
 90
        0
 91
        1
 62
     0
 92
       -2
340
0
 93
        0
 40
0.045
309
GRIDFORMAT_END
 95
        8
302
GRIDFORMAT
  1
GRIDFORMAT_BEGIN
 90
        0
 91
        1
 62
     0
 92
       -2
340
0
 93
        0
 40
0.045
309
GRIDFORMAT_END
 95
       16
302
GRIDFORMAT
  1
GRIDFORMAT_BEGIN
 90
        0
 91
        1
 62
     0
 92
       -2
340
0
 93
        0
 40
0.045
309
GRIDFORMAT_END
 95
       32
302
GRIDFORMAT
  1
GRIDFORMAT_BEGIN
 90
        0
 91
        1
 62
     0
 92
       -2
340
0
 93
        0
 40
0.045
309
GRIDFORMAT_END
309
TABLEFORMAT_END
  1
CELLSTYLE_BEGIN
 90
        2
 91
        1
300
_HEADER
309
CELLSTYLE_END
300
CELLSTYLE
  1
TABLEFORMAT_BEGIN
 90
        5
170
     1
 91
        0
 92
        0
 62
   257
 93
        1
300
CONTENTFORMAT
  1
CONTENTFORMAT_BEGIN
 90
        0
 91
        0
 92
      512
 93
        0
300

 40
0.0
140
1.0
 94
        2
 62
     0
340
55
144
0.18
309
CONTENTFORMAT_END
171
     1
301
MARGIN
  1
CELLMARGIN_BEGIN
 40
0.06
 40
0.06
 40
0.06
 40
0.06
 40
0.18
 40
0.18
309
CELLMARGIN_END
 94
        6
 95
        1
302
GRIDFORMAT
  1
GRIDFORMAT_BEGIN
 90
        0
 91
        1
 62
     0
 92
       -2
340
0
 93
        0
 40
0.045
309
GRIDFORMAT_END
 95
        2
302
GRIDFORMAT
  1
GRIDFORMAT_BEGIN
 90
        0
 91
        1
 62
     0
 92
       -2
340
0
 93
        0
 40
0.045
309
GRIDFORMAT_END
 95
        4
302
GRIDFORMAT
  1
GRIDFORMAT_BEGIN
 90
        0
 91
        1
 62
     0
 92
       -2
340
0
 93
        0
 40
0.045
309
GRIDFORMAT_END
 95
        8
302
GRIDFORMAT
  1
GRIDFORMAT_BEGIN
 90
        0
 91
        1
 62
     0
 92
       -2
340
0
 93
        0
 40
0.045
309
GRIDFORMAT_END
 95
       16
302
GRIDFORMAT
  1
GRIDFORMAT_BEGIN
 90
        0
 91
        1
 62
     0
 92
       -2
340
0
 93
        0
 40
0.045
309
GRIDFORMAT_END
 95
       32
302
GRIDFORMAT
  1
GRIDFORMAT_BEGIN
 90
        0
 91
        1
 62
     0
 92
       -2
340
0
 93
        0
 40
0.045
309
GRIDFORMAT_END
309
TABLEFORMAT_END
  1
CELLSTYLE_BEGIN
 90
        3
 91
        2
300
_DATA
309
CELLSTYLE_END
  0
ENDSEC
  0
SECTION
  2
ACDSDATA
 70
     2
 71
     8
  0
ACDSSCHEMA
 90
        0
  1
AcDb_Thumbnail_Schema
  2
AcDbDs::ID
280
    10
 91
        8
  2
Thumbnail_Data
280
    15
 91
        0
101
ACDSRECORD
 95
        0
 90
        1
  2
AcDbDs::TreatedAsObjectData
280
     1
291
     1
101
ACDSRECORD
 95
        0
 90
        2
  2
AcDbDs::Legacy
280
     1
291
     1
101
ACDSRECORD
  1
AcDbDs::ID
 90
        3
  2
AcDs:Indexable
280
     1
291
     1
101
ACDSRECORD
  1
AcDbDs::ID
 90
        4
  2
AcDbDs::HandleAttribute
280
     7
282
     1
  0
ACDSSCHEMA
 90
        1
  1
AcDbDs::TreatedAsObjectDataSchema
  2
AcDbDs::TreatedAsObjectData
280
     1
 91
        0
  0
ACDSSCHEMA
 90
        2
  1
AcDbDs::LegacySchema
  2
AcDbDs::Legacy
280
     1
 91
        0
  0
ACDSSCHEMA
 90
        3
  1
AcDbDs::IndexedPropertySchema
  2
AcDs:Indexable
280
     1
 91
        0
  0
ACDSSCHEMA
 90
        4
  1
AcDbDs::HandleAttributeSchema
  2
AcDbDs::HandleAttribute
280
     7
 91
        1
284
     1
  0
ACDSRECORD
 90
        0
  2
AcDbDs::ID
280
    10
320
6E
  2
Thumbnail_Data
280
    15
 94
     1833
310
89504E470D0A1A0A0000000D4948445200000100000000C608030000000A6AAE4900000300504C5445FFFFFFFFFFFFFFFFFF0000000000000000000000000000000000000000000000000000330000660000990000CC0000FF0033000033330033660033990033CC0033FF0066000066330066660066990066CC0066FF0099
310
000099330099660099990099CC0099FF00CC0000CC3300CC6600CC9900CCCC00CCFF00FF0000FF3300FF6600FF9900FFCC00FFFF3300003300333300663300993300CC3300FF3333003333333333663333993333CC3333FF3366003366333366663366993366CC3366FF3399003399333399663399993399CC3399FF33CC00
310
33CC3333CC6633CC9933CCCC33CCFF33FF0033FF3333FF6633FF9933FFCC33FFFF6600006600336600666600996600CC6600FF6633006633336633666633996633CC6633FF6666006666336666666666996666CC6666FF6699006699336699666699996699CC6699FF66CC0066CC3366CC6666CC9966CCCC66CCFF66FF0066
310
FF3366FF6666FF9966FFCC66FFFF9900009900339900669900999900CC9900FF9933009933339933669933999933CC9933FF9966009966339966669966999966CC9966FF9999009999339999669999999999CC9999FF99CC0099CC3399CC6699CC9999CCCC99CCFF99FF0099FF3399FF6699FF9999FFCC99FFFFCC0000CC00
310
33CC0066CC0099CC00CCCC00FFCC3300CC3333CC3366CC3399CC33CCCC33FFCC6600CC6633CC6666CC6699CC66CCCC66FFCC9900CC9933CC9966CC9999CC99CCCC99FFCCCC00CCCC33CCCC66CCCC99CCCCCCCCCCFFCCFF00CCFF33CCFF66CCFF99CCFFCCCCFFFFFF0000FF0033FF0066FF0099FF00CCFF00FFFF3300FF3333
310
FF3366FF3399FF33CCFF33FFFF6600FF6633FF6666FF6699FF66CCFF66FFFF9900FF9933FF9966FF9999FF99CCFF99FFFFCC00FFCC33FFCC66FFCC99FFCCCCFFCCFFFFFF00FFFF33FFFF66FFFF99FFFFCCFFFFFF0000000D0D0D1A1A1A2828283535354343435050505D5D5D6B6B6B787878868686939393A1A1A1AEAEAEBB
310
BBBBC9C9C9D6D6D6E4E4E4F1F1F1FFFFFF000000000000000000000000000000000000000000000000000000000000AD4AB4E4000003E44944415478DAED9D5982AA400C45B3FF65E6BB17D18336D690821A15C8E1A3555E988EE1DED4804FBE9C2FE27B010000FE5EF46771F8D77B06BC00280000E05B04DD03702F82B800
310
0000800BE002B8001A000000E002B8002E1087DC6219D000BDCB170D0000F4B9801700E2FD161034000000C00570015C000D00000070015C001740030000005C0017C005D00000000017C005700134000000C00570015C000D00000070015C00174003000080DF15CDB393AB36498EA4ED9BAC7281EC620E8F9B10A8DA2489
310
D99BE25DDCAD0E00D8BD1883BBBE761BBC95E78F32189B9483B78BC993288A880EF8F8A7DA69F1632E50CC3FEB6D77705B84B4DD11631AA0F65726FFBC55A514D114DC16F180B065E9DF9A770390C3ABEE09AE8F508D2E10004322E81E8078BF05040D28D701A77401895C60AD089EB30E886B81853658FC420E8BBBB6E0C6
310
88B0F2EB2F843ADA02276AE069FA69515B204AB724F94A6F1B22A43F22B97196B9C02BBD54A25647F1ED76328711CF56505744FE69517FC03309C27CA815FDE5B6A051A375218030213E64FBBB00F67B100030362EE0028078BF05E4E222B85203AE6083CB45F0CC855050B13517B3371818D1AAC187311748ABEEF0755AE3
310
A6A7351536899FFDE4D61E757874D8A039B9793BD09EB64F54EAFBCB6B4687F30C58D1C1D1EC1AC63765ED7182061800DE63F4FBC13900738F137E4809007705202E00880ECF11BA0000DD0170431788AF6A1B282DEC71D8054E5D0798057814242B6CF0C395609601FF8D2F738F5301981DD3EBAE375D9D963CF9BDDF0440
310
7A6E813767FCCEDD9715C4CDB740870B943260AAE66967060C88E03880B7F8E211807E1B540000C023000140A5085A85872317C89D593E5B07E427D3590754CE1049C75EB78EB60F5582E1D9E41D83D34BE1EC14D46C19AB7576C17085D5A2D4A01F37FA92E756DBE373840A4D2E4DD2CEC84FC9C3B63592C66ECD9CB9D5F6
310
8439427B1910CF554B154AF32E9470C378BEB3BC66BC4DADB6479F17380020D94753A27300F1D66AD8EE241F1D9E297A7500BA5404CF0F40C5390032C0BB0BE8E0B88036D60176057BB4A6708429D5F65A17305EC24AB09C01C988BEDA479850090E8A60CFA48BB8BA6D7DDCB37BC3F693AD1541F348C797616C5AF11469F7
310
86A5B35A3247A8FBD1DE9AE788BB37546DBA88FA1EA1AB2FFC82C4E8B8800300FC8002009C8B202E800BA0010000002E800BE00268000000800BE002B8001A000000E002B8002E8006000000B8002E800BA0010000002E800BE00268000000800BE0023E5DE016CB8006DC7B0180770002804311F4720B081A000000E002B8
310
002E8006000000B8002E800BB8D480ED3F30F1F5D77B06080000F00BE0CBF9E21EC03761009534C30619580000000049454E44AE426082
  0
ACDSRECORD
 90
        0
  2
AcDbDs::ID
280
    10
320
72
  2
Thumbnail_Data
280
    15
 94
     1596
310
89504E470D0A1A0A0000000D4948445200000100000000870803000000CE6E778000000300504C5445212830FFFFFF2128300000000000000000000000000000000000000000000000000000330000660000990000CC0000FF0033000033330033660033990033CC0033FF0066000066330066660066990066CC0066FF0099
310
000099330099660099990099CC0099FF00CC0000CC3300CC6600CC9900CCCC00CCFF00FF0000FF3300FF6600FF9900FFCC00FFFF3300003300333300663300993300CC3300FF3333003333333333663333993333CC3333FF3366003366333366663366993366CC3366FF3399003399333399663399993399CC3399FF33CC00
310
33CC3333CC6633CC9933CCCC33CCFF33FF0033FF3333FF6633FF9933FFCC33FFFF6600006600336600666600996600CC6600FF6633006633336633666633996633CC6633FF6666006666336666666666996666CC6666FF6699006699336699666699996699CC6699FF66CC0066CC3366CC6666CC9966CCCC66CCFF66FF0066
310
FF3366FF6666FF9966FFCC66FFFF9900009900339900669900999900CC9900FF9933009933339933669933999933CC9933FF9966009966339966669966999966CC9966FF9999009999339999669999999999CC9999FF99CC0099CC3399CC6699CC9999CCCC99CCFF99FF0099FF3399FF6699FF9999FFCC99FFFFCC0000CC00
310
33CC0066CC0099CC00CCCC00FFCC3300CC3333CC3366CC3399CC33CCCC33FFCC6600CC6633CC6666CC6699CC66CCCC66FFCC9900CC9933CC9966CC9999CC99CCCC99FFCCCC00CCCC33CCCC66CCCC99CCCCCCCCCCFFCCFF00CCFF33CCFF66CCFF99CCFFCCCCFFFFFF0000FF0033FF0066FF0099FF00CCFF00FFFF3300FF3333
310
FF3366FF3399FF33CCFF33FFFF6600FF6633FF6666FF6699FF66CCFF66FFFF9900FF9933FF9966FF9999FF99CCFF99FFFFCC00FFCC33FFCC66FFCC99FFCCCCFFCCFFFFFF00FFFF33FFFF66FFFF99FFFFCCFFFFFF0000000D0D0D1A1A1A2828283535354343435050505D5D5D6B6B6B787878868686939393A1A1A1AEAEAEBB
310
BBBBC9C9C9D6D6D6E4E4E4F1F1F1FFFFFF0000000000000000000000000000000000000000000000000000000000002E4550F1000002EB4944415478DAED9CCBA2C3200805F3FFFFCBFE6EFA88A8A888E6A699D9992AB52744416D8E030000000000000000000000000000000000E0E9C80821569C469609105177A47BF5BA
310
E26B36EB0011952542F2465764C97D1ED4B5527DCC8AD3C8E973097CD0630C6D31323520C891EA27899846A9D2AC65C4D9AC56D2BF65D605949846493A4B31CD8C92B211E801727EBA54A9FB568634CB8C543D205200654E3AFB6E197136CB8D20000220000220C06A011E330D7EC3C757307212E6A38E2A9D2B5AA5986699
310
91975CA2531AAF072481741A551B25E92A4535AB1A0988046FB95813E901BFB58CE56C91A5931B9DD8FF001DF915A700E980F3196AD60D63214368DAF3EFE8E81140F4EACAEA892C6412553D1799F080CCF0E25026248C52777CC6031000011000011E2DC00F4C839302A8086BF5C276C8A27A12B1CD09A0B61D366C6D846C
310
AB28056604F889F4475CFBE8996C52B4BC79EFABAB59B99B55AB15050AB26569D6F6BDAFDE66E98D95D6E8B5C403B64E1269C552372DAB4B04D81F26C84848D3D1120110000110000110E05E71401610BE97CC9D71C00D23C142A70BBB665B22C12B72812CB54912E4AA5579C2D6D878E26B26D15727FC528BF8EDA478D403
310
CC14FAFF9CA32C0C4D8DCF7D6340AF07EC3F40D2E501F3D960A700171C21EA13603A0E4000044000044080674D833A8DFA6657171F02CA8F041DF90939C9D6FFABC6AD48B09C5D5D7D0CACB4F85FEAEB9156A818371E019D5E2DFE4BE65C4AE3EE6B6C36A87621DE8F4DB34D7EBE735B4ADAF480EAE943FB42332769E631F9
310
A6BCF3F9723E02E9A0940C395F337A34B23D203D842F7D1E303BC2369BB5673A91CAA4239D5E2BD964742EB4FE1C1DBB75E8CA06C304E8B86A0810B368EC09841000011000019E2CC043A741F398A494E3BA4624D873D1FC96903354E3CBE2720479C021AD8BB607F8765DC4B931F214A49E5CDEFC252A53BFE9075EA3D35B
310
7DF86E6CFF5259DA95A0F583C1BA1B5EA5B56C50BBCDCBD436BD5B0D000000000000000000EECB1F813ADF7B76601AA40000000049454E44AE4260820000000049454E44AE426082
  0
ENDSEC
  0
EOF
