%TF.GenerationSoftware,KiCad,Pcbnew,(6.0.1)*%
%TF.CreationDate,2022-05-17T01:17:21-04:00*%
%TF.ProjectId,GanJing 65 rev 2 hotswap exposed traces,47616e4a-696e-4672-9036-352072657620,2*%
%TF.SameCoordinates,Original*%
%TF.FileFunction,Plated,1,2,PTH,Drill*%
%TF.FilePolarity,Positive*%
%FSLAX46Y46*%
G04 Gerber Fmt 4.6, Leading zero omitted, Abs format (unit mm)*
G04 Created by KiCad (PCBNEW (6.0.1)) date 2022-05-17 01:17:21*
%MOMM*%
%LPD*%
G01*
G04 APERTURE LIST*
%TA.AperFunction,ViaDrill*%
%ADD10C,0.400000*%
%TD*%
%TA.AperFunction,ComponentDrill*%
%ADD11C,0.800000*%
%TD*%
%TA.AperFunction,ComponentDrill*%
%ADD12C,1.000000*%
%TD*%
G04 APERTURE END LIST*
D10*
X59531250Y-100012500D03*
X59531250Y-114300000D03*
X61912500Y-185737500D03*
X62606250Y-107510700D03*
X64293750Y-130968750D03*
X71437500Y-166687500D03*
X78581250Y-100012500D03*
X80962500Y-114300000D03*
X81606250Y-108300000D03*
X85725000Y-104775000D03*
X88106250Y-130968750D03*
X92868750Y-147637500D03*
X97631250Y-100012500D03*
X100012500Y-114300000D03*
X100706250Y-108700000D03*
X104775000Y-104775000D03*
X107156250Y-130968750D03*
X109537500Y-185737500D03*
X111918750Y-147637500D03*
X116681250Y-100012500D03*
X119062500Y-114300000D03*
X119706250Y-109200000D03*
X121443750Y-166687500D03*
X123825000Y-104775000D03*
X126206250Y-130968750D03*
X130968750Y-147637500D03*
X135731250Y-100012500D03*
X138112500Y-114300000D03*
X138112500Y-185737500D03*
X138706250Y-109600000D03*
X140493750Y-166687500D03*
X142875000Y-104775000D03*
X145256250Y-130968750D03*
X150018750Y-147637500D03*
X154781250Y-100012500D03*
X157162500Y-114300000D03*
X158153750Y-110052500D03*
X159543750Y-166687500D03*
X161925000Y-104775000D03*
X164306250Y-130968750D03*
X164306250Y-185737500D03*
X169068750Y-147637500D03*
X173831250Y-100012500D03*
X176212500Y-114300000D03*
X177628750Y-110477500D03*
X178593750Y-166687500D03*
X180975000Y-104775000D03*
X183356250Y-130968750D03*
X188118750Y-147637500D03*
X190500000Y-185737500D03*
X192881250Y-100012500D03*
X195262500Y-114300000D03*
X197153750Y-110952500D03*
X197643750Y-166687500D03*
X200025000Y-104775000D03*
X202406250Y-130968750D03*
X207168750Y-147637500D03*
X211931250Y-100012500D03*
X214312500Y-114300000D03*
X216628750Y-111377500D03*
X216693750Y-166687500D03*
X219075000Y-104775000D03*
X219075000Y-185737500D03*
X221456250Y-130968750D03*
X226218750Y-147637500D03*
X230981250Y-100012500D03*
X233362500Y-114300000D03*
X235743750Y-166687500D03*
X236153750Y-111852500D03*
X238125000Y-104775000D03*
X240506250Y-130968750D03*
X245268750Y-147637500D03*
X250031250Y-100012500D03*
X250031250Y-185737500D03*
X252412500Y-114300000D03*
X254793750Y-166687500D03*
X255628750Y-112277500D03*
X257175000Y-104775000D03*
X259556250Y-130968750D03*
X264318750Y-147637500D03*
X269081250Y-100012500D03*
X269081250Y-185737500D03*
X271462500Y-114300000D03*
X273843750Y-166687500D03*
X275153750Y-112752500D03*
X276225000Y-104775000D03*
X278606250Y-130968750D03*
X283368750Y-147637500D03*
X288131250Y-166687500D03*
X288131250Y-185737500D03*
X290512500Y-114300000D03*
X295106250Y-104775000D03*
X296700000Y-145100000D03*
X297656250Y-130968750D03*
X307181250Y-126206250D03*
X307181250Y-185737500D03*
X309562500Y-166687500D03*
X314325000Y-130810000D03*
X316706250Y-114300000D03*
X323806250Y-103500000D03*
X326231250Y-185737500D03*
X328612500Y-166687500D03*
X340518750Y-130968750D03*
X342900000Y-147637500D03*
X345281250Y-169068750D03*
X345281250Y-185737500D03*
X348706250Y-130968750D03*
X352306250Y-122600000D03*
X353606250Y-105100000D03*
X354806250Y-122600000D03*
X356906250Y-110800000D03*
X358106250Y-110800000D03*
X358800000Y-137900000D03*
X360106250Y-118500000D03*
X364331250Y-166687500D03*
X364331250Y-185737500D03*
X364606250Y-123800000D03*
D11*
%TO.C,D16*%
X52387500Y-116522500D03*
X52387500Y-121602500D03*
%TO.C,D31*%
X52387500Y-135572500D03*
X52387500Y-140652500D03*
%TO.C,D46*%
X52387500Y-154622500D03*
X52387500Y-159702500D03*
%TO.C,D61*%
X52387500Y-173672500D03*
X52387500Y-178752500D03*
%TO.C,D1*%
X69056250Y-99853750D03*
X69056250Y-104933750D03*
%TO.C,D62*%
X76200000Y-173672500D03*
X76200000Y-178752500D03*
%TO.C,D17*%
X78581250Y-116522500D03*
X78581250Y-121602500D03*
%TO.C,D32*%
X83343750Y-135572500D03*
X83343750Y-140652500D03*
%TO.C,D2*%
X88106250Y-99853750D03*
X88106250Y-104933750D03*
%TO.C,D48*%
X92868750Y-154622500D03*
X92868750Y-159702500D03*
%TO.C,D47*%
X92868750Y-164147500D03*
X92868750Y-169227500D03*
%TO.C,D18*%
X97631250Y-116522500D03*
X97631250Y-121602500D03*
%TO.C,D63*%
X97631250Y-173672500D03*
X97631250Y-178752500D03*
%TO.C,D33*%
X102393750Y-135572500D03*
X102393750Y-140652500D03*
%TO.C,D3*%
X107156250Y-99853750D03*
X107156250Y-104933750D03*
%TO.C,D49*%
X111918750Y-154622500D03*
X111918750Y-159702500D03*
%TO.C,D19*%
X116681250Y-116522500D03*
X116681250Y-121602500D03*
%TO.C,D34*%
X121443750Y-135572500D03*
X121443750Y-140652500D03*
%TO.C,D64*%
X121443750Y-173672500D03*
X121443750Y-178752500D03*
%TO.C,D4*%
X126206250Y-99853750D03*
X126206250Y-104933750D03*
%TO.C,D50*%
X130968750Y-154622500D03*
X130968750Y-159702500D03*
%TO.C,D20*%
X135731250Y-116522500D03*
X135731250Y-121602500D03*
%TO.C,D35*%
X140493750Y-135572500D03*
X140493750Y-140652500D03*
%TO.C,D5*%
X145256250Y-99853750D03*
X145256250Y-104933750D03*
%TO.C,D51*%
X150018750Y-154622500D03*
X150018750Y-159702500D03*
%TO.C,D21*%
X154781250Y-116522500D03*
X154781250Y-121602500D03*
%TO.C,D36*%
X159543750Y-135572500D03*
X159543750Y-140652500D03*
%TO.C,D65*%
X160200000Y-176053750D03*
X160200000Y-181133750D03*
%TO.C,D6*%
X164306250Y-99853750D03*
X164306250Y-104933750D03*
%TO.C,D66*%
X164306250Y-176053750D03*
X164306250Y-181133750D03*
%TO.C,D52*%
X169068750Y-154622500D03*
X169068750Y-159702500D03*
%TO.C,D22*%
X173831250Y-116522500D03*
X173831250Y-121602500D03*
%TO.C,D37*%
X178593750Y-135572500D03*
X178593750Y-140652500D03*
%TO.C,D7*%
X183356250Y-99853750D03*
X183356250Y-104933750D03*
%TO.C,D53*%
X188118750Y-154622500D03*
X188118750Y-159702500D03*
%TO.C,D23*%
X192881250Y-116522500D03*
X192881250Y-121602500D03*
%TO.C,D67*%
X195262500Y-176053750D03*
X195262500Y-181133750D03*
%TO.C,D38*%
X197643750Y-135572500D03*
X197643750Y-140652500D03*
%TO.C,D8*%
X202406250Y-99853750D03*
X202406250Y-104933750D03*
%TO.C,D54*%
X207168750Y-154622500D03*
X207168750Y-159702500D03*
%TO.C,D24*%
X211931250Y-116522500D03*
X211931250Y-121602500D03*
%TO.C,D39*%
X216693750Y-135572500D03*
X216693750Y-140652500D03*
%TO.C,D9*%
X221456250Y-99853750D03*
X221456250Y-104933750D03*
%TO.C,D55*%
X226218750Y-154622500D03*
X226218750Y-159702500D03*
%TO.C,D25*%
X230981250Y-116522500D03*
X230981250Y-121602500D03*
%TO.C,D40*%
X235743750Y-135572500D03*
X235743750Y-140652500D03*
%TO.C,D10*%
X240506250Y-99853750D03*
X240506250Y-104933750D03*
%TO.C,D68*%
X240506250Y-173672500D03*
X240506250Y-178752500D03*
%TO.C,D56*%
X245268750Y-154622500D03*
X245268750Y-159702500D03*
%TO.C,D26*%
X250031250Y-116522500D03*
X250031250Y-121602500D03*
%TO.C,D41*%
X254793750Y-135572500D03*
X254793750Y-140652500D03*
%TO.C,D11*%
X259556250Y-99853750D03*
X259556250Y-104933750D03*
%TO.C,D69*%
X259556250Y-173672500D03*
X259556250Y-178752500D03*
%TO.C,D57*%
X264318750Y-154622500D03*
X264318750Y-159702500D03*
%TO.C,D27*%
X269081250Y-116522500D03*
X269081250Y-121602500D03*
%TO.C,D42*%
X273843750Y-135572500D03*
X273843750Y-140652500D03*
%TO.C,D12*%
X278606250Y-99853750D03*
X278606250Y-104933750D03*
%TO.C,D70*%
X278606250Y-173672500D03*
X278606250Y-178752500D03*
%TO.C,D58*%
X283368750Y-154622500D03*
X283368750Y-159702500D03*
%TO.C,D28*%
X288131250Y-116522500D03*
X288131250Y-121602500D03*
%TO.C,D44*%
X292893750Y-135572500D03*
X292893750Y-140652500D03*
%TO.C,D43*%
X292893750Y-145097500D03*
X292893750Y-150177500D03*
%TO.C,D13*%
X297656250Y-99853750D03*
X297656250Y-104933750D03*
%TO.C,D71*%
X297656250Y-176053750D03*
X297656250Y-181133750D03*
%TO.C,D29*%
X309562500Y-116522500D03*
X309562500Y-121602500D03*
%TO.C,D72*%
X316706250Y-173672500D03*
X316706250Y-178752500D03*
%TO.C,D14*%
X333375000Y-99853750D03*
X333375000Y-104933750D03*
%TO.C,D30*%
X335756250Y-137953750D03*
X335756250Y-143033750D03*
%TO.C,D45*%
X335756250Y-154622500D03*
X335756250Y-159702500D03*
%TO.C,D59*%
X335756250Y-164147500D03*
X335756250Y-169227500D03*
%TO.C,D73*%
X335756250Y-173672500D03*
X335756250Y-178752500D03*
%TO.C,D15*%
X354806250Y-137953750D03*
X354806250Y-143033750D03*
%TO.C,D60*%
X354806250Y-154622500D03*
X354806250Y-159702500D03*
%TO.C,D74*%
X354806250Y-173672500D03*
X354806250Y-178752500D03*
D12*
%TO.C,U1*%
X347186250Y-99130000D03*
X347186250Y-101670000D03*
X347186250Y-104210000D03*
X347186250Y-106750000D03*
X347186250Y-109290000D03*
X347186250Y-111830000D03*
X347186250Y-114370000D03*
X347186250Y-116910000D03*
X347186250Y-119450000D03*
X347186250Y-121990000D03*
X347186250Y-124530000D03*
X347186250Y-127070000D03*
X349726250Y-127070000D03*
%TO.C,DS1*%
X350996250Y-131250000D03*
%TO.C,U1*%
X352266250Y-127070000D03*
%TO.C,DS1*%
X353536250Y-131250000D03*
%TO.C,U1*%
X354806250Y-127070000D03*
%TO.C,DS1*%
X356076250Y-131250000D03*
%TO.C,U1*%
X357346250Y-127070000D03*
%TO.C,DS1*%
X358616250Y-131250000D03*
%TO.C,U1*%
X359886250Y-127070000D03*
%TO.C,SW1*%
X361831250Y-135975000D03*
X361831250Y-150475000D03*
%TO.C,U1*%
X362426250Y-99130000D03*
X362426250Y-101670000D03*
X362426250Y-104210000D03*
X362426250Y-106750000D03*
X362426250Y-109290000D03*
X362426250Y-111830000D03*
X362426250Y-114370000D03*
X362426250Y-116910000D03*
X362426250Y-119450000D03*
X362426250Y-121990000D03*
X362426250Y-124530000D03*
X362426250Y-127070000D03*
%TO.C,SW1*%
X364331250Y-135975000D03*
X366831250Y-135975000D03*
X366831250Y-150475000D03*
M02*
