%TF.GenerationSoftware,KiCad,Pcbnew,(6.0.1)*%
%TF.CreationDate,2022-05-17T01:17:27-04:00*%
%TF.ProjectId,GanJing 65 rev 2 hotswap exposed traces,47616e4a-696e-4672-9036-352072657620,2*%
%TF.SameCoordinates,Original*%
%TF.FileFunction,Legend,Bot*%
%TF.FilePolarity,Positive*%
%FSLAX46Y46*%
G04 Gerber Fmt 4.6, Leading zero omitted, Abs format (unit mm)*
G04 Created by KiCad (PCBNEW (6.0.1)) date 2022-05-17 01:17:27*
%MOMM*%
%LPD*%
G01*
G04 APERTURE LIST*
%ADD10C,0.150000*%
%ADD11R,1.800000X1.800000*%
%ADD12C,1.800000*%
%ADD13R,1.600000X1.600000*%
%ADD14O,1.600000X1.600000*%
%ADD15C,3.987800*%
%ADD16C,1.750000*%
%ADD17C,3.000000*%
%ADD18R,2.550000X2.500000*%
%ADD19C,5.000000*%
%ADD20C,4.050000*%
%ADD21R,2.500000X2.550000*%
%ADD22R,2.000000X3.200000*%
%ADD23R,2.000000X2.000000*%
%ADD24C,2.000000*%
%ADD25C,2.250000*%
%ADD26C,0.800000*%
G04 APERTURE END LIST*
%TO.C,REF\u002A\u002A\u002A*%
G36*
X161595877Y-108056785D02*
G01*
X162359754Y-108180518D01*
X162716845Y-108257048D01*
X163098849Y-108348274D01*
X163475850Y-108452182D01*
X163869773Y-108577424D01*
X164302541Y-108732651D01*
X164796075Y-108926513D01*
X165372298Y-109167662D01*
X166053135Y-109464748D01*
X166860506Y-109826422D01*
X167816336Y-110261335D01*
X168942547Y-110778139D01*
X169562792Y-111062058D01*
X170357043Y-111422518D01*
X171155581Y-111782057D01*
X171892726Y-112111119D01*
X172502798Y-112380151D01*
X172524117Y-112389470D01*
X173476670Y-112818127D01*
X174506219Y-113302379D01*
X175567235Y-113819327D01*
X176614186Y-114346072D01*
X177601543Y-114859717D01*
X178483777Y-115337362D01*
X179215358Y-115756110D01*
X179489523Y-115921085D01*
X180054886Y-116270610D01*
X180624408Y-116633301D01*
X181167174Y-116988485D01*
X181652264Y-117315487D01*
X182048764Y-117593633D01*
X182325756Y-117802249D01*
X182452324Y-117920662D01*
X182455913Y-117927827D01*
X182422809Y-118074459D01*
X182277073Y-118275404D01*
X182230706Y-118324191D01*
X182074432Y-118453250D01*
X181915811Y-118463689D01*
X181659598Y-118370118D01*
X181655734Y-118368500D01*
X181343976Y-118224537D01*
X180873566Y-117989665D01*
X180270378Y-117677441D01*
X179560285Y-117301421D01*
X178769162Y-116875163D01*
X177922882Y-116412223D01*
X177170995Y-116006989D01*
X175359288Y-115102449D01*
X173557803Y-114301132D01*
X171799878Y-113616417D01*
X170118850Y-113061681D01*
X168548055Y-112650302D01*
X168354361Y-112607992D01*
X166764269Y-112331929D01*
X165296332Y-112213443D01*
X163931733Y-112252951D01*
X162651656Y-112450868D01*
X161437286Y-112807611D01*
X161257886Y-112871291D01*
X160939478Y-112957227D01*
X160677838Y-112964871D01*
X160378377Y-112902718D01*
X159918520Y-112696349D01*
X159466255Y-112303101D01*
X159110132Y-111778717D01*
X158876867Y-111163715D01*
X158793175Y-110498610D01*
X158837140Y-110113732D01*
X159018097Y-109551239D01*
X159302161Y-109024212D01*
X159649254Y-108620573D01*
X159991539Y-108364134D01*
X160455138Y-108141552D01*
X160975461Y-108041449D01*
X161595877Y-108056785D01*
G37*
G36*
X178422346Y-120269865D02*
G01*
X179161711Y-120424094D01*
X179914119Y-120725335D01*
X180628158Y-121151884D01*
X181252413Y-121682034D01*
X181703472Y-122253269D01*
X182095788Y-122982344D01*
X182381584Y-123780175D01*
X182538344Y-124583183D01*
X182543551Y-125327791D01*
X182507569Y-125609787D01*
X182317566Y-126512748D01*
X182029631Y-127235074D01*
X181637656Y-127786056D01*
X181135535Y-128174991D01*
X180517158Y-128411170D01*
X180165968Y-128464844D01*
X179713539Y-128451072D01*
X179167815Y-128349906D01*
X178481476Y-128155399D01*
X178469035Y-128151470D01*
X177521968Y-127761968D01*
X176738791Y-127242080D01*
X176109342Y-126583351D01*
X175623461Y-125777328D01*
X175524024Y-125559467D01*
X175425591Y-125278909D01*
X175411136Y-125054105D01*
X175467513Y-124802920D01*
X175484961Y-124748338D01*
X175610337Y-124461907D01*
X175744710Y-124276268D01*
X175841672Y-124141868D01*
X175903635Y-123886417D01*
X175940207Y-123642771D01*
X176048184Y-123341480D01*
X176092189Y-123237223D01*
X176189090Y-122901020D01*
X176257135Y-122523117D01*
X176312620Y-122140785D01*
X176451146Y-121575507D01*
X176657733Y-121129019D01*
X176955490Y-120742392D01*
X177012036Y-120682584D01*
X177276869Y-120444947D01*
X177538218Y-120322511D01*
X177895337Y-120264843D01*
X178422346Y-120269865D01*
G37*
G36*
X230055173Y-125849046D02*
G01*
X231109915Y-126079505D01*
X232211574Y-126509118D01*
X232583051Y-126669317D01*
X232903909Y-126783677D01*
X233104370Y-126827301D01*
X233217290Y-126843503D01*
X233527006Y-126919878D01*
X233976744Y-127048455D01*
X234530859Y-127217640D01*
X235153703Y-127415839D01*
X235809630Y-127631458D01*
X236462994Y-127852904D01*
X237078149Y-128068582D01*
X237619447Y-128266899D01*
X238051244Y-128436261D01*
X238448511Y-128606995D01*
X239556414Y-129158668D01*
X240534791Y-129762704D01*
X241362937Y-130403701D01*
X242020144Y-131066257D01*
X242485707Y-131734967D01*
X242573750Y-131905206D01*
X242713407Y-132257804D01*
X242794124Y-132647599D01*
X242837441Y-133161972D01*
X242882794Y-134026054D01*
X242152838Y-133889813D01*
X241837306Y-133838225D01*
X241341811Y-133767856D01*
X240729619Y-133687804D01*
X240049568Y-133604441D01*
X239350497Y-133524142D01*
X238791281Y-133460935D01*
X237854567Y-133346484D01*
X237077796Y-133236907D01*
X236426617Y-133126055D01*
X235866683Y-133007778D01*
X235363644Y-132875928D01*
X234883152Y-132724353D01*
X234731690Y-132672908D01*
X234342523Y-132545122D01*
X234105631Y-132484844D01*
X233983417Y-132491075D01*
X233938286Y-132562813D01*
X233932641Y-132699059D01*
X233933491Y-132710393D01*
X234023168Y-132903541D01*
X234253393Y-133233448D01*
X234614125Y-133688989D01*
X235095323Y-134259041D01*
X235686946Y-134932480D01*
X236378952Y-135698180D01*
X237161300Y-136545017D01*
X238023950Y-137461869D01*
X238956859Y-138437609D01*
X239949987Y-139461115D01*
X240993292Y-140521261D01*
X241664718Y-141195906D01*
X242404769Y-141932952D01*
X243110628Y-142629344D01*
X243763200Y-143266554D01*
X244343386Y-143826059D01*
X244832092Y-144289332D01*
X245210219Y-144637849D01*
X245458672Y-144853083D01*
X245776358Y-145093634D01*
X246377874Y-145492384D01*
X247020868Y-145862016D01*
X247654067Y-146175890D01*
X248226196Y-146407368D01*
X248685982Y-146529810D01*
X248753143Y-146541393D01*
X249165142Y-146650604D01*
X249536191Y-146799142D01*
X249564098Y-146813520D01*
X249698286Y-146891822D01*
X249809322Y-146990217D01*
X249912031Y-147139042D01*
X250021235Y-147368633D01*
X250151759Y-147709328D01*
X250318427Y-148191463D01*
X250536062Y-148845376D01*
X250538211Y-148851872D01*
X250794543Y-149647227D01*
X250976859Y-150269439D01*
X251088251Y-150743250D01*
X251131809Y-151093402D01*
X251110625Y-151344637D01*
X251027791Y-151521696D01*
X250886397Y-151649320D01*
X250786765Y-151697404D01*
X250420324Y-151761537D01*
X249905876Y-151752992D01*
X249279329Y-151673694D01*
X248576592Y-151525566D01*
X248055356Y-151371532D01*
X247143723Y-151015565D01*
X246133915Y-150531368D01*
X245055382Y-149934566D01*
X243937574Y-149240788D01*
X242809943Y-148465659D01*
X242301235Y-148106111D01*
X241620047Y-147647500D01*
X240968202Y-147232874D01*
X240369468Y-146875728D01*
X239847613Y-146589555D01*
X239426405Y-146387850D01*
X239129610Y-146284104D01*
X238980996Y-146291814D01*
X238975361Y-146361956D01*
X239026806Y-146592289D01*
X239131352Y-146928373D01*
X239270034Y-147317801D01*
X239423888Y-147708167D01*
X239573947Y-148047064D01*
X239701247Y-148282085D01*
X239795542Y-148442140D01*
X239989064Y-148818510D01*
X240232327Y-149327686D01*
X240508319Y-149931052D01*
X240800028Y-150589995D01*
X241090442Y-151265898D01*
X241362549Y-151920147D01*
X241599338Y-152514127D01*
X241783796Y-153009223D01*
X241967572Y-153554543D01*
X242299417Y-154692250D01*
X242559489Y-155808192D01*
X242740102Y-156861262D01*
X242833565Y-157810355D01*
X242832191Y-158614363D01*
X242807984Y-158848746D01*
X242587048Y-159711595D01*
X242171188Y-160518853D01*
X241573524Y-161243119D01*
X241088163Y-161644290D01*
X240413435Y-162072974D01*
X239625994Y-162477393D01*
X238776540Y-162831670D01*
X237915769Y-163109932D01*
X237695470Y-163167822D01*
X237231734Y-163268937D01*
X236768855Y-163332357D01*
X236235838Y-163366181D01*
X235561686Y-163378510D01*
X235358197Y-163378337D01*
X233613808Y-163266566D01*
X231897120Y-162954908D01*
X230197798Y-162440306D01*
X228505507Y-161719703D01*
X226809911Y-160790042D01*
X225718892Y-160050253D01*
X224659886Y-159180914D01*
X223687630Y-158229239D01*
X222832270Y-157227510D01*
X222123952Y-156208014D01*
X221592825Y-155203034D01*
X221514284Y-155014715D01*
X221451018Y-154825736D01*
X221403657Y-154612772D01*
X221369277Y-154344397D01*
X221344956Y-153989182D01*
X221327771Y-153515702D01*
X221314798Y-152892529D01*
X221303114Y-152088237D01*
X221269539Y-149557960D01*
X221958033Y-148828119D01*
X222256639Y-148501402D01*
X222901827Y-147699394D01*
X223464208Y-146836091D01*
X223994967Y-145836316D01*
X224137921Y-145543980D01*
X224315459Y-145185391D01*
X224442211Y-144934971D01*
X224497321Y-144834321D01*
X224506238Y-144877317D01*
X224518475Y-145089754D01*
X224528965Y-145440757D01*
X224536116Y-145887143D01*
X224544329Y-146244863D01*
X224675548Y-147690314D01*
X224971204Y-149132765D01*
X225441582Y-150626039D01*
X225652444Y-151203438D01*
X225375461Y-151820638D01*
X225333481Y-151916909D01*
X225095324Y-152588271D01*
X224925451Y-153291832D01*
X224837879Y-153956303D01*
X224846626Y-154510392D01*
X224873023Y-154673432D01*
X225063460Y-155333312D01*
X225364138Y-155991611D01*
X225729732Y-156543956D01*
X225869638Y-156704739D01*
X226569368Y-157331539D01*
X227470839Y-157907219D01*
X228569883Y-158429728D01*
X229862330Y-158897012D01*
X231344012Y-159307022D01*
X231836542Y-159420446D01*
X232285977Y-159502142D01*
X232704211Y-159542827D01*
X233172226Y-159549976D01*
X233770999Y-159531065D01*
X234725980Y-159449648D01*
X235696081Y-159251010D01*
X236497646Y-158935708D01*
X237139461Y-158497486D01*
X237630311Y-157930093D01*
X237978982Y-157227275D01*
X238194259Y-156382779D01*
X238210298Y-156275850D01*
X238253488Y-155484114D01*
X238193535Y-154589607D01*
X238037926Y-153660072D01*
X237794150Y-152763251D01*
X237610161Y-152273830D01*
X237284269Y-151548860D01*
X236877728Y-150748981D01*
X236411397Y-149907841D01*
X235906137Y-149059087D01*
X235382809Y-148236367D01*
X234862273Y-147473329D01*
X234365390Y-146803621D01*
X233913019Y-146260891D01*
X233526022Y-145878787D01*
X232998704Y-145415577D01*
X232392862Y-144831110D01*
X231841866Y-144245395D01*
X231384853Y-143700357D01*
X231060957Y-143237923D01*
X230999828Y-143134768D01*
X230832827Y-142818742D01*
X230733301Y-142529909D01*
X230679727Y-142188360D01*
X230650585Y-141714186D01*
X230645801Y-141092877D01*
X230722797Y-140350791D01*
X230901009Y-139779609D01*
X231182871Y-139368600D01*
X231232876Y-139319605D01*
X231455271Y-139146715D01*
X231701508Y-139067826D01*
X232065129Y-139049059D01*
X232242071Y-139053426D01*
X233062338Y-139162627D01*
X234006521Y-139412430D01*
X235053827Y-139794560D01*
X236183464Y-140300742D01*
X237374640Y-140922704D01*
X238606564Y-141652171D01*
X238973070Y-141878082D01*
X239721490Y-142316601D01*
X240426614Y-142700560D01*
X241055646Y-143013249D01*
X241575794Y-143237959D01*
X241954263Y-143357978D01*
X242013922Y-143357797D01*
X242019045Y-143303971D01*
X241940075Y-143179418D01*
X241765527Y-142971335D01*
X241483918Y-142666919D01*
X241083763Y-142253366D01*
X240553578Y-141717873D01*
X239881878Y-141047639D01*
X239066608Y-140246885D01*
X236850208Y-138169451D01*
X234588407Y-136198044D01*
X232239925Y-134298817D01*
X229763485Y-132437923D01*
X227117809Y-130581516D01*
X227094497Y-130565668D01*
X226562525Y-130202540D01*
X226179336Y-129932721D01*
X225918814Y-129731118D01*
X225754846Y-129572639D01*
X225661314Y-129432194D01*
X225612104Y-129284690D01*
X225581100Y-129105034D01*
X225547120Y-128778924D01*
X225598471Y-128038322D01*
X225838643Y-127391684D01*
X226263534Y-126845012D01*
X226869045Y-126404306D01*
X227651073Y-126075570D01*
X228000060Y-125977381D01*
X229025753Y-125815689D01*
X230055173Y-125849046D01*
G37*
G36*
X191591116Y-141479092D02*
G01*
X191741440Y-141653370D01*
X191968808Y-141939221D01*
X192245584Y-142302682D01*
X192250960Y-142309877D01*
X192543004Y-142717595D01*
X192725629Y-143006181D01*
X192796853Y-143164283D01*
X192754695Y-143180548D01*
X192597173Y-143043623D01*
X192322304Y-142742155D01*
X192298279Y-142713954D01*
X192072848Y-142421369D01*
X191854786Y-142097605D01*
X191674150Y-141792956D01*
X191560998Y-141557715D01*
X191545384Y-141442174D01*
X191591116Y-141479092D01*
G37*
G36*
X192856175Y-141812373D02*
G01*
X193062291Y-141861753D01*
X193120372Y-142024791D01*
X193103575Y-142148191D01*
X193030567Y-142237343D01*
X192921668Y-142183068D01*
X192748405Y-142024791D01*
X192635965Y-141891993D01*
X192643850Y-141823179D01*
X192838210Y-141812239D01*
X192856175Y-141812373D01*
G37*
G36*
X197515202Y-117005934D02*
G01*
X198290105Y-117356664D01*
X198972351Y-117897290D01*
X199169725Y-118118824D01*
X199475910Y-118541798D01*
X199765904Y-119022472D01*
X200009919Y-119505445D01*
X200178171Y-119935319D01*
X200240874Y-120256693D01*
X200184708Y-120597633D01*
X199996952Y-121020796D01*
X199665431Y-121531485D01*
X199178112Y-122151151D01*
X199028843Y-122332234D01*
X198609842Y-122883566D01*
X198322192Y-123353480D01*
X198142102Y-123785511D01*
X198045781Y-124223196D01*
X198039660Y-124266784D01*
X197981803Y-124544960D01*
X197891695Y-124671702D01*
X197733615Y-124701778D01*
X197588759Y-124674901D01*
X197288180Y-124560233D01*
X196951578Y-124386054D01*
X196821924Y-124318386D01*
X196428637Y-124152715D01*
X195888810Y-123957600D01*
X195242338Y-123747056D01*
X194529119Y-123535097D01*
X193971847Y-123374626D01*
X193388574Y-123201331D01*
X192890419Y-123047706D01*
X192517294Y-122926090D01*
X192309112Y-122848821D01*
X192089774Y-122730658D01*
X191666214Y-122419284D01*
X191285234Y-122046927D01*
X191024156Y-121683701D01*
X190921512Y-121398668D01*
X190860239Y-120892591D01*
X190886702Y-120315148D01*
X190990067Y-119722587D01*
X191159504Y-119171159D01*
X191384181Y-118717115D01*
X191653264Y-118416704D01*
X191982018Y-118213368D01*
X192493395Y-117948390D01*
X193094529Y-117671721D01*
X193724993Y-117409636D01*
X194324364Y-117188412D01*
X194832216Y-117034325D01*
X195682393Y-116873111D01*
X196646385Y-116844837D01*
X197515202Y-117005934D01*
G37*
G36*
X271454879Y-154901958D02*
G01*
X272106528Y-155294506D01*
X272650030Y-155589876D01*
X273066294Y-155775970D01*
X273336229Y-155840690D01*
X273350631Y-155841779D01*
X273537412Y-155939675D01*
X273801852Y-156166848D01*
X274106057Y-156481653D01*
X274412133Y-156842445D01*
X274682185Y-157207578D01*
X274878318Y-157535407D01*
X275085487Y-158027800D01*
X275160681Y-158450097D01*
X275079733Y-158786990D01*
X274841899Y-159069871D01*
X274692081Y-159180937D01*
X274133583Y-159427339D01*
X273419840Y-159542333D01*
X272559764Y-159525861D01*
X271562270Y-159377867D01*
X270436271Y-159098292D01*
X270074258Y-158994169D01*
X269528068Y-158839616D01*
X268891550Y-158661476D01*
X268194209Y-158467820D01*
X267465552Y-158266720D01*
X266735085Y-158066246D01*
X266032313Y-157874471D01*
X265386744Y-157699465D01*
X264827882Y-157549299D01*
X264385235Y-157432045D01*
X264088307Y-157355774D01*
X263966605Y-157328557D01*
X263946245Y-157422283D01*
X263927726Y-157696321D01*
X263913002Y-158117506D01*
X263903224Y-158652532D01*
X263899543Y-159268096D01*
X263899491Y-159321939D01*
X263883736Y-160299830D01*
X263834461Y-161116072D01*
X263743626Y-161817734D01*
X263603189Y-162451888D01*
X263405107Y-163065603D01*
X263141339Y-163705951D01*
X262799631Y-164470165D01*
X262372950Y-164401936D01*
X261867009Y-164256994D01*
X261239422Y-163921944D01*
X260640816Y-163446898D01*
X260115575Y-162868164D01*
X259708088Y-162222052D01*
X259466595Y-161739017D01*
X259664454Y-160623117D01*
X259745287Y-160082616D01*
X259823426Y-159404383D01*
X259888149Y-158685821D01*
X259930575Y-158014001D01*
X259998837Y-156520785D01*
X259653880Y-156127900D01*
X259454868Y-155926174D01*
X258950677Y-155561719D01*
X258303897Y-155257559D01*
X257501378Y-155010056D01*
X256529968Y-154815570D01*
X255376519Y-154670463D01*
X254027878Y-154571095D01*
X253553490Y-154544224D01*
X253003829Y-154505707D01*
X252608979Y-154464322D01*
X252334474Y-154414962D01*
X252145848Y-154352520D01*
X252008631Y-154271889D01*
X251839969Y-154102561D01*
X251698671Y-153738254D01*
X251734262Y-153294296D01*
X251947792Y-152796140D01*
X252230563Y-152313626D01*
X251971090Y-152042795D01*
X263914793Y-152042795D01*
X263921303Y-152351328D01*
X263953426Y-152900460D01*
X265491641Y-153414090D01*
X265923095Y-153555680D01*
X266561946Y-153752563D01*
X267025590Y-153876313D01*
X267309394Y-153926291D01*
X267408726Y-153901857D01*
X267318950Y-153802371D01*
X267035434Y-153627195D01*
X267011020Y-153613503D01*
X266642333Y-153398429D01*
X266194924Y-153126748D01*
X265760121Y-152853844D01*
X265260878Y-152538774D01*
X264777930Y-152244009D01*
X264378424Y-152010775D01*
X264093804Y-151857395D01*
X263955517Y-151802197D01*
X263932741Y-151843578D01*
X263914793Y-152042795D01*
X251971090Y-152042795D01*
X251955147Y-152026154D01*
X251679731Y-151738681D01*
X252193084Y-151347193D01*
X252719934Y-150994994D01*
X253619508Y-150572527D01*
X254677508Y-150264391D01*
X255497824Y-150081921D01*
X257145749Y-150631158D01*
X257528226Y-150755841D01*
X258046434Y-150915079D01*
X258472344Y-151034306D01*
X258769795Y-151103605D01*
X258902630Y-151113057D01*
X258907427Y-151109862D01*
X258987073Y-150942874D01*
X259012572Y-150640625D01*
X258988106Y-150269290D01*
X258917857Y-149895045D01*
X258806007Y-149584068D01*
X258651457Y-149335242D01*
X258243147Y-148867000D01*
X257678024Y-148366975D01*
X256983987Y-147858812D01*
X256188937Y-147366154D01*
X255837148Y-147165411D01*
X255335183Y-146874021D01*
X254979204Y-146649969D01*
X254744842Y-146468077D01*
X254607726Y-146303166D01*
X254543488Y-146130058D01*
X254527758Y-145923575D01*
X254536166Y-145658539D01*
X254536839Y-145641199D01*
X254527680Y-145240641D01*
X254458224Y-144865771D01*
X254312176Y-144488623D01*
X254073242Y-144081234D01*
X253725124Y-143615638D01*
X253251529Y-143063871D01*
X252636159Y-142397968D01*
X252286000Y-142025376D01*
X251869118Y-141570088D01*
X251550063Y-141197044D01*
X251298174Y-140864806D01*
X251082793Y-140531934D01*
X250873258Y-140156989D01*
X250638910Y-139698533D01*
X250396100Y-139192374D01*
X250135602Y-138607641D01*
X249912828Y-138065492D01*
X249758778Y-137638487D01*
X249692963Y-137433692D01*
X249574558Y-137103831D01*
X249474268Y-136918962D01*
X249364930Y-136837826D01*
X249219384Y-136819166D01*
X248993232Y-136776263D01*
X248717418Y-136631276D01*
X248688564Y-136597281D01*
X248558285Y-136390157D01*
X248350235Y-136022313D01*
X248075627Y-135514913D01*
X247745672Y-134889124D01*
X247371583Y-134166112D01*
X246964572Y-133367040D01*
X246535850Y-132513075D01*
X246090237Y-131624991D01*
X245090434Y-129680619D01*
X244143031Y-127911814D01*
X243236768Y-126300598D01*
X242360383Y-124828992D01*
X241502618Y-123479017D01*
X240652212Y-122232693D01*
X239797906Y-121072043D01*
X238928438Y-119979086D01*
X238032549Y-118935845D01*
X237650833Y-118522984D01*
X237218826Y-118081805D01*
X236761822Y-117635465D01*
X236301767Y-117203360D01*
X235860607Y-116804887D01*
X235460289Y-116459446D01*
X235122760Y-116186434D01*
X234869965Y-116005247D01*
X234723852Y-115935285D01*
X234706366Y-115995945D01*
X234805254Y-116263555D01*
X234915946Y-116616772D01*
X235006002Y-116954913D01*
X235059144Y-117216043D01*
X235059097Y-117338227D01*
X235035884Y-117349048D01*
X234865262Y-117305746D01*
X234583741Y-117157625D01*
X234230263Y-116930850D01*
X233843767Y-116651589D01*
X233463194Y-116346008D01*
X233127485Y-116040272D01*
X232987987Y-115899175D01*
X232508732Y-115335397D01*
X232191049Y-114784463D01*
X232007809Y-114188502D01*
X231931888Y-113489644D01*
X231925556Y-113216071D01*
X231964665Y-112577568D01*
X232094132Y-112001778D01*
X232290960Y-111364121D01*
X232913267Y-111331797D01*
X233580531Y-111360722D01*
X234453893Y-111580059D01*
X235333941Y-111997890D01*
X236209285Y-112607270D01*
X237068536Y-113401254D01*
X237900307Y-114372898D01*
X238007257Y-114516490D01*
X238295164Y-114930812D01*
X238629283Y-115439172D01*
X238981927Y-115996645D01*
X239325412Y-116558306D01*
X239632054Y-117079232D01*
X239874168Y-117514498D01*
X240024071Y-117819180D01*
X240089871Y-117957617D01*
X240263333Y-118282231D01*
X240496983Y-118693515D01*
X240759195Y-119134868D01*
X240952241Y-119455606D01*
X241604945Y-120578933D01*
X242318623Y-121859634D01*
X243077748Y-123268188D01*
X243866794Y-124775072D01*
X244670232Y-126350763D01*
X245472538Y-127965741D01*
X246258183Y-129590481D01*
X246521148Y-130141605D01*
X246940873Y-131019547D01*
X247371289Y-131918082D01*
X247786910Y-132784071D01*
X248162249Y-133564375D01*
X248471818Y-134205852D01*
X249393593Y-136111181D01*
X249455175Y-134524680D01*
X249463585Y-134317362D01*
X249502049Y-133604442D01*
X249555279Y-133048588D01*
X249632881Y-132605398D01*
X249744465Y-132230472D01*
X249899638Y-131879407D01*
X250108009Y-131507802D01*
X250146503Y-131445203D01*
X250666153Y-130809776D01*
X251341832Y-130309476D01*
X252178494Y-129941393D01*
X253181088Y-129702618D01*
X253459165Y-129669456D01*
X253879941Y-129663631D01*
X254361278Y-129711317D01*
X254937721Y-129817982D01*
X255643812Y-129989093D01*
X256514095Y-130230117D01*
X256707978Y-130283588D01*
X257342934Y-130436057D01*
X258007680Y-130569409D01*
X258586480Y-130659655D01*
X258727860Y-130678491D01*
X259833896Y-130922103D01*
X261001599Y-131332204D01*
X262200476Y-131888479D01*
X263400032Y-132570610D01*
X264569771Y-133358283D01*
X265679198Y-134231179D01*
X266697818Y-135168984D01*
X267595137Y-136151381D01*
X268340659Y-137158053D01*
X268343884Y-137162999D01*
X268550128Y-137466846D01*
X268713171Y-137684503D01*
X268797970Y-137769141D01*
X268816650Y-137689078D01*
X268807415Y-137451011D01*
X268769886Y-137109519D01*
X268542528Y-135932358D01*
X268127684Y-134688231D01*
X267555352Y-133582456D01*
X266830119Y-132620005D01*
X265956568Y-131805849D01*
X264939286Y-131144960D01*
X263782858Y-130642309D01*
X262491870Y-130302868D01*
X261668489Y-130147398D01*
X261668489Y-130666011D01*
X261664891Y-130845490D01*
X261643955Y-131089110D01*
X261610551Y-131184623D01*
X261580564Y-131172638D01*
X261407031Y-131071348D01*
X261120866Y-130889192D01*
X260765141Y-130653243D01*
X260634820Y-130566539D01*
X260201834Y-130306185D01*
X259870419Y-130164615D01*
X259596669Y-130121862D01*
X259373736Y-130103469D01*
X258839556Y-129918340D01*
X258321214Y-129550685D01*
X257843753Y-129021008D01*
X257432217Y-128349811D01*
X257196643Y-127831034D01*
X256919149Y-127038148D01*
X256737593Y-126266084D01*
X256671664Y-125586387D01*
X256636996Y-124937979D01*
X256536528Y-124263561D01*
X256382601Y-123639324D01*
X256187575Y-123105851D01*
X255963810Y-122703726D01*
X255723664Y-122473533D01*
X255579029Y-122414689D01*
X255297085Y-122363703D01*
X255186927Y-122354579D01*
X254822076Y-122274876D01*
X254322950Y-122125855D01*
X253729110Y-121923008D01*
X253080118Y-121681827D01*
X252415536Y-121417803D01*
X251774925Y-121146429D01*
X251197847Y-120883198D01*
X250723864Y-120643600D01*
X250392537Y-120443127D01*
X250065845Y-120210502D01*
X251153087Y-119109584D01*
X250923722Y-118591066D01*
X250793441Y-118216585D01*
X250761289Y-117746337D01*
X250913099Y-117375127D01*
X251243422Y-117109062D01*
X251746808Y-116954249D01*
X252417806Y-116916796D01*
X253014083Y-116962311D01*
X253998994Y-117172570D01*
X254868176Y-117542216D01*
X255601849Y-118064122D01*
X255755197Y-118199777D01*
X255955933Y-118366414D01*
X256053421Y-118431485D01*
X256056189Y-118361438D01*
X256027868Y-118120799D01*
X255970939Y-117749239D01*
X255891395Y-117289017D01*
X255854510Y-117068514D01*
X255772807Y-116424496D01*
X255713136Y-115716253D01*
X255675900Y-114983115D01*
X255661503Y-114264414D01*
X255670348Y-113599482D01*
X255702841Y-113027649D01*
X255759384Y-112588246D01*
X255840382Y-112320607D01*
X256167334Y-111847237D01*
X256556134Y-111519412D01*
X256965822Y-111386926D01*
X257379770Y-111454854D01*
X257781345Y-111728272D01*
X258216243Y-112249906D01*
X258644570Y-113027717D01*
X258984916Y-113974671D01*
X259233143Y-115075889D01*
X259385113Y-116316489D01*
X259436690Y-117681590D01*
X259436762Y-117922537D01*
X259439766Y-118434521D01*
X259452145Y-118788427D01*
X259480577Y-119023868D01*
X259531736Y-119180457D01*
X259612301Y-119297805D01*
X259728949Y-119415528D01*
X259801182Y-119480987D01*
X260335218Y-119823893D01*
X261021667Y-120079186D01*
X261818816Y-120230595D01*
X262150189Y-120287180D01*
X262843720Y-120490823D01*
X263631007Y-120808595D01*
X264472623Y-121220511D01*
X265329140Y-121706580D01*
X266161127Y-122246817D01*
X266929158Y-122821232D01*
X267023276Y-122898218D01*
X267429984Y-123247510D01*
X267834224Y-123617425D01*
X268204121Y-123976282D01*
X268507798Y-124292398D01*
X268713380Y-124534095D01*
X268788991Y-124669689D01*
X268712264Y-124813142D01*
X268520477Y-124979092D01*
X268276476Y-125069947D01*
X267803327Y-125115707D01*
X267139570Y-125092264D01*
X266290709Y-125000071D01*
X265262252Y-124839582D01*
X264059702Y-124611252D01*
X264026322Y-124604467D01*
X263325324Y-124465954D01*
X262645516Y-124338485D01*
X262033582Y-124230325D01*
X261536205Y-124149738D01*
X261200070Y-124104990D01*
X260465962Y-124031338D01*
X260532127Y-124589999D01*
X260584430Y-124887628D01*
X260833525Y-125534974D01*
X261268609Y-126134216D01*
X261898309Y-126695707D01*
X262731250Y-127229803D01*
X263062909Y-127421801D01*
X263704719Y-127817196D01*
X264425084Y-128283445D01*
X265168658Y-128783738D01*
X265880097Y-129281262D01*
X266504054Y-129739204D01*
X267704046Y-130726149D01*
X268918106Y-131922738D01*
X269950503Y-133177545D01*
X270793674Y-134480093D01*
X271440050Y-135819904D01*
X271882067Y-137186502D01*
X272064964Y-138177293D01*
X272154898Y-139345107D01*
X272133595Y-140555656D01*
X272007780Y-141773887D01*
X271784180Y-142964745D01*
X271469520Y-144093178D01*
X271070526Y-145124133D01*
X270593924Y-146022556D01*
X270046440Y-146753394D01*
X269805848Y-146989931D01*
X269316971Y-147352025D01*
X268790511Y-147621349D01*
X268260666Y-147791581D01*
X267761637Y-147856397D01*
X267327623Y-147809476D01*
X266992825Y-147644494D01*
X266791441Y-147355131D01*
X266757282Y-147112039D01*
X266792954Y-146711773D01*
X266899201Y-146280285D01*
X267060050Y-145903870D01*
X267110879Y-145787394D01*
X267086470Y-145625052D01*
X266916486Y-145413580D01*
X266651526Y-145135842D01*
X267024217Y-144457095D01*
X267391443Y-143658477D01*
X267658755Y-142649983D01*
X267715120Y-141630368D01*
X267559734Y-140605403D01*
X267408939Y-140097372D01*
X266929644Y-139015850D01*
X266258015Y-138022937D01*
X265395118Y-137119654D01*
X264342017Y-136307023D01*
X263099776Y-135586064D01*
X261669460Y-134957797D01*
X261471590Y-134884687D01*
X260731906Y-134641774D01*
X259885319Y-134400716D01*
X258975853Y-134171009D01*
X258047534Y-133962148D01*
X257144386Y-133783626D01*
X256310436Y-133644940D01*
X255589709Y-133555584D01*
X255026229Y-133525054D01*
X254636985Y-133559115D01*
X254051043Y-133740874D01*
X253556941Y-134055382D01*
X253192846Y-134475395D01*
X252996924Y-134973667D01*
X252951274Y-135499152D01*
X252997389Y-136237349D01*
X253137671Y-137065180D01*
X253357832Y-137939485D01*
X253643585Y-138817108D01*
X253980641Y-139654890D01*
X254354712Y-140409673D01*
X254751511Y-141038301D01*
X255156749Y-141497614D01*
X255935148Y-142109366D01*
X256909676Y-142734330D01*
X258055100Y-143355108D01*
X258197961Y-143425202D01*
X258670976Y-143640528D01*
X259185701Y-143855212D01*
X259702783Y-144055040D01*
X260182868Y-144225797D01*
X260586604Y-144353271D01*
X260874636Y-144423247D01*
X261007612Y-144421511D01*
X261014027Y-144290034D01*
X260917231Y-144011307D01*
X260731392Y-143619108D01*
X260474459Y-143143920D01*
X260164380Y-142616227D01*
X259819106Y-142066511D01*
X259456585Y-141525257D01*
X259094766Y-141022946D01*
X258751598Y-140590063D01*
X258742631Y-140579409D01*
X258350225Y-139984967D01*
X258126270Y-139320362D01*
X258055100Y-138539471D01*
X258062269Y-138376988D01*
X258208719Y-137833594D01*
X258532315Y-137391114D01*
X259017631Y-137065668D01*
X259649242Y-136873378D01*
X259739426Y-136861182D01*
X259940611Y-136868413D01*
X260172699Y-136939414D01*
X260484371Y-137092181D01*
X260924311Y-137344709D01*
X261171355Y-137488368D01*
X261537061Y-137690016D01*
X261813485Y-137828535D01*
X261954616Y-137880021D01*
X262020533Y-137889734D01*
X262280466Y-137977674D01*
X262647127Y-138135715D01*
X263067115Y-138337559D01*
X263487032Y-138556911D01*
X263853477Y-138767474D01*
X264113051Y-138942950D01*
X264378596Y-139201239D01*
X264675075Y-139615347D01*
X264884001Y-140054291D01*
X264963049Y-140443355D01*
X264962775Y-140456317D01*
X264862516Y-140733708D01*
X264613684Y-141039554D01*
X264263069Y-141327047D01*
X263857456Y-141549383D01*
X263673019Y-141614558D01*
X263257450Y-141721168D01*
X262828831Y-141793891D01*
X262215004Y-141865377D01*
X263224677Y-143672071D01*
X263367713Y-143928524D01*
X263932855Y-144954987D01*
X264396149Y-145822997D01*
X264765762Y-146550718D01*
X265049860Y-147156315D01*
X265256609Y-147657954D01*
X265394176Y-148073799D01*
X265470728Y-148422015D01*
X265494430Y-148720767D01*
X265492166Y-148787056D01*
X265453793Y-148915107D01*
X265335402Y-149017074D01*
X265095388Y-149120570D01*
X264692143Y-149253205D01*
X264403722Y-149345242D01*
X264118019Y-149450694D01*
X263969140Y-149543948D01*
X263917031Y-149653924D01*
X263921641Y-149809541D01*
X263943996Y-149932362D01*
X264032343Y-150081259D01*
X264227829Y-150212744D01*
X264578256Y-150367434D01*
X264737295Y-150434887D01*
X265416718Y-150772950D01*
X266182177Y-151219080D01*
X266981384Y-151741405D01*
X267762051Y-152308054D01*
X268148609Y-152601965D01*
X269041946Y-153262237D01*
X269903497Y-153873725D01*
X269944917Y-153901857D01*
X270714171Y-154424332D01*
X271454879Y-154901958D01*
G37*
G36*
X204509224Y-129625743D02*
G01*
X205075217Y-129792914D01*
X205664280Y-130109834D01*
X206300234Y-130590042D01*
X207006903Y-131247080D01*
X207129649Y-131371443D01*
X207789023Y-132117487D01*
X208294976Y-132859907D01*
X208663371Y-133639271D01*
X208910070Y-134496148D01*
X209050936Y-135471104D01*
X209101832Y-136604707D01*
X209102132Y-137230144D01*
X209085716Y-137712205D01*
X209046566Y-138095872D01*
X208978783Y-138438569D01*
X208876464Y-138797717D01*
X208626750Y-139411680D01*
X208165443Y-140094555D01*
X207564881Y-140619374D01*
X206834638Y-140978306D01*
X205984287Y-141163519D01*
X205761977Y-141180456D01*
X204858423Y-141123816D01*
X203968230Y-140882509D01*
X203127391Y-140476987D01*
X202371894Y-139927700D01*
X201737730Y-139255097D01*
X201260889Y-138479628D01*
X201119338Y-138165265D01*
X200964636Y-137720904D01*
X200918891Y-137334562D01*
X200977466Y-136930364D01*
X201135719Y-136432435D01*
X201147847Y-136398697D01*
X201280339Y-135992012D01*
X201374244Y-135635581D01*
X201409911Y-135403161D01*
X201437409Y-135153140D01*
X201522859Y-134833603D01*
X201527192Y-134821404D01*
X201578019Y-134586796D01*
X201633154Y-134196210D01*
X201686229Y-133701078D01*
X201730879Y-133152835D01*
X201836230Y-132133953D01*
X202004957Y-131303309D01*
X202245266Y-130652469D01*
X202565664Y-130168600D01*
X202974660Y-129838867D01*
X203480759Y-129650439D01*
X204092471Y-129590481D01*
X204509224Y-129625743D01*
G37*
G36*
X184228957Y-134838847D02*
G01*
X184797047Y-135365811D01*
X185155806Y-135872822D01*
X185254992Y-136132616D01*
X185340126Y-136570800D01*
X185362715Y-137032436D01*
X185320518Y-137442725D01*
X185211297Y-137726863D01*
X185141210Y-137803346D01*
X185031753Y-137861376D01*
X184852269Y-137898298D01*
X184567137Y-137918317D01*
X184140737Y-137925638D01*
X183537448Y-137924467D01*
X183093807Y-137917134D01*
X182252060Y-137873408D01*
X181401312Y-137785468D01*
X180503637Y-137647029D01*
X179521106Y-137451804D01*
X178415794Y-137193509D01*
X177149771Y-136865857D01*
X176996685Y-136825037D01*
X176338397Y-136654723D01*
X175737764Y-136507323D01*
X175231567Y-136391344D01*
X174856589Y-136315292D01*
X174649613Y-136287673D01*
X174167536Y-136363522D01*
X173728391Y-136600745D01*
X173397174Y-136960264D01*
X173191865Y-137402071D01*
X173130442Y-137886156D01*
X173230883Y-138372510D01*
X173511168Y-138821124D01*
X173625509Y-138937048D01*
X174149801Y-139317766D01*
X174826367Y-139640342D01*
X175611014Y-139889851D01*
X176459547Y-140051370D01*
X177327774Y-140109975D01*
X177418605Y-140111837D01*
X177666833Y-140131232D01*
X177974820Y-140175492D01*
X178363248Y-140249322D01*
X178852800Y-140357430D01*
X179464160Y-140504520D01*
X180218011Y-140695300D01*
X181135036Y-140934475D01*
X182235919Y-141226751D01*
X182568904Y-141315797D01*
X183466339Y-141556995D01*
X184298139Y-141782268D01*
X185040999Y-141985195D01*
X185671616Y-142159355D01*
X186166686Y-142298326D01*
X186502904Y-142395686D01*
X186656968Y-142445014D01*
X186804705Y-142494754D01*
X187133593Y-142587606D01*
X187572679Y-142701244D01*
X188068041Y-142821287D01*
X188394911Y-142904428D01*
X188995378Y-143083544D01*
X189565423Y-143282259D01*
X190015868Y-143470836D01*
X190287699Y-143604066D01*
X190588422Y-143774290D01*
X190787894Y-143945351D01*
X190942675Y-144170676D01*
X191109327Y-144503691D01*
X191354376Y-145155722D01*
X191424085Y-145709819D01*
X191314657Y-146154150D01*
X191026718Y-146486207D01*
X190560894Y-146703480D01*
X190149274Y-146781309D01*
X189462096Y-146812933D01*
X188624317Y-146770252D01*
X187661785Y-146657154D01*
X186600349Y-146477526D01*
X185465857Y-146235257D01*
X184284159Y-145934236D01*
X183081102Y-145578351D01*
X182753053Y-145485078D01*
X182252090Y-145357468D01*
X181605286Y-145201671D01*
X180836179Y-145022711D01*
X179968310Y-144825613D01*
X179025216Y-144615404D01*
X178030438Y-144397108D01*
X177007515Y-144175751D01*
X175979985Y-143956359D01*
X174971388Y-143743957D01*
X174005264Y-143543570D01*
X173105151Y-143360224D01*
X172294589Y-143198945D01*
X171597117Y-143064757D01*
X171036274Y-142962687D01*
X170635599Y-142897759D01*
X170418632Y-142875000D01*
X170232585Y-142882322D01*
X169961053Y-142956208D01*
X169759586Y-143139444D01*
X169728897Y-143189710D01*
X169628644Y-143353916D01*
X169490893Y-143842973D01*
X169480925Y-144406618D01*
X169591251Y-144989163D01*
X169814377Y-145534919D01*
X170142812Y-145988197D01*
X170238301Y-146082408D01*
X170643960Y-146408049D01*
X171123152Y-146675002D01*
X171698829Y-146889115D01*
X172393941Y-147056237D01*
X173231438Y-147182214D01*
X174234272Y-147272894D01*
X175425393Y-147334124D01*
X175882548Y-147351598D01*
X176533731Y-147379961D01*
X177040407Y-147410804D01*
X177445698Y-147449966D01*
X177792721Y-147503281D01*
X178124598Y-147576586D01*
X178484447Y-147675719D01*
X178915389Y-147806514D01*
X179068379Y-147854284D01*
X180221923Y-148254474D01*
X181181396Y-148669309D01*
X181963271Y-149109348D01*
X182584026Y-149585152D01*
X183060133Y-150107281D01*
X183408070Y-150686297D01*
X183592516Y-151213450D01*
X183636823Y-151858587D01*
X183474677Y-152470582D01*
X183108109Y-153033539D01*
X182972855Y-153181538D01*
X182647663Y-153473060D01*
X182297454Y-153672365D01*
X181875849Y-153795214D01*
X181336466Y-153857366D01*
X180632924Y-153874582D01*
X180279475Y-153871652D01*
X179862621Y-153856271D01*
X179456751Y-153822410D01*
X179031140Y-153764223D01*
X178555067Y-153675862D01*
X177997806Y-153551480D01*
X177328635Y-153385230D01*
X176516831Y-153171264D01*
X175531669Y-152903736D01*
X174629808Y-152661582D01*
X173367338Y-152343252D01*
X172285802Y-152099818D01*
X171374810Y-151929711D01*
X170623972Y-151831360D01*
X170022899Y-151803195D01*
X169561199Y-151843646D01*
X169228482Y-151951142D01*
X169021924Y-152085831D01*
X168639317Y-152483651D01*
X168303522Y-153025442D01*
X168045688Y-153666044D01*
X167960148Y-153972271D01*
X167777700Y-154925554D01*
X167669415Y-156012471D01*
X167634345Y-157185391D01*
X167671541Y-158396683D01*
X167780057Y-159598713D01*
X167958943Y-160743850D01*
X168207253Y-161784463D01*
X168334746Y-162162338D01*
X168634076Y-162726733D01*
X169051416Y-163162468D01*
X169627394Y-163519170D01*
X169683754Y-163547181D01*
X169954806Y-163674347D01*
X170198519Y-163764146D01*
X170462852Y-163825265D01*
X170795769Y-163866391D01*
X171245229Y-163896211D01*
X171859193Y-163923413D01*
X172419590Y-163949993D01*
X172959424Y-163990118D01*
X173372390Y-164044350D01*
X173705901Y-164119267D01*
X174007374Y-164221447D01*
X174030865Y-164230668D01*
X174568836Y-164461118D01*
X174949274Y-164684960D01*
X175218747Y-164947013D01*
X175423819Y-165292100D01*
X175611055Y-165765039D01*
X175662836Y-165915457D01*
X175941352Y-166905194D01*
X176062383Y-167759451D01*
X176025696Y-168484854D01*
X175831062Y-169088029D01*
X175478249Y-169575601D01*
X175422379Y-169630305D01*
X175159402Y-169841628D01*
X174891541Y-169949192D01*
X174572372Y-169955405D01*
X174155471Y-169862680D01*
X173594415Y-169673428D01*
X172715305Y-169298696D01*
X171791515Y-168781132D01*
X170852960Y-168123024D01*
X169874858Y-167306896D01*
X168832430Y-166315272D01*
X168394770Y-165863716D01*
X167717455Y-165087176D01*
X167160922Y-164320111D01*
X166683214Y-163501885D01*
X166242378Y-162571861D01*
X165825376Y-161514793D01*
X165329167Y-159955407D01*
X164905552Y-158247409D01*
X164562138Y-156422465D01*
X164306531Y-154512239D01*
X164302952Y-154479309D01*
X164123145Y-153294242D01*
X163862104Y-152299008D01*
X163515454Y-151485436D01*
X163078817Y-150845353D01*
X162547817Y-150370590D01*
X161918076Y-150052973D01*
X161368484Y-149837856D01*
X160561218Y-149454150D01*
X159797959Y-149016027D01*
X159119320Y-148549720D01*
X158565915Y-148081462D01*
X158178358Y-147637486D01*
X157942057Y-147244691D01*
X157760342Y-146758035D01*
X157709571Y-146248199D01*
X157791603Y-145680645D01*
X158008297Y-145020833D01*
X158361511Y-144234223D01*
X158762986Y-143414784D01*
X158469579Y-142901047D01*
X158226959Y-142545870D01*
X157779931Y-142038778D01*
X157228144Y-141520015D01*
X156759084Y-141145398D01*
X159927111Y-141145398D01*
X159932596Y-141194517D01*
X160064423Y-141331657D01*
X160311932Y-141493573D01*
X160981177Y-141893556D01*
X161687121Y-142375991D01*
X162359709Y-142892652D01*
X162968034Y-143416820D01*
X163481189Y-143921774D01*
X163868266Y-144380792D01*
X164098360Y-144767155D01*
X164155775Y-144890887D01*
X164309740Y-145062640D01*
X164550403Y-145106799D01*
X164618410Y-145102573D01*
X164824422Y-145014554D01*
X164993828Y-144792687D01*
X165141807Y-144410799D01*
X165283539Y-143842719D01*
X165329971Y-143189710D01*
X165178257Y-142598132D01*
X164832770Y-142075300D01*
X164298548Y-141625450D01*
X163580625Y-141252818D01*
X162684037Y-140961638D01*
X161613820Y-140756147D01*
X161305501Y-140717767D01*
X160971933Y-140703371D01*
X160708124Y-140744832D01*
X160431929Y-140848576D01*
X160307009Y-140906718D01*
X160055805Y-141043968D01*
X159927111Y-141145398D01*
X156759084Y-141145398D01*
X156620628Y-141034819D01*
X156006415Y-140628430D01*
X155017255Y-140106821D01*
X153811838Y-139602236D01*
X152459167Y-139162417D01*
X150928740Y-138776237D01*
X150525863Y-138672870D01*
X149842955Y-138434435D01*
X149254568Y-138148675D01*
X148819688Y-137841729D01*
X148577023Y-137561476D01*
X148342048Y-137053217D01*
X148263640Y-136483668D01*
X148334970Y-135894529D01*
X148407868Y-135701589D01*
X159310826Y-135701589D01*
X162479406Y-136489831D01*
X162802507Y-136570215D01*
X163576515Y-136762838D01*
X164278463Y-136937609D01*
X164881508Y-137087839D01*
X165358809Y-137206840D01*
X165683523Y-137287924D01*
X165828808Y-137324402D01*
X166007997Y-137288547D01*
X166243102Y-137110878D01*
X166468853Y-136838302D01*
X166633803Y-136522095D01*
X166644460Y-136491881D01*
X166729935Y-136185607D01*
X166817800Y-135779984D01*
X166900137Y-135326189D01*
X166969028Y-134875398D01*
X167016555Y-134478787D01*
X167034801Y-134187533D01*
X167015847Y-134052811D01*
X166991208Y-134033655D01*
X166781864Y-133932418D01*
X166426964Y-133799085D01*
X165974661Y-133649057D01*
X165473104Y-133497737D01*
X164970444Y-133360526D01*
X164514831Y-133252826D01*
X164352470Y-133220696D01*
X163828094Y-133133085D01*
X163230715Y-133050011D01*
X162660463Y-132985887D01*
X162042963Y-132943746D01*
X161552456Y-132962233D01*
X161149805Y-133057970D01*
X160774587Y-133245540D01*
X160366376Y-133539525D01*
X160098894Y-133811139D01*
X159784246Y-134275844D01*
X159528770Y-134808453D01*
X159376409Y-135329508D01*
X159310826Y-135701589D01*
X148407868Y-135701589D01*
X148549208Y-135327500D01*
X148899524Y-134824278D01*
X149379086Y-134426563D01*
X149901818Y-134107218D01*
X152108264Y-134054080D01*
X152266216Y-134050236D01*
X152975301Y-134031033D01*
X153508525Y-134010902D01*
X153896680Y-133986440D01*
X154170555Y-133954248D01*
X154360940Y-133910924D01*
X154498626Y-133853068D01*
X154614403Y-133777280D01*
X154806947Y-133619935D01*
X155024907Y-133374094D01*
X155178995Y-133074260D01*
X155282431Y-132680865D01*
X155348434Y-132154340D01*
X155390225Y-131455115D01*
X155405862Y-131111245D01*
X155436891Y-130615844D01*
X155479608Y-130249083D01*
X155544187Y-129956690D01*
X155640802Y-129684396D01*
X155779627Y-129377929D01*
X155910887Y-129117883D01*
X156367521Y-128412520D01*
X156903652Y-127873865D01*
X157548891Y-127469983D01*
X157661539Y-127416280D01*
X158371371Y-127144555D01*
X159106977Y-126985236D01*
X159892949Y-126940091D01*
X160753879Y-127010893D01*
X161714361Y-127199411D01*
X162798987Y-127507414D01*
X164032349Y-127936675D01*
X164365049Y-128058707D01*
X165160956Y-128339061D01*
X166004618Y-128623405D01*
X166814188Y-128884462D01*
X167507819Y-129094956D01*
X167565184Y-129111494D01*
X168172810Y-129279918D01*
X168835859Y-129453500D01*
X169517104Y-129623561D01*
X170179322Y-129781424D01*
X170785285Y-129918410D01*
X171297770Y-130025842D01*
X171679551Y-130095042D01*
X171893402Y-130117331D01*
X171910879Y-130113488D01*
X171905809Y-130061631D01*
X171804532Y-129939261D01*
X171593417Y-129733528D01*
X171258831Y-129431579D01*
X170787144Y-129020564D01*
X170164723Y-128487631D01*
X169079174Y-127596991D01*
X166819044Y-125939665D01*
X164402757Y-124417085D01*
X161822045Y-123023838D01*
X161490010Y-122858382D01*
X160846775Y-122540818D01*
X160664795Y-122453508D01*
X162725393Y-122453508D01*
X162779668Y-122562406D01*
X162937945Y-122735670D01*
X163070743Y-122848109D01*
X163139557Y-122840224D01*
X163150497Y-122645865D01*
X163150362Y-122627899D01*
X163100983Y-122421783D01*
X162937945Y-122363703D01*
X162814545Y-122380500D01*
X162725393Y-122453508D01*
X160664795Y-122453508D01*
X160348048Y-122301540D01*
X159962637Y-122127649D01*
X159659347Y-122006247D01*
X159406988Y-121924433D01*
X159174368Y-121869308D01*
X158930292Y-121827973D01*
X158215936Y-121649499D01*
X157538176Y-121345009D01*
X156944895Y-120944120D01*
X156478709Y-120475666D01*
X156182230Y-119968483D01*
X156159381Y-119905698D01*
X156037064Y-119258702D01*
X156090328Y-118595013D01*
X156303187Y-117964022D01*
X156659654Y-117415123D01*
X157143743Y-116997706D01*
X157328861Y-116886563D01*
X157529759Y-116787668D01*
X157741312Y-116726564D01*
X158013993Y-116694383D01*
X158398271Y-116682259D01*
X158944618Y-116681323D01*
X159374235Y-116685338D01*
X159854302Y-116704404D01*
X160218960Y-116745795D01*
X160525500Y-116816916D01*
X160831214Y-116925171D01*
X161133441Y-117064648D01*
X161726488Y-117472636D01*
X162180108Y-117985919D01*
X162459127Y-118568979D01*
X162459656Y-118570759D01*
X162578588Y-119038234D01*
X162604021Y-119382646D01*
X162530714Y-119674075D01*
X162353426Y-119982600D01*
X162288312Y-120084244D01*
X162144928Y-120360944D01*
X162087736Y-120560270D01*
X162106485Y-120619607D01*
X162252648Y-120826934D01*
X162517776Y-121123699D01*
X162870696Y-121480061D01*
X163280233Y-121866178D01*
X163715214Y-122252209D01*
X164144464Y-122608312D01*
X164194184Y-122645865D01*
X164536810Y-122904647D01*
X164585240Y-122939463D01*
X164936205Y-123213365D01*
X165378062Y-123584175D01*
X165859158Y-124007629D01*
X166327839Y-124439462D01*
X166957467Y-125022794D01*
X167978751Y-125925026D01*
X169040163Y-126815708D01*
X170104985Y-127665786D01*
X171136497Y-128446201D01*
X172097981Y-129127898D01*
X172952717Y-129681821D01*
X173580429Y-130049342D01*
X174268101Y-130410301D01*
X174984354Y-130735897D01*
X175788884Y-131053022D01*
X176741385Y-131388568D01*
X178324562Y-131945229D01*
X179906729Y-132554601D01*
X181290423Y-133149807D01*
X182473474Y-133729687D01*
X183270062Y-134187533D01*
X183453709Y-134293086D01*
X184228957Y-134838847D01*
G37*
G36*
X193766610Y-143010550D02*
G01*
X193954920Y-143145941D01*
X194234667Y-143402104D01*
X194581276Y-143753053D01*
X194970167Y-144172806D01*
X195376762Y-144635378D01*
X195776483Y-145114785D01*
X196144753Y-145585042D01*
X196253358Y-145729975D01*
X196997638Y-146759625D01*
X197818486Y-147952484D01*
X198700329Y-149285086D01*
X199627594Y-150733965D01*
X200584711Y-152275655D01*
X200712949Y-152484997D01*
X201119764Y-153143528D01*
X201437020Y-153644282D01*
X201679186Y-154007151D01*
X201860731Y-154252027D01*
X201996122Y-154398802D01*
X202099830Y-154467368D01*
X202186322Y-154477617D01*
X202357487Y-154434916D01*
X202717360Y-154301582D01*
X203135479Y-154115160D01*
X203537590Y-153909538D01*
X203849438Y-153718603D01*
X204029045Y-153594612D01*
X204202629Y-153523825D01*
X204331792Y-153603161D01*
X204493085Y-153848013D01*
X204495560Y-153852090D01*
X204619162Y-154131027D01*
X204685119Y-154484477D01*
X204694101Y-154945143D01*
X204646779Y-155545728D01*
X204543827Y-156318933D01*
X204517529Y-156490603D01*
X204323287Y-157552860D01*
X204089495Y-158474604D01*
X203798096Y-159317915D01*
X203431035Y-160144875D01*
X203266881Y-160467140D01*
X202636967Y-161494591D01*
X201940828Y-162327467D01*
X201181717Y-162962322D01*
X200362886Y-163395709D01*
X200070529Y-163488814D01*
X199441011Y-163581120D01*
X198813603Y-163551865D01*
X198274283Y-163400839D01*
X197878418Y-163154992D01*
X197411882Y-162724213D01*
X196961979Y-162180228D01*
X196559729Y-161570729D01*
X196236152Y-160943405D01*
X196022267Y-160345948D01*
X195949094Y-159826046D01*
X195952208Y-159738281D01*
X196033638Y-159191477D01*
X196228239Y-158531970D01*
X196542174Y-157741706D01*
X196981609Y-156802633D01*
X197082707Y-156597186D01*
X197290522Y-156155773D01*
X197424685Y-155815519D01*
X197503422Y-155513176D01*
X197544956Y-155185495D01*
X197567512Y-154769229D01*
X197570211Y-154693610D01*
X197550452Y-153753582D01*
X197426070Y-152801018D01*
X197188927Y-151807402D01*
X196830883Y-150744218D01*
X196343798Y-149582951D01*
X195719533Y-148295084D01*
X195528130Y-147918492D01*
X195178774Y-147220720D01*
X194840266Y-146532436D01*
X194524738Y-145879390D01*
X194244325Y-145287334D01*
X194011160Y-144782019D01*
X193837378Y-144389197D01*
X193735111Y-144134619D01*
X193716493Y-144044038D01*
X193754850Y-144055417D01*
X193940127Y-144136049D01*
X194213936Y-144268596D01*
X194661376Y-144493155D01*
X194300274Y-144135751D01*
X194182899Y-144009093D01*
X193959195Y-143709539D01*
X193784797Y-143404703D01*
X193689144Y-143150340D01*
X193701679Y-143002200D01*
X193766610Y-143010550D01*
G37*
G36*
X170126664Y-119725292D02*
G01*
X171150164Y-119933591D01*
X171519255Y-120040867D01*
X171904578Y-120190321D01*
X172213788Y-120376998D01*
X172524761Y-120640974D01*
X172716688Y-120837931D01*
X173085647Y-121318511D01*
X173389566Y-121846708D01*
X173595833Y-122361126D01*
X173671836Y-122800374D01*
X173658444Y-123008272D01*
X173560142Y-123247186D01*
X173320718Y-123470906D01*
X173281365Y-123500110D01*
X172922382Y-123726555D01*
X172550216Y-123912515D01*
X172461205Y-123950696D01*
X172172623Y-124091316D01*
X171984072Y-124208062D01*
X171898637Y-124258470D01*
X171633283Y-124361197D01*
X171293277Y-124456352D01*
X170937179Y-124517892D01*
X170346726Y-124562621D01*
X169707744Y-124561609D01*
X169084817Y-124517788D01*
X168542533Y-124434089D01*
X168145476Y-124313445D01*
X167740113Y-124087313D01*
X167218955Y-123632818D01*
X166846028Y-123083944D01*
X166636397Y-122474617D01*
X166605130Y-121838760D01*
X166767294Y-121210300D01*
X166822319Y-121090186D01*
X167217870Y-120503220D01*
X167753149Y-120071188D01*
X168421087Y-119796150D01*
X169214615Y-119680165D01*
X170126664Y-119725292D01*
G37*
%TD*%
%LPC*%
D10*
X370664285Y-188571130D02*
X370664285Y-187571130D01*
X370426190Y-187571130D01*
X370283333Y-187618750D01*
X370188095Y-187713988D01*
X370140476Y-187809226D01*
X370092857Y-187999702D01*
X370092857Y-188142559D01*
X370140476Y-188333035D01*
X370188095Y-188428273D01*
X370283333Y-188523511D01*
X370426190Y-188571130D01*
X370664285Y-188571130D01*
X369283333Y-188523511D02*
X369378571Y-188571130D01*
X369569047Y-188571130D01*
X369664285Y-188523511D01*
X369711904Y-188428273D01*
X369711904Y-188047321D01*
X369664285Y-187952083D01*
X369569047Y-187904464D01*
X369378571Y-187904464D01*
X369283333Y-187952083D01*
X369235714Y-188047321D01*
X369235714Y-188142559D01*
X369711904Y-188237797D01*
X368854761Y-188523511D02*
X368759523Y-188571130D01*
X368569047Y-188571130D01*
X368473809Y-188523511D01*
X368426190Y-188428273D01*
X368426190Y-188380654D01*
X368473809Y-188285416D01*
X368569047Y-188237797D01*
X368711904Y-188237797D01*
X368807142Y-188190178D01*
X368854761Y-188094940D01*
X368854761Y-188047321D01*
X368807142Y-187952083D01*
X368711904Y-187904464D01*
X368569047Y-187904464D01*
X368473809Y-187952083D01*
X367997619Y-188571130D02*
X367997619Y-187904464D01*
X367997619Y-187571130D02*
X368045238Y-187618750D01*
X367997619Y-187666369D01*
X367950000Y-187618750D01*
X367997619Y-187571130D01*
X367997619Y-187666369D01*
X367092857Y-187904464D02*
X367092857Y-188713988D01*
X367140476Y-188809226D01*
X367188095Y-188856845D01*
X367283333Y-188904464D01*
X367426190Y-188904464D01*
X367521428Y-188856845D01*
X367092857Y-188523511D02*
X367188095Y-188571130D01*
X367378571Y-188571130D01*
X367473809Y-188523511D01*
X367521428Y-188475892D01*
X367569047Y-188380654D01*
X367569047Y-188094940D01*
X367521428Y-187999702D01*
X367473809Y-187952083D01*
X367378571Y-187904464D01*
X367188095Y-187904464D01*
X367092857Y-187952083D01*
X366616666Y-187904464D02*
X366616666Y-188571130D01*
X366616666Y-187999702D02*
X366569047Y-187952083D01*
X366473809Y-187904464D01*
X366330952Y-187904464D01*
X366235714Y-187952083D01*
X366188095Y-188047321D01*
X366188095Y-188571130D01*
X365330952Y-188523511D02*
X365426190Y-188571130D01*
X365616666Y-188571130D01*
X365711904Y-188523511D01*
X365759523Y-188428273D01*
X365759523Y-188047321D01*
X365711904Y-187952083D01*
X365616666Y-187904464D01*
X365426190Y-187904464D01*
X365330952Y-187952083D01*
X365283333Y-188047321D01*
X365283333Y-188142559D01*
X365759523Y-188237797D01*
X364426190Y-188571130D02*
X364426190Y-187571130D01*
X364426190Y-188523511D02*
X364521428Y-188571130D01*
X364711904Y-188571130D01*
X364807142Y-188523511D01*
X364854761Y-188475892D01*
X364902380Y-188380654D01*
X364902380Y-188094940D01*
X364854761Y-187999702D01*
X364807142Y-187952083D01*
X364711904Y-187904464D01*
X364521428Y-187904464D01*
X364426190Y-187952083D01*
X363188095Y-188571130D02*
X363188095Y-187571130D01*
X363188095Y-187952083D02*
X363092857Y-187904464D01*
X362902380Y-187904464D01*
X362807142Y-187952083D01*
X362759523Y-187999702D01*
X362711904Y-188094940D01*
X362711904Y-188380654D01*
X362759523Y-188475892D01*
X362807142Y-188523511D01*
X362902380Y-188571130D01*
X363092857Y-188571130D01*
X363188095Y-188523511D01*
X362378571Y-187904464D02*
X362140476Y-188571130D01*
X361902380Y-187904464D02*
X362140476Y-188571130D01*
X362235714Y-188809226D01*
X362283333Y-188856845D01*
X362378571Y-188904464D01*
X360759523Y-188571130D02*
X360759523Y-187571130D01*
X360426190Y-188285416D01*
X360092857Y-187571130D01*
X360092857Y-188571130D01*
X359616666Y-188571130D02*
X359616666Y-187904464D01*
X359616666Y-187571130D02*
X359664285Y-187618750D01*
X359616666Y-187666369D01*
X359569047Y-187618750D01*
X359616666Y-187571130D01*
X359616666Y-187666369D01*
X359140476Y-187904464D02*
X359140476Y-188571130D01*
X359140476Y-187999702D02*
X359092857Y-187952083D01*
X358997619Y-187904464D01*
X358854761Y-187904464D01*
X358759523Y-187952083D01*
X358711904Y-188047321D01*
X358711904Y-188571130D01*
X357807142Y-187904464D02*
X357807142Y-188713988D01*
X357854761Y-188809226D01*
X357902380Y-188856845D01*
X357997619Y-188904464D01*
X358140476Y-188904464D01*
X358235714Y-188856845D01*
X357807142Y-188523511D02*
X357902380Y-188571130D01*
X358092857Y-188571130D01*
X358188095Y-188523511D01*
X358235714Y-188475892D01*
X358283333Y-188380654D01*
X358283333Y-188094940D01*
X358235714Y-187999702D01*
X358188095Y-187952083D01*
X358092857Y-187904464D01*
X357902380Y-187904464D01*
X357807142Y-187952083D01*
X357426190Y-187904464D02*
X356902380Y-187904464D01*
X357426190Y-188571130D01*
X356902380Y-188571130D01*
X356140476Y-188523511D02*
X356235714Y-188571130D01*
X356426190Y-188571130D01*
X356521428Y-188523511D01*
X356569047Y-188428273D01*
X356569047Y-188047321D01*
X356521428Y-187952083D01*
X356426190Y-187904464D01*
X356235714Y-187904464D01*
X356140476Y-187952083D01*
X356092857Y-188047321D01*
X356092857Y-188142559D01*
X356569047Y-188237797D01*
X354616666Y-187571130D02*
X354616666Y-188285416D01*
X354664285Y-188428273D01*
X354759523Y-188523511D01*
X354902380Y-188571130D01*
X354997619Y-188571130D01*
X354140476Y-188571130D02*
X354140476Y-187904464D01*
X354140476Y-187571130D02*
X354188095Y-187618750D01*
X354140476Y-187666369D01*
X354092857Y-187618750D01*
X354140476Y-187571130D01*
X354140476Y-187666369D01*
X353664285Y-187904464D02*
X353664285Y-188571130D01*
X353664285Y-187999702D02*
X353616666Y-187952083D01*
X353521428Y-187904464D01*
X353378571Y-187904464D01*
X353283333Y-187952083D01*
X353235714Y-188047321D01*
X353235714Y-188571130D01*
D11*
%TO.C,DS1*%
X358616250Y-131250000D03*
D12*
X356076250Y-131250000D03*
X353536250Y-131250000D03*
X350996250Y-131250000D03*
%TD*%
D13*
%TO.C,D1*%
X69056250Y-99853750D03*
D14*
X69056250Y-104933750D03*
%TD*%
D13*
%TO.C,D2*%
X88106250Y-99853750D03*
D14*
X88106250Y-104933750D03*
%TD*%
D13*
%TO.C,D3*%
X107156250Y-99853750D03*
D14*
X107156250Y-104933750D03*
%TD*%
D13*
%TO.C,D4*%
X126206250Y-99853750D03*
D14*
X126206250Y-104933750D03*
%TD*%
D13*
%TO.C,D5*%
X145256250Y-99853750D03*
D14*
X145256250Y-104933750D03*
%TD*%
D13*
%TO.C,D6*%
X164306250Y-99853750D03*
D14*
X164306250Y-104933750D03*
%TD*%
D13*
%TO.C,D7*%
X183356250Y-99853750D03*
D14*
X183356250Y-104933750D03*
%TD*%
D13*
%TO.C,D8*%
X202406250Y-99853750D03*
D14*
X202406250Y-104933750D03*
%TD*%
D13*
%TO.C,D9*%
X221456250Y-99853750D03*
D14*
X221456250Y-104933750D03*
%TD*%
D13*
%TO.C,D10*%
X240506250Y-99853750D03*
D14*
X240506250Y-104933750D03*
%TD*%
D13*
%TO.C,D11*%
X259556250Y-99853750D03*
D14*
X259556250Y-104933750D03*
%TD*%
D13*
%TO.C,D12*%
X278606250Y-99853750D03*
D14*
X278606250Y-104933750D03*
%TD*%
D13*
%TO.C,D13*%
X297656250Y-99853750D03*
D14*
X297656250Y-104933750D03*
%TD*%
D13*
%TO.C,D14*%
X333375000Y-99853750D03*
D14*
X333375000Y-104933750D03*
%TD*%
D13*
%TO.C,D16*%
X52387500Y-116522500D03*
D14*
X52387500Y-121602500D03*
%TD*%
D13*
%TO.C,D17*%
X78581250Y-116522500D03*
D14*
X78581250Y-121602500D03*
%TD*%
D13*
%TO.C,D18*%
X97631250Y-116522500D03*
D14*
X97631250Y-121602500D03*
%TD*%
D13*
%TO.C,D19*%
X116681250Y-116522500D03*
D14*
X116681250Y-121602500D03*
%TD*%
D13*
%TO.C,D20*%
X135731250Y-116522500D03*
D14*
X135731250Y-121602500D03*
%TD*%
D13*
%TO.C,D21*%
X154781250Y-116522500D03*
D14*
X154781250Y-121602500D03*
%TD*%
D13*
%TO.C,D22*%
X173831250Y-116522500D03*
D14*
X173831250Y-121602500D03*
%TD*%
D13*
%TO.C,D23*%
X192881250Y-116522500D03*
D14*
X192881250Y-121602500D03*
%TD*%
D13*
%TO.C,D24*%
X211931250Y-116522500D03*
D14*
X211931250Y-121602500D03*
%TD*%
D13*
%TO.C,D25*%
X230981250Y-116522500D03*
D14*
X230981250Y-121602500D03*
%TD*%
D13*
%TO.C,D26*%
X250031250Y-116522500D03*
D14*
X250031250Y-121602500D03*
%TD*%
D13*
%TO.C,D27*%
X269081250Y-116522500D03*
D14*
X269081250Y-121602500D03*
%TD*%
D13*
%TO.C,D28*%
X288131250Y-116522500D03*
D14*
X288131250Y-121602500D03*
%TD*%
D13*
%TO.C,D29*%
X309562500Y-116522500D03*
D14*
X309562500Y-121602500D03*
%TD*%
D13*
%TO.C,D30*%
X335756250Y-137953750D03*
D14*
X335756250Y-143033750D03*
%TD*%
D13*
%TO.C,D31*%
X52387500Y-135572500D03*
D14*
X52387500Y-140652500D03*
%TD*%
D13*
%TO.C,D32*%
X83343750Y-135572500D03*
D14*
X83343750Y-140652500D03*
%TD*%
D13*
%TO.C,D33*%
X102393750Y-135572500D03*
D14*
X102393750Y-140652500D03*
%TD*%
D13*
%TO.C,D34*%
X121443750Y-135572500D03*
D14*
X121443750Y-140652500D03*
%TD*%
D13*
%TO.C,D35*%
X140493750Y-135572500D03*
D14*
X140493750Y-140652500D03*
%TD*%
D13*
%TO.C,D36*%
X159543750Y-135572500D03*
D14*
X159543750Y-140652500D03*
%TD*%
D13*
%TO.C,D37*%
X178593750Y-135572500D03*
D14*
X178593750Y-140652500D03*
%TD*%
D13*
%TO.C,D38*%
X197643750Y-135572500D03*
D14*
X197643750Y-140652500D03*
%TD*%
D13*
%TO.C,D39*%
X216693750Y-135572500D03*
D14*
X216693750Y-140652500D03*
%TD*%
D13*
%TO.C,D40*%
X235743750Y-135572500D03*
D14*
X235743750Y-140652500D03*
%TD*%
D13*
%TO.C,D41*%
X254793750Y-135572500D03*
D14*
X254793750Y-140652500D03*
%TD*%
D13*
%TO.C,D42*%
X273843750Y-135572500D03*
D14*
X273843750Y-140652500D03*
%TD*%
D13*
%TO.C,D44*%
X292893750Y-135572500D03*
D14*
X292893750Y-140652500D03*
%TD*%
D13*
%TO.C,D45*%
X335756250Y-154622500D03*
D14*
X335756250Y-159702500D03*
%TD*%
D13*
%TO.C,D46*%
X52387500Y-154622500D03*
D14*
X52387500Y-159702500D03*
%TD*%
D13*
%TO.C,D48*%
X92868750Y-154622500D03*
D14*
X92868750Y-159702500D03*
%TD*%
D13*
%TO.C,D49*%
X111918750Y-154622500D03*
D14*
X111918750Y-159702500D03*
%TD*%
D13*
%TO.C,D50*%
X130968750Y-154622500D03*
D14*
X130968750Y-159702500D03*
%TD*%
D13*
%TO.C,D51*%
X150018750Y-154622500D03*
D14*
X150018750Y-159702500D03*
%TD*%
D13*
%TO.C,D52*%
X169068750Y-154622500D03*
D14*
X169068750Y-159702500D03*
%TD*%
D13*
%TO.C,D53*%
X188118750Y-154622500D03*
D14*
X188118750Y-159702500D03*
%TD*%
D13*
%TO.C,D54*%
X207168750Y-154622500D03*
D14*
X207168750Y-159702500D03*
%TD*%
D13*
%TO.C,D55*%
X226218750Y-154622500D03*
D14*
X226218750Y-159702500D03*
%TD*%
D13*
%TO.C,D57*%
X264318750Y-154622500D03*
D14*
X264318750Y-159702500D03*
%TD*%
D13*
%TO.C,D58*%
X283368750Y-154622500D03*
D14*
X283368750Y-159702500D03*
%TD*%
D13*
%TO.C,D60*%
X354806250Y-154622500D03*
D14*
X354806250Y-159702500D03*
%TD*%
D13*
%TO.C,D61*%
X52387500Y-173672500D03*
D14*
X52387500Y-178752500D03*
%TD*%
D13*
%TO.C,D62*%
X76200000Y-173672500D03*
D14*
X76200000Y-178752500D03*
%TD*%
D13*
%TO.C,D63*%
X97631250Y-173672500D03*
D14*
X97631250Y-178752500D03*
%TD*%
D13*
%TO.C,D66*%
X164306250Y-176053750D03*
D14*
X164306250Y-181133750D03*
%TD*%
D13*
%TO.C,D68*%
X240506250Y-173672500D03*
D14*
X240506250Y-178752500D03*
%TD*%
D13*
%TO.C,D69*%
X259556250Y-173672500D03*
D14*
X259556250Y-178752500D03*
%TD*%
D13*
%TO.C,D70*%
X278606250Y-173672500D03*
D14*
X278606250Y-178752500D03*
%TD*%
D13*
%TO.C,D71*%
X297656250Y-176053750D03*
D14*
X297656250Y-181133750D03*
%TD*%
D13*
%TO.C,D72*%
X316706250Y-173672500D03*
D14*
X316706250Y-178752500D03*
%TD*%
D13*
%TO.C,D74*%
X354806250Y-173672500D03*
D14*
X354806250Y-178752500D03*
%TD*%
D13*
%TO.C,D15*%
X354806250Y-137953750D03*
D14*
X354806250Y-143033750D03*
%TD*%
D15*
%TO.C,MX1*%
X59531250Y-104775000D03*
D16*
X54451250Y-104775000D03*
X64611250Y-104775000D03*
D17*
X62071250Y-99695000D03*
X55721250Y-102235000D03*
D18*
X52446250Y-102235000D03*
X65373250Y-99695000D03*
%TD*%
D15*
%TO.C,MX2*%
X78581250Y-104775000D03*
D16*
X73501250Y-104775000D03*
X83661250Y-104775000D03*
D17*
X81121250Y-99695000D03*
X74771250Y-102235000D03*
D18*
X71496250Y-102235000D03*
X84423250Y-99695000D03*
%TD*%
D16*
%TO.C,MX3*%
X92551250Y-104775000D03*
D15*
X97631250Y-104775000D03*
D17*
X100171250Y-99695000D03*
X93821250Y-102235000D03*
D16*
X102711250Y-104775000D03*
D18*
X90546250Y-102235000D03*
X103473250Y-99695000D03*
%TD*%
D16*
%TO.C,MX4*%
X111601250Y-104775000D03*
D17*
X112871250Y-102235000D03*
D15*
X116681250Y-104775000D03*
D16*
X121761250Y-104775000D03*
D17*
X119221250Y-99695000D03*
D18*
X109596250Y-102235000D03*
X122523250Y-99695000D03*
%TD*%
D16*
%TO.C,MX5*%
X140811250Y-104775000D03*
X130651250Y-104775000D03*
D15*
X135731250Y-104775000D03*
D17*
X138271250Y-99695000D03*
X131921250Y-102235000D03*
D18*
X128646250Y-102235000D03*
X141573250Y-99695000D03*
%TD*%
D16*
%TO.C,MX6*%
X149701250Y-104775000D03*
D17*
X157321250Y-99695000D03*
D15*
X154781250Y-104775000D03*
D17*
X150971250Y-102235000D03*
D16*
X159861250Y-104775000D03*
D18*
X147696250Y-102235000D03*
X160623250Y-99695000D03*
%TD*%
D17*
%TO.C,MX7*%
X170021250Y-102235000D03*
X176371250Y-99695000D03*
D16*
X178911250Y-104775000D03*
D15*
X173831250Y-104775000D03*
D16*
X168751250Y-104775000D03*
D18*
X166746250Y-102235000D03*
X179673250Y-99695000D03*
%TD*%
D17*
%TO.C,MX8*%
X195421250Y-99695000D03*
D16*
X187801250Y-104775000D03*
D17*
X189071250Y-102235000D03*
D16*
X197961250Y-104775000D03*
D15*
X192881250Y-104775000D03*
D18*
X185796250Y-102235000D03*
X198723250Y-99695000D03*
%TD*%
D15*
%TO.C,MX9*%
X211931250Y-104775000D03*
D17*
X208121250Y-102235000D03*
D16*
X206851250Y-104775000D03*
D17*
X214471250Y-99695000D03*
D16*
X217011250Y-104775000D03*
D18*
X204846250Y-102235000D03*
X217773250Y-99695000D03*
%TD*%
D17*
%TO.C,MX10*%
X233521250Y-99695000D03*
D16*
X236061250Y-104775000D03*
D17*
X227171250Y-102235000D03*
D16*
X225901250Y-104775000D03*
D15*
X230981250Y-104775000D03*
D18*
X223896250Y-102235000D03*
X236823250Y-99695000D03*
%TD*%
D17*
%TO.C,MX11*%
X252571250Y-99695000D03*
D16*
X255111250Y-104775000D03*
D17*
X246221250Y-102235000D03*
D16*
X244951250Y-104775000D03*
D15*
X250031250Y-104775000D03*
D18*
X242946250Y-102235000D03*
X255873250Y-99695000D03*
%TD*%
D16*
%TO.C,MX12*%
X274161250Y-104775000D03*
D15*
X269081250Y-104775000D03*
D17*
X271621250Y-99695000D03*
X265271250Y-102235000D03*
D16*
X264001250Y-104775000D03*
D18*
X261996250Y-102235000D03*
X274923250Y-99695000D03*
%TD*%
D17*
%TO.C,MX13*%
X284321250Y-102235000D03*
X290671250Y-99695000D03*
D16*
X293211250Y-104775000D03*
D15*
X288131250Y-104775000D03*
D16*
X283051250Y-104775000D03*
D18*
X281046250Y-102235000D03*
X293973250Y-99695000D03*
%TD*%
D15*
%TO.C,MX14*%
X316706250Y-104775000D03*
D19*
X328606250Y-113015000D03*
D16*
X321786250Y-104775000D03*
D17*
X319246250Y-99695000D03*
D16*
X311626250Y-104775000D03*
D19*
X304806250Y-113015000D03*
D17*
X312896250Y-102235000D03*
D20*
X304806250Y-97775000D03*
X328606250Y-97775000D03*
D18*
X309621250Y-102235000D03*
X322548250Y-99695000D03*
%TD*%
D15*
%TO.C,MX16*%
X64293750Y-123825000D03*
D17*
X66833750Y-118745000D03*
D16*
X59213750Y-123825000D03*
X69373750Y-123825000D03*
D17*
X60483750Y-121285000D03*
D18*
X70135750Y-118745000D03*
X57208750Y-121285000D03*
%TD*%
D17*
%TO.C,MX17*%
X84296250Y-121285000D03*
D16*
X93186250Y-123825000D03*
D17*
X90646250Y-118745000D03*
D15*
X88106250Y-123825000D03*
D16*
X83026250Y-123825000D03*
D18*
X93948250Y-118745000D03*
X81021250Y-121285000D03*
%TD*%
D16*
%TO.C,MX18*%
X102076250Y-123825000D03*
D17*
X103346250Y-121285000D03*
D15*
X107156250Y-123825000D03*
D17*
X109696250Y-118745000D03*
D16*
X112236250Y-123825000D03*
D18*
X112998250Y-118745000D03*
X100071250Y-121285000D03*
%TD*%
D15*
%TO.C,MX19*%
X126206250Y-123825000D03*
D16*
X121126250Y-123825000D03*
X131286250Y-123825000D03*
D17*
X122396250Y-121285000D03*
X128746250Y-118745000D03*
D18*
X132048250Y-118745000D03*
X119121250Y-121285000D03*
%TD*%
D17*
%TO.C,MX20*%
X147796250Y-118745000D03*
X141446250Y-121285000D03*
D16*
X140176250Y-123825000D03*
X150336250Y-123825000D03*
D15*
X145256250Y-123825000D03*
D18*
X151098250Y-118745000D03*
X138171250Y-121285000D03*
%TD*%
D15*
%TO.C,MX21*%
X164306250Y-123825000D03*
D16*
X159226250Y-123825000D03*
D17*
X166846250Y-118745000D03*
D16*
X169386250Y-123825000D03*
D17*
X160496250Y-121285000D03*
D18*
X170148250Y-118745000D03*
X157221250Y-121285000D03*
%TD*%
D16*
%TO.C,MX22*%
X178276250Y-123825000D03*
D17*
X179546250Y-121285000D03*
X185896250Y-118745000D03*
D15*
X183356250Y-123825000D03*
D16*
X188436250Y-123825000D03*
D18*
X189198250Y-118745000D03*
X176271250Y-121285000D03*
%TD*%
D15*
%TO.C,MX23*%
X202406250Y-123825000D03*
D17*
X198596250Y-121285000D03*
D16*
X207486250Y-123825000D03*
X197326250Y-123825000D03*
D17*
X204946250Y-118745000D03*
D18*
X208248250Y-118745000D03*
X195321250Y-121285000D03*
%TD*%
D16*
%TO.C,MX24*%
X226536250Y-123825000D03*
D15*
X221456250Y-123825000D03*
D16*
X216376250Y-123825000D03*
D17*
X217646250Y-121285000D03*
X223996250Y-118745000D03*
D18*
X227298250Y-118745000D03*
X214371250Y-121285000D03*
%TD*%
D17*
%TO.C,MX25*%
X243046250Y-118745000D03*
X236696250Y-121285000D03*
D16*
X245586250Y-123825000D03*
X235426250Y-123825000D03*
D15*
X240506250Y-123825000D03*
D18*
X246348250Y-118745000D03*
X233421250Y-121285000D03*
%TD*%
D16*
%TO.C,MX26*%
X254476250Y-123825000D03*
D17*
X262096250Y-118745000D03*
D16*
X264636250Y-123825000D03*
D15*
X259556250Y-123825000D03*
D17*
X255746250Y-121285000D03*
D18*
X265398250Y-118745000D03*
X252471250Y-121285000D03*
%TD*%
D16*
%TO.C,MX27*%
X273526250Y-123825000D03*
D17*
X281146250Y-118745000D03*
D16*
X283686250Y-123825000D03*
D17*
X274796250Y-121285000D03*
D15*
X278606250Y-123825000D03*
D18*
X284448250Y-118745000D03*
X271521250Y-121285000D03*
%TD*%
D16*
%TO.C,MX28*%
X292576250Y-123825000D03*
D15*
X297656250Y-123825000D03*
D17*
X300196250Y-118745000D03*
X293846250Y-121285000D03*
D16*
X302736250Y-123825000D03*
D18*
X303498250Y-118745000D03*
X290571250Y-121285000D03*
%TD*%
D17*
%TO.C,MX29*%
X324008750Y-120015000D03*
D15*
X321468750Y-123825000D03*
D16*
X321468750Y-128905000D03*
X321468750Y-118745000D03*
D17*
X326548750Y-126365000D03*
D21*
X326548750Y-129667000D03*
X324008750Y-116740000D03*
%TD*%
D16*
%TO.C,MX30*%
X340201250Y-142875000D03*
X350361250Y-142875000D03*
D15*
X345281250Y-142875000D03*
D17*
X347821250Y-137795000D03*
X341471250Y-140335000D03*
D18*
X351123250Y-137795000D03*
X338196250Y-140335000D03*
%TD*%
D16*
%TO.C,MX31*%
X61595000Y-142875000D03*
D17*
X70485000Y-145415000D03*
X64135000Y-147955000D03*
D16*
X71755000Y-142875000D03*
D15*
X66675000Y-142875000D03*
D18*
X73760000Y-145415000D03*
X60833000Y-147955000D03*
%TD*%
D15*
%TO.C,MX32*%
X92868750Y-142875000D03*
D16*
X87788750Y-142875000D03*
D17*
X95408750Y-137795000D03*
D16*
X97948750Y-142875000D03*
D17*
X89058750Y-140335000D03*
D18*
X98710750Y-137795000D03*
X85783750Y-140335000D03*
%TD*%
D17*
%TO.C,MX33*%
X108108750Y-140335000D03*
X114458750Y-137795000D03*
D16*
X106838750Y-142875000D03*
D15*
X111918750Y-142875000D03*
D16*
X116998750Y-142875000D03*
D18*
X117760750Y-137795000D03*
X104833750Y-140335000D03*
%TD*%
D15*
%TO.C,MX34*%
X130968750Y-142875000D03*
D17*
X127158750Y-140335000D03*
D16*
X136048750Y-142875000D03*
X125888750Y-142875000D03*
D17*
X133508750Y-137795000D03*
D18*
X136810750Y-137795000D03*
X123883750Y-140335000D03*
%TD*%
D16*
%TO.C,MX35*%
X155098750Y-142875000D03*
D17*
X152558750Y-137795000D03*
X146208750Y-140335000D03*
D16*
X144938750Y-142875000D03*
D15*
X150018750Y-142875000D03*
D18*
X155860750Y-137795000D03*
X142933750Y-140335000D03*
%TD*%
D15*
%TO.C,MX36*%
X169068750Y-142875000D03*
D17*
X165258750Y-140335000D03*
X171608750Y-137795000D03*
D16*
X174148750Y-142875000D03*
X163988750Y-142875000D03*
D18*
X174910750Y-137795000D03*
X161983750Y-140335000D03*
%TD*%
D17*
%TO.C,MX37*%
X184308750Y-140335000D03*
D15*
X188118750Y-142875000D03*
D17*
X190658750Y-137795000D03*
D16*
X183038750Y-142875000D03*
X193198750Y-142875000D03*
D18*
X193960750Y-137795000D03*
X181033750Y-140335000D03*
%TD*%
D17*
%TO.C,MX38*%
X203358750Y-140335000D03*
D16*
X202088750Y-142875000D03*
D17*
X209708750Y-137795000D03*
D16*
X212248750Y-142875000D03*
D15*
X207168750Y-142875000D03*
D18*
X213010750Y-137795000D03*
X200083750Y-140335000D03*
%TD*%
D15*
%TO.C,MX39*%
X226218750Y-142875000D03*
D17*
X228758750Y-137795000D03*
D16*
X221138750Y-142875000D03*
X231298750Y-142875000D03*
D17*
X222408750Y-140335000D03*
D18*
X232060750Y-137795000D03*
X219133750Y-140335000D03*
%TD*%
D16*
%TO.C,MX40*%
X250348750Y-142875000D03*
D17*
X241458750Y-140335000D03*
D15*
X245268750Y-142875000D03*
D17*
X247808750Y-137795000D03*
D16*
X240188750Y-142875000D03*
D18*
X251110750Y-137795000D03*
X238183750Y-140335000D03*
%TD*%
D16*
%TO.C,MX41*%
X269398750Y-142875000D03*
D17*
X266858750Y-137795000D03*
D15*
X264318750Y-142875000D03*
D17*
X260508750Y-140335000D03*
D16*
X259238750Y-142875000D03*
D18*
X270160750Y-137795000D03*
X257233750Y-140335000D03*
%TD*%
D16*
%TO.C,MX42*%
X278288750Y-142875000D03*
X288448750Y-142875000D03*
D17*
X279558750Y-140335000D03*
X285908750Y-137795000D03*
D15*
X283368750Y-142875000D03*
D18*
X289210750Y-137795000D03*
X276283750Y-140335000D03*
%TD*%
D16*
%TO.C,MX44*%
X314325000Y-137795000D03*
D19*
X326225000Y-134635000D03*
D16*
X314325000Y-147955000D03*
D19*
X302425000Y-134635000D03*
D20*
X326225000Y-149875000D03*
D17*
X311785000Y-146685000D03*
D20*
X302425000Y-149875000D03*
D17*
X309245000Y-140335000D03*
D15*
X314325000Y-142875000D03*
D21*
X311785000Y-149960000D03*
X309245000Y-137033000D03*
%TD*%
D15*
%TO.C,MX45*%
X345281250Y-161925000D03*
D17*
X347821250Y-156845000D03*
X341471250Y-159385000D03*
D16*
X340201250Y-161925000D03*
X350361250Y-161925000D03*
D18*
X351123250Y-156845000D03*
X338196250Y-159385000D03*
%TD*%
D17*
%TO.C,MX46*%
X73977500Y-156845000D03*
D20*
X59537500Y-154925000D03*
D17*
X67627500Y-159385000D03*
D15*
X71437500Y-161925000D03*
D16*
X66357500Y-161925000D03*
D19*
X83337500Y-170165000D03*
D16*
X76517500Y-161925000D03*
D20*
X83337500Y-154925000D03*
D19*
X59537500Y-170165000D03*
D18*
X77279500Y-156845000D03*
X64352500Y-159385000D03*
%TD*%
D15*
%TO.C,MX48*%
X102393750Y-161925000D03*
D17*
X104933750Y-156845000D03*
D16*
X107473750Y-161925000D03*
X97313750Y-161925000D03*
D17*
X98583750Y-159385000D03*
D18*
X108235750Y-156845000D03*
X95308750Y-159385000D03*
%TD*%
D16*
%TO.C,MX49*%
X126523750Y-161925000D03*
D17*
X117633750Y-159385000D03*
D16*
X116363750Y-161925000D03*
D17*
X123983750Y-156845000D03*
D15*
X121443750Y-161925000D03*
D18*
X127285750Y-156845000D03*
X114358750Y-159385000D03*
%TD*%
D16*
%TO.C,MX50*%
X145573750Y-161925000D03*
D17*
X143033750Y-156845000D03*
D16*
X135413750Y-161925000D03*
D15*
X140493750Y-161925000D03*
D17*
X136683750Y-159385000D03*
D18*
X146335750Y-156845000D03*
X133408750Y-159385000D03*
%TD*%
D17*
%TO.C,MX51*%
X155733750Y-159385000D03*
D16*
X154463750Y-161925000D03*
D17*
X162083750Y-156845000D03*
D15*
X159543750Y-161925000D03*
D16*
X164623750Y-161925000D03*
D18*
X165385750Y-156845000D03*
X152458750Y-159385000D03*
%TD*%
D17*
%TO.C,MX52*%
X174783750Y-159385000D03*
D15*
X178593750Y-161925000D03*
D16*
X173513750Y-161925000D03*
D17*
X181133750Y-156845000D03*
D16*
X183673750Y-161925000D03*
D18*
X184435750Y-156845000D03*
X171508750Y-159385000D03*
%TD*%
D16*
%TO.C,MX53*%
X192563750Y-161925000D03*
D17*
X200183750Y-156845000D03*
D15*
X197643750Y-161925000D03*
D17*
X193833750Y-159385000D03*
D16*
X202723750Y-161925000D03*
D18*
X203485750Y-156845000D03*
X190558750Y-159385000D03*
%TD*%
D16*
%TO.C,MX54*%
X221773750Y-161925000D03*
D17*
X219233750Y-156845000D03*
D16*
X211613750Y-161925000D03*
D17*
X212883750Y-159385000D03*
D15*
X216693750Y-161925000D03*
D18*
X222535750Y-156845000D03*
X209608750Y-159385000D03*
%TD*%
D15*
%TO.C,MX55*%
X235743750Y-161925000D03*
D17*
X231933750Y-159385000D03*
D16*
X240823750Y-161925000D03*
D17*
X238283750Y-156845000D03*
D16*
X230663750Y-161925000D03*
D18*
X241585750Y-156845000D03*
X228658750Y-159385000D03*
%TD*%
D17*
%TO.C,MX56*%
X257333750Y-156845000D03*
D15*
X254793750Y-161925000D03*
D17*
X250983750Y-159385000D03*
D16*
X249713750Y-161925000D03*
X259873750Y-161925000D03*
D18*
X260635750Y-156845000D03*
X247708750Y-159385000D03*
%TD*%
D16*
%TO.C,MX57*%
X278923750Y-161925000D03*
D15*
X273843750Y-161925000D03*
D16*
X268763750Y-161925000D03*
D17*
X270033750Y-159385000D03*
X276383750Y-156845000D03*
D18*
X279685750Y-156845000D03*
X266758750Y-159385000D03*
%TD*%
D16*
%TO.C,MX58*%
X314642500Y-161925000D03*
X304482500Y-161925000D03*
D17*
X305752500Y-159385000D03*
D19*
X321462500Y-170165000D03*
X297662500Y-170165000D03*
D20*
X321462500Y-154925000D03*
D17*
X312102500Y-156845000D03*
D15*
X309562500Y-161925000D03*
D20*
X297662500Y-154925000D03*
D18*
X315404500Y-156845000D03*
X302477500Y-159385000D03*
%TD*%
D16*
%TO.C,MX60*%
X369411250Y-161925000D03*
D15*
X364331250Y-161925000D03*
D17*
X360521250Y-159385000D03*
D16*
X359251250Y-161925000D03*
D17*
X366871250Y-156845000D03*
D18*
X370173250Y-156845000D03*
X357246250Y-159385000D03*
%TD*%
D17*
%TO.C,MX61*%
X58102500Y-178435000D03*
D16*
X66992500Y-180975000D03*
D15*
X61912500Y-180975000D03*
D16*
X56832500Y-180975000D03*
D17*
X64452500Y-175895000D03*
D18*
X67754500Y-175895000D03*
X54827500Y-178435000D03*
%TD*%
D17*
%TO.C,MX62*%
X81915000Y-178435000D03*
D16*
X90805000Y-180975000D03*
X80645000Y-180975000D03*
D15*
X85725000Y-180975000D03*
D17*
X88265000Y-175895000D03*
D18*
X91567000Y-175895000D03*
X78640000Y-178435000D03*
%TD*%
D16*
%TO.C,MX63*%
X104457500Y-180975000D03*
D17*
X112077500Y-175895000D03*
X105727500Y-178435000D03*
D15*
X109537500Y-180975000D03*
D16*
X114617500Y-180975000D03*
D18*
X115379500Y-175895000D03*
X102452500Y-178435000D03*
%TD*%
D17*
%TO.C,MX68*%
X246221250Y-178435000D03*
D16*
X244951250Y-180975000D03*
D15*
X250031250Y-180975000D03*
D16*
X255111250Y-180975000D03*
D17*
X252571250Y-175895000D03*
D18*
X255873250Y-175895000D03*
X242946250Y-178435000D03*
%TD*%
D16*
%TO.C,MX69*%
X274161250Y-180975000D03*
D15*
X269081250Y-180975000D03*
D17*
X265271250Y-178435000D03*
D16*
X264001250Y-180975000D03*
D17*
X271621250Y-175895000D03*
D18*
X274923250Y-175895000D03*
X261996250Y-178435000D03*
%TD*%
D17*
%TO.C,MX70*%
X290671250Y-175895000D03*
X284321250Y-178435000D03*
D16*
X283051250Y-180975000D03*
X293211250Y-180975000D03*
D15*
X288131250Y-180975000D03*
D18*
X293973250Y-175895000D03*
X281046250Y-178435000D03*
%TD*%
D16*
%TO.C,MX71*%
X312261250Y-180975000D03*
D17*
X309721250Y-175895000D03*
D16*
X302101250Y-180975000D03*
D17*
X303371250Y-178435000D03*
D15*
X307181250Y-180975000D03*
D18*
X313023250Y-175895000D03*
X300096250Y-178435000D03*
%TD*%
D16*
%TO.C,MX72*%
X331311250Y-180975000D03*
D15*
X326231250Y-180975000D03*
D16*
X321151250Y-180975000D03*
D17*
X322421250Y-178435000D03*
X328771250Y-175895000D03*
D18*
X332073250Y-175895000D03*
X319146250Y-178435000D03*
%TD*%
D15*
%TO.C,MX73*%
X345281250Y-180975000D03*
D16*
X350361250Y-180975000D03*
X340201250Y-180975000D03*
D17*
X347821250Y-175895000D03*
X341471250Y-178435000D03*
D18*
X351123250Y-175895000D03*
X338196250Y-178435000D03*
%TD*%
D17*
%TO.C,MX74*%
X360521250Y-178435000D03*
X366871250Y-175895000D03*
D16*
X359251250Y-180975000D03*
X369411250Y-180975000D03*
D15*
X364331250Y-180975000D03*
D18*
X370173250Y-175895000D03*
X357246250Y-178435000D03*
%TD*%
D11*
%TO.C,U1*%
X347186250Y-99130000D03*
D12*
X347186250Y-101670000D03*
X347186250Y-104210000D03*
X347186250Y-106750000D03*
X347186250Y-109290000D03*
X347186250Y-111830000D03*
X347186250Y-114370000D03*
X347186250Y-116910000D03*
X347186250Y-119450000D03*
X347186250Y-121990000D03*
X347186250Y-124530000D03*
X347186250Y-127070000D03*
X362426250Y-127070000D03*
X362426250Y-124530000D03*
X362426250Y-121990000D03*
X362426250Y-119450000D03*
X362426250Y-116910000D03*
X362426250Y-114370000D03*
X362426250Y-111830000D03*
X362426250Y-109290000D03*
X362426250Y-106750000D03*
X362426250Y-104210000D03*
X362426250Y-101670000D03*
X362426250Y-99130000D03*
X349726250Y-127070000D03*
X352266250Y-127070000D03*
X354806250Y-127070000D03*
X357346250Y-127070000D03*
X359886250Y-127070000D03*
%TD*%
D13*
%TO.C,D56*%
X245268750Y-154622500D03*
D14*
X245268750Y-159702500D03*
%TD*%
D22*
%TO.C,SW1*%
X358731250Y-143475000D03*
X369931250Y-143475000D03*
D23*
X366831250Y-135975000D03*
D24*
X361831250Y-135975000D03*
X364331250Y-135975000D03*
X361831250Y-150475000D03*
X366831250Y-150475000D03*
%TD*%
D17*
%TO.C,MX66*%
X178435000Y-186055000D03*
D19*
X230974900Y-172720000D03*
D16*
X186055000Y-180975000D03*
D15*
X180975000Y-180975000D03*
D16*
X175895000Y-180975000D03*
D20*
X230974900Y-187960000D03*
X130975100Y-187960000D03*
D17*
X184785000Y-183515000D03*
D19*
X130975100Y-172720000D03*
D18*
X188060000Y-183515000D03*
X175133000Y-186055000D03*
%TD*%
D15*
%TO.C,MX65*%
X176212500Y-180975000D03*
D16*
X171132500Y-180975000D03*
D17*
X178752500Y-175895000D03*
D16*
X181292500Y-180975000D03*
D17*
X172402500Y-178435000D03*
D18*
X182054500Y-175895000D03*
X169127500Y-178435000D03*
%TD*%
D13*
%TO.C,D73*%
X335756250Y-173672500D03*
D14*
X335756250Y-178752500D03*
%TD*%
D13*
%TO.C,D43*%
X292893750Y-145097500D03*
D14*
X292893750Y-150177500D03*
%TD*%
D15*
%TO.C,MX15*%
X364331250Y-142875000D03*
D25*
X359251250Y-142875000D03*
D17*
X366871250Y-137795000D03*
D25*
X369411250Y-142875000D03*
D17*
X360521250Y-140335000D03*
D18*
X370173250Y-137795000D03*
X357246250Y-140335000D03*
%TD*%
D13*
%TO.C,D59*%
X335756250Y-164147500D03*
D14*
X335756250Y-169227500D03*
%TD*%
D13*
%TO.C,D67*%
X195262500Y-176053750D03*
D14*
X195262500Y-181133750D03*
%TD*%
D16*
%TO.C,MX77*%
X66992500Y-161925000D03*
D17*
X59372500Y-167005000D03*
X65722500Y-164465000D03*
D15*
X61912500Y-161925000D03*
D16*
X56832500Y-161925000D03*
D18*
X68997500Y-164465000D03*
X56070500Y-167005000D03*
%TD*%
D17*
%TO.C,MX76*%
X318770000Y-130810000D03*
D16*
X323850000Y-138430000D03*
D17*
X321310000Y-137160000D03*
D19*
X315595000Y-121412000D03*
D15*
X323850000Y-133350000D03*
D16*
X323850000Y-128270000D03*
D19*
X315595000Y-145288000D03*
D20*
X330835000Y-145288000D03*
X330835000Y-121412000D03*
D21*
X321310000Y-140435000D03*
X318770000Y-127508000D03*
%TD*%
D16*
%TO.C,MX75*%
X66992500Y-142875000D03*
X56832500Y-142875000D03*
D17*
X64452500Y-137795000D03*
X58102500Y-140335000D03*
D15*
X61912500Y-142875000D03*
D18*
X67754500Y-137795000D03*
X54827500Y-140335000D03*
%TD*%
D15*
%TO.C,MX43*%
X302418750Y-142875000D03*
D16*
X302418750Y-147955000D03*
D17*
X299878750Y-146685000D03*
D16*
X302418750Y-137795000D03*
D17*
X297338750Y-140335000D03*
D21*
X297338750Y-137033000D03*
X299878750Y-149960000D03*
%TD*%
D17*
%TO.C,MX64*%
X145415000Y-175895000D03*
D16*
X137795000Y-180975000D03*
X147955000Y-180975000D03*
D19*
X130975000Y-172735000D03*
D17*
X139065000Y-178435000D03*
D20*
X154775000Y-187975000D03*
D19*
X154775000Y-172735000D03*
D20*
X130975000Y-187975000D03*
D15*
X142875000Y-180975000D03*
D18*
X148717000Y-175895000D03*
X135790000Y-178435000D03*
%TD*%
D16*
%TO.C,MX47*%
X88423750Y-161925000D03*
X78263750Y-161925000D03*
D15*
X83343750Y-161925000D03*
D17*
X87153750Y-164465000D03*
X80803750Y-167005000D03*
D18*
X90428750Y-164465000D03*
X77501750Y-167005000D03*
%TD*%
D17*
%TO.C,MX78*%
X303847500Y-164465000D03*
D16*
X294957500Y-161925000D03*
D15*
X300037500Y-161925000D03*
D17*
X297497500Y-167005000D03*
D16*
X305117500Y-161925000D03*
D18*
X307122500Y-164465000D03*
X294195500Y-167005000D03*
%TD*%
D13*
%TO.C,D47*%
X92868750Y-164147500D03*
D14*
X92868750Y-169227500D03*
%TD*%
D13*
%TO.C,D64*%
X121443750Y-173672500D03*
D14*
X121443750Y-178752500D03*
%TD*%
D19*
%TO.C,MX67*%
X226212500Y-172735000D03*
D20*
X202412500Y-187975000D03*
X226212500Y-187975000D03*
D16*
X219392500Y-180975000D03*
D17*
X216852500Y-175895000D03*
D16*
X209232500Y-180975000D03*
D17*
X210502500Y-178435000D03*
D15*
X214312500Y-180975000D03*
D19*
X202412500Y-172735000D03*
D18*
X220154500Y-175895000D03*
X207227500Y-178435000D03*
%TD*%
D13*
%TO.C,D65*%
X160200000Y-176053750D03*
D14*
X160200000Y-181133750D03*
%TD*%
D16*
%TO.C,MX59*%
X331311250Y-161925000D03*
X321151250Y-161925000D03*
D17*
X323691250Y-167005000D03*
X330041250Y-164465000D03*
D15*
X326231250Y-161925000D03*
D18*
X320389250Y-167005000D03*
X333316250Y-164465000D03*
%TD*%
D26*
X358800000Y-137900000D03*
X190500000Y-185737500D03*
X164306250Y-185737500D03*
X219075000Y-185737500D03*
X221456250Y-130968750D03*
X290512500Y-114300000D03*
X273843750Y-166687500D03*
X250031250Y-185737500D03*
X235743750Y-166687500D03*
X140493750Y-166687500D03*
X345281250Y-169068750D03*
X233362500Y-114300000D03*
X250031250Y-100012500D03*
X159543750Y-166687500D03*
X296700000Y-145100000D03*
X164306250Y-130968750D03*
X119062500Y-114300000D03*
X80962500Y-114300000D03*
X211931250Y-100012500D03*
X307181250Y-185737500D03*
X202406250Y-130968750D03*
X138112500Y-185737500D03*
X176212500Y-114300000D03*
X288131250Y-185737500D03*
X295106250Y-104775000D03*
X104775000Y-104775000D03*
X269081250Y-100012500D03*
X352306250Y-122600000D03*
X178593750Y-166687500D03*
X254793750Y-166687500D03*
X328612500Y-166687500D03*
X314325000Y-130810000D03*
X97631250Y-100012500D03*
X238125000Y-104775000D03*
X200025000Y-104775000D03*
X364331250Y-185737500D03*
X123825000Y-104775000D03*
X364331250Y-166687500D03*
X245268750Y-147637500D03*
X142875000Y-104775000D03*
X340518750Y-130968750D03*
X157162500Y-114300000D03*
X230981250Y-100012500D03*
X71437500Y-166687500D03*
X240506250Y-130968750D03*
X59531250Y-100012500D03*
X116681250Y-100012500D03*
X130968750Y-147637500D03*
X121443750Y-166687500D03*
X192881250Y-100012500D03*
X161925000Y-104775000D03*
X188118750Y-147637500D03*
X85725000Y-104775000D03*
X61912500Y-185737500D03*
X323806250Y-103500000D03*
X276225000Y-104775000D03*
X183356250Y-130968750D03*
X59531250Y-114300000D03*
X345281250Y-185737500D03*
X326231250Y-185737500D03*
X126206250Y-130968750D03*
X216693750Y-166687500D03*
X269081250Y-185737500D03*
X169068750Y-147637500D03*
X257175000Y-104775000D03*
X278606250Y-130968750D03*
X197643750Y-166687500D03*
X78581250Y-100012500D03*
X348706250Y-130968750D03*
X309562500Y-166687500D03*
X107156250Y-130968750D03*
X180975000Y-104775000D03*
X173831250Y-100012500D03*
X342900000Y-147637500D03*
X219075000Y-104775000D03*
X135731250Y-100012500D03*
X207168750Y-147637500D03*
X252412500Y-114300000D03*
X307181250Y-126206250D03*
X283368750Y-147637500D03*
X214312500Y-114300000D03*
X64293750Y-130968750D03*
X360106250Y-118500000D03*
X88106250Y-130968750D03*
X297656250Y-130968750D03*
X264318750Y-147637500D03*
X138112500Y-114300000D03*
X92868750Y-147637500D03*
X100012500Y-114300000D03*
X111918750Y-147637500D03*
X353606250Y-105100000D03*
X150018750Y-147637500D03*
X226218750Y-147637500D03*
X259556250Y-130968750D03*
X288131250Y-166687500D03*
X271462500Y-114300000D03*
X364606250Y-123800000D03*
X145256250Y-130968750D03*
X109537500Y-185737500D03*
X354806250Y-122600000D03*
X316706250Y-114300000D03*
X154781250Y-100012500D03*
X195262500Y-114300000D03*
X62606250Y-107510700D03*
X81606250Y-108300000D03*
X100706250Y-108700000D03*
X119706250Y-109200000D03*
X138706250Y-109600000D03*
X158153750Y-110052500D03*
X177628750Y-110477500D03*
X197153750Y-110952500D03*
X216628750Y-111377500D03*
X236153750Y-111852500D03*
X255628750Y-112277500D03*
X275153750Y-112752500D03*
X356906250Y-110800000D03*
X358106250Y-110800000D03*
G36*
X102012121Y-178640002D02*
G01*
X102058614Y-178693658D01*
X102070000Y-178746000D01*
X102070000Y-178754000D01*
X102049998Y-178822121D01*
X101996342Y-178868614D01*
X101944000Y-178880000D01*
X98036000Y-178880000D01*
X97967879Y-178859998D01*
X97921386Y-178806342D01*
X97910000Y-178754000D01*
X97910000Y-178746000D01*
X97930002Y-178677879D01*
X97983658Y-178631386D01*
X98036000Y-178620000D01*
X101944000Y-178620000D01*
X102012121Y-178640002D01*
G37*
G36*
X347173931Y-106830002D02*
G01*
X347220424Y-106883658D01*
X347230528Y-106953932D01*
X347201034Y-107018512D01*
X347194905Y-107025095D01*
X344122812Y-110097188D01*
X344110000Y-110120650D01*
X344110000Y-128501885D01*
X344117530Y-128527530D01*
X348967188Y-133377188D01*
X348990650Y-133390000D01*
X354211885Y-133390000D01*
X354237530Y-133382470D01*
X355937188Y-131682812D01*
X355950000Y-131659350D01*
X355950000Y-131552190D01*
X355970002Y-131484069D01*
X355986905Y-131463095D01*
X356264905Y-131185095D01*
X356327217Y-131151069D01*
X356398032Y-131156134D01*
X356454868Y-131198681D01*
X356479679Y-131265201D01*
X356480000Y-131274190D01*
X356480000Y-131657810D01*
X356459998Y-131725931D01*
X356443095Y-131746905D01*
X354416905Y-133773095D01*
X354354593Y-133807121D01*
X354327810Y-133810000D01*
X348882190Y-133810000D01*
X348814069Y-133789998D01*
X348793095Y-133773095D01*
X343736905Y-128716905D01*
X343702879Y-128654593D01*
X343700000Y-128627810D01*
X343700000Y-110002190D01*
X343720002Y-109934069D01*
X343736905Y-109913095D01*
X346803095Y-106846905D01*
X346865407Y-106812879D01*
X346892190Y-106810000D01*
X347105810Y-106810000D01*
X347173931Y-106830002D01*
G37*
G36*
X358812121Y-137840002D02*
G01*
X358858614Y-137893658D01*
X358870000Y-137946000D01*
X358870000Y-137954000D01*
X358849998Y-138022121D01*
X358796342Y-138068614D01*
X358744000Y-138080000D01*
X355126000Y-138080000D01*
X355057879Y-138059998D01*
X355011386Y-138006342D01*
X355000000Y-137954000D01*
X355000000Y-137946000D01*
X355020002Y-137877879D01*
X355073658Y-137831386D01*
X355126000Y-137820000D01*
X358744000Y-137820000D01*
X358812121Y-137840002D01*
G37*
G36*
X70635931Y-119070002D02*
G01*
X70656905Y-119086905D01*
X72613095Y-121043095D01*
X72647121Y-121105407D01*
X72650000Y-121132190D01*
X72650000Y-129887810D01*
X72629998Y-129955931D01*
X72613095Y-129976905D01*
X67892812Y-134697188D01*
X67880000Y-134720650D01*
X67880000Y-136974000D01*
X67859998Y-137042121D01*
X67806342Y-137088614D01*
X67754000Y-137100000D01*
X67746000Y-137100000D01*
X67677879Y-137079998D01*
X67631386Y-137026342D01*
X67620000Y-136974000D01*
X67620000Y-134652190D01*
X67640002Y-134584069D01*
X67656905Y-134563095D01*
X72377188Y-129842812D01*
X72390000Y-129819350D01*
X72390000Y-121198115D01*
X72382470Y-121172470D01*
X70475095Y-119265095D01*
X70441069Y-119202783D01*
X70446134Y-119131968D01*
X70488681Y-119075132D01*
X70555201Y-119050321D01*
X70564190Y-119050000D01*
X70567810Y-119050000D01*
X70635931Y-119070002D01*
G37*
G36*
X69072121Y-164980002D02*
G01*
X69118614Y-165033658D01*
X69130000Y-165086000D01*
X69130000Y-171507810D01*
X69109998Y-171575931D01*
X69093095Y-171596905D01*
X67892812Y-172797188D01*
X67880000Y-172820650D01*
X67880000Y-175644000D01*
X67859998Y-175712121D01*
X67806342Y-175758614D01*
X67754000Y-175770000D01*
X67746000Y-175770000D01*
X67677879Y-175749998D01*
X67631386Y-175696342D01*
X67620000Y-175644000D01*
X67620000Y-172742488D01*
X67640002Y-172674367D01*
X67657263Y-172653035D01*
X68857138Y-171462759D01*
X68870000Y-171439427D01*
X68870000Y-165086000D01*
X68890002Y-165017879D01*
X68943658Y-164971386D01*
X68996000Y-164960000D01*
X69004000Y-164960000D01*
X69072121Y-164980002D01*
G37*
G36*
X289912121Y-121490002D02*
G01*
X289958614Y-121543658D01*
X289970000Y-121596000D01*
X289970000Y-121604000D01*
X289949998Y-121672121D01*
X289896342Y-121718614D01*
X289844000Y-121730000D01*
X288376000Y-121730000D01*
X288307879Y-121709998D01*
X288261386Y-121656342D01*
X288250000Y-121604000D01*
X288250000Y-121596000D01*
X288270002Y-121527879D01*
X288323658Y-121481386D01*
X288376000Y-121470000D01*
X289844000Y-121470000D01*
X289912121Y-121490002D01*
G37*
G36*
X99412121Y-121490002D02*
G01*
X99458614Y-121543658D01*
X99470000Y-121596000D01*
X99470000Y-121604000D01*
X99449998Y-121672121D01*
X99396342Y-121718614D01*
X99344000Y-121730000D01*
X97876000Y-121730000D01*
X97807879Y-121709998D01*
X97761386Y-121656342D01*
X97750000Y-121604000D01*
X97750000Y-121596000D01*
X97770002Y-121527879D01*
X97823658Y-121481386D01*
X97876000Y-121470000D01*
X99344000Y-121470000D01*
X99412121Y-121490002D01*
G37*
G36*
X275622121Y-140540002D02*
G01*
X275668614Y-140593658D01*
X275680000Y-140646000D01*
X275680000Y-140654000D01*
X275659998Y-140722121D01*
X275606342Y-140768614D01*
X275554000Y-140780000D01*
X274086000Y-140780000D01*
X274017879Y-140759998D01*
X273971386Y-140706342D01*
X273960000Y-140654000D01*
X273960000Y-140646000D01*
X273980002Y-140577879D01*
X274033658Y-140531386D01*
X274086000Y-140520000D01*
X275554000Y-140520000D01*
X275622121Y-140540002D01*
G37*
G36*
X118462121Y-121490002D02*
G01*
X118508614Y-121543658D01*
X118520000Y-121596000D01*
X118520000Y-121604000D01*
X118499998Y-121672121D01*
X118446342Y-121718614D01*
X118394000Y-121730000D01*
X116926000Y-121730000D01*
X116857879Y-121709998D01*
X116811386Y-121656342D01*
X116800000Y-121604000D01*
X116800000Y-121596000D01*
X116820002Y-121527879D01*
X116873658Y-121481386D01*
X116926000Y-121470000D01*
X118394000Y-121470000D01*
X118462121Y-121490002D01*
G37*
G36*
X90622121Y-102540002D02*
G01*
X90668614Y-102593658D01*
X90680000Y-102646000D01*
X90680000Y-106481885D01*
X90687530Y-106507530D01*
X92737188Y-108557188D01*
X92760650Y-108570000D01*
X102957810Y-108570000D01*
X103025931Y-108590002D01*
X103046905Y-108606905D01*
X113093095Y-118653095D01*
X113127121Y-118715407D01*
X113130000Y-118742190D01*
X113130000Y-121171885D01*
X113137530Y-121197530D01*
X117853095Y-125913095D01*
X117887121Y-125975407D01*
X117890000Y-126002190D01*
X117890000Y-137721885D01*
X117897530Y-137747530D01*
X119103095Y-138953095D01*
X119137121Y-139015407D01*
X119140000Y-139042190D01*
X119140000Y-144297810D01*
X119119998Y-144365931D01*
X119103095Y-144386905D01*
X108382812Y-155107188D01*
X108370000Y-155130650D01*
X108370000Y-159161885D01*
X108377530Y-159187530D01*
X115473095Y-166283095D01*
X115507121Y-166345407D01*
X115510000Y-166372190D01*
X115510000Y-175874000D01*
X115489998Y-175942121D01*
X115436342Y-175988614D01*
X115384000Y-176000000D01*
X115376000Y-176000000D01*
X115307879Y-175979998D01*
X115261386Y-175926342D01*
X115250000Y-175874000D01*
X115250000Y-166448115D01*
X115242470Y-166422470D01*
X108146905Y-159326905D01*
X108112879Y-159264593D01*
X108110000Y-159237810D01*
X108110000Y-155062190D01*
X108130002Y-154994069D01*
X108146905Y-154973095D01*
X118867188Y-144252812D01*
X118880000Y-144229350D01*
X118880000Y-139118115D01*
X118872470Y-139092470D01*
X117666905Y-137886905D01*
X117632879Y-137824593D01*
X117630000Y-137797810D01*
X117630000Y-126078115D01*
X117622470Y-126052470D01*
X112906905Y-121336905D01*
X112872879Y-121274593D01*
X112870000Y-121247810D01*
X112870000Y-118818115D01*
X112862470Y-118792470D01*
X102912812Y-108842812D01*
X102889350Y-108830000D01*
X92702190Y-108830000D01*
X92634069Y-108809998D01*
X92613095Y-108793095D01*
X90456905Y-106636905D01*
X90422879Y-106574593D01*
X90420000Y-106547810D01*
X90420000Y-102646000D01*
X90440002Y-102577879D01*
X90493658Y-102531386D01*
X90546000Y-102520000D01*
X90554000Y-102520000D01*
X90622121Y-102540002D01*
G37*
G36*
X160995931Y-99890002D02*
G01*
X161016905Y-99906905D01*
X164403095Y-103293095D01*
X164437121Y-103355407D01*
X164440000Y-103382190D01*
X164440000Y-104544000D01*
X164419998Y-104612121D01*
X164366342Y-104658614D01*
X164314000Y-104670000D01*
X164306000Y-104670000D01*
X164237879Y-104649998D01*
X164191386Y-104596342D01*
X164180000Y-104544000D01*
X164180000Y-103448115D01*
X164172470Y-103422470D01*
X160835095Y-100085095D01*
X160801069Y-100022783D01*
X160806134Y-99951968D01*
X160848681Y-99895132D01*
X160915201Y-99870321D01*
X160924190Y-99870000D01*
X160927810Y-99870000D01*
X160995931Y-99890002D01*
G37*
G36*
X270862121Y-121490002D02*
G01*
X270908614Y-121543658D01*
X270920000Y-121596000D01*
X270920000Y-121604000D01*
X270899998Y-121672121D01*
X270846342Y-121718614D01*
X270794000Y-121730000D01*
X269326000Y-121730000D01*
X269257879Y-121709998D01*
X269211386Y-121656342D01*
X269200000Y-121604000D01*
X269200000Y-121596000D01*
X269220002Y-121527879D01*
X269273658Y-121481386D01*
X269326000Y-121470000D01*
X270794000Y-121470000D01*
X270862121Y-121490002D01*
G37*
G36*
X218472121Y-140540002D02*
G01*
X218518614Y-140593658D01*
X218530000Y-140646000D01*
X218530000Y-140654000D01*
X218509998Y-140722121D01*
X218456342Y-140768614D01*
X218404000Y-140780000D01*
X216936000Y-140780000D01*
X216867879Y-140759998D01*
X216821386Y-140706342D01*
X216810000Y-140654000D01*
X216810000Y-140646000D01*
X216830002Y-140577879D01*
X216883658Y-140531386D01*
X216936000Y-140520000D01*
X218404000Y-140520000D01*
X218472121Y-140540002D01*
G37*
G36*
X194662121Y-121490002D02*
G01*
X194708614Y-121543658D01*
X194720000Y-121596000D01*
X194720000Y-121604000D01*
X194699998Y-121672121D01*
X194646342Y-121718614D01*
X194594000Y-121730000D01*
X193126000Y-121730000D01*
X193057879Y-121709998D01*
X193011386Y-121656342D01*
X193000000Y-121604000D01*
X193000000Y-121596000D01*
X193020002Y-121527879D01*
X193073658Y-121481386D01*
X193126000Y-121470000D01*
X194594000Y-121470000D01*
X194662121Y-121490002D01*
G37*
G36*
X368365931Y-133790002D02*
G01*
X368386905Y-133806905D01*
X368893095Y-134313095D01*
X368927121Y-134375407D01*
X368930000Y-134402190D01*
X368930000Y-136351885D01*
X368937530Y-136377530D01*
X369754905Y-137194905D01*
X369788931Y-137257217D01*
X369783866Y-137328032D01*
X369741319Y-137384868D01*
X369674799Y-137409679D01*
X369665810Y-137410000D01*
X369652190Y-137410000D01*
X369584069Y-137389998D01*
X369563095Y-137373095D01*
X368706905Y-136516905D01*
X368672879Y-136454593D01*
X368670000Y-136427810D01*
X368670000Y-134468115D01*
X368662470Y-134442470D01*
X368262812Y-134042812D01*
X368239350Y-134030000D01*
X359708115Y-134030000D01*
X359682470Y-134037530D01*
X358106905Y-135613095D01*
X358044593Y-135647121D01*
X358017810Y-135650000D01*
X353468115Y-135650000D01*
X353442470Y-135657530D01*
X351379095Y-137720905D01*
X351316783Y-137754931D01*
X351245968Y-137749866D01*
X351200905Y-137720905D01*
X351199095Y-137719095D01*
X351165069Y-137656783D01*
X351170134Y-137585968D01*
X351199095Y-137540905D01*
X353313095Y-135426905D01*
X353375407Y-135392879D01*
X353402190Y-135390000D01*
X357951885Y-135390000D01*
X357977530Y-135382470D01*
X359553095Y-133806905D01*
X359615407Y-133772879D01*
X359642190Y-133770000D01*
X368297810Y-133770000D01*
X368365931Y-133790002D01*
G37*
G36*
X223972121Y-102670002D02*
G01*
X224018614Y-102723658D01*
X224030000Y-102776000D01*
X224030000Y-107831885D01*
X224037530Y-107857530D01*
X227887188Y-111707188D01*
X227910650Y-111720000D01*
X239457810Y-111720000D01*
X239525931Y-111740002D01*
X239546905Y-111756905D01*
X246443095Y-118653095D01*
X246477121Y-118715407D01*
X246480000Y-118742190D01*
X246480000Y-121271885D01*
X246487530Y-121297530D01*
X251203095Y-126013095D01*
X251237121Y-126075407D01*
X251240000Y-126102190D01*
X251240000Y-137481885D01*
X251247530Y-137507530D01*
X252353095Y-138613095D01*
X252387121Y-138675407D01*
X252390000Y-138702190D01*
X252390000Y-144667810D01*
X252369998Y-144735931D01*
X252353095Y-144756905D01*
X241732812Y-155377188D01*
X241720000Y-155400650D01*
X241720000Y-158261885D01*
X241727530Y-158287530D01*
X254297188Y-170857188D01*
X254320650Y-170870000D01*
X270027810Y-170870000D01*
X270095931Y-170890002D01*
X270116905Y-170906905D01*
X274630905Y-175420905D01*
X274664931Y-175483217D01*
X274659866Y-175554032D01*
X274630905Y-175599095D01*
X274629095Y-175600905D01*
X274566783Y-175634931D01*
X274495968Y-175629866D01*
X274450905Y-175600905D01*
X269992812Y-171142812D01*
X269969350Y-171130000D01*
X254252190Y-171130000D01*
X254184069Y-171109998D01*
X254163095Y-171093095D01*
X241486905Y-158416905D01*
X241452879Y-158354593D01*
X241450000Y-158327810D01*
X241450000Y-155352190D01*
X241470002Y-155284069D01*
X241486905Y-155263095D01*
X252117188Y-144632812D01*
X252130000Y-144609350D01*
X252130000Y-139038115D01*
X252122470Y-139012470D01*
X251016905Y-137906905D01*
X250982879Y-137844593D01*
X250980000Y-137817810D01*
X250980000Y-126178115D01*
X250972470Y-126152470D01*
X246256905Y-121436905D01*
X246222879Y-121374593D01*
X246220000Y-121347810D01*
X246220000Y-118818115D01*
X246212470Y-118792470D01*
X239412812Y-111992812D01*
X239389350Y-111980000D01*
X227852190Y-111980000D01*
X227784069Y-111959998D01*
X227763095Y-111943095D01*
X223806905Y-107986905D01*
X223772879Y-107924593D01*
X223770000Y-107897810D01*
X223770000Y-102776000D01*
X223790002Y-102707879D01*
X223843658Y-102661386D01*
X223896000Y-102650000D01*
X223904000Y-102650000D01*
X223972121Y-102670002D01*
G37*
G36*
X208952121Y-159590002D02*
G01*
X208998614Y-159643658D01*
X209010000Y-159696000D01*
X209010000Y-159704000D01*
X208989998Y-159772121D01*
X208936342Y-159818614D01*
X208884000Y-159830000D01*
X207416000Y-159830000D01*
X207347879Y-159809998D01*
X207301386Y-159756342D01*
X207290000Y-159704000D01*
X207290000Y-159696000D01*
X207310002Y-159627879D01*
X207363658Y-159581386D01*
X207416000Y-159570000D01*
X208884000Y-159570000D01*
X208952121Y-159590002D01*
G37*
G36*
X357283931Y-140260002D02*
G01*
X357330424Y-140313658D01*
X357340528Y-140383932D01*
X357311034Y-140448512D01*
X357304905Y-140455095D01*
X354989095Y-142770905D01*
X354926783Y-142804931D01*
X354855968Y-142799866D01*
X354810905Y-142770905D01*
X354809095Y-142769095D01*
X354775069Y-142706783D01*
X354780134Y-142635968D01*
X354809095Y-142590905D01*
X357123095Y-140276905D01*
X357185407Y-140242879D01*
X357212190Y-140240000D01*
X357215810Y-140240000D01*
X357283931Y-140260002D01*
G37*
G36*
X199422121Y-140540002D02*
G01*
X199468614Y-140593658D01*
X199480000Y-140646000D01*
X199480000Y-140654000D01*
X199459998Y-140722121D01*
X199406342Y-140768614D01*
X199354000Y-140780000D01*
X197886000Y-140780000D01*
X197817879Y-140759998D01*
X197771386Y-140706342D01*
X197760000Y-140654000D01*
X197760000Y-140646000D01*
X197780002Y-140577879D01*
X197833658Y-140531386D01*
X197886000Y-140520000D01*
X199354000Y-140520000D01*
X199422121Y-140540002D01*
G37*
G36*
X175612121Y-121490002D02*
G01*
X175658614Y-121543658D01*
X175670000Y-121596000D01*
X175670000Y-121604000D01*
X175649998Y-121672121D01*
X175596342Y-121718614D01*
X175544000Y-121730000D01*
X174076000Y-121730000D01*
X174007879Y-121709998D01*
X173961386Y-121656342D01*
X173950000Y-121604000D01*
X173950000Y-121596000D01*
X173970002Y-121527879D01*
X174023658Y-121481386D01*
X174076000Y-121470000D01*
X175544000Y-121470000D01*
X175612121Y-121490002D01*
G37*
G36*
X161322121Y-140540002D02*
G01*
X161368614Y-140593658D01*
X161380000Y-140646000D01*
X161380000Y-140654000D01*
X161359998Y-140722121D01*
X161306342Y-140768614D01*
X161254000Y-140780000D01*
X159786000Y-140780000D01*
X159717879Y-140759998D01*
X159671386Y-140706342D01*
X159660000Y-140654000D01*
X159660000Y-140646000D01*
X159680002Y-140577879D01*
X159733658Y-140531386D01*
X159786000Y-140520000D01*
X161254000Y-140520000D01*
X161322121Y-140540002D01*
G37*
G36*
X199095931Y-99890002D02*
G01*
X199116905Y-99906905D01*
X202503095Y-103293095D01*
X202537121Y-103355407D01*
X202540000Y-103382190D01*
X202540000Y-104544000D01*
X202519998Y-104612121D01*
X202466342Y-104658614D01*
X202414000Y-104670000D01*
X202406000Y-104670000D01*
X202337879Y-104649998D01*
X202291386Y-104596342D01*
X202280000Y-104544000D01*
X202280000Y-103448115D01*
X202272470Y-103422470D01*
X198935095Y-100085095D01*
X198901069Y-100022783D01*
X198906134Y-99951968D01*
X198948681Y-99895132D01*
X199015201Y-99870321D01*
X199024190Y-99870000D01*
X199027810Y-99870000D01*
X199095931Y-99890002D01*
G37*
G36*
X228011819Y-159589721D02*
G01*
X228058312Y-159643377D01*
X228069698Y-159695719D01*
X228069698Y-159703719D01*
X228049696Y-159771840D01*
X227996040Y-159818333D01*
X227943698Y-159829719D01*
X226475698Y-159829719D01*
X226407577Y-159809717D01*
X226361084Y-159756061D01*
X226349698Y-159703719D01*
X226349698Y-159695719D01*
X226369700Y-159627598D01*
X226423356Y-159581105D01*
X226475698Y-159569719D01*
X227943698Y-159569719D01*
X228011819Y-159589721D01*
G37*
G36*
X104172121Y-140540002D02*
G01*
X104218614Y-140593658D01*
X104230000Y-140646000D01*
X104230000Y-140654000D01*
X104209998Y-140722121D01*
X104156342Y-140768614D01*
X104104000Y-140780000D01*
X102636000Y-140780000D01*
X102567879Y-140759998D01*
X102521386Y-140706342D01*
X102510000Y-140654000D01*
X102510000Y-140646000D01*
X102530002Y-140577879D01*
X102583658Y-140531386D01*
X102636000Y-140520000D01*
X104104000Y-140520000D01*
X104172121Y-140540002D01*
G37*
G36*
X302122121Y-159370002D02*
G01*
X302168614Y-159423658D01*
X302180000Y-159476000D01*
X302180000Y-159494000D01*
X302159998Y-159562121D01*
X302106342Y-159608614D01*
X302054000Y-159620000D01*
X290658115Y-159620000D01*
X290642876Y-159624475D01*
X290641671Y-159625865D01*
X290640000Y-159633548D01*
X290640000Y-163251885D01*
X290647530Y-163277530D01*
X294243095Y-166873095D01*
X294277121Y-166935407D01*
X294280000Y-166962190D01*
X294280000Y-166965810D01*
X294259998Y-167033931D01*
X294206342Y-167080424D01*
X294136068Y-167090528D01*
X294071488Y-167061034D01*
X294064905Y-167054905D01*
X290416905Y-163406905D01*
X290382879Y-163344593D01*
X290380000Y-163317810D01*
X290380000Y-159638115D01*
X290375525Y-159622876D01*
X290374135Y-159621671D01*
X290366452Y-159620000D01*
X283506000Y-159620000D01*
X283437879Y-159599998D01*
X283391386Y-159546342D01*
X283380000Y-159494000D01*
X283380000Y-159476000D01*
X283400002Y-159407879D01*
X283453658Y-159361386D01*
X283506000Y-159350000D01*
X302054000Y-159350000D01*
X302122121Y-159370002D01*
G37*
G36*
X123222121Y-140540002D02*
G01*
X123268614Y-140593658D01*
X123280000Y-140646000D01*
X123280000Y-140654000D01*
X123259998Y-140722121D01*
X123206342Y-140768614D01*
X123154000Y-140780000D01*
X121686000Y-140780000D01*
X121617879Y-140759998D01*
X121571386Y-140706342D01*
X121560000Y-140654000D01*
X121560000Y-140646000D01*
X121580002Y-140577879D01*
X121633658Y-140531386D01*
X121686000Y-140520000D01*
X123154000Y-140520000D01*
X123222121Y-140540002D01*
G37*
G36*
X318762121Y-127400002D02*
G01*
X318808614Y-127453658D01*
X318820000Y-127506000D01*
X318820000Y-127514000D01*
X318799998Y-127582121D01*
X318746342Y-127628614D01*
X318694000Y-127640000D01*
X313088115Y-127640000D01*
X313062470Y-127647530D01*
X309392812Y-131317188D01*
X309380000Y-131340650D01*
X309380000Y-137027810D01*
X309359998Y-137095931D01*
X309343095Y-137116905D01*
X306366905Y-140093095D01*
X306304593Y-140127121D01*
X306277810Y-140130000D01*
X301168115Y-140130000D01*
X301142470Y-140137530D01*
X298316905Y-142963095D01*
X298254593Y-142997121D01*
X298227810Y-143000000D01*
X295112190Y-143000000D01*
X295044069Y-142979998D01*
X295023095Y-142963095D01*
X292879095Y-140819095D01*
X292845069Y-140756783D01*
X292850134Y-140685968D01*
X292879095Y-140640905D01*
X292880905Y-140639095D01*
X292943217Y-140605069D01*
X293014032Y-140610134D01*
X293059095Y-140639095D01*
X295147188Y-142727188D01*
X295170650Y-142740000D01*
X298161885Y-142740000D01*
X298187530Y-142732470D01*
X301013095Y-139906905D01*
X301075407Y-139872879D01*
X301102190Y-139870000D01*
X306211885Y-139870000D01*
X306237530Y-139862470D01*
X309097188Y-137002812D01*
X309110000Y-136979350D01*
X309110000Y-131292190D01*
X309130002Y-131224069D01*
X309146905Y-131203095D01*
X312933095Y-127416905D01*
X312995407Y-127382879D01*
X313022190Y-127380000D01*
X318694000Y-127380000D01*
X318762121Y-127400002D01*
G37*
G36*
X63682121Y-158690002D02*
G01*
X63728614Y-158743658D01*
X63740000Y-158796000D01*
X63740000Y-158804000D01*
X63719998Y-158872121D01*
X63666342Y-158918614D01*
X63614000Y-158930000D01*
X53358115Y-158930000D01*
X53332470Y-158937530D01*
X52532812Y-159737188D01*
X52520000Y-159760650D01*
X52520000Y-163251885D01*
X52527530Y-163277530D01*
X55723095Y-166473095D01*
X55757121Y-166535407D01*
X55760000Y-166562190D01*
X55760000Y-166575810D01*
X55739998Y-166643931D01*
X55686342Y-166690424D01*
X55616068Y-166700528D01*
X55551488Y-166671034D01*
X55544905Y-166664905D01*
X52296905Y-163416905D01*
X52262879Y-163354593D01*
X52260000Y-163327810D01*
X52260000Y-159702190D01*
X52280002Y-159634069D01*
X52296905Y-159613095D01*
X53203095Y-158706905D01*
X53265407Y-158672879D01*
X53292190Y-158670000D01*
X63614000Y-158670000D01*
X63682121Y-158690002D01*
G37*
G36*
X299973931Y-178780002D02*
G01*
X300020424Y-178833658D01*
X300030528Y-178903932D01*
X300001034Y-178968512D01*
X299994905Y-178975095D01*
X298016905Y-180953095D01*
X297954593Y-180987121D01*
X297927810Y-180990000D01*
X297924190Y-180990000D01*
X297856069Y-180969998D01*
X297809576Y-180916342D01*
X297799472Y-180846068D01*
X297828966Y-180781488D01*
X297835095Y-180774905D01*
X299813095Y-178796905D01*
X299875407Y-178762879D01*
X299902190Y-178760000D01*
X299905810Y-178760000D01*
X299973931Y-178780002D01*
G37*
G36*
X356582121Y-178640002D02*
G01*
X356628614Y-178693658D01*
X356640000Y-178746000D01*
X356640000Y-178754000D01*
X356619998Y-178822121D01*
X356566342Y-178868614D01*
X356514000Y-178880000D01*
X355046000Y-178880000D01*
X354977879Y-178859998D01*
X354931386Y-178806342D01*
X354920000Y-178754000D01*
X354920000Y-178746000D01*
X354940002Y-178677879D01*
X354993658Y-178631386D01*
X355046000Y-178620000D01*
X356514000Y-178620000D01*
X356582121Y-178640002D01*
G37*
G36*
X128732121Y-102520002D02*
G01*
X128778614Y-102573658D01*
X128790000Y-102626000D01*
X128790000Y-106591885D01*
X128797530Y-106617530D01*
X131647188Y-109467188D01*
X131670650Y-109480000D01*
X141967810Y-109480000D01*
X142035931Y-109500002D01*
X142056905Y-109516905D01*
X151203095Y-118663095D01*
X151237121Y-118725407D01*
X151240000Y-118752190D01*
X151240000Y-121031885D01*
X151247530Y-121057530D01*
X155963095Y-125773095D01*
X155997121Y-125835407D01*
X156000000Y-125862190D01*
X156000000Y-137591885D01*
X156007530Y-137617530D01*
X157103095Y-138713095D01*
X157137121Y-138775407D01*
X157140000Y-138802190D01*
X157140000Y-144667844D01*
X157119998Y-144735965D01*
X157103137Y-144756898D01*
X146482805Y-155387183D01*
X146470000Y-155410659D01*
X146470000Y-159861885D01*
X146477530Y-159887530D01*
X148813095Y-162223095D01*
X148847121Y-162285407D01*
X148850000Y-162312190D01*
X148850000Y-175744000D01*
X148829998Y-175812121D01*
X148776342Y-175858614D01*
X148724000Y-175870000D01*
X148716000Y-175870000D01*
X148647879Y-175849998D01*
X148601386Y-175796342D01*
X148590000Y-175744000D01*
X148590000Y-162378115D01*
X148582470Y-162352470D01*
X146237017Y-160007017D01*
X146202991Y-159944705D01*
X146200112Y-159917653D01*
X146209889Y-155342032D01*
X146230037Y-155273954D01*
X146246794Y-155253206D01*
X156867188Y-144632812D01*
X156880000Y-144609350D01*
X156880000Y-138928115D01*
X156872470Y-138902470D01*
X155776905Y-137806905D01*
X155742879Y-137744593D01*
X155740000Y-137717810D01*
X155740000Y-125938115D01*
X155732470Y-125912470D01*
X151016905Y-121196905D01*
X150982879Y-121134593D01*
X150980000Y-121107810D01*
X150980000Y-118828115D01*
X150972470Y-118802470D01*
X141922812Y-109752812D01*
X141899350Y-109740000D01*
X131612190Y-109740000D01*
X131544069Y-109719998D01*
X131523095Y-109703095D01*
X128566905Y-106746905D01*
X128532879Y-106684593D01*
X128530000Y-106657810D01*
X128530000Y-102626000D01*
X128550002Y-102557879D01*
X128603658Y-102511386D01*
X128656000Y-102500000D01*
X128664000Y-102500000D01*
X128732121Y-102520002D01*
G37*
G36*
X135392121Y-178640002D02*
G01*
X135438614Y-178693658D01*
X135450000Y-178746000D01*
X135450000Y-178754000D01*
X135429998Y-178822121D01*
X135376342Y-178868614D01*
X135324000Y-178880000D01*
X121836000Y-178880000D01*
X121767879Y-178859998D01*
X121721386Y-178806342D01*
X121710000Y-178754000D01*
X121710000Y-178746000D01*
X121730002Y-178677879D01*
X121783658Y-178631386D01*
X121836000Y-178620000D01*
X135324000Y-178620000D01*
X135392121Y-178640002D01*
G37*
G36*
X327014206Y-129560002D02*
G01*
X327035577Y-129577303D01*
X327043506Y-129585303D01*
X327077253Y-129647766D01*
X327071872Y-129718558D01*
X327029073Y-129775204D01*
X326962442Y-129799718D01*
X326954014Y-129800000D01*
X326916795Y-129800000D01*
X326905770Y-129803237D01*
X326909086Y-129810498D01*
X330093488Y-133023164D01*
X330127238Y-133085626D01*
X330130000Y-133111865D01*
X330130000Y-136727711D01*
X330109998Y-136795832D01*
X330092978Y-136816924D01*
X326376884Y-140523213D01*
X326314527Y-140557156D01*
X326287906Y-140560000D01*
X321458115Y-140560000D01*
X321442876Y-140564475D01*
X321441671Y-140565865D01*
X321440000Y-140573548D01*
X321440000Y-147787810D01*
X321419998Y-147855931D01*
X321403095Y-147876905D01*
X319236905Y-150043095D01*
X319174593Y-150077121D01*
X319147810Y-150080000D01*
X312088115Y-150080000D01*
X312077090Y-150083237D01*
X312080328Y-150090328D01*
X314237188Y-152247188D01*
X314260650Y-152260000D01*
X316707810Y-152260000D01*
X316775931Y-152280002D01*
X316796905Y-152296905D01*
X318393095Y-153893095D01*
X318427121Y-153955407D01*
X318430000Y-153982190D01*
X318430000Y-164831885D01*
X318437530Y-164857530D01*
X320382188Y-166802188D01*
X320396132Y-166809802D01*
X320397965Y-166809671D01*
X320404580Y-166805420D01*
X320485510Y-166724490D01*
X320547822Y-166690464D01*
X320618637Y-166695529D01*
X320663700Y-166724490D01*
X320670510Y-166731300D01*
X320704536Y-166793612D01*
X320699471Y-166864427D01*
X320670510Y-166909490D01*
X320552812Y-167027188D01*
X320540000Y-167050650D01*
X320540000Y-167062436D01*
X320519998Y-167130557D01*
X320466342Y-167177050D01*
X320422983Y-167188115D01*
X320419891Y-167188336D01*
X320350517Y-167173242D01*
X320300318Y-167123037D01*
X320290012Y-167098156D01*
X320282470Y-167072470D01*
X318206905Y-164996905D01*
X318172879Y-164934593D01*
X318170000Y-164907810D01*
X318170000Y-154058115D01*
X318162470Y-154032470D01*
X316662812Y-152532812D01*
X316639350Y-152520000D01*
X314202190Y-152520000D01*
X314134069Y-152499998D01*
X314113095Y-152483095D01*
X311716905Y-150086905D01*
X311682879Y-150024593D01*
X311680000Y-149997810D01*
X311680000Y-149946000D01*
X311700002Y-149877879D01*
X311753658Y-149831386D01*
X311806000Y-149820000D01*
X319071885Y-149820000D01*
X319097530Y-149812470D01*
X321167188Y-147742812D01*
X321180000Y-147719350D01*
X321180000Y-140416000D01*
X321200002Y-140347879D01*
X321253658Y-140301386D01*
X321306000Y-140290000D01*
X326221885Y-140290000D01*
X326247560Y-140282461D01*
X329857171Y-136682793D01*
X329870000Y-136659376D01*
X329870000Y-133188115D01*
X329862443Y-133162378D01*
X326554691Y-129826193D01*
X326520933Y-129763736D01*
X326526301Y-129692943D01*
X326548942Y-129654968D01*
X326558330Y-129644133D01*
X326559400Y-129639216D01*
X326593425Y-129576904D01*
X326655738Y-129542879D01*
X326682520Y-129540000D01*
X326946085Y-129540000D01*
X327014206Y-129560002D01*
G37*
G36*
X54902121Y-140540002D02*
G01*
X54948614Y-140593658D01*
X54960000Y-140646000D01*
X54960000Y-145251885D01*
X54967518Y-145277489D01*
X57507164Y-147807215D01*
X57530689Y-147820000D01*
X60354000Y-147820000D01*
X60422121Y-147840002D01*
X60468614Y-147893658D01*
X60480000Y-147946000D01*
X60480000Y-147954000D01*
X60459998Y-148022121D01*
X60406342Y-148068614D01*
X60354000Y-148080000D01*
X57462190Y-148080000D01*
X57394069Y-148059998D01*
X57373095Y-148043095D01*
X54736905Y-145406905D01*
X54702879Y-145344593D01*
X54700000Y-145317810D01*
X54700000Y-140798115D01*
X54695525Y-140782876D01*
X54694135Y-140781671D01*
X54686452Y-140780000D01*
X52736000Y-140780000D01*
X52667879Y-140759998D01*
X52621386Y-140706342D01*
X52610000Y-140654000D01*
X52610000Y-140646000D01*
X52630002Y-140577879D01*
X52683658Y-140531386D01*
X52736000Y-140520000D01*
X54834000Y-140520000D01*
X54902121Y-140540002D01*
G37*
G36*
X71572121Y-102410002D02*
G01*
X71618614Y-102463658D01*
X71630000Y-102516000D01*
X71630000Y-106431885D01*
X71637530Y-106457530D01*
X73337188Y-108157188D01*
X73360650Y-108170000D01*
X83507810Y-108170000D01*
X83575931Y-108190002D01*
X83596905Y-108206905D01*
X94043095Y-118653095D01*
X94077121Y-118715407D01*
X94080000Y-118742190D01*
X94080000Y-121311885D01*
X94087530Y-121337530D01*
X98803095Y-126053095D01*
X98837121Y-126115407D01*
X98840000Y-126142190D01*
X98840000Y-137721885D01*
X98847530Y-137747530D01*
X100103095Y-139003095D01*
X100137121Y-139065407D01*
X100140000Y-139092190D01*
X100140000Y-144247810D01*
X100119998Y-144315931D01*
X100103095Y-144336905D01*
X90652812Y-153787188D01*
X90640000Y-153810650D01*
X90640000Y-176034000D01*
X90619998Y-176102121D01*
X90566342Y-176148614D01*
X90514000Y-176160000D01*
X90506000Y-176160000D01*
X90437879Y-176139998D01*
X90391386Y-176086342D01*
X90380000Y-176034000D01*
X90380000Y-153742190D01*
X90400002Y-153674069D01*
X90416905Y-153653095D01*
X99867188Y-144202812D01*
X99880000Y-144179350D01*
X99880000Y-139168115D01*
X99872470Y-139142470D01*
X98616905Y-137886905D01*
X98582879Y-137824593D01*
X98580000Y-137797810D01*
X98580000Y-126208115D01*
X98572470Y-126182470D01*
X93856905Y-121466905D01*
X93822879Y-121404593D01*
X93820000Y-121377810D01*
X93820000Y-118818115D01*
X93812470Y-118792470D01*
X83462812Y-108442812D01*
X83439350Y-108430000D01*
X73292190Y-108430000D01*
X73224069Y-108409998D01*
X73203095Y-108393095D01*
X71396905Y-106586905D01*
X71362879Y-106524593D01*
X71360000Y-106497810D01*
X71360000Y-102516000D01*
X71380002Y-102447879D01*
X71433658Y-102401386D01*
X71486000Y-102390000D01*
X71504000Y-102390000D01*
X71572121Y-102410002D01*
G37*
G36*
X62675931Y-107400002D02*
G01*
X62696905Y-107416905D01*
X70233095Y-114953095D01*
X70267121Y-115015407D01*
X70270000Y-115042190D01*
X70270000Y-118564000D01*
X70249998Y-118632121D01*
X70196342Y-118678614D01*
X70144000Y-118690000D01*
X70136000Y-118690000D01*
X70067879Y-118669998D01*
X70021386Y-118616342D01*
X70010000Y-118564000D01*
X70010000Y-115118115D01*
X70002470Y-115092470D01*
X62562812Y-107652812D01*
X62539350Y-107640000D01*
X62464323Y-107640000D01*
X62396202Y-107619998D01*
X62349709Y-107566342D01*
X62339605Y-107496068D01*
X62348283Y-107464901D01*
X62351668Y-107456901D01*
X62396634Y-107401959D01*
X62467708Y-107380000D01*
X62607810Y-107380000D01*
X62675931Y-107400002D01*
G37*
G36*
X299952121Y-150070002D02*
G01*
X299998614Y-150123658D01*
X300010000Y-150176000D01*
X300010000Y-150184000D01*
X299989998Y-150252121D01*
X299936342Y-150298614D01*
X299884000Y-150310000D01*
X292996000Y-150310000D01*
X292927879Y-150289998D01*
X292881386Y-150236342D01*
X292870000Y-150184000D01*
X292870000Y-150176000D01*
X292890002Y-150107879D01*
X292943658Y-150061386D01*
X292996000Y-150050000D01*
X299884000Y-150050000D01*
X299952121Y-150070002D01*
G37*
G36*
X53832121Y-178640002D02*
G01*
X53878614Y-178693658D01*
X53890000Y-178746000D01*
X53890000Y-178754000D01*
X53869998Y-178822121D01*
X53816342Y-178868614D01*
X53764000Y-178880000D01*
X52856000Y-178880000D01*
X52787879Y-178859998D01*
X52741386Y-178806342D01*
X52730000Y-178754000D01*
X52730000Y-178746000D01*
X52750002Y-178677879D01*
X52803658Y-178631386D01*
X52856000Y-178620000D01*
X53764000Y-178620000D01*
X53832121Y-178640002D01*
G37*
G36*
X180371965Y-140539830D02*
G01*
X180418458Y-140593486D01*
X180429844Y-140645828D01*
X180429844Y-140653828D01*
X180409842Y-140721949D01*
X180356186Y-140768442D01*
X180303844Y-140779828D01*
X178835844Y-140779828D01*
X178767723Y-140759826D01*
X178721230Y-140706170D01*
X178709844Y-140653828D01*
X178709844Y-140645828D01*
X178729846Y-140577707D01*
X178783502Y-140531214D01*
X178835844Y-140519828D01*
X180303844Y-140519828D01*
X180371965Y-140539830D01*
G37*
G36*
X156562121Y-121490002D02*
G01*
X156608614Y-121543658D01*
X156620000Y-121596000D01*
X156620000Y-121604000D01*
X156599998Y-121672121D01*
X156546342Y-121718614D01*
X156494000Y-121730000D01*
X155026000Y-121730000D01*
X154957879Y-121709998D01*
X154911386Y-121656342D01*
X154900000Y-121604000D01*
X154900000Y-121596000D01*
X154920002Y-121527879D01*
X154973658Y-121481386D01*
X155026000Y-121470000D01*
X156494000Y-121470000D01*
X156562121Y-121490002D01*
G37*
G36*
X141945931Y-99890002D02*
G01*
X141966905Y-99906905D01*
X145353095Y-103293095D01*
X145387121Y-103355407D01*
X145390000Y-103382190D01*
X145390000Y-104544000D01*
X145369998Y-104612121D01*
X145316342Y-104658614D01*
X145264000Y-104670000D01*
X145256000Y-104670000D01*
X145187879Y-104649998D01*
X145141386Y-104596342D01*
X145130000Y-104544000D01*
X145130000Y-103448115D01*
X145122470Y-103422470D01*
X141785095Y-100085095D01*
X141751069Y-100022783D01*
X141756134Y-99951968D01*
X141798681Y-99895132D01*
X141865201Y-99870321D01*
X141874190Y-99870000D01*
X141877810Y-99870000D01*
X141945931Y-99890002D01*
G37*
G36*
X354851232Y-143045859D02*
G01*
X354859232Y-143048936D01*
X354915632Y-143092059D01*
X354939764Y-143158829D01*
X354940000Y-143166537D01*
X354940000Y-145251885D01*
X354947530Y-145277530D01*
X357167188Y-147497188D01*
X357190650Y-147510000D01*
X363997810Y-147510000D01*
X364065931Y-147530002D01*
X364086905Y-147546905D01*
X366259681Y-149719681D01*
X366260280Y-149720273D01*
X366642016Y-150092920D01*
X366676789Y-150154817D01*
X366680000Y-150183082D01*
X366680000Y-150205810D01*
X366659998Y-150273931D01*
X366606342Y-150320424D01*
X366536068Y-150330528D01*
X366471488Y-150301034D01*
X366464905Y-150294905D01*
X363952812Y-147782812D01*
X363929350Y-147770000D01*
X357122190Y-147770000D01*
X357054069Y-147749998D01*
X357033095Y-147733095D01*
X354716905Y-145416905D01*
X354682879Y-145354593D01*
X354680000Y-145327810D01*
X354680000Y-143163460D01*
X354700002Y-143095339D01*
X354753658Y-143048846D01*
X354823932Y-143038742D01*
X354851232Y-143045859D01*
G37*
G36*
X256572121Y-140540002D02*
G01*
X256618614Y-140593658D01*
X256630000Y-140646000D01*
X256630000Y-140654000D01*
X256609998Y-140722121D01*
X256556342Y-140768614D01*
X256504000Y-140780000D01*
X255036000Y-140780000D01*
X254967879Y-140759998D01*
X254921386Y-140706342D01*
X254910000Y-140654000D01*
X254910000Y-140646000D01*
X254930002Y-140577879D01*
X254983658Y-140531386D01*
X255036000Y-140520000D01*
X256504000Y-140520000D01*
X256572121Y-140540002D01*
G37*
G36*
X94692121Y-159590002D02*
G01*
X94738614Y-159643658D01*
X94750000Y-159696000D01*
X94750000Y-159704000D01*
X94729998Y-159772121D01*
X94676342Y-159818614D01*
X94624000Y-159830000D01*
X93156000Y-159830000D01*
X93087879Y-159809998D01*
X93041386Y-159756342D01*
X93030000Y-159704000D01*
X93030000Y-159696000D01*
X93050002Y-159627879D01*
X93103658Y-159581386D01*
X93156000Y-159570000D01*
X94624000Y-159570000D01*
X94692121Y-159590002D01*
G37*
G36*
X169112121Y-178330002D02*
G01*
X169158614Y-178383658D01*
X169170000Y-178436000D01*
X169170000Y-178444000D01*
X169149998Y-178512121D01*
X169096342Y-178558614D01*
X169044000Y-178570000D01*
X162968115Y-178570000D01*
X162942470Y-178577530D01*
X160396905Y-181123095D01*
X160334593Y-181157121D01*
X160307810Y-181160000D01*
X160294190Y-181160000D01*
X160226069Y-181139998D01*
X160179576Y-181086342D01*
X160169472Y-181016068D01*
X160198966Y-180951488D01*
X160205095Y-180944905D01*
X162803095Y-178346905D01*
X162865407Y-178312879D01*
X162892190Y-178310000D01*
X169044000Y-178310000D01*
X169112121Y-178330002D01*
G37*
G36*
X166822121Y-102460002D02*
G01*
X166868614Y-102513658D01*
X166880000Y-102566000D01*
X166880000Y-106681885D01*
X166887530Y-106707530D01*
X170517188Y-110337188D01*
X170540650Y-110350000D01*
X180937810Y-110350000D01*
X181005931Y-110370002D01*
X181026905Y-110386905D01*
X189293095Y-118653095D01*
X189327121Y-118715407D01*
X189330000Y-118742190D01*
X189330000Y-121121885D01*
X189337530Y-121147530D01*
X194053095Y-125863095D01*
X194087121Y-125925407D01*
X194090000Y-125952190D01*
X194090000Y-137631885D01*
X194097530Y-137657530D01*
X195353095Y-138913095D01*
X195387121Y-138975407D01*
X195390000Y-139002190D01*
X195390000Y-144517810D01*
X195369998Y-144585931D01*
X195353095Y-144606905D01*
X184582812Y-155377188D01*
X184570000Y-155400650D01*
X184570000Y-159361885D01*
X184577530Y-159387530D01*
X188153095Y-162963095D01*
X188187121Y-163025407D01*
X188190000Y-163052190D01*
X188190000Y-183354000D01*
X188169998Y-183422121D01*
X188116342Y-183468614D01*
X188064000Y-183480000D01*
X188056000Y-183480000D01*
X187987879Y-183459998D01*
X187941386Y-183406342D01*
X187930000Y-183354000D01*
X187930000Y-163128115D01*
X187922470Y-163102470D01*
X184346905Y-159526905D01*
X184312879Y-159464593D01*
X184310000Y-159437810D01*
X184310000Y-155342190D01*
X184330002Y-155274069D01*
X184346905Y-155253095D01*
X195117188Y-144482812D01*
X195130000Y-144459350D01*
X195130000Y-139078115D01*
X195122470Y-139052470D01*
X193866905Y-137796905D01*
X193832879Y-137734593D01*
X193830000Y-137707810D01*
X193830000Y-126028115D01*
X193822470Y-126002470D01*
X189106905Y-121286905D01*
X189072879Y-121224593D01*
X189070000Y-121197810D01*
X189070000Y-118818115D01*
X189062470Y-118792470D01*
X180892812Y-110622812D01*
X180869350Y-110610000D01*
X170482190Y-110610000D01*
X170414069Y-110589998D01*
X170393095Y-110573095D01*
X166656905Y-106836905D01*
X166622879Y-106774593D01*
X166620000Y-106747810D01*
X166620000Y-102566000D01*
X166640002Y-102497879D01*
X166693658Y-102451386D01*
X166746000Y-102440000D01*
X166754000Y-102440000D01*
X166822121Y-102460002D01*
G37*
G36*
X243022121Y-102620002D02*
G01*
X243068614Y-102673658D01*
X243080000Y-102726000D01*
X243080000Y-109881885D01*
X243087530Y-109907530D01*
X245317188Y-112137188D01*
X245340650Y-112150000D01*
X258937810Y-112150000D01*
X259005931Y-112170002D01*
X259026905Y-112186905D01*
X265493095Y-118653095D01*
X265527121Y-118715407D01*
X265530000Y-118742190D01*
X265530000Y-121071885D01*
X265537530Y-121097530D01*
X270253095Y-125813095D01*
X270287121Y-125875407D01*
X270290000Y-125902190D01*
X270290000Y-137581885D01*
X270297530Y-137607530D01*
X271603095Y-138913095D01*
X271637121Y-138975407D01*
X271640000Y-139002190D01*
X271640000Y-144467810D01*
X271619998Y-144535931D01*
X271603095Y-144556905D01*
X260782812Y-155377188D01*
X260770000Y-155400650D01*
X260770000Y-158281885D01*
X260777530Y-158307530D01*
X273327188Y-170857188D01*
X273350650Y-170870000D01*
X289077810Y-170870000D01*
X289145931Y-170890002D01*
X289166905Y-170906905D01*
X293590905Y-175330905D01*
X293624931Y-175393217D01*
X293619866Y-175464032D01*
X293590905Y-175509095D01*
X293589095Y-175510905D01*
X293526783Y-175544931D01*
X293455968Y-175539866D01*
X293410905Y-175510905D01*
X289042812Y-171142812D01*
X289019350Y-171130000D01*
X273292190Y-171130000D01*
X273224069Y-171109998D01*
X273203095Y-171093095D01*
X260546905Y-158436905D01*
X260512879Y-158374593D01*
X260510000Y-158347810D01*
X260510000Y-155342190D01*
X260530002Y-155274069D01*
X260546905Y-155253095D01*
X271367188Y-144432812D01*
X271380000Y-144409350D01*
X271380000Y-139078115D01*
X271372470Y-139052470D01*
X270066905Y-137746905D01*
X270032879Y-137684593D01*
X270030000Y-137657810D01*
X270030000Y-125978115D01*
X270022470Y-125952470D01*
X265306905Y-121236905D01*
X265272879Y-121174593D01*
X265270000Y-121147810D01*
X265270000Y-118818115D01*
X265262470Y-118792470D01*
X258892812Y-112422812D01*
X258869350Y-112410000D01*
X245282190Y-112410000D01*
X245214069Y-112389998D01*
X245193095Y-112373095D01*
X242856905Y-110036905D01*
X242822879Y-109974593D01*
X242820000Y-109947810D01*
X242820000Y-102726000D01*
X242840002Y-102657879D01*
X242893658Y-102611386D01*
X242946000Y-102600000D01*
X242954000Y-102600000D01*
X243022121Y-102620002D01*
G37*
G36*
X324052121Y-116630002D02*
G01*
X324098614Y-116683658D01*
X324110000Y-116736000D01*
X324110000Y-116744000D01*
X324089998Y-116812121D01*
X324036342Y-116858614D01*
X323984000Y-116870000D01*
X314498115Y-116870000D01*
X314472448Y-116877537D01*
X309699095Y-121641088D01*
X309636748Y-121675049D01*
X309565937Y-121669911D01*
X309520996Y-121640996D01*
X309519095Y-121639095D01*
X309485069Y-121576783D01*
X309490134Y-121505968D01*
X309519095Y-121460905D01*
X314333095Y-116646905D01*
X314395407Y-116612879D01*
X314422190Y-116610000D01*
X323984000Y-116610000D01*
X324052121Y-116630002D01*
G37*
G36*
X247042121Y-159590002D02*
G01*
X247088614Y-159643658D01*
X247100000Y-159696000D01*
X247100000Y-159704000D01*
X247079998Y-159772121D01*
X247026342Y-159818614D01*
X246974000Y-159830000D01*
X245506000Y-159830000D01*
X245437879Y-159809998D01*
X245391386Y-159756342D01*
X245380000Y-159704000D01*
X245380000Y-159696000D01*
X245400002Y-159627879D01*
X245453658Y-159581386D01*
X245506000Y-159570000D01*
X246974000Y-159570000D01*
X247042121Y-159590002D01*
G37*
G36*
X71195931Y-137690002D02*
G01*
X71216905Y-137706905D01*
X73853095Y-140343095D01*
X73887121Y-140405407D01*
X73890000Y-140432190D01*
X73890000Y-150111885D01*
X73897530Y-150137530D01*
X77373095Y-153613095D01*
X77407121Y-153675407D01*
X77410000Y-153702190D01*
X77410000Y-158467810D01*
X77389998Y-158535931D01*
X77373095Y-158556905D01*
X74422812Y-161507188D01*
X74410000Y-161530650D01*
X74410000Y-163848340D01*
X74389998Y-163916461D01*
X74373734Y-163936792D01*
X73757012Y-164562452D01*
X73694946Y-164596925D01*
X73667278Y-164600000D01*
X69616000Y-164600000D01*
X69547879Y-164579998D01*
X69501386Y-164526342D01*
X69490000Y-164474000D01*
X69490000Y-164466000D01*
X69510002Y-164397879D01*
X69563658Y-164351386D01*
X69616000Y-164340000D01*
X73581885Y-164340000D01*
X73607530Y-164332470D01*
X74137188Y-163802812D01*
X74150000Y-163779350D01*
X74150000Y-161472190D01*
X74170002Y-161404069D01*
X74186905Y-161383095D01*
X77137188Y-158432812D01*
X77150000Y-158409350D01*
X77150000Y-153768115D01*
X77142470Y-153742470D01*
X73666905Y-150266905D01*
X73632879Y-150204593D01*
X73630000Y-150177810D01*
X73630000Y-140508115D01*
X73622482Y-140482511D01*
X71072836Y-137942786D01*
X71049311Y-137930000D01*
X68476000Y-137930000D01*
X68407879Y-137909998D01*
X68361386Y-137856342D01*
X68350000Y-137804000D01*
X68350000Y-137796000D01*
X68370002Y-137727879D01*
X68423658Y-137681386D01*
X68476000Y-137670000D01*
X71127810Y-137670000D01*
X71195931Y-137690002D01*
G37*
G36*
X262072121Y-102910002D02*
G01*
X262118614Y-102963658D01*
X262130000Y-103016000D01*
X262130000Y-107931885D01*
X262137530Y-107957530D01*
X266787188Y-112607188D01*
X266810650Y-112620000D01*
X278457810Y-112620000D01*
X278525931Y-112640002D01*
X278546905Y-112656905D01*
X284543095Y-118653095D01*
X284577121Y-118715407D01*
X284580000Y-118742190D01*
X284580000Y-121121885D01*
X284587530Y-121147530D01*
X289303095Y-125863095D01*
X289337121Y-125925407D01*
X289340000Y-125952190D01*
X289340000Y-137797810D01*
X289319998Y-137865931D01*
X289303095Y-137886905D01*
X286642812Y-140547188D01*
X286630000Y-140570650D01*
X286630000Y-146887810D01*
X286609998Y-146955931D01*
X286593095Y-146976905D01*
X279832812Y-153737188D01*
X279820000Y-153760650D01*
X279820000Y-156781885D01*
X279827530Y-156807530D01*
X280993095Y-157973095D01*
X281027121Y-158035407D01*
X281030000Y-158062190D01*
X281030000Y-163531885D01*
X281037530Y-163557530D01*
X285317188Y-167837188D01*
X285340650Y-167850000D01*
X289427810Y-167850000D01*
X289495931Y-167870002D01*
X289516905Y-167886905D01*
X294987188Y-173357188D01*
X295010650Y-173370000D01*
X310627810Y-173370000D01*
X310695931Y-173390002D01*
X310716905Y-173406905D01*
X312720905Y-175410905D01*
X312754931Y-175473217D01*
X312749866Y-175544032D01*
X312720905Y-175589095D01*
X312719095Y-175590905D01*
X312656783Y-175624931D01*
X312585968Y-175619866D01*
X312540905Y-175590905D01*
X310592812Y-173642812D01*
X310569350Y-173630000D01*
X294942190Y-173630000D01*
X294874069Y-173609998D01*
X294853095Y-173593095D01*
X289382812Y-168122812D01*
X289359350Y-168110000D01*
X285282190Y-168110000D01*
X285214069Y-168089998D01*
X285193095Y-168073095D01*
X280806905Y-163686905D01*
X280772879Y-163624593D01*
X280770000Y-163597810D01*
X280770000Y-158128115D01*
X280762470Y-158102470D01*
X279596905Y-156936905D01*
X279562879Y-156874593D01*
X279560000Y-156847810D01*
X279560000Y-153702190D01*
X279580002Y-153634069D01*
X279596905Y-153613095D01*
X286357188Y-146852812D01*
X286370000Y-146829350D01*
X286370000Y-140502190D01*
X286390002Y-140434069D01*
X286406905Y-140413095D01*
X289067188Y-137752812D01*
X289080000Y-137729350D01*
X289080000Y-126028115D01*
X289072470Y-126002470D01*
X284356905Y-121286905D01*
X284322879Y-121224593D01*
X284320000Y-121197810D01*
X284320000Y-118818115D01*
X284312470Y-118792470D01*
X278412812Y-112892812D01*
X278389350Y-112880000D01*
X266752190Y-112880000D01*
X266684069Y-112859998D01*
X266663095Y-112843095D01*
X261906905Y-108086905D01*
X261872879Y-108024593D01*
X261870000Y-107997810D01*
X261870000Y-103016000D01*
X261890002Y-102947879D01*
X261943658Y-102901386D01*
X261996000Y-102890000D01*
X262004000Y-102890000D01*
X262072121Y-102910002D01*
G37*
G36*
X164435931Y-181090002D02*
G01*
X164456905Y-181106905D01*
X169257188Y-185907188D01*
X169280650Y-185920000D01*
X175024000Y-185920000D01*
X175092121Y-185940002D01*
X175138614Y-185993658D01*
X175150000Y-186046000D01*
X175150000Y-186054000D01*
X175129998Y-186122121D01*
X175076342Y-186168614D01*
X175024000Y-186180000D01*
X169222190Y-186180000D01*
X169154069Y-186159998D01*
X169133095Y-186143095D01*
X164275095Y-181285095D01*
X164241069Y-181222783D01*
X164246134Y-181151968D01*
X164288681Y-181095132D01*
X164355201Y-181070321D01*
X164364190Y-181070000D01*
X164367810Y-181070000D01*
X164435931Y-181090002D01*
G37*
G36*
X213712121Y-121490002D02*
G01*
X213758614Y-121543658D01*
X213770000Y-121596000D01*
X213770000Y-121604000D01*
X213749998Y-121672121D01*
X213696342Y-121718614D01*
X213644000Y-121730000D01*
X212176000Y-121730000D01*
X212107879Y-121709998D01*
X212061386Y-121656342D01*
X212050000Y-121604000D01*
X212050000Y-121596000D01*
X212070002Y-121527879D01*
X212123658Y-121481386D01*
X212176000Y-121470000D01*
X213644000Y-121470000D01*
X213712121Y-121490002D01*
G37*
G36*
X103968813Y-100059299D02*
G01*
X104036655Y-100080227D01*
X104056192Y-100096192D01*
X107253095Y-103293095D01*
X107287121Y-103355407D01*
X107290000Y-103382190D01*
X107290000Y-104664000D01*
X107269998Y-104732121D01*
X107216342Y-104778614D01*
X107164000Y-104790000D01*
X107156466Y-104790000D01*
X107088345Y-104769998D01*
X107041852Y-104716342D01*
X107030467Y-104663535D01*
X107034933Y-103453118D01*
X107027520Y-103427520D01*
X103874332Y-100274332D01*
X103840306Y-100212020D01*
X103845371Y-100141205D01*
X103887918Y-100084369D01*
X103954438Y-100059558D01*
X103965143Y-100059249D01*
X103968813Y-100059299D01*
G37*
G36*
X322625931Y-99590002D02*
G01*
X322646905Y-99606905D01*
X327827188Y-104787188D01*
X327850650Y-104800000D01*
X333294000Y-104800000D01*
X333362121Y-104820002D01*
X333408614Y-104873658D01*
X333420000Y-104926000D01*
X333420000Y-104934000D01*
X333399998Y-105002121D01*
X333346342Y-105048614D01*
X333294000Y-105060000D01*
X327782190Y-105060000D01*
X327714069Y-105039998D01*
X327693095Y-105023095D01*
X322455095Y-99785095D01*
X322421069Y-99722783D01*
X322426134Y-99651968D01*
X322468681Y-99595132D01*
X322535201Y-99570321D01*
X322544190Y-99570000D01*
X322557810Y-99570000D01*
X322625931Y-99590002D01*
G37*
G36*
X337873931Y-140880002D02*
G01*
X337920424Y-140933658D01*
X337930528Y-141003932D01*
X337901034Y-141068512D01*
X337894905Y-141075095D01*
X336086905Y-142883095D01*
X336024593Y-142917121D01*
X335997810Y-142920000D01*
X335994190Y-142920000D01*
X335926069Y-142899998D01*
X335879576Y-142846342D01*
X335869472Y-142776068D01*
X335898966Y-142711488D01*
X335905095Y-142704905D01*
X337713095Y-140896905D01*
X337775407Y-140862879D01*
X337802190Y-140860000D01*
X337805810Y-140860000D01*
X337873931Y-140880002D01*
G37*
G36*
X352023333Y-137714074D02*
G01*
X352041333Y-137718074D01*
X352103493Y-137752378D01*
X352137239Y-137814841D01*
X352140000Y-137841074D01*
X352140000Y-156691885D01*
X352144475Y-156707124D01*
X352145865Y-156708329D01*
X352153548Y-156710000D01*
X355391885Y-156710000D01*
X355417530Y-156702470D01*
X361740905Y-150379095D01*
X361803217Y-150345069D01*
X361874032Y-150350134D01*
X361919095Y-150379095D01*
X365037188Y-153497188D01*
X365060650Y-153510000D01*
X366967810Y-153510000D01*
X367035931Y-153530002D01*
X367056905Y-153546905D01*
X371573095Y-158063095D01*
X371607121Y-158125407D01*
X371610000Y-158152190D01*
X371610000Y-174587810D01*
X371589998Y-174655931D01*
X371573095Y-174676905D01*
X370486905Y-175763095D01*
X370424593Y-175797121D01*
X370397810Y-175800000D01*
X370394190Y-175800000D01*
X370326069Y-175779998D01*
X370279576Y-175726342D01*
X370269472Y-175656068D01*
X370298966Y-175591488D01*
X370305095Y-175584905D01*
X371337188Y-174552812D01*
X371350000Y-174529350D01*
X371350000Y-158218115D01*
X371342470Y-158192470D01*
X366932812Y-153782812D01*
X366909350Y-153770000D01*
X364992190Y-153770000D01*
X364924069Y-153749998D01*
X364903095Y-153733095D01*
X361842812Y-150672812D01*
X361828868Y-150665198D01*
X361827035Y-150665329D01*
X361820420Y-150669580D01*
X355556905Y-156933095D01*
X355494593Y-156967121D01*
X355467810Y-156970000D01*
X351996000Y-156970000D01*
X351927879Y-156949998D01*
X351881386Y-156896342D01*
X351870000Y-156844000D01*
X351870000Y-137837074D01*
X351890002Y-137768953D01*
X351943658Y-137722460D01*
X352013932Y-137712356D01*
X352023333Y-137714074D01*
G37*
G36*
X113692121Y-159590002D02*
G01*
X113738614Y-159643658D01*
X113750000Y-159696000D01*
X113750000Y-159704000D01*
X113729998Y-159772121D01*
X113676342Y-159818614D01*
X113624000Y-159830000D01*
X112156000Y-159830000D01*
X112087879Y-159809998D01*
X112041386Y-159756342D01*
X112030000Y-159704000D01*
X112030000Y-159696000D01*
X112050002Y-159627879D01*
X112103658Y-159581386D01*
X112156000Y-159570000D01*
X113624000Y-159570000D01*
X113692121Y-159590002D01*
G37*
G36*
X137512121Y-121490002D02*
G01*
X137558614Y-121543658D01*
X137570000Y-121596000D01*
X137570000Y-121604000D01*
X137549998Y-121672121D01*
X137496342Y-121718614D01*
X137444000Y-121730000D01*
X135976000Y-121730000D01*
X135907879Y-121709998D01*
X135861386Y-121656342D01*
X135850000Y-121604000D01*
X135850000Y-121596000D01*
X135870002Y-121527879D01*
X135923658Y-121481386D01*
X135976000Y-121470000D01*
X137444000Y-121470000D01*
X137512121Y-121490002D01*
G37*
G36*
X333392121Y-164650002D02*
G01*
X333438614Y-164703658D01*
X333450000Y-164756000D01*
X333450000Y-166721885D01*
X333457530Y-166747530D01*
X335823095Y-169113095D01*
X335857121Y-169175407D01*
X335860000Y-169202190D01*
X335860000Y-169205810D01*
X335839998Y-169273931D01*
X335786342Y-169320424D01*
X335716068Y-169330528D01*
X335651488Y-169301034D01*
X335644905Y-169294905D01*
X333226905Y-166876905D01*
X333192879Y-166814593D01*
X333190000Y-166787810D01*
X333190000Y-164756000D01*
X333210002Y-164687879D01*
X333263658Y-164641386D01*
X333316000Y-164630000D01*
X333324000Y-164630000D01*
X333392121Y-164650002D01*
G37*
G36*
X318482121Y-178640002D02*
G01*
X318528614Y-178693658D01*
X318540000Y-178746000D01*
X318540000Y-178754000D01*
X318519998Y-178822121D01*
X318466342Y-178868614D01*
X318414000Y-178880000D01*
X316946000Y-178880000D01*
X316877879Y-178859998D01*
X316831386Y-178806342D01*
X316820000Y-178754000D01*
X316820000Y-178746000D01*
X316840002Y-178677879D01*
X316893658Y-178631386D01*
X316946000Y-178620000D01*
X318414000Y-178620000D01*
X318482121Y-178640002D01*
G37*
G36*
X109662121Y-102310002D02*
G01*
X109708614Y-102363658D01*
X109720000Y-102416000D01*
X109720000Y-106531885D01*
X109727530Y-106557530D01*
X112227188Y-109057188D01*
X112250650Y-109070000D01*
X122497810Y-109070000D01*
X122565931Y-109090002D01*
X122586905Y-109106905D01*
X132143095Y-118663095D01*
X132177121Y-118725407D01*
X132180000Y-118752190D01*
X132180000Y-120971885D01*
X132187530Y-120997530D01*
X136903095Y-125713095D01*
X136937121Y-125775407D01*
X136940000Y-125802190D01*
X136940000Y-137711885D01*
X136947556Y-137737619D01*
X138103464Y-138903160D01*
X138137231Y-138965613D01*
X138140000Y-138991885D01*
X138140000Y-144497810D01*
X138119998Y-144565931D01*
X138103095Y-144586905D01*
X127432812Y-155257188D01*
X127420000Y-155280650D01*
X127420000Y-156814000D01*
X127399998Y-156882121D01*
X127346342Y-156928614D01*
X127294000Y-156940000D01*
X127286000Y-156940000D01*
X127217879Y-156919998D01*
X127171386Y-156866342D01*
X127160000Y-156814000D01*
X127160000Y-155212190D01*
X127180002Y-155144069D01*
X127196905Y-155123095D01*
X137867188Y-144452812D01*
X137880000Y-144429350D01*
X137880000Y-139068115D01*
X137872470Y-139042470D01*
X136716905Y-137886905D01*
X136682879Y-137824593D01*
X136680000Y-137797810D01*
X136680000Y-125878115D01*
X136672470Y-125852470D01*
X131956905Y-121136905D01*
X131922879Y-121074593D01*
X131920000Y-121047810D01*
X131920000Y-118928115D01*
X131912433Y-118902345D01*
X122462735Y-109342883D01*
X122439462Y-109330000D01*
X112192190Y-109330000D01*
X112124069Y-109309998D01*
X112103095Y-109293095D01*
X109496905Y-106686905D01*
X109462879Y-106624593D01*
X109460000Y-106597810D01*
X109460000Y-102416000D01*
X109480002Y-102347879D01*
X109533658Y-102301386D01*
X109586000Y-102290000D01*
X109594000Y-102290000D01*
X109662121Y-102310002D01*
G37*
G36*
X180045931Y-99890002D02*
G01*
X180066905Y-99906905D01*
X183453095Y-103293095D01*
X183487121Y-103355407D01*
X183490000Y-103382190D01*
X183490000Y-104544000D01*
X183469998Y-104612121D01*
X183416342Y-104658614D01*
X183364000Y-104670000D01*
X183356000Y-104670000D01*
X183287879Y-104649998D01*
X183241386Y-104596342D01*
X183230000Y-104544000D01*
X183230000Y-103448115D01*
X183222470Y-103422470D01*
X179885095Y-100085095D01*
X179851069Y-100022783D01*
X179856134Y-99951968D01*
X179898681Y-99895132D01*
X179965201Y-99870321D01*
X179974190Y-99870000D01*
X179977810Y-99870000D01*
X180045931Y-99890002D01*
G37*
G36*
X66295931Y-100440002D02*
G01*
X66316905Y-100456905D01*
X69153095Y-103293095D01*
X69187121Y-103355407D01*
X69190000Y-103382190D01*
X69190000Y-104484000D01*
X69169998Y-104552121D01*
X69116342Y-104598614D01*
X69064000Y-104610000D01*
X69056000Y-104610000D01*
X68987879Y-104589998D01*
X68941386Y-104536342D01*
X68930000Y-104484000D01*
X68930000Y-103448115D01*
X68922470Y-103422470D01*
X66135095Y-100635095D01*
X66101069Y-100572783D01*
X66106134Y-100501968D01*
X66148681Y-100445132D01*
X66215201Y-100420321D01*
X66224190Y-100420000D01*
X66227810Y-100420000D01*
X66295931Y-100440002D01*
G37*
G36*
X232762121Y-121490002D02*
G01*
X232808614Y-121543658D01*
X232820000Y-121596000D01*
X232820000Y-121604000D01*
X232799998Y-121672121D01*
X232746342Y-121718614D01*
X232694000Y-121730000D01*
X231226000Y-121730000D01*
X231157879Y-121709998D01*
X231111386Y-121656342D01*
X231100000Y-121604000D01*
X231100000Y-121596000D01*
X231120002Y-121527879D01*
X231173658Y-121481386D01*
X231226000Y-121470000D01*
X232694000Y-121470000D01*
X232762121Y-121490002D01*
G37*
G36*
X275295931Y-99890002D02*
G01*
X275316905Y-99906905D01*
X278703095Y-103293095D01*
X278737121Y-103355407D01*
X278740000Y-103382190D01*
X278740000Y-104544000D01*
X278719998Y-104612121D01*
X278666342Y-104658614D01*
X278614000Y-104670000D01*
X278606000Y-104670000D01*
X278537879Y-104649998D01*
X278491386Y-104596342D01*
X278480000Y-104544000D01*
X278480000Y-103448115D01*
X278472470Y-103422470D01*
X275135095Y-100085095D01*
X275101069Y-100022783D01*
X275106134Y-99951968D01*
X275148681Y-99895132D01*
X275215201Y-99870321D01*
X275224190Y-99870000D01*
X275227810Y-99870000D01*
X275295931Y-99890002D01*
G37*
G36*
X337532121Y-159590002D02*
G01*
X337578614Y-159643658D01*
X337590000Y-159696000D01*
X337590000Y-159704000D01*
X337569998Y-159772121D01*
X337516342Y-159818614D01*
X337464000Y-159830000D01*
X335996000Y-159830000D01*
X335927879Y-159809998D01*
X335881386Y-159756342D01*
X335870000Y-159704000D01*
X335870000Y-159696000D01*
X335890002Y-159627879D01*
X335943658Y-159581386D01*
X335996000Y-159570000D01*
X337464000Y-159570000D01*
X337532121Y-159590002D01*
G37*
G36*
X325165931Y-164690002D02*
G01*
X325186905Y-164706905D01*
X331787188Y-171307188D01*
X331810650Y-171320000D01*
X346677810Y-171320000D01*
X346745931Y-171340002D01*
X346766905Y-171356905D01*
X351183095Y-175773095D01*
X351217121Y-175835407D01*
X351220000Y-175862190D01*
X351220000Y-175865810D01*
X351199998Y-175933931D01*
X351146342Y-175980424D01*
X351076068Y-175990528D01*
X351011488Y-175961034D01*
X351004905Y-175954905D01*
X346642812Y-171592812D01*
X346619350Y-171580000D01*
X331752190Y-171580000D01*
X331684069Y-171559998D01*
X331663095Y-171543095D01*
X325062812Y-164942812D01*
X325039350Y-164930000D01*
X322668115Y-164930000D01*
X322642470Y-164937530D01*
X320552812Y-167027188D01*
X320540000Y-167050650D01*
X320540000Y-167062436D01*
X320519998Y-167130557D01*
X320466342Y-167177050D01*
X320422983Y-167188115D01*
X320419891Y-167188336D01*
X320350517Y-167173242D01*
X320300318Y-167123037D01*
X320290012Y-167098156D01*
X320282470Y-167072470D01*
X320119490Y-166909490D01*
X320085464Y-166847178D01*
X320090529Y-166776363D01*
X320119490Y-166731300D01*
X320126300Y-166724490D01*
X320188612Y-166690464D01*
X320259427Y-166695529D01*
X320304490Y-166724490D01*
X320382188Y-166802188D01*
X320396132Y-166809802D01*
X320397965Y-166809671D01*
X320404580Y-166805420D01*
X322503095Y-164706905D01*
X322565407Y-164672879D01*
X322592190Y-164670000D01*
X325097810Y-164670000D01*
X325165931Y-164690002D01*
G37*
G36*
X207113931Y-178510002D02*
G01*
X207160424Y-178563658D01*
X207170528Y-178633932D01*
X207141034Y-178698512D01*
X207134905Y-178705095D01*
X204616905Y-181223095D01*
X204554593Y-181257121D01*
X204527810Y-181260000D01*
X195466000Y-181260000D01*
X195397879Y-181239998D01*
X195351386Y-181186342D01*
X195340000Y-181134000D01*
X195340000Y-181126000D01*
X195360002Y-181057879D01*
X195413658Y-181011386D01*
X195466000Y-181000000D01*
X204461885Y-181000000D01*
X204487530Y-180992470D01*
X206953095Y-178526905D01*
X207015407Y-178492879D01*
X207042190Y-178490000D01*
X207045810Y-178490000D01*
X207113931Y-178510002D01*
G37*
G36*
X189892121Y-159590002D02*
G01*
X189938614Y-159643658D01*
X189950000Y-159696000D01*
X189950000Y-159704000D01*
X189929998Y-159772121D01*
X189876342Y-159818614D01*
X189824000Y-159830000D01*
X188356000Y-159830000D01*
X188287879Y-159809998D01*
X188241386Y-159756342D01*
X188230000Y-159704000D01*
X188230000Y-159696000D01*
X188250002Y-159627879D01*
X188303658Y-159581386D01*
X188356000Y-159570000D01*
X189824000Y-159570000D01*
X189892121Y-159590002D01*
G37*
G36*
X57002121Y-121490002D02*
G01*
X57048614Y-121543658D01*
X57060000Y-121596000D01*
X57060000Y-121604000D01*
X57039998Y-121672121D01*
X56986342Y-121718614D01*
X56934000Y-121730000D01*
X52666000Y-121730000D01*
X52597879Y-121709998D01*
X52551386Y-121656342D01*
X52540000Y-121604000D01*
X52540000Y-121596000D01*
X52560002Y-121527879D01*
X52613658Y-121481386D01*
X52666000Y-121470000D01*
X56934000Y-121470000D01*
X57002121Y-121490002D01*
G37*
G36*
X142272121Y-140540002D02*
G01*
X142318614Y-140593658D01*
X142330000Y-140646000D01*
X142330000Y-140654000D01*
X142309998Y-140722121D01*
X142256342Y-140768614D01*
X142204000Y-140780000D01*
X140736000Y-140780000D01*
X140667879Y-140759998D01*
X140621386Y-140706342D01*
X140610000Y-140654000D01*
X140610000Y-140646000D01*
X140630002Y-140577879D01*
X140683658Y-140531386D01*
X140736000Y-140520000D01*
X142204000Y-140520000D01*
X142272121Y-140540002D01*
G37*
G36*
X281122121Y-102740002D02*
G01*
X281168614Y-102793658D01*
X281180000Y-102846000D01*
X281180000Y-107981885D01*
X281187530Y-108007530D01*
X283037188Y-109857188D01*
X283060650Y-109870000D01*
X294757810Y-109870000D01*
X294825931Y-109890002D01*
X294846905Y-109906905D01*
X304893095Y-119953095D01*
X304927121Y-120015407D01*
X304930000Y-120042190D01*
X304930000Y-126207810D01*
X304909998Y-126275931D01*
X304893095Y-126296905D01*
X297482812Y-133707188D01*
X297470000Y-133730650D01*
X297470000Y-138104000D01*
X297449998Y-138172121D01*
X297396342Y-138218614D01*
X297344000Y-138230000D01*
X292928115Y-138230000D01*
X292902470Y-138237530D01*
X290652812Y-140487188D01*
X290640000Y-140510650D01*
X290640000Y-151241885D01*
X290647530Y-151267530D01*
X291637188Y-152257188D01*
X291660650Y-152270000D01*
X300037810Y-152270000D01*
X300105931Y-152290002D01*
X300126905Y-152306905D01*
X302457188Y-154637188D01*
X302480650Y-154650000D01*
X313337810Y-154650000D01*
X313405931Y-154670002D01*
X313426905Y-154686905D01*
X316593095Y-157853095D01*
X316627121Y-157915407D01*
X316630000Y-157942190D01*
X316630000Y-162697810D01*
X316609998Y-162765931D01*
X316593095Y-162786905D01*
X314816905Y-164563095D01*
X314754593Y-164597121D01*
X314727810Y-164600000D01*
X307268115Y-164600000D01*
X307252876Y-164604475D01*
X307251671Y-164605865D01*
X307250000Y-164613548D01*
X307250000Y-168151885D01*
X307257530Y-168177530D01*
X310387188Y-171307188D01*
X310410650Y-171320000D01*
X317947810Y-171320000D01*
X318015931Y-171340002D01*
X318036905Y-171356905D01*
X320037188Y-173357188D01*
X320060650Y-173370000D01*
X329677810Y-173370000D01*
X329745931Y-173390002D01*
X329766905Y-173406905D01*
X331820905Y-175460905D01*
X331854931Y-175523217D01*
X331849866Y-175594032D01*
X331820905Y-175639095D01*
X331819095Y-175640905D01*
X331756783Y-175674931D01*
X331685968Y-175669866D01*
X331640905Y-175640905D01*
X329642812Y-173642812D01*
X329619350Y-173630000D01*
X320002190Y-173630000D01*
X319934069Y-173609998D01*
X319913095Y-173593095D01*
X317912812Y-171592812D01*
X317889350Y-171580000D01*
X310352190Y-171580000D01*
X310284069Y-171559998D01*
X310263095Y-171543095D01*
X307026905Y-168306905D01*
X306992879Y-168244593D01*
X306990000Y-168217810D01*
X306990000Y-164456000D01*
X307010002Y-164387879D01*
X307063658Y-164341386D01*
X307116000Y-164330000D01*
X314671885Y-164330000D01*
X314697530Y-164322470D01*
X316357188Y-162662812D01*
X316370000Y-162639350D01*
X316370000Y-158008115D01*
X316362470Y-157982470D01*
X313302812Y-154922812D01*
X313279350Y-154910000D01*
X302422190Y-154910000D01*
X302354069Y-154889998D01*
X302333095Y-154873095D01*
X300002812Y-152542812D01*
X299979350Y-152530000D01*
X291602190Y-152530000D01*
X291534069Y-152509998D01*
X291513095Y-152493095D01*
X290416905Y-151396905D01*
X290382879Y-151334593D01*
X290380000Y-151307810D01*
X290380000Y-140442190D01*
X290400002Y-140374069D01*
X290416905Y-140353095D01*
X292763095Y-138006905D01*
X292825407Y-137972879D01*
X292852190Y-137970000D01*
X297191885Y-137970000D01*
X297207124Y-137965525D01*
X297208329Y-137964135D01*
X297210000Y-137956452D01*
X297210000Y-133662190D01*
X297230002Y-133594069D01*
X297246905Y-133573095D01*
X304657188Y-126162812D01*
X304670000Y-126139350D01*
X304670000Y-120118115D01*
X304662470Y-120092470D01*
X294712812Y-110142812D01*
X294689350Y-110130000D01*
X283002190Y-110130000D01*
X282934069Y-110109998D01*
X282913095Y-110093095D01*
X280956905Y-108136905D01*
X280922879Y-108074593D01*
X280920000Y-108047810D01*
X280920000Y-102846000D01*
X280940002Y-102777879D01*
X280993658Y-102731386D01*
X281046000Y-102720000D01*
X281054000Y-102720000D01*
X281122121Y-102740002D01*
G37*
G36*
X151752121Y-159590002D02*
G01*
X151798614Y-159643658D01*
X151810000Y-159696000D01*
X151810000Y-159704000D01*
X151789998Y-159772121D01*
X151736342Y-159818614D01*
X151684000Y-159830000D01*
X150216000Y-159830000D01*
X150147879Y-159809998D01*
X150101386Y-159756342D01*
X150090000Y-159704000D01*
X150090000Y-159696000D01*
X150110002Y-159627879D01*
X150163658Y-159581386D01*
X150216000Y-159570000D01*
X151684000Y-159570000D01*
X151752121Y-159590002D01*
G37*
G36*
X170812121Y-159590002D02*
G01*
X170858614Y-159643658D01*
X170870000Y-159696000D01*
X170870000Y-159704000D01*
X170849998Y-159772121D01*
X170796342Y-159818614D01*
X170744000Y-159830000D01*
X169276000Y-159830000D01*
X169207879Y-159809998D01*
X169161386Y-159756342D01*
X169150000Y-159704000D01*
X169150000Y-159696000D01*
X169170002Y-159627879D01*
X169223658Y-159581386D01*
X169276000Y-159570000D01*
X170744000Y-159570000D01*
X170812121Y-159590002D01*
G37*
G36*
X204922121Y-102520002D02*
G01*
X204968614Y-102573658D01*
X204980000Y-102626000D01*
X204980000Y-108781885D01*
X204987530Y-108807530D01*
X207417188Y-111237188D01*
X207440650Y-111250000D01*
X219937810Y-111250000D01*
X220005931Y-111270002D01*
X220026905Y-111286905D01*
X227393095Y-118653095D01*
X227427121Y-118715407D01*
X227430000Y-118742190D01*
X227430000Y-121221885D01*
X227437530Y-121247530D01*
X232153095Y-125963095D01*
X232187121Y-126025407D01*
X232190000Y-126052190D01*
X232190000Y-137721885D01*
X232197530Y-137747530D01*
X233353095Y-138903095D01*
X233387121Y-138965407D01*
X233390000Y-138992190D01*
X233390000Y-144627810D01*
X233369998Y-144695931D01*
X233353095Y-144716905D01*
X222682812Y-155387188D01*
X222670000Y-155410650D01*
X222670000Y-158461885D01*
X222677530Y-158487530D01*
X235047188Y-170857188D01*
X235070650Y-170870000D01*
X250977810Y-170870000D01*
X251045931Y-170890002D01*
X251066905Y-170906905D01*
X255820905Y-175660905D01*
X255854931Y-175723217D01*
X255849866Y-175794032D01*
X255820905Y-175839095D01*
X255819095Y-175840905D01*
X255756783Y-175874931D01*
X255685968Y-175869866D01*
X255640905Y-175840905D01*
X250942812Y-171142812D01*
X250919350Y-171130000D01*
X235002190Y-171130000D01*
X234934069Y-171109998D01*
X234913095Y-171093095D01*
X222446905Y-158626905D01*
X222412879Y-158564593D01*
X222410000Y-158537810D01*
X222410000Y-155342190D01*
X222430002Y-155274069D01*
X222446905Y-155253095D01*
X233117188Y-144582812D01*
X233130000Y-144559350D01*
X233130000Y-139068115D01*
X233122470Y-139042470D01*
X231966905Y-137886905D01*
X231932879Y-137824593D01*
X231930000Y-137797810D01*
X231930000Y-126128115D01*
X231922470Y-126102470D01*
X227206905Y-121386905D01*
X227172879Y-121324593D01*
X227170000Y-121297810D01*
X227170000Y-118818115D01*
X227162470Y-118792470D01*
X219892812Y-111522812D01*
X219869350Y-111510000D01*
X207382190Y-111510000D01*
X207314069Y-111489998D01*
X207293095Y-111473095D01*
X204756905Y-108936905D01*
X204722879Y-108874593D01*
X204720000Y-108847810D01*
X204720000Y-102626000D01*
X204740002Y-102557879D01*
X204793658Y-102511386D01*
X204846000Y-102500000D01*
X204854000Y-102500000D01*
X204922121Y-102520002D01*
G37*
G36*
X261332121Y-178640002D02*
G01*
X261378614Y-178693658D01*
X261390000Y-178746000D01*
X261390000Y-178754000D01*
X261369998Y-178822121D01*
X261316342Y-178868614D01*
X261264000Y-178880000D01*
X259796000Y-178880000D01*
X259727879Y-178859998D01*
X259681386Y-178806342D01*
X259670000Y-178754000D01*
X259670000Y-178746000D01*
X259690002Y-178677879D01*
X259743658Y-178631386D01*
X259796000Y-178620000D01*
X261264000Y-178620000D01*
X261332121Y-178640002D01*
G37*
G36*
X85122121Y-140540002D02*
G01*
X85168614Y-140593658D01*
X85180000Y-140646000D01*
X85180000Y-140654000D01*
X85159998Y-140722121D01*
X85106342Y-140768614D01*
X85054000Y-140780000D01*
X83586000Y-140780000D01*
X83517879Y-140759998D01*
X83471386Y-140706342D01*
X83460000Y-140654000D01*
X83460000Y-140646000D01*
X83480002Y-140577879D01*
X83533658Y-140531386D01*
X83586000Y-140520000D01*
X85054000Y-140520000D01*
X85122121Y-140540002D01*
G37*
G36*
X294345931Y-99890002D02*
G01*
X294366905Y-99906905D01*
X297753095Y-103293095D01*
X297787121Y-103355407D01*
X297790000Y-103382190D01*
X297790000Y-104544000D01*
X297769998Y-104612121D01*
X297716342Y-104658614D01*
X297664000Y-104670000D01*
X297656000Y-104670000D01*
X297587879Y-104649998D01*
X297541386Y-104596342D01*
X297530000Y-104544000D01*
X297530000Y-103448115D01*
X297522470Y-103422470D01*
X294185095Y-100085095D01*
X294151069Y-100022783D01*
X294156134Y-99951968D01*
X294198681Y-99895132D01*
X294265201Y-99870321D01*
X294274190Y-99870000D01*
X294277810Y-99870000D01*
X294345931Y-99890002D01*
G37*
G36*
X332861931Y-108606002D02*
G01*
X332882905Y-108622905D01*
X336087095Y-111827095D01*
X336121121Y-111889407D01*
X336124000Y-111916190D01*
X336124000Y-111966912D01*
X336123848Y-111973094D01*
X336123081Y-111988709D01*
X336121869Y-112001018D01*
X336120636Y-112009329D01*
X336090854Y-112073777D01*
X336030956Y-112111892D01*
X335959960Y-112111574D01*
X335900407Y-112072923D01*
X335871203Y-112008210D01*
X335870000Y-111990838D01*
X335870000Y-111988115D01*
X335862470Y-111962470D01*
X332752812Y-108852812D01*
X332729350Y-108840000D01*
X332719162Y-108840000D01*
X332651041Y-108819998D01*
X332604548Y-108766342D01*
X332594444Y-108696068D01*
X332623938Y-108631488D01*
X332683664Y-108593104D01*
X332700671Y-108589364D01*
X332708982Y-108588131D01*
X332721291Y-108586919D01*
X332736906Y-108586152D01*
X332743088Y-108586000D01*
X332793810Y-108586000D01*
X332861931Y-108606002D01*
G37*
G36*
X122885931Y-99880002D02*
G01*
X122906905Y-99896905D01*
X126303095Y-103293095D01*
X126337121Y-103355407D01*
X126340000Y-103382190D01*
X126340000Y-104534000D01*
X126319998Y-104602121D01*
X126266342Y-104648614D01*
X126214000Y-104660000D01*
X126206000Y-104660000D01*
X126137879Y-104639998D01*
X126091386Y-104586342D01*
X126080000Y-104534000D01*
X126080000Y-103448115D01*
X126072470Y-103422470D01*
X122725095Y-100075095D01*
X122691069Y-100012783D01*
X122696134Y-99941968D01*
X122738681Y-99885132D01*
X122805201Y-99860321D01*
X122814190Y-99860000D01*
X122817810Y-99860000D01*
X122885931Y-99880002D01*
G37*
G36*
X218145931Y-99890002D02*
G01*
X218166905Y-99906905D01*
X221553095Y-103293095D01*
X221587121Y-103355407D01*
X221590000Y-103382190D01*
X221590000Y-104544000D01*
X221569998Y-104612121D01*
X221516342Y-104658614D01*
X221464000Y-104670000D01*
X221456000Y-104670000D01*
X221387879Y-104649998D01*
X221341386Y-104596342D01*
X221330000Y-104544000D01*
X221330000Y-103448115D01*
X221322470Y-103422470D01*
X217985095Y-100085095D01*
X217951069Y-100022783D01*
X217956134Y-99951968D01*
X217998681Y-99895132D01*
X218065201Y-99870321D01*
X218074190Y-99870000D01*
X218077810Y-99870000D01*
X218145931Y-99890002D01*
G37*
G36*
X256245931Y-99890002D02*
G01*
X256266905Y-99906905D01*
X259653095Y-103293095D01*
X259687121Y-103355407D01*
X259690000Y-103382190D01*
X259690000Y-104544000D01*
X259669998Y-104612121D01*
X259616342Y-104658614D01*
X259564000Y-104670000D01*
X259556000Y-104670000D01*
X259487879Y-104649998D01*
X259441386Y-104596342D01*
X259430000Y-104544000D01*
X259430000Y-103448115D01*
X259422470Y-103422470D01*
X256085095Y-100085095D01*
X256051069Y-100022783D01*
X256056134Y-99951968D01*
X256098681Y-99895132D01*
X256165201Y-99870321D01*
X256174190Y-99870000D01*
X256177810Y-99870000D01*
X256245931Y-99890002D01*
G37*
G36*
X337531856Y-178639519D02*
G01*
X337578349Y-178693175D01*
X337589735Y-178745517D01*
X337589735Y-178753517D01*
X337569733Y-178821638D01*
X337516077Y-178868131D01*
X337463735Y-178879517D01*
X335995735Y-178879517D01*
X335927614Y-178859515D01*
X335881121Y-178805859D01*
X335869735Y-178753517D01*
X335869735Y-178745517D01*
X335889737Y-178677396D01*
X335943393Y-178630903D01*
X335995735Y-178619517D01*
X337463735Y-178619517D01*
X337531856Y-178639519D01*
G37*
G36*
X237522121Y-140540002D02*
G01*
X237568614Y-140593658D01*
X237580000Y-140646000D01*
X237580000Y-140654000D01*
X237559998Y-140722121D01*
X237506342Y-140768614D01*
X237454000Y-140780000D01*
X235986000Y-140780000D01*
X235917879Y-140759998D01*
X235871386Y-140706342D01*
X235860000Y-140654000D01*
X235860000Y-140646000D01*
X235880002Y-140577879D01*
X235933658Y-140531386D01*
X235986000Y-140520000D01*
X237454000Y-140520000D01*
X237522121Y-140540002D01*
G37*
G36*
X52522121Y-102260002D02*
G01*
X52568614Y-102313658D01*
X52580000Y-102366000D01*
X52580000Y-106381885D01*
X52587530Y-106407530D01*
X53547188Y-107367188D01*
X53570650Y-107380000D01*
X62607810Y-107380000D01*
X62675931Y-107400002D01*
X62696905Y-107416905D01*
X62793785Y-107513785D01*
X62827811Y-107576097D01*
X62820727Y-107651987D01*
X62816677Y-107661557D01*
X62771707Y-107716495D01*
X62704175Y-107738400D01*
X62635520Y-107720317D01*
X62611545Y-107701545D01*
X62562812Y-107652812D01*
X62539350Y-107640000D01*
X53512190Y-107640000D01*
X53444069Y-107619998D01*
X53423095Y-107603095D01*
X52356905Y-106536905D01*
X52322879Y-106474593D01*
X52320000Y-106447810D01*
X52320000Y-102366000D01*
X52340002Y-102297879D01*
X52393658Y-102251386D01*
X52446000Y-102240000D01*
X52454000Y-102240000D01*
X52522121Y-102260002D01*
G37*
G36*
X335824512Y-111564966D02*
G01*
X335831095Y-111571095D01*
X336093095Y-111833095D01*
X336127121Y-111895407D01*
X336130000Y-111922190D01*
X336130000Y-124277810D01*
X336109998Y-124345931D01*
X336093095Y-124366905D01*
X330696905Y-129763095D01*
X330634593Y-129797121D01*
X330607810Y-129800000D01*
X326916795Y-129800000D01*
X326905770Y-129803237D01*
X326909085Y-129810496D01*
X326937634Y-129839299D01*
X326971383Y-129901761D01*
X326966005Y-129972554D01*
X326923207Y-130029201D01*
X326856578Y-130053717D01*
X326848145Y-130054000D01*
X326833064Y-130054000D01*
X326764943Y-130033998D01*
X326743588Y-130016714D01*
X326554691Y-129826194D01*
X326520933Y-129763736D01*
X326526301Y-129692943D01*
X326548942Y-129654968D01*
X326558330Y-129644133D01*
X326559400Y-129639216D01*
X326593425Y-129576904D01*
X326655738Y-129542879D01*
X326682520Y-129540000D01*
X330541885Y-129540000D01*
X330567530Y-129532470D01*
X335857188Y-124242812D01*
X335870000Y-124219350D01*
X335870000Y-111988115D01*
X335862470Y-111962470D01*
X335652905Y-111752905D01*
X335618879Y-111690593D01*
X335616000Y-111663810D01*
X335616000Y-111660190D01*
X335636002Y-111592069D01*
X335689658Y-111545576D01*
X335759932Y-111535472D01*
X335824512Y-111564966D01*
G37*
G36*
X266092121Y-159590002D02*
G01*
X266138614Y-159643658D01*
X266150000Y-159696000D01*
X266150000Y-159704000D01*
X266129998Y-159772121D01*
X266076342Y-159818614D01*
X266024000Y-159830000D01*
X264556000Y-159830000D01*
X264487879Y-159809998D01*
X264441386Y-159756342D01*
X264430000Y-159704000D01*
X264430000Y-159696000D01*
X264450002Y-159627879D01*
X264503658Y-159581386D01*
X264556000Y-159570000D01*
X266024000Y-159570000D01*
X266092121Y-159590002D01*
G37*
G36*
X80362121Y-121490002D02*
G01*
X80408614Y-121543658D01*
X80420000Y-121596000D01*
X80420000Y-121604000D01*
X80399998Y-121672121D01*
X80346342Y-121718614D01*
X80294000Y-121730000D01*
X78826000Y-121730000D01*
X78757879Y-121709998D01*
X78711386Y-121656342D01*
X78700000Y-121604000D01*
X78700000Y-121596000D01*
X78720002Y-121527879D01*
X78773658Y-121481386D01*
X78826000Y-121470000D01*
X80294000Y-121470000D01*
X80362121Y-121490002D01*
G37*
G36*
X147772121Y-102510002D02*
G01*
X147818614Y-102563658D01*
X147830000Y-102616000D01*
X147830000Y-106631885D01*
X147837530Y-106657530D01*
X151087188Y-109907188D01*
X151110650Y-109920000D01*
X161457810Y-109920000D01*
X161525931Y-109940002D01*
X161546905Y-109956905D01*
X170243095Y-118653095D01*
X170277121Y-118715407D01*
X170280000Y-118742190D01*
X170280000Y-121071885D01*
X170287530Y-121097530D01*
X175003095Y-125813095D01*
X175037121Y-125875407D01*
X175040000Y-125902190D01*
X175040000Y-137581885D01*
X175047530Y-137607530D01*
X176353095Y-138913095D01*
X176387121Y-138975407D01*
X176390000Y-139002190D01*
X176390000Y-144247810D01*
X176369998Y-144315931D01*
X176353095Y-144336905D01*
X165532812Y-155157188D01*
X165520000Y-155180650D01*
X165520000Y-158171885D01*
X165527530Y-158197530D01*
X166783095Y-159453095D01*
X166817121Y-159515407D01*
X166820000Y-159542190D01*
X166820000Y-166621885D01*
X166827530Y-166647530D01*
X169107188Y-168927188D01*
X169130650Y-168940000D01*
X178597810Y-168940000D01*
X178665931Y-168960002D01*
X178686905Y-168976905D01*
X182153095Y-172443095D01*
X182187121Y-172505407D01*
X182190000Y-172532190D01*
X182190000Y-175764000D01*
X182169998Y-175832121D01*
X182116342Y-175878614D01*
X182064000Y-175890000D01*
X182046000Y-175890000D01*
X181977879Y-175869998D01*
X181931386Y-175816342D01*
X181920000Y-175764000D01*
X181920000Y-172598115D01*
X181912470Y-172572470D01*
X178552812Y-169212812D01*
X178529350Y-169200000D01*
X169072190Y-169200000D01*
X169004069Y-169179998D01*
X168983095Y-169163095D01*
X166596905Y-166776905D01*
X166562879Y-166714593D01*
X166560000Y-166687810D01*
X166560000Y-159618115D01*
X166552470Y-159592470D01*
X165296905Y-158336905D01*
X165262879Y-158274593D01*
X165260000Y-158247810D01*
X165260000Y-155112190D01*
X165280002Y-155044069D01*
X165296905Y-155023095D01*
X176117188Y-144202812D01*
X176130000Y-144179350D01*
X176130000Y-139078115D01*
X176122470Y-139052470D01*
X174816905Y-137746905D01*
X174782879Y-137684593D01*
X174780000Y-137657810D01*
X174780000Y-125978115D01*
X174772470Y-125952470D01*
X170056905Y-121236905D01*
X170022879Y-121174593D01*
X170020000Y-121147810D01*
X170020000Y-118818115D01*
X170012470Y-118792470D01*
X161412812Y-110192812D01*
X161389350Y-110180000D01*
X151052190Y-110180000D01*
X150984069Y-110159998D01*
X150963095Y-110143095D01*
X147606905Y-106786905D01*
X147572879Y-106724593D01*
X147570000Y-106697810D01*
X147570000Y-102616000D01*
X147590002Y-102547879D01*
X147643658Y-102501386D01*
X147696000Y-102490000D01*
X147704000Y-102490000D01*
X147772121Y-102510002D01*
G37*
G36*
X77197892Y-167125315D02*
G01*
X77316499Y-167163862D01*
X77375101Y-167203939D01*
X77402734Y-167269338D01*
X77390622Y-167339294D01*
X77363451Y-167375875D01*
X76640831Y-168049226D01*
X76639184Y-168050816D01*
X73962812Y-170727188D01*
X73950000Y-170750650D01*
X73950000Y-183291885D01*
X73957530Y-183317530D01*
X76237188Y-185597188D01*
X76260650Y-185610000D01*
X92791885Y-185610000D01*
X92817530Y-185602470D01*
X94947188Y-183472812D01*
X94960000Y-183449350D01*
X94960000Y-171518115D01*
X94952470Y-171492470D01*
X93228595Y-169768595D01*
X93194569Y-169706283D01*
X93199634Y-169635468D01*
X93242181Y-169578632D01*
X93308701Y-169553821D01*
X93378075Y-169568912D01*
X93405022Y-169588675D01*
X93499142Y-169679175D01*
X93500905Y-169680905D01*
X95183095Y-171363095D01*
X95217121Y-171425407D01*
X95220000Y-171452190D01*
X95220000Y-183517810D01*
X95199998Y-183585931D01*
X95183095Y-183606905D01*
X92956905Y-185833095D01*
X92894593Y-185867121D01*
X92867810Y-185870000D01*
X76202190Y-185870000D01*
X76134069Y-185849998D01*
X76113095Y-185833095D01*
X73726905Y-183446905D01*
X73692879Y-183384593D01*
X73690000Y-183357810D01*
X73690000Y-170682190D01*
X73710002Y-170614069D01*
X73726905Y-170593095D01*
X76228807Y-168091193D01*
X76231123Y-168088751D01*
X77065245Y-167160908D01*
X77125662Y-167123621D01*
X77197892Y-167125315D01*
G37*
G36*
X132702121Y-159590002D02*
G01*
X132748614Y-159643658D01*
X132760000Y-159696000D01*
X132760000Y-159704000D01*
X132739998Y-159772121D01*
X132686342Y-159818614D01*
X132634000Y-159830000D01*
X131166000Y-159830000D01*
X131097879Y-159809998D01*
X131051386Y-159756342D01*
X131040000Y-159704000D01*
X131040000Y-159696000D01*
X131060002Y-159627879D01*
X131113658Y-159581386D01*
X131166000Y-159570000D01*
X132634000Y-159570000D01*
X132702121Y-159590002D01*
G37*
G36*
X309692121Y-102180002D02*
G01*
X309738614Y-102233658D01*
X309750000Y-102286000D01*
X309750000Y-107551885D01*
X309757530Y-107577530D01*
X310747188Y-108567188D01*
X310770650Y-108580000D01*
X332787810Y-108580000D01*
X332855931Y-108600002D01*
X332876905Y-108616905D01*
X333138905Y-108878905D01*
X333172931Y-108941217D01*
X333167866Y-109012032D01*
X333125319Y-109068868D01*
X333058799Y-109093679D01*
X333049810Y-109094000D01*
X333046190Y-109094000D01*
X332978069Y-109073998D01*
X332957095Y-109057095D01*
X332752812Y-108852812D01*
X332729350Y-108840000D01*
X310712190Y-108840000D01*
X310644069Y-108819998D01*
X310623095Y-108803095D01*
X309526905Y-107706905D01*
X309492879Y-107644593D01*
X309490000Y-107617810D01*
X309490000Y-102286000D01*
X309510002Y-102217879D01*
X309563658Y-102171386D01*
X309616000Y-102160000D01*
X309624000Y-102160000D01*
X309692121Y-102180002D01*
G37*
G36*
X251812121Y-121490002D02*
G01*
X251858614Y-121543658D01*
X251870000Y-121596000D01*
X251870000Y-121604000D01*
X251849998Y-121672121D01*
X251796342Y-121718614D01*
X251744000Y-121730000D01*
X250276000Y-121730000D01*
X250207879Y-121709998D01*
X250161386Y-121656342D01*
X250150000Y-121604000D01*
X250150000Y-121596000D01*
X250170002Y-121527879D01*
X250223658Y-121481386D01*
X250276000Y-121470000D01*
X251744000Y-121470000D01*
X251812121Y-121490002D01*
G37*
G36*
X356581965Y-159749908D02*
G01*
X356628458Y-159803564D01*
X356639844Y-159855906D01*
X356639844Y-159863906D01*
X356619842Y-159932027D01*
X356566186Y-159978520D01*
X356513844Y-159989906D01*
X355045844Y-159989906D01*
X354977723Y-159969904D01*
X354931230Y-159916248D01*
X354919844Y-159863906D01*
X354919844Y-159855906D01*
X354939846Y-159787785D01*
X354993502Y-159741292D01*
X355045844Y-159729906D01*
X356513844Y-159729906D01*
X356581965Y-159749908D01*
G37*
G36*
X242281560Y-178639558D02*
G01*
X242328053Y-178693214D01*
X242339439Y-178745556D01*
X242339439Y-178753556D01*
X242319437Y-178821677D01*
X242265781Y-178868170D01*
X242213439Y-178879556D01*
X240745439Y-178879556D01*
X240677318Y-178859554D01*
X240630825Y-178805898D01*
X240619439Y-178753556D01*
X240619439Y-178745556D01*
X240639441Y-178677435D01*
X240693097Y-178630942D01*
X240745439Y-178619556D01*
X242213439Y-178619556D01*
X242281560Y-178639558D01*
G37*
G36*
X85235931Y-100330002D02*
G01*
X85256905Y-100346905D01*
X88203095Y-103293095D01*
X88237121Y-103355407D01*
X88240000Y-103382190D01*
X88240000Y-104534000D01*
X88219998Y-104602121D01*
X88166342Y-104648614D01*
X88114000Y-104660000D01*
X88106000Y-104660000D01*
X88037879Y-104639998D01*
X87991386Y-104586342D01*
X87980000Y-104534000D01*
X87980000Y-103448115D01*
X87972470Y-103422470D01*
X85075095Y-100525095D01*
X85041069Y-100462783D01*
X85046134Y-100391968D01*
X85088681Y-100335132D01*
X85155201Y-100310321D01*
X85164190Y-100310000D01*
X85167810Y-100310000D01*
X85235931Y-100330002D01*
G37*
G36*
X237195931Y-99890002D02*
G01*
X237216905Y-99906905D01*
X240603095Y-103293095D01*
X240637121Y-103355407D01*
X240640000Y-103382190D01*
X240640000Y-104544000D01*
X240619998Y-104612121D01*
X240566342Y-104658614D01*
X240514000Y-104670000D01*
X240506000Y-104670000D01*
X240437879Y-104649998D01*
X240391386Y-104596342D01*
X240380000Y-104544000D01*
X240380000Y-103448115D01*
X240372470Y-103422470D01*
X237035095Y-100085095D01*
X237001069Y-100022783D01*
X237006134Y-99951968D01*
X237048681Y-99895132D01*
X237115201Y-99870321D01*
X237124190Y-99870000D01*
X237127810Y-99870000D01*
X237195931Y-99890002D01*
G37*
G36*
X185872121Y-102370002D02*
G01*
X185918614Y-102423658D01*
X185930000Y-102476000D01*
X185930000Y-107731885D01*
X185937530Y-107757530D01*
X188987188Y-110807188D01*
X189010650Y-110820000D01*
X200457810Y-110820000D01*
X200525931Y-110840002D01*
X200546905Y-110856905D01*
X208343095Y-118653095D01*
X208377121Y-118715407D01*
X208380000Y-118742190D01*
X208380000Y-121171885D01*
X208387530Y-121197530D01*
X213103095Y-125913095D01*
X213137121Y-125975407D01*
X213140000Y-126002190D01*
X213140000Y-137721885D01*
X213147530Y-137747530D01*
X214353095Y-138953095D01*
X214387121Y-139015407D01*
X214390000Y-139042190D01*
X214390000Y-144567810D01*
X214369998Y-144635931D01*
X214353095Y-144656905D01*
X203632812Y-155377188D01*
X203620000Y-155400650D01*
X203620000Y-156781885D01*
X203627530Y-156807530D01*
X204883095Y-158063095D01*
X204917121Y-158125407D01*
X204920000Y-158152190D01*
X204920000Y-166621885D01*
X204927530Y-166647530D01*
X207207188Y-168927188D01*
X207230650Y-168940000D01*
X216697810Y-168940000D01*
X216765931Y-168960002D01*
X216786905Y-168976905D01*
X220243095Y-172433095D01*
X220277121Y-172495407D01*
X220280000Y-172522190D01*
X220280000Y-175544000D01*
X220259998Y-175612121D01*
X220206342Y-175658614D01*
X220154000Y-175670000D01*
X220146000Y-175670000D01*
X220077879Y-175649998D01*
X220031386Y-175596342D01*
X220020000Y-175544000D01*
X220020000Y-172598115D01*
X220012470Y-172572470D01*
X216652812Y-169212812D01*
X216629350Y-169200000D01*
X207172190Y-169200000D01*
X207104069Y-169179998D01*
X207083095Y-169163095D01*
X204696905Y-166776905D01*
X204662879Y-166714593D01*
X204660000Y-166687810D01*
X204660000Y-158218115D01*
X204652470Y-158192470D01*
X203386905Y-156926905D01*
X203352879Y-156864593D01*
X203350000Y-156837810D01*
X203350000Y-155352190D01*
X203370002Y-155284069D01*
X203386905Y-155263095D01*
X214117188Y-144532812D01*
X214130000Y-144509350D01*
X214130000Y-139118115D01*
X214122470Y-139092470D01*
X212916905Y-137886905D01*
X212882879Y-137824593D01*
X212880000Y-137797810D01*
X212880000Y-126078115D01*
X212872470Y-126052470D01*
X208156905Y-121336905D01*
X208122879Y-121274593D01*
X208120000Y-121247810D01*
X208120000Y-118818115D01*
X208112470Y-118792470D01*
X200412812Y-111092812D01*
X200389350Y-111080000D01*
X188952190Y-111080000D01*
X188884069Y-111059998D01*
X188863095Y-111043095D01*
X185706905Y-107886905D01*
X185672879Y-107824593D01*
X185670000Y-107797810D01*
X185670000Y-102476000D01*
X185690002Y-102407879D01*
X185743658Y-102361386D01*
X185796000Y-102350000D01*
X185804000Y-102350000D01*
X185872121Y-102370002D01*
G37*
G36*
X280381607Y-178639815D02*
G01*
X280428100Y-178693471D01*
X280439486Y-178745813D01*
X280439486Y-178753813D01*
X280419484Y-178821934D01*
X280365828Y-178868427D01*
X280313486Y-178879813D01*
X278845486Y-178879813D01*
X278777365Y-178859811D01*
X278730872Y-178806155D01*
X278719486Y-178753813D01*
X278719486Y-178745813D01*
X278739488Y-178677692D01*
X278793144Y-178631199D01*
X278845486Y-178619813D01*
X280313486Y-178619813D01*
X280381607Y-178639815D01*
G37*
G36*
X362705931Y-124630002D02*
G01*
X362726905Y-124646905D01*
X371593095Y-133513095D01*
X371627121Y-133575407D01*
X371630000Y-133602190D01*
X371630000Y-136467810D01*
X371609998Y-136535931D01*
X371593095Y-136556905D01*
X370405095Y-137744905D01*
X370342783Y-137778931D01*
X370271968Y-137773866D01*
X370215132Y-137731319D01*
X370190321Y-137664799D01*
X370190000Y-137655810D01*
X370190000Y-137652190D01*
X370210002Y-137584069D01*
X370226905Y-137563095D01*
X371357188Y-136432812D01*
X371370000Y-136409350D01*
X371370000Y-133678115D01*
X371362470Y-133652470D01*
X362535095Y-124825095D01*
X362501069Y-124762783D01*
X362506134Y-124691968D01*
X362548681Y-124635132D01*
X362615201Y-124610321D01*
X362624190Y-124610000D01*
X362637810Y-124610000D01*
X362705931Y-124630002D01*
G37*
M02*
